<?xml version="1.0" encoding="UTF-8" standalone="no"?>
<svg width="12px" height="21px" viewBox="0 0 12 21" version="1.1" xmlns="http://www.w3.org/2000/svg" xmlns:xlink="http://www.w3.org/1999/xlink">
    <!-- Generator: Sketch 47.1 (45422) - http://www.bohemiancoding.com/sketch -->
    <title>fb-ic</title>
    <desc>Created with Sketch.</desc>
    <defs></defs>
    <g id="Page-1" stroke="none" stroke-width="1" fill="none" fill-rule="evenodd">
        <g id="5-FS-Emailer-Reminder" transform="translate(-737.000000, -37.000000)" fill="#FFFFFF">
            <g id="Group-4-Copy" transform="translate(728.000000, 32.000000)">
                <g id="Group-2">
                    <path d="M20.3713865,6.26009473 C20.3465768,6.1091025 20.2420027,5.98265317 20.0987468,5.93009934 C19.2245391,5.61104154 18.0691551,5.29491823 16.8292047,5.29411792 C15.8565586,5.29385114 14.8260233,5.49232857 13.8680496,6.05094648 C13.3857281,6.33132252 13.0055798,6.68586082 12.7161336,7.08494983 C12.280497,7.68438367 12.0486732,8.37425278 11.9179556,9.07452595 C11.8125811,9.64088021 11.7728323,10.2179053 11.7514906,10.7773235 C11.5017932,10.7831925 11.2187495,10.7850599 10.9610489,10.7850599 C10.7356277,10.7850599 10.5294139,10.783726 10.379222,10.7821254 C10.3042594,10.7813251 10.2437024,10.7807915 10.2015527,10.780258 C10.1594029,10.7794577 10.1369942,10.7791909 10.1364606,10.7791909 C10.0233498,10.7775903 9.9123732,10.8224078 9.83154166,10.9016387 C9.7509769,10.9814031 9.70509234,11.092113 9.70589265,11.2054905 L9.72269921,14.0225895 C9.72429983,14.2573477 9.91424059,14.4638283 10.1484653,14.4638283 L10.444314,14.4638283 C10.8591425,14.4638283 11.6333112,14.4459546 12.2284767,14.4576925 C12.316511,16.3928474 12.3373191,19.292912 12.3373191,21.5431232 C12.3373191,22.4917599 12.3333176,23.3184824 12.3301163,23.9139146 C12.3279822,24.2108305 12.3263815,24.4469226 12.3247809,24.6107198 C12.3234471,24.7742502 12.3226468,24.861751 12.3226468,24.8622846 C12.3215797,24.9753954 12.3658636,25.0845046 12.4461616,25.1650694 C12.5261928,25.2451006 12.6355688,25.2899181 12.7489464,25.2893845 L16.5194839,25.2704438 C16.6328615,25.2699103 16.7395697,25.2245592 16.8190674,25.1437277 C16.8988319,25.0631629 16.9423155,24.9556543 16.9412484,24.84201 C16.9412484,24.84201 16.9215074,22.5235056 16.8982983,20.02253 C16.8785573,17.8718243 16.8566821,15.589334 16.8441439,14.5262526 C17.076768,14.522251 17.347807,14.5206504 17.6113765,14.5209172 C17.9194967,14.5209172 18.219347,14.5227846 18.4418338,14.524652 C18.5528104,14.5254523 18.6448463,14.5265194 18.7086045,14.5273197 C18.7728963,14.52812 18.8086435,14.5283868 18.8086435,14.5283868 C18.9220211,14.5299874 19.0311303,14.4859702 19.1119619,14.4064726 C19.1927934,14.3269749 19.2384112,14.218666 19.238678,14.1052884 L19.2434798,11.4960039 C19.2437466,11.3826263 19.1991959,11.2372363 19.1188979,11.1574718 C19.0388667,11.0777074 18.9310913,10.9960755 18.817447,10.9960755 L18.676592,10.9960755 C18.5864235,10.9960755 18.4581068,11.0344905 18.3041801,11.0344905 C17.8311956,11.0344905 17.1157165,11.0512971 16.549629,11.0416933 C16.5597663,10.7522471 16.5859098,10.5060177 16.6285931,10.2877992 C16.6696758,10.0754497 16.7262312,9.90338261 16.7929239,9.76172735 C16.8430768,9.6555526 16.8988319,9.57178659 16.9585885,9.50162589 C17.0492906,9.39651822 17.1474622,9.3255572 17.2739115,9.2727366 C17.4000941,9.22044954 17.5588227,9.18923736 17.762102,9.18897059 C18.1230428,9.18790351 18.6187028,9.2946118 19.2394783,9.53443869 C19.2770929,9.54751045 19.2861631,9.54777722 19.2952334,9.54991139 C19.309639,9.55337941 19.3237778,9.55658066 19.3379167,9.55844805 C19.3517887,9.56004868 19.3653941,9.56058222 19.3787326,9.56111576 C19.3928714,9.56138253 19.4064767,9.5616493 19.4206156,9.56084899 C19.4344877,9.55978191 19.4478262,9.55791451 19.460898,9.55551358 C19.4745033,9.55337941 19.4881086,9.5507117 19.5011804,9.54724368 C19.5139854,9.54377566 19.5267903,9.53924056 19.5390618,9.53443869 C19.5521336,9.52990358 19.5649386,9.52483494 19.57721,9.51869921 C19.5892147,9.51283026 19.6004191,9.50616099 19.6118902,9.49922495 C19.6236281,9.49202214 19.635366,9.48428579 19.6465704,9.4760159 C19.6572412,9.46827955 19.666845,9.45947611 19.6764487,9.45040591 C19.6871196,9.44080216 19.6972568,9.43119841 19.706327,9.42079436 C19.7399402,9.37784427 19.7482101,9.36637313 19.7554129,9.35410167 C19.7786219,9.30768357 19.7836906,9.29994721 19.7871586,9.29087701 C19.8829293,8.98008911 20.0299199,8.5071046 20.1561025,8.00797656 C20.2190604,7.75774562 20.2774832,7.50057863 20.3207,7.25274862 C20.3636501,7.00465184 20.3927281,6.76775943 20.3929949,6.54687327 C20.3924614,6.44923518 20.3865924,6.35453157 20.3713865,6.26009473 Z M16.8147991,8.55245563 C16.6048505,8.66103131 16.4218458,8.81415771 16.2753887,8.99849629 C16.0547693,9.27593785 15.9128473,9.61607053 15.8237458,10.0031549 C15.7346444,10.3910395 15.6964962,10.8306777 15.6964962,11.3263377 C15.6964962,11.3770241 15.6970297,11.4285109 15.6975633,11.4805312 C15.7012981,11.7070195 15.8819018,11.8284002 16.1083902,11.8358698 C16.7115588,11.8550773 17.6999444,11.7961209 18.3039133,11.7961209 L18.3946154,11.7961209 L18.3914141,13.6136299 C18.1745295,13.6120293 17.8973547,13.6413741 17.6113765,13.6413741 C17.1597336,13.6413741 16.6920846,13.6608484 16.3935681,13.6755207 C16.1649456,13.6869919 15.9872763,13.8844022 15.9904775,14.1132915 C16.0019487,14.8378408 16.0275587,17.5260895 16.0505009,20.0262648 C16.0619721,21.2766192 16.0726429,22.48349 16.080646,23.3755713 C16.0843808,23.8085402 16.0875821,24.1678804 16.0897162,24.4229132 L13.1744457,24.4383859 C13.1789808,23.8763 13.1851165,22.8100174 13.1851165,21.5324523 C13.1851165,19.1173769 13.1621742,15.9553434 13.0559995,14.0015146 C13.0442616,13.7816955 12.8676594,13.6085613 12.6478403,13.6008249 C12.0734829,13.5805504 11.1189772,13.5768156 10.5686292,13.5765488 L10.5568913,11.6317902 C10.6769381,11.6325905 10.8151254,11.6333908 10.9613157,11.6333908 C11.3758774,11.633124 11.8512629,11.6288557 12.1871272,11.6093814 C12.4069463,11.5968432 12.5808808,11.4173065 12.586483,11.1974874 C12.6094253,10.3051393 12.6601117,9.39918593 12.8972709,8.62875205 C13.0154503,8.24300158 13.1779137,7.8919313 13.4022679,7.58327756 C13.6271556,7.27489059 13.9128671,7.00651924 14.2954163,6.78349891 C15.0991965,6.31558305 15.9694026,6.14244884 16.8297383,6.14218207 C17.8090536,6.14138176 18.7670273,6.37107136 19.5419963,6.63357376 C19.5358606,6.76615881 19.5161195,6.92968927 19.4851741,7.1070918 C19.4280852,7.43468626 19.3355157,7.80763174 19.2413457,8.14909828 C19.1981288,8.30542593 19.1549119,8.454284 19.114096,8.59140415 C18.6139009,8.42947432 18.1683938,8.34224029 17.762102,8.34143998 C17.4163671,8.34117321 17.0951751,8.40653204 16.8147991,8.55245563 Z" id="fb-ic"></path>
                </g>
            </g>
        </g>
    </g>
</svg>