<?xml version="1.0" standalone="no"?>
<!DOCTYPE svg PUBLIC "-//W3C//DTD SVG 20010904//EN"
 "http://www.w3.org/TR/2001/REC-SVG-20010904/DTD/svg10.dtd">
<svg version="1.0" xmlns="http://www.w3.org/2000/svg"
 width="1024.000000pt" height="1024.000000pt" viewBox="0 0 1024.000000 1024.000000"
 preserveAspectRatio="xMidYMid meet">
<metadata>
Created by potrace 1.11, written by Peter Selinger 2001-2013
</metadata>
<g transform="translate(0.000000,1024.000000) scale(0.100000,-0.100000)"
fill="#000000" stroke="none">
<path d="M437 9953 c-6 -125 -6 -128 -32 -168 -24 -37 -34 -45 -62 -45 -16 0
-24 -8 -29 -27 -10 -48 -13 -53 -31 -53 -10 0 -30 -8 -43 -17 -19 -14 -51 -19
-132 -21 l-108 -4 0 -4503 0 -4503 107 -4 c82 -2 114 -7 133 -21 13 -9 33 -17
43 -17 18 0 21 -5 31 -52 5 -20 13 -28 29 -28 28 0 38 -8 62 -45 26 -40 26
-43 32 -167 l5 -108 4678 0 4678 0 5 107 c6 125 6 128 32 168 24 37 34 45 62
45 16 0 24 8 29 28 10 47 13 52 31 52 10 0 30 8 43 17 19 14 51 19 133 21
l107 4 0 4503 0 4503 -107 4 c-82 2 -114 7 -133 21 -13 9 -33 17 -43 17 -18 0
-21 5 -31 53 -5 19 -13 27 -29 27 -28 0 -38 8 -62 45 -26 40 -26 43 -32 168
l-5 107 -4678 0 -4678 0 -5 -107z m6895 -969 c52 -5 57 -8 60 -32 2 -16 12
-31 26 -37 12 -5 22 -15 22 -22 0 -7 5 -13 11 -13 5 0 7 -5 4 -11 -10 -15 21
-40 80 -68 28 -13 54 -29 58 -37 4 -8 19 -14 33 -14 14 0 23 -4 20 -9 -3 -4
17 -11 46 -14 34 -4 55 -13 64 -25 10 -15 31 -21 91 -26 92 -8 213 -25 264
-37 35 -9 37 -11 44 -64 3 -30 11 -57 16 -61 5 -3 7 -10 4 -15 -4 -5 -1 -9 4
-9 6 0 11 -11 11 -25 0 -15 6 -25 14 -25 7 0 16 -9 19 -20 3 -11 12 -20 21
-20 9 0 16 -4 16 -8 0 -4 17 -14 38 -21 20 -8 45 -20 54 -29 10 -8 40 -17 66
-20 44 -4 50 -7 60 -37 16 -42 31 -163 32 -243 0 -45 4 -64 14 -68 8 -3 13
-11 10 -17 -2 -7 11 -27 31 -45 21 -21 35 -43 35 -58 0 -13 6 -24 13 -24 9 0
9 -2 -1 -9 -11 -7 -10 -9 3 -15 9 -3 14 -10 10 -15 -3 -5 -1 -12 4 -15 5 -4 8
-18 5 -31 -2 -14 0 -25 5 -25 16 0 25 -42 11 -50 -8 -5 -1 -11 21 -15 29 -7
31 -9 14 -16 -17 -6 -17 -8 -2 -8 9 -1 17 -7 17 -14 0 -8 8 -24 19 -36 16 -18
20 -45 26 -162 4 -77 5 -143 2 -146 -11 -10 13 -43 32 -43 12 0 20 -9 23 -25
4 -21 1 -25 -18 -25 -22 0 -24 -4 -24 -55 0 -52 1 -55 25 -55 18 0 25 -5 25
-20 0 -15 -7 -20 -25 -20 -38 0 -35 -39 3 -41 l27 -2 -26 -4 c-24 -4 -27 -10
-36 -66 -6 -34 -11 -91 -13 -127 -3 -110 -4 -115 -22 -122 -12 -5 -15 -13 -11
-24 4 -12 3 -15 -5 -10 -6 4 -19 -1 -29 -11 -10 -10 -30 -19 -43 -21 -14 -2
-52 -13 -85 -25 -59 -21 -76 -21 -715 -23 -360 -2 -672 0 -692 3 -31 4 -39 11
-50 39 -6 19 -15 34 -18 34 -3 0 -7 30 -9 68 -1 37 -4 85 -6 107 -3 22 -5 94
-6 159 -1 114 -11 244 -25 311 -3 17 -7 57 -8 90 -4 77 -16 147 -28 163 -6 6
-32 12 -60 12 -27 0 -47 4 -44 9 7 10 -12 15 -113 31 -36 5 -69 14 -75 20 -6
6 -64 10 -137 10 -126 0 -153 -6 -208 -46 -2 -2 -9 -67 -17 -144 -7 -78 -18
-147 -23 -154 -10 -12 -18 -43 -20 -73 -1 -7 -7 -13 -15 -13 -18 0 -21 -171
-3 -182 9 -6 9 -8 0 -8 -7 0 -13 -4 -13 -10 0 -5 7 -10 15 -10 8 0 15 -6 16
-12 3 -45 12 -75 26 -85 13 -10 17 -35 20 -115 2 -57 5 -121 7 -143 4 -56 40
-93 101 -104 26 -5 50 -14 54 -19 3 -6 30 -14 60 -18 30 -4 55 -13 58 -20 3
-8 11 -14 18 -14 8 0 14 -21 18 -56 3 -31 13 -64 21 -73 9 -10 16 -27 16 -39
0 -59 88 -94 270 -107 47 -4 87 -11 89 -17 2 -6 12 -18 22 -26 15 -13 19 -30
19 -85 0 -51 4 -69 15 -73 9 -4 15 -11 14 -18 -3 -24 14 -56 30 -56 9 0 29 -7
44 -15 16 -8 59 -17 95 -21 78 -7 145 -22 152 -35 3 -5 41 -14 83 -20 42 -6
77 -15 77 -20 0 -5 21 -9 48 -9 79 0 89 -16 107 -165 5 -37 14 -63 26 -73 11
-9 19 -21 19 -28 0 -12 97 -37 110 -29 5 3 11 2 14 -3 2 -4 24 -9 48 -10 78
-4 138 -14 138 -23 0 -6 9 -29 20 -51 11 -23 20 -62 20 -87 0 -70 11 -121 26
-121 7 0 15 -9 19 -19 5 -15 19 -20 78 -26 40 -4 85 -13 101 -21 16 -8 44 -14
63 -14 21 0 33 -5 33 -13 0 -8 6 -27 14 -43 9 -18 16 -71 18 -135 3 -103 4
-107 35 -137 17 -18 41 -32 53 -32 37 0 110 -22 104 -31 -3 -5 6 -9 20 -9 26
0 30 -9 27 -57 -1 -11 3 -24 8 -28 6 -3 11 -19 11 -35 0 -22 5 -29 22 -32 20
-3 24 -12 35 -95 6 -51 17 -110 23 -132 24 -90 33 -1611 10 -1716 -5 -22 -9
-86 -9 -142 0 -56 -4 -119 -10 -140 -5 -21 -13 -68 -16 -104 -8 -75 -12 -85
-40 -90 -11 -3 -20 -9 -20 -14 -2 -34 -32 -87 -57 -98 -19 -8 -28 -20 -29 -37
l-2 -25 -5 25 -5 25 -6 -25 c-5 -20 -14 -26 -41 -28 -58 -4 -75 -10 -104 -37
-29 -26 -39 -70 -45 -182 -1 -19 -7 -23 -31 -23 -20 0 -33 -6 -37 -17 -9 -24
-23 -33 -55 -33 -24 0 -28 -4 -28 -30 0 -24 -4 -30 -22 -30 -63 -1 -137 -14
-173 -31 -30 -13 -70 -19 -155 -22 -96 -3 -122 -8 -157 -26 -27 -14 -43 -30
-43 -41 0 -11 -5 -22 -10 -25 -6 -4 -8 -11 -5 -16 4 -5 -1 -9 -10 -9 -9 0 -14
-3 -11 -8 2 -4 -2 -18 -10 -32 -7 -14 -13 -19 -14 -12 0 15 -40 16 -40 1 0 -6
-9 -8 -22 -4 -17 5 -19 4 -9 -3 11 -8 3 -15 -33 -32 -27 -12 -54 -19 -61 -16
-7 2 -32 -1 -56 -8 -36 -11 -45 -18 -47 -40 -2 -18 -11 -28 -30 -33 -36 -11
-1327 -10 -1374 0 -31 6 -38 12 -38 32 0 13 -5 27 -11 31 -6 3 -59 9 -117 11
-59 3 -111 10 -117 16 -7 7 -5 7 4 2 9 -5 12 -4 7 3 -4 7 -16 12 -27 12 -12 0
-19 7 -19 20 0 11 -6 20 -14 20 -10 0 -17 15 -21 44 -14 88 -67 116 -222 116
-77 0 -114 4 -129 14 -22 16 -97 38 -134 40 -17 1 -26 7 -28 22 -3 18 -12 22
-57 28 -86 10 -113 28 -106 70 1 4 -4 15 -11 24 -7 8 -14 25 -15 36 -6 65 -17
116 -25 116 -4 0 -14 11 -20 25 -6 14 -19 25 -30 25 -13 0 -18 8 -18 30 0 26
-4 30 -36 36 -24 4 -38 13 -41 25 -3 12 -14 19 -28 19 -33 0 -56 10 -49 22 3
5 -3 12 -14 15 -11 2 -23 12 -26 21 -4 10 -13 29 -22 45 -8 15 -17 37 -19 48
-3 12 -11 30 -20 39 -11 12 -20 63 -31 176 -20 216 -22 255 -29 589 -3 160 -7
306 -9 325 -16 142 -25 334 -16 349 7 13 5 173 -3 211 0 3 6 21 15 41 9 20 18
45 22 55 3 11 26 30 51 42 45 22 47 22 683 22 545 0 641 -2 666 -15 15 -8 35
-15 44 -15 14 0 42 -9 122 -38 21 -7 30 -9 72 -10 32 -2 39 -7 62 -48 l25 -45
1 -444 c1 -316 5 -445 13 -448 6 -2 14 -60 20 -153 10 -166 17 -186 75 -211
53 -23 265 -22 307 1 18 9 54 16 90 16 89 1 185 17 205 35 10 9 20 35 23 58 3
23 8 53 11 67 9 39 14 537 7 708 -5 133 -8 155 -24 163 -9 6 -15 14 -12 20 4
5 -2 12 -12 16 -10 3 -24 11 -32 17 -7 6 -37 16 -65 21 -39 9 -50 15 -48 28 2
11 -4 17 -16 17 -15 0 -18 6 -14 30 2 18 0 30 -7 30 -6 0 -8 6 -5 14 3 8 -4
23 -15 33 -12 9 -21 25 -21 35 0 10 -4 18 -9 18 -5 0 -16 16 -25 35 -9 19 -21
35 -26 35 -5 0 -17 8 -27 19 -13 13 -43 22 -103 30 -47 6 -86 16 -88 21 -2 6
-19 10 -38 10 -38 0 -48 15 -56 85 -3 22 -10 49 -16 61 -6 11 -12 33 -14 49
-6 55 -41 77 -132 86 -45 4 -101 12 -126 18 -25 6 -57 13 -72 16 -16 3 -28 12
-28 20 0 8 -7 18 -14 22 -11 6 -17 36 -22 99 -4 61 -12 97 -23 111 -22 26 -73
53 -103 53 -60 -1 -188 13 -188 20 0 5 -21 16 -47 26 -27 10 -55 23 -64 31 -8
7 -36 13 -62 13 -30 0 -51 6 -63 18 -10 9 -20 18 -23 18 -42 10 -47 17 -50 62
-1 26 -8 52 -15 57 -8 6 -20 33 -27 60 -14 46 -18 50 -69 72 -44 18 -73 22
-143 21 -60 0 -92 -5 -102 -14 -7 -8 -21 -14 -29 -14 -14 0 -21 -18 -17 -42 0
-5 -3 -8 -8 -8 -4 0 -11 -55 -15 -122 -7 -129 -23 -246 -36 -263 -6 -8 -13
-55 -22 -152 -1 -7 -7 -13 -14 -13 -7 0 -17 -8 -23 -17 -8 -15 -27 -19 -118
-21 -67 -3 -111 -8 -115 -15 -5 -9 -139 -13 -490 -15 -266 -1 -498 -5 -516 -8
-39 -6 -54 -29 -76 -114 -15 -59 -17 -199 -19 -1401 -2 -1204 -4 -1339 -18
-1355 -17 -21 -43 -81 -38 -87 2 -2 -3 -12 -11 -22 -8 -10 -14 -26 -12 -37 2
-12 -3 -18 -17 -18 -11 0 -22 -9 -26 -20 -5 -16 -15 -20 -54 -20 -26 0 -53 -6
-60 -12 -11 -10 -13 -10 -7 0 5 8 -2 12 -23 12 -17 0 -31 -5 -31 -12 0 -6 -3
-8 -7 -5 -3 4 -13 1 -21 -6 -12 -9 -159 -12 -641 -13 -601 -1 -788 6 -764 29
4 5 -1 15 -11 23 -21 15 -26 27 -33 92 -5 40 -7 42 -45 48 -28 5 -36 9 -26 16
8 5 3 6 -14 2 -20 -4 -29 -2 -34 10 -4 10 -18 16 -40 16 -21 0 -37 6 -40 14
-3 8 -14 16 -25 19 -15 4 -19 14 -19 46 0 39 -2 41 -30 41 l-30 0 0 3445 0
3445 30 0 c28 0 30 2 30 40 0 30 5 42 18 47 9 4 21 12 25 20 4 7 23 13 41 13
22 0 36 6 40 16 5 12 14 14 34 10 17 -4 22 -3 14 2 -10 7 -2 11 26 16 38 6 40
8 45 48 7 65 12 77 33 92 10 8 15 18 11 23 -27 27 174 30 1583 28 1288 -2
1503 -4 1517 -19 2 -2 6 -16 9 -32 3 -16 9 -31 14 -34 8 -5 16 -30 24 -82 2
-14 14 -36 25 -47 19 -19 32 -21 170 -21 142 0 151 1 174 23 13 12 26 30 30
40 3 9 13 17 21 17 8 0 16 4 18 9 2 5 12 11 23 13 19 3 50 30 57 48 2 5 26 10
55 11 29 1 50 6 48 9 -2 4 8 13 23 21 15 8 36 22 46 32 11 9 28 17 38 17 13 0
18 8 18 30 0 17 1 31 3 32 23 15 1507 17 1659 2z"/>
<path d="M4380 8210 c-25 -4 -40 -8 -35 -9 6 -1 3 -6 -7 -11 -9 -6 -15 -20
-14 -34 2 -16 -3 -26 -15 -29 -11 -3 -16 -12 -14 -23 2 -11 4 -36 4 -56 1 -27
5 -38 17 -38 8 0 12 -5 9 -10 -11 -17 15 -40 46 -40 19 0 30 -6 34 -20 3 -11
15 -20 25 -20 10 0 22 9 25 20 3 11 12 20 20 20 15 0 28 27 19 41 -3 5 1 9 9
9 10 0 16 17 21 56 5 47 3 59 -14 81 -11 14 -20 31 -20 38 0 11 -43 37 -58 33
-4 0 -27 -4 -52 -8z"/>
<path d="M4062 7439 c-8 -13 -23 -19 -48 -19 -20 0 -33 -4 -29 -9 3 -6 -4 -15
-15 -21 -11 -6 -20 -7 -20 -3 0 4 -5 0 -11 -10 -5 -9 -7 -22 -4 -27 3 -6 -1
-7 -9 -4 -10 4 -20 -3 -27 -20 -11 -22 -57 -44 -82 -38 -5 2 -6 -2 -3 -6 3 -5
-47 -13 -112 -17 -64 -3 -124 -11 -134 -16 -18 -10 -28 -42 -48 -154 -17 -101
-10 -871 8 -903 7 -12 17 -74 21 -136 5 -86 11 -118 24 -131 10 -9 15 -20 12
-24 -4 -8 20 -16 111 -40 24 -7 170 -11 365 -12 419 -1 388 -3 410 24 21 26
24 47 7 47 -9 0 -9 3 1 9 24 15 17 129 -9 153 -11 10 -20 23 -20 28 0 6 -6 10
-14 10 -7 0 -20 8 -27 17 -12 14 -12 16 0 8 10 -5 12 -4 7 3 -4 7 -26 12 -49
12 -41 0 -70 10 -68 24 1 3 -1 16 -4 29 -4 13 -7 30 -8 38 -2 8 -6 19 -10 25
-4 7 -7 23 -7 35 0 13 -2 53 -4 89 -2 36 -7 232 -11 435 -6 353 -13 425 -38
425 -5 0 -6 4 -3 8 3 5 -1 21 -9 35 -8 15 -14 29 -15 30 0 1 -3 12 -6 25 -4
15 -14 22 -30 22 -17 0 -22 5 -19 20 3 13 -2 20 -12 20 -9 0 -23 9 -32 19 -17
19 -17 19 -29 0z"/>
<path d="M7550 1340 c-9 -6 -10 -10 -3 -10 6 0 15 5 18 10 8 12 4 12 -15 0z"/>
</g>
</svg>
