<?xml version="1.0" encoding="UTF-8"?>
<svg width="17px" height="16px" viewBox="0 0 17 16" version="1.1" xmlns="http://www.w3.org/2000/svg" xmlns:xlink="http://www.w3.org/1999/xlink">
    <!-- Generator: Sketch 51.3 (57544) - http://www.bohemiancoding.com/sketch -->
    <title>Shape</title>
    <desc>Created with Sketch.</desc>
    <defs></defs>
    <g id="User-Persona" stroke="none" stroke-width="1" fill="none" fill-rule="evenodd">
        <path d="M13.0833723,1.55058609 L9.36043126,-1.14824203 C8.9095956,-1.47511703 8.30368666,-1.47511703 7.85269336,-1.14824203 L4.12979177,1.55058609 C3.80218715,1.78804703 3.60660172,2.17000015 3.60660172,2.57230484 L3.60660172,15.1902345 C3.60660172,15.5332814 3.74985238,15.8662111 3.99954598,16.1037111 L6.26133017,18.2544923 C6.50806812,18.4891017 6.82664814,18.6066408 7.14554344,18.6066017 C7.45793629,18.6066017 7.7705656,18.4937111 8.01568779,18.2675001 L10.3527032,16.1107423 C10.6112638,15.8721486 10.7595982,15.5344923 10.7595982,15.184258 L10.7595982,14.5744533 L10.7595982,10.833047 L10.7595982,4.9620314 C10.7595982,4.26402359 10.1866743,3.69621109 9.48251945,3.69621109 L7.88055532,3.69621109 C7.17632164,3.69621109 6.60347661,4.26410172 6.60347661,4.9620314 L6.60347661,10.9782423 C6.60347661,11.3014455 6.86783024,11.5634376 7.19385852,11.5634376 C7.5199262,11.5634376 7.78424043,11.3014064 7.78424043,10.9782423 L7.78424043,4.9620314 C7.78424043,4.90941421 7.82747178,4.86660171 7.88055532,4.86660171 L9.48251945,4.86660171 C9.53564239,4.86660171 9.57883434,4.90945328 9.57883434,4.9620314 L9.57883434,10.833047 L9.57883434,14.5744533 L9.57883434,15.184258 C9.57883434,15.2106642 9.56764227,15.2360548 9.54813495,15.2541017 L7.21108012,17.4108986 C7.17372067,17.4454298 7.11563222,17.4449611 7.07878508,17.4099611 L4.81700089,15.2591798 C4.79816352,15.2412501 4.78736554,15.216133 4.78736554,15.1902736 L4.78736554,2.5723439 C4.78736554,2.5420314 4.8021438,2.51320328 4.82681366,2.49527359 L8.54979406,-0.203554533 C8.58376437,-0.228163908 8.62936025,-0.228163908 8.66344878,-0.203554533 L12.3863898,2.49527359 C12.4110596,2.51316422 12.4258379,2.54195328 12.4258379,2.5723439 L12.4258379,9.6517189 C12.4258379,9.97492202 12.6901915,10.2369142 13.0162198,10.2369142 C13.3422875,10.2369142 13.6066017,9.97488296 13.6066017,9.6517189 L13.6066017,2.5723439 C13.6066017,2.17000015 13.4109769,1.78808609 13.0833723,1.55058609 Z" id="Shape" fill="#BBBBBB" fill-rule="nonzero" transform="translate(8.606602, 8.606602) rotate(45.000000) translate(-8.606602, -8.606602) "></path>
    </g>
</svg>