<?xml version="1.0" encoding="UTF-8"?>
<svg width="16px" height="16px" viewBox="0 0 16 16" version="1.1" xmlns="http://www.w3.org/2000/svg" xmlns:xlink="http://www.w3.org/1999/xlink">
    <!-- Generator: sketchtool 51.3 (57544) - http://www.bohemiancoding.com/sketch -->
    <title>292C1BB5-860C-4F5C-8A15-AE91568AA437</title>
    <desc>Created with sketchtool.</desc>
    <defs></defs>
    <g id="User-Persona" stroke="none" stroke-width="1" fill="none" fill-rule="evenodd">
        <g id="01" transform="translate(-1287.000000, -915.000000)" fill="#666666" fill-rule="nonzero" stroke="#666666" stroke-width="0.4">
            <path d="M1291.63462,919.769231 L1291.63462,920.644388 C1291.63462,921.110416 1291.78577,921.563873 1292.06538,921.936696 L1293.04808,923.246952 L1293.04808,925.147115 L1290.78356,926.186565 C1289.66151,926.701604 1288.94231,927.823084 1288.94231,929.057692 L1293.92308,929.057692 L1293.92308,930 L1288,930 L1288,928.444008 C1288,927.181409 1288.73551,926.034504 1289.883,925.507789 L1292.10577,924.4875 L1292.10577,923.56074 L1291.12308,922.250484 C1290.84346,921.877661 1290.69231,921.424204 1290.69231,920.958176 L1290.69231,919.769231 C1290.69231,917.687555 1292.37986,916 1294.46154,916 C1296.54321,916 1298.23077,917.687555 1298.23077,919.769231 L1298.23077,921.519231 L1297.28846,921.519231 L1297.28846,919.769231 C1297.28846,918.207974 1296.0228,916.942308 1294.46154,916.942308 C1292.90028,916.942308 1291.63462,918.207974 1291.63462,919.769231 Z M1298.23077,922.461538 C1300.3115,922.463865 1301.99767,924.150036 1302,926.230769 C1302,928.312445 1300.31244,930 1298.23077,930 C1296.14909,930 1294.46154,928.312445 1294.46154,926.230769 C1294.46154,924.149094 1296.14909,922.461538 1298.23077,922.461538 Z M1295.40385,926.230769 C1295.40388,926.817385 1295.5876,927.389248 1295.92918,927.866144 L1299.86614,923.929183 C1299.38622,923.586448 1298.81094,923.402698 1298.2212,923.403699 C1296.66253,923.406379 1295.40117,924.672104 1295.40385,926.230769 Z M1299.87571,928.532209 C1301.14418,927.626415 1301.43815,925.863829 1300.53236,924.595394 L1296.59539,928.532356 C1297.07229,928.873942 1297.64415,929.057663 1298.23077,929.057692 C1298.82051,929.058694 1299.39579,928.874944 1299.87571,928.532209 Z" id="Block-icon"></path>
        </g>
    </g>
</svg>