<?xml version="1.0" encoding="UTF-8"?>
<svg width="16px" height="14px" viewBox="0 0 16 14" version="1.1" xmlns="http://www.w3.org/2000/svg" xmlns:xlink="http://www.w3.org/1999/xlink">
    <!-- Generator: sketchtool 51.3 (57544) - http://www.bohemiancoding.com/sketch -->
    <title>C440D6D9-F90A-4B44-BA00-D633AA99D5F5</title>
    <desc>Created with sketchtool.</desc>
    <defs></defs>
    <g id="User-Persona" stroke="none" stroke-width="1" fill="none" fill-rule="evenodd">
        <g id="01" transform="translate(-1387.000000, -916.000000)" fill="#666666" fill-rule="nonzero">
            <g id="Delete-icon" transform="translate(1387.000000, 916.000000)">
                <path d="M6,6.62750909 C7.80526957,6.62750909 9.27391304,5.14099313 9.27391304,3.31375455 C9.27391304,1.48651596 7.80526957,0 6,0 C4.19473043,0 2.72608696,1.48651596 2.72608696,3.31375455 C2.72608696,5.14099313 4.19473043,6.62750909 6,6.62750909 Z M6,1.58426512 C6.9422087,1.58426512 7.70869565,2.36007975 7.70869565,3.31375455 C7.70869565,4.26742934 6.9422087,5.04324397 6,5.04324397 C5.0577913,5.04324397 4.29130435,4.26742934 4.29130435,3.31375455 C4.29130435,2.36007975 5.0577913,1.58426512 6,1.58426512 Z M6,7.13485114 C9.3084,7.13485114 12,9.85920625 12,13.2078674 C12,13.6453358 11.6496,14 11.2173913,14 L0.782608696,14 C0.3504,14 0,13.6453358 0,13.2078674 C0,9.85920625 2.6916,7.13485114 6,7.13485114 Z M1.63434783,12.4157349 L10.3656522,12.4157349 C9.99490435,10.3171645 8.17831304,8.71911626 6,8.71911626 C3.82168696,8.71911626 2.00504348,10.3171645 1.63434783,12.4157349 Z" id="Combined-Shape"></path>
                <path d="M13,9.14285714 C14.1834673,9.14285714 15.1428571,8.18346732 15.1428571,7 C15.1428571,5.81653268 14.1834673,4.85714286 13,4.85714286 C11.8165327,4.85714286 10.8571429,5.81653268 10.8571429,7 C10.8571429,8.18346732 11.8165327,9.14285714 13,9.14285714 Z M13,10 C11.3431458,10 10,8.65685425 10,7 C10,5.34314575 11.3431458,4 13,4 C14.6568542,4 16,5.34314575 16,7 C16,8.65685425 14.6568542,10 13,10 Z" id="Oval-2"></path>
                <path d="M13.7319053,7.1 L14.4691281,7.83722284 C14.643624,8.01171867 14.643624,8.2946323 14.4691281,8.46912813 C14.2946323,8.64362396 14.0117187,8.64362396 13.8372228,8.46912813 L13.1,7.73190529 L12.3627772,8.46912813 C12.1882813,8.64362396 11.9053677,8.64362396 11.7308719,8.46912813 C11.556376,8.2946323 11.556376,8.01171867 11.7308719,7.83722284 L12.4680947,7.1 L11.7308719,6.36277716 C11.556376,6.18828133 11.556376,5.9053677 11.7308719,5.73087187 C11.9053677,5.55637604 12.1882813,5.55637604 12.3627772,5.73087187 L13.1,6.46809471 L13.8372228,5.73087187 C14.0117187,5.55637604 14.2946323,5.55637604 14.4691281,5.73087187 C14.643624,5.9053677 14.643624,6.18828133 14.4691281,6.36277716 L13.7319053,7.1 Z" id="Combined-Shape"></path>
            </g>
        </g>
    </g>
</svg>