<?xml version="1.0" encoding="UTF-8"?>
<svg width="20px" height="18px" viewBox="0 0 20 18" version="1.1" xmlns="http://www.w3.org/2000/svg" xmlns:xlink="http://www.w3.org/1999/xlink">
    <!-- Generator: sketchtool 51.3 (57544) - http://www.bohemiancoding.com/sketch -->
    <title>098C7F28-9542-4B7D-B819-9918954095E1</title>
    <desc>Created with sketchtool.</desc>
    <defs></defs>
    <g id="User-Persona" stroke="none" stroke-width="1" fill="none" fill-rule="evenodd">
        <g id="01" transform="translate(-1317.000000, -574.000000)" fill="#00CA6F" fill-rule="nonzero">
            <path d="M1335,583.750328 L1335,590 C1335,591.104569 1334.10457,592 1333,592 L1319,592 C1317.89543,592 1317,591.104569 1317,590 L1317,576 C1317,574.895431 1317.89543,574 1319,574 L1333,574 C1334.10457,574 1335,574.895431 1335,576 L1335,576.778338 L1334,576.778338 L1334,576 C1334,575.447715 1333.55228,575 1333,575 L1319,575 C1318.44772,575 1318,575.447715 1318,576 L1318,590 C1318,590.552285 1318.44772,591 1319,591 L1333,591 C1333.55228,591 1334,590.552285 1334,590 L1334,583.750328 L1335,583.750328 Z M1335,583.750328 L1335,590 C1335,591.104569 1334.10457,592 1333,592 L1319,592 C1317.89543,592 1317,591.104569 1317,590 L1317,576 C1317,574.895431 1317.89543,574 1319,574 L1333,574 C1334.10457,574 1335,574.895431 1335,576 L1335,576.778338 L1334,576.778338 L1334,576 C1334,575.447715 1333.55228,575 1333,575 L1319,575 C1318.44772,575 1318,575.447715 1318,576 L1318,590 C1318,590.552285 1318.44772,591 1319,591 L1333,591 C1333.55228,591 1334,590.552285 1334,590 L1334,583.750328 L1335,583.750328 Z M1323.4,581.84362 L1326,584.44362 L1334.82533,578 L1336.08103,579.754546 L1326,587.24362 L1322,583.24362 L1323.4,581.84362 Z" id="dismiss-card"></path>
        </g>
    </g>
</svg>