<?xml version="1.0" encoding="UTF-8"?>
<svg width="18px" height="18px" viewBox="0 0 18 18" version="1.1" xmlns="http://www.w3.org/2000/svg" xmlns:xlink="http://www.w3.org/1999/xlink">
    <!-- Generator: Sketch 55 (78076) - https://sketchapp.com -->
    <title>dragdrop</title>
    <desc>Created with Sketch.</desc>
    <g id="Symbols" stroke="none" stroke-width="1" fill="none" fill-rule="evenodd">
        <g id="2_Icon-/generic-/gray/-ic_menu-2" transform="translate(-3.000000, -3.000000)" fill="#666666" fill-rule="nonzero">
            <path d="M19.435102,11.5343878 L17.9069388,10.002551 C17.7306122,9.82622449 17.7306122,9.54336735 17.9069388,9.36704082 C18.0832653,9.19071429 18.3661224,9.19071429 18.542449,9.36704082 L20.8420408,11.6666327 C21.0183673,11.8429592 21.0183673,12.1258163 20.8420408,12.3021429 L18.542449,14.6017347 C18.4542857,14.689898 18.3404082,14.7339796 18.2228571,14.7339796 C18.1053061,14.7339796 17.9914286,14.689898 17.9032653,14.6017347 C17.7269388,14.4254082 17.7269388,14.142551 17.9032653,13.9662245 L19.435102,12.4343878 L13.4106122,12.4343878 C13.1608163,12.4343878 12.9587755,12.2360204 12.9587755,11.9862245 C12.9587755,11.7364286 13.1608163,11.5343878 13.4106122,11.5343878 L19.435102,11.5343878 Z M5.43183673,14.6017347 L3.1322449,12.3021429 C2.95591837,12.1258163 2.95591837,11.8429592 3.1322449,11.6666327 L5.43183673,9.36704082 C5.60816327,9.19071429 5.89102041,9.19071429 6.06734694,9.36704082 C6.24367347,9.54336735 6.24367347,9.82622449 6.06734694,10.002551 L4.53918367,11.5343878 L10.5636735,11.5343878 C10.8134694,11.5343878 11.0155102,11.740102 11.0155102,11.9862245 C11.0155102,12.2323469 10.8134694,12.4343878 10.5636735,12.4343878 L4.53918367,12.4343878 L6.07102041,13.9662245 C6.24734694,14.142551 6.24734694,14.4254082 6.07102041,14.6017347 C5.98285714,14.689898 5.86897959,14.7339796 5.75142857,14.7339796 C5.63387755,14.7339796 5.52,14.689898 5.43183673,14.6017347 Z M10.0016327,6.06826531 C9.82897959,6.24459184 9.54244898,6.24459184 9.37346939,6.06826531 C9.19714286,5.89193878 9.19714286,5.60908163 9.37346939,5.4327551 L11.6730612,3.13316327 C11.8420408,2.96418367 12.1395918,2.96418367 12.3085714,3.13316327 L14.6081633,5.4327551 C14.7844898,5.60908163 14.7844898,5.89193878 14.6081633,6.06826531 C14.52,6.15642857 14.4061224,6.2005102 14.2885714,6.2005102 C14.1710204,6.2005102 14.0571429,6.15642857 13.9689796,6.06826531 L12.4371429,4.53642857 L12.4371429,10.5609184 C12.4371429,10.8107143 12.235102,11.0127551 11.9853061,11.0127551 C11.7355102,11.0127551 11.5334694,10.8107143 11.5334694,10.5609184 L11.5334694,4.53642857 L10.0016327,6.06826531 Z M11.9853061,12.9560204 C12.235102,12.9560204 12.4334694,13.1580612 12.4371429,13.4078571 L12.4371429,19.4323469 L13.9689796,17.9005102 C14.1453061,17.7241837 14.4281633,17.7241837 14.6044898,17.9005102 C14.7808163,18.0768367 14.7808163,18.3596939 14.6044898,18.5360204 L12.304898,20.8356122 C12.2204082,20.920102 12.1028571,20.9678571 11.9853061,20.9678571 C11.8640816,20.9678571 11.7502041,20.920102 11.6657143,20.8356122 L9.36612245,18.5360204 C9.18979592,18.3596939 9.18979592,18.0768367 9.36612245,17.9005102 C9.54244898,17.7241837 9.82530612,17.7241837 10.0016327,17.9005102 L11.5334694,19.4323469 L11.5334694,13.4078571 C11.5334694,13.1580612 11.7355102,12.9560204 11.9853061,12.9560204 Z" id="dragdrop"></path>
        </g>
    </g>
</svg>