<?xml version="1.0" encoding="UTF-8"?>
<svg width="22px" height="22px" viewBox="0 0 22 22" version="1.1" xmlns="http://www.w3.org/2000/svg" xmlns:xlink="http://www.w3.org/1999/xlink">
    <!-- Generator: sketchtool 51.3 (57544) - http://www.bohemiancoding.com/sketch -->
    <title>38B96807-ED51-4A0B-BCA2-6C1EAC9F4750</title>
    <desc>Created with sketchtool.</desc>
    <defs></defs>
    <g id="User-Persona" stroke="none" stroke-width="1" fill="none" fill-rule="evenodd">
        <g id="01" transform="translate(-1054.000000, -582.000000)" fill="#666666">
            <path d="M1062,593.083738 L1062,596 L1064.91626,596 L1073.51729,587.398972 L1070.60103,584.482711 L1062,593.083738 L1062,593.083738 Z M1075.77253,585.14373 L1074.3494,586.566866 L1071.43313,583.650604 L1072.85627,582.227468 C1073.15956,581.924177 1073.64949,581.924177 1073.95278,582.227468 L1075.77253,584.047216 C1076.07582,584.350507 1076.07582,584.840439 1075.77253,585.14373 Z M1067.51072,582 L1067.51072,584 L1057,584 C1056.44772,584 1056,584.447715 1056,585 L1056,601 C1056,601.552285 1056.44772,602 1057,602 L1073,602 C1073.55228,602 1074,601.552285 1074,601 L1074,591.02772 L1076,591.02772 L1076,601 C1076,602.656854 1074.65685,604 1073,604 L1057,604 C1055.34315,604 1054,602.656854 1054,601 L1054,585 C1054,583.343146 1055.34315,582 1057,582 L1067.51072,582 Z" id="Edit-icon"></path>
        </g>
    </g>
</svg>