<?xml version="1.0" encoding="UTF-8"?>
<svg width="18px" height="18px" viewBox="0 0 18 18" version="1.1" xmlns="http://www.w3.org/2000/svg" xmlns:xlink="http://www.w3.org/1999/xlink">
    <!-- Generator: sketchtool 51.3 (57544) - http://www.bohemiancoding.com/sketch -->
    <title>4D2293A2-8C70-4FD3-86D1-31D241EF84C3</title>
    <desc>Created with sketchtool.</desc>
    <defs></defs>
    <g id="User-Persona" stroke="none" stroke-width="1" fill="none" fill-rule="evenodd">
        <g id="01" transform="translate(-1418.000000, -645.000000)" fill="#0066EF" fill-rule="nonzero">
            <path d="M1427,645 C1431.95,645 1436,649.05 1436,654 C1436,658.95 1431.95,663 1427,663 C1422.05,663 1418,658.95 1418,654 C1418,649.05 1422.05,645 1427,645 Z M1426.25001,653.250012 L1427.75002,653.250012 L1427.75002,658.5 L1426.25001,658.5 L1426.25001,653.250012 Z M1426.25001,649.5 L1427.75002,649.5 L1427.75002,651.75 L1426.25001,651.75 L1426.25001,649.5 Z M1427,661.499988 C1431.12501,661.499988 1434.49999,658.125006 1434.49999,654 C1434.49999,649.874994 1431.12501,646.500012 1427,646.500012 C1422.87499,646.500012 1419.50001,649.874994 1419.50001,654 C1419.50001,658.125006 1422.87499,661.499988 1427,661.499988 Z" id="i-mark"></path>
        </g>
    </g>
</svg>