<?xml version="1.0" standalone="no"?>
<!-- Generator: Adobe Fireworks 10, Export SVG Extension by Aaron Beall (http://fireworks.abeall.com) . Version: 0.6.1  -->
<!DOCTYPE svg PUBLIC "-//W3C//DTD SVG 1.1//EN" "http://www.w3.org/Graphics/SVG/1.1/DTD/svg11.dtd">
<svg id="Untitled-Page%201" viewBox="0 0 120 30" style="background-color:#ffffff00" version="1.1"
	xmlns="http://www.w3.org/2000/svg" xmlns:xlink="http://www.w3.org/1999/xlink" xml:space="preserve"
	x="0px" y="0px" width="120px" height="30px"
>
	<g id="Layer%201">
		<path d="M 20.5 9.5 C 20.5 7.567 22.067 6 24 6 C 25.933 6 27.5 7.567 27.5 9.5 C 27.5 11.433 25.933 13 24 13 C 22.067 13 20.5 11.433 20.5 9.5 ZM 6.5 9.5 C 6.5 7.567 8.067 6 10 6 C 11.933 6 13.5 7.567 13.5 9.5 C 13.5 10.3245 13.2169 11.0819 12.74 11.68 L 15.91 17.175 C 16.2534 17.0626 16.6194 17 17 17 C 17.356 17 17.7013 17.0511 18.025 17.15 L 20.134 13.1699 L 21.866 14.1699 L 19.695 18.265 C 20.1976 18.8716 20.5 19.6508 20.5 20.5 C 20.5 22.433 18.933 24 17 24 C 15.067 24 13.5 22.433 13.5 20.5 C 13.5 19.6756 13.7831 18.9181 14.26 18.32 L 11.09 12.825 C 10.7468 12.9373 10.3805 13 10 13 C 8.067 13 6.5 11.433 6.5 9.5 ZM 5.4706 1 C 4.1061 1 3 2.1061 3 3.4706 L 3 26.5294 C 3 27.8939 4.1061 29 5.4706 29 L 28.5294 29 C 29.8939 29 31 27.8939 31 26.5294 L 31 3.4706 C 31 2.1061 29.8939 1 28.5294 1 L 5.4706 1 ZM 112 8 L 110 8 L 110 22 L 119 22 L 119 20 L 112 20 L 112 8 ZM 105.375 22 L 107.7969 22 L 102.625 8 L 100.375 8 L 95.1563 22 L 97.5625 22 L 98.6875 19 L 104.2656 19 L 105.375 22 ZM 101.4688 10.8438 L 101.5313 10.8438 L 103.5781 17 L 99.375 17 L 101.4688 10.8438 ZM 93 8 L 91 8 L 91 22 L 93 22 L 93 8 ZM 85.6406 17 C 85.6406 17.9375 85.375 18.6563 84.875 19.1563 C 84.3594 19.6719 83.6094 20 82.6406 20 C 81.6406 20 80.4531 19.6563 79.875 18.9375 C 79.2813 18.2344 79 17.3438 79 16.25 L 79 13.7344 C 79 12.6719 79.2813 11.7813 79.8594 11.0625 C 80.4219 10.3594 81.6094 10 82.5781 10 C 83.5781 10 84.3438 10.3281 84.8594 10.8438 C 85.375 11.3594 85.6406 12.0781 85.6406 13 L 87.9375 13 L 87.9531 12.9375 C 87.9844 11.4531 87.5156 10.2031 86.5469 9.3281 C 85.5781 8.4531 84.25 8 82.5781 8 C 80.9219 8 79.5625 8.5469 78.5313 9.6094 C 77.5 10.6875 77 12.0469 77 13.7031 L 77 16.2969 C 77 17.9688 77.5156 19.3438 78.5625 20.4063 C 79.5938 21.4688 80.9844 22 82.6406 22 C 84.2813 22 85.5781 21.5625 86.5469 20.6563 C 87.5 19.75 87.9688 18.5 87.9375 17.0625 L 87.9219 17 L 85.6406 17 ZM 75 13.7813 C 75 12.125 74.4531 10.75 73.3594 9.6563 C 72.2656 8.5625 70.4844 8 68.75 8 C 67.0469 8 65.6563 8.5625 64.5938 9.6563 C 63.5313 10.75 63 12.125 63 13.7813 L 63 16.2188 C 63 17.8906 63.5313 19.2656 64.5938 20.3594 C 65.6563 21.4531 67.0469 22 68.7656 22 C 70.4844 22 72.2656 21.4531 73.3594 20.3594 C 74.4531 19.2656 75 17.8906 75 16.2188 L 75 13.7813 ZM 72 16.1875 C 72 17.3125 71.6719 18.2344 71.0469 18.9375 C 70.4219 19.6563 69.8438 20 68.7656 20 C 67.7031 20 66.5 19.6563 65.9063 18.9375 C 65.2969 18.2188 65 17.3125 65 16.1875 L 65 13.7813 C 65 12.6875 65.2969 11.7813 65.9063 11.0625 C 66.5 10.3594 67.7031 10 68.75 10 C 69.8281 10 70.4063 10.3594 71.0469 11.0625 C 71.6719 11.7813 72 12.6875 72 13.7813 L 72 16.1875 ZM 57.5313 19.5313 C 57.0313 19.8438 56.3438 20 55.4688 20 C 54.5156 20 53.7344 19.375 53.1406 18.9531 C 52.5469 18.5313 52.25 17.875 52.25 17 L 49.9531 17 L 49.9375 17.0625 C 49.9063 18.4375 50.4375 19.9531 51.5625 20.7656 C 52.6875 21.5938 53.9844 22 55.4688 22 C 57.0156 22 58.2656 21.6719 59.2031 21 C 60.1406 20.3281 60.625 19.4219 60.625 18.2813 C 60.625 17.2188 60.2188 16.3438 59.4375 15.6563 C 58.6406 14.9688 57.4844 14.4219 55.9531 14.0156 C 54.7813 13.7344 53.9375 13.4219 53.4375 13.0938 C 52.9375 12.7656 52.6875 12.3594 52.6875 11.8594 C 52.6875 11.3125 52.9219 10.8594 53.3906 10.5156 C 53.8594 10.1719 54.5156 10 55.3906 10 C 56.2969 10 57 9.7813 57.5 10.2344 C 58 10.6875 58.25 11.2813 58.25 12 L 60.5313 12 L 60.5469 11.9375 C 60.5781 10.7656 60.1094 10.1875 59.1719 9.3125 C 58.2188 8.4375 56.9688 8 55.4063 8 C 53.9063 8 52.6719 8.3594 51.7344 9.0781 C 50.7813 9.7969 50.3125 10.7188 50.3125 11.8125 C 50.3125 12.8906 50.7344 13.7656 51.5938 14.4219 C 52.4531 15.0781 53.6719 15.6094 55.2656 16.0156 C 56.375 16.2969 57.1563 16.5938 57.5938 16.9375 C 58.0313 17.2813 58.2656 17.7031 58.2656 18.2344 C 58.2656 18.7813 58.0156 19.2188 57.5313 19.5313 ZM 38.6719 8 L 36.1406 8 L 41.2188 22 L 43.4688 22 L 48.5469 8 L 46.0156 8 L 42.625 18.3125 L 42.375 19.2656 L 42.3125 19.2656 L 42.0625 18.2969 L 38.6719 8 Z" fill="#ffffff"/>
	</g>
</svg>