<?xml version="1.0" encoding="UTF-8"?>
<svg width="16px" height="16px" viewBox="0 0 16 16" version="1.1" xmlns="http://www.w3.org/2000/svg" xmlns:xlink="http://www.w3.org/1999/xlink">
    <!-- Generator: sketchtool 51.3 (57544) - http://www.bohemiancoding.com/sketch -->
    <title>E6066FC7-AAFC-4468-AC9C-63DED889741B</title>
    <desc>Created with sketchtool.</desc>
    <defs></defs>
    <g id="User-Persona" stroke="none" stroke-width="1" fill="none" fill-rule="evenodd">
        <g id="01" transform="translate(-1188.000000, -915.000000)" fill="#666666" fill-rule="nonzero" stroke="#666666" stroke-width="0.4">
            <path d="M1202.03338,916.96786 C1202.65665,917.59107 1203,918.422356 1203,919.309163 C1203,920.195715 1202.65665,921.027256 1202.03338,921.650211 L1198.97155,924.711758 C1198.32612,925.357125 1197.4782,925.679809 1196.63027,925.679809 C1195.78235,925.679809 1194.93443,925.357125 1194.289,924.711758 C1194.09008,924.513105 1194.09008,924.190421 1194.289,923.991514 C1194.48793,923.792606 1194.81039,923.792606 1195.00932,923.991514 C1195.90334,924.884942 1197.35746,924.884942 1198.25149,923.991514 L1201.31282,920.929712 C1201.74353,920.499043 1201.98092,919.923459 1201.98092,919.309163 C1201.98092,918.694612 1201.74353,918.119028 1201.31282,917.688359 C1200.88211,917.257689 1200.30647,917.020325 1199.69186,917.020325 C1199.0775,917.020325 1198.50186,917.257689 1198.07115,917.688104 L1195.72988,920.029152 C1195.53096,920.22806 1195.2085,920.22806 1195.00957,920.029152 C1194.81064,919.830245 1194.81064,919.507816 1195.00957,919.308908 L1197.35084,916.96786 C1198.64195,915.677635 1200.74253,915.677125 1202.03338,916.96786 Z M1195.90996,926.332307 C1196.10889,926.133399 1196.43109,926.133399 1196.63002,926.332307 C1196.82895,926.531215 1196.82895,926.853644 1196.63002,927.052551 L1194.6489,929.033477 C1194.02589,929.656687 1193.19427,930 1192.30763,930 C1191.42125,930 1190.58963,929.656687 1189.96662,929.033477 C1189.34335,928.410522 1189,927.578981 1189,926.692684 C1189,925.806132 1189.34335,924.974591 1189.96636,924.351636 L1192.84812,921.469895 C1194.13949,920.179161 1196.24006,920.179415 1197.53066,921.469895 C1197.72959,921.668803 1197.72959,921.991232 1197.53066,922.190139 C1197.33174,922.389047 1197.00928,922.389047 1196.81035,922.190139 C1196.37964,921.759725 1195.804,921.52236 1195.18965,921.52236 C1194.57504,921.52236 1193.9994,921.759725 1193.56869,922.190139 L1190.68693,925.071625 C1189.79316,925.965309 1189.79316,927.41955 1190.68693,928.313233 C1191.11764,928.743902 1191.69353,928.981267 1192.30789,928.981267 C1192.9225,928.981267 1193.49814,928.743902 1193.92885,928.313233 L1195.90996,926.332307 Z M1197.66006,927.207653 C1197.94151,927.207653 1198.16947,927.435595 1198.16947,927.71702 L1198.16947,929.245119 C1198.16947,929.526289 1197.94125,929.754485 1197.66006,929.754485 C1197.37886,929.754485 1197.15064,929.526289 1197.15064,929.245119 L1197.15064,927.71702 C1197.15064,927.435849 1197.37886,927.207653 1197.66006,927.207653 Z M1199.48682,926.847531 L1200.56729,927.927897 C1200.76621,928.126805 1200.76621,928.449234 1200.56729,928.648141 C1200.4677,928.747723 1200.33754,928.797386 1200.20713,928.797386 C1200.07672,928.797386 1199.94657,928.747723 1199.84698,928.648141 L1198.76651,927.567775 C1198.56758,927.368868 1198.56758,927.046439 1198.76651,926.847531 C1198.96543,926.648624 1199.28789,926.648624 1199.48682,926.847531 Z M1200.70763,925.170188 C1200.98908,925.170188 1201.21705,925.398384 1201.21705,925.679554 C1201.21705,925.960724 1200.98883,926.18892 1200.70763,926.18892 L1199.17939,926.18892 C1198.89819,926.18892 1198.66997,925.960724 1198.66997,925.679554 C1198.66997,925.398384 1198.89819,925.170188 1199.17939,925.170188 L1200.70763,925.170188 Z M1193.58474,919.312474 C1193.30354,919.312474 1193.07532,919.084277 1193.07532,918.803107 L1193.07532,917.275008 C1193.07532,916.993838 1193.30354,916.765641 1193.58474,916.765641 C1193.86593,916.765641 1194.09415,916.993838 1194.09415,917.275008 L1194.09415,918.803107 C1194.09415,919.084277 1193.86593,919.312474 1193.58474,919.312474 Z M1191.69633,919.672596 L1190.61586,918.591975 C1190.41694,918.393067 1190.41694,918.070638 1190.61586,917.871731 C1190.81479,917.672823 1191.13725,917.672823 1191.33618,917.871731 L1192.41665,918.952352 C1192.61557,919.151259 1192.61557,919.473688 1192.41665,919.672596 C1192.31706,919.772177 1192.1869,919.82184 1192.05649,919.82184 C1191.92608,919.82184 1191.79592,919.772177 1191.69633,919.672596 Z M1190.51933,921.349939 C1190.23813,921.349939 1190.00992,921.121743 1190.00992,920.840573 C1190.00992,920.559403 1190.23813,920.331206 1190.51933,920.331206 L1192.04758,920.331206 C1192.32877,920.331206 1192.55699,920.559403 1192.55699,920.840573 C1192.55699,921.121743 1192.32877,921.349939 1192.04758,921.349939 L1190.51933,921.349939 Z" id="Suspend-icon"></path>
        </g>
    </g>
</svg>