<?xml version="1.0" encoding="UTF-8"?>
<svg width="29px" height="29px" viewBox="0 0 29 29" version="1.1" xmlns="http://www.w3.org/2000/svg" xmlns:xlink="http://www.w3.org/1999/xlink">
    <!-- Generator: Sketch 51.3 (57544) - http://www.bohemiancoding.com/sketch -->
    <title>vsocial</title>
    <desc>Created with Sketch.</desc>
    <defs></defs>
    <g id="User-Persona" stroke="none" stroke-width="1" fill="none" fill-rule="evenodd">
        <g id="05" transform="translate(-430.000000, -963.000000)" fill-rule="nonzero">
            <g id="vsocial" transform="translate(430.000000, 963.000000)">
                <path d="M18,10.9166667 C18,9.30583333 19.3431429,8 21,8 C22.6568571,8 24,9.30583333 24,10.9166667 C24,12.5275 22.6568571,13.8333333 21,13.8333333 C19.3431429,13.8333333 18,12.5275 18,10.9166667 Z M6,10.9166667 C6,9.30583333 7.34314286,8 9,8 C10.6568571,8 12,9.30583333 12,10.9166667 C12,11.60375 11.7573429,12.2349167 11.3485714,12.7333333 L14.0657143,17.3125 C14.3600571,17.2188333 14.6737714,17.1666667 15,17.1666667 C15.3051429,17.1666667 15.6011143,17.20925 15.8785714,17.2916667 L17.6862857,13.9749167 L19.1708571,14.80825 L17.31,18.2208333 C17.7408,18.7263333 18,19.3756667 18,20.0833333 C18,21.6941667 16.6568571,23 15,23 C13.3431429,23 12,21.6941667 12,20.0833333 C12,19.3963333 12.2426571,18.7650833 12.6514286,18.2666667 L9.93428571,13.6875 C9.64011429,13.7810833 9.32614286,13.8333333 9,13.8333333 C7.34314286,13.8333333 6,12.5275 6,10.9166667 Z" id="Shape" fill="#C8C7C7"></path>
                <rect id="Rectangle-8" stroke="#C8C7C7" x="0.5" y="0.5" width="28" height="28" rx="4"></rect>
            </g>
        </g>
    </g>
</svg>