<?xml version="1.0" encoding="UTF-8"?>
<svg width="19px" height="12px" viewBox="0 0 19 12" version="1.1" xmlns="http://www.w3.org/2000/svg" xmlns:xlink="http://www.w3.org/1999/xlink">
    <title>Group 13</title>
    <defs>
        <linearGradient x1="3.93284458%" y1="100%" x2="100%" y2="100%" id="linearGradient-1">
            <stop stop-color="#918BE3" offset="0%"></stop>
            <stop stop-color="#5853C3" offset="100%"></stop>
        </linearGradient>
    </defs>
    <g id="Tournaments" stroke="none" stroke-width="1" fill="none" fill-rule="evenodd">
        <g id="3.0-2-Cricjam-Lobby" transform="translate(-329.000000, -998.000000)" fill="url(#linearGradient-1)" fill-rule="nonzero">
            <g id="Group-13" transform="translate(329.500000, 998.500000)">
                <path d="M0.146446609,0.146446609 C0.341708755,-0.0488155365 0.658291245,-0.0488155365 0.853553391,0.146446609 L5.85355339,5.14644661 C6.04881554,5.34170876 6.04881554,5.65829124 5.85355339,5.85355339 L0.853553391,10.8535534 C0.658291245,11.0488155 0.341708755,11.0488155 0.146446609,10.8535534 C-0.0488155365,10.6582912 -0.0488155365,10.3417088 0.146446609,10.1464466 L4.793,5.5 L0.146446609,0.853553391 C-0.0271197425,0.679987039 -0.0464048927,0.410562638 0.0885911588,0.215694497 L0.146446609,0.146446609 Z M6.36288669,0.146446609 C6.55814883,-0.0488155365 6.87473132,-0.0488155365 7.06999347,0.146446609 L12.0699935,5.14644661 C12.2652556,5.34170876 12.2652556,5.65829124 12.0699935,5.85355339 L7.06999347,10.8535534 C6.87473132,11.0488155 6.55814883,11.0488155 6.36288669,10.8535534 C6.16762454,10.6582912 6.16762454,10.3417088 6.36288669,10.1464466 L11.0094401,5.5 L6.36288669,0.853553391 C6.18932034,0.679987039 6.17003519,0.410562638 6.30503124,0.215694497 L6.36288669,0.146446609 Z M12.5793268,0.146446609 C12.7745889,-0.0488155365 13.0911714,-0.0488155365 13.2864335,0.146446609 L18.2864335,5.14644661 C18.4816957,5.34170876 18.4816957,5.65829124 18.2864335,5.85355339 L13.2864335,10.8535534 C13.0911714,11.0488155 12.7745889,11.0488155 12.5793268,10.8535534 C12.3840646,10.6582912 12.3840646,10.3417088 12.5793268,10.1464466 L17.2258802,5.5 L12.5793268,0.853553391 C12.4057604,0.679987039 12.3864753,0.410562638 12.5214713,0.215694497 L12.5793268,0.146446609 Z" id="Combined-Shape"></path>
            </g>
        </g>
    </g>
</svg>