<?xml version="1.0" encoding="UTF-8"?>
<svg width="14px" height="14px" viewBox="0 0 14 14" version="1.1" xmlns="http://www.w3.org/2000/svg" xmlns:xlink="http://www.w3.org/1999/xlink">
    <title>FC74C191-2DF4-4379-B72E-F34EDD343464</title>
    <g id="Tournaments" stroke="none" stroke-width="1" fill="none" fill-rule="evenodd">
        <g id="3.0-29-Predictor" transform="translate(-335.000000, -214.000000)" fill="#5853C3" fill-rule="nonzero">
            <g id="Group-9" transform="translate(335.000000, 214.000000)">
                <path d="M3.12537579,14 C1.39866665,13.9992492 -0.000491968584,12.5990253 0,10.8726987 C0.000246373697,10.0454925 0.328507883,9.25219274 0.91264601,8.66640544 L3.97405922,5.60523411 C4.14937449,5.43064362 4.34489847,5.27724462 4.55603701,5.14834572 C5.57738315,4.52482391 6.8649427,4.53876927 7.87234238,5.18441225 C8.06231512,5.3056002 8.23812261,5.44748744 8.39659275,5.60764037 C8.54281187,5.75409403 8.61905254,5.95654789 8.60581707,6.16313067 C8.58224481,6.56087431 8.24074783,6.86409026 7.84300012,6.84051987 C7.66623551,6.82993779 7.49958891,6.75490627 7.37453561,6.62961675 C6.71727425,5.97385654 5.65337771,5.97385654 4.99611635,6.62961675 L1.92269825,9.68356931 C1.26521812,10.3409975 1.26521812,11.4067514 1.92269825,12.0642069 C2.58017838,12.7216351 3.64601648,12.7216351 4.30352395,12.0642069 L6.1312219,10.2486847 C6.64899126,10.4590956 7.20283001,10.5660921 7.76172777,10.5636858 L7.85793103,10.5636858 L5.33282778,13.0861833 C4.74817008,13.6727089 3.9536044,14.0016554 3.12537579,14 Z" id="Path"></path>
                <path d="M7.76194654,9.36134938 L7.58879161,9.36134938 C7.48249765,9.35653687 7.37644983,9.3462009 7.27135912,9.33009537 C7.18237519,9.31565781 7.09339128,9.29643509 7.00440736,9.27477876 L6.87454115,9.23871221 C6.82643952,9.22427466 6.78074434,9.20986446 6.73745561,9.19302064 C6.69416687,9.17617683 6.63643944,9.15695411 6.59315071,9.1401103 L6.45125226,9.07998117 C6.11842397,8.92608999 5.81564894,8.71447592 5.55662753,8.45476404 C5.41040842,8.30831038 5.33416774,8.10585652 5.34740321,7.89927374 C5.37097547,7.50153009 5.71247244,7.19831414 6.11022017,7.22188454 C6.28698478,7.23246661 6.45363136,7.30749813 6.57868467,7.43278766 C7.23594602,8.08854786 8.29984256,8.08854786 8.95710392,7.43278766 L9.76274473,6.62961675 L9.76274473,6.62961675 L12.02333,4.36921005 C12.684201,3.70839124 12.684201,2.63735998 12.02333,1.97654116 C11.362459,1.31572234 10.2913431,1.31572234 9.63047208,1.97654116 L7.81239992,3.80409471 C7.29558768,3.59319159 6.74245993,3.48523807 6.18430051,3.4866873 L6.09050369,3.4866873 L8.61320049,0.966568725 C9.80600613,-0.281705365 11.7849822,-0.32690475 13.0333549,0.865806638 C14.2817277,2.05851803 14.3269305,4.03733776 13.1341249,5.28561184 C13.1014192,5.3200104 13.0677562,5.35367069 13.0333549,5.38637393 L9.97202375,8.44757261 C9.57402991,8.84673813 9.0754848,9.13097745 8.52911151,9.26996624 L8.51226637,9.26996624 L8.37758727,9.29640774 L8.3006356,9.3108453 L8.1491387,9.33247428 L8.07218702,9.33247428 L7.91587723,9.34691183 L7.76438033,9.34691183 L7.76194654,9.36134938 Z" id="Path"></path>
            </g>
        </g>
    </g>
</svg>