<?xml version="1.0" encoding="UTF-8"?>
<svg width="33px" height="33px" viewBox="0 0 33 33" version="1.1" xmlns="http://www.w3.org/2000/svg" xmlns:xlink="http://www.w3.org/1999/xlink">
    <!-- Generator: sketchtool 58 (101010) - https://sketch.com -->
    <title>F7EE487B-C394-4063-A245-7783919FFDC8</title>
    <desc>Created with sketchtool.</desc>
    <g id="Asset-Artboard-Page" stroke="none" stroke-width="1" fill="none" fill-rule="evenodd">
        <g id="icon/link-ic">
            <g id="Group-5">
                <path d="M14,0 L33,0 L33,0 L0,33 L0,14 C-9.46895252e-16,6.2680135 6.2680135,4.97305656e-15 14,0 Z" id="Rectangle" fill="#C2E3EE" opacity="0.652994792"></path>
                <g id="Group-10" transform="translate(5.000000, 5.000000)" fill="#00BFEB" fill-rule="nonzero">
                    <g id="Group-9">
                        <path d="M2.67867199,11.9999508 C1.19875792,11.9993126 -0.000421763721,10.7991251 4.26325641e-14,9.31942195 C0.000211048779,8.6103907 0.281554799,7.93042195 0.782203236,7.42832039 L3.4060548,4.80446883 C3.55631261,4.65482039 3.72389074,4.52333601 3.90485167,4.41285164 C4.78021886,3.87840633 5.88375011,3.89035945 6.74716417,4.4437657 C6.90998449,4.5476407 7.06066417,4.66925789 7.19648449,4.80653133 C7.3218048,4.93206258 7.38714855,5.10559383 7.3758048,5.28266414 C7.35560167,5.62358601 7.06291417,5.88348445 6.72201574,5.86328133 C6.57051574,5.85421101 6.42768761,5.78989851 6.32050792,5.68250789 C5.75718761,5.12042976 4.84535167,5.12042976 4.28203136,5.68250789 L1.64789074,8.30017195 C1.08438292,8.86367976 1.08438292,9.77717976 1.64789074,10.340711 C2.21139855,10.9042188 3.12489855,10.9042188 3.6884298,10.340711 L5.25489855,8.78455476 C5.69866417,8.96490633 6.17334386,9.05661726 6.65235949,9.05455476 L6.73481261,9.05455476 L4.5706173,11.2166876 C4.06952355,11.719422 3.38852355,12.0013751 2.67867199,11.9999508 Z" id="Path"></path>
                        <path d="M6.65254699,8.02398445 L6.50414074,8.02398445 C6.41303917,8.01985945 6.32214855,8.01100008 6.23207824,7.99719539 C6.15581261,7.98482039 6.07954699,7.96834383 6.00328136,7.94978133 L5.89197667,7.91886726 C5.85075011,7.90649226 5.81158605,7.8941407 5.77448449,7.8797032 C5.73738292,7.8652657 5.68790636,7.84878914 5.6508048,7.83435164 L5.52918761,7.78281258 C5.2439298,7.65090633 4.9844298,7.46952351 4.7624298,7.24691414 C4.63710949,7.12138289 4.57176574,6.94785164 4.58310949,6.77078133 C4.60331261,6.42985945 4.89600011,6.16996101 5.23689855,6.19016414 C5.38839855,6.19923445 5.53122667,6.26354695 5.63840636,6.37093758 C6.20172667,6.9330157 7.11356261,6.9330157 7.67688292,6.37093758 L8.36737511,5.68250789 L8.36737511,5.68250789 L10.3048595,3.74502351 C10.8712735,3.17860945 10.8712735,2.26058601 10.3048595,1.69417195 C9.73844542,1.12775789 8.82042199,1.12775789 8.25400792,1.69417195 L6.69578917,3.2606407 C6.25284386,3.07986726 5.77877355,2.98733601 5.30039074,2.9885782 L5.22000011,2.9885782 L7.38213292,0.828484452 C8.40445324,-0.24146086 10.1005782,-0.280203048 11.1705235,0.742117265 C12.2404689,1.76443758 12.279211,3.46056258 11.2568907,4.53050789 C11.2288595,4.55999226 11.2000079,4.58884383 11.1705235,4.61687508 L8.5467423,7.24075008 C8.20563292,7.5828907 7.77834386,7.82652351 7.31006261,7.94565633 L7.29562511,7.94565633 L7.18019542,7.96832039 L7.1142423,7.98069539 L6.98439855,7.99923445 L6.91844542,7.99923445 L6.78447667,8.01160945 L6.65463292,8.01160945 L6.65254699,8.02398445 Z" id="Path"></path>
                    </g>
                </g>
            </g>
        </g>
    </g>
</svg>