<?xml version="1.0" encoding="UTF-8"?>
<svg width="80px" height="50px" viewBox="0 0 80 50" version="1.1" xmlns="http://www.w3.org/2000/svg" xmlns:xlink="http://www.w3.org/1999/xlink">
    <title>AUTODROMO_HERMANOS_RODRIGUEZ</title>
    <g id="new-relase" stroke="none" stroke-width="1" fill="none" fill-rule="evenodd">
        <path d="M17.9327473,0.160169997 C15.9005695,0.160169997 14.4968949,2.19166345 15.2152871,4.09236573 C15.424831,4.64506978 15.2574739,5.2638264 14.7980584,5.63599241 C12.5429323,7.46319864 10.3645908,9.64291659 8.65762961,12.0690844 C5.81197772,16.112251 2.23936393,25.3410387 0.657447088,32.194009 C-0.145383185,35.6749273 -0.153573362,40.582988 0.313520942,45.9198872 C0.491092772,47.9397675 2.44497948,49.3132982 4.39991385,48.783249 C5.61178739,48.4545467 6.61020121,48.2651041 7.23814357,48.2651041 C7.61970069,48.2651041 8.02077345,48.356594 8.86980275,48.6337487 L9.66473173,48.9003985 C12.0110995,49.6907733 13.2050403,49.7781729 14.1424473,48.6067003 C14.978783,47.5615781 14.0860769,44.9684024 11.8993673,40.418667 L11.6395137,39.8824549 L11.3761802,39.3473405 C10.4337267,37.4460036 9.41954405,35.5341951 8.47145709,33.8183586 C8.29812445,33.5045137 8.23944595,33.1410553 8.30467425,32.7854058 L9.0504407,28.7356411 C9.1374666,28.265497 9.43608496,27.8604872 9.85978131,27.6386001 L11.3649224,26.8494597 C12.2047096,26.4089578 13.2391562,26.8141794 13.5566068,27.7077822 L14.1484036,29.3762031 C14.7682295,31.1209365 16.7696089,31.9360355 18.4317935,31.1208174 L21.8130135,29.4636887 C23.4590292,28.6565572 24.0487603,26.6050077 23.0818457,25.0481113 L17.2181708,15.6006518 C16.6918371,14.7528846 16.8882931,13.6448462 17.6738848,13.0294108 L22.0536009,9.59876144 C23.0212229,8.84156419 24.4393742,9.15311956 25.0006908,10.2464715 L33.9586234,27.7151331 C34.9034706,29.5567192 37.1356716,30.3210342 39.010401,29.4452623 L45.2122579,26.5463926 C46.6220618,25.8867508 47.4941254,24.4491788 47.4248905,22.8952393 C47.2589691,19.1664324 48.2858436,16.2376668 51.0592911,15.1168786 L51.5092153,14.9389861 C53.2734166,14.2584004 54.6567308,13.9366978 57.2814281,13.5083677 L59.02971,13.2263869 C59.1742032,13.2020083 59.3105515,13.1783838 59.4513305,13.1533774 C61.7242181,12.7496465 63.437406,12.239367 65.29741,11.3092208 C67.8421171,10.0368673 69.5797678,8.56820907 70.6577248,7.05664197 C71.0545023,6.50026058 71.6915317,6.19634289 72.3482945,6.25071424 L72.88672,6.29179934 C76.5094333,6.54505623 78.962994,6.22371692 79.6108616,4.64970316 C80.8645382,1.60589288 79.1664626,0.20425276 73.3867202,0.161194624 L17.9327473,0.160169997 Z M17.9327473,1.69962641 L73.367275,1.70014609 L73.8621211,1.70436126 C78.2599198,1.76276154 78.8844566,2.37106951 78.1873475,4.06358575 C77.9186668,4.71635351 75.4909214,4.96492498 72.4749949,4.71648057 C71.2712919,4.61682968 70.1126189,5.16961606 69.4043381,6.16280303 C68.4742148,7.4670702 66.9313778,8.77107234 64.6089014,9.93231051 C63.0046406,10.7345653 61.5182942,11.1975554 59.57666,11.5652968 L59.1820928,11.6376475 C58.863176,11.6942964 58.5654559,11.7440045 58.1322354,11.8133483 L57.018049,11.9915309 C54.0758319,12.4720842 52.6027516,12.8321745 50.4823304,13.6896287 C46.9330841,15.1239278 45.6952094,18.6544905 45.8869578,22.963717 C45.9284646,23.8953144 45.4064051,24.7559148 44.5601094,25.1518933 L38.3586818,28.0505623 C37.2343477,28.5757902 35.895188,28.1172563 35.3283972,27.0125338 L26.3703731,9.54369388 C25.3674143,7.59009581 22.8337639,7.03347507 21.104588,8.38661447 L16.7245452,11.8175196 C15.3206932,12.9173023 14.9696024,14.8975019 15.9102246,16.4125649 L21.7739598,25.8601215 C22.2602883,26.6431929 21.9636122,27.6752664 21.135377,28.0813954 L17.7541041,29.7385501 C16.9177239,30.1487525 15.9108995,29.7387045 15.5991653,28.8612115 L15.0073702,27.1927955 C14.3762611,25.4162639 12.3192648,24.6104812 10.6499527,25.4861019 L9.14526412,26.2750051 C8.30297081,26.7161088 7.70971934,27.5207234 7.53657006,28.4561393 L6.79057456,32.5071471 C6.66126385,33.2121973 6.77825287,33.9368348 7.12393978,34.5627531 C8.06193115,36.2603187 9.06601071,38.1530822 9.99590265,40.0290702 L10.2562144,40.5580193 L10.5129335,41.0877866 C12.2083819,44.6153981 13.1577856,47.3732721 12.9404579,47.6448545 C12.6129151,48.0541829 11.9197346,48.0201059 10.3489104,47.5055446 L9.31083054,47.1579848 C8.31103412,46.8317497 7.82672124,46.7256477 7.23814357,46.7256477 C6.43719993,46.7256477 5.33204109,46.9353445 3.99699014,47.2974568 C2.9699893,47.5759117 1.94090181,46.8524903 1.84708881,45.7853675 C1.39333757,40.6009219 1.40131768,35.8187449 2.15749043,32.5401246 C3.6985147,25.8643038 7.20379165,16.8094608 9.91661498,12.95502 C11.5298402,10.6620827 13.6133574,8.5772489 15.7671455,6.8321514 C16.7002334,6.07627007 17.067713,4.83474401 16.7085382,3.70120483 L16.6550406,3.54735639 C16.3175189,2.65434965 16.9771916,1.69962641 17.9327473,1.69962641 Z" id="AUTODROMO_HERMANOS_RODRIGUEZ" fill="#999999" fill-rule="nonzero"></path>
    </g>
</svg>