<?xml version="1.0" encoding="UTF-8"?>
<svg width="80px" height="51px" viewBox="0 0 80 51" version="1.1" xmlns="http://www.w3.org/2000/svg" xmlns:xlink="http://www.w3.org/1999/xlink">
    <title>AUTODROMO_JOSE_CARLOS_PACE</title>
    <g id="new-relase" stroke="none" stroke-width="1" fill="none" fill-rule="evenodd">
        <path d="M59.9460003,0.518291438 L44.9803851,1.66057934 C40.980937,1.96607506 37.1059006,3.19477154 33.6608523,5.24957858 L1.60423151,24.3711294 C-0.387465385,25.5597933 -0.557193095,28.3807203 1.27791793,29.7984121 L2.64348662,30.8542219 C3.33482573,31.3883228 3.73948591,32.2124018 3.73948591,33.086122 L3.73948591,38.4902493 C3.73948591,42.5694632 6.07559266,46.28824 9.75072106,48.0598906 L12.8416611,49.5490646 C14.2794517,50.2425872 15.8560228,50.6026935 17.4536095,50.6026935 L56.3541223,50.6026935 C59.4664959,50.6026935 61.9891742,48.0800152 61.9891742,44.9676416 L61.9891742,39.3005397 C61.9891742,35.3721501 59.5924465,31.8408422 55.9416319,30.3911218 L38.1120361,23.3089197 C35.8649612,22.4168062 34.293957,20.3574867 34.0275042,17.9550317 L33.6437099,14.5000612 C33.5166151,13.3568306 34.1625554,12.268228 35.2271459,11.8312971 L42.7035543,8.76611765 C43.4014575,8.47996852 44.1413705,9.07596069 44.0108105,9.819489 L43.2539646,14.1247174 C42.7751473,16.8479911 44.7572576,19.3878669 47.5148131,19.5844076 C49.6202506,19.7350097 51.5636451,18.4532395 52.2549117,16.4582423 L53.4030477,13.1412223 C54.1740649,10.9127673 55.9283399,9.16389132 58.1599595,8.39848887 L61.4213635,7.28770736 L58.0699964,14.645429 C57.2612928,16.4189347 57.291858,18.4622553 58.152861,20.2115498 L59.1110718,22.1583779 C60.4619316,24.9003283 62.9702549,26.8915334 65.9463868,27.5841767 L73.0296119,29.2310944 C76.2359079,29.9762263 79.3589584,27.7099171 79.6448114,24.4308447 L79.9702619,20.6856985 C80.144484,18.6821438 79.5485773,16.6874142 78.3039567,15.1071037 L70.4376142,5.1237848 C67.9258584,1.93605819 63.9917413,0.208978629 59.9460003,0.518291438 Z M69.1466301,6.14101216 L77.0128577,16.1241853 C77.9987911,17.3760373 78.4708575,18.9562257 78.3328457,20.5433613 L78.0074107,24.28833 C77.8084115,26.5710863 75.6340429,28.1489639 73.4017478,27.6301864 L66.3187781,25.9833281 C63.8226353,25.402394 61.7186523,23.73217 60.5855836,21.4322881 L59.6275082,19.4857352 C58.9841905,18.1787103 58.9613551,16.6521394 59.5655925,15.3270329 L62.9170162,7.96918696 C63.5170054,6.65281728 62.2498604,5.25732192 60.8818896,5.72807443 L57.6268872,6.84374598 C54.9168055,7.77325171 52.7862273,9.89727281 51.8498325,12.6037151 L50.7018196,15.9203795 C50.2540942,17.2125159 48.9956283,18.04254 47.6318704,17.9449903 C45.846235,17.8177217 44.5626427,16.1729267 44.8727286,14.4093132 L45.629606,10.103905 C45.9839612,8.08588255 43.9756122,6.46817849 42.0800573,7.24538002 L34.6033828,10.3106686 C32.8600103,11.0261862 31.8020194,12.8092172 32.0101746,14.681593 L32.3939453,18.1363512 C32.7273975,21.1429024 34.6934755,23.7200965 37.5054247,24.8364714 L55.334965,31.9186515 C58.359772,33.1197873 60.3455831,36.0456561 60.3455831,39.3005397 L60.3455831,44.9676416 C60.3455831,47.172285 58.5587656,48.9591024 56.3541223,48.9591024 L17.4536095,48.9591024 C16.103203,48.9591024 14.770722,48.654749 13.5553836,48.068527 L10.4642706,46.5792696 C7.35775893,45.0817292 5.38307695,41.9382934 5.38307695,38.4902493 L5.38307695,33.086122 C5.38307695,31.7033527 4.74254063,30.3989187 3.64856619,29.5537579 L2.28298832,28.497941 C1.36488313,27.7886704 1.44979892,26.3773438 2.44637421,25.782578 L34.502809,6.66113814 C37.7297016,4.73645055 41.3594025,3.58554508 45.1055188,3.29939997 L60.0712936,2.15709987 C63.5707983,1.88954898 66.9738538,3.38349224 69.1466301,6.14101216 Z" id="AUTODROMO_JOSE_CARLOS_PACE" fill="#999999" fill-rule="nonzero"></path>
    </g>
</svg>