<?xml version="1.0" encoding="UTF-8"?>
<svg width="80px" height="43px" viewBox="0 0 80 43" version="1.1" xmlns="http://www.w3.org/2000/svg" xmlns:xlink="http://www.w3.org/1999/xlink">
    <title>AUTODROMO_ENZO_E_DINO_FERRARI</title>
    <g id="new-relase" stroke="none" stroke-width="1" fill="none" fill-rule="evenodd">
        <path d="M75.8169739,0.922937721 L65.8898636,4.81900372 C65.0430696,5.15110571 64.1489509,5.34408578 63.2421302,5.39035215 L53.6411033,5.88048604 L53.5623203,5.88888735 L53.0632213,5.97326827 C52.9653346,5.98932577 52.8737506,6.00313657 52.783709,6.01379901 L52.6876094,6.02397724 L52.4937473,6.03611955 L52.3933828,6.03759074 C51.5590795,6.03607697 50.3222321,5.69489784 45.4939014,4.41001261 C42.9751429,3.73973631 40.9015231,3.31061433 38.6234549,3.05170643 C33.844555,2.5087423 27.7879498,3.35905656 22.2017392,4.72018794 C21.4447338,4.9036074 20.8421839,5.47110842 20.6117408,6.21659704 L20.2573917,7.35998189 C20.1994799,7.54754022 20.0724815,7.7065343 19.901988,7.8050833 L15.8154696,10.1644287 C15.3793954,10.4158874 15.0416721,10.8095747 14.858938,11.2791588 L8.35444988,27.9946313 C8.13119708,28.5680482 8.07797444,29.1938319 8.20192962,29.796032 L8.4164112,30.841182 C8.54235271,31.4550832 8.33280266,32.0890739 7.86603625,32.506412 L0.775126063,38.8495509 C0.00712732531,39.5365984 -0.217166491,40.6478586 0.224009161,41.5789988 C0.669059134,42.5188946 1.68459419,43.0492229 2.71073889,42.8780258 L14.3976946,40.9188373 C15.0892677,40.8030172 15.7899251,40.7634491 16.4854276,40.8013493 L26.0561501,41.3151946 C27.1543821,41.3743302 28.2000555,40.8357837 28.7905702,39.9072955 L30.3943376,37.3871922 C30.8125686,36.730776 30.9632467,35.9385406 30.8157596,35.173862 L28.8695826,25.0827334 C28.8611334,25.0387071 28.8686466,24.9935893 28.8910605,24.9544397 L30.6416136,21.8911517 C30.6845007,21.8158756 30.7716475,21.7799916 30.854516,21.803052 L32.944514,22.3836868 C33.1173883,22.4314217 33.2955864,22.4505028 33.4734964,22.4402634 L54.458428,21.2008751 C54.6376855,21.1904253 54.8045305,21.2929049 54.8760782,21.4574379 C55.3067565,22.448348 56.4878495,22.8661772 57.4460943,22.3666293 L64.8291242,18.5150818 C65.455702,18.1879594 66.0197675,17.7542685 66.4975611,17.2325212 L73.0653922,10.0546971 C73.4313206,9.65561461 73.8700829,9.32942337 74.3576086,9.09425666 L78.6063478,7.04702607 C79.8500671,6.44744803 80.357655,4.94263253 79.7317472,3.71208557 L78.9114279,2.09871938 C78.336299,0.96871251 76.9976034,0.460203881 75.8169739,0.922937721 Z M77.6323319,2.74972883 L78.4524373,4.36267472 C78.713658,4.87623972 78.5018823,5.50407869 77.9832134,5.75412098 L73.7343259,7.80142316 C73.0825154,8.11583545 72.496392,8.55158013 72.0070354,9.08527443 L65.4388968,16.263434 C65.0740122,16.6618855 64.6433389,16.9930156 64.1650955,17.2426959 L56.7824469,21.0940445 C56.5625357,21.2086876 56.2911752,21.1126899 56.1923094,20.885218 C55.8806145,20.1684365 55.154772,19.7226094 54.3743553,19.7681045 L33.3899534,21.0074621 C33.3699479,21.0086127 33.3486351,21.0063306 33.3276051,21.0005238 L31.2389924,20.420273 C30.5227917,20.2209711 29.76312,20.5337771 29.3950314,21.1798628 L27.6452292,24.2418361 C27.4525975,24.5782989 27.3869745,24.9723733 27.460194,25.3538852 L29.4064959,35.4456631 C29.4845317,35.8502563 29.4048476,36.2692192 29.1837058,36.6163028 L27.5796239,39.1369002 C27.2670888,39.6283107 26.7137565,39.9132898 26.1332081,39.8820295 L16.5629479,39.3682093 C15.7623185,39.3245802 14.9559776,39.3701165 14.1605185,39.5033347 L2.47400216,41.4624498 C2.08099324,41.5280173 1.69158006,41.3246597 1.52109977,40.9646244 C1.35214286,40.6080259 1.43809123,40.182196 1.73203428,39.9192362 L8.82279891,33.5762275 C9.67040024,32.8183831 10.0509564,31.6670158 9.82235632,30.5527062 L9.60777943,29.5070924 C9.53958421,29.1757852 9.56888297,28.8312949 9.6919399,28.5152275 L16.1964727,11.7996404 C16.2607522,11.6344569 16.3796489,11.4958579 16.5327563,11.4075697 L20.6199177,9.04785309 C21.1034716,8.76834842 21.4639896,8.31700231 21.6285232,7.78412559 L21.9828042,6.64096098 C22.06425,6.3774826 22.2747011,6.17927297 22.5406099,6.11484409 C27.9724599,4.79132468 33.8985025,3.95934071 38.4614053,4.4777639 C40.5026559,4.70975691 42.3805008,5.0847624 44.6050634,5.66052051 L45.7997354,5.97905005 L47.585848,6.47155623 C48.5221498,6.72778448 49.1850521,6.89727724 49.8128571,7.03519624 L50.1297609,7.10251522 C51.4822498,7.37958466 52.5693076,7.46568476 53.5648618,7.33858003 L53.7451462,7.31191746 L63.3152826,6.82372185 C64.3767378,6.76956597 65.4231123,6.54372412 66.4140475,6.15509173 L76.3410135,2.25908232 C76.833717,2.06597306 77.3923228,2.27816159 77.6323319,2.74972883 Z" id="AUTODROMO_ENZO_E_DINO_FERRARI" fill="#999999" fill-rule="nonzero"></path>
    </g>
</svg>