<?xml version="1.0" encoding="UTF-8"?>
<svg width="80px" height="58px" viewBox="0 0 80 58" version="1.1" xmlns="http://www.w3.org/2000/svg" xmlns:xlink="http://www.w3.org/1999/xlink">
    <title>BAHRAIN_INTERNATIONAL_CIRCUIT</title>
    <g id="new-relase" stroke="none" stroke-width="1" fill="none" fill-rule="evenodd">
        <path d="M6.24087607,3.66738805 L0.403549908,34.7994622 C-0.309764028,38.604798 -0.0743527715,42.5243279 1.0852565,46.2130792 L1.24911124,46.7146279 C2.01474461,48.9706232 1.77210816,51.4461322 0.583116477,53.5110826 C-0.312223725,55.0670621 0.81081257,57.0084878 2.60586744,57.0084878 L74.7855056,57.0084878 C75.6996808,57.0084878 76.5983922,56.7676319 77.3915618,56.3106972 C79.9372467,54.8414174 80.7654721,51.5599725 79.2235224,49.0586148 L54.3141555,8.67129279 C53.0504667,6.62161396 49.9764219,6.94820267 49.1706426,9.21750911 L44.9859257,20.9996636 C43.8796578,24.1143211 45.1979311,27.5572631 48.0688985,29.1464419 L48.2871187,29.2621204 C52.9573116,31.6299718 56.5281645,35.7143101 58.2514291,40.6590828 L58.2875583,40.7789056 C58.5117493,41.6580914 57.8487211,42.5347072 56.9198996,42.5347072 L11.3040816,42.5347072 L11.3509811,42.4884518 C14.0978892,39.8132862 17.8712318,38.4312688 21.7191236,38.71875 L37.4309959,39.8941769 C39.1690612,40.0251424 40.0656328,37.8611281 38.7454831,36.722915 L31.8381629,30.7699087 C29.4043004,28.6717513 27.812149,25.7701486 27.3466885,22.5997644 L27.2979979,22.2327885 C26.833627,18.3270413 24.6081834,14.8563916 21.2690922,12.8035208 L20.9624886,12.6208292 C18.6448962,11.2822827 16.9040778,9.13715756 16.0719702,6.59430234 L14.9273832,3.0977833 C14.5036782,1.8010663 13.5125746,0.766916098 12.2346909,0.288509424 C9.62100258,-0.691943678 6.75536552,0.923444333 6.24087607,3.66738805 Z M11.5349609,2.15384701 C12.2467765,2.42033275 12.7980643,2.99556462 13.0338197,3.71707572 L14.1785413,7.21400649 C15.1253957,10.1075189 17.0666627,12.5660605 19.6528805,14.1591553 L19.9663,14.346145 C22.8359188,16.0025773 24.786383,18.8748552 25.2756047,22.1399285 L25.371363,22.8604498 C25.9008128,26.5152154 27.732916,29.8612638 30.5374354,32.2789528 L37.0191984,37.864846 L21.8676533,36.7320328 C17.1636712,36.380592 12.5568781,38.2016889 9.36533026,41.674374 C8.36325561,42.7653617 9.13671123,44.5269688 10.6177475,44.5269688 L56.9198996,44.5269688 C59.262415,44.5269688 60.9042918,42.2153855 60.1326252,40.0031805 C58.2399295,34.5722389 54.3177171,30.0860159 49.1881425,27.4852517 C47.0600321,26.4059663 46.0647108,23.914825 46.8632877,21.6664607 L51.0480353,9.88421961 C51.2942103,9.19092002 52.2325868,9.09122623 52.6183848,9.71698312 L77.5277196,50.1042529 C78.4804115,51.649714 77.9686445,53.6773447 76.396369,54.584807 C75.9060596,54.8672675 75.3502465,55.0162262 74.7855056,55.0162262 L2.60586744,55.0162262 C2.34305488,55.0162262 2.17888215,54.732416 2.30976689,54.5049561 C3.72772209,52.0423593 4.0605508,49.1083581 3.23979396,46.3986298 L3.13576155,46.0745835 C1.94557857,42.5649718 1.67899198,38.8086131 2.36169677,35.1665687 L8.19901424,4.03454092 C8.48538372,2.50723702 10.0802956,1.60816941 11.5349609,2.15384701 Z" id="BAHRAIN_INTERNATIONAL_CIRCUIT" fill="#999999" fill-rule="nonzero"></path>
    </g>
</svg>