<?xml version="1.0" encoding="UTF-8"?>
<svg width="81px" height="45px" viewBox="0 0 81 45" version="1.1" xmlns="http://www.w3.org/2000/svg" xmlns:xlink="http://www.w3.org/1999/xlink">
    <title>BAKU_CITY_CIRCUIT</title>
    <g id="new-relase" stroke="none" stroke-width="1" fill="none" fill-rule="evenodd">
        <path d="M75.0967667,0.38703333 L56.9392578,3.22111262 C55.2464588,3.48533258 54.1093214,5.09910882 54.430158,6.78238196 L55.1991288,10.8202284 C55.3062072,11.3825171 54.9349455,11.9238487 54.372276,12.0263367 L38.7550062,14.8753859 C37.4555087,15.1135216 36.5114737,16.2452431 36.5114737,17.5651498 L36.5114737,18.2551498 C36.5114737,18.5891193 36.2857354,18.8812222 35.9624128,18.9654384 L27.3185714,21.2153971 C26.7654353,21.3596737 26.2245388,20.9775605 26.1590875,20.4273311 L26.1524737,20.3151498 C26.1524737,18.7277882 24.8896061,17.4285589 23.3032142,17.3845346 L22.4237673,17.3605223 C21.9197164,17.3465476 21.5184737,16.9339043 21.5184737,16.4291498 L21.5184737,15.8871498 C21.5184737,14.1795096 20.064271,12.8330434 18.3620971,12.9651479 L8.29283778,13.7390907 C6.1260157,13.9065268 4.27675861,15.3713505 3.61846616,17.4422033 L0.346457995,27.7362289 C-0.455291415,30.2606404 0.156836283,33.0196878 1.95091715,34.9676131 L9.69491942,43.3756156 L9.84654893,43.532884 C11.9543957,45.6212659 15.4931888,45.2133007 17.0556963,42.6460573 L17.9654737,41.1511498 L23.9751254,39.117347 C25.5377826,38.589489 26.7687985,37.3661109 27.3068229,35.8062095 L28.2606428,33.0457312 C28.6823605,31.8244036 29.5812683,30.8250323 30.751006,30.2765626 L36.3108742,27.6706244 C40.6622872,25.6313613 45.2245298,24.0783733 49.9135791,23.0405198 L77.8174741,16.8675431 C79.3879442,16.5198704 80.4200695,15.0148571 80.1791851,13.425317 L78.5891532,2.94810681 C78.3350254,1.27472765 76.7690185,0.126905275 75.0967667,0.38703333 Z M75.4041807,2.36326627 L75.5192369,2.35167368 L75.6325687,2.35252039 C76.1188662,2.38235648 76.5357204,2.74726251 76.6118095,3.2482933 L78.2017942,13.7251928 C78.2850058,14.2742866 77.9281699,14.7946136 77.3853258,14.9147892 L49.4814733,21.0877565 C44.6486559,22.1574309 39.9467382,23.7579644 35.4621186,25.8596539 L29.9020732,28.4656752 C28.2429245,29.2436212 26.968315,30.6606834 26.3702368,32.3927647 L25.4163046,35.1535684 C25.0800416,36.1284998 24.3108531,36.8929159 23.3344439,37.2227423 L16.6354269,39.4905396 L15.3473391,41.6060978 C14.4381079,43.09999 12.3506634,43.3067561 11.1659916,42.0206445 L3.42202799,33.612684 C2.11429662,32.1928132 1.66815593,30.1819202 2.25255998,28.3418486 L5.52448942,18.0480707 C5.93595581,16.753682 7.09216457,15.8378321 8.44651676,15.7331776 L18.5161096,14.9592089 C19.0567017,14.9172543 19.5184737,15.3448153 19.5184737,15.8871498 L19.5184737,16.4291498 C19.5184737,18.0167555 20.7815909,19.315762 22.3687597,19.3597657 L23.2481801,19.3837773 C23.7512971,19.3977395 24.1524737,19.8104671 24.1524737,20.3151498 C24.1524737,22.2339036 25.9662684,23.6350386 27.8228634,23.1507755 L36.466376,20.9009025 C37.670918,20.587154 38.5114737,19.4994841 38.5114737,18.2551498 L38.5114737,17.5651498 C38.5114737,17.2111455 38.7653511,16.906794 39.1147246,16.8427705 L54.7309412,13.9939137 C56.3862521,13.6924054 57.4786926,12.0995327 57.16382,10.4460784 L56.3948187,6.40807123 C56.2856857,5.83550362 56.672174,5.28701613 57.2476911,5.19718674 L75.4041807,2.36326627 Z" id="BAKU_CITY_CIRCUIT" fill="#999999" fill-rule="nonzero"></path>
    </g>
</svg>