<?xml version="1.0" encoding="UTF-8"?>
<svg width="24px" height="24px" viewBox="0 0 24 24" version="1.1" xmlns="http://www.w3.org/2000/svg" xmlns:xlink="http://www.w3.org/1999/xlink">
    <!-- Generator: sketchtool 55.1 (78136) - https://sketchapp.com -->
    <title>4C0880C1-F115-482B-8E1B-5372A8999421</title>
    <desc>Created with sketchtool.</desc>
    <g id="Page-1" stroke="none" stroke-width="1" fill="none" fill-rule="evenodd" opacity="0.58">
        <g id="27-FS-impr-profile" transform="translate(-306.000000, -290.000000)" fill="#000000" fill-rule="nonzero">
            <g id="icon/bank-ic" transform="translate(306.000000, 290.000000)">
                <path d="M23.7051249,7.45047715 L15.7716612,2.31266935 C15.6132704,2.21009531 15.4023326,2.25623947 15.3004731,2.41557365 C15.1986136,2.57495502 15.2443637,2.78727477 15.4027076,2.88984881 L23.2202023,7.9525426 L21.3977937,7.9525426 L12.4987507,2.18942952 C12.1957971,1.99324607 11.8042497,1.99329325 11.5012493,2.18942952 L2.60220632,7.9525426 L0.779797659,7.9525426 L11.9995781,0.685922561 L13.5885959,1.71496564 C13.7469867,1.81749249 13.9578776,1.7714427 14.059784,1.61206133 C14.1616435,1.45267997 14.1158934,1.24036022 13.9575495,1.13778618 L12.3685317,0.108743101 C12.1446564,-0.0362477005 11.8553904,-0.0362477005 11.6315151,0.108743101 L0.294875142,7.45047715 C0.0534685729,7.60683886 -0.0543440697,7.89814156 0.0266091623,8.17538398 C0.107562394,8.4526264 0.354828346,8.6389016 0.641891226,8.6389016 L2.361456,8.6389016 L2.361456,9.82175855 L2.361456,10.8576902 C2.361456,11.1308278 2.55392501,11.3595669 2.80948784,11.4136849 L2.80948784,12.0176638 C2.80948784,12.3309534 3.06270693,12.5858315 3.37395734,12.5858315 L3.4208324,12.5858315 L3.4208324,16.7903288 C3.4208324,16.9798596 3.5734576,17.1334847 3.76175473,17.1334847 C3.95005185,17.1334847 4.10267705,16.9798596 4.10267705,16.7903288 L4.10267705,12.2426756 C4.10267705,12.0531448 3.95005185,11.8995197 3.76175473,11.8995197 L3.49137937,11.8995197 L3.49137937,11.4258107 L5.90605444,11.4258107 L5.90605444,11.8994253 L5.63567908,11.8994253 C5.44738196,11.8994253 5.29475676,12.0530505 5.29475676,12.2425812 L5.29475676,19.8245669 C5.29475676,20.0140976 5.44738196,20.1677228 5.63567908,20.1677228 L5.90605444,20.1677228 L5.90605444,20.6827161 L3.49137937,20.6827161 L3.49137937,20.1677228 L3.76175473,20.1677228 C3.95005185,20.1677228 4.10267705,20.0140976 4.10267705,19.8245669 L4.10267705,18.9474504 C4.10267705,18.7579196 3.95005185,18.6042945 3.76175473,18.6042945 C3.5734576,18.6042945 3.4208324,18.7579196 3.4208324,18.9474504 L3.4208324,19.481411 L3.37395734,19.481411 C3.06270693,19.481411 2.80948784,19.7362419 2.80948784,20.0495314 L2.80948784,20.6535104 C2.55387813,20.7076283 2.361456,20.9363675 2.361456,21.209505 L2.361456,21.9022336 L1.1537669,21.9022336 C0.776891405,21.9022336 0.470281624,22.2108522 0.470281624,22.5901968 L0.470281624,23.3120368 C0.470281624,23.6913814 0.776891405,24 1.1537669,24 L22.8462331,24 C23.2231086,24 23.5297184,23.6913814 23.5297184,23.3120368 L23.5297184,22.5901968 C23.5297184,22.2108522 23.2231086,21.9022336 22.8462331,21.9022336 L21.638544,21.9022336 L21.638544,21.209505 C21.638544,20.9363675 21.446075,20.7076283 21.1905122,20.6535104 L21.1905122,20.0495314 C21.1905122,19.7362419 20.9372931,19.481411 20.6260427,19.481411 L20.5791676,19.481411 L20.5791676,12.5857371 L20.6260427,12.5857371 C20.9372931,12.5857371 21.1905122,12.3308591 21.1905122,12.0175695 L21.1905122,11.4135905 C21.4461219,11.3594726 21.638544,11.1307334 21.638544,10.8575959 L21.638544,9.82166418 L21.638544,8.63880723 L23.3581088,8.63880723 C23.6451717,8.63880723 23.8924376,8.45253204 23.9733908,8.17528962 C24.0543441,7.89814156 23.9465314,7.60679168 23.7051249,7.45047715 Z M11.8701561,2.76660898 C11.9490468,2.7155107 12.0509532,2.71555788 12.1298439,2.76660898 L20.1376514,7.95258978 L3.86239549,7.95258978 L11.8701561,2.76660898 Z M3.04330065,8.63885442 L20.9566525,8.63885442 L20.9566525,9.47855546 L17.3049914,9.47855546 L13.9963151,9.47855546 L10.0036849,9.47855546 L6.69500861,9.47855546 L3.04330065,9.47855546 L3.04330065,8.63885442 Z M13.8892525,20.6536047 L13.8892525,20.0496258 C13.8892525,19.7363362 13.6360334,19.4815053 13.324783,19.4815053 L13.2779079,19.4815053 L13.2779079,12.5858315 L13.324783,12.5858315 C13.6360334,12.5858315 13.8892525,12.3309534 13.8892525,12.0176638 L13.8892525,11.4136849 C14.1448622,11.3595669 14.3372843,11.1308278 14.3372843,10.8576902 L14.3372843,10.1649145 L16.9640691,10.1649145 L16.9640691,10.8576902 C16.9640691,11.1308278 17.1565381,11.3595669 17.4121009,11.4136849 L17.4121009,12.0176638 C17.4121009,12.3309534 17.66532,12.5858315 17.9765704,12.5858315 L18.0234455,12.5858315 L18.0234455,19.4815053 L17.9765704,19.4815053 C17.66532,19.4815053 17.4121009,19.7363362 17.4121009,20.0496258 L17.4121009,20.6536047 C17.1565381,20.7077227 16.9640691,20.9364618 16.9640691,21.2095994 L16.9640691,21.902328 L14.3372843,21.902328 L14.3372843,21.2095994 C14.3372843,20.9364618 14.1448153,20.7077227 13.8892525,20.6536047 Z M6.58789909,20.6536047 L6.58789909,20.0496258 C6.58789909,19.7363362 6.33468001,19.4815053 6.02342959,19.4815053 L5.97655453,19.4815053 L5.97655453,12.5858315 L6.02342959,12.5858315 C6.33468001,12.5858315 6.58789909,12.3309534 6.58789909,12.0176638 L6.58789909,11.4136849 C6.84346193,11.3595669 7.03593093,11.1308278 7.03593093,10.8576902 L7.03593093,10.1649145 L9.66276253,10.1649145 L9.66276253,10.8576902 C9.66276253,11.1308278 9.85523154,11.3595669 10.1107944,11.4136849 L10.1107944,12.0176638 C10.1107944,12.3309534 10.3640135,12.5858315 10.6752639,12.5858315 L10.7221389,12.5858315 L10.7221389,19.4815053 L10.6752639,19.4815053 C10.3640135,19.4815053 10.1107944,19.7363362 10.1107944,20.0496258 L10.1107944,20.6536047 C9.85523154,20.7077227 9.66276253,20.9364618 9.66276253,21.2095994 L9.66276253,21.902328 L7.03593093,21.902328 L7.03593093,21.2095994 C7.03593093,20.9364618 6.84346193,20.7077227 6.58789909,20.6536047 Z M12.9369856,20.1677228 L13.207361,20.1677228 L13.207361,20.6827161 L10.7926859,20.6827161 L10.7926859,20.1677228 L11.0630613,20.1677228 C11.2513584,20.1677228 11.4039836,20.0140976 11.4039836,19.8245669 L11.4039836,12.2426284 C11.4039836,12.0530976 11.2513584,11.8994253 11.0630613,11.8994253 L10.7926859,11.8994253 L10.7926859,11.4258107 L13.207361,11.4258107 L13.207361,11.8994253 L12.9369856,11.8994253 C12.7486885,11.8994253 12.5960633,12.0530505 12.5960633,12.2425812 L12.5960633,19.8245669 C12.5960633,20.0140976 12.7486885,20.1677228 12.9369856,20.1677228 Z M10.4517167,10.7394989 L10.4502167,10.7394989 L10.3446072,10.7394989 L10.3446072,10.1649145 L13.6553928,10.1649145 L13.6553928,10.7394989 L13.5482833,10.7394989 C13.5480489,10.7394989 13.5477677,10.7395461 13.5475333,10.7395461 C13.5472989,10.7395461 13.5470177,10.7394989 13.5467833,10.7394989 L10.4517167,10.7394989 Z M10.3446072,21.3521367 C10.3778885,21.3630358 10.413326,21.3691223 10.4502167,21.3691223 L13.5467364,21.3691223 C13.5847521,21.3691223 13.6212209,21.362564 13.6553928,21.3510044 L13.6553928,21.9022808 L10.3446072,21.9022808 L10.3446072,21.3521367 L10.3446072,21.3521367 Z M3.15045704,10.7394989 L3.04334753,10.7394989 L3.04334753,10.1649145 L6.35413316,10.1649145 L6.35413316,10.7394989 L6.35408628,10.7394989 L6.24697677,10.7394989 L3.15045704,10.7394989 Z M3.04330065,21.3515706 C3.07700382,21.3627999 3.11295699,21.3691223 3.15041017,21.3691223 L6.24697677,21.3691223 C6.28442994,21.3691223 6.32038311,21.3627999 6.35408628,21.3515706 L6.35408628,21.9022808 L3.04330065,21.9022808 L3.04330065,21.3515706 Z M22.8478737,22.590244 L22.8469362,23.3136882 C22.8469362,23.3136882 22.8467487,23.3137354 22.8462331,23.3137354 L1.15212628,23.3121312 L1.1537669,22.5886398 L22.8478737,22.590244 Z M20.8486055,21.3690751 C20.8864336,21.3690751 20.9226681,21.3626112 20.9566993,21.3511931 L20.9566993,21.9022808 L17.6459137,21.9022808 L17.6459137,21.3519008 C17.6793356,21.3629415 17.7149607,21.3690751 17.7520857,21.3690751 L20.8486055,21.3690751 L20.8486055,21.3690751 Z M18.3643209,11.8994725 L18.0939456,11.8994725 L18.0939456,11.4258107 L20.5086206,11.4258107 L20.5086206,11.8994253 L20.2382453,11.8994253 C20.0499481,11.8994253 19.8973229,12.0530505 19.8973229,12.2425812 L19.8973229,19.8245669 C19.8973229,20.0140976 20.0499481,20.16777 20.2382453,20.16777 L20.5086206,20.16777 L20.5086206,20.6827633 L18.0939456,20.6827633 L18.0939456,20.16777 L18.3643209,20.16777 C18.552618,20.16777 18.7052432,20.0141448 18.7052432,19.8246141 L18.7052432,12.2426284 C18.7052432,12.0530976 18.552618,11.8994725 18.3643209,11.8994725 Z M20.9567462,10.7394989 L20.9567462,10.7394989 L20.8495898,10.7394989 C20.8494492,10.7394989 20.8492617,10.7395461 20.8491211,10.7395461 C20.8489805,10.7395461 20.848793,10.7394989 20.8486523,10.7394989 L17.7530701,10.7394989 L17.7521326,10.7394989 L17.6459606,10.7394989 L17.6459606,10.1649145 L20.9567462,10.1649145 L20.9567462,10.7394989 L20.9567462,10.7394989 Z" id="Shape"></path>
            </g>
        </g>
    </g>
</svg>