<?xml version="1.0" encoding="UTF-8"?>
<svg width="15px" height="15px" viewBox="0 0 15 15" version="1.1" xmlns="http://www.w3.org/2000/svg" xmlns:xlink="http://www.w3.org/1999/xlink">
    <title>Group</title>
    <g id="Page-1" stroke="none" stroke-width="1" fill="none" fill-rule="evenodd">
        <g id="5-Sports-predictor-not-predict" transform="translate(-118.000000, -110.000000)" fill="#FFFFFF" fill-rule="nonzero">
            <g id="Group-4" transform="translate(88.000000, 107.000000)">
                <g id="1454533" transform="translate(30.000000, 3.000000)">
                    <path d="M1.39882588,14.600297 C1.93310457,15.1332343 2.79792823,15.1332343 3.33220694,14.600297 L11.515346,6.41687574 C11.6136494,6.31857048 11.6136494,6.15919309 11.515346,6.06088783 L10.9089372,5.4501664 L10.9912663,5.36672983 L10.9912663,5.36107726 L11.7776931,4.58348267 L12.5631368,3.79482875 L14.9263492,1.42886693 C15.0246526,1.3304388 15.0245297,1.17118428 14.9261035,1.07287902 L13.9270957,0.0737289438 C13.8287924,-0.0245763146 13.6694181,-0.0245763146 13.5711147,0.0737289438 L12.782599,0.862259989 L11.9938376,1.65103681 L11.205199,2.43969073 L10.4164375,3.22834468 L9.54977063,4.09478266 L8.93906111,3.48406123 C8.84075776,3.38575597 8.68138344,3.38575597 8.583203,3.48406123 L0.399695252,11.6677282 C-0.133231751,12.2020173 -0.133231751,13.0668578 0.399695252,13.6011469 L1.39882588,14.600297 Z M10.5942437,3.76238802 L11.2373933,4.40555015 L10.8046128,4.83833904 L10.1614632,4.1951769 L10.5942437,3.76238802 Z M11.3828823,2.97373406 L12.0262777,3.61689623 L11.5934972,4.04968512 L10.9503476,3.40652298 L11.3828823,2.97373406 Z M12.1716437,2.18495724 L12.8147934,2.82811941 L12.3820129,3.26090829 L11.7388633,2.61774616 L12.1716437,2.18495724 Z M12.9602823,1.39630332 L13.6034319,2.03934258 L13.1706515,2.47225437 L12.5275019,1.82909221 L12.9602823,1.39630332 Z M10.160603,5.41797144 L8.19576492,6.80407558 L9.58184208,4.83919922 L10.160603,5.41797144 Z M13.7490438,0.607526497 L14.3921934,1.25068867 L13.9594129,1.68347755 L13.3162633,1.04031541 L13.7490438,0.607526497 Z" id="Shape"></path>
                </g>
            </g>
        </g>
    </g>
</svg>