<?xml version="1.0" encoding="UTF-8"?>
<svg width="65px" height="65px" viewBox="0 0 65 65" version="1.1" xmlns="http://www.w3.org/2000/svg" xmlns:xlink="http://www.w3.org/1999/xlink">
    <title>7E2C98EE-AE7B-45ED-9A2F-F23834256E1C</title>
    <g id="Page-1" stroke="none" stroke-width="1" fill="none" fill-rule="evenodd">
        <g id="2-Booster-apply" transform="translate(-155.000000, -105.000000)" fill-rule="nonzero">
            <g id="1356479" transform="translate(187.500000, 137.500000) rotate(-45.000000) translate(-187.500000, -137.500000) translate(165.000000, 115.000000)">
                <path d="M13.7794682,23.350466 C13.751028,23.350466 13.7225877,23.3494381 13.6938048,23.3477247 L1.32881035,22.5757264 C0.858347018,22.5466009 0.436197895,22.2776179 0.21073193,21.8640351 C-0.0143914035,21.4504523 -0.0116501754,20.9498355 0.218612982,20.5386513 C0.283374474,20.4228344 1.84176263,17.675096 4.80948465,15.2785773 C8.81990132,12.0405017 13.4820449,10.9902686 18.2915296,12.2416393 C18.690721,12.3454632 19.0217242,12.6236979 19.193051,12.9989035 C19.3643777,13.3741091 19.3575246,13.8065378 19.1742051,14.1759183 L15.0071957,22.5884046 C14.7748767,23.0571546 14.2975604,23.350466 13.7794682,23.350466 L13.7794682,23.350466 Z" id="Path" fill="#FF5B5B"></path>
                <path d="M23.7476014,44.9122807 C23.5221354,44.9122807 23.2966694,44.8567709 23.0921053,44.7450658 C22.6785225,44.5195998 22.4095395,44.0977933 22.3800712,43.62733 L21.6084156,31.2623355 C21.5741502,30.7116913 21.8732868,30.1939419 22.3677358,29.9489446 L30.780222,25.7815926 C31.1499452,25.5986157 31.5820312,25.5917626 31.9572368,25.7630894 C32.3327851,25.9340735 32.6106771,26.2654194 32.7145011,26.6646107 C33.9662144,31.4740954 32.9159814,36.136239 29.6775631,40.1466557 C27.281387,43.1143777 24.533306,44.6724232 24.417489,44.7375274 C24.2094983,44.8540296 23.9785499,44.9122807 23.7476014,44.9122807 L23.7476014,44.9122807 Z" id="Path" fill="#FF193D"></path>
                <path d="M42.7580181,11.0577714 L33.8983689,2.19812228 C33.5433799,1.84313325 33.0225466,1.71086895 32.5411184,1.85307018 C26.6101289,3.60745614 21.7413651,6.35896386 18.0691475,10.0308388 C17.3033168,10.7970121 16.5676398,11.6272615 15.8830181,12.4982868 C13.8922012,15.0294682 12.2293037,18.0222039 10.9409265,21.3935718 C10.1202714,23.5423519 9.45209702,25.8442982 8.95490684,28.2353344 C8.08662281,32.4119381 8.04002193,35.4053591 8.03820873,35.5307703 C8.03385421,35.8998081 8.17845395,36.2554825 8.43955596,36.5165844 C8.69654605,36.7735746 9.04536737,36.9178317 9.40858,36.9178317 L9.42537009,36.9178317 C9.55112386,36.9164611 12.5445449,36.8698602 16.720806,36.0015762 C19.1118421,35.504386 21.4137884,34.8362116 23.5629112,34.0152139 C26.9339364,32.7268367 29.9266721,31.0642818 32.4571683,29.0738075 C33.3288789,28.3888432 34.1591282,27.6531661 34.9253016,26.8869929 C38.5975192,23.2147753 41.3490268,18.3460115 43.1030702,12.4150219 C43.245614,11.9335938 43.1130071,11.4127604 42.7580181,11.0577714 L42.7580181,11.0577714 Z" id="Path" fill="#E1F1FA"></path>
                <path d="M17.6569353,33.9370888 L11.0190516,27.2992051 C10.529057,26.8092105 9.75020561,26.762267 9.20470123,27.1898986 C8.78083877,27.5222725 8.37753561,27.8793175 8.00609921,28.2507539 C3.38747263,32.8693805 3.24458605,40.025699 3.24070118,40.3279194 C3.23601974,40.6972999 3.38061947,41.0529742 3.64206412,41.3140762 C3.8990543,41.5714089 4.24753289,41.7156661 4.61074561,41.7156661 C4.6165707,41.7156661 4.62239579,41.7156661 4.62822096,41.7153235 C4.93044132,41.7115543 12.0871025,41.5686677 16.7053865,36.9500411 C17.0768229,36.5786047 17.4338679,36.1753016 17.7662418,35.7514391 C18.1938733,35.2059347 18.1469298,34.4270833 17.6569353,33.9370888 L17.6569353,33.9370888 Z" id="Path" fill="#FFF261"></path>
                <path d="M11.0468065,21.119449 L6.97436947,25.1922286 C6.71737939,25.4488761 6.57277965,25.7973547 6.57277965,26.1609101 C6.57277965,26.5241228 6.71737939,26.8726014 6.97436947,27.1295916 L17.8265488,37.9817709 C18.0831963,38.238761 18.4316749,38.3830181 18.7952303,38.3830181 C19.1587856,38.3830181 19.5069216,38.238761 19.7639118,37.9817709 L23.8363487,33.9093339 L11.0468065,21.119449 Z" id="Path" fill="#1B3B6B"></path>
                <path d="M28.8246984,20.311472 C27.7083333,20.311472 26.658443,19.8766447 25.8689693,19.0871711 C24.2393092,17.457511 24.2393092,14.8060581 25.8689693,13.1760554 C26.658443,12.3865817 27.7083333,11.9517544 28.8246984,11.9517544 C29.9410636,11.9517544 30.9909539,12.3865817 31.7804276,13.1760554 C32.5699013,13.965529 33.0047286,15.0150768 33.0047286,16.1317846 C33.0047286,17.2481496 32.5699013,18.2976974 31.7804276,19.0871711 C30.9909539,19.8766447 29.9410636,20.311472 28.8246984,20.311472 Z" id="Path" fill="#06CCAB"></path>
                <path d="M28.8243558,21.6515899 C27.3499177,21.6515899 25.9638843,21.0773026 24.9215324,20.0349507 C22.7693256,17.8827439 22.7693256,14.3808251 24.9215324,12.2286184 C25.9638843,11.1862665 27.3502604,10.6119791 28.8243558,10.6119791 C30.2987939,10.6119791 31.6848273,11.1862665 32.7275219,12.2286184 C33.7702166,13.2713131 34.3441612,14.6573465 34.3441612,16.1317846 C34.3441612,17.6062226 33.7702166,18.9922561 32.7275219,20.0349507 C31.6848273,21.0773026 30.2987939,21.6515899 28.8243558,21.6515899 L28.8243558,21.6515899 Z M28.8243558,13.3521793 C28.0821683,13.3521793 27.3838404,13.6413789 26.8588953,14.166324 C25.7754249,15.250137 25.7754249,17.013432 26.8588953,18.0972451 C27.3838404,18.6221903 28.0821683,18.9113898 28.8243558,18.9113898 C29.566886,18.9113898 30.2648711,18.6221903 30.7898163,18.0972451 C31.3147615,17.5722999 31.6039611,16.8743147 31.6039611,16.1317846 C31.6039611,15.3892544 31.3147615,14.6912692 30.7898163,14.166324 C30.2648711,13.6413789 29.566886,13.3521793 28.8243558,13.3521793 Z" id="Shape" fill="#1B3B6B"></path>
                <path d="M44.5548931,0.401589912 C44.2934484,0.140145263 43.9357182,-0.00685307018 43.5683937,0.000342653509 C43.3652001,0.00274122807 38.5217928,0.084292807 32.5411184,1.85307018 L43.1030702,12.4150219 C44.8718475,6.43434754 44.9533991,1.59094026 44.9559134,1.38774667 C44.9605948,1.01836623 44.8159951,0.66269193 44.5548931,0.401589912 Z" id="Path" fill="#FF5B5B"></path>
                <path d="M42.7580181,11.0577714 L38.3281935,6.62794684 L8.43955596,36.5165844 C8.69654605,36.7735746 9.04502465,36.9178317 9.40823737,36.9178317 L9.42537009,36.9178317 C9.55078123,36.9164611 12.5442023,36.8698602 16.720806,36.0015762 C19.1118421,35.504386 21.4134457,34.8362116 23.5625685,34.0152139 C26.9339364,32.7268367 29.9266721,31.0642818 32.4571683,29.0738075 C33.3285361,28.3888432 34.1591282,27.6531661 34.9249589,26.8869929 C38.5971765,23.2147753 41.3486842,18.3460115 43.1027275,12.4150219 C43.245614,11.9335938 43.1130071,11.4127604 42.7580181,11.0577714 L42.7580181,11.0577714 Z" id="Path" fill="#CDEBFC"></path>
                <path d="M17.6569353,33.9370888 L14.3379934,30.6181469 L3.64172149,41.3140762 L3.64172149,41.3144189 C3.8990543,41.5714089 4.24753289,41.7156661 4.61074561,41.7156661 L4.62787825,41.7156661 C4.93044132,41.7118969 12.0867598,41.5686677 16.7053865,36.9500411 C17.0768229,36.5786047 17.4338679,36.1753016 17.7658991,35.7514391 C18.1938733,35.2059347 18.1472725,34.4270833 17.6569353,33.9370888 L17.6569353,33.9370888 Z" id="Path" fill="#FDBF00"></path>
                <path d="M17.4417489,27.5143914 L12.4002878,32.5558525 L17.8265488,37.9821135 C18.0831963,38.238761 18.4316749,38.3833607 18.7952303,38.3833607 C19.1587856,38.3833607 19.5069216,38.238761 19.7639118,37.9821135 L23.8363487,33.9093339 L17.4417489,27.5143914 Z" id="Path" fill="#001035"></path>
                <path d="M31.7804276,13.1760554 C31.780085,13.1760554 31.780085,13.1760554 31.780085,13.1760554 L25.8689693,19.0871711 L25.8693119,19.0871711 C26.658443,19.8766447 27.7083333,20.311472 28.8246984,20.311472 C29.9410636,20.311472 30.9909539,19.8766447 31.7804276,19.0871711 C32.5699013,18.2976974 33.0047286,17.2481496 33.0047286,16.1317846 C33.004386,15.0154194 32.5699013,13.965529 31.7804276,13.1760554 L31.7804276,13.1760554 Z" id="Path" fill="#1CADB5"></path>
                <path d="M32.7275219,12.2286184 L30.7898163,14.166324 C31.3147615,14.6912692 31.6039611,15.3892544 31.6039611,16.1317846 C31.6039611,16.8743147 31.3147615,17.5722999 30.7898163,18.0972451 C30.2648711,18.6221903 29.566886,18.9113898 28.8243558,18.9113898 C28.0818256,18.9113898 27.3838404,18.6221903 26.8588953,18.0972451 C26.8588953,18.0972451 26.8588953,18.0972451 26.8588953,18.0969025 L24.9211896,20.034608 L24.9211896,20.0349507 C25.9638843,21.0773026 27.3499177,21.6515899 28.8243558,21.6515899 C30.2987939,21.6515899 31.6848273,21.0773026 32.7275219,20.0349507 C33.7698739,18.9922561 34.3441612,17.6062226 34.3441612,16.1317846 C34.3441612,14.6573465 33.7698739,13.2713131 32.7275219,12.2286184 Z" id="Path" fill="#001035"></path>
                <path d="M44.5545504,0.401247281 L37.8220943,7.13404605 L43.1030702,12.4150219 C44.8718475,6.43434754 44.9533991,1.59094026 44.9557977,1.38774667 C44.9605948,1.01836623 44.8159951,0.66269193 44.5545504,0.401247281 L44.5545504,0.401247281 Z" id="Path" fill="#FF193D"></path>
            </g>
        </g>
    </g>
</svg>