<?xml version="1.0" encoding="UTF-8"?>
<svg width="15px" height="15px" viewBox="0 0 15 15" version="1.1" xmlns="http://www.w3.org/2000/svg" xmlns:xlink="http://www.w3.org/1999/xlink">
    <title>FA6B74AC-FA5A-4955-8615-1403357B0F08</title>
    <g id="Page-1" stroke="none" stroke-width="1" fill="none" fill-rule="evenodd">
        <g id="1.1-lobby" transform="translate(-337.000000, -326.000000)" fill-rule="nonzero">
            <g id="1356479" transform="translate(337.000000, 326.000000)">
                <path d="M4.58749728,7.7986763 C4.57799863,7.7986763 4.56849997,7.798333 4.55888688,7.79776077 L0.429149253,7.53992487 C0.272020988,7.53019738 0.131029002,7.44036109 0.0557264796,7.30223062 C-0.0194616091,7.16410014 -0.0185460767,6.99690163 0.0583586424,6.85957226 C0.0799880874,6.82089113 0.60046824,5.90318759 1.59164647,5.10278619 C2.93107032,4.02131735 4.48816199,3.67055521 6.09446356,4.08849431 C6.22778796,4.12316996 6.33833848,4.21609617 6.39555925,4.34140924 C6.45278002,4.4667223 6.45049119,4.61114701 6.38926499,4.73451459 L4.99754132,7.54415919 C4.91994997,7.70071468 4.7605329,7.7986763 4.58749728,7.7986763 L4.58749728,7.7986763 Z" id="Path" fill="#FF5B5B"></path>
                <path d="M7.91671628,15 C7.84141376,15 7.76611121,14.9814605 7.69778961,14.9441527 C7.55965866,14.8688505 7.46982205,14.7279734 7.45998007,14.5708457 L7.20225773,10.4411224 C7.19081355,10.2572155 7.29072104,10.0842949 7.4558602,10.0024695 L10.2655146,8.61063626 C10.388997,8.5495247 10.5333078,8.54723587 10.6586213,8.60445645 C10.7840492,8.66156259 10.8768613,8.77222716 10.9115371,8.90555109 C11.3295921,10.5118471 10.9788288,12.0689333 9.8972417,13.4083525 C9.09695195,14.3995273 8.17913077,14.9198912 8.14044952,14.941635 C8.07098349,14.980545 7.9938499,15 7.91671628,15 L7.91671628,15 Z" id="Path" fill="#FF193D"></path>
                <path d="M14.2659333,3.69310014 L11.3069327,0.734109815 C11.1883712,0.615548785 11.0144201,0.571374487 10.8536297,0.618867571 C8.87276098,1.20480625 7.24666102,2.12376868 6.02019098,3.35012 C5.76441412,3.60601043 5.51870814,3.88330131 5.29005391,4.17421073 C4.62514854,5.01958749 4.0697637,6.01911647 3.63946348,7.14510293 C3.365376,7.86276335 3.14221497,8.63157899 2.97616031,9.43014931 C2.68616542,10.8250725 2.67060137,11.8248304 2.66999578,11.8667158 C2.66854143,11.9899689 2.71683575,12.1087588 2.80404022,12.195963 C2.88987137,12.2817939 3.00637288,12.3299736 3.12768089,12.3299736 L3.13328854,12.3299736 C3.17528857,12.3295158 4.17504992,12.3139518 5.56986352,12.023958 C6.36843661,11.8579038 7.13725493,11.6347436 7.85503231,11.3605426 C8.98090823,10.9302439 9.98044068,10.3749754 10.8255915,9.71018681 C11.1167308,9.48141894 11.3940227,9.23571382 11.649914,8.97982341 C12.876384,7.75335764 13.7953496,6.12726334 14.3811759,4.14640152 C14.4287836,3.98561171 14.3844947,3.81166117 14.2659333,3.69310014 L14.2659333,3.69310014 Z" id="Path" fill="#E1F1FA"></path>
                <path d="M5.88251779,11.33445 L3.66555618,9.11749612 C3.50190476,8.95384527 3.24177913,8.93816684 3.05958819,9.08098939 C2.91802397,9.19199729 2.78332628,9.31124498 2.65927164,9.43529918 C1.11671406,10.9778514 1.06899192,13.3679548 1.06769442,13.4688919 C1.06613089,13.5922594 1.1144252,13.7110493 1.20174411,13.7982535 C1.28757528,13.8841988 1.40396233,13.9323785 1.52527037,13.9323785 C1.52721587,13.9323785 1.52916137,13.9323785 1.5311069,13.9322641 C1.63204432,13.9310052 4.02227048,13.8832833 5.56471362,12.3407311 C5.68876826,12.2166768 5.80801637,12.0819796 5.91902465,11.9404159 C6.0618477,11.7582256 6.04616922,11.4981009 5.88251779,11.33445 L5.88251779,11.33445 Z" id="Path" fill="#FFF261"></path>
                <path d="M3.67482594,7.05355001 L2.31468814,8.41379748 C2.228857,8.49951392 2.18056268,8.61590056 2.18056268,8.73732261 C2.18056268,8.85863023 2.228857,8.97501687 2.31468814,9.06084775 L5.93916636,12.6853134 C6.0248831,12.7711442 6.14127015,12.8193239 6.26269262,12.8193239 C6.3841151,12.8193239 6.50038771,12.7711442 6.58621888,12.6853134 L7.94635665,11.3251803 L3.67482594,7.05355001 Z" id="Path" fill="#1B3B6B"></path>
                <path d="M9.61239667,6.78369777 C9.23954613,6.78369777 8.88889723,6.63847196 8.62522391,6.37479955 C8.08093991,5.83051745 8.08093991,4.94497184 8.62522391,4.4005753 C8.88889723,4.1369029 9.23954613,3.99167709 9.61239667,3.99167709 C9.98524724,3.99167709 10.3358961,4.1369029 10.5995695,4.4005753 C10.8632428,4.66424771 11.0084691,5.01478095 11.0084691,5.38774466 C11.0084691,5.7605939 10.8632428,6.11112715 10.5995695,6.37479955 C10.3358961,6.63847196 9.98524724,6.78369777 9.61239667,6.78369777 Z" id="Path" fill="#06CCAB"></path>
                <path d="M9.61228224,7.23127711 C9.11984025,7.23127711 8.65692421,7.03947374 8.30879304,6.69134378 C7.58998566,5.97253891 7.58998566,4.80295038 8.30879304,4.08414553 C8.65692421,3.73601558 9.11995472,3.54421218 9.61228224,3.54421218 C10.1047242,3.54421218 10.5676403,3.73601558 10.9158859,4.08414553 C11.2641315,4.43238996 11.4558211,4.89530439 11.4558211,5.38774466 C11.4558211,5.88018493 11.2641315,6.34309936 10.9158859,6.69134378 C10.5676403,7.03947374 10.1047242,7.23127711 9.61228224,7.23127711 L9.61228224,7.23127711 Z M9.61228224,4.45939807 C9.36440186,4.45939807 9.13116997,4.55598639 8.95584553,4.73131023 C8.59398137,5.09328756 8.59398137,5.68220173 8.95584553,6.04417908 C9.13116997,6.21950292 9.36440186,6.31609125 9.61228224,6.31609125 C9.86027707,6.31609125 10.0933945,6.21950292 10.2687189,6.04417908 C10.4440434,5.86885525 10.5406321,5.63573863 10.5406321,5.38774466 C10.5406321,5.13975068 10.4440434,4.90663407 10.2687189,4.73131023 C10.0933945,4.55598639 9.86027707,4.45939807 9.61228224,4.45939807 Z" id="Shape" fill="#1B3B6B"></path>
                <path d="M14.8660647,0.134094868 C14.7787458,0.0467762647 14.6592689,-0.00231898044 14.5365876,8.42836648e-05 C14.4687237,0.000885371701 12.8510925,0.0281223796 10.8536297,0.618867571 L14.3811759,4.14640152 C14.9719232,2.14894571 14.9991603,0.5313201 15,0.463456477 C15.0015635,0.340088935 14.9532692,0.221299037 14.8660647,0.134094868 Z" id="Path" fill="#FF5B5B"></path>
                <path d="M14.2659333,3.69310014 L12.786433,2.21360498 L2.80404022,12.195963 C2.88987137,12.2817939 3.00625841,12.3299736 3.12756645,12.3299736 L3.13328854,12.3299736 C3.17517414,12.3295158 4.17493548,12.3139518 5.56986352,12.023958 C6.36843661,11.8579038 7.13714047,11.6347436 7.85491785,11.3605426 C8.98090823,10.9302439 9.98044068,10.3749754 10.8255915,9.71018681 C11.1166164,9.48141894 11.3940227,9.23571382 11.6497995,8.97982341 C12.8762696,7.75335764 13.7952352,6.12726334 14.3810615,4.14640152 C14.4287836,3.98561171 14.3844947,3.81166117 14.2659333,3.69310014 L14.2659333,3.69310014 Z" id="Path" fill="#CDEBFC"></path>
                <path d="M5.88251779,11.33445 L4.77403699,10.2259731 L1.20162968,13.7982535 L1.20162968,13.7983679 C1.28757528,13.8841988 1.40396233,13.9323785 1.52527037,13.9323785 L1.53099243,13.9323785 C1.63204432,13.9311197 4.02215601,13.8832833 5.56471362,12.3407311 C5.68876826,12.2166768 5.80801637,12.0819796 5.91891022,11.9404159 C6.0618477,11.7582256 6.04628365,11.4981009 5.88251779,11.33445 L5.88251779,11.33445 Z" id="Path" fill="#FDBF00"></path>
                <path d="M5.81064853,9.18936513 L4.12687004,10.8731378 L5.93916636,12.6854278 C6.0248831,12.7711442 6.14127015,12.8194384 6.26269262,12.8194384 C6.3841151,12.8194384 6.50038771,12.7711442 6.58621888,12.6854278 L7.94635665,11.3251803 L5.81064853,9.18936513 Z" id="Path" fill="#001035"></path>
                <path d="M10.5995695,4.4005753 C10.599455,4.4005753 10.599455,4.4005753 10.599455,4.4005753 L8.62522391,6.37479955 L8.62533834,6.37479955 C8.88889723,6.63847196 9.23954613,6.78369777 9.61239667,6.78369777 C9.98524724,6.78369777 10.3358961,6.63847196 10.5995695,6.37479955 C10.8632428,6.11112715 11.0084691,5.7605939 11.0084691,5.38774466 C11.0083547,5.01489538 10.8632428,4.66424771 10.5995695,4.4005753 L10.5995695,4.4005753 Z" id="Path" fill="#1CADB5"></path>
                <path d="M10.9158859,4.08414553 L10.2687189,4.73131023 C10.4440434,4.90663407 10.5406321,5.13975068 10.5406321,5.38774466 C10.5406321,5.63573863 10.4440434,5.86885525 10.2687189,6.04417908 C10.0933945,6.21950292 9.86027707,6.31609125 9.61228224,6.31609125 C9.3642874,6.31609125 9.13116997,6.21950292 8.95584553,6.04417908 C8.95584553,6.04417908 8.95584553,6.04417908 8.95584553,6.04406465 L8.30867857,6.69122932 L8.30867857,6.69134378 C8.65692421,7.03947374 9.11984025,7.23127711 9.61228224,7.23127711 C10.1047242,7.23127711 10.5676403,7.03947374 10.9158859,6.69134378 C11.2640171,6.34309936 11.4558211,5.88018493 11.4558211,5.38774466 C11.4558211,4.89530439 11.2640171,4.43238996 10.9158859,4.08414553 Z" id="Path" fill="#001035"></path>
                <path d="M14.8659503,0.133980434 L12.6174028,2.38263454 L14.3811759,4.14640152 C14.9719232,2.14894571 14.9991603,0.5313201 14.9999614,0.463456477 C15.0015635,0.340088935 14.9532692,0.221299037 14.8659503,0.133980434 L14.8659503,0.133980434 Z" id="Path" fill="#FF193D"></path>
            </g>
        </g>
    </g>
</svg>