<svg xmlns="http://www.w3.org/2000/svg" width="156" height="90"  xmlns:v="https://vecta.io/nano"><defs><linearGradient x1="52.4111421%" y1="12.6714714%" x2="52.4111421%" y2="87.1568602%" id="A"><stop stop-color="#555" offset="0%"/><stop stop-color="#494949" offset="51.5716768%"/><stop stop-color="#303030" offset="52.0245792%"/><stop stop-color="#212121" offset="100%"/></linearGradient></defs><g fill-rule="evenodd"><path d="M4.046 90H0l.07-14.057L2.134 74h8.115l-.005 4.023H4.083l.056 1.966h6.023l-.005 4.023H4.134L4.046 90zm12.289 0h-4.052l-.064-14.057L14.403 74h6.031l2.007 1.943L22.481 90H18.43l.001-4.046h-2.095L16.335 90zm1.949-8l.01-4.267h-1.987L16.34 82h1.944zm11.78-3.954h-1.957L28.084 90h-4.052l-.064-14.057L26.014 74h6.169l2.007 1.943L34.116 90h-4.052V78.046zM35.744 74h10.288l-.031 4.046h-3.012L42.948 90H38.87l.041-11.954h-3.175L35.744 74zm16.374 16h-4.052l-.064-14.057L50.185 74h6.031l2.007 1.943L58.263 90h-4.052l.001-4.046h-2.095L52.117 90zm1.949-8l-.037-4.267h-1.927l.02 4.267h1.944zm11.254-2.537l.065-1.417h-1.958l-.082 2.446h4.03l1.995 1.966.111 5.6L67.465 90h-6.101l-1.99-1.943-.026-3.52h4.03l.049 1.417h1.935l.099-2.469h-4.143l-1.876-1.943-.089-5.6L61.37 74h5.942l2.126 1.943-.111 3.52h-4.007zM71.005 74h4.138l-.04 2.72 1.017 1.577 1.005-1.577.017-2.72h4.138l-.003 4.023-3.136 4.411L78.121 90h-4.185l.044-7.566-3.001-4.411.026-4.023zm22.621 5.463l.065-1.417h-1.958l-.082 2.446h4.03l1.995 1.966.111 5.6L95.77 90h-6.101l-1.99-1.943-.026-3.52h4.03l.049 1.417h1.935l.099-2.469h-4.143l-1.876-1.943-.089-5.6L89.675 74h5.942l2.126 1.943-.111 3.52h-4.007zM103.392 82h1.816l-.115-4.267h-1.816l.115 4.267zm4.071 3.954h-4.075L103.41 90h-4.075l-.058-14.034L101.317 74h6.169l2.012 1.966.01 8.046-2.045 1.943zm7.046.312h1.989l-.069-8h-1.989l.069 8zM112.647 90l-2.003-1.943.004-12.114L112.686 74h6.018l2.003 1.943.019 12.114L118.688 90h-6.041zm13.799-5.966L126.352 90H122.3l.024-16h8.126l2.012 1.966.016 4.023-2.037 2.08 2.035 1.966-.03 4.023L130.426 90h-1.98l-.044-5.966h-1.957zm-.639-6.301l.064 2.133h2.102l.084-2.133h-2.25zM134.011 74H144.3l-.031 4.046h-3.012L141.215 90h-4.078l.041-11.954h-3.175l.008-4.046zm17.828 5.463l.065-1.417h-1.958l-.082 2.446h4.03l1.995 1.966.111 5.6L153.983 90h-6.101l-1.99-1.943-.026-3.52h4.03l.049 1.417h1.935l.099-2.469h-4.143l-1.876-1.943-.089-5.6L147.888 74h5.942l2.126 1.943-.111 3.52h-4.007z" fill="url(#A)"/><path d="M97.213 17.803v1.889H87.17v-3.186c0-1.357-.16-2.221-.479-2.601-.319-.371-.912-.562-1.657-.562-.816 0-1.429.259-1.846.778s-.621 1.296-.621 2.342c0 1.348.231 2.368.701 3.051.444.683 1.57 1.547 3.372 2.584 5.155 3.007 8.421 5.427 9.787 7.268 1.358 1.849 2.041 4.813 2.041 8.909 0 2.981-.373 5.176-1.118 6.585-.745 1.417-2.174 2.601-4.303 3.552s-4.614 1.435-7.436 1.435c-3.106 0-5.75-.553-7.942-1.668s-3.24-2.532-3.915-4.26c-.683-1.72-1.02-4.126-1.02-7.306v-2.765h10.042v5.086c0 1.581.178 2.601.532 3.051s.776.674 1.681.674 1.58-.268 2.023-.821.666-1.374.666-2.463c0-2.385-.399-3.949-1.18-4.684-.816-.734-2.671-2.039-5.572-3.906-2.91-1.884-4.853-3.223-5.812-4.036s-1.757-1.927-2.387-3.362c-.639-1.426-.949-3.249-.949-5.479 0-3.197.435-5.539 1.304-7.026.87-1.478 2.28-2.636 4.232-3.474 1.952-.83 4.304-1.253 7.063-1.253 3.008 0 5.572.449 7.702 1.348 2.121.899 3.523 2.022 4.215 3.379.692 1.365.918 3.673.918 6.922zM55.787 6.769h20.085v.72c-1.856.831-3.204 1.961-4.046 3.392-.622 1.064-1.021 2.565-1.198 4.504h-3.543v8h4.387c.63 1.435 1.429 2.549 2.387 3.362.339.287.801.642 1.386 1.062v3.575h-8.16v17.846H55.787V6.769zm0 42.524l-.06-.062h.06v.062zM52.9 0C49.641 0 47 2.48 47 5.538v44.923C47 53.52 49.641 56 52.9 56h47.2c3.259 0 5.9-2.48 5.9-5.538V5.538C106 2.48 103.359 0 100.1 0H52.9z" fill="#0cbfeb" fill-rule="nonzero"/></g></svg>