<?xml version="1.0" encoding="UTF-8"?>
<svg width="31px" height="31px" viewBox="0 0 31 31" version="1.1" xmlns="http://www.w3.org/2000/svg" xmlns:xlink="http://www.w3.org/1999/xlink">
    <title>challenge</title>
    <g id="Page-1" stroke="none" stroke-width="1" fill="none" fill-rule="evenodd">
        <g id="challenge" transform="translate(0.631250, 0.455556)" fill="#00BFEB">
            <path d="M15.3796742,0.0120623531 C16.0727955,0.0287640727 16.8076712,0.0621675121 17.0331444,0.0872200916 C17.2502668,0.112272671 17.5843012,0.17072869 17.7763709,0.220833849 C17.9767916,0.270939008 18.3024751,0.337745886 18.5112466,0.379500186 C18.7200181,0.412903625 19.0958068,0.513113943 19.3463326,0.588271681 C19.5968584,0.67178028 19.9058402,0.788692317 20.0311031,0.847148336 C20.1647168,0.913955215 20.331734,0.964060374 20.4068918,0.964060374 C20.4904004,0.972411233 20.690821,1.03921811 20.8494873,1.12272671 C21.0081537,1.21458617 21.2085743,1.30644563 21.2837321,1.33149821 C21.3672407,1.35655079 21.4841527,1.47346282 21.5342579,1.59037486 C21.6261173,1.76574292 21.6177665,1.81584808 21.4758018,1.97451441 C21.3755915,2.08307559 21.2419778,2.13318075 21.1417674,2.10812817 C21.049908,2.08307559 20.632365,1.92440925 20.2231729,1.75739206 C19.8139807,1.582024 19.0624033,1.33984907 18.5530009,1.20623531 C18.0435984,1.08097241 17.3170736,0.930656934 16.9245832,0.880551775 C16.5320928,0.838797476 16.1479533,0.797043177 16.0644447,0.797043177 C15.9391818,0.797043177 15.9224801,0.922306074 15.9224801,2.17493505 C15.9224801,3.5361252 15.9224801,3.55282692 16.106199,3.59458122 C16.2147601,3.61128294 16.523742,3.65303724 16.7993203,3.66973896 C17.0748987,3.69479154 17.4673891,3.76994928 17.6761606,3.84510701 C17.8849321,3.91191389 18.127107,3.97036991 18.2189665,3.97036991 C18.310826,3.97036991 18.4945449,4.02882593 18.6365095,4.10398367 C18.7784741,4.17079055 18.962193,4.23759743 19.0540525,4.25429915 C19.1459119,4.27100087 19.3296309,4.33780774 19.4715955,4.41296548 C19.6135601,4.48812322 19.9308928,4.64678956 20.1814186,4.77205246 C20.4319444,4.88896449 20.749277,5.04763083 20.8912416,5.11443771 C21.0332063,5.18959545 21.16682,5.28980577 21.2002235,5.33991092 C21.2336269,5.39001608 21.2920829,5.43177038 21.3254864,5.43177038 C21.3672407,5.43177038 21.5927139,5.58208586 21.8348888,5.76580478 C22.0770637,5.94952369 22.5697645,6.3837684 22.9205006,6.72615366 C23.2795876,7.06853891 23.7806392,7.61969566 24.0311649,7.93702833 C24.2900416,8.254361 24.6324269,8.74706173 24.799444,9.02264011 C24.9581104,9.29821848 25.2253379,9.80762093 25.3923551,10.1500062 C25.5510214,10.4923914 25.7764946,11.0602499 25.8934067,11.4026352 C26.0019679,11.7450204 26.1606342,12.3128789 26.2357919,12.6552641 C26.3109497,12.9976494 26.3861074,13.8661388 26.41116,14.5759619 C26.4445634,15.5279599 26.4278617,16.0958184 26.3276514,16.7054312 C26.2608445,17.1647284 26.1188799,17.8411481 26.0103187,18.2085859 C25.9017575,18.5760238 25.7514421,18.9852159 25.6679335,19.1104788 C25.5927757,19.2357417 25.459162,19.335952 25.3756534,19.335952 C25.3004956,19.3443029 25.1668819,19.277496 25.0833733,19.1939874 C24.9330578,19.0520228 24.9414087,19.0186193 25.1334784,18.4173574 C25.2503905,18.0749722 25.400706,17.490412 25.4675128,17.1229741 C25.5426706,16.7555363 25.63453,16.1459235 25.7347404,15.0770135 L22.9789566,15.0770135 L22.8703954,15.8870469 C22.8035886,16.3379933 22.6616239,17.0060621 22.5447119,17.3734999 C22.4277999,17.7409378 22.2190284,18.2670419 22.0770637,18.5426203 C21.9267483,18.8181987 21.6762225,19.2524434 21.5008544,19.5029692 C21.3338372,19.753495 20.9329959,20.229494 20.6240141,20.5468267 C20.3066815,20.8641593 19.8807876,21.239948 19.680367,21.3819127 C19.4715955,21.5155264 19.2878766,21.657491 19.262824,21.6908945 C19.2377714,21.715947 19.1292102,21.7827539 19.0122982,21.8328591 C18.8953861,21.8829642 18.7450707,21.958122 18.6782638,21.9998763 C18.6114569,22.0499814 18.4193871,22.1418409 18.2607208,22.2169986 C18.1020545,22.2921564 17.7429675,22.4257701 17.4673891,22.5259805 C17.1918107,22.6178399 16.8327238,22.7096994 16.6740574,22.7264011 C16.5153911,22.7514537 16.2481636,22.8015588 16.0894972,22.8349623 C15.9308309,22.8683657 15.4798845,22.91012 15.0873941,22.9184709 C14.6949037,22.9351726 14.2272555,22.9017691 14.0435366,22.851664 C13.8598177,22.8099097 13.5591867,22.7514537 13.3754678,22.7347519 C13.1917489,22.7180502 12.8493636,22.6345416 12.6238904,22.551033 C12.3900663,22.4675244 12.0560319,22.3339107 11.872313,22.2587529 C11.6885941,22.1752443 11.4798226,22.0917357 11.4130157,22.0583323 C11.3462089,22.0332797 11.1791917,21.9330694 11.0372271,21.8412099 C10.8952624,21.7493505 10.7198944,21.657491 10.6363858,21.6324385 C10.561228,21.6073859 10.4944212,21.5572807 10.4944212,21.5071756 C10.4944212,21.4570704 10.4526669,21.423667 10.4109126,21.423667 C10.3691583,21.423667 10.2271936,21.3401584 10.1102816,21.2315972 C9.99336957,21.1313869 9.70108948,20.8558085 9.45891454,20.6219844 C9.22509047,20.3881603 8.93281037,20.0791785 8.79919662,19.9372139 C8.67393372,19.7868984 8.5737234,19.6449338 8.5737234,19.6031795 C8.5737234,19.5697761 8.48186394,19.4361623 8.36495191,19.2941977 C8.24803987,19.1522331 8.15618041,18.9935667 8.15618041,18.9351107 C8.15618041,18.8850056 8.13112783,18.8349004 8.08937353,18.8349004 C8.05597009,18.8432513 7.98081235,18.7179884 7.92235633,18.5676729 C7.85554946,18.4173574 7.77204086,18.2169368 7.7219357,18.1250773 C7.67183054,18.0332179 7.57997108,17.7910429 7.5131642,17.5822714 C7.45470818,17.3734999 7.32944529,16.8640975 7.24593669,16.4549054 C7.15407723,16.0457132 7.08727035,15.3859953 7.08727035,14.9935049 C7.08727035,14.6010145 7.15407723,13.9412965 7.24593669,13.5321044 C7.32944529,13.1229123 7.45470818,12.6135098 7.5131642,12.4047383 C7.57997108,12.1959668 7.67183054,11.9537919 7.7219357,11.8619325 C7.77204086,11.770073 7.86390032,11.5696524 7.92235633,11.4193369 C7.98081235,11.2773723 8.05597009,11.1521094 8.08937353,11.1521094 C8.13112783,11.1521094 8.17288213,11.0602499 8.19793471,10.9433379 C8.22298729,10.8264258 8.28144331,10.7345664 8.32319761,10.7345664 C8.36495191,10.7345664 8.4067062,10.6761104 8.4067062,10.6093035 C8.4067062,10.5424966 8.4484605,10.4840406 8.4902148,10.4840406 C8.5319691,10.4840406 8.5737234,10.4422863 8.5737234,10.400532 C8.5737234,10.3587777 8.67393372,10.2001113 8.79919662,10.0497959 C8.93281037,9.90783125 9.22509047,9.59884944 9.45891454,9.36502536 C9.70108948,9.13120129 9.99336957,8.85562291 10.1102816,8.74706173 C10.2271936,8.64685142 10.3691583,8.56334282 10.4109126,8.56334282 C10.4526669,8.56334282 10.4944212,8.52158852 10.4944212,8.47983422 C10.4944212,8.43807992 10.5528772,8.39632562 10.6196841,8.39632562 C10.6864909,8.39632562 10.744947,8.35457132 10.744947,8.31281702 C10.744947,8.27106272 10.8451573,8.19590499 10.9704202,8.14579983 C11.1040339,8.10404553 11.2627003,8.02888779 11.3295071,7.98713349 C11.396314,7.94537919 11.6217872,7.83681801 11.8305587,7.74495855 C12.0393302,7.6530991 12.3900663,7.51948534 12.6238904,7.43597674 C12.8493636,7.35246814 13.1917489,7.26895954 13.3754678,7.25225783 C13.5591867,7.23555611 13.7679582,7.20215267 13.8347651,7.17710009 C13.901572,7.15204751 14.1270452,7.11864407 14.3358167,7.09359149 C14.6280968,7.06018805 14.7450088,7.07688977 14.8619209,7.20215267 C14.970482,7.30236298 15.0038855,7.41927502 14.970482,7.57794136 C14.9287277,7.77001113 14.8702717,7.82011629 14.6030442,7.85351973 C14.436027,7.87857231 13.9767297,7.95373005 13.5842393,8.02888779 C13.1917489,8.10404553 12.7408025,8.21260671 12.5821361,8.27941358 C12.4234698,8.34622046 12.2815052,8.40467648 12.2648034,8.40467648 C12.2564526,8.39632562 12.0476811,8.49653594 11.8055062,8.61344798 C11.5716821,8.73871087 11.1624899,8.98088581 10.9119642,9.14790301 C10.6614384,9.32327106 10.2021411,9.72411233 9.90151011,10.0330941 C9.60087916,10.3504268 9.20838875,10.8347767 9.03302069,11.1103551 C8.85765264,11.3859334 8.59877598,11.8535816 8.46516222,12.1542125 C8.33154847,12.4548435 8.14782955,13.0394037 8.05597009,13.4485958 C7.95575977,13.9078931 7.89730375,14.5175059 7.89730375,15.0352592 C7.89730375,15.6031177 7.94740891,16.1125201 8.07267181,16.6219226 C8.17288213,17.0311147 8.37330277,17.6407275 8.52361824,17.9580601 C8.67393372,18.2753928 8.94116123,18.7680935 9.13323101,19.0436719 C9.31694993,19.3192503 9.76789636,19.8286527 10.1353342,20.171038 C10.4944212,20.5134232 11.0372271,20.9393171 11.3295071,21.1146851 C11.6301381,21.2817023 12.1562423,21.5322281 12.4986275,21.6658419 C12.8410128,21.7994556 13.2752575,21.9330694 13.4589764,21.958122 C13.6426953,21.9915254 14.0685892,22.0499814 14.3942727,22.0917357 C14.7867631,22.1418409 15.2210078,22.1501918 15.6051474,22.1000866 C15.9391818,22.0499814 16.3066196,21.9915254 16.4235316,21.9664728 C16.5404437,21.9414203 16.7074609,21.9080168 16.7993203,21.8913151 C16.8911798,21.8746134 17.058197,21.8412099 17.175109,21.8078065 C17.2920211,21.7744031 17.6761606,21.6073859 18.0352476,21.4403687 C18.3943346,21.2650006 18.6782638,21.1063343 18.6782638,21.06458 C18.6782638,21.0311765 18.728369,21.006124 18.7784741,21.006124 C18.8369301,21.006124 19.020649,20.9142645 19.1793154,20.7973525 C19.3379817,20.6804404 19.7471739,20.3130026 20.0812082,19.9789682 C20.4152426,19.6532847 20.6824702,19.3526537 20.6824702,19.3108994 C20.6824702,19.277496 20.7576279,19.1689348 20.8578382,19.0603736 C20.9496977,18.9601633 21.1918726,18.5342695 21.4006441,18.1250773 C21.6010647,17.7158852 21.826538,17.1480267 21.8933448,16.8724483 C21.9685026,16.59687 22.0520112,16.0540641 22.0937655,15.6615737 C22.1355198,15.2690833 22.1355198,14.6511196 22.0937655,14.2836818 C22.0520112,13.916244 21.9685026,13.3901398 21.8933448,13.1145614 C21.826538,12.8389831 21.6010647,12.2711246 21.4006441,11.8619325 C21.1918726,11.4527403 20.9580485,11.0351973 20.8661891,10.9433379 C20.7826805,10.8514784 20.6991719,10.7262155 20.6741193,10.6677595 C20.6574176,10.6093035 20.3567866,10.2836199 20.0144014,9.94123469 C19.6720161,9.59049858 19.3379817,9.3149202 19.2795257,9.3149202 C19.2294205,9.3149202 19.1793154,9.28986762 19.1793154,9.24811332 C19.1793154,9.21470988 19.0791051,9.13120129 18.9538422,9.06439441 C18.8202284,8.99758753 18.6866147,8.90572807 18.6365095,8.87232463 C18.5864043,8.83057033 18.4026854,8.72200916 18.2189665,8.61344798 C17.9851424,8.48818508 17.8765813,8.37127304 17.8598795,8.22930843 C17.8515287,8.11239639 17.8849321,7.97043177 17.9433881,7.91197575 C18.0018441,7.85351973 18.1438088,7.80341457 18.2607208,7.80341457 C18.3776328,7.80341457 18.5697026,7.87857231 18.6949655,7.97878263 C18.8285793,8.07064209 18.962193,8.14579983 19.0122982,8.14579983 C19.0624033,8.14579983 19.1459119,8.19590499 19.1960171,8.24601014 C19.2544731,8.30446616 19.4715955,8.4631325 19.6720161,8.60509712 C19.8724367,8.74706173 20.2899797,9.10614871 20.5906107,9.40677966 C20.8912416,9.70741061 21.2920829,10.1834096 21.4758018,10.4506371 C21.6595208,10.7178647 21.9350991,11.1688111 22.0770637,11.4443895 C22.2273792,11.7199678 22.4277999,12.2126686 22.5280102,12.5300012 C22.6198696,12.8473339 22.7534834,13.3817889 22.9037989,14.2836818 L24.2315856,14.3087344 C24.9664612,14.3170852 25.5927757,14.3003835 25.6261792,14.2669801 C25.6512318,14.2252258 25.6261792,13.857788 25.5677232,13.4485958 C25.517618,13.0394037 25.400706,12.4715452 25.3255482,12.1959668 C25.2420396,11.9203885 25.1084259,11.4944946 25.0165664,11.2523197 C24.9330578,11.0184956 24.7242863,10.5424966 24.5572691,10.2084622 C24.3902519,9.88277867 24.0311649,9.28986762 23.7639374,8.89737721 C23.4967099,8.5048868 22.9706057,7.87022145 22.5864662,7.4860819 C22.2023266,7.10194235 21.6678716,6.62594334 21.3922932,6.4255227 C21.1167149,6.22510207 20.8411365,6.06643573 20.7826805,6.05808487 C20.7325753,6.05808487 20.6824702,6.01633057 20.6824702,5.97457627 C20.6824702,5.92447111 20.6240141,5.89106767 20.5572073,5.89106767 C20.4904004,5.89106767 20.4235935,5.85766423 20.4068918,5.81590993 C20.3985409,5.77415564 20.1229625,5.6154893 19.8056299,5.4484721 C19.4882972,5.28980577 18.9454913,5.06433255 18.6114569,4.93906965 C18.2857734,4.82215761 18.010195,4.74699988 18.010195,4.78040332 C18.0185459,4.82215761 17.9684407,4.8054559 17.9099847,4.74699988 C17.8515287,4.69689472 17.4840908,4.58833354 17.0916004,4.5131758 C16.69911,4.43801806 15.9475326,4.35450946 15.4214285,4.32945688 C14.736658,4.29605345 14.1855012,4.32110602 13.5007307,4.4296672 C12.9746265,4.50482494 12.4151189,4.62173698 12.2648034,4.68854386 C12.1228388,4.75535074 11.9975759,4.78875418 11.9975759,4.7637016 C11.9975759,4.73864902 11.7219976,4.82215761 11.3879632,4.93906965 C11.0622796,5.06433255 10.5194737,5.28980577 10.2021411,5.45682296 C9.88480839,5.6154893 9.33365165,5.94117283 8.99126639,6.16664605 C8.64888114,6.40047012 8.04761923,6.89317085 7.66347968,7.26895954 C7.27934013,7.63639738 6.7448851,8.22930843 6.47765758,8.58004454 C6.20207921,8.93913151 5.93485169,9.25646418 5.87639568,9.28151676 C5.82629052,9.30656934 5.6843259,9.28151676 5.57576472,9.21470988 C5.40874753,9.12285043 5.38369495,9.06439441 5.43380011,8.83057033 C5.45885268,8.68860572 5.58411558,8.4213782 5.70937848,8.254361 C5.84299224,8.08734381 6.05176373,7.82011629 6.19372835,7.6530991 C6.33569297,7.49443276 6.66972736,7.13534579 6.95365659,6.85976741 C7.23758583,6.57583818 7.57162022,6.25850551 7.70523398,6.14159347 C7.83884774,6.02468143 8.08937353,5.83261165 8.26474159,5.6989979 C8.43175878,5.573735 8.59042512,5.47352468 8.6154777,5.47352468 C8.64053028,5.47352468 8.73238974,5.4067178 8.81589834,5.3232092 C8.90775779,5.24805147 9.26684477,5.03092911 9.6342826,4.85556105 C9.99336957,4.67184214 10.3942108,4.47977236 10.5361755,4.42131634 C10.6781401,4.37121118 10.9954728,4.24594829 11.2459985,4.14573797 C11.4965243,4.05387851 11.7637519,3.97036991 11.8305587,3.97036991 C11.8973656,3.97036991 12.1061371,3.91191389 12.289856,3.85345787 C12.4735749,3.786651 12.8660654,3.7031424 13.1666963,3.67808982 C13.4673273,3.64468638 14.0268349,3.59458122 15.1291484,3.51107262 L15.1542009,2.21668935 C15.1625518,1.50686626 15.1625518,0.880551775 15.1374992,0.838797476 C15.1207975,0.788692317 14.795114,0.771990598 14.2439572,0.805394037 C13.7679582,0.838797476 13.1666963,0.888902635 12.9161705,0.913955215 C12.6656447,0.947358654 12.2481017,1.02251639 11.9975759,1.09767413 C11.7470501,1.16448101 11.4631209,1.23128789 11.3712614,1.24798961 C11.279402,1.26469133 10.9370167,1.35655079 10.6196841,1.4567611 C10.3023514,1.55697142 9.99336957,1.67388346 9.95161527,1.71563776 C9.90151011,1.75739206 9.7595455,1.81584808 9.61758088,1.84090066 C9.47561626,1.8743041 8.97456467,2.09977731 8.4902148,2.35030311 C8.00586493,2.60917976 7.25428755,3.06012619 6.82004284,3.369108 C6.37744727,3.67808982 5.56741386,4.3879129 4.98285367,4.97247309 C4.39829349,5.54868242 3.6884704,6.36706668 3.37948859,6.80966225 C3.07050677,7.24390697 2.61956034,7.99548435 2.36903455,8.47983422 C2.11850875,8.96418409 1.80117608,9.6907089 1.6508606,10.1082519 C1.50054513,10.5257949 1.29177363,11.2189162 1.18321245,11.653161 C1.07465127,12.0874057 0.949388377,12.7638253 0.899283218,13.1563157 C0.849178059,13.5488061 0.80742376,14.3838921 0.80742376,15.0102066 C0.80742376,15.644872 0.849178059,16.4549054 0.890932358,16.8056415 C0.941037517,17.1647284 1.05794955,17.7993938 1.14980901,18.2085859 C1.24166847,18.6177781 1.39198395,19.1689348 1.47549255,19.4194606 C1.55900114,19.6699864 1.70931662,20.0875294 1.80952694,20.3380552 C1.90973726,20.588581 2.11850875,21.06458 2.28552595,21.3819127 C2.44419229,21.7075962 2.76987582,22.2754547 3.00369989,22.6595942 C3.24587483,23.0353829 3.47134805,23.3443647 3.5214532,23.3443647 C3.5632075,23.3360139 4.03085565,22.91012 4.5402581,22.3840158 C5.05801141,21.8579117 5.48390526,21.3986144 5.48390526,21.3568601 C5.49225612,21.3234566 5.43380011,21.239948 5.35864237,21.1731412 C5.28348463,21.1063343 5.17492345,20.9560188 5.11646743,20.8391068 C5.05801141,20.7221947 4.92439766,20.4800198 4.8325382,20.2963009 C4.73232788,20.112582 4.5820124,19.7952493 4.4985038,19.5864778 C4.41499521,19.3777063 4.26467973,18.9852159 4.17282027,18.7096375 C4.08096081,18.4340591 3.9389962,17.9998144 3.87218932,17.7492886 C3.79703158,17.4987628 3.71352298,17.0979216 3.6884704,16.8724483 C3.66341782,16.6386243 3.61331266,16.1375727 3.57155836,15.7450823 C3.52980406,15.3525919 3.51310234,14.9433997 3.52980406,14.8264877 C3.53815492,14.7095757 3.59661094,14.1667698 3.65506696,13.615613 C3.70517212,13.0644563 3.79703158,12.5216504 3.8554876,12.4047383 C3.91394362,12.2878263 4.03085565,12.1625634 4.11436425,12.12916 C4.22292543,12.0874057 4.32313575,12.1208091 4.44004779,12.2377211 C4.60706498,12.4047383 4.60706498,12.4214401 4.45674951,13.4318941 C4.38159177,13.9914017 4.31478489,14.7179265 4.31478489,15.0352592 C4.31478489,15.3525919 4.37324091,16.0123098 4.44839865,16.4966597 C4.51520552,16.9810095 4.68222272,17.7325869 4.81583648,18.1668316 C4.94945024,18.6010763 5.22502861,19.3025486 5.42544925,19.7117407 C5.63422074,20.1209328 6.01000943,20.763949 6.27723695,21.1313869 C6.5361136,21.4988247 7.07891949,22.13349 7.4714099,22.5343313 C7.87225118,22.9351726 8.51526738,23.4863293 8.90775779,23.7535568 C9.30024821,24.0207844 9.88480839,24.3715205 10.2021411,24.5301868 C10.5194737,24.697204 11.0622796,24.9226772 11.3879632,25.0479401 C11.7219976,25.1648522 11.9975759,25.2483608 11.9975759,25.2233082 C11.9975759,25.1982556 12.1228388,25.231659 12.2648034,25.2984659 C12.4151189,25.3652728 12.7241007,25.4404305 12.9579248,25.473834 C13.183398,25.5072374 13.4673273,25.5489917 13.5842393,25.5740443 C13.7011513,25.590746 14.2022029,25.6325003 14.7116054,25.6575529 C15.2210078,25.6826055 15.8890766,25.6575529 16.2147601,25.6074477 C16.5320928,25.5573426 16.8577764,25.5072374 16.9245832,25.5072374 C16.9913901,25.5072374 17.4089331,25.4070271 17.8431778,25.2984659 C18.3275277,25.173203 19.0624033,24.8809229 19.7221213,24.5552394 C20.3233832,24.2629593 21.0165045,23.862118 21.2753812,23.6616974 C21.5342579,23.4612768 21.94345,23.1272424 22.1772741,22.9017691 C22.4110981,22.6846468 22.6699748,22.4758753 22.7451325,22.434121 C22.836992,22.3923667 22.9789566,22.3923667 23.0791669,22.434121 C23.2127807,22.4842262 23.2712367,22.5760856 23.2712367,22.7347519 C23.2795876,22.91012 23.1626755,23.0771372 22.7952377,23.4111716 C22.5280102,23.6533465 22.0854146,24.0124335 21.8098362,24.221205 C21.5342579,24.4299765 21.2670303,24.6220463 21.225276,24.6554497 C21.1751709,24.697204 21.0248554,24.7890635 20.8912416,24.8642212 C20.749277,24.9393789 20.4319444,25.0980453 20.1814186,25.2233082 C19.9308928,25.3402202 19.6135601,25.4988866 19.4715955,25.5740443 C19.3296309,25.649202 19.1626137,25.7160089 19.0958068,25.7327106 C19.0289999,25.7494123 18.8035267,25.8162192 18.5947552,25.8830261 C18.3859837,25.9581838 18.0268967,26.066745 17.8014235,26.1335519 C17.5675994,26.2003588 17.1918107,26.2755165 16.9663375,26.3005691 C16.7325135,26.3256217 16.1897076,26.3840777 15.7554629,26.425832 C15.2544113,26.4759372 14.6865528,26.4759372 14.2105538,26.425832 C13.8013617,26.3840777 13.2919592,26.3339725 13.0831877,26.30892 C12.8744162,26.2922182 12.5403818,26.2170605 12.3316103,26.1419028 C12.1228388,26.0750959 11.8806639,26.0166399 11.7888044,26.0166399 C11.696945,26.0166399 11.5132261,25.9581838 11.3712614,25.8830261 C11.2292968,25.8162192 11.0455779,25.7494123 10.9537185,25.7327106 C10.861859,25.7160089 10.6781401,25.649202 10.5361755,25.5823952 C10.3942108,25.5072374 10.0768782,25.3485711 9.82635238,25.231659 C9.57582658,25.1063961 9.23344133,24.9310281 9.07477499,24.8391686 C8.91610865,24.7389583 8.77414404,24.6303971 8.75744232,24.5886428 C8.74909146,24.5468885 8.6989863,24.5134851 8.657232,24.5134851 C8.60712684,24.5134851 8.47351308,24.4383274 8.33989933,24.338117 C8.21463643,24.2462576 7.96411063,24.0458369 7.78874258,23.9038723 C7.60502366,23.7535568 7.21253325,23.3944699 6.91190229,23.0938389 C6.61127134,22.793208 6.27723695,22.434121 5.99330771,22.0499814 L3.97239964,24.0541878 L4.59036326,24.7222566 C4.92439766,25.0896944 5.54236128,25.6575529 5.95155341,25.9832364 C6.36074555,26.30892 6.95365659,26.7515155 7.27934013,26.960287 C7.5966728,27.1607077 8.19793471,27.5030929 8.6154777,27.7035135 C9.02466983,27.912285 9.65098432,28.1878634 9.99336957,28.3047755 C10.3357548,28.4300384 10.7115435,28.5803538 10.8284556,28.6388098 C10.9453676,28.688915 11.0539288,28.8141779 11.0622796,28.8976865 C11.0789813,28.989546 11.0205253,29.1315106 10.9370167,29.22337 C10.8201047,29.3402821 10.7198944,29.3653347 10.4944212,29.3152295 C10.3357548,29.2901769 10.085229,29.2066683 9.95161527,29.1398614 C9.80965066,29.0730546 9.64263346,29.0229494 9.57582658,29.0145985 C9.5090197,29.0145985 9.31694993,28.9477917 9.15828359,28.8642831 C8.99961725,28.7807745 8.657232,28.6054064 8.4067062,28.4884944 C8.15618041,28.3632315 7.79709344,28.1711617 7.61337452,28.0626005 C7.4296556,27.9540393 7.22088411,27.8371273 7.15407723,27.8037239 C7.08727035,27.7703204 6.91190229,27.6617592 6.77828854,27.5698998 C6.63632392,27.4780403 6.24383351,27.1857602 5.90144826,26.9352344 C5.559063,26.6847086 4.8742925,26.0750959 4.38159177,25.5740443 C3.88054018,25.0813436 3.32103257,24.4633799 3.12896279,24.1961524 C2.92854216,23.9372758 2.66131464,23.5531362 2.51935002,23.3443647 C2.37738541,23.1355932 2.23542079,22.91012 2.20201735,22.8433131 C2.17696477,22.7765062 2.05170187,22.5677348 1.9431407,22.3840158 C1.82622866,22.2002969 1.63415888,21.8412099 1.50889599,21.5906842 C1.39198395,21.3401584 1.21661589,20.9810714 1.13310729,20.7973525 C1.04959869,20.6136336 0.974440956,20.4299146 0.974440956,20.3798095 C0.974440956,20.3297043 0.899283218,20.1042311 0.81577462,19.8787579 C0.723915161,19.6449338 0.615353984,19.3108994 0.565248825,19.1271805 C0.515143666,18.9434616 0.406582488,18.4925152 0.31472303,18.1250773 C0.222863572,17.7576395 0.131004114,17.248237 0.105951534,16.9977112 C0.0892498144,16.7471855 0.0474955153,16.179327 0.014092076,15.7450823 C-0.0109605035,15.3108376 -0.0026096437,14.4423481 0.0391446554,13.8243845 C0.0808989546,13.2064209 0.181109273,12.4130892 0.264617871,12.0707039 C0.339775609,11.7283187 0.465038507,11.235618 0.531845385,10.9850922 C0.598652264,10.7345664 0.723915161,10.3170234 0.81577462,10.0664976 C0.907634078,9.81597179 1.06630041,9.41513052 1.15815987,9.18965731 C1.25001933,8.95583323 1.41703653,8.58004454 1.53394856,8.35457132 C1.64250974,8.12074725 1.82622866,7.78671285 1.93478984,7.60299394 C2.04335101,7.41927502 2.16026305,7.21050353 2.19366649,7.14369665 C2.22706993,7.07688977 2.42749057,6.77625881 2.6279112,6.47562786 C2.8366827,6.17499691 3.13731365,5.76580478 3.30433085,5.55703328 C3.47134805,5.34826178 3.99745221,4.78875418 4.48180208,4.31275517 C4.96615195,3.83675615 5.67597504,3.20209081 6.06846545,2.90981071 C6.46095586,2.62588148 6.88684972,2.32525053 7.02881433,2.25009279 C7.16242809,2.18328591 7.4296556,2.03297043 7.61337452,1.92440925 C7.79709344,1.81584808 8.15618041,1.6237783 8.4067062,1.4985154 C8.657232,1.38160337 8.96621381,1.22293703 9.09147671,1.16448101 C9.22509047,1.09767413 9.37540594,1.04756897 9.4255111,1.04756897 C9.48396712,1.03921811 9.68438776,0.972411233 9.86810667,0.880551775 C10.0518256,0.788692317 10.2355445,0.721885439 10.2856497,0.713534579 C10.327404,0.713534579 10.6113332,0.6467277 10.9119642,0.554868242 C11.2125951,0.463008784 11.7386993,0.329395027 12.0810845,0.245886428 C12.4234698,0.16237783 13.0247317,0.0705183719 13.4172221,0.0371149326 C13.8097125,0.00371149326 14.6865528,-0.0129902264 15.3796742,0.0120623531 L15.3796742,0.0120623531 Z M25.6846352,4.49647408 C25.7597929,4.54657924 25.993617,4.77205246 26.2107394,5.00587653 C26.4362126,5.23970061 26.8704573,5.79085735 27.1794391,6.22510207 C27.4967718,6.65934678 27.897613,7.28566126 28.081332,7.60299394 C28.2567,7.92032661 28.5823836,8.58004454 28.791155,9.06439441 C28.9999265,9.54874428 29.2504523,10.2084622 29.3506627,10.5257949 C29.4425221,10.8431276 29.6011885,11.4527403 29.6930479,11.8619325 C29.7849074,12.2711246 29.9101703,12.9892985 29.9602754,13.4485958 C30.0103806,13.9078931 30.0521349,14.6010145 30.0521349,14.9935049 C30.0521349,15.3859953 30.0103806,16.0791167 29.9602754,16.538414 C29.9101703,16.9977112 29.7765565,17.7659904 29.6596445,18.2503402 C29.5510833,18.7346901 29.3590135,19.4278115 29.2421015,19.7952493 C29.1168386,20.1626871 28.8830145,20.763949 28.7159973,21.1313869 C28.5489801,21.4988247 28.2650509,22.0583323 28.0896828,22.3840158 C27.9059639,22.7096994 27.6303855,23.1439441 27.4800701,23.3610664 C27.3214037,23.5865397 27.1961408,23.7953111 27.1961408,23.8454163 C27.1961408,23.8955215 27.1710882,23.9289249 27.1293339,23.9289249 C27.0959305,23.9289249 26.9372642,24.104293 26.7785978,24.3214153 C26.6199315,24.5385377 26.0771256,25.1314487 25.5677232,25.6408512 C25.0666716,26.1502536 24.5405674,26.6346035 24.4069536,26.7264629 C24.2733399,26.8183224 24.0979718,26.960287 24.0061124,27.0354448 C23.9226038,27.1189534 23.8307443,27.1857602 23.7973409,27.1857602 C23.7555866,27.1774094 23.6553763,27.260918 23.5635168,27.3527774 C23.4716573,27.4446369 23.3547453,27.5281455 23.312991,27.5281455 C23.2628858,27.5281455 23.1626755,27.5866015 23.0708161,27.6701101 C22.9873075,27.7452678 22.8453428,27.8454782 22.7618343,27.8955833 C22.6783257,27.9456885 22.2691335,28.15446 21.8515905,28.3715823 C21.4423984,28.5970555 21.1000131,28.7557219 21.1000131,28.7306693 C21.1000131,28.7056167 21.0081537,28.747371 20.8912416,28.8141779 C20.7743296,28.8809848 20.4820495,29.0145985 20.2398746,29.106458 C20.0060505,29.1983175 19.7304721,29.2901769 19.6386127,29.3068786 C19.5467532,29.3235804 19.2795257,29.3987381 19.0540525,29.465545 C18.8202284,29.5323518 18.3943346,29.6492639 18.0937036,29.7244216 C17.7930727,29.7912285 17.058197,29.8997897 16.4652859,29.9498948 C15.6636034,30.0167017 15.329569,30.0167017 15.1876044,29.9498948 C15.0873941,29.8997897 15.0038855,29.7912285 15.0038855,29.7077199 C15.0038855,29.6325622 15.0456398,29.4989484 15.1040958,29.4154398 C15.1764699,29.3152295 15.351838,29.2512062 15.6302,29.22337 C15.8556732,29.1983175 16.3817773,29.1482123 16.7993203,29.106458 C17.2085125,29.0647037 17.8849321,28.9477917 18.3024751,28.8475813 C18.7116672,28.747371 19.4298412,28.5385995 19.8891385,28.3799332 C20.3484358,28.2212669 21.0248554,27.9373376 21.3922932,27.7536187 C21.7597311,27.5615489 22.2691335,27.2859706 22.5196593,27.1189534 C22.7701851,26.960287 22.9873075,26.7932698 22.9956583,26.7598664 C23.01236,26.7181121 23.0541143,26.6847086 23.1042195,26.6847086 C23.1459738,26.6847086 23.4048505,26.5260423 23.6637271,26.3423234 C23.9309546,26.1502536 24.56562,25.5740443 25.0750224,25.0646418 C25.576074,24.5552394 26.2107394,23.8454163 26.469616,23.4863293 C26.7284927,23.1355932 27.1293339,22.5176296 27.363158,22.1084375 C27.5886312,21.7075962 27.9143148,21.06458 28.081332,20.6720896 C28.2399983,20.2795992 28.4654715,19.6783373 28.5740327,19.335952 C28.674243,18.9935667 28.8245585,18.44241 28.8997162,18.1250773 C28.9832248,17.8077446 29.0583826,17.3150439 29.0834351,17.0394655 C29.1084877,16.7638872 29.1418912,16.5133614 29.1669437,16.4716071 C29.1836455,16.4382036 29.2003472,15.8369417 29.208698,15.1354695 C29.208698,14.4423481 29.1669437,13.5237536 29.1168386,13.1145614 C29.0667334,12.7053693 28.9331197,12.0038971 28.8245585,11.5696524 C28.7159973,11.1354076 28.5072258,10.458988 28.3652612,10.0664976 C28.2232966,9.67400718 27.9393673,9.03099097 27.7305958,8.62179884 C27.5301752,8.22095757 27.1627374,7.58629222 26.9122116,7.20215267 C26.6700367,6.82636397 26.3443531,6.35871582 26.1856868,6.17499691 C26.0270204,5.98292713 25.7263895,5.6154893 25.5009163,5.35661264 C25.2336888,5.03092911 25.1251276,4.83885933 25.1501802,4.7219473 C25.1752327,4.63008784 25.2754431,4.52152666 25.3756534,4.47977236 C25.4842146,4.43801806 25.6011266,4.43801806 25.6846352,4.49647408 L25.6846352,4.49647408 Z M15.1291484,9.86607695 C15.2210078,9.88277867 15.4798845,9.91618211 15.7137086,9.94958555 C15.9391818,9.97463813 16.2064093,10.0497959 16.2982687,10.1166027 C16.3901282,10.1834096 16.523742,10.2335148 16.5905488,10.2335148 C16.6573557,10.2335148 16.8661272,10.3754794 17.0498461,10.5508475 C17.233565,10.7262155 17.5007926,11.0184956 17.6427572,11.1938637 C17.7847218,11.3775826 17.9851424,11.7450204 18.0853527,12.0038971 C18.2022648,12.3379315 18.2607208,12.6803167 18.2607208,13.1145614 C18.2607208,13.5488061 18.2022648,13.8911914 18.0853527,14.2168749 C17.9851424,14.4841024 17.8765813,14.7346282 17.834827,14.7847334 C17.8014235,14.8348386 17.6761606,15.1104169 17.5675994,15.4110479 C17.4506874,15.7116788 17.3170736,16.3129407 17.2669685,16.7471855 C17.2085125,17.2315353 17.0999513,17.6824818 16.9830392,17.907955 C16.8828289,18.1167265 16.69911,18.3672523 16.5654963,18.4758134 C16.4402334,18.5843746 16.340023,18.7346901 16.3316722,18.8098478 C16.3316722,18.8933564 16.281567,19.0770753 16.2314619,19.21904 C16.1730058,19.3610046 16.0310412,19.5948287 15.8974275,19.7367933 C15.7721646,19.8871087 15.5717439,20.0290734 15.4381302,20.0541259 C15.3128673,20.0875294 15.0790432,20.1042311 14.9203769,20.1042311 C14.7617105,20.0958802 14.5195356,20.0457751 14.377571,19.9873191 C14.2356064,19.9372139 14.0852909,19.8453544 14.0351857,19.7952493 C13.9850806,19.753495 13.8848703,19.6031795 13.8180634,19.4612149 C13.7429056,19.3192503 13.659397,19.0770753 13.6259936,18.918409 C13.5925902,18.7597427 13.4422747,18.5175677 13.3003101,18.3756031 C13.1499946,18.2336385 12.9746265,17.9747618 12.8994688,17.7910429 C12.8243111,17.607324 12.7408025,17.1563776 12.707399,16.7889398 C12.6739956,16.4215019 12.5570835,15.8536434 12.4568732,15.5363108 C12.348312,15.2189781 12.1562423,14.7262774 12.0309794,14.450699 C11.8305587,14.0164543 11.7971553,13.8410862 11.7888044,13.19807 C11.7888044,12.663615 11.8389096,12.304528 11.9558216,11.9537919 C12.0894354,11.5613015 12.2397509,11.3358283 12.6656447,10.9015836 C12.9662757,10.6009526 13.3754678,10.2752691 13.5842393,10.1667079 C13.7930108,10.0664976 14.1855012,9.94958555 14.4610796,9.90783125 C14.736658,9.87442781 15.0372889,9.84937523 15.1291484,9.86607695 Z M13.3838187,11.2523197 C13.1583454,11.4527403 12.8827671,11.7951256 12.765855,12.0289496 C12.5988378,12.362984 12.5570835,12.5717555 12.5487327,13.0728071 C12.5487327,13.615613 12.590487,13.7909811 12.8577145,14.4089447 C13.0330825,14.8014351 13.2502049,15.4444513 13.3587661,15.8536434 C13.542485,16.5718174 13.542485,16.5801683 13.8013617,16.5801683 C13.9433263,16.5801683 14.07694,16.5551157 14.1103435,16.5133614 C14.135396,16.4799579 14.1019926,16.2628356 14.0351857,16.0373624 C13.9767297,15.8035383 13.8097125,15.1438204 13.6677479,14.5509093 C13.5341341,13.9663491 13.4172221,13.3984907 13.4172221,13.2815786 C13.4172221,13.1646666 13.4673273,13.0477545 13.5174324,13.0143511 C13.5758884,12.9809477 14.2439572,12.9558951 15.0038855,12.9475442 C16.2147601,12.9475442 16.3984791,12.9642459 16.523742,13.0895088 C16.6072506,13.1730174 16.6573557,13.3066312 16.6239523,13.3817889 C16.5988997,13.4652975 16.5404437,13.7158233 16.4903385,13.9496474 C16.4402334,14.1751206 16.2982687,14.8014351 16.164655,15.3275393 C16.0310412,15.8536434 15.9224801,16.354695 15.9224801,16.4298528 C15.9224801,16.5467648 15.9892869,16.5801683 16.2147601,16.5801683 C16.4402334,16.5801683 16.5070402,16.5467648 16.5070402,16.4298528 C16.5070402,16.354695 16.5654963,16.0624149 16.6323031,15.7868366 C16.7074609,15.5112582 16.9245832,14.926698 17.116653,14.4924533 C17.4256348,13.7909811 17.4673891,13.6239639 17.4673891,13.0728071 C17.4673891,12.5801064 17.4256348,12.3713349 17.2753193,12.0707039 C17.1667582,11.8619325 16.9412849,11.5529506 16.7742678,11.3775826 C16.5988997,11.2022145 16.3149705,10.9767413 16.1312515,10.876531 C15.8807258,10.7429172 15.6218491,10.6928121 15.1291484,10.6844612 C14.736658,10.6761104 14.319115,10.7178647 14.1270452,10.7846715 C13.9433263,10.8431276 13.6092919,11.0602499 13.3838187,11.2523197 L13.3838187,11.2523197 Z M14.6280968,15.1605221 C14.7867631,15.8285909 14.9454295,16.3880985 14.970482,16.4131511 C14.9955346,16.4382036 15.0456398,16.3964493 15.0873941,16.3296425 C15.1291484,16.2628356 15.2794638,15.7200297 15.4297793,15.1187678 C15.5717439,14.5175059 15.6803051,13.9830508 15.6636034,13.916244 C15.6385508,13.8410862 15.446481,13.7993319 15.0122363,13.7826302 C14.6113951,13.7742794 14.377571,13.7993319 14.3608693,13.857788 C14.3441675,13.9078931 14.4610796,14.4924533 14.6280968,15.1605221 L14.6280968,15.1605221 Z M13.7345548,17.6824818 C13.8097125,17.8077446 14.0101331,17.9914636 14.1687995,18.0749722 C14.3636529,18.186317 14.6197459,18.244773 14.9370786,18.2503402 C15.2878147,18.2503402 15.5216388,18.2002351 15.7721646,18.0666213 C15.9558835,17.9580601 16.164655,17.7993938 16.2314619,17.7075343 C16.2899179,17.6156749 16.340023,17.490412 16.340023,17.4403068 C16.340023,17.3567982 16.0226904,17.3317456 15.0205872,17.3317456 C14.2940624,17.3317456 13.6677479,17.3567982 13.6426953,17.3985525 C13.6092919,17.431956 13.6510462,17.5572189 13.7345548,17.6824818 L13.7345548,17.6824818 Z M14.6698511,19.2524434 C14.7617105,19.3025486 14.9203769,19.335952 15.0205872,19.335952 C15.1291484,19.3443029 15.2794638,19.277496 15.3546216,19.1939874 C15.4882353,19.0520228 15.4715336,19.0436719 14.9955346,19.0436719 C14.7283071,19.0436719 14.5028339,19.0687245 14.5028339,19.1104788 C14.5028339,19.1438822 14.5779916,19.2023382 14.6698511,19.2524434 L14.6698511,19.2524434 Z" id="Path-0"></path>
        </g>
    </g>
</svg>