<?xml version="1.0" encoding="UTF-8"?>
<svg width="43px" height="39px" viewBox="0 0 43 39" version="1.1" xmlns="http://www.w3.org/2000/svg" xmlns:xlink="http://www.w3.org/1999/xlink">
    <!-- Generator: sketchtool 58 (101010) - https://sketch.com -->
    <title>AC556C9F-F7DE-4283-9DCB-E49E6F68FFDF</title>
    <desc>Created with sketchtool.</desc>
    <g id="Page-1" stroke="none" stroke-width="1" fill="none" fill-rule="evenodd">
        <g id="12-FS-Private-h2p" transform="translate(-271.000000, -473.000000)" fill="#6C72BC" fill-rule="nonzero">
            <path d="M299.21875,473 C306.70681,473 314,478.350909 314,485.717391 C314,488.680146 312.838654,491.550832 310.724609,493.825391 C310.306328,495.566084 310.814171,497.411099 312.074264,498.683169 C312.314407,498.925594 312.386253,499.290226 312.25634,499.607167 C312.126427,499.923777 311.820343,500.130435 311.480469,500.130435 C309.085274,500.130435 306.777016,499.182261 305.061897,497.511447 C303.614807,498.009214 301.785851,498.337084 300.027428,498.415905 C299.546158,505.043189 293.341156,510.304348 285.78125,510.304348 C283.788918,510.304348 281.608932,509.955944 279.938103,509.381012 C278.222984,511.051826 275.914726,512 273.519531,512 C273.179657,512 272.873573,511.793342 272.74366,511.476732 C272.613747,511.159791 272.685593,510.79516 272.925736,510.552734 C274.185829,509.280664 274.693672,507.435649 274.275391,505.694956 C272.161346,503.420397 271,500.549711 271,497.586957 C271,490.497342 277.771568,485.255724 284.972244,484.891092 C285.452202,478.262483 291.65786,473 299.21875,473 Z M285.78125,486.565217 C278.679321,486.565217 272.679688,491.612432 272.679688,497.586957 C272.679688,500.177794 273.729164,502.695771 275.63456,504.676902 C275.731339,504.77725 275.801872,504.90045 275.839928,505.035241 C276.321526,506.745465 276.119438,508.550408 275.32782,510.081462 C276.764412,509.722792 278.082901,508.942527 279.096947,507.823463 C279.332825,507.563485 279.703209,507.477709 280.027336,507.608195 C281.540367,508.215914 283.799088,508.608696 285.78125,508.608696 C292.727676,508.608696 298.378906,503.664479 298.378906,497.586957 C298.378906,491.27297 292.487534,486.565217 285.78125,486.565217 Z M278.558594,500.130435 L292.5,500.130435 C292.963882,500.130435 293.339844,500.509969 293.339844,500.978261 C293.339844,501.41053 293.019498,501.767172 292.605358,501.819482 L292.5,501.826087 L278.558594,501.826087 C278.094711,501.826087 277.71875,501.446552 277.71875,500.978261 C277.71875,500.545992 278.039096,500.18935 278.453236,500.13704 L278.558594,500.130435 L292.5,500.130435 Z M299.21875,474.695652 C292.588905,474.695652 287.138779,479.200059 286.656197,484.894404 C288.702097,485.005728 290.693969,485.506271 292.494439,486.361561 L292.906471,486.565217 L306.441406,486.565217 C306.905289,486.565217 307.28125,486.944752 307.28125,487.413043 C307.28125,487.845313 306.960904,488.201954 306.546764,488.254265 L306.441406,488.26087 L295.486694,488.26087 C298.19519,490.498336 299.779411,493.511761 300.024803,496.717935 C301.790771,496.62984 303.661392,496.265209 304.972664,495.738629 C305.296791,495.608144 305.667175,495.694251 305.903053,495.953898 C306.917099,497.072962 308.235588,497.853558 309.67218,498.211897 C308.880562,496.680842 308.678474,494.8759 309.160072,493.165676 C309.198128,493.031216 309.268661,492.908016 309.36544,492.807337 C311.270836,490.826206 312.320312,488.308229 312.320312,485.717391 C312.320312,479.742867 306.320679,474.695652 299.21875,474.695652 Z M278.558594,495.043478 C279.022148,495.043478 279.398438,495.423344 279.398438,495.891304 C279.398438,496.359265 279.022148,496.73913 278.558594,496.73913 C278.095039,496.73913 277.71875,496.359265 277.71875,495.891304 C277.71875,495.423344 278.095039,495.043478 278.558594,495.043478 Z M292.5,495.043478 C292.963882,495.043478 293.339844,495.423013 293.339844,495.891304 C293.339844,496.323573 293.019498,496.680215 292.605358,496.732525 L292.5,496.73913 L281.917969,496.73913 C281.454086,496.73913 281.078125,496.359596 281.078125,495.891304 C281.078125,495.459035 281.398471,495.102393 281.812611,495.050083 L281.917969,495.043478 L292.5,495.043478 Z M292.5,481.478261 C292.963554,481.478261 293.339844,481.858127 293.339844,482.326087 C293.339844,482.794047 292.963554,483.173913 292.5,483.173913 C292.036446,483.173913 291.660156,482.794047 291.660156,482.326087 C291.660156,481.858127 292.036446,481.478261 292.5,481.478261 Z M306.441406,481.478261 C306.905289,481.478261 307.28125,481.857795 307.28125,482.326087 C307.28125,482.794378 306.905289,483.173913 306.441406,483.173913 L306.441406,483.173913 L295.859375,483.173913 C295.395493,483.173913 295.019531,482.794378 295.019531,482.326087 C295.019531,481.857795 295.395493,481.478261 295.859375,481.478261 L295.859375,481.478261 Z" id="chat-ic"></path>
        </g>
    </g>
</svg>