<?xml version="1.0" encoding="UTF-8"?>
<svg width="80px" height="64px" viewBox="0 0 80 64" version="1.1" xmlns="http://www.w3.org/2000/svg" xmlns:xlink="http://www.w3.org/1999/xlink">
    <title>CIRCUIT_OF_THE_AMERICAS</title>
    <g id="new-relase" stroke="none" stroke-width="1" fill="none" fill-rule="evenodd">
        <path d="M76.9934529,0.677772321 L76.4189022,0.939714506 C74.4599414,1.84530925 72.061618,3.07710018 69.1805809,4.6847367 L68.301745,5.17835268 C66.36648,6.27225826 64.0623225,7.4924326 61.4556124,8.81225758 L59.851358,9.61809908 C56.9182081,11.0802845 53.7976681,12.5786865 50.6561683,14.0472817 L48.5658902,15.0186989 C47.9698629,15.2940436 47.3978076,15.5568733 46.8534194,15.8057236 L44.7632342,16.7535759 L27.748646,23.3317403 C26.1318684,23.9567831 25.6917062,26.0388986 26.9180537,27.2640554 L32.5237282,32.8697301 C32.7416063,33.0878687 32.6296909,33.4605099 32.3279788,33.5221529 L30.0613338,33.9859836 C29.8516088,34.0289053 29.6458624,33.8889071 29.6008915,33.6632249 C29.4026,32.6684987 29.0458811,31.6756817 28.4860564,30.7434055 C27.7129367,29.4548725 26.1548185,29.0976735 24.1868,29.2797152 C22.7736433,29.410379 22.067375,31.0454105 22.9152807,32.1778387 C26.9264742,37.5360963 29.111903,42.622119 27.1761254,45.1109759 C25.3062019,47.5150904 18.8847339,44.4428709 11.8627765,39.1916813 C10.7433244,38.3547988 9.19817407,38.4030054 8.13093624,39.3068022 L0.980809928,45.3638851 C-0.596722438,46.6993209 -0.208799174,49.2300397 1.69612974,50.0324087 L32.4312921,62.9832432 C34.3856115,63.805921 36.2987133,61.7342075 35.3230955,59.8516083 L32.3517836,54.1213915 C31.7983279,53.0550834 31.959771,51.7669025 32.7589128,50.8756478 C33.6792258,49.8488008 34.589151,48.8201881 35.449529,47.8300663 L36.3185592,46.8231796 L37.1343133,45.8651367 C39.5134234,43.0507013 40.637999,41.5103488 40.637999,40.7841584 L40.6384948,40.5641687 C40.6482649,39.0964069 41.0079028,38.2791509 42.531464,37.2244195 C43.5988128,36.4852519 43.9778161,35.5182882 44.3409691,33.298515 L44.5963167,31.6730471 C44.9040626,29.8846619 45.3288967,28.80224 46.1477407,28.0364217 C47.2260004,27.0273638 49.3325989,27.069172 51.8984163,27.8849805 C53.7064725,28.459395 55.6905731,27.7959918 56.8331583,26.2605516 L57.9364196,24.7786658 C58.6258338,23.8520409 59.7121752,23.306043 60.8661869,23.306043 L63.426133,23.306043 C64.8343058,23.306043 66.2085471,22.8744842 67.364323,22.0694885 L71.3330415,19.3059432 C72.5521994,18.4571067 73.520592,17.2948548 74.1369077,15.9416015 L79.8008876,3.49914232 C80.6150126,1.71213148 78.7843948,-0.12751647 76.9934529,0.677772321 Z M39.0458506,40.7274151 L39.0321052,40.7414545 C38.9905969,40.8304362 38.9211765,40.9534295 38.826046,41.1042798 L38.6598124,41.3576352 C38.5062872,41.5840476 38.3155866,41.8482584 38.0900948,42.1472025 L37.9506438,42.3307124 C37.2542854,43.2406574 36.2878915,44.4135836 35.1111549,45.7870774 L34.7537105,46.2029495 C33.7551003,47.3611972 32.6721781,48.5885947 31.5742302,49.8136395 C30.3327504,51.1982181 30.0817009,53.2013836 30.939506,54.8540622 L33.910584,60.5838282 C34.2012169,61.1446474 33.6310742,61.7620595 33.0488324,61.5169627 L2.31382774,48.5661946 C1.50249436,48.2244555 1.33728444,47.1466654 2.00899467,46.5780394 L9.1592346,40.5208602 C9.66114075,40.095818 10.384804,40.0732407 10.9100405,40.4658981 C13.7435477,42.5848634 16.746174,44.5346469 19.5275291,45.8653291 C23.6811881,47.852562 26.7956629,48.1915616 28.4319909,46.0877749 C31.0459445,42.7269774 28.6828065,37.2273823 24.1889036,31.2243089 C24.0810476,31.0802609 24.167868,30.8792691 24.3333139,30.8639716 C25.745871,30.7333101 26.7647125,30.9668797 27.1219189,31.5622237 C27.5293972,32.2407976 27.8082306,32.9662314 27.9807907,33.699106 L28.0405629,33.9742057 C28.2563056,35.0568899 29.298563,35.7660844 30.3803165,35.5446961 L32.6467023,35.0809183 C34.1902666,34.7655522 34.7625944,32.8598893 33.6490827,31.7450472 L28.0427992,26.1387635 C27.6302961,25.7266608 27.7784158,25.0260046 28.3224066,24.8156989 L45.3749818,18.2217077 L46.3012565,17.8051928 L47.9295955,17.0628936 C48.6294834,16.7421086 49.3712084,16.4000224 50.1475693,16.0394869 C53.3026778,14.574281 56.4579422,13.0707333 59.4479807,11.5942739 L60.9742416,10.8356963 L61.60699,10.5181167 C64.277009,9.17390924 66.6488797,7.9271694 68.6593792,6.80253178 L69.9533005,6.07550711 C73.0849109,4.32796734 75.6302258,3.03447519 77.6457063,2.12894428 C78.0983704,1.92540599 78.5587346,2.38804117 78.3530436,2.83953464 L72.6889239,15.2823008 C72.1909526,16.3757036 71.4086072,17.314664 70.4239071,18.0002597 L66.4550788,20.7638816 C65.5660011,21.3831225 64.5090981,21.7150261 63.426133,21.7150261 L60.8661869,21.7150261 C59.2091443,21.7150261 57.6495151,22.4988997 56.6600933,23.8287575 L55.5568736,25.3105875 C54.8152746,26.3071703 53.5345442,26.7353949 52.3803271,26.3687033 C49.3059102,25.3911842 46.7011594,25.3394895 45.0607964,26.8745755 C43.9778051,27.8874357 43.4398865,29.1785976 43.0787706,31.1212379 L42.9748248,31.723161 L42.8485412,32.5463656 C42.5391847,34.592645 42.27823,35.416767 41.6945568,35.8661227 L41.6257566,35.9163565 C39.7055071,37.2457074 39.1019274,38.5126757 39.0508867,40.3572228 L39.0458506,40.7274151 Z" id="CIRCUIT_OF_THE_AMERICAS" fill="#999999" fill-rule="nonzero"></path>
    </g>
</svg>