<?xml version="1.0" encoding="UTF-8"?>
<svg width="80px" height="26px" viewBox="0 0 80 26" version="1.1" xmlns="http://www.w3.org/2000/svg" xmlns:xlink="http://www.w3.org/1999/xlink">
    <title>CIRCUIT_DE_BARCELONA_CATALUNYA</title>
    <g id="new-relase" stroke="none" stroke-width="1" fill="none" fill-rule="evenodd">
        <path d="M24.448596,0.599363443 L9.15049962,0.599363443 C4.09690378,0.599363443 0,4.69600854 0,9.74986306 C0,12.4702374 1.45216957,14.9850102 3.80849615,16.3451177 L6.95764049,18.1637888 C7.95412754,18.7386374 8.71845328,19.6402015 9.12357035,20.7118467 L9.27146162,21.1361911 C10.212762,23.7100409 12.6522845,25.4173824 15.3847038,25.4173824 L74.6295711,25.4173824 C77.5953818,25.4173824 80,23.0130406 80,20.0469535 L80,16.7620015 C80,15.8869838 79.6759505,15.0459244 79.0940146,14.3989428 L78.965391,14.2633328 C78.5899657,13.8879075 78.3789843,13.3791477 78.3789843,12.8493371 L78.3789843,8.56571683 C78.3789843,6.60653156 77.139668,4.86285464 75.2894832,4.2182326 L68.3790475,1.81306982 C66.1266528,1.02893737 63.6688292,2.24681187 62.9286547,4.51406355 C62.2585598,6.56526336 63.2286617,8.78296951 65.1650707,9.69244388 L65.3286605,9.76517349 C67.3431164,10.6109845 68.7960266,12.4156499 69.1921362,14.564099 L69.6443196,17.0181522 C69.7141602,17.3963138 69.3080474,17.6830385 68.9744505,17.4906662 L43.085305,2.54303579 C41.4509763,1.59918679 39.3680595,2.03849289 38.2541959,3.56232011 L31.9433971,12.1938742 C31.1438332,13.2869599 30.7126913,14.6065977 30.7126913,15.9610741 L30.7126913,17.5468337 C30.7126913,18.7948478 29.70107,19.806292 28.4532329,19.806292 L22.6850228,19.806292 C21.1615137,19.806292 19.6902137,19.2528755 18.5448575,18.248896 L11.1065439,11.7295456 C10.8484422,11.5034875 11.0083706,11.0780996 11.3509422,11.0780996 L19.0934958,11.0780996 C22.3705152,11.0780996 25.3456194,9.16456721 26.7049244,6.18270265 L27.2583053,4.96863687 C28.1910333,2.92377097 26.6964174,0.599363443 24.448596,0.599363443 Z M24.448596,2.13223883 C25.5807177,2.13223883 26.3333637,3.30274428 25.8635763,4.33268253 L25.3101232,5.54690661 C24.1999089,7.98234869 21.7699958,9.5452242 19.0934958,9.5452242 L11.3509422,9.5452242 C9.59328642,9.5452242 8.77403722,11.7243156 10.0963863,12.8824934 L17.5344663,19.401639 C18.9593875,20.6506755 20.7897957,21.3391674 22.6850228,21.3391674 L28.4532329,21.3391674 C30.5475937,21.3391674 32.2455666,19.6414915 32.2455666,17.5468337 L32.2455666,15.9610741 C32.2455666,14.9320017 32.5731553,13.9293193 33.1807126,13.0987263 L39.4916616,4.46696675 C40.1435222,3.5751853 41.3623266,3.31812838 42.3187753,3.8704917 L68.208346,18.8183675 C69.6746419,19.6639232 71.4590761,18.4040731 71.1517604,16.7400711 L70.6996193,14.2862473 C70.2246041,11.7098237 68.5208534,9.53339432 66.1466972,8.45018841 L65.922173,8.35186181 C64.6131417,7.80204475 63.9448321,6.33974345 64.3857959,4.98992773 C64.8596496,3.53845149 66.4331727,2.75875609 67.8751251,3.26074697 L74.7853821,5.66584752 C76.0195373,6.09583901 76.8461089,7.25879787 76.8461089,8.56571683 L76.8461089,12.8493371 C76.8461089,13.7234806 77.1707207,14.5645247 77.7528299,15.2116064 L77.8814844,15.3472394 C78.2565574,15.7223124 78.4671246,16.2309267 78.4671246,16.7620015 L78.4671246,20.0469535 C78.4671246,22.1664175 76.7488375,23.884507 74.6295711,23.884507 L15.3847038,23.884507 C13.2961578,23.884507 11.4314207,22.5794388 10.7156513,20.622542 L10.6528244,20.4403912 C10.1593338,18.9268127 9.11429886,17.6382633 7.7239224,16.8361899 L4.57494748,15.0176166 C2.69280753,13.9312168 1.53287539,11.9225217 1.53287539,9.74986306 C1.53287539,5.5426139 4.94346582,2.13223883 9.15049962,2.13223883 L24.448596,2.13223883 Z" id="CIRCUIT_DE_BARCELONA_CATALUNYA" fill="#999999" fill-rule="nonzero"></path>
    </g>
</svg>