<?xml version="1.0" encoding="UTF-8"?>
<svg width="80px" height="24px" viewBox="0 0 80 24" version="1.1" xmlns="http://www.w3.org/2000/svg" xmlns:xlink="http://www.w3.org/1999/xlink">
    <title>CIRCUIT_GILLES_VILLENEUVE</title>
    <g id="new-relase" stroke="none" stroke-width="1" fill="none" fill-rule="evenodd">
        <path d="M32.7351387,2.41133438 C31.9724748,3.509755 30.6163632,4.03051758 29.3145527,3.72481994 L23.6676151,2.40070555 C22.5460937,2.13769391 21.3676905,2.30423577 20.3640647,2.86805191 L15.8929284,5.37872915 C15.0312295,5.86201285 14.0179034,5.99055787 13.0674047,5.74233661 L12.8782062,5.68766229 C11.2139227,5.15962685 9.3956713,5.50054898 8.03577534,6.59559325 L0.852552193,12.381144 C-0.133663272,13.1753708 -0.286625532,14.6195973 0.510878161,15.6030841 C1.21975369,16.47578 2.45685881,16.704127 3.43007654,16.1422277 L3.66686988,16.0052111 C4.42915529,15.5654756 5.34182456,15.482754 6.16442637,15.7801344 C8.67327854,16.6871097 11.0800226,17.4117953 13.008423,17.7441739 L13.2911113,17.7894929 C14.5884461,17.9836347 16.8210021,18.1487904 19.7799971,18.2906018 L21.0700738,18.3489101 L21.58395,18.3703535 C22.798276,18.419928 24.0487881,18.4635394 25.298207,18.5014178 L28.9946426,18.5967433 L30.169821,18.6240283 C30.7194983,18.6367903 31.2021655,18.9932215 31.3757356,19.5143873 C31.7042075,20.4988566 32.5647866,21.2088608 33.5928774,21.3422195 L35.4630669,21.5801222 C46.3197531,22.9383729 56.1686369,23.7635585 60.5665416,23.1866471 L60.7516729,23.1610614 C64.8474667,22.5653197 71.2087225,22.643744 77.7130565,23.0589984 C78.9521321,23.1390395 80,22.1552334 80,20.9127636 C80,19.8077264 79.1678797,18.8833227 78.0688251,18.7741451 C74.4362738,18.4098488 70.4930123,17.6609402 66.8994619,16.3924625 C63.4499504,15.1751532 60.5221984,13.2792186 58.2369952,11.2146408 C57.8038129,10.823491 57.5436152,10.2864879 57.506148,9.71404869 L57.5014502,9.57026455 C57.5014502,8.32161772 56.8592765,7.16508512 55.7992718,6.50682134 C53.332674,4.97528734 50.2886771,3.59397784 46.7528123,2.66055269 C43.5888836,1.82479795 40.4273186,1.10066915 37.4957815,0.503068491 C35.7295164,0.143436192 33.9229441,0.83178825 32.8441143,2.26086875 L32.7351387,2.41133438 Z M37.216084,1.87674896 C40.122813,2.46929245 43.2590037,3.18760949 46.3948915,4.0159572 C49.7864507,4.91128744 52.7049834,6.2356636 55.0597515,7.69776144 C55.6670901,8.07491925 56.0495842,8.71898789 56.0950235,9.4277166 L56.099584,9.57026455 C56.099584,10.5939444 56.534844,11.5664566 57.2973519,12.2549769 C59.7097476,14.4344674 62.7889798,16.4284965 66.4328937,17.7144091 C70.149162,19.0262046 74.1945052,19.7945007 77.9295937,20.1690798 C78.3104644,20.206915 78.5981339,20.5264874 78.5981339,20.9127636 C78.5981339,21.3459186 78.233929,21.6878576 77.8028993,21.6600142 C71.3741865,21.2495875 65.1130819,21.1636829 60.8879332,21.726719 L60.549852,21.773799 C56.1956522,22.4073823 45.3246773,21.4451294 33.7728977,19.95196 C33.3138394,19.8924133 32.9237052,19.5933399 32.7434614,19.1707272 L32.7056568,19.0710609 C32.3452474,17.9888867 31.3433591,17.2490307 30.2023577,17.2225398 L26.8201459,17.1424522 L26.5842563,17.1360529 C25.3440947,17.1020911 24.0905465,17.0624957 22.8613905,17.0170643 L20.616347,16.9259149 L19.8459299,16.8902875 C16.7199862,16.740474 14.410487,16.563335 13.2465595,16.3626821 C11.4192102,16.0477206 9.07809635,15.3427967 6.64102884,14.4617723 C5.42882324,14.0235454 4.08554598,14.1452959 2.96557308,14.7913699 L2.72855352,14.928517 C2.35241927,15.1456824 1.87362221,15.0573052 1.59937158,14.7196757 C1.29095594,14.3393351 1.35016007,13.7803464 1.73186578,13.4729481 L8.91506023,7.68742052 C9.86158138,6.92524268 11.1120543,6.66293592 12.2797981,6.97307434 L12.4542909,7.02389751 C13.8279757,7.45965366 15.3213536,7.30659159 16.578992,6.60124509 L21.0505602,4.09032541 C21.7482606,3.69837185 22.5674388,3.58259869 23.3475617,3.76554786 L28.9942977,5.08961494 C30.7960075,5.51270146 32.6707639,4.82873988 33.7784266,3.36037055 L33.8866048,3.21093088 C34.6301024,2.14038662 35.9376158,1.61643782 37.216084,1.87674896 Z" id="CIRCUIT_GILLES_VILLENEUVE" fill="#999999" fill-rule="nonzero"></path>
    </g>
</svg>