<?xml version="1.0" encoding="UTF-8"?>
<svg width="80px" height="66px" viewBox="0 0 80 66" version="1.1" xmlns="http://www.w3.org/2000/svg" xmlns:xlink="http://www.w3.org/1999/xlink">
    <title>CIRCUIT_DE_MONACO</title>
    <g id="new-relase" stroke="none" stroke-width="1" fill="none" fill-rule="evenodd">
        <path d="M52.9340869,9.51996562 C50.9382292,11.9763141 50.4134832,13.5902285 51.3972284,15.9499751 L51.5006326,16.1884947 C52.5102443,18.4315926 51.8257388,21.8889572 50.0126186,22.8387826 C48.9625602,23.3890536 46.5605342,23.4652588 40.7406638,23.1943927 L37.3211591,23.018921 L35.1795363,22.9059279 C33.2468848,22.8088282 31.8317674,22.7552879 30.4795519,22.7334343 C29.1142589,22.7115376 27.6199521,22.6057997 25.9298652,22.4213929 L24.7189156,22.2802567 C23.750548,22.1607797 22.7310553,22.0199541 21.4562953,21.8329959 L18.2367873,21.361581 C13.2158788,20.6418004 12.0432195,20.594444 10.6053787,20.9815054 C9.61905414,21.247315 8.68875753,22.194078 7.68195047,23.7340958 C6.88301984,24.9561446 6.04827121,26.5476644 5.19174369,28.4252415 C4.48663503,29.9708962 3.80600388,31.6232958 3.17433637,33.2752207 L2.80084566,34.2680374 L2.36254467,35.4837387 C0.925065827,39.1198319 0.423054172,44.50548 0.408010691,51.7382195 L0.425085174,55.8822101 L0.41977487,56.3910201 C0.417403544,56.4930721 0.414220241,56.5821098 0.410159348,56.671292 L0.388083288,57.0616556 C0.361480963,57.4520554 0.320502689,57.8540838 0.257974103,58.3714208 L0.157709946,59.1902074 C-0.110090802,61.4527876 -0.0689190934,62.1909247 0.531903887,63.2370479 C1.72287516,65.3120256 8.02801667,66.5159922 9.92665429,64.7636654 C11.9683729,62.8781572 10.4971314,60.1258924 7.60755912,58.521544 C6.92439215,58.1417773 6.49460846,56.974051 6.32152818,55.0989235 L6.29854907,54.8262445 C6.2690277,54.4404419 6.25136656,54.1075947 6.23826286,53.667834 L6.19382757,51.5091452 C6.18988939,51.396182 6.18531479,51.294935 6.17965755,51.19253 C6.10244673,49.8057265 6.86173436,48.9082728 8.01937648,48.5610701 C9.64619556,48.0731508 10.7554695,44.983492 11.0525781,41.5736526 C11.1834081,40.0663087 10.8687869,39.1081335 10.0690575,37.9311559 L9.68814315,37.3925037 C9.352687,36.9180131 9.20326516,36.6345107 9.13286681,36.3058635 C8.88215239,35.1354298 12.3930812,29.1485636 14.2606188,27.7203965 C15.6277576,26.6744229 25.271731,28.1704159 27.5774814,29.5009859 L28.3959998,29.9691637 C30.515281,31.1662005 31.4177557,31.5273311 32.8459763,31.7084289 C34.1268033,31.8698134 35.0726066,31.0667481 35.7739195,29.7854731 C35.9541875,29.455583 36.3305194,29.2718879 36.7242686,29.3267077 C39.1017889,29.6589615 42.0434114,29.8226463 45.4818135,29.6932525 C53.8969931,29.3762804 62.7955768,26.7282796 70.9426866,21.0875359 C76.2020959,17.4463443 78.967809,12.4919633 79.9410684,7.20312271 C80.3445903,5.01311042 78.6230369,3.00537775 76.3928713,3.03666515 L73.1214993,3.08192127 C71.3714907,3.10576693 69.9897615,4.58583542 70.1048741,6.33104771 L70.1336317,6.86849462 C70.2317742,9.32035939 69.8287014,10.9680285 69.0766316,11.09312 C69.0279323,11.1012365 69.0290364,11.1016325 68.980605,11.050878 C68.8602764,10.9247775 68.7279733,10.6641598 68.6086318,10.2794902 C68.4044587,9.62138524 68.2676471,8.73867894 68.1542149,7.46312825 L68.0808902,6.54467398 L67.9372196,4.52710042 C67.7208524,1.73780127 67.5119075,1.15278605 66.4460978,0.918074592 C64.6690976,0.526997339 54.8753096,7.13112518 52.9340869,9.51996562 Z M65.8282402,2.77241167 L65.8417693,2.81772533 C65.8600624,2.88692207 65.8782728,2.96583164 65.8960595,3.0539838 L65.9223792,3.19308522 C66.0060359,3.66408822 66.0622843,4.21139596 66.1351313,5.20718717 L66.2462494,6.78477479 L66.2614673,6.98700566 C66.3954409,8.73587321 66.5552605,9.89521089 66.8443002,10.8268635 C67.2930978,12.2734589 68.1079018,13.1273469 69.3800255,12.9153263 C71.6430835,12.5389128 72.1978286,9.96220442 71.9481249,6.20894264 C71.9029896,5.52464749 72.4501628,4.93853131 73.1468602,4.92903808 L76.4186045,4.88377682 C77.4908473,4.86873415 78.3155823,5.83056745 78.1243209,6.86858968 C77.2331277,11.7114699 74.7088554,16.2333442 69.8911566,19.568731 C62.0522744,24.9960698 53.4937844,27.542867 45.4123135,27.8472695 C42.0858298,27.9724515 39.2526375,27.8148003 36.9794702,27.4971297 C35.8935505,27.3459422 34.8244803,27.8319219 34.2451223,28.7432897 L34.1531781,28.8990868 C33.7777672,29.5849494 33.389094,29.914965 33.0776302,29.8757206 C31.8084438,29.714788 31.0148244,29.3529213 28.5010642,27.9011489 C25.6185389,26.2377417 15.2588553,24.6307262 13.1382951,26.2531293 C10.7651128,28.0679795 6.89330488,34.6702197 7.32655196,36.6927877 C7.44625157,37.2515926 7.65775747,37.689744 8.03174693,38.2448154 L8.40911935,38.7799067 C9.09156155,39.7373844 9.3072246,40.3191741 9.21223312,41.4136091 C8.98195495,44.0564521 8.06163857,46.6198077 7.48868747,46.7916485 C5.63420894,47.3478479 4.29782662,48.8728846 4.32725038,51.0656189 L4.3513729,51.6921882 L4.38727684,53.5628949 C4.40154923,54.1119758 4.42093844,54.5005823 4.45664266,54.967186 C4.65712832,57.5872508 5.26144067,59.3308833 6.71043534,60.1363667 C8.67391667,61.226531 9.45393038,62.6857097 8.67357254,63.406363 C7.67170583,64.3310249 2.75039044,63.3912998 2.13391973,62.3172496 L2.05784629,62.173529 C1.8252444,61.6911121 1.80118037,61.1498825 1.94891312,59.7898903 L2.12397778,58.3217445 C2.18281313,57.8104583 2.22064366,57.3965397 2.24466122,56.9699001 L2.25555222,56.7550106 C2.26568839,56.5324082 2.2709406,56.3234106 2.27223981,55.9687828 L2.25520707,52.4139111 L2.2552996,51.7402653 L2.26250171,50.5579524 C2.32838585,44.150431 2.83412772,39.3151646 4.09459239,36.1247317 L4.31741756,35.4996355 L4.65025266,34.5947379 C4.72984816,34.3819168 4.81309467,34.1617125 4.8997847,33.9350023 C5.51864409,32.316573 6.18508719,30.6986184 6.87241412,29.1919426 L7.2494594,28.3816742 C7.93689457,26.9345675 8.60228892,25.7022333 9.22813554,24.7449348 C9.99990751,23.564428 10.6769327,22.8754193 11.0858164,22.7652272 C11.4596421,22.6645947 11.8493207,22.6062871 12.3840583,22.5993756 L12.5916369,22.5992107 C13.6138657,22.6100557 15.1491287,22.7880724 17.930952,23.18476 L22.4003804,23.8353694 C23.4141997,23.9783056 24.2808194,24.0912923 25.1456415,24.191927 C26.9308383,24.3996609 28.5146643,24.5276072 29.9695348,24.5696584 L31.3178126,24.5987389 C32.4997115,24.6291672 33.803346,24.6845804 35.5102515,24.7724329 L39.9845984,25.0087642 C46.9042692,25.3521382 49.3466395,25.2733526 50.8699554,24.4750764 C53.5980767,23.0459164 54.5168314,18.6860725 53.2753989,15.6408396 L53.1852781,15.4305678 C52.4091601,13.7047441 52.6989282,12.7387671 54.367742,10.6849192 C55.0324346,9.86695814 57.679789,7.8017003 60.5071966,5.89512838 L61.0111014,5.55893712 C63.0954774,4.18300769 64.9654616,3.12909062 65.7191263,2.81601627 L65.8282402,2.77241167 Z" id="CIRCUIT_DE_MONACO" fill="#999999" fill-rule="nonzero"></path>
    </g>
</svg>