<?xml version="1.0" encoding="UTF-8"?>
<svg width="80px" height="45px" viewBox="0 0 80 45" version="1.1" xmlns="http://www.w3.org/2000/svg" xmlns:xlink="http://www.w3.org/1999/xlink">
    <title>CIRCUIT_ZANDVOORT</title>
    <g id="new-relase" stroke="none" stroke-width="1" fill="none" fill-rule="evenodd">
        <path d="M33.8875615,0.706678429 L9.47827287,5.52969228 C6.54171776,6.11034756 4.28906944,8.47654721 3.85413171,11.4373371 L0.0560457562,37.2657037 C-0.384498534,40.2555469 1.82443633,42.982508 4.84142065,43.1741207 L5.87034594,43.2392926 C8.91099097,43.4312432 11.4674286,40.9654704 11.3612655,37.9257884 L11.336431,37.2910932 C11.2507169,35.356245 11.094289,34.1314638 10.7664452,33.5420425 L10.5043674,33.1033752 C10.3914241,32.918417 10.2685637,32.7191001 10.182787,32.5785546 L10.0878098,32.4209562 C9.35757313,31.1659409 9.08455258,30.0158029 9.35414719,28.3312292 C9.76641825,25.7501239 11.114822,24.4298664 12.1840561,24.8885334 C12.4753986,25.0133484 13.0094487,27.4850577 13.4885537,31.5511841 L13.9177831,35.3272311 C14.1429134,37.199447 14.3239516,38.2949414 14.555817,39.0237349 C15.756298,42.7970559 19.4605567,44.8021763 26.6641828,44.9224855 C30.908449,44.9933483 35.6415093,44.6957465 40.2386715,44.2031934 C42.2287167,43.9900199 43.81778,42.4637904 44.099452,40.4857139 C44.2397344,39.503738 44.3567666,38.5121104 44.4412861,37.5392175 C44.4952724,36.9161251 44.6883754,36.3077997 45.001646,35.7159647 C45.5451329,34.6898008 46.9173215,34.455535 47.7762107,35.2432209 L55.9508141,42.7435183 C57.4831141,44.1493499 59.5088123,44.8909615 61.5860622,44.806291 L78.744222,44.1063004 C80.2008961,44.0459412 80.4836357,42.0077109 79.0965106,41.5560888 L77.6157171,41.0715211 C67.0084601,37.5738055 56.5688777,33.5522226 50.044596,29.8583387 C43.5699946,26.191328 38.6936919,18.8148964 35.4831757,10.829474 C35.146752,9.99191081 35.1314908,9.06504474 35.439907,8.21534254 L36.8940095,4.2163141 C37.5999229,2.27465931 35.9144083,0.307284243 33.8875615,0.706678429 Z M34.2698165,2.64390646 L34.3658077,2.63170704 L34.4589891,2.63279488 C34.8860846,2.66748188 35.196298,3.10696218 35.0382671,3.54163526 L33.5840031,7.5411079 C33.1096858,8.84787579 33.1332113,10.2766602 33.6509995,11.5657495 C37.0154325,19.9340048 42.1027202,27.6295957 49.0716163,31.5765593 L49.5433318,31.8405615 C55.5830317,35.1826543 64.5484324,38.7246834 73.9419131,41.9231724 L75.0036121,42.2816205 L61.5056083,42.8333493 C59.9501816,42.8967499 58.433345,42.3414334 57.2857371,41.2885433 L49.1109888,33.788113 C47.3002989,32.1275321 44.4060609,32.6216486 43.2565807,34.7919958 C42.8252691,35.6068351 42.5522003,36.4670741 42.4740944,37.3685469 C42.3929428,38.3026719 42.2801153,39.2586731 42.1446533,40.2069068 C41.990644,41.2884554 41.1220686,42.1226861 40.0283354,42.2398467 C35.5050059,42.7244892 30.8458181,43.017446 26.697151,42.9481793 C20.2560731,42.8406057 17.3400821,41.2621756 16.437464,38.4250895 L16.3738349,38.2042941 C16.1946142,37.5227298 16.0222889,36.3553816 15.8025895,34.4478955 L15.4054201,30.9404002 C14.781994,25.6635061 14.2993773,23.6466071 12.9620641,23.0736849 C10.4113552,21.9795128 7.9904649,24.34987 7.40432943,28.0194886 C7.07500294,30.0772993 7.3981788,31.6200472 8.23662269,33.1576927 L8.41543345,33.4720323 L8.97369816,34.387158 C9.00345614,34.436823 9.02662912,34.4762509 9.04031047,34.5009113 C9.17461897,34.7423821 9.32367729,36.1336744 9.38787283,37.9942927 C9.45319393,39.8645809 7.87448696,41.3872985 5.99495773,41.2686471 L4.96640837,41.2034991 C3.10199931,41.0850879 1.73739641,39.4004665 2.00957644,37.5532613 L5.80772536,11.7244667 C6.12118374,9.59063402 7.74468723,7.88529309 9.86116326,7.4667949 L34.2698165,2.64390646 Z" id="CIRCUIT_ZANDVOORT" fill="#999999" fill-rule="nonzero"></path>
    </g>
</svg>