<?xml version="1.0" encoding="UTF-8"?>
<svg width="142px" height="122px" viewBox="0 0 142 122" version="1.1" xmlns="http://www.w3.org/2000/svg" xmlns:xlink="http://www.w3.org/1999/xlink">
    <!-- Generator: sketchtool 58 (101010) - https://sketch.com -->
    <title>C4157125-18B9-4890-A964-34822E61E155</title>
    <desc>Created with sketchtool.</desc>
    <g id="Page-1" stroke="none" stroke-width="1" fill="none" fill-rule="evenodd">
        <g id="4-FS-Soccer-Multi-Games-info" transform="translate(-117.000000, -237.000000)">
            <g id="collection-img1" transform="translate(117.000000, 237.000000)">
                <g id="Group-6" transform="translate(14.000000, 0.000000)">
                    <path d="M4.8,0 L109.2,0 C111.850967,-8.43874763e-15 114,2.1490332 114,4.8 L114,30.2 C114,32.8509668 111.850967,35 109.2,35 L4.8,35 C2.1490332,35 3.87736348e-15,32.8509668 0,30.2 L0,4.8 C-1.21282822e-15,2.1490332 2.1490332,-1.28938214e-15 4.8,0 Z" id="Rectangle" fill="#F2F2F2"></path>
                    <rect id="Rectangle" fill="#DDDDDD" x="40.1408451" y="8.75" width="33.6224347" height="5.92741935" rx="2.9568"></rect>
                    <rect id="Rectangle-Copy" fill="#DDDDDD" x="48.971831" y="19.0909091" width="15.1300956" height="5.92741935" rx="2.9568"></rect>
                </g>
                <path d="M18.8,87 L123.2,87 C125.850967,87 128,89.1490332 128,91.8 L128,117.2 C128,119.850967 125.850967,122 123.2,122 L18.8,122 C16.1490332,122 14,119.850967 14,117.2 L14,91.8 C14,89.1490332 16.1490332,87 18.8,87 Z" id="Rectangle" fill="#F2F2F2"></path>
                <rect id="Rectangle" fill="#EAEAEA" x="50" y="50" width="41.8805765" height="7.4516129" rx="3.696"></rect>
                <rect id="Rectangle-Copy" fill="#EAEAEA" x="61" y="63" width="18.8462594" height="7.4516129" rx="3.696"></rect>
                <path d="M6,39.75 C3.10050506,39.75 0.75,42.1005051 0.75,45 L0.75,77 C0.75,79.8994949 3.10050506,82.25 6,82.25 L136,82.25 C138.899495,82.25 141.25,79.8994949 141.25,77 L141.25,45 C141.25,42.1005051 138.899495,39.75 136,39.75 L6,39.75 Z" id="Rectangle" stroke="#555555" stroke-width="1.5"></path>
                <g id="Group-7" transform="translate(10.000000, 45.000000)" fill="#555555" fill-rule="nonzero">
                    <path d="M29.0975135,8.74019041 C29.0574441,8.71672121 29.0163436,8.69612579 28.9744872,8.67819888 L27.1022877,2.80145624 C26.894655,2.14383965 26.3784255,1.62115387 25.7215749,1.40315715 L21.7416388,0.0825185313 C21.5766873,0.0277798704 21.4048628,0 21.2309077,0 L19.729093,0 C19.1850967,0 18.730243,0.404245011 18.6711353,0.940273348 C18.4551176,2.90073849 16.7957055,4.37909287 14.8113389,4.37909287 C12.8269724,4.37909287 11.1675603,2.90073849 10.9514738,0.940273348 C10.8923662,0.404245011 10.4375124,0 9.89351612,0 L8.39170143,0 C8.21781506,0 8.04599058,0.0277798704 7.88090162,0.0825185313 L3.901103,1.40322557 C3.24418365,1.62122229 2.72802291,2.14390808 2.52066513,2.80036147 L0.64812194,8.6782673 C0.606265497,8.69612579 0.565165081,8.71672121 0.525095612,8.74025883 C0.196292286,8.93280207 -2.13162821e-14,9.27457659 -2.13162821e-14,9.65432605 L-2.13162821e-14,10.5915203 C-2.13162821e-14,10.9764016 0.209969515,11.3316555 0.547982633,11.518588 L4.94861376,13.9524057 L4.94861376,28.429892 C4.94861376,28.8285947 5.17095464,29.1762537 5.4984521,29.3573702 L5.4984521,30.6194384 C5.4984521,31.2042526 5.97633035,31.68 6.56376388,31.68 L23.058914,31.68 C23.6463475,31.68 24.1242258,31.2042526 24.1242258,30.6194384 L24.1242258,29.3573702 C24.4517232,29.1762537 24.6740641,28.8285947 24.6740641,28.429892 L24.6740641,13.9524057 L29.0746265,11.5185196 C29.4126396,11.331587 29.6226091,10.9763331 29.6226091,10.5914519 L29.6226091,9.65425762 C29.6226091,9.27450816 29.4263856,8.93280207 29.0975135,8.74019041 Z M27.9282136,8.78897624 L24.6740641,10.5887834 L24.6740641,8.34675629 C24.6740641,7.9343689 24.7500105,7.53039758 24.8999102,7.14606376 L26.2784236,3.61028838 L27.9282136,8.78897624 Z M9.92671261,1.05221391 C10.2002572,3.53392795 12.3002273,5.40544276 14.8113389,5.40544276 C17.3224506,5.40544276 19.4224207,3.53392795 19.6959653,1.05221391 C19.6976148,1.03798186 19.7124604,1.02634989 19.7291618,1.02634989 L20.8714509,1.02634989 C20.7494555,2.47747179 20.1132926,3.82459024 19.0565033,4.8499822 C17.9142141,5.95830324 16.4066949,6.56863931 14.8113389,6.56863931 C13.2086976,6.56863931 11.6960236,5.95337676 10.552085,4.83629754 C9.50299344,3.81172665 8.8730849,2.47062946 8.75170808,1.02634989 L9.89351612,1.02634989 C9.91021746,1.02634989 9.92506309,1.03798186 9.92671261,1.05221391 Z M7.73244527,1.21369296 C7.89464758,2.8646794 8.62758208,4.39455654 9.83021598,5.56904294 C11.1679727,6.8754495 12.9370088,7.5949892 14.8113389,7.5949892 C16.6770779,7.5949892 18.4402032,6.88112864 19.7760355,5.58498557 C20.9873981,4.40954125 21.7272055,2.87268492 21.8903701,1.21369296 L25.3955895,2.37695793 C25.4726356,2.40254825 25.545283,2.43717045 25.613944,2.47781391 L23.9387928,6.77459352 C23.742638,7.27777866 23.6431172,7.8067594 23.6431172,8.34668786 L23.6431172,11.4609071 L23.6431172,13.6504536 L23.6431172,25.179784 L5.97956065,25.179784 L5.97956065,13.6504536 L5.97956065,11.4609071 L5.97956065,8.34668786 C5.97956065,7.8067594 5.88010864,7.27777866 5.68388508,6.77459352 L4.00866513,2.47774549 C4.07732619,2.43717045 4.14997358,2.40247983 4.22701968,2.37695793 L7.73244527,1.21369296 Z M23.6431172,28.429892 C23.6431172,28.4487768 23.627653,28.4641037 23.6087523,28.4641037 L6.01392554,28.4641037 C5.99502485,28.4641037 5.97956065,28.4487768 5.97956065,28.429892 L5.97956065,26.2061339 L23.6431172,26.2061339 L23.6431172,28.429892 Z M3.34425423,3.61008311 L4.72276767,7.14599533 C4.87266734,7.53032916 4.94861376,7.93430048 4.94861376,8.34668786 L4.94861376,10.588715 L1.6944643,8.78897624 L3.34425423,3.61008311 Z M1.0487479,10.6213529 C1.03781986,10.6153317 1.03101561,10.6038365 1.03101561,10.5914519 L1.03101561,9.65425762 C1.03101561,9.64645737 1.03101561,9.63468855 1.04792314,9.62476717 C1.05493358,9.62066177 1.06084434,9.61922488 1.06579289,9.61922488 C1.07287206,9.61922488 1.07802679,9.62209866 1.08201312,9.62435663 L4.94861376,11.7628593 L4.94861376,12.7782614 L1.0487479,10.6213529 Z M23.058914,30.6536501 L6.56376388,30.6536501 C6.54486319,30.6536501 6.52939898,30.6383233 6.52939898,30.6194384 L6.52939898,29.4904536 L23.0932789,29.4904536 L23.0932789,30.6194384 C23.0932789,30.6383233 23.0778147,30.6536501 23.058914,30.6536501 Z M28.5916623,10.5914519 C28.5916623,10.6038365 28.584858,10.6153317 28.57393,10.6213529 L24.6740641,12.7782614 L24.6740641,11.7628593 L28.5406648,9.62435663 C28.5475377,9.62052492 28.5578472,9.61491421 28.5747547,9.62476717 C28.5916623,9.63468855 28.5916623,9.64645737 28.5916623,9.65425762 L28.5916623,10.5914519 Z" id="Shape"></path>
                    <path d="M12.6644639,18.6928125 L14.0379014,18.6928125 L14.0379014,20.16 L9.72071394,20.16 L9.72071394,18.6928125 L11.0941514,18.6928125 L11.0941514,13.6959375 L9.72071394,13.6959375 L9.72071394,12.22875 L11.5019639,12.22875 C11.8207155,12.22875 12.0925878,12.3334365 12.3175889,12.5428125 C12.5488401,12.7553136 12.6644639,13.011561 12.6644639,13.3115625 L12.6644639,18.6928125 Z M17.3379014,13.6959375 L17.3379014,18.6928125 L18.5050889,18.6928125 L18.5050889,13.6959375 L17.3379014,13.6959375 Z M18.9129014,12.22875 C19.231653,12.22875 19.5050878,12.3334365 19.7332139,12.5428125 C19.9644651,12.7553136 20.0800889,13.011561 20.0800889,13.3115625 L20.0800889,19.0771875 C20.0800889,19.377189 19.9644651,19.6334364 19.7332139,19.8459375 C19.5050878,20.0553135 19.231653,20.16 18.9129014,20.16 L16.9254014,20.16 C16.6097749,20.16 16.3379026,20.0553135 16.1097764,19.8459375 C15.8785253,19.6334364 15.7629014,19.377189 15.7629014,19.0771875 L15.7629014,13.3115625 C15.7629014,13.011561 15.8785253,12.7553136 16.1097764,12.5428125 C16.3379026,12.3334365 16.6097749,12.22875 16.9254014,12.22875 L18.9129014,12.22875 Z" id="10"></path>
                </g>
                <g id="Group-7-Copy-2" opacity="0.58" transform="translate(22.000000, 7.000000)" fill="#555555" fill-rule="nonzero">
                    <path d="M20.3682595,6.11813329 C20.3402108,6.10170485 20.3114406,6.08728805 20.282141,6.07473921 L18.9716014,1.96101937 C18.8262585,1.50068776 18.4648978,1.13480771 18.0051024,0.982210004 L15.2191472,0.0577629719 C15.1036811,0.0194459093 14.983404,0 14.8616354,0 L13.8103651,0 C13.4295677,0 13.1111701,0.282971508 13.0697947,0.658191343 C12.9185823,2.03051694 11.7569938,3.06536501 10.3679373,3.06536501 C8.97888067,3.06536501 7.81729219,2.03051694 7.66603167,0.658191343 C7.62465633,0.282971508 7.3062587,0 6.92546128,0 L5.874191,0 C5.75247054,0 5.6321934,0.0194459093 5.51663113,0.0577629719 L2.7307721,0.982257901 C2.27092855,1.1348556 1.90961604,1.50073565 1.76446559,1.96025303 L0.453685358,6.07478711 C0.424385848,6.08728805 0.395615557,6.10170485 0.367566928,6.11818118 C0.1374046,6.25296145 -2.13162821e-14,6.49220361 -2.13162821e-14,6.75802823 L-2.13162821e-14,7.41406424 C-2.13162821e-14,7.68348109 0.146978661,7.93215883 0.383587843,8.06301159 L3.46402964,9.76668399 L3.46402964,19.9009244 C3.46402964,20.1800163 3.61966825,20.4233776 3.84891647,20.5501591 L3.84891647,21.4336069 C3.84891647,21.8429768 4.18343124,22.176 4.59463472,22.176 L16.1412398,22.176 C16.5524433,22.176 16.886958,21.8429768 16.886958,21.4336069 L16.886958,20.5501591 C17.1162063,20.4233776 17.2718449,20.1800163 17.2718449,19.9009244 L17.2718449,9.76668399 L20.3522386,8.0629637 C20.5888477,7.93211093 20.7358264,7.68343319 20.7358264,7.41401635 L20.7358264,6.75798034 C20.7358264,6.49215571 20.5984699,6.25296145 20.3682595,6.11813329 Z M19.5497495,6.15228337 L17.2718449,7.41214839 L17.2718449,5.8427294 C17.2718449,5.55405823 17.3250074,5.27127831 17.4299371,5.00224463 L18.3948966,2.52720187 L19.5497495,6.15228337 Z M6.94869883,0.736549737 C7.14018003,2.47374956 8.61015908,3.78380994 10.3679373,3.78380994 C12.1257154,3.78380994 13.5956945,2.47374956 13.7871757,0.736549737 C13.7883303,0.7265873 13.7987223,0.718444924 13.8104132,0.718444924 L14.6100156,0.718444924 C14.5246189,1.73423025 14.0793048,2.67721317 13.3395523,3.39498754 C12.5399499,4.17081227 11.4846864,4.59804752 10.3679373,4.59804752 C9.24608835,4.59804752 8.18721655,4.16736373 7.38645949,3.38540828 C6.65209541,2.66820866 6.21115943,1.72944062 6.12619566,0.718444924 L6.92546128,0.718444924 C6.93715222,0.718444924 6.94754417,0.7265873 6.94869883,0.736549737 Z M5.41271169,0.849585071 C5.5262533,2.00527558 6.03930745,3.07618958 6.88115119,3.89833006 C7.81758086,4.81281465 9.05590614,5.31649244 10.3679373,5.31649244 C11.6739545,5.31649244 12.9081423,4.81679005 13.8432248,3.9094899 C14.6911786,3.08667888 15.2090439,2.01087945 15.323259,0.849585071 L17.7769126,1.66387055 C17.8308449,1.68178378 17.8816981,1.70601932 17.9297608,1.73446974 L16.757155,4.74221546 C16.6198466,5.09444506 16.5501821,5.46473158 16.5501821,5.8426815 L16.5501821,8.02263499 L16.5501821,9.55531749 L16.5501821,17.6258488 L4.18569245,17.6258488 L4.18569245,9.55531749 L4.18569245,8.02263499 L4.18569245,5.8426815 C4.18569245,5.46473158 4.11607605,5.09444506 3.97871956,4.74221546 L2.80606559,1.73442184 C2.85412833,1.70601932 2.90498151,1.68173588 2.95891377,1.66387055 L5.41271169,0.849585071 Z M16.5501821,19.9009244 C16.5501821,19.9141438 16.5393571,19.9248726 16.5261266,19.9248726 L4.20974788,19.9248726 C4.19651739,19.9248726 4.18569245,19.9141438 4.18569245,19.9009244 L4.18569245,18.3442937 L16.5501821,18.3442937 L16.5501821,19.9009244 Z M2.34097796,2.52705818 L3.30593737,5.00219673 C3.41086714,5.27123041 3.46402964,5.55401033 3.46402964,5.8426815 L3.46402964,7.41210049 L1.18612501,6.15228337 L2.34097796,2.52705818 Z M0.734123529,7.43494704 C0.726473903,7.43073216 0.721710928,7.42268558 0.721710928,7.41401635 L0.721710928,6.75798034 C0.721710928,6.75252016 0.721710928,6.74428199 0.733546199,6.73733702 C0.738453506,6.73446324 0.742591039,6.73345742 0.746055021,6.73345742 C0.751010439,6.73345742 0.754618753,6.73546906 0.757409182,6.73704964 L3.46402964,8.23400149 L3.46402964,8.944783 L0.734123529,7.43494704 Z M16.1412398,21.4575551 L4.59463472,21.4575551 C4.58140423,21.4575551 4.57057929,21.4468263 4.57057929,21.4336069 L4.57057929,20.6433175 L16.1652952,20.6433175 L16.1652952,21.4336069 C16.1652952,21.4468263 16.1544703,21.4575551 16.1412398,21.4575551 Z M20.0141636,7.41401635 C20.0141636,7.42268558 20.0094006,7.43073216 20.001751,7.43494704 L17.2718449,8.944783 L17.2718449,8.23400149 L19.9784653,6.73704964 C19.9832764,6.73436745 19.990493,6.73043995 20.0023283,6.73733702 C20.0141636,6.74428199 20.0141636,6.75252016 20.0141636,6.75798034 L20.0141636,7.41401635 Z" id="Shape"></path>
                </g>
                <g id="Group-7-Copy-4" opacity="0.58" transform="translate(22.000000, 94.000000)" fill="#555555" fill-rule="nonzero">
                    <path d="M20.3682595,6.11813329 C20.3402108,6.10170485 20.3114406,6.08728805 20.282141,6.07473921 L18.9716014,1.96101937 C18.8262585,1.50068776 18.4648978,1.13480771 18.0051024,0.982210004 L15.2191472,0.0577629719 C15.1036811,0.0194459093 14.983404,0 14.8616354,0 L13.8103651,0 C13.4295677,0 13.1111701,0.282971508 13.0697947,0.658191343 C12.9185823,2.03051694 11.7569938,3.06536501 10.3679373,3.06536501 C8.97888067,3.06536501 7.81729219,2.03051694 7.66603167,0.658191343 C7.62465633,0.282971508 7.3062587,0 6.92546128,0 L5.874191,0 C5.75247054,0 5.6321934,0.0194459093 5.51663113,0.0577629719 L2.7307721,0.982257901 C2.27092855,1.1348556 1.90961604,1.50073565 1.76446559,1.96025303 L0.453685358,6.07478711 C0.424385848,6.08728805 0.395615557,6.10170485 0.367566928,6.11818118 C0.1374046,6.25296145 -2.13162821e-14,6.49220361 -2.13162821e-14,6.75802823 L-2.13162821e-14,7.41406424 C-2.13162821e-14,7.68348109 0.146978661,7.93215883 0.383587843,8.06301159 L3.46402964,9.76668399 L3.46402964,19.9009244 C3.46402964,20.1800163 3.61966825,20.4233776 3.84891647,20.5501591 L3.84891647,21.4336069 C3.84891647,21.8429768 4.18343124,22.176 4.59463472,22.176 L16.1412398,22.176 C16.5524433,22.176 16.886958,21.8429768 16.886958,21.4336069 L16.886958,20.5501591 C17.1162063,20.4233776 17.2718449,20.1800163 17.2718449,19.9009244 L17.2718449,9.76668399 L20.3522386,8.0629637 C20.5888477,7.93211093 20.7358264,7.68343319 20.7358264,7.41401635 L20.7358264,6.75798034 C20.7358264,6.49215571 20.5984699,6.25296145 20.3682595,6.11813329 Z M19.5497495,6.15228337 L17.2718449,7.41214839 L17.2718449,5.8427294 C17.2718449,5.55405823 17.3250074,5.27127831 17.4299371,5.00224463 L18.3948966,2.52720187 L19.5497495,6.15228337 Z M6.94869883,0.736549737 C7.14018003,2.47374956 8.61015908,3.78380994 10.3679373,3.78380994 C12.1257154,3.78380994 13.5956945,2.47374956 13.7871757,0.736549737 C13.7883303,0.7265873 13.7987223,0.718444924 13.8104132,0.718444924 L14.6100156,0.718444924 C14.5246189,1.73423025 14.0793048,2.67721317 13.3395523,3.39498754 C12.5399499,4.17081227 11.4846864,4.59804752 10.3679373,4.59804752 C9.24608835,4.59804752 8.18721655,4.16736373 7.38645949,3.38540828 C6.65209541,2.66820866 6.21115943,1.72944062 6.12619566,0.718444924 L6.92546128,0.718444924 C6.93715222,0.718444924 6.94754417,0.7265873 6.94869883,0.736549737 Z M5.41271169,0.849585071 C5.5262533,2.00527558 6.03930745,3.07618958 6.88115119,3.89833006 C7.81758086,4.81281465 9.05590614,5.31649244 10.3679373,5.31649244 C11.6739545,5.31649244 12.9081423,4.81679005 13.8432248,3.9094899 C14.6911786,3.08667888 15.2090439,2.01087945 15.323259,0.849585071 L17.7769126,1.66387055 C17.8308449,1.68178378 17.8816981,1.70601932 17.9297608,1.73446974 L16.757155,4.74221546 C16.6198466,5.09444506 16.5501821,5.46473158 16.5501821,5.8426815 L16.5501821,8.02263499 L16.5501821,9.55531749 L16.5501821,17.6258488 L4.18569245,17.6258488 L4.18569245,9.55531749 L4.18569245,8.02263499 L4.18569245,5.8426815 C4.18569245,5.46473158 4.11607605,5.09444506 3.97871956,4.74221546 L2.80606559,1.73442184 C2.85412833,1.70601932 2.90498151,1.68173588 2.95891377,1.66387055 L5.41271169,0.849585071 Z M16.5501821,19.9009244 C16.5501821,19.9141438 16.5393571,19.9248726 16.5261266,19.9248726 L4.20974788,19.9248726 C4.19651739,19.9248726 4.18569245,19.9141438 4.18569245,19.9009244 L4.18569245,18.3442937 L16.5501821,18.3442937 L16.5501821,19.9009244 Z M2.34097796,2.52705818 L3.30593737,5.00219673 C3.41086714,5.27123041 3.46402964,5.55401033 3.46402964,5.8426815 L3.46402964,7.41210049 L1.18612501,6.15228337 L2.34097796,2.52705818 Z M0.734123529,7.43494704 C0.726473903,7.43073216 0.721710928,7.42268558 0.721710928,7.41401635 L0.721710928,6.75798034 C0.721710928,6.75252016 0.721710928,6.74428199 0.733546199,6.73733702 C0.738453506,6.73446324 0.742591039,6.73345742 0.746055021,6.73345742 C0.751010439,6.73345742 0.754618753,6.73546906 0.757409182,6.73704964 L3.46402964,8.23400149 L3.46402964,8.944783 L0.734123529,7.43494704 Z M16.1412398,21.4575551 L4.59463472,21.4575551 C4.58140423,21.4575551 4.57057929,21.4468263 4.57057929,21.4336069 L4.57057929,20.6433175 L16.1652952,20.6433175 L16.1652952,21.4336069 C16.1652952,21.4468263 16.1544703,21.4575551 16.1412398,21.4575551 Z M20.0141636,7.41401635 C20.0141636,7.42268558 20.0094006,7.43073216 20.001751,7.43494704 L17.2718449,8.944783 L17.2718449,8.23400149 L19.9784653,6.73704964 C19.9832764,6.73436745 19.990493,6.73043995 20.0023283,6.73733702 C20.0141636,6.74428199 20.0141636,6.75252016 20.0141636,6.75798034 L20.0141636,7.41401635 Z" id="Shape"></path>
                </g>
                <g id="Group-7-Copy-3" opacity="0.58" transform="translate(99.000000, 7.000000)" fill="#555555" fill-rule="nonzero">
                    <path d="M20.3682595,6.11813329 C20.3402108,6.10170485 20.3114406,6.08728805 20.282141,6.07473921 L18.9716014,1.96101937 C18.8262585,1.50068776 18.4648978,1.13480771 18.0051024,0.982210004 L15.2191472,0.0577629719 C15.1036811,0.0194459093 14.983404,0 14.8616354,0 L13.8103651,0 C13.4295677,0 13.1111701,0.282971508 13.0697947,0.658191343 C12.9185823,2.03051694 11.7569938,3.06536501 10.3679373,3.06536501 C8.97888067,3.06536501 7.81729219,2.03051694 7.66603167,0.658191343 C7.62465633,0.282971508 7.3062587,0 6.92546128,0 L5.874191,0 C5.75247054,0 5.6321934,0.0194459093 5.51663113,0.0577629719 L2.7307721,0.982257901 C2.27092855,1.1348556 1.90961604,1.50073565 1.76446559,1.96025303 L0.453685358,6.07478711 C0.424385848,6.08728805 0.395615557,6.10170485 0.367566928,6.11818118 C0.1374046,6.25296145 -2.13162821e-14,6.49220361 -2.13162821e-14,6.75802823 L-2.13162821e-14,7.41406424 C-2.13162821e-14,7.68348109 0.146978661,7.93215883 0.383587843,8.06301159 L3.46402964,9.76668399 L3.46402964,19.9009244 C3.46402964,20.1800163 3.61966825,20.4233776 3.84891647,20.5501591 L3.84891647,21.4336069 C3.84891647,21.8429768 4.18343124,22.176 4.59463472,22.176 L16.1412398,22.176 C16.5524433,22.176 16.886958,21.8429768 16.886958,21.4336069 L16.886958,20.5501591 C17.1162063,20.4233776 17.2718449,20.1800163 17.2718449,19.9009244 L17.2718449,9.76668399 L20.3522386,8.0629637 C20.5888477,7.93211093 20.7358264,7.68343319 20.7358264,7.41401635 L20.7358264,6.75798034 C20.7358264,6.49215571 20.5984699,6.25296145 20.3682595,6.11813329 Z M19.5497495,6.15228337 L17.2718449,7.41214839 L17.2718449,5.8427294 C17.2718449,5.55405823 17.3250074,5.27127831 17.4299371,5.00224463 L18.3948966,2.52720187 L19.5497495,6.15228337 Z M6.94869883,0.736549737 C7.14018003,2.47374956 8.61015908,3.78380994 10.3679373,3.78380994 C12.1257154,3.78380994 13.5956945,2.47374956 13.7871757,0.736549737 C13.7883303,0.7265873 13.7987223,0.718444924 13.8104132,0.718444924 L14.6100156,0.718444924 C14.5246189,1.73423025 14.0793048,2.67721317 13.3395523,3.39498754 C12.5399499,4.17081227 11.4846864,4.59804752 10.3679373,4.59804752 C9.24608835,4.59804752 8.18721655,4.16736373 7.38645949,3.38540828 C6.65209541,2.66820866 6.21115943,1.72944062 6.12619566,0.718444924 L6.92546128,0.718444924 C6.93715222,0.718444924 6.94754417,0.7265873 6.94869883,0.736549737 Z M5.41271169,0.849585071 C5.5262533,2.00527558 6.03930745,3.07618958 6.88115119,3.89833006 C7.81758086,4.81281465 9.05590614,5.31649244 10.3679373,5.31649244 C11.6739545,5.31649244 12.9081423,4.81679005 13.8432248,3.9094899 C14.6911786,3.08667888 15.2090439,2.01087945 15.323259,0.849585071 L17.7769126,1.66387055 C17.8308449,1.68178378 17.8816981,1.70601932 17.9297608,1.73446974 L16.757155,4.74221546 C16.6198466,5.09444506 16.5501821,5.46473158 16.5501821,5.8426815 L16.5501821,8.02263499 L16.5501821,9.55531749 L16.5501821,17.6258488 L4.18569245,17.6258488 L4.18569245,9.55531749 L4.18569245,8.02263499 L4.18569245,5.8426815 C4.18569245,5.46473158 4.11607605,5.09444506 3.97871956,4.74221546 L2.80606559,1.73442184 C2.85412833,1.70601932 2.90498151,1.68173588 2.95891377,1.66387055 L5.41271169,0.849585071 Z M16.5501821,19.9009244 C16.5501821,19.9141438 16.5393571,19.9248726 16.5261266,19.9248726 L4.20974788,19.9248726 C4.19651739,19.9248726 4.18569245,19.9141438 4.18569245,19.9009244 L4.18569245,18.3442937 L16.5501821,18.3442937 L16.5501821,19.9009244 Z M2.34097796,2.52705818 L3.30593737,5.00219673 C3.41086714,5.27123041 3.46402964,5.55401033 3.46402964,5.8426815 L3.46402964,7.41210049 L1.18612501,6.15228337 L2.34097796,2.52705818 Z M0.734123529,7.43494704 C0.726473903,7.43073216 0.721710928,7.42268558 0.721710928,7.41401635 L0.721710928,6.75798034 C0.721710928,6.75252016 0.721710928,6.74428199 0.733546199,6.73733702 C0.738453506,6.73446324 0.742591039,6.73345742 0.746055021,6.73345742 C0.751010439,6.73345742 0.754618753,6.73546906 0.757409182,6.73704964 L3.46402964,8.23400149 L3.46402964,8.944783 L0.734123529,7.43494704 Z M16.1412398,21.4575551 L4.59463472,21.4575551 C4.58140423,21.4575551 4.57057929,21.4468263 4.57057929,21.4336069 L4.57057929,20.6433175 L16.1652952,20.6433175 L16.1652952,21.4336069 C16.1652952,21.4468263 16.1544703,21.4575551 16.1412398,21.4575551 Z M20.0141636,7.41401635 C20.0141636,7.42268558 20.0094006,7.43073216 20.001751,7.43494704 L17.2718449,8.944783 L17.2718449,8.23400149 L19.9784653,6.73704964 C19.9832764,6.73436745 19.990493,6.73043995 20.0023283,6.73733702 C20.0141636,6.74428199 20.0141636,6.75252016 20.0141636,6.75798034 L20.0141636,7.41401635 Z" id="Shape"></path>
                </g>
                <g id="Group-7-Copy-5" opacity="0.58" transform="translate(99.000000, 94.000000)" fill="#555555" fill-rule="nonzero">
                    <path d="M20.3682595,6.11813329 C20.3402108,6.10170485 20.3114406,6.08728805 20.282141,6.07473921 L18.9716014,1.96101937 C18.8262585,1.50068776 18.4648978,1.13480771 18.0051024,0.982210004 L15.2191472,0.0577629719 C15.1036811,0.0194459093 14.983404,0 14.8616354,0 L13.8103651,0 C13.4295677,0 13.1111701,0.282971508 13.0697947,0.658191343 C12.9185823,2.03051694 11.7569938,3.06536501 10.3679373,3.06536501 C8.97888067,3.06536501 7.81729219,2.03051694 7.66603167,0.658191343 C7.62465633,0.282971508 7.3062587,0 6.92546128,0 L5.874191,0 C5.75247054,0 5.6321934,0.0194459093 5.51663113,0.0577629719 L2.7307721,0.982257901 C2.27092855,1.1348556 1.90961604,1.50073565 1.76446559,1.96025303 L0.453685358,6.07478711 C0.424385848,6.08728805 0.395615557,6.10170485 0.367566928,6.11818118 C0.1374046,6.25296145 -2.13162821e-14,6.49220361 -2.13162821e-14,6.75802823 L-2.13162821e-14,7.41406424 C-2.13162821e-14,7.68348109 0.146978661,7.93215883 0.383587843,8.06301159 L3.46402964,9.76668399 L3.46402964,19.9009244 C3.46402964,20.1800163 3.61966825,20.4233776 3.84891647,20.5501591 L3.84891647,21.4336069 C3.84891647,21.8429768 4.18343124,22.176 4.59463472,22.176 L16.1412398,22.176 C16.5524433,22.176 16.886958,21.8429768 16.886958,21.4336069 L16.886958,20.5501591 C17.1162063,20.4233776 17.2718449,20.1800163 17.2718449,19.9009244 L17.2718449,9.76668399 L20.3522386,8.0629637 C20.5888477,7.93211093 20.7358264,7.68343319 20.7358264,7.41401635 L20.7358264,6.75798034 C20.7358264,6.49215571 20.5984699,6.25296145 20.3682595,6.11813329 Z M19.5497495,6.15228337 L17.2718449,7.41214839 L17.2718449,5.8427294 C17.2718449,5.55405823 17.3250074,5.27127831 17.4299371,5.00224463 L18.3948966,2.52720187 L19.5497495,6.15228337 Z M6.94869883,0.736549737 C7.14018003,2.47374956 8.61015908,3.78380994 10.3679373,3.78380994 C12.1257154,3.78380994 13.5956945,2.47374956 13.7871757,0.736549737 C13.7883303,0.7265873 13.7987223,0.718444924 13.8104132,0.718444924 L14.6100156,0.718444924 C14.5246189,1.73423025 14.0793048,2.67721317 13.3395523,3.39498754 C12.5399499,4.17081227 11.4846864,4.59804752 10.3679373,4.59804752 C9.24608835,4.59804752 8.18721655,4.16736373 7.38645949,3.38540828 C6.65209541,2.66820866 6.21115943,1.72944062 6.12619566,0.718444924 L6.92546128,0.718444924 C6.93715222,0.718444924 6.94754417,0.7265873 6.94869883,0.736549737 Z M5.41271169,0.849585071 C5.5262533,2.00527558 6.03930745,3.07618958 6.88115119,3.89833006 C7.81758086,4.81281465 9.05590614,5.31649244 10.3679373,5.31649244 C11.6739545,5.31649244 12.9081423,4.81679005 13.8432248,3.9094899 C14.6911786,3.08667888 15.2090439,2.01087945 15.323259,0.849585071 L17.7769126,1.66387055 C17.8308449,1.68178378 17.8816981,1.70601932 17.9297608,1.73446974 L16.757155,4.74221546 C16.6198466,5.09444506 16.5501821,5.46473158 16.5501821,5.8426815 L16.5501821,8.02263499 L16.5501821,9.55531749 L16.5501821,17.6258488 L4.18569245,17.6258488 L4.18569245,9.55531749 L4.18569245,8.02263499 L4.18569245,5.8426815 C4.18569245,5.46473158 4.11607605,5.09444506 3.97871956,4.74221546 L2.80606559,1.73442184 C2.85412833,1.70601932 2.90498151,1.68173588 2.95891377,1.66387055 L5.41271169,0.849585071 Z M16.5501821,19.9009244 C16.5501821,19.9141438 16.5393571,19.9248726 16.5261266,19.9248726 L4.20974788,19.9248726 C4.19651739,19.9248726 4.18569245,19.9141438 4.18569245,19.9009244 L4.18569245,18.3442937 L16.5501821,18.3442937 L16.5501821,19.9009244 Z M2.34097796,2.52705818 L3.30593737,5.00219673 C3.41086714,5.27123041 3.46402964,5.55401033 3.46402964,5.8426815 L3.46402964,7.41210049 L1.18612501,6.15228337 L2.34097796,2.52705818 Z M0.734123529,7.43494704 C0.726473903,7.43073216 0.721710928,7.42268558 0.721710928,7.41401635 L0.721710928,6.75798034 C0.721710928,6.75252016 0.721710928,6.74428199 0.733546199,6.73733702 C0.738453506,6.73446324 0.742591039,6.73345742 0.746055021,6.73345742 C0.751010439,6.73345742 0.754618753,6.73546906 0.757409182,6.73704964 L3.46402964,8.23400149 L3.46402964,8.944783 L0.734123529,7.43494704 Z M16.1412398,21.4575551 L4.59463472,21.4575551 C4.58140423,21.4575551 4.57057929,21.4468263 4.57057929,21.4336069 L4.57057929,20.6433175 L16.1652952,20.6433175 L16.1652952,21.4336069 C16.1652952,21.4468263 16.1544703,21.4575551 16.1412398,21.4575551 Z M20.0141636,7.41401635 C20.0141636,7.42268558 20.0094006,7.43073216 20.001751,7.43494704 L17.2718449,8.944783 L17.2718449,8.23400149 L19.9784653,6.73704964 C19.9832764,6.73436745 19.990493,6.73043995 20.0023283,6.73733702 C20.0141636,6.74428199 20.0141636,6.75252016 20.0141636,6.75798034 L20.0141636,7.41401635 Z" id="Shape"></path>
                </g>
                <g id="Group-7-Copy" transform="translate(102.000000, 45.000000)" fill="#555555" fill-rule="nonzero">
                    <path d="M29.0975135,8.74019041 C29.0574441,8.71672121 29.0163436,8.69612579 28.9744872,8.67819888 L27.1022877,2.80145624 C26.894655,2.14383965 26.3784255,1.62115387 25.7215749,1.40315715 L21.7416388,0.0825185313 C21.5766873,0.0277798704 21.4048628,0 21.2309077,0 L19.729093,0 C19.1850967,0 18.730243,0.404245011 18.6711353,0.940273348 C18.4551176,2.90073849 16.7957055,4.37909287 14.8113389,4.37909287 C12.8269724,4.37909287 11.1675603,2.90073849 10.9514738,0.940273348 C10.8923662,0.404245011 10.4375124,0 9.89351612,0 L8.39170143,0 C8.21781506,0 8.04599058,0.0277798704 7.88090162,0.0825185313 L3.901103,1.40322557 C3.24418365,1.62122229 2.72802291,2.14390808 2.52066513,2.80036147 L0.64812194,8.6782673 C0.606265497,8.69612579 0.565165081,8.71672121 0.525095612,8.74025883 C0.196292286,8.93280207 -2.13162821e-14,9.27457659 -2.13162821e-14,9.65432605 L-2.13162821e-14,10.5915203 C-2.13162821e-14,10.9764016 0.209969515,11.3316555 0.547982633,11.518588 L4.94861376,13.9524057 L4.94861376,28.429892 C4.94861376,28.8285947 5.17095464,29.1762537 5.4984521,29.3573702 L5.4984521,30.6194384 C5.4984521,31.2042526 5.97633035,31.68 6.56376388,31.68 L23.058914,31.68 C23.6463475,31.68 24.1242258,31.2042526 24.1242258,30.6194384 L24.1242258,29.3573702 C24.4517232,29.1762537 24.6740641,28.8285947 24.6740641,28.429892 L24.6740641,13.9524057 L29.0746265,11.5185196 C29.4126396,11.331587 29.6226091,10.9763331 29.6226091,10.5914519 L29.6226091,9.65425762 C29.6226091,9.27450816 29.4263856,8.93280207 29.0975135,8.74019041 Z M27.9282136,8.78897624 L24.6740641,10.5887834 L24.6740641,8.34675629 C24.6740641,7.9343689 24.7500105,7.53039758 24.8999102,7.14606376 L26.2784236,3.61028838 L27.9282136,8.78897624 Z M9.92671261,1.05221391 C10.2002572,3.53392795 12.3002273,5.40544276 14.8113389,5.40544276 C17.3224506,5.40544276 19.4224207,3.53392795 19.6959653,1.05221391 C19.6976148,1.03798186 19.7124604,1.02634989 19.7291618,1.02634989 L20.8714509,1.02634989 C20.7494555,2.47747179 20.1132926,3.82459024 19.0565033,4.8499822 C17.9142141,5.95830324 16.4066949,6.56863931 14.8113389,6.56863931 C13.2086976,6.56863931 11.6960236,5.95337676 10.552085,4.83629754 C9.50299344,3.81172665 8.8730849,2.47062946 8.75170808,1.02634989 L9.89351612,1.02634989 C9.91021746,1.02634989 9.92506309,1.03798186 9.92671261,1.05221391 Z M7.73244527,1.21369296 C7.89464758,2.8646794 8.62758208,4.39455654 9.83021598,5.56904294 C11.1679727,6.8754495 12.9370088,7.5949892 14.8113389,7.5949892 C16.6770779,7.5949892 18.4402032,6.88112864 19.7760355,5.58498557 C20.9873981,4.40954125 21.7272055,2.87268492 21.8903701,1.21369296 L25.3955895,2.37695793 C25.4726356,2.40254825 25.545283,2.43717045 25.613944,2.47781391 L23.9387928,6.77459352 C23.742638,7.27777866 23.6431172,7.8067594 23.6431172,8.34668786 L23.6431172,11.4609071 L23.6431172,13.6504536 L23.6431172,25.179784 L5.97956065,25.179784 L5.97956065,13.6504536 L5.97956065,11.4609071 L5.97956065,8.34668786 C5.97956065,7.8067594 5.88010864,7.27777866 5.68388508,6.77459352 L4.00866513,2.47774549 C4.07732619,2.43717045 4.14997358,2.40247983 4.22701968,2.37695793 L7.73244527,1.21369296 Z M23.6431172,28.429892 C23.6431172,28.4487768 23.627653,28.4641037 23.6087523,28.4641037 L6.01392554,28.4641037 C5.99502485,28.4641037 5.97956065,28.4487768 5.97956065,28.429892 L5.97956065,26.2061339 L23.6431172,26.2061339 L23.6431172,28.429892 Z M3.34425423,3.61008311 L4.72276767,7.14599533 C4.87266734,7.53032916 4.94861376,7.93430048 4.94861376,8.34668786 L4.94861376,10.588715 L1.6944643,8.78897624 L3.34425423,3.61008311 Z M1.0487479,10.6213529 C1.03781986,10.6153317 1.03101561,10.6038365 1.03101561,10.5914519 L1.03101561,9.65425762 C1.03101561,9.64645737 1.03101561,9.63468855 1.04792314,9.62476717 C1.05493358,9.62066177 1.06084434,9.61922488 1.06579289,9.61922488 C1.07287206,9.61922488 1.07802679,9.62209866 1.08201312,9.62435663 L4.94861376,11.7628593 L4.94861376,12.7782614 L1.0487479,10.6213529 Z M23.058914,30.6536501 L6.56376388,30.6536501 C6.54486319,30.6536501 6.52939898,30.6383233 6.52939898,30.6194384 L6.52939898,29.4904536 L23.0932789,29.4904536 L23.0932789,30.6194384 C23.0932789,30.6383233 23.0778147,30.6536501 23.058914,30.6536501 Z M28.5916623,10.5914519 C28.5916623,10.6038365 28.584858,10.6153317 28.57393,10.6213529 L24.6740641,12.7782614 L24.6740641,11.7628593 L28.5406648,9.62435663 C28.5475377,9.62052492 28.5578472,9.61491421 28.5747547,9.62476717 C28.5916623,9.63468855 28.5916623,9.64645737 28.5916623,9.65425762 L28.5916623,10.5914519 Z" id="Shape"></path>
                </g>
                <rect id="Rectangle" fill="#DDDDDD" x="54.1408451" y="95.75" width="33.6224347" height="5.92741935" rx="2.9568"></rect>
                <rect id="Rectangle-Copy" fill="#DDDDDD" x="62.971831" y="106.090909" width="15.1300956" height="5.92741935" rx="2.9568"></rect>
            </g>
        </g>
    </g>
</svg>