<?xml version="1.0" encoding="UTF-8"?>
<svg width="355px" height="54px" viewBox="0 0 355 54" version="1.1" xmlns="http://www.w3.org/2000/svg" xmlns:xlink="http://www.w3.org/1999/xlink">
    <!-- Generator: sketchtool 58 (101010) - https://sketch.com -->
    <title>5C8997BC-2AB0-48B8-82FC-8E3E73B9E45A</title>
    <desc>Created with sketchtool.</desc>
    <g id="Page-1" stroke="none" stroke-width="1" fill="none" fill-rule="evenodd" opacity="0.2">
        <g id="11-Picks-powerups" transform="translate(-10.000000, -99.000000)" fill="#000000">
            <path d="M35,153 L35.0004168,152.927079 C21.0224759,151.90383 10,140.239134 10,126 C10,111.088312 22.0883118,99 37,99 C51.9116882,99 64,111.088312 64,126 C64,126.334924 63.9939018,126.668424 63.9818103,127.000394 L311.01819,127.000394 C311.006098,126.668424 311,126.334924 311,126 C311,111.088312 323.088312,99 338,99 C352.911688,99 365,111.088312 365,126 C365,140.911688 352.911688,153 338,153 C337.665413,153 337.332247,152.993914 337.000607,152.981847 L337,153 L37,153 L37,153 L35,153 Z" id="Combined-Shape"></path>
        </g>
    </g>
</svg>