<?xml version="1.0" encoding="UTF-8"?>
<svg width="25px" height="8px" viewBox="0 0 25 8" version="1.1" xmlns="http://www.w3.org/2000/svg" xmlns:xlink="http://www.w3.org/1999/xlink">
    <title>dash-ic</title>
    <g id="Page-1" stroke="none" stroke-width="1" fill="none" fill-rule="evenodd">
        <g id="7-Booster-edit" transform="translate(-175.000000, -764.000000)" fill="#666766">
            <path d="M199,770 C199.552285,770 200,770.447715 200,771 C200,771.552285 199.552285,772 199,772 L176,772 C175.447715,772 175,771.552285 175,771 C175,770.447715 175.447715,770 176,770 L199,770 Z M199,764 C199.552285,764 200,764.447715 200,765 C200,765.552285 199.552285,766 199,766 L176,766 C175.447715,766 175,765.552285 175,765 C175,764.447715 175.447715,764 176,764 L199,764 Z" id="dash-ic"></path>
        </g>
    </g>
</svg>