<!-- Generated by IcoMoon.io -->
<svg version="1.1" xmlns="http://www.w3.org/2000/svg" width="1024" height="1024" viewBox="0 0 1024 1024">
<title></title>
<g id="icomoon-ignore">
</g>
<path d="M650.245 374.144c-12.954 0-23.428 10.512-23.428 23.428v443.1c0 12.954 10.474 23.466 23.428 23.466s23.428-10.512 23.428-23.466v-443.1c0-12.954-10.474-23.428-23.428-23.428zM373.817 374.144c-12.954 0-23.428 10.512-23.428 23.428v443.1c0 12.954 10.474 23.466 23.428 23.466s23.428-10.512 23.428-23.466v-443.1c0-12.954-10.474-23.428-23.428-23.428z"></path>
<path d="M172.353 309.476v577.632c0 34.156 12.496 66.188 34.366 89.228 21.768 23.078 52.032 36.172 83.708 36.21h443.24c31.714-0.070 61.978-13.132 83.708-36.21 21.838-23.008 34.366-55.072 34.366-89.196v-577.632c43.428-11.536 71.6-53.552 65.762-98.15s-43.784-77.972-88.732-77.972h-119.95v-29.304c0.14-24.636-9.59-48.312-27.040-65.724s-41.126-27.078-65.762-26.9h-208.046c-24.636-0.21-48.312 9.488-65.762 26.9s-27.18 41.056-27.040 65.724v29.304h-119.95c-44.948 0-82.926 33.374-88.732 77.972s22.334 86.608 65.762 98.15zM733.667 965.614h-443.24c-40.064 0-71.212-34.436-71.212-78.538v-575.546h585.702v575.546c0 44.102-31.148 78.538-71.212 78.538zM362.103 104.050c-0.14-12.21 4.636-23.962 13.31-32.598s20.42-13.342 32.636-13.132h208.046c12.21-0.21 23.962 4.528 32.636 13.132s13.45 20.388 13.31 32.598v29.304h-299.862v-29.304zM195.323 180.254h633.486c23.288 0 42.156 18.9 42.156 42.188s-18.9 42.188-42.156 42.188h-633.486c-23.288 0-42.156-18.9-42.156-42.188s18.9-42.188 42.156-42.188z"></path>
<path d="M512.031 374.144c-12.954 0-23.428 10.512-23.428 23.428v443.1c0 12.954 10.474 23.466 23.428 23.466s23.428-10.512 23.428-23.466v-443.1c0-12.954-10.474-23.428-23.428-23.428z"></path>
</svg>
