<?xml version="1.0" encoding="UTF-8"?>
<svg width="31px" height="30px" viewBox="0 0 31 30" version="1.1" xmlns="http://www.w3.org/2000/svg" xmlns:xlink="http://www.w3.org/1999/xlink">
    <title>Shape</title>
    <g id="Tournaments" stroke="none" stroke-width="1" fill="none" fill-rule="evenodd">
        <g id="3.0-22-Pickem-Tournament-details" transform="translate(-171.000000, -566.000000)" fill="#999999" fill-rule="nonzero">
            <path d="M186.5,596 C195.046254,596 202,589.271179 202,581 C202,576.98999 200.38857,573.222595 197.462453,570.391174 C194.536021,567.559448 190.643677,566 186.5,566 C177.953115,566 171,572.728821 171,581 C171,585.01001 172.61143,588.777405 175.537547,591.608826 C178.463348,594.440552 182.356323,596 186.5,596 Z M186.5,593.5 C183.481486,593.5 180.622854,592.506958 178.322388,590.681396 L196.50411,573.086182 C198.390523,575.312439 199.416667,578.078857 199.416667,581 C199.416667,587.892395 193.622141,593.5 186.5,593.5 Z M186.5,568.5 C189.517883,568.5 192.377146,569.493042 194.676982,571.318604 L176.49589,588.913818 C174.609477,586.687561 173.583333,583.921143 173.583333,581 C173.583333,574.107605 179.377859,568.5 186.5,568.5 Z" id="Shape"></path>
        </g>
    </g>
</svg>