<?xml version="1.0" encoding="UTF-8"?>
<svg width="15px" height="26px" viewBox="0 0 15 26" version="1.1" xmlns="http://www.w3.org/2000/svg" xmlns:xlink="http://www.w3.org/1999/xlink">
    <!-- Generator: sketchtool 55.1 (78136) - https://sketchapp.com -->
    <title>9E1385C3-F4CA-42C4-8D6C-C1262C0A239A</title>
    <desc>Created with sketchtool.</desc>
    <g id="Page-1" stroke="none" stroke-width="1" fill="none" fill-rule="evenodd">
        <g id="15-FS-referral-referral-share" transform="translate(-257.000000, -348.000000)" fill="#fff" fill-rule="nonzero">
            <path d="M257.366571,362.501519 L261.21483,362.501519 L261.21483,373.662943 C261.21483,373.849066 261.37898,374 261.581401,374 L266.686704,374 C266.889125,374 267.053275,373.849066 267.053275,373.662876 L267.053275,371.468503 C267.053275,371.282381 266.889125,371.131447 266.686704,371.131447 C266.484284,371.131447 266.320134,371.282381 266.320134,371.468503 L266.320134,373.32582 L261.947971,373.32582 L261.947971,362.164463 C261.947971,361.97834 261.783821,361.827406 261.581401,361.827406 L257.733141,361.827406 L257.733141,357.807333 L261.581474,357.807333 C261.783894,357.807333 261.948045,357.656399 261.948045,357.470277 L261.948045,353.527996 C261.948045,350.851565 264.316311,348.674113 267.227323,348.674113 L271.266932,348.674113 L271.266932,352.220891 L268.480628,352.220891 C267.289346,352.220891 266.320134,353.112069 266.320134,354.207502 L266.320134,357.470344 C266.320134,357.656467 266.484284,357.807401 266.686704,357.807401 L271.136139,357.807401 L270.55989,361.827474 L266.686631,361.827474 C266.484211,361.827474 266.32006,361.978408 266.32006,362.16453 L266.32006,371.785853 C266.32006,371.971976 266.484211,372.12291 266.686631,372.12291 C266.889051,372.12291 267.053202,371.971976 267.053202,371.785853 L267.053202,362.501587 L270.8813,362.501587 C271.065245,362.501587 271.220671,362.376202 271.244718,362.20855 L271.917595,357.514364 C271.931378,357.4181 271.899413,357.321096 271.829765,357.248089 C271.760189,357.175083 271.659749,357.13322 271.554177,357.13322 L267.053202,357.13322 L267.053202,354.207435 C267.053202,353.483707 267.693527,352.894937 268.480555,352.894937 L271.633429,352.894937 C271.83585,352.894937 272,352.744003 272,352.55788 L272,348.337057 C272,348.150934 271.83585,348 271.633429,348 L267.227249,348 C263.911984,348 261.21483,350.47986 261.21483,353.527996 L261.21483,357.13322 L257.366571,357.13322 C257.16415,357.13322 257,357.284154 257,357.470277 L257,362.164463 C257,362.350585 257.16415,362.501519 257.366571,362.501519 Z" id="fb-ic"></path>
        </g>
    </g>
</svg>