<?xml version="1.0" encoding="UTF-8"?>
<svg width="20px" height="20px" viewBox="0 0 20 20" version="1.1" xmlns="http://www.w3.org/2000/svg" xmlns:xlink="http://www.w3.org/1999/xlink">
    <!-- Generator: sketchtool 55.1 (78136) - https://sketchapp.com -->
    <title>3A632931-64CD-477B-A5D4-589EF92D84E3</title>
    <desc>Created with sketchtool.</desc>
    <g id="Page-1" stroke="none" stroke-width="1" fill="none" fill-rule="evenodd" opacity="0.58">
        <g id="27-FS-impr-profile" transform="translate(-134.000000, -291.000000)" fill="#000000" fill-rule="nonzero">
            <g id="icon/email-ic" transform="translate(134.000000, 291.000000)">
                <g id="636589">
                    <path d="M19.6673684,8.00003906 L0.372046784,8.00003906 C0.188421053,8.00003906 0.0393762183,8.14902344 0.0393762183,8.33335938 L0.0393762183,19.6664844 C0.0393762183,19.7888281 0.106237817,19.9014844 0.213684211,19.9598047 C0.321481481,20.018125 0.452202729,20.0124609 0.553996101,19.9454688 L9.25820663,14.23125 C9.72031189,13.9279297 10.3177778,13.9275781 10.7805458,14.2316016 L19.4847173,19.9455078 C19.539961,19.9815234 19.6034698,19.999928 19.6670175,19.999928 C19.7212476,19.999928 19.7757895,19.9865234 19.825692,19.9598438 C19.9328265,19.9015234 20,19.7888281 20,19.6665234 L20,8.33335938 C20,8.14902344 19.8510331,8.00003906 19.6673684,8.00003906 Z M19.3346979,19.0495313 L11.1454971,13.6739453 C10.8031579,13.4489453 10.4116179,13.3369531 10.0193762,13.3369531 C9.62748538,13.3369531 9.23524366,13.4492969 8.89391813,13.6736328 L0.704717349,19.0495313 L0.704717349,8.66671875 L19.3346979,8.66671875 L19.3346979,19.0495313 Z" id="Shape"></path>
                    <path d="M19.6670565,8.00003906 L0.371734893,8.00003906 C0.188109162,8.00003906 0.0390643275,8.14902344 0.0390643275,8.33335938 L0.0390643275,19.6664844 C0.0390643275,19.8508203 0.188109162,19.9998047 0.371734893,19.9998047 L19.6670565,19.9998047 C19.8506823,19.9998047 19.9997271,19.8504688 19.9997271,19.6664844 L19.9997271,8.33335938 C19.9997271,8.14902344 19.8506823,8.00003906 19.6670565,8.00003906 Z M19.334386,19.3331641 L0.704405458,19.3331641 L0.704405458,8.66667969 L19.334386,8.66667969 L19.334386,19.3331641 L19.334386,19.3331641 Z" id="Shape"></path>
                    <path d="M19.8789474,8.07671875 L10.231306,0.0768359375 C10.1082261,-0.0255078125 9.93021442,-0.0255078125 9.8071345,0.0768359375 L0.159454191,8.07671875 C0.0516569201,8.16605469 0.0110721248,8.314375 0.0586354776,8.44636719 C0.10619883,8.57835938 0.231306043,8.66667969 0.371695906,8.66667969 L19.6670565,8.66667969 C19.8074464,8.66667969 19.9325536,8.57835938 19.9797661,8.44636719 C20.0273294,8.314375 19.9870955,8.16636719 19.8789474,8.07671875 Z M1.29555556,8.00003906 L10.0193762,0.766171875 L18.7431969,8.00003906 L1.29555556,8.00003906 Z" id="Shape"></path>
                    <path d="M19.8077583,8.03171875 C19.6909942,7.97671875 19.5529435,7.99472656 19.4538012,8.07738281 L11.8547758,14.4222656 C11.7739181,14.4899219 11.7297076,14.5922656 11.7356725,14.6975781 C11.7419883,14.8028906 11.7975439,14.8992578 11.885731,14.9572266 L19.4847563,19.9454687 C19.54,19.9814844 19.6035088,19.9998047 19.6670565,19.9998047 C19.7212865,19.9998047 19.7758285,19.9864844 19.8250682,19.9598047 C19.9322027,19.9014844 19.9993762,19.7887891 19.9993762,19.6664844 L19.9993762,8.33335938 C19.9993762,8.204375 19.9245224,8.08636719 19.8077583,8.03171875 Z M19.334386,19.0495313 L12.6262378,14.6459375 L19.334386,9.0446875 L19.334386,19.0495313 L19.334386,19.0495313 Z" id="Shape"></path>
                    <path d="M8.18366472,14.4222656 L0.584639376,8.07738281 C0.485497076,7.994375 0.347446394,7.97671875 0.230682261,8.03171875 C0.113918129,8.08636719 0.0390643275,8.2040625 0.0390643275,8.33339844 L0.0390643275,19.6665234 C0.0390643275,19.7888672 0.105925926,19.9015234 0.21337232,19.9598438 C0.262923977,19.9865234 0.317504873,19.9998438 0.371734893,19.9998438 C0.435282651,19.9998438 0.498830409,19.9815234 0.553723197,19.9455078 L8.15274854,14.9572656 C8.24089669,14.8992578 8.29645224,14.8029297 8.30276803,14.6976172 C8.30877193,14.5922656 8.26483431,14.4899219 8.18366472,14.4222656 Z M0.704405458,19.0498438 L0.704405458,9.04503906 L7.41251462,14.6462891 L0.704405458,19.0498438 Z" id="Shape"></path>
                </g>
            </g>
        </g>
    </g>
</svg>