<?xml version="1.0" encoding="UTF-8"?>
<svg width="95px" height="97px" viewBox="0 0 95 97" version="1.1" xmlns="http://www.w3.org/2000/svg" xmlns:xlink="http://www.w3.org/1999/xlink">
    <!-- Generator: sketchtool 58 (101010) - https://sketch.com -->
    <title>1FF582D5-D37E-4698-9679-262568B4223A</title>
    <desc>Created with sketchtool.</desc>
    <g id="Fantasy-Sports-App" stroke="none" stroke-width="1" fill="none" fill-rule="evenodd" opacity="0.3">
        <g id="15-FS-impr-Write-feedback" transform="translate(-140.000000, -408.000000)" fill="#FFFFFF" fill-rule="nonzero">
            <g id="Group-3" transform="translate(15.000000, 373.000000)">
                <g id="icon/feedback-ic" transform="translate(125.000000, 35.000000)">
                    <path d="M91.5038979,65.9445839 C93.4856082,63.4090339 94.4360203,60.6909243 94.3146911,57.8916771 C94.1933619,54.8084483 92.8182976,52.3946048 91.6858917,50.9138436 C93.0002914,47.6277708 93.5058297,42.4552488 89.1177568,38.4389377 C85.9025329,35.4976997 80.4427186,34.1792137 72.8798648,34.5443329 C67.5616013,34.7877457 63.1128638,35.7816813 62.93087,35.8222501 L62.9106485,35.8222501 C61.8995717,36.0048097 60.8278304,36.2279381 59.7358676,36.4713509 C59.6549814,35.1731493 59.8774183,31.9479297 62.2635594,24.6861146 C65.0945741,16.0449603 64.9328019,9.43224592 61.7377995,5.01024676 C58.3810248,0.365119197 53.0223182,0 51.4450385,0 C49.9284235,0 48.5331376,0.628816395 47.5422824,1.78502719 C45.2976921,4.40171476 45.5605721,9.22940192 45.8436736,11.4606859 C43.174431,18.6413634 35.6924634,36.2482225 29.3631232,41.1367629 C29.241794,41.2179005 29.1406863,41.3193225 29.0395786,41.4207445 C27.1791975,43.3883312 25.9254623,45.5181932 25.0761579,47.384358 C23.8830874,46.7352572 22.5282446,46.370138 21.0722941,46.370138 L8.73715824,46.370138 C4.08620537,46.370138 0.325,50.1633208 0.325,54.8084483 L0.325,87.7705981 C0.325,92.43601 4.1064269,96.2089084 8.73715824,96.2089084 L21.0722941,96.2089084 C22.8720107,96.2089084 24.550398,95.6409452 25.9254623,94.667294 L30.6775229,95.2352572 C31.4054981,95.3366792 44.34728,96.9797156 57.632828,96.7160184 C60.0391906,96.898578 62.3040024,97 64.407042,97 C68.0266966,97 71.181256,96.7160184 73.8100554,96.1480552 C79.9978449,94.8295692 84.2241455,92.1925972 86.3676282,88.3182769 C88.0055724,85.3567545 88.0055724,82.4155165 87.7426925,80.5493517 C91.7667778,76.8981598 92.4745315,72.8615642 92.3329808,70.0217482 C92.2520946,68.3787118 91.888107,66.9790882 91.5038979,65.9445839 Z M8.73715824,90.7321205 C7.09921397,90.7321205 5.78481424,89.3933501 5.78481424,87.7705981 L5.78481424,54.7881639 C5.78481424,53.1451276 7.1194355,51.8266416 8.73715824,51.8266416 L21.0722941,51.8266416 C22.7102384,51.8266416 24.0246381,53.165412 24.0246381,54.7881639 L24.0246381,87.7503137 C24.0246381,89.3933501 22.6900169,90.7118361 21.0722941,90.7118361 L8.73715824,90.7118361 L8.73715824,90.7321205 Z M86.3271851,63.5713091 C85.4778807,64.4638227 85.3161084,65.8228775 85.9631975,66.8776662 C85.9631975,66.8979506 86.7922804,68.3178586 86.8933881,70.265161 C87.0349388,72.9224174 85.7609821,75.2754078 83.0917396,77.2835634 C82.1413275,78.0138018 81.7571184,79.2714345 82.161549,80.4073609 C82.161549,80.4276453 83.031075,83.1051861 81.6155676,85.6407361 C80.2607248,88.0748641 77.2477162,89.8193225 72.6776495,90.7929737 C69.0175518,91.5840652 64.0430544,91.726056 57.936151,91.2392304 C57.8552649,91.2392304 57.7541572,91.2392304 57.6530496,91.2392304 C44.650603,91.523212 31.5066058,89.8193225 31.365055,89.7990381 L31.3448335,89.7990381 L29.3024586,89.5556253 C29.4237878,88.9876621 29.4844524,88.3791301 29.4844524,87.7705981 L29.4844524,54.7881639 C29.4844524,53.9159348 29.3429016,53.06399 29.1002432,52.2728984 C29.4642308,50.9138436 30.4753075,47.891468 32.8614486,45.3153492 C41.9409175,38.0941029 50.818171,13.7325387 51.2023801,12.6777499 C51.3641524,12.2517775 51.4045955,11.7852363 51.3237093,11.3186951 C50.9799433,9.04684233 51.1012725,6.26787955 51.5865893,5.43621916 C52.6583306,5.45650355 55.55001,5.76076955 57.2890619,8.17461313 C59.3516584,11.0347135 59.2707723,16.1463823 57.0464035,22.9213718 C53.6491858,33.2461313 53.3660843,38.6823505 56.0555483,41.0759097 C57.3901696,42.2726893 59.1696646,42.3335425 60.4638428,41.8670013 C61.6973564,41.5830197 62.8702054,41.3396069 63.9823898,41.1570473 C64.0632759,41.1367629 64.1643836,41.1164785 64.2452697,41.0961941 C70.4532807,39.7371393 81.5751246,38.9054789 85.4374376,42.4349645 C88.7133261,45.4370556 86.3878497,49.412798 86.1249698,49.8387704 C85.376773,50.9746968 85.5992099,52.455458 86.6102866,53.368256 C86.6305081,53.3885404 88.7537692,55.3966959 88.8548769,58.0945211 C88.935763,59.8998327 88.0864586,61.7457131 86.3271851,63.5713091 Z" id="Shape"></path>
                </g>
            </g>
        </g>
    </g>
</svg>