<?xml version="1.0" encoding="UTF-8"?>
<svg width="128px" height="17px" viewBox="0 0 128 17" version="1.1" xmlns="http://www.w3.org/2000/svg" xmlns:xlink="http://www.w3.org/1999/xlink">
    <!-- Generator: Sketch 58 (84663) - https://sketch.com -->
    <title>FS-hearder-logo</title>
    <desc>Created with Sketch.</desc>
    <defs>
        <linearGradient x1="52.4111421%" y1="12.6714714%" x2="52.4111421%" y2="87.1568602%" id="linearGradient-1">
            <stop stop-color="#555555" offset="0%"></stop>
            <stop stop-color="#494949" offset="51.5716768%"></stop>
            <stop stop-color="#303030" offset="52.0245792%"></stop>
            <stop stop-color="#212121" offset="100%"></stop>
        </linearGradient>
    </defs>
    <g id="Fantasy-Sports-App" stroke="none" stroke-width="1" fill="none" fill-rule="evenodd">
        <g id="12-FS-Coins-lobby-with-earn-icon" transform="translate(-124.000000, -58.000000)">
            <g id="FS-hearder-logo" transform="translate(124.000000, 58.000000)">
                <g id="FANTASYSPORTS-2" transform="translate(24.000000, 3.000000)" fill="url(#linearGradient-1)">
                    <path d="M2.69742958,10 L0,10 L0.0467635404,1.21428571 L1.42299968,2.84217094e-14 L6.83318514,2.84217094e-14 L6.82957136,2.51428571 L2.72212178,2.51428571 L2.75936837,3.74285714 L6.77486013,3.74285714 L6.77124635,6.25714286 L2.75575459,6.25714286 L2.69742958,10 Z M10.8899694,10 L8.18896235,10 L8.14653249,1.21428571 L9.60171739,0 L13.6225347,0 L14.9604367,1.21428571 L14.9875199,10 L12.2865129,10 L12.287477,7.47142857 L10.8909335,7.47142857 L10.8899694,10 Z M12.1894635,5 L12.1961123,2.33333333 L10.8716403,2.33333333 L10.8934712,5 L12.1894635,5 Z M20.0426011,2.52857143 L18.7381374,2.52857143 L18.7228899,10 L16.0218829,10 L15.979453,1.21428571 L17.3425581,0 L21.4554552,0 L22.7933572,1.21428571 L22.7437073,10 L20.0427002,10 L20.0426011,2.52857143 Z M23.8290337,2.84217094e-14 L30.6879885,2.84217094e-14 L30.6675177,2.52857143 L28.6592651,2.52857143 L28.6319433,10 L25.9130783,10 L25.9404002,2.52857143 L23.824011,2.52857143 L23.8290337,2.84217094e-14 Z M34.7447728,10 L32.0437657,10 L32.0013359,1.21428571 L33.4565208,0 L37.4773381,0 L38.8152401,1.21428571 L38.8423233,10 L36.1413162,10 L36.1422803,7.47142857 L34.7457369,7.47142857 L34.7447728,10 Z M36.0442669,5 L36.0197994,2.33333333 L34.7350355,2.33333333 L34.7482746,5 L36.0442669,5 Z M43.5470098,3.41428571 L43.590341,2.52857143 L42.285065,2.52857143 L42.2306023,4.05714286 L44.9170423,4.05714286 L46.2469148,5.28571429 L46.3212217,8.78571429 L44.976369,10 L40.9087649,10 L39.5823552,8.78571429 L39.5651359,6.58571429 L42.2515759,6.58571429 L42.2841329,7.47142857 L43.5742313,7.47142857 L43.6404089,5.92857143 L40.8780807,5.92857143 L39.6275592,4.71428571 L39.5684298,1.21428571 L40.9132825,0 L44.8746433,0 L46.2921187,1.21428571 L46.2182722,3.41428571 L43.5470098,3.41428571 Z M47.3368633,0 L50.0956277,0 L50.0687969,1.7 L50.7466188,2.68571429 L51.4168295,1.7 L51.4279856,0 L54.18675,0 L54.1848713,2.51428571 L52.0944115,5.27142857 L52.0806361,10 L49.2905221,10 L49.3199722,5.27142857 L47.3193098,2.51428571 L47.3368633,0 Z M62.4172274,3.41428571 L62.4605585,2.52857143 L61.1552826,2.52857143 L61.1008199,4.05714286 L63.7872599,4.05714286 L65.1171323,5.28571429 L65.1914393,8.78571429 L63.8465866,10 L59.7789825,10 L58.4525728,8.78571429 L58.4353535,6.58571429 L61.1217935,6.58571429 L61.1543505,7.47142857 L62.4444489,7.47142857 L62.5106265,5.92857143 L59.7482983,5.92857143 L58.4977767,4.71428571 L58.4386474,1.21428571 L59.7835001,0 L63.7448608,0 L65.1623363,1.21428571 L65.0884898,3.41428571 L62.4172274,3.41428571 Z M68.9282914,5 L70.1388336,5 L70.0621265,2.33333333 L68.8515842,2.33333333 L68.9282914,5 Z M71.6421074,7.47142857 L68.9257537,7.47142857 L68.9401362,10 L66.2237825,10 L66.1848153,1.22857143 L67.5444577,0 L71.6573549,0 L72.9987195,1.22857143 L73.0052125,6.25714286 L71.6421074,7.47142857 Z M76.3394604,7.66666667 L77.6657683,7.66666667 L77.6198019,2.66666667 L76.293494,2.66666667 L76.3394604,7.66666667 Z M75.0980297,10 L73.7623719,8.78571429 L73.7647666,1.21428571 L75.1243073,0 L79.1364778,0 L80.4721355,1.21428571 L80.4850544,8.78571429 L79.1255137,10 L75.0980297,10 Z M84.297657,6.27142857 L84.2345887,10 L81.5335817,10 L81.5497933,0 L86.967154,0 L88.3085187,1.22857143 L88.3194385,3.74285714 L86.9617631,5.04285714 L88.3184744,6.27142857 L88.2987009,8.78571429 L86.9509424,10 L85.6311322,10 L85.6021207,6.27142857 L84.297657,6.27142857 Z M83.8719346,2.33333333 L83.9149035,3.66666667 L85.3159941,3.66666667 L85.3719346,2.33333333 L83.8719346,2.33333333 Z M89.3407325,0 L96.1996873,0 L96.1792165,2.52857143 L94.1709639,2.52857143 L94.1436421,10 L91.4247771,10 L91.452099,2.52857143 L89.3357098,2.52857143 L89.3407325,0 Z M101.225788,3.41428571 L101.269119,2.52857143 L99.9638433,2.52857143 L99.9093806,4.05714286 L102.595821,4.05714286 L103.925693,5.28571429 L104,8.78571429 L102.655147,10 L98.5875432,10 L97.2611335,8.78571429 L97.2439142,6.58571429 L99.9303542,6.58571429 L99.9629112,7.47142857 L101.25301,7.47142857 L101.319187,5.92857143 L98.556859,5.92857143 L97.3063374,4.71428571 L97.2472081,1.21428571 L98.5920608,0 L102.553422,0 L103.970897,1.21428571 L103.897051,3.41428571 L101.225788,3.41428571 Z" id="FANTASYSPORTS"></path>
                </g>
                <g id="Shape-3" fill="#0CBFEB" fill-rule="nonzero">
                    <g id="Shape-2">
                        <path d="M15.3191372,5.40444247 L15.3191372,5.4848544 L15.3191372,5.97801136 L12.2552853,5.97801136 L12.2552853,5.01089489 C12.2552853,4.5990554 12.2065557,4.33675071 12.1091576,4.2212642 C12.0116984,4.10849432 11.8310258,4.05078125 11.6036413,4.05078125 C11.3546128,4.05078125 11.1677649,4.12950284 11.0405299,4.28688565 C10.913356,4.44426847 10.851053,4.68037287 10.851053,4.99779474 C10.851053,5.40703835 10.9214878,5.71661222 11.0649253,5.92386009 C11.2002921,6.13110795 11.5440285,6.39341264 12.0936277,6.70823864 C13.6664266,7.62114347 14.662663,8.35571733 15.0795245,8.91449574 C15.4936957,9.47587003 15.7021264,10.3756747 15.7021264,11.6191619 C15.7021264,12.5242188 15.5884647,13.1905753 15.361019,13.6181712 C15.1336345,14.0484233 14.6978193,14.4078018 14.0481318,14.6963672 C13.3984443,14.9849325 12.6404144,15.1318714 11.779606,15.1318714 C10.8321603,15.1318714 10.0254008,14.9639844 9.35675951,14.625554 C8.68811821,14.2871839 8.36816576,13.8569318 8.16236413,13.3322621 C7.95393342,12.8101882 7.85109375,12.0795987 7.85109375,11.114233 L7.85109375,10.2747372 L10.9148845,10.2747372 L10.9148845,11.8185618 C10.9148845,12.2986186 10.9690557,12.6081925 11.077337,12.7446271 C11.1856182,12.8810014 11.3139538,12.9492188 11.5900679,12.9492188 C11.8662432,12.9492188 12.0719837,12.8679013 12.2072894,12.7000142 C12.3426563,12.5321271 12.4103397,12.2829226 12.4103397,11.9523402 C12.4103397,11.228331 12.2885462,10.7534659 12.0502785,10.5304616 C11.80125,10.3075178 11.2355095,9.91137429 10.3502446,9.34474787 C9.46235054,8.77286932 8.86952446,8.36622159 8.57714674,8.11961293 C8.28476902,7.87300426 8.04112092,7.53463423 7.84889266,7.09912997 C7.65403533,6.66628196 7.5592663,6.11275568 7.5592663,5.43589489 C7.5592663,4.46527699 7.69188179,3.75430753 7.95723505,3.30310724 C8.22252717,2.85450284 8.65290082,2.5029723 9.24847826,2.24851563 C9.84405571,1.99665483 10.5614266,1.86812855 11.4033424,1.86812855 C12.3210122,1.86812855 13.1033764,2.00456321 13.7530639,2.27737216 C14.4,2.55018111 14.8277446,2.89126776 15.0389266,3.30310724 C15.2500476,3.71760298 15.3191372,4.41806818 15.3191372,5.40444247 Z M2.68086277,2.05491122 L8.80850543,2.05491122 L8.80850543,2.27350852 C8.2423981,2.52585227 7.83097826,2.86893111 7.57418478,3.30310724 C7.38446332,3.62596236 7.2626087,4.08169034 7.20862092,4.67035156 L6.12764266,4.67035156 L6.12764266,7.09888849 L7.46590353,7.09912997 C7.65813179,7.53463423 7.90177989,7.87300426 8.19415761,8.11961293 C8.2976087,8.20684659 8.43866168,8.31454545 8.61701087,8.44210582 L8.61701087,9.5274858 L6.12764266,9.5274858 L6.12764266,14.9450284 L2.68086277,14.9450284 L2.68086277,2.05491122 Z M2.68086277,14.9639844 L2.66258152,14.9450284 L2.68086277,14.9450284 L2.68086277,14.9639844 Z M1.8,0 C0.805842391,0 0,0.752745028 0,1.68128551 L0,15.3187145 C0,16.247255 0.805842391,17 1.8,17 L16.2,17 C17.1941576,17 18,16.247255 18,15.3187145 L18,1.68128551 C18,0.752745028 17.1941576,0 16.2,0 L1.8,0 Z" id="Shape"></path>
                    </g>
                </g>
            </g>
        </g>
    </g>
</svg>