<?xml version="1.0" encoding="UTF-8"?>
<svg width="14px" height="14px" viewBox="0 0 14 14" version="1.1" xmlns="http://www.w3.org/2000/svg" xmlns:xlink="http://www.w3.org/1999/xlink">
    <title>B2D63A8C-5B69-4992-9229-384F184727A1</title>
    <g id="Tournaments" stroke="none" stroke-width="1" fill="none" fill-rule="evenodd">
        <g id="3.0-2-Cricjam-Lobby" transform="translate(-128.000000, -968.000000)">
            <g id="Group-15" transform="translate(17.000000, 963.000000)">
                <g id="Group-16" transform="translate(111.000000, 4.000000)">
                    <g id="Group-17" transform="translate(0.000000, 1.000000)">
                        <circle id="Oval" fill="#FFFFFF" cx="7" cy="7" r="7"></circle>
                        <path d="M7,0 C10.8659932,0 14,3.13400675 14,7 C14,10.8659932 10.8659932,14 7,14 C3.13400675,14 0,10.8659932 0,7 C0,3.13400675 3.13400675,0 7,0 Z M7,0.583333333 C3.45617286,0.583333333 0.583333333,3.45617286 0.583333333,7 C0.583333333,10.5438271 3.45617286,13.4166667 7,13.4166667 C10.5438271,13.4166667 13.4166667,10.5438271 13.4166667,7 C13.4166667,3.45617286 10.5438271,0.583333333 7,0.583333333 Z" id="Oval" fill="#000000" fill-rule="nonzero"></path>
                        <circle id="Oval-Copy-3" fill="#000000" cx="7" cy="7" r="5.09090909"></circle>
                        <circle id="Oval-Copy-2" fill="#00BFEB" cx="7" cy="7" r="3.81818182"></circle>
                        <circle id="Oval-Copy" fill="#E53C25" cx="7" cy="7" r="2.54545455"></circle>
                        <circle id="Oval" fill="#F5E34D" cx="7" cy="7" r="1.27272727"></circle>
                    </g>
                </g>
            </g>
        </g>
    </g>
</svg>