<?xml version="1.0" encoding="UTF-8"?>
<svg width="61px" height="63px" viewBox="0 0 61 63" version="1.1" xmlns="http://www.w3.org/2000/svg" xmlns:xlink="http://www.w3.org/1999/xlink">
    <title>ED72E6DD-98BC-44E0-A8CB-11863F209251</title>
    <g id="Page-1" stroke="none" stroke-width="1" fill="none" fill-rule="evenodd">
        <g id="2-h2h-contests" transform="translate(-71.000000, -523.000000)" fill="#FF6118">
            <path d="M101.305946,523 L104.724236,529.12832 L114.190451,529.12832 L111.6589,530.987986 L122.911892,530.987986 L120.819457,534.485311 L132,534.485311 L128.209172,540.183949 L114.287554,540.112443 L117.354708,553.620379 L129.874072,553.581168 L120.713882,566.586012 L115.890434,566.586012 L100.474334,586 L85.9945831,566.586012 L81.157586,566.586012 L71.5280494,553.581168 L84.9865578,553.628551 L87.9762066,540.133728 L74.7214209,540.097577 L71,534.485311 L81.9786829,534.485311 L79.9003504,530.987986 L90.8732264,530.987986 L88.4766181,529.12832 L97.9852029,529.12832 L101.305946,523 Z M126.221053,555.142857 L74.2105263,555.142857 L81.6704038,564.896832 L85.9493616,564.896832 L100.215789,583.428571 L114.306138,564.896832 L118.721256,564.896832 L126.221053,555.142857 Z M102.176345,564.785714 L101.356176,570.776931 L105.031579,570.776931 L99.474696,578.928571 L101.356176,572.356368 L97.9684211,572.733844 L102.176345,564.785714 Z M98.1775983,558.357143 L98.1775983,561.463284 L99.3640149,561.463284 L99.3640149,562.214286 L97.1342672,562.214286 L97.1342672,558.357143 L98.1775983,558.357143 Z M95.5032638,558.357143 L96.486976,562.214286 L95.4376829,562.214286 L95.3184451,561.637517 L94.4003137,561.637517 L94.2751139,562.214286 L93.2496685,562.214286 L94.2333807,558.357143 L95.5032638,558.357143 Z M105.183673,558.357143 L105.183673,559.108144 L103.931676,559.108144 L103.931676,559.895194 L105.010779,559.895194 L105.010779,560.646195 L103.931676,560.646195 L103.931676,561.463284 L105.23733,561.463284 L105.23733,562.214286 L102.888345,562.214286 L102.888345,558.357143 L105.183673,558.357143 Z M115.251606,558.357143 L115.251606,559.108144 L113.999609,559.108144 L113.999609,559.895194 L115.078711,559.895194 L115.078711,560.646195 L113.999609,560.646195 L113.999609,561.463284 L115.305263,561.463284 L115.305263,562.214286 L112.956278,562.214286 L112.956278,558.357143 L115.251606,558.357143 Z M88.1275513,558.357143 L88.257196,558.361551 C88.7550316,558.396817 89.0039495,558.643679 89.0039495,559.102136 L89.0039495,559.102136 L89.0039495,559.799065 L87.9606183,559.799065 L87.9606183,559.18024 L87.9546564,559.132657 C87.938758,559.076262 87.8910629,559.048064 87.811571,559.048064 L87.811571,559.048064 L87.6029048,559.048064 L87.5492477,559.053351 C87.4856542,559.06745 87.4538575,559.109746 87.4538575,559.18024 L87.4538575,559.18024 L87.4538575,561.391188 L87.4598194,561.438772 C87.4757177,561.495167 87.5234129,561.523364 87.6029048,561.523364 L87.6029048,561.523364 L87.811571,561.523364 L87.865228,561.518077 C87.9288216,561.503979 87.9606183,561.461682 87.9606183,561.391188 L87.9606183,561.391188 L87.9606183,560.796395 L89.0039495,560.796395 L89.0039495,561.469292 L88.9987637,561.579499 C88.9572774,562.00269 88.6668732,562.214286 88.1275513,562.214286 L88.1275513,562.214286 L87.2869245,562.214286 L87.1572798,562.209877 C86.6594441,562.174612 86.4105263,561.92775 86.4105263,561.469292 L86.4105263,561.469292 L86.4105263,559.102136 L86.4157121,558.99193 C86.4571984,558.568739 86.7476025,558.357143 87.2869245,558.357143 L87.2869245,558.357143 L88.1275513,558.357143 Z M90.8257334,558.357143 L90.8257334,559.93725 L91.5769318,559.93725 L91.5769318,558.357143 L92.6023773,558.357143 L92.6023773,562.214286 L91.5769318,562.214286 L91.5769318,560.688251 L90.8257334,560.688251 L90.8257334,562.214286 L89.8002879,562.214286 L89.8002879,558.357143 L90.8257334,558.357143 Z M101.054637,558.357143 L101.054637,561.463284 L102.241054,561.463284 L102.241054,562.214286 L100.011306,562.214286 L100.011306,558.357143 L101.054637,558.357143 Z M106.868334,558.357143 L107.720884,560.417891 L107.720884,558.357143 L108.674787,558.357143 L108.674787,562.214286 L107.780503,562.214286 L106.927953,560.189586 L106.927953,562.214286 L105.97405,562.214286 L105.97405,558.357143 L106.868334,558.357143 Z M111.253731,558.357143 L111.383376,558.361551 C111.881212,558.396817 112.13013,558.643679 112.13013,559.102136 L112.13013,559.102136 L112.13013,559.678905 L111.086799,559.678905 L111.086799,559.18024 L111.080837,559.132657 C111.064938,559.076262 111.017243,559.048064 110.937751,559.048064 L110.937751,559.048064 L110.723123,559.048064 L110.669466,559.053351 C110.605873,559.06745 110.574076,559.109746 110.574076,559.18024 L110.574076,559.18024 L110.574076,561.391188 L110.580038,561.438772 C110.595936,561.495167 110.643631,561.523364 110.723123,561.523364 L110.723123,561.523364 L110.937751,561.523364 L110.991408,561.518077 C111.055002,561.503979 111.086799,561.461682 111.086799,561.391188 L111.086799,561.391188 L111.086799,560.748331 L110.788704,560.748331 L110.788704,560.081442 L112.13013,560.081442 L112.13013,561.469292 L112.124944,561.579499 C112.083458,562.00269 111.793053,562.214286 111.253731,562.214286 L111.253731,562.214286 L110.407143,562.214286 L110.277498,562.209877 C109.779662,562.174612 109.530745,561.92775 109.530745,561.469292 L109.530745,561.469292 L109.530745,559.102136 L109.53593,558.99193 C109.577417,558.568739 109.867821,558.357143 110.407143,558.357143 L110.407143,558.357143 L111.253731,558.357143 Z M94.8653413,559.504673 L94.5612848,560.892523 L95.157474,560.892523 L94.8653413,559.504673 Z M91.6650391,541.642857 L89.164188,541.642857 L87.0526316,552.571429 L90.0413103,552.571429 L90.6837201,548.247664 L92.7317148,548.247664 L92.2306913,552.571429 L95.21937,552.571429 L95.997909,541.642857 L93.4970579,541.642857 L92.9782815,546.119826 L90.9998667,546.119826 L91.6650391,541.642857 Z M101.679395,541.642857 L99.9200756,541.642857 L99.73804,541.646847 C98.4933688,541.702583 97.8078916,542.342221 97.6816084,543.565761 L97.6668599,543.753672 L97.5771615,545.38785 L100.291716,545.38785 L100.303487,544.145194 L100.310214,544.05742 C100.335347,543.893577 100.43056,543.799952 100.595851,543.776546 L100.684336,543.770694 L100.986177,543.770694 L101.074658,543.776546 C101.239931,543.799952 101.33507,543.893577 101.360076,544.05742 L101.366734,544.145194 L101.376798,545.302737 L101.372417,545.520287 C101.358121,545.800821 101.309983,546.043224 101.227663,546.247497 C101.138706,546.46636 100.971414,546.720658 100.72448,547.010391 L100.59437,547.158211 L97.3737413,550.630841 L97.2697426,552.571429 L104.428671,552.571429 L104.315189,550.443591 L101.051369,550.443591 L103.054316,548.077437 L103.210438,547.879939 C103.508801,547.488764 103.723966,547.120518 103.857663,546.7752 C103.989388,546.429883 104.052909,546.024117 104.049312,545.557904 L104.041926,545.31976 L103.958404,543.753672 L103.944732,543.574113 C103.816002,542.286609 103.06089,541.642857 101.679395,541.642857 Z M108.218732,541.642857 L105.717881,541.642857 L106.496419,552.571429 L109.485098,552.571429 L108.984075,548.247664 L111.032069,548.247664 L111.674479,552.571429 L114.663158,552.571429 L112.551601,541.642857 L110.05075,541.642857 L110.715923,546.119826 L108.737508,546.119826 L108.218732,541.642857 Z M101.109911,525.571429 L98.908621,530.68427 L92.0492218,530.68427 C92.0492218,530.68427 92.8365527,531.24396 94.4112144,532.363338 L94.6308212,532.519449 L81.9748629,532.519449 L84.2867918,535.899191 L73.5684211,535.899191 L76.0067941,539.071429 L126.588726,539.071429 L128.789474,535.899191 L118.104739,535.899191 L120.566712,532.519449 L107.682587,532.519449 L110.289413,530.68427 L103.559677,530.68427 L101.109911,525.571429 Z M96.0421053,535.857143 L95.610896,537.142857 L88.3211907,537.142857 L87.6947368,535.857143 L96.0421053,535.857143 Z M113.378947,535.857143 L112.752494,537.142857 L105.462788,537.142857 L105.031579,535.857143 L113.378947,535.857143 Z M100.933397,530.714286 L101.839563,532.531172 L104.389474,532.531172 L102.413202,533.859496 L103.624573,536.5 L100.933397,534.816644 L98.2007992,536.5 L99.4166757,533.859496 L97.3263158,532.531172 L100.081295,532.531172 L100.933397,530.714286 Z" id="h2h-logo-svg"></path>
        </g>
    </g>
</svg>