<?xml version="1.0" encoding="UTF-8"?>
<svg width="101px" height="104px" viewBox="0 0 101 104" version="1.1" xmlns="http://www.w3.org/2000/svg" xmlns:xlink="http://www.w3.org/1999/xlink">
    <title>Group 11</title>
    <defs>
        <filter x="-4.2%" y="-4.1%" width="108.4%" height="108.2%" filterUnits="objectBoundingBox" id="filter-1">
            <feOffset dx="0" dy="0" in="SourceAlpha" result="shadowOffsetOuter1"></feOffset>
            <feGaussianBlur stdDeviation="1" in="shadowOffsetOuter1" result="shadowBlurOuter1"></feGaussianBlur>
            <feColorMatrix values="0 0 0 0 0   0 0 0 0 0   0 0 0 0 0  0 0 0 0.5 0" type="matrix" in="shadowBlurOuter1" result="shadowMatrixOuter1"></feColorMatrix>
            <feMerge>
                <feMergeNode in="shadowMatrixOuter1"></feMergeNode>
                <feMergeNode in="SourceGraphic"></feMergeNode>
            </feMerge>
        </filter>
        <linearGradient x1="50%" y1="56.2901739%" x2="34.9002713%" y2="45.7872501%" id="linearGradient-2">
            <stop stop-color="#092576" offset="0%"></stop>
            <stop stop-color="#171717" offset="100%"></stop>
        </linearGradient>
        <linearGradient x1="50%" y1="40.5169476%" x2="50%" y2="100%" id="linearGradient-3">
            <stop stop-color="#171717" offset="0%"></stop>
            <stop stop-color="#092576" offset="100%"></stop>
        </linearGradient>
        <linearGradient x1="50%" y1="0%" x2="50%" y2="100%" id="linearGradient-4">
            <stop stop-color="#FFE035" offset="0%"></stop>
            <stop stop-color="#FF6118" offset="100%"></stop>
        </linearGradient>
        <linearGradient x1="50%" y1="9.77381603%" x2="50%" y2="50%" id="linearGradient-5">
            <stop stop-color="#092576" offset="0%"></stop>
            <stop stop-color="#171717" offset="100%"></stop>
        </linearGradient>
        <linearGradient x1="50%" y1="14.2313915%" x2="50%" y2="62.1263205%" id="linearGradient-6">
            <stop stop-color="#FFE035" offset="0%"></stop>
            <stop stop-color="#FF6118" offset="100%"></stop>
        </linearGradient>
    </defs>
    <g id="Page-1" stroke="none" stroke-width="1" fill="none" fill-rule="evenodd">
        <g id="Group-11" filter="url(#filter-1)" transform="translate(3.000000, 3.000000)">
            <g id="Group-9" transform="translate(0.000000, 0.000000)">
                <g id="Group-8" transform="translate(0.000000, 0.000000)">
                    <g id="Group-6" transform="translate(0.000000, 0.000000)">
                        <g id="Group-3" transform="translate(0.000000, 0.000000)">
                            <g id="Group-2" transform="translate(0.000000, 0.000000)">
                                <polygon id="Path-4-Copy" fill="#FFFFFF" points="25.4383546 26.6524651 5.79565545 26.596231 0 17.8660396 17.0979488 17.8660396 13.8612015 12.425756 30.9501067 12.425756 27.2176839 9.53294248 42.0261357 9.53294248 47.1977847 7.81597009e-14 52.5213511 9.53294248 67.2638164 9.53294248 63.3212376 12.425756 80.8463888 12.425756 77.5876784 17.8660396 95 17.8660396 89.096252 26.7305876 67.4150431 26.6193561 72.1917585 47.6316999 90.6891283 47.5707059 75.4232586 67.8004629 67.9113319 67.8004629 45.6160166 97.7369851 23.3522196 67.8004629 15.8191913 67.8004629 0.822372092 47.5707059 20.7823442 47.6444129"></polygon>
                                <path d="M29.6544997,46 L30.654974,39.2741433 L33.8444739,39.2741433 L33.0641913,46 L37.718691,46 L38.9311697,29 L35.0364016,29 L34.2284712,35.9641745 L31.1473334,35.9641745 L32.1832576,29 L28.2884895,29 L25,46 L29.6544997,46 Z M52.0610447,46 L51.8843113,42.6900312 L46.8013118,42.6900312 L49.9206555,39.0093458 C50.5132374,38.2855659 50.9288518,37.6103323 51.17177,36.9836449 C51.411106,36.3569574 51.5058662,35.6022845 51.4587373,34.7196262 L51.3286616,32.2834891 C51.2117819,30.0944964 50.02869,29 47.779386,29 L45.039462,29 C42.82035,29 41.6506478,30.0944964 41.5303556,32.2834891 L41.3906614,34.8255452 L45.6182465,34.8255452 L45.6365786,32.8925234 C45.6402618,32.5041537 45.8379702,32.3099688 46.2297038,32.3099688 L46.6997841,32.3099688 C47.0915178,32.3099688 47.2890748,32.5041537 47.2924552,32.8925234 L47.3081282,34.6931464 C47.3131988,35.2757009 47.2361232,35.7655763 47.0758693,36.1627726 C46.9142393,36.5599688 46.5865584,37.0321911 46.0895928,37.5794393 L41.0738594,42.9813084 L40.9118943,46 L52.0610447,46 Z M59.9358087,46 L59.1555261,39.2741433 L62.345026,39.2741433 L63.3455003,46 L68,46 L64.7115105,29 L60.8167424,29 L61.8526666,35.9641745 L58.7715288,35.9641745 L57.9635984,29 L54.0688303,29 L55.281309,46 L59.9358087,46 Z" id="H2H" fill="url(#linearGradient-2)"></path>
                                <path d="M7.79746624,25 L4,20.0654078 L20.6925446,20.0654078 L17.0919995,14.8080324 L36.8020985,14.8080324 C34.1217495,12.9048839 32.781575,11.9533096 32.781575,11.9533096 C32.781575,11.9533096 36.3424653,11.9533096 43.4642459,11.9533096 L46.8924847,4 L50.7076941,11.9533096 L61.1884306,11.9533096 L57.1286185,14.8080324 L77.1940601,14.8080324 L73.3598401,20.0654078 L90,20.0654078 L86.5726061,25 L7.79746624,25 Z" id="Path-7-Copy" fill="url(#linearGradient-3)"></path>
                                <polygon id="Path-10-Copy" fill="#FFFFFF" points="41 14.8262669 45.290541 14.8262669 46.6175847 12 48.0288278 14.8262669 52 14.8262669 48.9222 16.8925489 50.8087615 21 46.6175847 18.3814467 42.3619005 21 44.2554785 16.8925489"></polygon>
                                <polygon id="Path-16-Copy-2" fill="url(#linearGradient-4)" points="26 20 39 20 38.3284445 22 26.9756249 22"></polygon>
                                <polygon id="Path-16-Copy-3" fill="url(#linearGradient-4)" transform="translate(59.500000, 21.000000) scale(-1, 1) translate(-59.500000, -21.000000) " points="53 20 66 20 65.3284445 22 53.9756249 22"></polygon>
                                <polygon id="Path-8-Copy" fill="url(#linearGradient-5)" points="5 50 86 50 74.3199895 65.1728504 67.4439848 65.1728504 45.5 94 23.2817926 65.1728504 16.617842 65.1728504"></polygon>
                                <path d="M26.6740553,61 C27.5839769,61 28.0389377,60.6137072 28.0389377,59.8411215 L28.0389377,59.8411215 L28.0389377,58.7943925 L26.4140777,58.7943925 L26.4140777,59.7196262 C26.4140777,59.8566978 26.3367034,59.9252336 26.1819548,59.9252336 L26.1819548,59.9252336 L25.8569828,59.9252336 C25.7022343,59.9252336 25.62486,59.8566978 25.62486,59.7196262 L25.62486,59.7196262 L25.62486,56.2803738 C25.62486,56.1433022 25.7022343,56.0747664 25.8569828,56.0747664 L25.8569828,56.0747664 L26.1819548,56.0747664 C26.3367034,56.0747664 26.4140777,56.1433022 26.4140777,56.2803738 L26.4140777,56.2803738 L26.4140777,57.2429907 L28.0389377,57.2429907 L28.0389377,56.1588785 C28.0389377,55.3862928 27.5839769,55 26.6740553,55 L26.6740553,55 L25.3648824,55 C24.4549608,55 24,55.3862928 24,56.1588785 L24,56.1588785 L24,59.8411215 C24,60.6137072 24.4549608,61 25.3648824,61 L25.3648824,61 L26.6740553,61 Z M30.8761422,61 L30.8761422,58.6261682 L32.0460414,58.6261682 L32.0460414,61 L33.6430466,61 L33.6430466,55 L32.0460414,55 L32.0460414,57.4579439 L30.8761422,57.4579439 L30.8761422,55 L29.2791369,55 L29.2791369,61 L30.8761422,61 Z M36.2481283,61 L36.4431115,60.1028037 L37.8729883,60.1028037 L38.0586866,61 L39.6928315,61 L38.1608206,55 L36.1831339,55 L34.651123,61 L36.2481283,61 Z M37.6222956,58.9439252 L36.6938042,58.9439252 L37.1673348,56.7850467 L37.6222956,58.9439252 Z M44.1734658,61 L44.1734658,59.8317757 L42.3257678,59.8317757 L42.3257678,55 L40.7009079,55 L40.7009079,61 L44.1734658,61 Z M48.6541001,61 L48.6541001,59.8317757 L46.8064022,59.8317757 L46.8064022,55 L45.1815422,55 L45.1815422,61 L48.6541001,61 Z M53.3204327,61 L53.3204327,59.8317757 L51.2870365,59.8317757 L51.2870365,58.5607477 L52.967606,58.5607477 L52.967606,57.3925234 L51.2870365,57.3925234 L51.2870365,56.1682243 L53.2368685,56.1682243 L53.2368685,55 L49.6621765,55 L49.6621765,61 L53.3204327,61 Z M55.9533691,61 L55.9533691,57.8504673 L57.2811118,61 L58.673849,61 L58.673849,55 L57.1882627,55 L57.1882627,58.2056075 L55.86052,55 L54.4677828,55 L54.4677828,61 L55.9533691,61 Z M62.6902376,61 C63.6001592,61 64.05512,60.6137072 64.05512,59.8411215 L64.05512,59.8411215 L64.05512,57.682243 L61.9660143,57.682243 L61.9660143,58.7196262 L62.43026,58.7196262 L62.43026,59.7196262 C62.43026,59.8566978 62.3528857,59.9252336 62.1981371,59.9252336 L62.1981371,59.9252336 L61.8638802,59.9252336 C61.7091316,59.9252336 61.6317574,59.8566978 61.6317574,59.7196262 L61.6317574,59.7196262 L61.6317574,56.2803738 C61.6317574,56.1433022 61.7091316,56.0747664 61.8638802,56.0747664 L61.8638802,56.0747664 L62.1981371,56.0747664 C62.3528857,56.0747664 62.43026,56.1433022 62.43026,56.2803738 L62.43026,56.2803738 L62.43026,57.0560748 L64.05512,57.0560748 L64.05512,56.1588785 C64.05512,55.3862928 63.6001592,55 62.6902376,55 L62.6902376,55 L61.3717798,55 C60.4618582,55 60.0068974,55.3862928 60.0068974,56.1588785 L60.0068974,56.1588785 L60.0068974,59.8411215 C60.0068974,60.6137072 60.4618582,61 61.3717798,61 L61.3717798,61 L62.6902376,61 Z M69,61 L69,59.8317757 L66.9666038,59.8317757 L66.9666038,58.5607477 L68.6471733,58.5607477 L68.6471733,57.3925234 L66.9666038,57.3925234 L66.9666038,56.1682243 L68.9164358,56.1682243 L68.9164358,55 L65.3417438,55 L65.3417438,61 L69,61 Z" id="CHALLENGE" fill="#FFFFFF" fill-rule="nonzero"></path>
                                <polygon id="Path-3-Copy-2" fill="url(#linearGradient-6)" points="48.5533247 65 47.276012 74.3196701 53 74.3196701 44.3458381 87 47.276012 76.7765731 42 77.3637575"></polygon>
                            </g>
                        </g>
                    </g>
                </g>
            </g>
        </g>
    </g>
</svg>