<?xml version="1.0" encoding="UTF-8"?>
<svg width="40px" height="40px" viewBox="0 0 40 40" version="1.1" xmlns="http://www.w3.org/2000/svg" xmlns:xlink="http://www.w3.org/1999/xlink">
    <!-- Generator: sketchtool 58 (101010) - https://sketch.com -->
    <title>74C69D14-C03A-4D56-BC45-7D2E8F9A16E2</title>
    <desc>Created with sketchtool.</desc>
    <g id="Page-1" stroke="none" stroke-width="1" fill="none" fill-rule="evenodd">
        <g id="2-F2P" transform="translate(-77.000000, -467.000000)" fill="#00BFEB" fill-rule="nonzero">
            <g id="hof-icon1" transform="translate(77.000000, 467.000000)">
                <path d="M39.1304348,5.2173913 L29.5652174,5.2173913 L29.5652174,2.60869565 C29.5652174,1.17043478 28.3947826,3.19744231e-14 26.9565217,3.19744231e-14 L13.0434783,3.19744231e-14 C11.6052174,3.19744231e-14 10.4347826,1.17043478 10.4347826,2.60869565 L10.4347826,5.2173913 L0.869565217,5.2173913 C0.389565217,5.2173913 3.19744231e-14,5.60695652 3.19744231e-14,6.08695652 L3.19744231e-14,30.4347826 L3.19744231e-14,39.1304348 C3.19744231e-14,39.6113043 0.389565217,40 0.869565217,40 L6.08695652,40 C6.56695652,40 6.95652174,39.6113043 6.95652174,39.1304348 L6.95652174,36.5217391 L33.0434783,36.5217391 L33.0434783,39.1304348 C33.0434783,39.6113043 33.4330435,40 33.9130435,40 L39.1304348,40 C39.6104348,40 40,39.6113043 40,39.1304348 L40,30.4347826 L40,6.08695652 C40,5.60695652 39.6104348,5.2173913 39.1304348,5.2173913 Z M12.173913,2.60869565 C12.173913,2.12956522 12.5643478,1.73913043 13.0434783,1.73913043 L26.9565217,1.73913043 C27.4356522,1.73913043 27.826087,2.12956522 27.826087,2.60869565 L27.826087,5.2173913 L12.173913,5.2173913 L12.173913,2.60869565 Z M5.2173913,38.2608696 L1.73913043,38.2608696 L1.73913043,31.3043478 L5.2173913,31.3043478 L5.2173913,38.2608696 Z M33.0434783,34.7826087 L6.95652174,34.7826087 L6.95652174,31.3043478 L33.0434783,31.3043478 L33.0434783,34.7826087 Z M38.2608696,38.2608696 L34.7826087,38.2608696 L34.7826087,31.3043478 L38.2608696,31.3043478 L38.2608696,38.2608696 Z M38.2608696,29.5652174 L20.8695652,29.5652174 L20.8695652,21.7391304 C20.8695652,21.2582609 20.48,20.8695652 20,20.8695652 C19.52,20.8695652 19.1304348,21.2582609 19.1304348,21.7391304 L19.1304348,29.5652174 L1.73913043,29.5652174 L1.73913043,6.95652174 L19.1304348,6.95652174 L19.1304348,14.7826087 C19.1304348,15.2626087 19.52,15.6521739 20,15.6521739 C20.48,15.6521739 20.8695652,15.2626087 20.8695652,14.7826087 L20.8695652,6.95652174 L38.2608696,6.95652174 L38.2608696,29.5652174 Z" id="Shape"></path>
                <path d="M13.0434783,12.173913 L7.82608696,12.173913 C7.34608696,12.173913 6.95652174,12.5634783 6.95652174,13.0434783 C6.95652174,13.5234783 7.34608696,13.9130435 7.82608696,13.9130435 L12.173913,13.9130435 L12.173913,17.3913043 L7.82608696,17.3913043 C7.34608696,17.3913043 6.95652174,17.7808696 6.95652174,18.2608696 L6.95652174,23.4782609 C6.95652174,23.9591304 7.34608696,24.3478261 7.82608696,24.3478261 L13.0434783,24.3478261 C13.5234783,24.3478261 13.9130435,23.9591304 13.9130435,23.4782609 C13.9130435,22.9973913 13.5234783,22.6086957 13.0434783,22.6086957 L8.69565217,22.6086957 L8.69565217,19.1304348 L13.0434783,19.1304348 C13.5234783,19.1304348 13.9130435,18.7408696 13.9130435,18.2608696 L13.9130435,13.0434783 C13.9130435,12.5634783 13.5234783,12.173913 13.0434783,12.173913 Z" id="Path"></path>
                <path d="M26.9565217,24.3478261 L32.173913,24.3478261 C32.653913,24.3478261 33.0434783,23.9591304 33.0434783,23.4782609 L33.0434783,13.0434783 C33.0434783,12.5634783 32.653913,12.173913 32.173913,12.173913 L26.9565217,12.173913 C26.4765217,12.173913 26.0869565,12.5634783 26.0869565,13.0434783 L26.0869565,23.4782609 C26.0869565,23.9591304 26.4765217,24.3478261 26.9565217,24.3478261 Z M27.826087,13.9130435 L31.3043478,13.9130435 L31.3043478,22.6086957 L27.826087,22.6086957 L27.826087,13.9130435 Z" id="Shape"></path>
            </g>
        </g>
    </g>
</svg>