<?xml version="1.0" encoding="UTF-8"?>
<svg width="44px" height="44px" viewBox="0 0 44 44" version="1.1" xmlns="http://www.w3.org/2000/svg" xmlns:xlink="http://www.w3.org/1999/xlink">
    <!-- Generator: sketchtool 58 (101010) - https://sketch.com -->
    <title>1E7DEA4B-CADA-4BDC-8F35-5587229169AE</title>
    <desc>Created with sketchtool.</desc>
    <g id="Page-1" stroke="none" stroke-width="1" fill="none" fill-rule="evenodd">
        <g id="2-F2P" transform="translate(-262.000000, -561.000000)" fill="#00BFEB" fill-rule="nonzero">
            <g id="hof-icon1" transform="translate(262.000000, 561.000000)">
                <g id="Group-4">
                    <path d="M7.77423415,38.0365914 L21.6931313,43.8971796 C21.7839875,43.935096 21.880567,43.9544119 21.9771465,43.9544119 C22.0740838,43.9544119 22.1706633,43.935096 22.2615196,43.8971796 L36.1804167,38.0365914 C36.4522702,37.9221268 36.6286172,37.6556389 36.6286172,37.3612502 L36.6286172,31.7714422 L43.5354836,28.4999005 C43.7576164,28.3943784 43.9121436,28.1847651 43.9471985,27.9418855 C43.9822533,27.6986482 43.8921123,27.4539801 43.708969,27.2905103 L37.1158072,21.4299221 L37.1115148,21.4349299 C37.0410475,21.3726898 36.9634262,21.3186768 36.8711391,21.2861259 L32.3805492,19.7147414 C34.5643194,18.1390644 37.0710944,16.8631416 39.6286632,16.0858553 L39.2029979,14.6836638 C36.1782705,15.6029578 33.2179294,17.1840002 30.7236739,19.1345488 L25.7215702,17.3839556 C25.9962853,16.9675906 26.2752928,16.5537295 26.5736162,16.1531034 C27.4313854,15.0023762 28.265904,14.1145601 29.111869,13.4603233 C29.2914354,14.6160581 30.1148653,15.6630517 31.2509266,16.0307693 C32.7314548,16.5115206 34.4559358,15.7456808 35.0947914,14.3266773 C35.3344517,13.7951323 35.4045612,13.2417674 35.2990392,12.7263189 C35.1123187,11.8134636 34.3489829,11.0433314 33.352783,10.7628931 C32.9754075,10.6566556 32.5687004,10.6155199 32.1373119,10.6434207 C33.7122735,9.33208537 35.6646105,8.48397419 37.7013653,8.23537133 L37.5239451,6.78131305 C34.9738882,7.09179822 32.537938,8.23179427 30.6657261,9.99061458 C30.2840583,10.349032 29.8040222,10.8480262 29.470644,11.4786546 C28.0620139,12.2391289 26.7413784,13.4757044 25.3985654,15.2778067 C25.0093857,15.8000515 24.639522,16.3355313 24.2886164,16.8828153 L22.2196685,16.1581111 C22.062995,16.1033828 21.8923712,16.1033828 21.7356977,16.1581111 L16.1176314,18.1243986 C15.4251205,17.2101125 14.6700117,16.4074294 13.8530205,15.7267227 C11.8613362,14.066628 9.48476469,13.1298066 7.16184846,13.0865247 C4.88328719,13.0507545 2.85654806,13.9328475 1.74588362,15.4638117 C1.05444583,16.4167296 0.770072784,17.7001641 0.986124743,18.896677 C1.174276,19.9390205 1.72084453,20.8078784 2.52603158,21.3419274 L3.3362264,20.1214484 C2.86656381,19.8102478 2.54427431,19.281922 2.42802121,18.6366277 C2.28350963,17.8371639 2.47631099,16.9507786 2.93202319,16.3244425 C3.76117629,15.1808695 5.33756858,14.5144708 7.13394767,14.5523872 C9.1249166,14.5892305 11.1784833,15.4065794 12.9147684,16.8534837 C13.5328773,17.3692899 14.1123544,17.9677252 14.655346,18.6380585 L7.08351172,21.2886298 C6.99122458,21.3208229 6.91324561,21.3748359 6.84313603,21.437076 L6.83884361,21.4320682 L0.245681814,27.2926565 C0.0625384314,27.4561263 -0.0276024525,27.7007944 0.0074523082,27.9440317 C0.0417916742,28.187269 0.196318904,28.39724 0.419167223,28.5020467 L7.3256759,31.7714422 L7.3256759,37.3612502 C7.3256759,37.6556389 7.50238069,37.9221268 7.77423415,38.0365914 Z M30.5695043,12.6930526 C30.5791623,12.6461936 30.5909665,12.5993348 30.6049169,12.5524758 C30.8342038,12.4491 31.0663523,12.361463 31.3013625,12.288134 C31.9484453,12.0860325 32.5057448,12.0463275 32.9571647,12.1743849 C33.4157385,12.3035152 33.788464,12.6508438 33.8639391,13.0207076 C33.9065056,13.2296055 33.8693046,13.4799968 33.758417,13.7260958 C33.4282581,14.4586693 32.4671131,14.8843346 31.7023464,14.6382357 C30.9375796,14.3892752 30.4078231,13.4807123 30.5695043,12.6930526 Z M8.79082296,32.465384 L14.3380643,35.0930623 C14.4375054,35.1399213 14.5444583,35.1635296 14.6514112,35.1635296 C14.8288314,35.1635296 15.0041053,35.0987855 15.1418206,34.9750206 L21.244573,29.4821499 L21.244573,42.118328 L8.79082296,36.8747755 L8.79082296,32.465384 Z M35.1634701,36.8747755 L22.7097201,42.118328 L22.7097201,29.4821499 L28.8128303,34.9750206 C28.9505455,35.0987855 29.1258194,35.1635296 29.3028819,35.1635296 C29.4098348,35.1635296 29.5167877,35.1399213 29.6165864,35.0930623 L35.1634701,32.465384 L35.1634701,36.8747755 Z M29.4305814,33.5599518 L23.3428524,28.0810315 L36.4808863,22.8253173 L41.9075822,27.6492853 L29.4305814,33.5599518 Z M15.5578279,19.8724879 C15.9960128,20.5406751 16.403793,21.2635906 16.7768761,22.0451694 L18.0989424,21.4138254 C17.7534023,20.6898367 17.3760267,20.0137802 16.976116,19.3763553 L21.9771465,17.6257621 L23.5252805,18.1669651 C22.8198923,19.4092639 22.1999949,20.7002102 21.6924158,22.0401615 L23.0624141,22.5595447 C23.575001,21.2063583 24.2095642,19.9075427 24.934626,18.6598784 L29.4173465,20.2284013 C28.6736842,20.8987347 27.9765232,21.595538 27.3616335,22.3252499 L28.4826714,23.2685099 C29.2188219,22.3939287 30.0730141,21.5633449 31.0026814,20.7839124 L34.5417842,22.0226341 L21.9771465,27.0487038 L9.41286662,22.0233495 L15.5578279,19.8724879 Z M7.47376454,22.8253173 L20.6117983,28.0810315 L14.5240693,33.5599518 L2.04706868,27.6492853 L7.47376454,22.8253173 Z" id="Shape"></path>
                    <path d="M13.455256,2.63053988 C13.3726268,2.24887199 13.1987837,1.95376793 12.9394499,1.7545279 C12.5849673,1.48195908 12.1732523,1.46729332 11.8992526,1.47909746 C10.4208706,1.54419917 9.05409158,2.44882739 8.41595135,3.78377087 L9.73837533,4.41511482 C10.1397169,3.57558839 11.0339717,2.98287634 11.9643544,2.94174059 C11.986532,2.94102523 12.0054901,2.94030978 12.0215867,2.94030978 C12.023733,2.94030978 12.0251637,2.94102523 12.0251637,2.94174059 C12.11602,3.35810563 11.9461116,3.83062984 11.7490179,4.37862918 C11.6113026,4.7595817 11.4700103,5.15341159 11.3973969,5.58444238 C11.3734308,5.73145789 11.2986711,6.1807315 11.5894828,6.56883806 C11.8216313,6.87789252 12.1886335,7.04064692 12.6729619,7.01739622 C13.2170266,7.00344592 13.7235325,6.88969666 14.2135841,6.77988215 C14.595252,6.69403369 14.9615388,6.61211997 15.3439221,6.58922705 L14.7798262,9.03841212 C14.7315365,9.24802549 14.6506959,9.59893105 14.798069,9.97451802 C15.0706379,10.6670289 15.8647361,10.8662689 16.5093149,10.7070916 C16.6370146,10.6756138 16.763641,10.6323319 16.8888368,10.5886922 C17.0272673,10.5400447 17.1642672,10.4763738 17.2486848,10.4939012 C17.4046429,10.501413 17.628922,10.8676998 17.6836504,11.3284199 C17.6990316,11.4579079 17.7101204,11.5898999 17.7204937,11.7233228 C17.7702143,12.3453663 17.8274466,13.0500392 18.3078403,13.6427512 L19.4456901,12.7188072 C19.2514579,12.4791469 19.2171185,12.0552702 19.1809907,11.6052811 C19.1684711,11.4536155 19.1563092,11.3019499 19.1384241,11.154219 C19.01609,10.1358416 18.4069237,9.08384029 17.321656,9.03018495 C16.9614502,9.01337303 16.6531112,9.11889503 16.4059391,9.20545894 C16.3483491,9.22584792 16.2904015,9.24659459 16.2317383,9.26483741 L16.8412623,6.62177795 C16.8798942,6.45401577 16.9614502,6.10668718 16.7868916,5.74970062 C16.6763618,5.52112916 16.3798269,5.13445332 15.646538,5.11406433 C15.017698,5.09653696 14.4485942,5.22530965 13.8934408,5.35050537 C13.5629243,5.42526505 13.2456427,5.49644775 12.9101183,5.53007169 C12.968066,5.31974296 13.0464027,5.10226019 13.1279587,4.87511945 C13.3651151,4.210867 13.6362531,3.45754671 13.455256,2.63053988 Z" id="Path"></path>
                    <path d="M0.1870187,11.0397544 L1.62712658,11.310177 C1.8453248,10.1462149 2.87121391,9.10709089 4.17932981,8.72542292 C5.36117695,8.38059826 6.79162695,8.52045974 8.20705343,9.12032584 C9.64000737,9.72770374 10.8969719,10.7020838 11.8420203,11.9393746 L13.0063401,11.0501277 C11.9074798,9.61109287 10.4451943,8.47717783 8.77866114,7.77107419 C7.05418012,7.04064692 5.27532849,6.87932333 3.76904568,7.31893897 C1.91650751,7.85978427 0.510023465,9.32028123 0.1870187,11.0397544 Z" id="Path"></path>
                    <polygon id="Path" points="19.7833607 5.16342724 21.1272468 4.57965771 22.8960828 8.65066324 21.5521967 9.23443277"></polygon>
                    <path d="M23.7545674,9.50270926 L25.0730567,10.1415648 C25.6664841,8.91679347 26.4366164,7.79003237 27.3616335,6.79311719 L26.2878124,5.79691736 C25.2629963,6.89935464 24.4109504,8.14701893 23.7545674,9.50270926 Z" id="Path"></path>
                    <path d="M22.9422263,5.45245039 L24.4041541,5.36588648 C24.3347599,4.18797408 24.6599109,3.00040371 25.319871,2.0224467 L24.1061884,1.20295158 C23.2666619,2.44596578 22.8528008,3.95511011 22.9422263,5.45245039 Z" id="Path"></path>
                    <path d="M41.6235668,14.0895209 L41.8893394,15.5303442 C42.6051009,15.3987099 43.3151392,15.3099999 43.9997807,15.266718 L43.908209,13.8044325 C43.1656198,13.8512915 42.3969184,13.9475133 41.6235668,14.0895209 Z" id="Path"></path>
                    <polygon id="Path" points="18.3142789 3.28514993e-13 19.7794259 3.28514993e-13 19.7794259 1.46514706 18.3142789 1.46514706"></polygon>
                    <polygon id="Path" points="31.5006025 1.46514706 32.9657495 1.46514706 32.9657495 2.93029413 31.5006025 2.93029413"></polygon>
                    <polygon id="Path" points="41.0240584 8.79088239 42.4892055 8.79088239 42.4892055 10.2560295 41.0240584 10.2560295"></polygon>
                    <polygon id="Path" points="2.19766117 1.46514706 3.66280823 1.46514706 3.66280823 2.93029413 2.19766117 2.93029413"></polygon>
                    <polygon id="Path" points="14.6514112 13.1863236 16.1165583 13.1863236 16.1165583 14.6514706 14.6514112 14.6514706"></polygon>
                    <polygon id="Path" points="6.59310236 17.5817648 8.05824943 17.5817648 8.05824943 19.0469118 6.59310236 19.0469118"></polygon>
                </g>
            </g>
        </g>
    </g>
</svg>