<?xml version="1.0" encoding="UTF-8"?>
<svg width="40px" height="40px" viewBox="0 0 40 40" version="1.1" xmlns="http://www.w3.org/2000/svg" xmlns:xlink="http://www.w3.org/1999/xlink">
    <!-- Generator: sketchtool 58 (101010) - https://sketch.com -->
    <title>6EC5F8BD-8E86-4FDD-89FC-4FFF19BEBF1E</title>
    <desc>Created with sketchtool.</desc>
    <g id="Page-1" stroke="none" stroke-width="1" fill="none" fill-rule="evenodd">
        <g id="2-F2P" transform="translate(-264.000000, -368.000000)" fill="#00BFEB" fill-rule="nonzero">
            <g id="hof-icon1" transform="translate(264.000000, 368.000000)">
                <path d="M36.9023594,2.60304844 L30.1225969,2.60304844 L30.1225969,0.765625 C30.1225969,0.342770313 29.77975,4.61852778e-14 29.3569719,4.61852778e-14 L9.84272187,4.61852778e-14 C9.41994375,4.61852778e-14 9.07709687,0.342770313 9.07709687,0.765625 L9.07709687,2.60304844 L2.29771719,2.60304844 C1.03076094,2.60304844 -1.91846539e-13,3.63335 -1.91846539e-13,4.89984688 L-1.91846539e-13,13.9338391 C-1.91846539e-13,14.7593359 0.446282812,15.5250375 1.16466875,15.9320438 L5.74517344,18.5272063 L5.74517344,31.3126844 C5.74517344,31.6223031 5.93167969,31.90145 6.21771719,32.0199687 C6.50367812,32.1384109 6.83297344,32.0730266 7.05201875,31.8542109 L8.88538437,30.0217641 L10.7315359,31.8669203 C10.878,32.0133078 11.0737703,32.0910187 11.2729094,32.0910187 C11.3715984,32.0910187 11.4711297,32.0718781 11.5658375,32.0326781 C11.851875,31.9141594 12.0383812,31.6350125 12.0383812,31.3253937 L12.0383812,27.5242187 C12.0383812,27.1013641 11.6955344,26.7585937 11.2727562,26.7585937 C10.8499781,26.7585937 10.5071312,27.1013641 10.5071312,27.5242187 L10.5071312,29.4777875 L9.42660469,28.3977969 C9.12755156,28.09905 8.64306406,28.09905 8.3440875,28.3977969 L7.27634687,29.4650016 L7.27634687,15.4376797 C7.27634687,14.2900078 8.03469844,13.3159797 9.07702031,12.9896703 L9.07702031,14.9629156 C9.07702031,17.67185 9.96774844,20.3608781 11.5852078,22.5346406 C11.6032766,22.5589875 11.6228766,22.5822625 11.6438547,22.6043125 L16.9960328,28.2498781 L16.9958031,30.8274312 L13.5345656,33.1955859 C13.4955187,33.2223062 13.459075,33.2525484 13.4256172,33.2859297 C13.0717453,33.6395719 12.9024656,34.1215328 12.9424312,34.6014266 L8.89181562,34.6014266 C8.4690375,34.6014266 8.12619062,34.9441969 8.12619062,35.3670516 L8.12619062,38.434375 C8.12619062,38.8572297 8.4690375,39.2 8.89181562,39.2 L30.3081844,39.2 C30.7309625,39.2 31.0738094,38.8572297 31.0738094,38.434375 L31.0738094,35.3670516 C31.0738094,34.9441969 30.7309625,34.6014266 30.3081844,34.6014266 L26.2508312,34.6014266 C26.2907969,34.1215328 26.1215937,33.6396484 25.7676453,33.2859297 C25.7341109,33.2523953 25.6975906,33.2221531 25.6584672,33.1953562 L22.1943203,30.8272016 L22.1943203,28.2500312 L27.1614656,23.0253297 L27.1614656,31.3253937 C27.1614656,31.6350125 27.3479719,31.9141594 27.6340094,32.0326781 C27.7287172,32.0719547 27.8282484,32.0910187 27.9269375,32.0910187 C28.1261531,32.0910187 28.3218469,32.0132312 28.4683109,31.8669203 L30.3144625,30.0217641 L32.1478281,31.8542109 C32.3668734,32.0731031 32.6962453,32.1384109 32.9821297,32.0199687 C33.2681672,31.90145 33.4546734,31.6223031 33.4546734,31.3126844 L33.4546734,18.5272063 L38.0351781,15.9320438 C38.7535641,15.5250375 39.1998469,14.7594125 39.1998469,13.9338391 L39.1998469,4.89984688 C39.1998469,3.63335 38.1693156,2.60304844 36.9023594,2.60304844 Z M9.07702031,11.41455 C7.84015312,11.6493672 6.79859687,12.4410234 6.22430156,13.5184109 L4.59528125,12.5955266 L4.59528125,7.19664531 L9.07702031,7.19664531 L9.07702031,11.41455 L9.07702031,11.41455 Z M9.07709687,5.66547188 L3.82973281,5.66547188 C3.40695469,5.66547188 3.06410781,6.00824219 3.06410781,6.43109688 L3.06410781,13.0418094 C3.06410781,13.3175875 3.21240937,13.5720047 3.45227969,13.7079797 L5.76645781,15.0191125 C5.75237031,15.1567719 5.74517344,15.2964984 5.74517344,15.4378328 L5.74517344,16.7671875 L1.91949844,14.5997031 C1.68001094,14.4640344 1.53125,14.2089281 1.53125,13.9338391 L1.53125,4.89984688 C1.53125,4.47768125 1.87509219,4.13429844 2.29771719,4.13429844 L9.07709687,4.13429844 L9.07709687,5.66547188 Z M29.5426359,36.1326766 L29.5426359,37.66875 L29.5426359,37.66875 L9.65751719,37.66875 L9.65751719,36.1326766 L29.5426359,36.1326766 Z M24.7127672,34.4037422 C24.7270078,34.4290844 24.7358891,34.4662937 24.7147578,34.5172078 C24.6808406,34.5990531 24.6174469,34.60135 24.5908797,34.6014266 L14.6024594,34.6014266 C14.5758922,34.60135 14.5124984,34.5990531 14.4785812,34.5172078 C14.4575266,34.4662172 14.4664844,34.4290078 14.4806484,34.4036656 L17.9981594,31.9969234 L21.1920406,31.9969234 L24.7127672,34.4037422 Z M18.5271297,30.46575 L18.5272828,28.7097891 L20.6631469,28.7097891 L20.6631469,30.46575 L18.5271297,30.46575 Z M28.5914234,14.97195 C28.5914234,17.3332141 27.8214344,19.6780937 26.4224078,21.5805187 L21.1002422,27.1785391 L18.0902641,27.1785391 L12.7870094,21.5845766 C11.3817812,19.679625 10.6083469,17.3299219 10.6083469,14.9629922 L10.6083469,12.1133359 C10.6083469,12.1113453 10.6086531,12.1094313 10.6086531,12.1074406 C10.6086531,12.10545 10.6083469,12.1035359 10.6083469,12.1015453 L10.6083469,6.43691563 C10.6083469,6.434925 10.6086531,6.43301094 10.6086531,6.43102031 C10.6086531,6.42902969 10.6083469,6.42711563 10.6083469,6.425125 L10.6083469,3.37456875 C10.6083469,3.37257813 10.6086531,3.37066406 10.6086531,3.36867344 C10.6086531,3.36668281 10.6083469,3.36476875 10.6083469,3.36277813 L10.6083469,1.53125 L28.5914234,1.53125 L28.5914234,14.97195 Z M31.9235766,29.4650016 L30.8558359,28.3977969 C30.5567828,28.0991266 30.0722953,28.09905 29.7733187,28.3977969 L28.6927922,29.4777875 L28.6927922,20.8166547 C29.62295,19.0182781 30.1226734,17.0003969 30.1226734,14.97195 L30.1226734,12.9895938 C31.1650719,13.3158266 31.9235766,14.2898547 31.9235766,15.4376797 L31.9235766,29.4650016 L31.9235766,29.4650016 Z M32.9756984,13.5184875 C32.4014031,12.4409469 31.3596937,11.6492906 30.1225969,11.41455 L30.1225969,7.19664531 L34.6046422,7.19664531 L34.6046422,12.5955266 L32.9756984,13.5184875 Z M37.66875,13.9338391 C37.66875,14.2089281 37.5199891,14.4640344 37.2805016,14.5997031 L33.4548266,16.7671875 L33.4548266,15.4376797 C33.4548266,15.2963453 33.4476297,15.1566953 33.4335422,15.0190359 L35.7477203,13.7079031 C35.9876672,13.5720047 36.1358922,13.3175109 36.1358922,13.0417328 L36.1358922,6.43102031 C36.1358922,6.00816563 35.7930453,5.66539531 35.3702672,5.66539531 L30.1225969,5.66539531 L30.1225969,4.13429844 L36.9023594,4.13429844 C37.3249844,4.13429844 37.66875,4.47768125 37.66875,4.89984688 L37.66875,13.9338391 Z" id="Shape"></path>
                <path d="M26.8839266,9.5605125 C26.7930469,9.28358594 26.5529469,9.08222656 26.2645359,9.04095937 L22.1378172,8.45165781 L20.2837797,4.7180875 C20.1542359,4.45708594 19.8864969,4.29439062 19.5962484,4.2930125 C19.304775,4.29370156 19.0391031,4.45984219 18.9107078,4.72145625 L17.0750453,8.46406094 L12.9513125,9.073575 C12.6629781,9.11622031 12.4238734,9.31880469 12.3344484,9.59619062 C12.2451,9.87357656 12.3209734,10.1776828 12.5301422,10.3805734 L15.5223578,13.2829047 L14.8277828,17.3932391 C14.7792422,17.6805781 14.8979906,17.9705969 15.1341859,18.1413312 C15.2673281,18.2375703 15.4246641,18.2864937 15.5827656,18.2864937 C15.7052656,18.2864937 15.828225,18.2571703 15.9406187,18.1976812 L19.6255719,16.2487828 L23.3200953,18.1795359 C23.5784937,18.3145156 23.8909453,18.2911641 24.1262219,18.1192812 C24.361575,17.9473984 24.4789453,17.6567672 24.42895,17.3696578 L23.7141625,13.2628453 L26.6921375,10.3458141 C26.9003109,10.1418516 26.9746531,9.83743906 26.8839266,9.5605125 Z M22.355025,12.4506703 C22.1750266,12.6269937 22.0933344,12.8806453 22.1365156,13.1288609 L22.6543078,16.10385 L19.9779891,14.7052062 C19.7546562,14.588525 19.4882187,14.5891375 19.2654219,14.7069672 L16.5959937,16.1187031 L17.0991625,13.1411875 C17.1411187,12.8926656 17.0582016,12.6394734 16.8773609,12.4639922 L14.7097234,10.3615094 L17.6970391,9.91989687 C17.9463266,9.88307031 18.1615437,9.7258875 18.2725594,9.49964531 L19.6022969,6.78849062 L20.9453562,9.49306094 C21.0574437,9.71876719 21.27335,9.87480156 21.5227906,9.91047969 L24.51225,10.3373922 L22.355025,12.4506703 Z" id="Shape"></path>
                <path d="M11.8142828,24.1370937 C11.6719531,23.9946875 11.4744219,23.9127656 11.2730625,23.9127656 C11.0709375,23.9127656 10.8740953,23.9946875 10.7317656,24.1370937 C10.5893594,24.2795 10.5074375,24.4770312 10.5074375,24.6783906 C10.5074375,24.8805156 10.5892828,25.0772812 10.7317656,25.2204531 C10.8740953,25.3628594 11.0716266,25.4440156 11.2730625,25.4440156 C11.4744219,25.4440156 11.6711109,25.3628594 11.8142828,25.2204531 C11.9566891,25.0772812 12.0386875,24.8805156 12.0386875,24.6783906 C12.0386875,24.4770312 11.9567656,24.2795 11.8142828,24.1370937 Z" id="Path"></path>
            </g>
        </g>
    </g>
</svg>