<?xml version="1.0" encoding="UTF-8"?>
<svg width="80px" height="74px" viewBox="0 0 80 74" version="1.1" xmlns="http://www.w3.org/2000/svg" xmlns:xlink="http://www.w3.org/1999/xlink">
    <title>HUNGARORING</title>
    <g id="new-relase" stroke="none" stroke-width="1" fill="none" fill-rule="evenodd">
        <path d="M74.7820246,-0.0051043741 C73.1820361,-0.0051043741 71.6698162,0.729306333 70.6807423,1.9868788 L62.2475989,12.7043974 C61.3393939,13.8581757 59.9524316,14.5317022 58.4847993,14.5317022 L55.8960667,14.5317022 C53.2376942,14.5317022 50.5863305,14.8204877 47.9886782,15.3926761 L25.8638745,20.2698873 C23.4992822,20.7900975 21.5002005,22.3612261 20.434743,24.536006 L17.0761478,31.3912485 C16.6289555,32.30317 15.7012613,32.8815737 14.6859433,32.8815737 C13.215129,32.8815737 12.02365,31.6903208 12.02365,30.2202881 L12.02365,15.4204768 C12.02365,12.0998809 9.33242095,9.4086518 6.01182502,9.4086518 C2.69122909,9.4086518 0,12.0998809 0,15.4204768 L0,63.79622 C0,67.3143214 2.85145038,70.1657718 6.36955179,70.1657718 C9.88696427,70.1657718 12.7391036,67.3140027 12.7391036,63.79622 L12.7391036,53.1974309 C12.7391036,52.1053916 13.6231268,51.2213684 14.7151661,51.2213684 C15.6724511,51.2213684 16.4918339,51.9068574 16.6606716,52.8491458 L17.1755848,55.7239937 C17.5254117,57.6763281 18.5955464,59.4266845 20.173925,60.6286539 L24.1201489,63.6326615 C25.0935349,64.3734897 25.8110829,65.3979535 26.1767883,66.5621715 L26.2548924,66.8332526 C27.1404527,70.2103892 30.1343897,72.6095419 33.6235893,72.7377024 L45.966585,73.1921633 C49.4734642,73.3216623 52.6395897,71.1040328 53.7162185,67.7642863 L55.4081439,62.5141782 C56.2212053,59.9907246 57.8861177,57.829603 60.118544,56.3999613 L66.9286473,52.0365776 C69.9889929,50.0763407 70.903721,46.0181277 68.9803132,42.9340223 L67.3822171,40.3706197 C66.5438063,39.0251889 66.6394258,37.297452 67.6214026,36.0532969 L73.5002703,28.6034393 C73.843993,28.1676738 74.3217376,27.8588307 74.8598486,27.7244825 C76.7195757,27.2601992 78.0838912,25.6728884 78.264138,23.764087 L79.9761528,5.70580873 C80.26713,2.64368 77.8581369,-0.0051043741 74.7820246,-0.0051043741 Z M74.7820246,2.01025768 C76.6697607,2.01025768 78.1483882,3.63606792 77.9698078,5.51537706 L76.2577371,23.574247 C76.1636859,24.5702414 75.4885696,25.4078557 74.5505595,25.7173802 L74.3716795,25.7691372 C73.4005338,26.0115995 72.5379675,26.5692147 71.9180459,27.3551404 L66.0393679,34.8047576 C64.5307577,36.716152 64.3838961,39.3697766 65.671881,41.4366566 L67.2701681,44.0003656 C68.609697,46.1482451 67.9726496,48.9745208 65.8415066,50.3395775 L59.0314814,54.7029112 C56.405257,56.3847405 54.4464261,58.9273797 53.4899119,61.8960599 L51.7980331,67.1460233 C50.9982882,69.6268646 48.6461253,71.2743753 46.0408475,71.1781699 L33.6976541,70.7237017 C31.1778012,70.6311459 29.0043503,68.9496884 28.270746,66.5556962 L28.2042835,66.3218246 C27.7551108,64.6105803 26.7471099,63.0993305 25.3407895,62.0290029 L21.3947878,59.0251645 C20.2180354,58.1290422 19.4201444,56.8239786 19.159365,55.3686058 L18.6444527,52.4937632 C18.3034632,50.5906911 16.6483135,49.2060064 14.7151661,49.2060064 C12.510073,49.2060064 10.7237415,50.9923379 10.7237415,53.1974309 L10.7237415,63.79622 C10.7237415,66.2008904 8.7739691,68.1504097 6.36955179,68.1504097 C3.96450411,68.1504097 2.01536206,66.2012677 2.01536206,63.79622 L2.01536206,15.4204768 C2.01536206,13.2129346 3.80428282,11.4240139 6.01182502,11.4240139 C8.21936722,11.4240139 10.008288,13.2129346 10.008288,15.4204768 L10.008288,30.2202881 C10.008288,32.8034601 12.1021608,34.8969358 14.6859433,34.8969358 C16.4702912,34.8969358 18.099908,33.8808936 18.8858105,32.2782687 L22.2445737,25.4226837 C23.0399253,23.7992356 24.5322112,22.6264107 26.2973125,22.2380884 L48.422371,17.3608211 C50.8775425,16.8200172 53.3835458,16.5470642 55.8960667,16.5470642 L58.4847993,16.5470642 C60.570314,16.5470642 62.5409206,15.5901127 63.8313202,13.9507966 L72.2647187,3.23295381 C72.8717929,2.46108046 73.8000789,2.01025768 74.7820246,2.01025768 Z" id="HUNGARORING" fill="#999999" fill-rule="nonzero"></path>
    </g>
</svg>