<svg xmlns="http://www.w3.org/2000/svg" xmlns:xlink="http://www.w3.org/1999/xlink" width="44" height="44" viewBox="0 0 44 44">
  <defs>
    <circle id="add-fund-a" cx="22" cy="22" r="22"/>
  </defs>
  <g fill="none" fill-rule="evenodd">
    <mask id="add-fund-b" fill="#fff">
      <use xlink:href="#add-fund-a"/>
    </mask>
    <use fill="#FFF" fill-rule="nonzero" xlink:href="#add-fund-a"/>
    <g fill="#000" fill-rule="nonzero" mask="url(#add-fund-b)">
      <g transform="translate(8 5)">
        <path d="M26.9925739,15.2842899 C26.9920099,15.2785666 26.9907879,15.2729371 26.9897539,15.2673076 C26.9874979,15.2512635 26.9849599,15.2350318 26.9813879,15.2191753 C26.9801659,15.2130767 26.9783798,15.2072596 26.9766878,15.2010671 C26.9727398,15.1860551 26.9681338,15.1708554 26.9628697,15.1562187 C26.9608957,15.1504954 26.9586397,15.1445844 26.9564777,15.1388611 C26.9507436,15.1238491 26.9439756,15.1092124 26.9371136,15.0946695 C26.9347635,15.0896968 26.9326955,15.0845364 26.9298755,15.0798451 C26.9209454,15.062769 26.9108874,15.0458804 26.9003593,15.0295549 C26.8995133,15.0279599 26.8985733,15.026271 26.8976333,15.024676 C26.8856952,15.006943 26.8725351,14.9897731 26.858905,14.9738228 C26.855239,14.9691316 26.8511029,14.9650971 26.8472489,14.9605935 C26.8368148,14.9492406 26.8264748,14.9380755 26.8153827,14.9275671 C26.8097426,14.9221252 26.8043846,14.9174339 26.7988386,14.9123674 C26.7877465,14.9027972 26.7766544,14.8934147 26.7649043,14.8849705 C26.7613323,14.8820619 26.7585123,14.8790595 26.7548463,14.8764324 L20.5442221,10.3679506 L20.5442221,1.53235088 C20.5442221,0.692991882 19.8598972,0.0100392874 19.0190612,0.0100392874 L12.6838862,0.0100392874 C12.3598659,0.0100392874 12.097322,0.272186493 12.097322,0.595601481 C12.097322,0.919016469 12.3598659,1.18106986 12.6838862,1.18106986 L19.0190612,1.18106986 C19.2097886,1.18106986 19.3709057,1.34188602 19.3709057,1.53235088 L19.3709057,19.7359137 L18.6670287,20.2467912 L18.6670287,2.4691941 C18.6670287,2.14559147 18.4042029,1.88372572 18.0804646,1.88372572 L8.92978149,1.88372572 C8.60566719,1.88372572 8.34321732,2.14559147 8.34321732,2.4691941 L8.34321732,20.2467912 L7.63934032,19.7359137 L7.63934032,1.53235088 C7.63934032,1.34188602 7.80026946,1.18106986 7.99118483,1.18106986 L8.63847342,1.18106986 C8.96221174,1.18106986 9.22513161,0.919016469 9.22513161,0.595601481 C9.22513161,0.272186493 8.96221174,0.0100392874 8.63847342,0.0100392874 L7.99118483,0.0100392874 C7.15025483,0.0100392874 6.46602399,0.692991882 6.46602399,1.53235088 L6.46602399,10.3679506 L0.255023807,14.8764324 C0.251545789,14.8790595 0.248537767,14.8820619 0.245247738,14.8845013 C0.233685674,14.8934147 0.22221758,14.9027972 0.211313503,14.9123674 C0.205767457,14.9174339 0.200033422,14.9221252 0.194769385,14.9275671 C0.183677294,14.9380755 0.173337233,14.9492406 0.162997171,14.9605935 C0.159049131,14.9650971 0.154819107,14.969413 0.151153075,14.9738228 C0.137334971,14.9902422 0.124644898,15.0070369 0.112706807,15.024676 C0.111296791,15.026271 0.110544786,15.0280537 0.109322783,15.0298364 C0.0988887032,15.0460681 0.089018639,15.062769 0.0799945749,15.0798451 C0.0774565508,15.0849117 0.0753885241,15.0900721 0.0729445187,15.0946695 C0.0658944626,15.1092124 0.0595024171,15.1238491 0.0536743877,15.1388611 C0.0515123663,15.1445844 0.0494443636,15.1504954 0.0470943289,15.1563125 C0.0421122995,15.1710431 0.0375062727,15.1860551 0.033464238,15.2010671 C0.0318662326,15.2072596 0.0301742086,15.2135458 0.0287641925,15.2196445 C0.0250981845,15.2350318 0.0223721711,15.2512635 0.0203041444,15.2673076 C0.0193641497,15.2729371 0.0182361176,15.2785666 0.017578131,15.2842899 C0.0151341016,15.3058697 0.0135360963,15.3278248 0.0135360963,15.3499675 L0.0135360963,28.4649282 C0.0135360963,29.304381 0.697766968,29.987146 1.53869694,29.987146 L25.4715491,29.987146 C25.8512178,29.987146 26.1983623,29.8478157 26.4656062,29.6178505 C26.4661702,29.6174752 26.4669222,29.6169123 26.4672042,29.6164432 C26.7910365,29.3369383 26.99671,28.9245771 26.99671,28.4649282 L26.99671,15.3499675 C26.99671,15.3278248 26.994924,15.3058697 26.9925739,15.2842899 L26.9925739,15.2842899 Z M25.8232996,28.2519453 L17.7288081,22.3758694 L25.8232996,16.4996998 L25.8232996,28.2519453 Z M1.18694645,16.4996998 L9.28134399,22.3758694 L1.18694645,28.2519453 L1.18694645,16.4996998 Z M13.0910971,21.0582841 C13.3038206,20.9039419 13.7252256,20.9175465 13.9578773,21.0867131 L24.606367,28.8162092 L2.40387909,28.8162092 L13.0910971,21.0582841 Z M20.5442221,11.8158589 L25.4125167,15.3499675 L20.5442221,18.8842637 L20.5442221,11.8158589 Z M9.51634567,3.05466247 L17.4939004,3.05466247 L17.4939004,21.0982536 L16.731367,21.6517276 L14.6480302,20.1392677 C14.0071336,19.6743645 13.0203146,19.6616981 12.4011322,20.1111202 L10.2788791,21.6517276 L9.51634567,21.0982536 L9.51634567,3.05466247 Z M6.46602399,11.8158589 L6.46602399,18.8842637 L1.59763536,15.3499675 L6.46602399,11.8158589 Z"/>
        <path d="M10.3238114 1.18106986L10.3395095 1.18106986C10.6635298 1.18106986 10.9260737.919016469 10.9260737.595601481 10.9260737.272186493 10.6635298.0100392874 10.3395095.0100392874L10.3238114.0100392874C9.99969711.0100392874 9.73724725.272186493 9.73724725.595601481 9.73724725.919016469 9.99969711 1.18106986 10.3238114 1.18106986zM12.7682048 10.8682258L13.7930001 11.291846C13.920935 11.3448571 14.0212337 11.4453438 14.0749081 11.5749162 14.1288645 11.7043009 14.1289585 11.8461644 14.0760361 11.9739542 13.9658673 12.2395729 13.6593311 12.3664244 13.3929332 12.2560861L12.8805356 12.0441353C12.5813315 11.9204739 12.238041 12.0624312 12.1140541 12.3611702 11.9900673 12.660003 12.1321023 13.0023706 12.4313064 13.1261259L12.9184179 13.3274745 12.9184179 14.0518978C12.9184179 14.3755004 13.1810557 14.63746 13.505264 14.63746 13.8290963 14.63746 14.0918282 14.3755004 14.0918282 14.0518978L14.0918282 13.3908064C14.5576955 13.2472541 14.9589844 12.9057308 15.1597698 12.4217812 15.332825 12.0051979 15.332261 11.5452675 15.1588298 11.1268077 14.9850226 10.7082541 14.6594983 10.3826811 14.2421353 10.210043L13.21687 9.78614143C13.0890291 9.73322407 12.9891064 9.6326436 12.935244 9.50325886 12.8812876 9.37359262 12.8810056 9.23191679 12.93421 9.10431471 13.0442848 8.83841448 13.3507269 8.71175066 13.6172188 8.82171363L14.1296165 9.03375826C14.4289146 9.15741968 14.772017 9.01546237 14.8960039 8.7168172 15.0198028 8.41817203 14.8776738 8.07552293 14.5784697 7.95176767L14.0918282 7.75051292 14.0918282 7.02608962C14.0918282 6.70286229 13.8288143 6.44062124 13.505264 6.44062124 13.1810557 6.44062124 12.9184179 6.70286229 12.9184179 7.02608962L12.9184179 7.68661804C12.4523626 7.83035803 12.0509797 8.17216273 11.8500063 8.65630004 11.677327 9.07269564 11.677609 9.53271992 11.8513223 9.95136735 12.0251295 10.3700148 12.3506538 10.6954001 12.7682048 10.8682258L12.7682048 10.8682258zM12.5644114 18.6088871C12.5644114 18.9324897 12.8270492 19.1943555 13.1509755 19.1943555L15.5582386 19.1943555C15.8820709 19.1943555 16.1448028 18.9324897 16.1448028 18.6088871 16.1448028 18.2856598 15.8820709 18.0234187 15.5582386 18.0234187L13.1509755 18.0234187C12.8270492 18.0234187 12.5644114 18.2856598 12.5644114 18.6088871zM11.4520074 19.1943555L11.4659195 19.1943555C11.7896578 19.1943555 12.0524837 18.9324897 12.0524837 18.6088871 12.0524837 18.2858474 11.7896578 18.0234187 11.4659195 18.0234187L11.4520074 18.0234187C11.1279871 18.0234187 10.8654433 18.2858474 10.8654433 18.6088871 10.8654433 18.9324897 11.1279871 19.1943555 11.4520074 19.1943555z"/>
      </g>
    </g>
  </g>
</svg>
