<?xml version="1.0" encoding="UTF-8"?>
<svg width="16px" height="16px" viewBox="0 0 16 16" version="1.1" xmlns="http://www.w3.org/2000/svg" xmlns:xlink="http://www.w3.org/1999/xlink">
    <title>ThumbsUp</title>
    <g id="desktop" stroke="none" stroke-width="1" fill="none" fill-rule="evenodd">
        <g id="13_OT_orderCancel" transform="translate(-41, -592)">
            <g id="Group-26" transform="translate(15, 585)">
                <g id="ThumbsUp" transform="translate(26, 7)">
                    <path d="M14.625,5.0075 C14.3401877,4.68475176 13.9304468,4.49991311 13.5,4.49999987 L10,4.49999987 L10,3.49999987 C10,2.11928813 8.88071187,0.999999871 7.5,0.999999871 C7.31054269,0.99986436 7.13728212,1.10682131 7.0525,1.27625 L4.69125,5.99999987 L2,5.99999987 C1.44771525,5.99999987 1,6.44771525 1,6.99999987 L1,12.4999999 C1,13.0522847 1.44771525,13.4999999 2,13.4999999 L12.75,13.4999999 C13.5061251,13.5002595 14.1442344,12.9376947 14.23875,12.1875 L14.98875,6.1875 C15.0425252,5.76018594 14.9100299,5.33037309 14.625,5.0075 Z M2,7 L4.5,7 L4.5,12.5 L2,12.5 L2,7 Z M13.99625,6.0625 L13.24625,12.0625 C13.2147448,12.3125649 13.0020417,12.5 12.75,12.5 L5.5,12.5 L5.5,6.618125 L7.794375,2.02875 C8.4955712,2.16908877 9.00019982,2.78489788 9,3.5 L9,5 C9,5.27614237 9.22385763,5.5 9.5,5.5 L13.5,5.5 C13.6435302,5.49995073 13.7801601,5.56158533 13.8751149,5.66921671 C13.9700697,5.77684809 14.0141913,5.92009552 13.99625,6.0625 Z" id="Shape" fill="#EB4A3C" fill-rule="nonzero"></path>
                    <rect id="Rectangle" x="0" y="0" width="16" height="16"></rect>
                </g>
            </g>
        </g>
    </g>
</svg>