<?xml version="1.0" encoding="UTF-8"?>
<svg width="36px" height="36px" viewBox="0 0 36 36" version="1.1" xmlns="http://www.w3.org/2000/svg" xmlns:xlink="http://www.w3.org/1999/xlink">
    <title>FDF118B3-9A3C-4D61-8778-992F0EA7A5F9</title>
    <g id="desktop" stroke="none" stroke-width="1" fill="none" fill-rule="evenodd">
        <g id="5-OT-trade-placed" transform="translate(-170, -276)" fill-rule="nonzero">
            <g id="Group-16" transform="translate(30, 251)">
                <g id="Group-13" transform="translate(115, 0)">
                    <g id="Group-12" transform="translate(13, 13)">
                        <g id="Icon" transform="translate(12, 12)">
                            <path d="M18,0 C27.9411255,0 36,8.0588745 36,18 C36,22.7738968 34.1035769,27.3522672 30.7279221,30.7279221 C27.3522672,34.1035769 22.7738968,36 18,36 C8.0588745,36 0,27.9411255 0,18 C0,8.0588745 8.0588745,0 18,0 Z" id="Combined-Shape" fill="#43BA6A"></path>
                            <path d="M15.2143507,25 C14.7301799,24.9980507 14.2665836,24.8128149 13.9252445,24.484921 L8.43968619,19.2468298 C7.81839772,18.5540743 7.86016938,17.5214127 8.53556786,16.8764831 C9.21096635,16.2315535 10.2924147,16.1916663 11.0178986,16.7849269 L15.2143507,20.7833365 L23.9821014,12.4198509 C24.7075853,11.8265902 25.7890337,11.8664775 26.4644321,12.5114071 C27.1398306,13.1563367 27.1816023,14.1889982 26.5603138,14.8817537 L16.5034569,24.484921 C16.1621178,24.8128149 15.6985215,24.9980507 15.2143507,25 L15.2143507,25 Z" id="Path" fill="#FFFFFF"></path>
                        </g>
                    </g>
                </g>
            </g>
        </g>
    </g>
</svg>