<?xml version="1.0" encoding="UTF-8"?>
<svg width="105px" height="80px" viewBox="0 0 105 80" version="1.1" xmlns="http://www.w3.org/2000/svg" xmlns:xlink="http://www.w3.org/1999/xlink">
    <title>JEDDAH_CORNICHE_CIRCUIT</title>
    <g id="new-relase" stroke="none" stroke-width="1" fill="none" fill-rule="evenodd">
        <path d="M79.1858967,3.06381781 L62.2349033,20.1358112 C61.2930582,21.0841582 60.2106875,21.8832238 59.0258907,22.5048937 L55.5624083,24.3196223 C54.2596337,25.0035118 52.7954087,25.3195447 51.326604,25.234087 C49.8692653,25.1519549 48.7748889,26.5398497 49.1949468,27.9355878 L50.2820087,31.5447931 C50.3791749,31.8669515 50.2869051,32.2160523 50.0427114,32.4493614 L13.0313069,67.7527929 C12.1254217,68.6169323 10.9312131,69.1148848 9.67884638,69.1508099 L4.34460249,69.2997885 C3.39627228,69.3268467 2.4807202,69.6549752 1.73099114,70.2359508 C-0.369162127,71.8645358 -0.593129783,74.9558627 1.25020913,76.8700497 L3.20925914,78.9041017 C4.39877781,80.138414 6.44613184,79.8487257 7.24744955,78.3340195 L8.51896827,75.9240377 C8.78653218,75.4166954 9.40900056,75.2145235 9.92441376,75.4678534 L11.9774373,76.476865 C13.097898,77.0271595 14.4443146,76.7975619 15.3183291,75.9067394 L21.4552721,69.6527976 C21.9920823,69.1054272 22.610819,68.6458133 23.2910845,68.2889382 L34.4317917,62.4490917 C36.315141,61.4625755 37.3938266,59.426642 37.1693457,57.3275829 L37.1390153,57.0941444 C36.9346351,55.7584555 37.6008563,54.4408179 38.7979685,53.812999 L78.4057897,33.0510928 C80.0096019,32.2094527 80.0056321,29.912252 78.398245,29.0778556 L76.2077711,27.9391289 C75.3018053,27.467581 74.7123002,26.5525284 74.6581099,25.5333055 C74.5994509,24.435119 75.1702014,23.4002188 76.1305687,22.8632154 L82.5035106,19.3002479 C84.5865219,18.1347396 85.9454754,15.999968 86.1188766,13.6200667 L86.4648723,8.87512451 C86.4860659,8.57970897 86.5802155,8.29413828 86.7393183,8.04190207 C87.4180154,6.97024441 88.9645463,6.91900856 89.7125731,7.94465352 L94.2219112,14.1201169 C96.1506259,16.7616961 99.8715036,17.3090934 102.479172,15.3346468 C104.541193,13.7742636 105.334074,11.0448591 104.429309,8.62250263 L104.046485,7.59597556 C103.428792,5.94316325 102.099761,4.65754735 100.428209,4.09553929 L89.8471008,0.540502898 C86.1029685,-0.717870846 81.9692853,0.260508412 79.1858967,3.06381781 Z M89.20994,2.43629457 L99.7910359,5.99132681 C100.891281,6.36125063 101.766249,7.20763574 102.172798,8.29547293 L102.555555,9.32182191 C103.151188,10.9165282 102.629345,12.7129138 101.272094,13.7399802 C99.5557029,15.0395786 97.1065375,14.6792693 95.8371547,12.9407151 L91.3281295,6.76568059 C89.7487012,4.6000724 86.4832132,4.70825649 85.0486937,6.9733587 C84.7135306,7.50471163 84.514803,8.10748412 84.4700837,8.7308435 L84.1241684,13.474673 C83.9996315,15.1839217 83.0233137,16.7176131 81.527229,17.5547181 L75.1545302,21.1175496 C73.5285432,22.0267442 72.5616079,23.7800171 72.6609439,25.6397372 C72.7527128,27.3657485 73.7507726,28.9149756 75.2848243,29.7134369 L77.4762696,30.8526686 C77.6492103,30.9424425 77.6496368,31.1892408 77.4768428,31.2799188 L37.869251,52.0417047 C35.9855977,53.0295762 34.9072394,55.0645586 35.1316989,57.1632526 L35.1620255,57.3966531 C35.366439,58.7325602 34.700007,60.0508324 33.5035134,60.6775672 L22.362249,66.5177057 C21.4972734,66.9714817 20.7102109,67.5561325 20.0275601,68.2522126 L13.8907687,74.5059999 C13.6210001,74.7809564 13.2054941,74.8518105 12.859355,74.6818104 L10.8066034,73.6729324 C9.32004423,72.942276 7.52251067,73.5260981 6.74999165,74.990913 L5.47907248,77.3997598 C5.31468223,77.7105003 4.89392676,77.7700346 4.64957189,77.5164781 L2.69078161,75.4826958 C1.6722814,74.4250499 1.79607658,72.7163596 2.95631918,71.8166377 C3.3707569,71.4954841 3.87731946,71.3139351 4.40104138,71.2989919 L9.73543826,71.150009 C11.4825259,71.0998927 13.148124,70.4053835 14.4117582,69.1999813 L51.4237338,33.8960046 C52.2126877,33.1422177 52.5116459,32.0111168 52.1969212,30.9676365 L51.1100321,27.3590044 C51.0900826,27.2927177 51.1420155,27.2268561 51.2122532,27.2308145 C53.0418173,27.3372635 54.8675713,26.9431995 56.4913187,26.0908153 L59.9546325,24.2761752 C61.3206675,23.5594088 62.5682324,22.6383877 63.6540553,21.545069 L80.6051374,4.47298629 C82.8517334,2.21031135 86.1880424,1.42065831 89.20994,2.43629457 Z" id="JEDDAH_CORNICHE_CIRCUIT" fill="#999999" fill-rule="nonzero"></path>
    </g>
</svg>