<?xml version="1.0" encoding="UTF-8"?>
<svg width="80px" height="51px" viewBox="0 0 80 51" version="1.1" xmlns="http://www.w3.org/2000/svg" xmlns:xlink="http://www.w3.org/1999/xlink">
    <title>LAS_VEGAS</title>
    <g id="new-relase" stroke="none" stroke-width="1" fill="none" fill-rule="evenodd">
        <g id="LAS_VEGAS" transform="translate(0.000000, 0.594206)" fill="#999999">
            <path d="M67.6710649,0.00516178985 C68.4350098,0.036132529 68.7034229,0.0877504275 69.167984,0.314869181 C69.4776914,0.469722876 69.9732232,0.800077427 70.2519599,1.03751976 C70.5719908,1.31625641 72.1927929,3.41194309 74.4846275,6.48836984 C76.5286963,9.23444204 78.4179114,11.8566313 78.6966481,12.3108688 C78.9650611,12.7651063 79.3160628,13.508404 79.4812401,13.9626415 C79.6464174,14.4168791 79.8425654,15.1188825 79.9148305,15.5111785 C79.9660122,15.7763927 79.994126,16.4589245 79.9991721,18.1419374 L79.9991721,19.3961426 C79.994126,21.5447712 79.9660122,24.821448 79.9148305,29.8093364 C79.8425654,37.2732845 79.7393296,43.746169 79.6877117,44.1900829 C79.6360938,44.6236733 79.5018873,45.1811466 79.3883279,45.4185889 C79.2747685,45.6663548 79.0373262,46.0483273 78.8411782,46.275446 C78.6553537,46.5025648 78.4385586,46.8948608 78.3662935,47.1529503 C78.2940285,47.4110398 78.108204,47.8446301 77.9636739,48.1233668 C77.8088202,48.4021034 77.5094364,48.7840759 77.3029648,48.9699003 C77.0861696,49.1660483 76.6938736,49.4344614 76.4254605,49.5686679 C76.1467239,49.7028745 75.6511921,49.8680517 75.3105139,49.9299932 C74.9380344,49.9992917 70.3280903,50.0322484 59.6693515,50.0410606 L58.7796327,50.0417308 C58.6290637,50.0418335 58.4773503,50.0419317 58.3244878,50.0420255 L56.4346865,50.0429404 C56.2725572,50.0429992 56.1092603,50.0430537 55.944791,50.0431039 L50.2505805,50.0430223 C50.0809675,50.042952 49.9121933,50.0428747 49.7442653,50.0427906 L48.7469139,50.042204 C48.5824015,50.0420926 48.4187506,50.0419745 48.2559687,50.0418496 L47.2897677,50.04102 C36.936887,50.0311665 30.3200819,49.9932931 29.5254379,49.9403168 C28.6995516,49.8783753 27.5639578,49.7338452 26.9961609,49.6202858 C26.428364,49.5067265 25.4373004,49.248637 24.807562,49.052489 C24.1675001,48.8563409 23.0009356,48.4537213 22.2266671,48.1440139 C21.442075,47.8446301 20.1309804,47.2768332 19.305094,46.8948608 C18.4792077,46.5128883 16.9203471,45.7386199 15.8466948,45.170823 C14.7730426,44.6030261 13.2554763,43.7771397 12.4915314,43.353873 C11.7275865,42.9306062 10.3545504,42.0943962 9.44607543,41.5059522 C8.53760041,40.9175081 7.28844727,40.0812982 6.65870891,39.6580314 C6.03929413,39.2244411 5.13081911,38.6669678 4.64561087,38.3985547 C4.16040262,38.1404652 3.41710488,37.8307578 2.99383811,37.7068749 C2.57057135,37.5933155 2.01309804,37.3765203 1.75500855,37.2216666 C1.49691906,37.0771365 1.09429945,36.7364584 0.846533536,36.4577217 C0.598767623,36.1789851 0.309707391,35.7041004 0.196148014,35.4047166 C0.0722650579,35.0537149 0,34.6098009 0,34.093622 C0,33.4948543 0.134206536,32.7928509 0.578120463,31.0171952 C0.898151434,29.7577185 1.29044746,28.3537116 1.45562474,27.8994741 C1.62080201,27.4452366 1.87889151,26.8774398 2.01309804,26.6296738 C2.15762816,26.3922315 2.56024777,25.8863761 2.92157306,25.5044037 C3.27257477,25.1327548 3.91263671,24.5959286 4.33590347,24.3068684 C4.75917024,24.0281318 5.53343872,23.604865 6.03929413,23.3674227 C6.55547311,23.1196567 7.63944898,22.6654192 8.46533536,22.3453883 C9.29122173,22.0253573 10.3545504,21.5298255 10.8397587,21.2407652 C11.3249669,20.951705 11.913411,20.5387618 12.1611769,20.3322902 C12.4915314,20.04323 12.6463851,19.8161112 12.7702681,19.3825209 C12.9147982,18.8869891 12.9457689,17.8443075 12.9973868,11.6398361 C13.0507847,5.56138358 13.065822,4.62323902 13.2078458,4.12293335 L13.2255088,4.06469733 C13.2377046,4.02687313 13.2507554,3.99064727 13.2647459,3.95361208 L13.2864471,3.89715134 C13.41033,3.58744395 13.7200374,3.09191212 13.9678033,2.81317547 C14.2155692,2.52411524 14.6491596,2.17311353 14.9278962,2.01825983 C15.2066329,1.86340614 15.7331355,1.68790528 16.1047843,1.61564022 C16.6932284,1.51240443 16.9409943,1.52272801 19.5425364,1.95631835 L20.1206568,1.63628738 C20.4406878,1.46078653 20.9568668,1.26463851 21.2665742,1.20269704 C21.6175759,1.13043198 22.3918444,1.10978482 23.2796722,1.14075556 C24.2294416,1.18204988 25.0243572,1.27496209 25.6024777,1.41949221 C26.0876859,1.53305159 26.944543,1.86340614 27.5123399,2.14214279 C28.0801368,2.42087944 28.9163467,2.93705843 29.3705843,3.29838371 C29.8248218,3.659709 30.4442365,4.25847663 30.7436204,4.61980192 C31.0430042,4.99145079 31.4662709,5.64183631 31.6830661,6.06510307 C31.9101849,6.48836984 32.2198922,7.26263832 32.3747459,7.76849373 C32.643159,8.645998 32.6638062,8.82149885 32.7257477,13.6013163 L35.1827596,13.5496984 C36.4968653,13.5193728 42.4332955,13.3999661 48.4950993,13.298087 L48.8821499,13.2916089 C55.0762977,13.1780495 61.1155918,13.0644901 62.3028035,13.0335194 C63.4900152,13.0025486 64.7081976,12.91996 64.9869342,12.8580185 C65.2759945,12.796077 65.6786141,12.6618705 65.8954092,12.5586347 C66.2051166,12.403781 66.2567345,12.331516 66.1844695,12.1766623 C66.1328516,12.08375 65.7715263,11.5572475 65.3895538,11.0204213 C65.0075814,10.4835952 64.5430203,9.74029745 64.3571959,9.36864858 C64.181695,8.99699971 63.9752234,8.43952641 63.9132819,8.12981901 C63.8410169,7.82011162 63.7481047,6.67419428 63.6861632,5.60054199 C63.6138981,4.17588799 63.6242217,3.48420815 63.7068103,3.07126496 C63.7687518,2.76155757 63.9132819,2.31764364 64.0371649,2.09052489 C64.1507243,1.86340614 64.3675194,1.53305159 64.5120496,1.34722715 C64.6565797,1.1717263 65.0075814,0.851695325 65.2966416,0.655547311 C65.5753783,0.449075717 66.0192922,0.211633384 66.2773817,0.129044746 C66.5870891,0.0258089493 67.0516502,-0.0154853696 67.6710649,0.00516178985 Z M67.4955641,2.45185018 C67.3613576,2.46217376 67.1135916,2.52411524 66.9380908,2.60670387 C66.7729135,2.68929251 66.5251476,2.90608769 66.4012646,3.09191212 C66.2051166,3.38097235 66.1741459,3.57712037 66.1741459,4.36171242 C66.1741459,4.87789141 66.2257638,5.82766074 66.2773817,6.47804626 C66.3289996,7.14907894 66.442559,7.85108236 66.5354712,8.07820112 C66.638707,8.30531987 67.0206794,8.93505823 67.4129754,9.47188438 C67.7949479,10.0087105 68.2491854,10.7107139 68.4246863,11.0204213 C68.6001871,11.3301287 68.7963351,11.7946898 68.8582766,12.0527793 C68.9305417,12.3211924 68.9511888,12.6928412 68.9098945,12.9302836 C68.847953,13.239991 68.6930993,13.4877569 68.2491854,13.9213472 C67.9291544,14.2413782 67.423299,14.6233506 67.1342388,14.7678808 C66.834855,14.9227345 66.2464109,15.1395296 65.8437913,15.2634126 C65.1830822,15.449237 64.6462561,15.4905313 61.4769171,15.57312 C59.4947898,15.6144143 52.6089622,15.7486208 46.1980192,15.8621802 C45.9415814,15.8667226 45.6854576,15.8712815 45.4299574,15.8758503 L44.6656379,15.8895798 C38.8249516,15.9949662 33.4781301,16.1021002 32.3953931,16.1305933 L30.2480885,16.1822112 C30.1758235,9.88482756 30.1448527,9.10023551 30.0106462,8.645998 C29.917734,8.33629061 29.6802916,7.74784657 29.4841436,7.35555054 C29.2879956,6.96325451 28.9060232,6.38513405 28.6272865,6.07542665 C28.3588734,5.76571926 27.853018,5.32180534 27.5123399,5.084363 C27.1716618,4.83659709 26.6864535,4.53721328 26.428364,4.41333032 C26.1702745,4.27912379 25.7057135,4.09329935 25.3960061,3.97973997 C25.0862987,3.87650418 24.291383,3.73197406 23.6409975,3.67003258 C22.7531697,3.57712037 22.3092557,3.57712037 21.885989,3.67003258 C21.4627222,3.75262122 21.2356034,3.87650418 20.9981611,4.12427009 C20.8329838,4.31009453 20.6678066,4.5268897 20.6368358,4.60947834 C20.6058651,4.72303771 20.2755105,4.69206697 18.840533,4.4236539 C17.88044,4.24815305 16.9100236,4.10362293 16.6829048,4.10362293 C16.3731974,4.10362293 16.2183437,4.17588799 15.9396071,4.46494822 L15.5886053,4.82627351 C15.5679582,7.10778462 15.5369875,10.3700358 15.4956931,13.5496984 C15.431274,18.0026712 15.4171018,19.0325722 15.2964061,19.6621308 L15.276976,19.7562351 C15.2465067,19.8938767 15.2099364,20.0184534 15.1653386,20.1671129 C15.031132,20.6213505 14.7936897,21.1788238 14.638836,21.4059425 C14.4839823,21.6227377 14.0916863,22.0253573 13.7613317,22.2834468 C13.4309772,22.5415363 12.8631803,22.9544795 12.4915314,23.2022454 C12.1198826,23.4500113 11.4488499,23.8216602 10.9946124,24.0384553 C10.5403749,24.2449269 9.6628706,24.6165758 9.03313224,24.8540181 C8.41371746,25.0914605 7.41233023,25.5353744 6.8135626,25.8244346 C5.99799981,26.2167307 5.55408588,26.5161145 5.02758331,27.0219699 C4.55269865,27.4658838 4.21202052,27.8994741 4.0158725,28.3124173 C3.85069523,28.6530955 3.43775204,30.0261316 3.09707391,31.3578733 C2.75639578,32.6896151 2.47765913,33.9387683 2.47765913,34.1245927 C2.47765913,34.362035 2.57057135,34.5478595 2.81833726,34.7956254 C3.06610317,35.0537149 3.32419266,35.1879214 3.87134239,35.3221279 C4.273962,35.4150402 5.03790689,35.7350711 5.57473304,36.0241314 C6.03486973,36.2630485 7.36724357,37.09357 8.72020437,37.9826017 L9.17078554,38.2803814 C9.24562007,38.3301288 9.32022607,38.3798739 9.39445753,38.4295254 C10.9533181,39.4618834 13.0902991,40.7936252 14.1433042,41.3820692 C15.1963093,41.9601897 17.1268187,42.9822241 18.4275898,43.6429332 C19.7386844,44.3036423 21.4111043,45.0882343 22.1440785,45.3979417 C22.8873762,45.6973255 24.02297,46.1309159 24.6733555,46.3477111 C25.323741,46.5748298 26.3251282,46.8638901 26.8929251,47.0084202 C27.460722,47.1426267 28.4104913,47.307804 29.009259,47.380069 C29.6376137,47.4566977 32.6776375,47.493511 41.3253428,47.5031749 L42.0590342,47.5039177 C42.1835024,47.5040311 42.3090694,47.5041393 42.4357439,47.5042424 L43.2091481,47.5047997 C43.3402865,47.5048824 43.4725494,47.50496 43.6059454,47.5050326 L50.4025113,47.5050163 C50.571827,47.5049455 50.7424044,47.5048702 50.9142518,47.5047904 L51.9606462,47.5042581 C52.1376083,47.5041605 52.3158576,47.5040584 52.4954028,47.503952 L54.2551089,47.5030192 C54.445408,47.5029148 54.6339815,47.50281 54.8208451,47.5027046 L55.9216322,47.5020648 C56.1017186,47.5019567 56.2801262,47.5018478 56.4568709,47.501738 L57.4975082,47.5010668 C57.6676634,47.5009527 57.836187,47.5008374 58.0030945,47.5007207 L58.9852721,47.5000036 C59.4667898,47.4996359 59.9340447,47.4992537 60.3874594,47.4988534 L61.2759605,47.4980276 C72.8799316,47.4866659 74.842307,47.4607025 75.1761667,47.3514237 L75.1982779,47.3430705 C75.2014959,47.3416519 75.2044908,47.34022 75.2072781,47.3387747 C75.3724554,47.2458625 75.6098977,47.0703616 75.7234571,46.9464787 C75.8783108,46.7709778 75.9402523,46.5438591 75.9608994,46.0070329 C75.971223,45.6147369 76.0125173,45.2947059 76.0641352,45.2947059 C76.1054296,45.2947059 76.3428719,45.1192051 76.5906378,44.9127335 C76.8384037,44.6959383 77.0861696,44.4172017 77.1274639,44.2933187 C77.1790818,44.1591122 77.2926412,37.8410814 77.3855534,30.2532503 C77.44611,24.742599 77.4793423,21.3758561 77.4852503,19.2861793 L77.4859688,18.95837 C77.4860487,18.9055552 77.4861085,18.853639 77.4861485,18.8026043 L77.4861485,18.5068373 C77.4861085,18.4592602 77.4860487,18.4125303 77.4859688,18.3666306 L77.4852503,18.1010576 C77.4793423,16.5231012 77.44611,16.0347854 77.3855534,15.769268 C77.3029648,15.3976191 77.1377875,14.8711166 77.0139046,14.5820563 C76.8900216,14.3033197 76.6216085,13.7871407 76.4151369,13.4464626 C76.2086654,13.1057844 74.4846275,10.7416847 72.5954125,8.18143691 C70.6958738,5.63151273 68.9821596,3.36032519 68.775688,3.14353002 C68.5588928,2.93705843 68.2388618,2.68929251 68.063361,2.60670387 C67.8775365,2.52411524 67.619447,2.45185018 67.4955641,2.45185018 Z" id="Combined-Shape"></path>
        </g>
    </g>
</svg>