<?xml version="1.0" encoding="UTF-8"?>
<svg width="54px" height="54px" viewBox="0 0 54 54" version="1.1" xmlns="http://www.w3.org/2000/svg" xmlns:xlink="http://www.w3.org/1999/xlink">
    <title>C3E7F3CB-2FF9-42E3-8738-0582AD292473</title>
    <g id="Page-1" stroke="none" stroke-width="1" fill="none" fill-rule="evenodd">
        <g id="11-FastKhelo" transform="translate(-77.000000, -237.000000)" fill="#5FC898">
            <g id="list" transform="translate(77.000000, 237.000000)">
                <path d="M27,0 C12.0883118,0 0,12.0883118 0,27 C0,41.9116882 12.0883118,54 27,54 C34.1608452,54 41.0284009,51.1553653 46.0918831,46.0918831 C51.1553653,41.0284009 54,34.1608452 54,27 C54,12.0883118 41.9116882,0 27,0 Z M19.4357813,19.2248437 L20.8996874,20.8110937 L15.6515626,25.641563 L15.4448437,25.41375 L12.3651563,22.4057815 L13.8754687,20.8617187 L15.710625,22.6504685 L19.4357813,19.2248437 Z M23.7557815,19.4442186 L41.0357815,19.4442186 L41.0357815,21.6042186 L23.7557815,21.6042186 L23.7557815,19.4442186 Z M23.7557815,23.7642185 L41.0357815,23.7642185 L41.0357815,25.9242185 L23.7557815,25.9242185 L23.7557815,23.7642185 Z M19.4357813,27.8648446 L20.8996874,29.4510946 L15.6515626,34.281563 L15.4448437,34.05375 L12.3651563,31.0457815 L13.8754687,29.5017185 L15.710625,31.2904685 L19.4357813,27.8648446 Z M23.7557815,28.0842185 L41.0357815,28.0842185 L41.0357815,30.2442185 L23.7557815,30.2442185 L23.7557815,28.0842185 Z M23.7557815,32.4042185 L41.0357815,32.4042185 L41.0357815,34.5642185 L23.7557815,34.5642185 L23.7557815,32.4042185 Z" id="Shape"></path>
            </g>
        </g>
    </g>
</svg>