<?xml version="1.0" encoding="UTF-8"?>
<svg width="37px" height="27px" viewBox="0 0 37 27" version="1.1" xmlns="http://www.w3.org/2000/svg" xmlns:xlink="http://www.w3.org/1999/xlink">
    <title>FF50B6C8-354E-45C9-9E65-DB44FF31C92E@1x</title>
    <g id="Page-1" stroke="none" stroke-width="1" fill="none" fill-rule="evenodd">
        <g id="19-Fastkhelo---Popup" transform="translate(-170.000000, -192.000000)" fill="#FFFFFF">
            <path d="M177.569969,192.440263 C178.157517,193.026564 178.156693,193.976305 177.568122,194.561585 C171.49278,200.60301 171.49278,210.397018 177.568122,216.438422 C178.156693,217.023623 178.157517,217.973424 177.569969,218.559824 C176.982422,219.146025 176.029003,219.146825 175.440432,218.561624 C168.186523,211.348218 168.186523,199.651849 175.440432,192.438423 C176.029003,191.853143 176.982422,191.853963 177.569969,192.440263 Z M199.430031,192.440263 C200.017578,191.853963 200.970997,191.853143 201.559568,192.438423 C208.813477,199.651849 208.813477,211.348218 201.559568,218.561624 C200.970997,219.146825 200.017578,219.146025 199.430031,218.559824 C198.842483,217.973424 198.843307,217.023623 199.431878,216.438422 C205.50722,210.397018 205.50722,200.60301 199.431878,194.561585 C198.843307,193.976305 198.842483,193.026564 199.430031,192.440263 Z M181.813062,196.424547 C182.409323,197.002027 182.422714,197.951688 181.842997,198.545648 C178.09881,202.381811 178.09881,208.618216 181.842997,212.454419 C182.422714,213.04842 182.409323,213.99802 181.813062,214.575421 C181.216781,215.153021 180.263463,215.139621 179.683726,214.545621 C174.803073,209.545217 174.803073,201.454831 179.683726,196.454367 C180.263463,195.860406 181.216781,195.847046 181.813062,196.424547 Z M197.459555,196.454367 C202.340188,201.454831 202.340188,209.545217 197.459555,214.545621 C196.879919,215.139621 195.92644,215.153021 195.330339,214.575421 C194.734039,213.99802 194.720587,213.04842 195.300424,212.454419 C199.044471,208.618216 199.044471,202.381811 195.300424,198.545648 C194.720587,197.951688 194.734039,197.002027 195.330339,196.424547 C195.92644,195.847046 196.879919,195.860406 197.459555,196.454367 Z M188.57166,199.000009 C192.175366,199.000009 195.096838,201.910211 195.096838,205.500009 C195.096838,209.089817 192.175366,212.000019 188.57166,212.000019 C184.967955,212.000019 182.046482,209.089817 182.046482,205.500009 C182.046482,201.910211 184.967955,199.000009 188.57166,199.000009 Z M188.57166,202.000011 C186.631173,202.000011 185.058103,203.567012 185.058103,205.500011 C185.058103,207.433015 186.631173,209.000011 188.57166,209.000011 C190.512148,209.000011 192.085218,207.433015 192.085218,205.500011 C192.085218,203.567012 190.512148,202.000011 188.57166,202.000011 Z" id="Combined-Shape"></path>
        </g>
    </g>
</svg>