<?xml version="1.0" encoding="UTF-8"?>
<svg width="13px" height="13px" viewBox="0 0 13 13" version="1.1" xmlns="http://www.w3.org/2000/svg" xmlns:xlink="http://www.w3.org/1999/xlink">
    <title>Combined Shape</title>
    <g id="Page-1" stroke="none" stroke-width="1" fill="none" fill-rule="evenodd">
        <g id="1-Sports-predictor" transform="translate(-290.000000, -504.000000)" fill="#FFFFFF">
            <g id="Group-20" transform="translate(15.000000, 480.000000)">
                <g id="Group-8" transform="translate(264.000000, 20.000000)">
                    <g id="Group-7" transform="translate(11.173913, 2.529412)">
                        <path d="M1,9 L1,13 L5,13 L5,14 L0,14 L0,9 L1,9 Z M12,9 L12,14 L7,14 L7,13 L11,13 L11,9 L12,9 Z M6.00235717,4.6 C7.65921142,4.6 9.00235717,5.94802992 9.00235717,7.61090909 C9.00235717,9.27378826 7.65921142,10.6218182 6.00235717,10.6218182 C4.34550292,10.6218182 3.00235717,9.27378826 3.00235717,7.61090909 C3.00235717,5.94802992 4.34550292,4.6 6.00235717,4.6 Z M5,2 L5,3 L1,3 L1,7 L0,7 L0,2 L5,2 Z M12,2 L12,7 L11,7 L11,3 L7,3 L7,2 L12,2 Z" id="Combined-Shape"></path>
                    </g>
                </g>
            </g>
        </g>
    </g>
</svg>