<?xml version="1.0" encoding="UTF-8"?>
<svg width="17px" height="21px" viewBox="0 0 17 21" version="1.1" xmlns="http://www.w3.org/2000/svg" xmlns:xlink="http://www.w3.org/1999/xlink">
    <!-- Generator: sketchtool 58 (101010) - https://sketch.com -->
    <title>09174018-6235-495B-93BA-2608ABC96168</title>
    <desc>Created with sketchtool.</desc>
    <g id="Page-1" stroke="none" stroke-width="1" fill="none" fill-rule="evenodd">
        <g id="18-FS-referral-user-referrals" transform="translate(-287.000000, -756.000000)" fill="#FFFFFF" fill-rule="nonzero">
            <g id="Group-8" transform="translate(15.000000, 737.000000)">
                <g id="Group-6" transform="translate(246.000000, 0.000000)">
                    <g id="Group-5" transform="translate(15.000000, 11.000000)">
                        <g id="icon/lock-white-ic" transform="translate(11.000000, 8.000000)">
                            <g id="Shape-2">
                                <path d="M16.527763,7.875 L15.1110964,7.875 L15.1110964,6.12498633 C15.1110964,2.74763672 12.1454375,0 8.5,0 C4.8545625,0 1.88890365,2.74763672 1.88890365,6.12498633 L1.88890365,7.875 L0.472236979,7.875 C0.211216146,7.875 0,8.07068555 0,8.31251367 L0,19.2500273 C0,20.215166 0.847122396,21 1.88890365,21 L15.1111406,21 C16.1528776,21 17,20.215166 17,19.2499863 L17,8.31251367 C17,8.07068555 16.7887839,7.875 16.527763,7.875 Z M9.91392188,17.0142246 C9.92866406,17.1376816 9.8858099,17.2615898 9.79633854,17.3543262 C9.70686719,17.4470215 9.57865885,17.5000137 9.44447396,17.5000137 L7.55557031,17.5000137 C7.42138542,17.5000137 7.29317708,17.4470215 7.20370573,17.3543262 C7.11423438,17.2616309 7.07133594,17.1377227 7.0861224,17.0142246 L7.38402083,14.5323691 C6.90027344,14.206377 6.61114063,13.6906875 6.61114063,13.125 C6.61114063,12.1598613 7.45826302,11.3749863 8.50004427,11.3749863 C9.54182552,11.3749863 10.3889479,12.1598203 10.3889479,13.125 C10.3889479,13.6906875 10.0998151,14.206377 9.61606771,14.5323691 L9.91392188,17.0142246 Z M12.277763,7.875 L4.72223698,7.875 L4.72223698,6.12498633 C4.72223698,4.19511914 6.41696875,2.625 8.5,2.625 C10.5830313,2.625 12.277763,4.19511914 12.277763,6.12498633 L12.277763,7.875 L12.277763,7.875 Z" id="Shape"></path>
                            </g>
                        </g>
                    </g>
                </g>
            </g>
        </g>
    </g>
</svg>