<?xml version="1.0" encoding="UTF-8"?>
<svg width="80px" height="61px" viewBox="0 0 80 61" version="1.1" xmlns="http://www.w3.org/2000/svg" xmlns:xlink="http://www.w3.org/1999/xlink">
    <title>LOSAIL_INTERNATIONAL_CIRCUIT</title>
    <g id="new-relase" stroke="none" stroke-width="1" fill="none" fill-rule="evenodd">
        <g id="LOSAIL_INTERNATIONAL_CIRCUIT" transform="translate(0.000000, 0.982352)" fill="#999999">
            <path d="M27.5042434,0.547282421 C27.6569505,0.835729144 27.7587552,1.20901314 27.7078528,1.39565513 C27.6569505,1.6671344 27.7587552,1.76893913 28.3186812,1.95558113 C28.7089326,2.05738585 29.319761,2.4476373 29.7100124,2.80395384 C30.2020686,3.24510765 30.4565804,3.66929401 30.626255,4.28012236 C30.7619946,4.75521108 30.9825715,5.77325834 31.1352786,6.57072869 C31.2879857,7.36819904 31.5933999,8.43714866 31.7970093,8.94617229 C32.0006188,9.45519591 32.4757075,10.3375035 32.832024,10.8974295 C33.205308,11.4573555 34.6136067,13.0183613 35.9879705,14.3757577 C38.0410325,16.4118522 38.5330887,16.8190711 38.7876005,16.6833314 C38.9742425,16.6154616 39.2796566,16.5984942 39.4832661,16.6493965 C39.7886803,16.7342338 39.890485,16.8869409 39.9074525,17.3450622 C39.9413874,17.6844112 39.890485,18.0237603 39.7886803,18.1085976 C39.703843,18.2104023 39.4493312,18.2782721 39.1948194,18.2782721 C38.8045679,18.2782721 38.7536656,18.346142 38.6518608,19.1605798 C38.6009585,19.6526359 38.0410325,21.9262748 37.4132367,24.2168811 C36.378222,27.9666885 36.2933847,28.4417772 36.4630592,29.0186707 C36.564864,29.3580198 36.8193758,29.7652387 37.0229852,29.9009783 C37.277497,30.0706529 37.8204556,30.1554901 38.5161212,30.1554901 C39.1269496,30.1554901 40.1789317,30.002783 40.8406624,29.816141 C41.5193606,29.629499 42.6731475,29.1713778 43.3857806,28.8150612 C44.1153811,28.4587447 45.2012982,27.797014 45.8121265,27.3388927 C46.4229549,26.8977389 47.508872,25.9645289 48.25544,25.2518958 C48.9850405,24.5392628 49.9182505,23.5042481 50.3085019,22.9443221 C50.7157208,22.3843961 51.4962237,20.9760974 52.0561497,19.805343 C52.6160757,18.6345887 53.7698626,15.8858611 54.6012679,13.6970595 C55.4326731,11.5082579 56.3319482,9.13281428 56.6034275,8.43714866 C56.8579393,7.74148303 57.333028,6.84220796 57.6384422,6.43498905 C58.1474658,5.79022579 58.1814007,5.68842107 57.9438563,5.43390925 C57.8081167,5.26423471 57.6893445,4.95882053 57.6893445,4.75521108 C57.6893445,4.51766672 57.8590191,4.26315491 58.1135309,4.11044782 C58.4868149,3.88987091 58.5886196,3.88987091 58.9619036,4.11044782 C59.199448,4.24618745 59.38609,4.48373181 59.38609,4.61947145 C59.38609,4.75521108 59.4369923,4.87398326 59.5048621,4.87398326 C59.5896994,4.87398326 59.9460159,4.75521108 60.3192999,4.61947145 C60.845291,4.43282945 62.0160454,4.38192709 65.4434711,4.36495963 C68.8878643,4.36495963 69.9059116,4.31405727 69.9059116,4.16135018 C69.9059116,4.042578 70.0416512,3.80503364 70.2113258,3.6353591 C70.3640329,3.46568456 70.6015772,3.32994492 70.703382,3.34691238 C70.8221541,3.34691238 71.042731,3.46568456 71.1784707,3.60142419 C71.3142103,3.73716382 71.4838849,4.02561055 71.5347872,4.24618745 C71.5856896,4.48373181 71.5178198,4.72127617 71.3481452,4.87398326 C71.1106009,5.11152762 71.1275683,5.17939744 71.5856896,5.6375187 C71.8741363,5.90899797 73.095793,7.94509248 74.3344172,10.1338941 C75.5560739,12.3226957 76.6589584,14.3927251 76.7777306,14.7151067 C76.9304377,15.1562606 77.0661773,15.2920002 77.3037217,15.2580653 C77.4903637,15.2241304 77.7957778,15.2410978 77.9993873,15.2920002 C78.2538991,15.35987 78.4235737,15.5634795 78.474476,15.8688936 C78.5423458,16.1743078 78.474476,16.4288196 78.2708666,16.6324291 C78.0502897,16.853006 77.8127453,16.9208758 77.4564288,16.8699734 C76.9983075,16.7851362 76.9134702,16.8360385 76.5910886,17.4808018 C76.3874791,17.8710532 73.9271983,21.0439672 71.1106009,24.5222953 C66.1052018,30.7154161 66.0033971,30.8511558 66.0033971,31.5977237 C66.0033971,32.3273243 66.3427462,32.8702828 72.3661925,41.8630336 C76.5401862,48.0900893 78.7968576,51.6193198 78.9156298,52.0944085 C79.0174346,52.48466 79.0683369,53.2651628 79.0004671,53.8759912 C78.8986624,54.877071 78.9156298,54.9279734 79.2719464,54.9279734 C79.5603931,54.9279734 79.7131002,55.0806805 79.8658073,55.5218343 C80.0524493,56.0308579 80.0524493,56.1496301 79.8149049,56.370207 C79.6791653,56.5059466 79.4246535,56.6247188 79.2719464,56.6247188 C79.1192393,56.6247188 78.8138251,56.5059466 78.5932482,56.370207 C78.2369317,56.1326626 78.1690618,56.1496301 77.4903637,56.7604584 C77.0322424,57.1507099 76.3705117,57.5070264 75.7427159,57.676701 C74.8095059,57.9651477 72.6716067,57.9821151 43.0973339,57.9821151 C16.1021141,57.9821151 11.3342595,57.9481802 10.6046589,57.7445708 C10.1295702,57.6088311 9.41693712,57.2525146 9.00971822,56.930133 C8.60249932,56.6247188 8.11044314,56.0647928 7.90683369,55.6915088 C7.72019169,55.3182248 7.55051715,54.9958432 7.55051715,54.9788757 C7.55051715,54.9619083 7.31297279,55.0297781 7.00755861,55.1485503 C6.5324699,55.3351923 6.43066517,55.3182248 6.10828354,55.0128106 C5.92164154,54.8261686 5.751967,54.503787 5.76893445,54.2832101 C5.76893445,54.0796007 5.938609,53.7911539 6.14221845,53.6554143 C6.36279535,53.5196747 6.70214444,53.4518048 6.90575389,53.4857398 C7.24510297,53.5536096 7.29600534,53.5027072 7.29600534,53.0954883 C7.29600534,52.8409765 7.43174497,52.2471156 7.58445206,51.7889943 C7.77109406,51.2460358 8.16134551,50.6691423 8.65340168,50.1940536 C9.17939276,49.68503 10.8761382,48.6669827 14.082987,46.9532699 C17.4934454,45.1207848 18.8338742,44.306347 19.0374837,43.9500305 C19.2241257,43.6615837 19.3428979,43.1355926 19.3428979,42.5926341 C19.3428979,42.1005779 19.2410931,41.4897496 19.1053535,41.2352378 C18.9865813,40.9637585 18.6641997,40.5735071 18.3927204,40.3359627 C18.1212412,40.0984183 16.4075283,39.1482409 14.5920107,38.2319984 C12.7764931,37.2987884 10.9270406,36.3316435 10.4689193,36.0601642 C10.0277655,35.8056524 9.63751403,35.5850755 9.58661166,35.5850755 C9.5357093,35.5850755 9.46783948,35.7377826 9.41693712,35.9244246 C9.36603476,36.1110666 9.14545785,36.2977086 8.90791349,36.3486109 C8.67036913,36.3995133 8.36495496,36.3316435 8.22921532,36.2298388 C8.07650823,36.1110666 7.95773605,35.7886849 7.95773605,35.5002382 C7.95773605,35.1608891 8.09347569,34.9063773 8.70430404,34.482191 L8.3479875,33.8034928 C8.16134551,33.4302088 6.5324699,29.0017032 4.7508872,23.9623693 C2.44331342,17.4808018 1.45920107,14.4945298 1.39133125,13.7309944 C1.28952652,12.8826217 1.22165671,12.6959797 1.01804726,12.7638495 C0.882307622,12.8147519 0.5938609,12.7299146 0.373283994,12.594175 C0.124427998,12.4245004 0,12.1699886 0,11.8306395 C0,11.4573555 0.11877218,11.2707135 0.441153811,11.101039 C0.780502897,10.9313644 0.933209985,10.9313644 1.20468925,11.101039 C1.49313598,11.287681 1.5949407,11.2367786 2.10396433,10.6768526 C2.40937851,10.3375035 3.07110922,9.84544736 3.58013285,9.607903 C4.08915648,9.35339119 5.71803209,8.75953029 7.21116807,8.26747412 C9.04365313,7.67361322 10.0786678,7.4191014 10.4010495,7.48697122 C10.7403986,7.57180849 10.8931056,7.52090613 10.9779429,7.28336177 C11.0288453,7.13065468 11.0967151,6.92704523 11.0967151,6.8252405 C11.1136825,6.74040323 11.317292,6.58769614 11.5718038,6.48589142 C11.9281204,6.36711924 12.0977949,6.36711924 12.250502,6.53679378 C12.3692742,6.65556596 12.4710789,7.07975232 12.4710789,7.48697122 C12.4710789,8.06386466 12.5898511,8.33534393 13.0479723,8.87830247 C13.370354,9.23461901 13.7266705,9.77757755 13.8454427,10.0490568 C13.9472474,10.3375035 14.9652947,13.1880359 16.1021141,16.4118522 C17.6461524,20.7724879 18.2739483,22.3674286 18.5793624,22.6558753 C18.8678092,22.9103872 19.122321,22.9952244 19.3768328,22.9273546 C19.5974097,22.8764522 19.8858564,22.7067777 20.0385635,22.5371032 C20.2591404,22.3165263 20.5306197,20.5179761 21.2771877,13.866734 C21.8031787,9.25158646 22.3461373,5.06062526 22.4818769,4.56856908 C22.6685189,3.92380582 22.9569656,3.46568456 23.5338591,2.87182366 C24.1446874,2.24402785 24.5688738,1.98951603 25.247572,1.80287404 C26.0450423,1.59926459 26.146847,1.53139477 26.0620098,1.19204568 C25.9941399,0.931878051 26.084633,0.660398783 26.333489,0.377607878 C26.5540659,0.140063518 26.8255452,-0.0296110244 26.9612848,0.00432388417 C27.0970245,0.0212913384 27.3345688,0.258835698 27.5042434,0.547282421 Z M24.1446874,4.80611344 C24.0259153,5.07759271 23.4829567,9.2006841 22.9230307,13.9515713 C22.2443326,19.8732128 21.8371136,22.7746475 21.6504717,23.164899 C21.4977646,23.4533457 21.1753829,23.8605646 20.9208711,24.064174 C20.5306197,24.3526208 20.4457824,24.5562302 20.4457824,25.0991888 C20.4457824,25.5629658 20.3496335,25.8570684 20.1573357,25.9814964 C19.9537262,26.117236 19.7670842,26.117236 19.4447026,25.9645289 C19.2071582,25.8457567 19.0205162,25.6082124 19.0205162,25.4555053 C19.0374837,25.2858308 19.0374837,25.0313189 19.0205162,24.8955793 C19.0205162,24.7598397 18.7660044,24.5731977 18.4605902,24.5053279 C18.1551761,24.437458 17.629185,24.0811415 17.3068034,23.724825 C16.7977797,23.1818664 16.4075283,22.2147215 14.5071734,16.8360385 C13.0479723,12.6959797 12.1486973,10.3884059 11.877218,10.0660243 C11.6396736,9.794545 11.2494222,9.47216337 10.9779429,9.35339119 C10.7234311,9.21765155 10.3501471,9.11584683 10.1295702,9.11584683 C9.92596075,9.11584683 8.56856441,9.52306573 7.12633079,9.99815445 C5.68409718,10.4902106 4.27579848,11.0501366 3.98735175,11.2367786 C3.69890503,11.4234206 3.34258849,11.847607 3.17291395,12.1699886 C2.95233704,12.594175 2.90143468,12.9844264 2.95233704,13.5273849 C3.00323941,13.9515713 4.53031029,18.4479467 6.3458279,23.538183 C8.14437805,28.6284192 9.75628621,33.0399574 9.9089933,33.3453715 C10.0617004,33.6338183 10.4349844,34.0749721 10.7234311,34.295549 C11.0288453,34.5161259 13.0310049,35.6020429 15.1858716,36.7049275 C17.9006643,38.0962587 19.2919955,38.927664 19.7840517,39.4027527 C20.1573357,39.7760367 20.581522,40.4208 20.7342291,40.8449863 C20.9717735,41.5745869 21.0057084,41.6085218 21.5995693,41.5745869 C22.1085929,41.5236845 22.2782675,41.6085218 22.4818769,41.9478708 C22.7194213,42.3381223 22.7024538,42.4229596 22.4309745,42.8301785 C22.1934302,43.2034625 22.0576906,43.2543648 21.5826018,43.1695276 C21.0566108,43.0507554 21.0396433,43.0677228 20.8190664,43.8482257 C20.7002942,44.306347 20.3609451,44.9171753 20.021596,45.2904593 C19.5974097,45.7485806 18.0703388,46.6648231 14.8465225,48.4124709 C12.3353393,49.7698673 10.0786678,51.0424263 9.87505839,51.2460358 C9.65448148,51.4496452 9.3490673,51.8568641 9.21332767,52.1283434 C9.06062058,52.3998227 8.95881586,52.9936836 8.97578331,53.4518048 C8.97578331,53.8929587 9.09455549,54.4528846 9.23029512,54.7243639 C9.36603476,54.9788757 9.60357912,55.3182248 9.77325366,55.4709319 C9.95989566,55.623639 10.384082,55.8781508 10.7234311,56.0138904 C11.3003245,56.2514348 14.7447178,56.2853697 43.2330735,56.2853697 L75.0809852,56.2853697 C76.3535442,55.6406064 76.6928933,55.3012574 76.98134,54.7582988 C77.2188844,54.3001776 77.3715915,53.7063167 77.3715915,53.2821303 C77.3715915,52.8749114 77.2528193,52.298018 77.1001122,52.0095712 C76.9474051,51.7041571 74.1308077,47.445326 70.8391216,42.5417317 C67.5474355,37.6381375 64.7308381,33.3453715 64.578131,33.0060224 C64.3405866,32.429129 64.2727168,32.3782266 63.9842701,32.5818361 C63.7127908,32.7515106 63.5770512,32.7345432 63.2207346,32.4969988 C62.9662228,32.3273243 62.7795808,32.0219101 62.7795808,31.8183006 C62.7626134,31.5977237 62.898353,31.2923096 63.0680275,31.122635 C63.2886044,30.9020581 63.5091813,30.8341883 63.8485304,30.9020581 C64.2557493,30.9868954 64.3405866,30.935993 64.6290333,30.2912298 C64.7987079,29.8840109 67.1232491,26.8468365 69.8041069,23.538183 C72.4849647,20.2295294 74.8264733,17.22629 75.0131153,16.8869409 C75.1827899,16.5306243 75.335497,16.0385682 75.335497,15.7840564 C75.335497,15.4956096 74.4192544,13.6631246 73.1127605,11.3216159 C71.8911038,9.13281428 70.703382,7.11368722 70.4488701,6.84220796 C70.1943583,6.57072869 69.7362371,6.24834706 69.4477903,6.12957488 C69.023604,5.95990033 67.9716218,5.89203052 65.3756013,5.89203052 C62.7286784,5.89203052 61.6257939,5.95990033 60.9640632,6.14654233 C60.3192999,6.33318433 59.8442112,6.62163105 59.2673178,7.21549195 C58.639522,7.8263203 58.3510752,8.31837648 57.9608238,9.37035864 C57.6893445,10.1169266 56.7900695,12.5263051 55.9586642,14.7151067 C55.1102915,16.9039083 54.0752768,19.4659939 53.634123,20.3992039 C53.1929691,21.3324139 52.4973035,22.6389079 52.0731172,23.2836711 C51.6489308,23.9454019 50.8175255,24.997384 50.2066972,25.6421473 C49.6128363,26.2869106 48.6456914,27.2031531 48.0518305,27.6782418 L46.9998483,28.543582 C47.7464163,29.3071174 47.7464163,29.3580198 47.508872,29.7822061 C47.3561649,30.0367179 47.0677182,30.2572949 46.8301738,30.2912298 C46.5247596,30.3421321 46.3041827,30.2233599 46.0666384,29.9009783 L45.7272893,29.4598245 C43.7590646,30.4948392 42.5374079,31.0208303 41.7399375,31.2753421 C40.5522157,31.6486261 39.9753223,31.7334634 38.4991537,31.7504308 C36.8702781,31.7673983 36.6836361,31.8013332 36.5478965,32.1067474 C36.4460918,32.3103568 36.2085474,32.4630639 35.8861658,32.4969988 C35.6146865,32.5139663 35.2753374,32.4460965 35.1565653,32.3273243 C35.0377931,32.2085521 34.9359883,31.9370728 34.9529558,31.7334634 C34.9529558,31.5128865 35.071728,31.2244397 35.2074676,31.0887001 C35.4280445,30.8681232 35.4280445,30.749351 35.1226303,30.1215552 C34.9190209,29.663434 34.7832813,29.0356381 34.7832813,28.4587447 C34.7832813,27.8309489 35.1565653,26.2190407 35.8861658,23.538183 C36.4969941,21.3493814 37.0060178,19.2114821 37.0060178,18.7872958 C37.0229852,18.3631094 36.9211805,17.8031834 36.7684734,17.5147367 C36.6327338,17.2432574 35.9879705,16.5645593 35.3432073,16.0216007 C34.7154114,15.4956096 33.6973642,14.4775624 33.0865358,13.7988642 C32.0006188,12.5432726 31.9836513,12.5432726 31.6443022,12.8656542 C31.4576602,13.0353288 31.1352786,13.1880359 30.9316691,13.1880359 C30.6941248,13.1880359 30.4226455,13.0013939 30.252971,12.746882 C30.0154266,12.407533 29.9984592,12.2378584 30.1341988,12.0172815 C30.2360035,11.8645744 30.4735479,11.6779324 30.6771573,11.5761277 C30.8807668,11.4912904 31.0504413,11.3555508 31.0504413,11.287681 C31.0504413,11.2028437 30.8637993,10.7956248 30.6432224,10.354471 C30.4226455,9.89634973 30.0832964,9.04797701 29.8966544,8.43714866 C29.7100124,7.8263203 29.4724681,6.75737068 29.3536959,6.06170506 C29.2349237,5.36603943 29.0482817,4.60250399 28.9295095,4.36495963 C28.8107374,4.12741527 28.4035185,3.80503364 28.013267,3.65232655 C27.639983,3.48265201 26.893415,3.34691238 26.3843914,3.34691238 C25.620856,3.34691238 25.3663441,3.43174965 24.9082229,3.8220011 C24.6028087,4.09348036 24.2464922,4.53463418 24.1446874,4.80611344 L24.1446874,4.80611344 Z M39.4493312,58.6608133 C39.9753223,58.6608133 40.0431921,58.7117157 40.0431921,59.0849997 C40.0431921,59.4582837 39.9753223,59.509186 39.4493312,59.509186 C38.9233401,59.509186 38.8554703,59.4582837 38.8554703,59.0849997 C38.8554703,58.7117157 38.9233401,58.6608133 39.4493312,58.6608133 Z" id="Path-0"></path>
        </g>
    </g>
</svg>