<?xml version="1.0" encoding="UTF-8"?>
<svg width="80px" height="58px" viewBox="0 0 80 58" version="1.1" xmlns="http://www.w3.org/2000/svg" xmlns:xlink="http://www.w3.org/1999/xlink">
    <title>MARINA_BAY_CIRCUIT</title>
    <g id="new-relase" stroke="none" stroke-width="1" fill="none" fill-rule="evenodd">
        <path d="M74.5831727,3.10630004 L77.689666,4.97040904 C77.8553532,5.06971085 77.9171147,5.27616142 77.8338509,5.4481669 L77.5695634,6.01981652 C76.5910336,8.18208478 73.8159126,14.5906604 73.2218454,15.9190589 L72.8117614,16.8309109 C70.2849459,22.4163546 68.3703316,25.9531675 67.3247783,26.7808307 C66.2546784,27.6279417 61.5182385,29.0375621 53.6929583,30.9409088 L42.0212045,33.7166605 C40.5504143,34.0751971 39.4898464,34.3478151 38.6687794,34.5799938 C38.0901784,34.7435244 37.4750597,34.5073243 37.1368945,33.9884367 C33.7492742,28.790992 29.3513494,25.7712146 24.1809569,27.8657753 C20.4681816,29.3691728 18.5734966,31.9761362 18.2497415,35.2705301 C18.0269291,37.5377735 18.5488195,39.8541742 19.4545456,42.0050539 C19.9422315,43.1634296 20.490219,44.2516435 21.0520118,45.2286745 C21.2047746,45.4943983 21.126973,45.8396504 20.8664407,46.0257448 L8.61014566,54.7799372 C7.6997772,55.4299134 6.42364944,55.1030396 5.93859433,54.095463 L2.28830137,46.5223557 C2.1499792,46.2348242 2.09995008,45.9119541 2.14490953,45.5946688 L2.78873899,41.0889319 C2.90244532,40.2936301 3.57590487,39.7078308 4.37592272,39.7078308 L5.14344154,39.7028201 C11.4687016,39.6168565 16.0000389,38.4110406 16.812141,34.9866413 C17.5193808,32.0010791 15.8857855,27.474951 13.0030268,22.2236734 C12.4961898,21.300506 12.979933,20.1353083 13.9884244,19.8476276 C18.7446881,18.4924747 23.9165246,17.9582058 29.0330965,18.7992504 C31.9817588,19.2837385 34.5606985,20.0190052 37.6647325,21.1689456 L38.5941004,21.5200925 C39.4473581,21.8499218 41.5616832,22.6783471 42.3746934,22.9864939 L42.5112575,23.0379257 C44.0644479,23.6179607 45.2998694,24.0123751 46.5054395,24.2897103 C48.0841597,24.6528867 49.5647133,24.7965086 51.0596961,24.7031175 L51.9415723,24.6445238 C54.9347552,24.4332592 56.9538681,24.15815 58.2024163,23.8542934 C58.2256224,23.8485764 58.2535497,23.8598874 58.273106,23.8898157 L59.3274713,25.5001198 C60.0993592,26.6805339 61.7651452,26.8438199 62.7532009,25.8372766 L67.6791696,20.8101702 C68.4939059,19.9785385 68.6149167,18.689415 67.9676951,17.7213967 L66.886189,16.0975393 C66.8152849,15.9913102 66.8107964,15.8568668 66.8735048,15.7480716 L74.0718304,3.23882582 C74.1747901,3.06001551 74.4061678,2.99998747 74.5831727,3.10630004 Z M46.147434,34.9215603 L53.1762597,33.2563822 L55.6910844,32.6430152 C63.1241812,30.8050915 67.2887555,29.5246099 68.6461605,28.4500628 C70.0933666,27.3044501 72.0220707,23.7416094 74.752418,17.7062583 L75.8971698,15.1238499 L79.3657017,7.21527108 C79.5404137,6.82545973 79.6737931,6.53330621 79.7500132,6.37591084 C80.3139271,5.21098353 79.894812,3.81000566 78.7845944,3.14461651 L75.6793343,1.28124754 C74.4811336,0.561585194 72.9241639,0.96552144 72.2267349,2.17674796 L65.0286427,14.6855886 C64.561763,15.4955963 64.5953003,16.5001453 65.1148642,17.2785534 L66.1968343,18.9031053 C66.2846803,19.0344954 66.2683883,19.2080532 66.158488,19.3202326 L61.2332596,24.3465841 C61.1974867,24.3830258 61.1368062,24.3770777 61.1089286,24.3344457 L60.0547567,22.7244374 C59.5454879,21.9450697 58.6021904,21.5630194 57.695866,21.7864967 L57.3545381,21.8639019 C56.083366,22.1333585 54.0027868,22.38608 50.9269286,22.5783212 C49.6482747,22.6581982 48.3707688,22.5342731 46.9827249,22.2149608 C45.9924764,21.9871592 44.9594351,21.6661897 43.6887088,21.2031836 L42.958484,20.9307264 C41.9483288,20.5443982 39.6387393,19.6385285 39.094616,19.4317202 C35.5615463,18.0888842 32.6980235,17.2439399 29.37834,16.6984902 C23.9138468,15.8002554 18.4394281,16.3657821 13.4047431,17.8002628 C11.0796265,18.4635219 9.97316034,21.1286791 11.1368213,23.2482044 C13.7468538,28.0026797 15.2754349,32.2378498 14.7405934,34.4956448 C14.2514098,36.5583904 9.9691403,37.5805051 4.37623002,37.5788905 C2.51516065,37.5788905 0.944680206,38.9449507 0.681217626,40.7877003 L0.0372011333,45.2947512 C-0.0670099583,46.0301786 0.0488945416,46.7781848 0.370165186,47.4460113 L4.02058508,55.0193824 C5.07851289,57.2169541 7.86203395,57.9299394 9.84737205,56.5124664 L22.1038479,47.758145 C23.2498067,46.939603 23.5994077,45.3882153 22.8976462,44.1675334 C22.377469,43.2628774 21.8684822,42.2521124 21.4166527,41.1789047 C19.3470116,36.2640094 19.7711383,31.9482775 24.9801508,29.8390153 C28.8832131,28.2578585 32.4623708,30.7154401 35.3533247,35.1508762 C36.19659,36.4447997 37.7660679,37.0474651 39.2479402,36.628642 L40.0279873,36.4153083 C40.533132,36.2810743 41.1208589,36.1312369 41.8149306,35.959486 L46.147434,34.9215603 Z" id="MARINA_BAY_CIRCUIT" fill="#999999" fill-rule="nonzero"></path>
    </g>
</svg>