<?xml version="1.0" encoding="UTF-8"?>
<svg width="30px" height="30px" viewBox="0 0 30 30" version="1.1" xmlns="http://www.w3.org/2000/svg" xmlns:xlink="http://www.w3.org/1999/xlink">
    <title>match</title>
    <g id="Page-1" stroke="none" stroke-width="1" fill="none" fill-rule="evenodd">
        <g id="match" transform="translate(0.000000, 0.000000)" fill="#00BFEB">
            <path d="M0.418952618,0 L11.9925187,0 L12.3665835,0.448877805 L12.3665835,7.33167082 L12.5386534,7.28678304 C12.6284289,7.26433915 13.0249377,7.18204489 13.4139651,7.09226933 C14.0124688,6.96508728 14.3042394,6.95012469 15.2468828,6.98004988 C16.1072319,7.00997506 16.5336658,7.06234414 17.0798005,7.20448878 C17.4688279,7.30174564 18.0074813,7.48877805 18.276808,7.6084788 C18.5461347,7.72817955 19.0698254,8.01995012 19.436409,8.25935162 C19.8553616,8.5361596 20.3640898,8.95511222 20.7830424,9.38902743 C21.1795511,9.80049875 21.5985037,10.3316708 21.80798,10.6758105 C21.9950125,10.9975062 22.2568579,11.4613466 22.3840399,11.7082294 C22.5112219,11.9551122 22.7057357,12.4937656 22.8104738,12.9052369 C22.9975062,13.5860349 23.0199501,13.7730673 23.0199501,15 C23.0199501,16.1670823 23.0049875,16.4289277 22.8553616,16.967581 C22.765586,17.3042394 22.6907731,17.59601 22.6907731,17.6184539 C22.6907731,17.6408978 24.2319202,17.6558603 26.117207,17.6558603 C29.4389027,17.6483791 29.5436409,17.6558603 29.9476309,17.9551122 L29.9476309,23.7755611 C29.9551122,29.5062344 29.9476309,29.5885287 29.6483791,30 L17.9027431,30 L17.7531172,29.798005 C17.6034913,29.59601 17.59601,29.4912718 17.6034913,22.7431421 L17.4014963,22.7880299 C17.2817955,22.8104738 16.8927681,22.9002494 16.5187032,22.9750623 C16.1147132,23.0573566 15.5386534,23.117207 15.0822943,23.117207 C14.6558603,23.117207 14.0648379,23.0798005 13.7730673,23.0349127 C13.4738155,22.9975062 13.1072319,22.9226933 12.9650873,22.8852868 C12.8229426,22.840399 12.40399,22.6832918 12.0299252,22.5336658 C11.6633416,22.3840399 11.0798005,22.0997506 10.7431421,21.9052369 C10.361596,21.6882793 9.85286783,21.2842893 9.43391521,20.8802993 C9.02244389,20.4912718 8.56608479,19.9600998 8.32668329,19.5935162 C8.09476309,19.2493766 7.78802993,18.7107232 7.63840399,18.40399 C7.48877805,18.0972569 7.30174564,17.6034913 7.21197007,17.319202 C7.12967581,17.0349127 7.02493766,16.5411471 6.97256858,16.234414 C6.9201995,15.8977556 6.90523691,15.2693267 6.9276808,14.6633416 C6.95012469,13.9900249 7.01745636,13.4513716 7.12219451,13.0548628 C7.21197007,12.7256858 7.27930175,12.4488778 7.27930175,12.4339152 C7.27930175,12.4264339 5.73067332,12.4189526 0.396508728,12.4189526 L0.0224438903,12.0448878 L0,0.366583541 L0.418952618,0 Z M1.1446384,5.91022444 C1.1446384,9 1.17456359,10.6234414 1.21945137,10.6234414 C1.26433915,10.6234414 1.3915212,10.4663342 1.51870324,10.2718204 C1.63840399,10.0698254 1.99750623,9.65835411 2.319202,9.35162095 C2.73067332,8.96259352 3.09725686,8.68578554 3.53865337,8.46134663 C3.89027431,8.28179551 4.18204489,8.12468828 4.19700748,8.10972569 C4.20448878,8.09476309 4.10723192,7.8553616 3.97256858,7.57855362 C3.77805486,7.17456359 3.72568579,6.95760599 3.7032419,6.50872818 C3.680798,6.07481297 3.71072319,5.84289277 3.83790524,5.49875312 C3.9276808,5.25187032 4.11471322,4.90773067 4.25685786,4.73566085 C4.42643392,4.52119701 4.69326683,4.32418953 5.05735661,4.1446384 C5.35660848,4.00249377 5.75311721,3.86034913 5.93266833,3.83790524 C6.12718204,3.81546135 6.43391521,3.83790524 6.64339152,3.89027431 C6.85286783,3.94264339 7.18204489,4.06982544 7.3765586,4.16708229 C7.57107232,4.26433915 7.8553616,4.46633416 8.00498753,4.6234414 C8.15461347,4.77306733 8.36408978,5.0872818 8.46134663,5.3117207 C8.56608479,5.5436409 8.66334165,5.93266833 8.68578554,6.20947631 C8.71571072,6.56109726 8.68578554,6.80798005 8.58852868,7.10723192 C8.51371571,7.33167082 8.37905237,7.64588529 8.28179551,7.80299252 C8.18453865,7.95261845 8.10972569,8.09476309 8.12468828,8.10224439 C8.13216958,8.11720698 8.37905237,8.23690773 8.66334165,8.37157107 C8.95511222,8.50623441 9.29177057,8.68578554 9.41147132,8.7755611 C9.55361596,8.87281796 9.66583541,8.90274314 9.71820449,8.85785536 C9.77057357,8.82044888 10.1147132,8.58104738 10.4887781,8.32668329 L11.1695761,7.8553616 L11.1695761,1.19700748 L1.1446384,1.19700748 L1.1446384,5.91022444 Z M5.17705736,5.46882793 C5.06483791,5.61097257 4.93017456,5.87281796 4.87780549,6.05985037 C4.80299252,6.32169576 4.80299252,6.4638404 4.87032419,6.71820449 C4.92269327,6.89027431 5.05735661,7.13715711 5.16957606,7.26433915 C5.28179551,7.39900249 5.47630923,7.55610973 5.59600998,7.6159601 C5.72319202,7.67581047 5.9925187,7.72817955 6.19451372,7.72817955 C6.40399002,7.72817955 6.67331671,7.67581047 6.79301746,7.6084788 C6.9201995,7.54862843 7.09226933,7.41396509 7.18204489,7.31670823 C7.26433915,7.22693267 7.3765586,7.06234414 7.42892768,6.95760599 C7.48129676,6.85286783 7.52618454,6.60598504 7.52618454,6.39650873 C7.52618454,6.19451372 7.47381546,5.92518703 7.41396509,5.79800499 C7.34663342,5.67830424 7.21945137,5.49875312 7.12219451,5.41645885 C7.02493766,5.32668329 6.83790524,5.19950125 6.7032419,5.13216958 C6.56857855,5.06483791 6.32917706,5.01246883 6.17955112,5.01995012 C6.02244389,5.01995012 5.78304239,5.06483791 5.64089776,5.12468828 C5.49875312,5.17705736 5.28927681,5.33416459 5.17705736,5.46882793 L5.17705736,5.46882793 Z M12.9650873,8.37905237 C12.7855362,8.43142145 12.4114713,8.56608479 12.1421446,8.69326683 C11.8802993,8.81296758 11.4538653,9.05236908 11.2069825,9.21695761 C10.9600998,9.38902743 10.563591,9.6957606 10.3241895,9.90523691 C10.0773067,10.1147132 9.7032419,10.5261845 9.49376559,10.8104738 C9.27680798,11.1022444 8.98503741,11.5511222 8.83541147,11.8204489 C8.68578554,12.0897756 8.49127182,12.5236908 8.40897756,12.7930175 C8.319202,13.0623441 8.19201995,13.6159601 8.13216958,14.0274314 C8.04987531,14.5361596 8.03491272,14.9925187 8.06483791,15.4488778 C8.09476309,15.8229426 8.19950125,16.4438903 8.3042394,16.8329177 C8.40149626,17.2369077 8.61097257,17.7830424 8.79052369,18.1047382 C8.95511222,18.4114713 9.20199501,18.8379052 9.34413965,19.0399002 C9.47880299,19.2493766 9.89775561,19.7057357 10.2643392,20.0723192 C10.8628429,20.6408978 11.0573566,20.7755611 11.8653367,21.1720698 C12.3665835,21.4189526 13.0473815,21.6882793 13.3765586,21.7780549 C13.8478803,21.8977556 14.1995012,21.9351621 14.9850374,21.9351621 C15.7780549,21.9351621 16.1296758,21.8977556 16.5935162,21.7780549 C16.9226933,21.6882793 17.6034913,21.4189526 18.1122195,21.1720698 C18.9127182,20.7755611 19.1147132,20.6408978 19.7057357,20.0723192 C20.0798005,19.7057357 20.4987531,19.2493766 20.6334165,19.0399002 C20.7680798,18.8379052 21.0224439,18.4114713 21.1870324,18.1047382 C21.3591022,17.7830424 21.5685786,17.2369077 21.6733167,16.8329177 C21.7705736,16.4438903 21.8753117,15.8379052 21.9052369,15.4862843 C21.9351621,15.1122195 21.9201995,14.5885287 21.8753117,14.2144638 C21.8229426,13.8628429 21.7331671,13.3765586 21.6733167,13.1296758 C21.6134663,12.882793 21.4264339,12.4114713 21.2618454,12.0822943 C21.0897756,11.7531172 20.8204489,11.2817955 20.6558603,11.0349127 C20.4837905,10.7880299 20.1246883,10.3690773 19.8478803,10.0997506 C19.5785536,9.83042394 19.1221945,9.4563591 18.8379052,9.26184539 C18.553616,9.07481297 18.0897756,8.81296758 17.8129676,8.68578554 C17.5361596,8.55860349 17.0274314,8.38653367 16.6907731,8.3042394 C16.3466334,8.22194514 15.7182045,8.13965087 15.2842893,8.11720698 C14.8054863,8.10224439 14.2668329,8.12468828 13.9002494,8.18453865 C13.5710723,8.23690773 13.1521197,8.32668329 12.9650873,8.37905237 Z M4.53366584,9.26932668 C4.31670823,9.35162095 3.99501247,9.51620948 3.82294264,9.62842893 C3.64339152,9.73316708 3.37406484,9.9276808 3.21695761,10.0548628 C3.05985037,10.1820449 2.79800499,10.4812968 2.64089776,10.7206983 C2.47630923,10.9526185 2.34164589,11.1620948 2.34164589,11.1845387 C2.34164589,11.2069825 3.58354115,11.2219451 5.09476309,11.2219451 L7.840399,11.2294264 C8.18453865,10.6159601 8.40149626,10.286783 8.5436409,10.0997506 C8.73815461,9.83790524 8.7680798,9.74812968 8.69326683,9.7032419 C8.63341646,9.67331671 8.42394015,9.56109726 8.21446384,9.44887781 C8.01246883,9.34413965 7.63840399,9.19451372 7.3915212,9.11221945 C7.1446384,9.02992519 6.67331671,8.95511222 6.34413965,8.94014963 C6.0074813,8.91770574 5.57356608,8.94763092 5.33416459,9.0074813 C5.10972569,9.05985037 4.75062344,9.17955112 4.53366584,9.26932668 L4.53366584,9.26932668 Z M21.7032419,19.5037406 C21.3815461,20.0049875 21.0149626,20.4314214 20.521197,20.8952618 C20.1321696,21.2618454 19.5860349,21.6882793 19.3092269,21.8528678 L18.8004988,22.1446384 C18.8004988,27.1421446 18.8304239,28.2044888 18.8753117,28.2044888 C18.9201995,28.2044888 18.9501247,28.1820449 18.9501247,28.1521197 C18.9501247,28.1147132 19.1147132,27.8678304 19.3241895,27.5910224 C19.5336658,27.3067332 19.9301746,26.8952618 20.2069825,26.6708229 C20.4837905,26.446384 20.9700748,26.1321696 21.2917706,25.9750623 C21.6134663,25.8254364 21.8753117,25.6907731 21.8753117,25.6832918 C21.8678304,25.6683292 21.7855362,25.5336658 21.6882793,25.3840399 C21.5835411,25.2269327 21.4488778,24.9501247 21.3890274,24.7630923 C21.3216958,24.5760599 21.2693267,24.2394015 21.2693267,24.0149626 C21.2693267,23.7905237 21.3366584,23.4014963 21.4189526,23.1546135 C21.5087282,22.8703242 21.6882793,22.563591 21.8902743,22.3316708 C22.1147132,22.0773067 22.3840399,21.8753117 22.7356608,21.7032419 C23.1770574,21.4937656 23.3341646,21.4488778 23.7755611,21.4563591 C24.201995,21.4563591 24.3965087,21.5012469 24.7855362,21.6733167 C25.0548628,21.8004988 25.4064838,22.032419 25.5710723,22.1895262 C25.7281796,22.3541147 25.9526185,22.6683292 26.0573566,22.8927681 C26.2219451,23.244389 26.244389,23.4089776 26.244389,24.0149626 C26.244389,24.6882793 26.2369077,24.7481297 25.9750623,25.2119701 L25.7057357,25.6982544 C26.8129676,26.2369077 27.1645885,26.4763092 27.5835411,26.872818 C27.9052369,27.1720698 28.3017456,27.6209476 28.4588529,27.8678304 C28.6533666,28.1745636 28.7581047,28.2793017 28.7880299,28.2044888 C28.8104738,28.1446384 28.8179551,26.0049875 28.8104738,23.4538653 L28.7880299,18.8154613 L22.1745636,18.7780549 L21.7032419,19.5037406 Z M22.6683292,23.2294264 C22.5037406,23.4688279 22.4588529,23.6184539 22.4513716,23.9401496 C22.4513716,24.1795511 22.4962594,24.4488778 22.563591,24.5760599 C22.6309227,24.7032419 22.7730673,24.8902743 22.8927681,24.9950125 C23.0124688,25.1072319 23.2369077,25.234414 23.4014963,25.286783 C23.5810474,25.3466334 23.8279302,25.361596 24,25.3316708 C24.1645885,25.3017456 24.4189526,25.2044888 24.553616,25.1147132 C24.6957606,25.0249377 24.8678304,24.8528678 24.9426434,24.7256858 C25.0249377,24.605985 25.1072319,24.3366584 25.1296758,24.127182 C25.1670823,23.8279302 25.1371571,23.6932668 25.0024938,23.4239401 C24.9052369,23.2369077 24.7107232,22.9975062 24.5610973,22.8778055 C24.3890274,22.7356608 24.1795511,22.6533666 23.925187,22.6234414 C23.6259352,22.5935162 23.4912718,22.6159601 23.2219451,22.7581047 C23.0349127,22.8553616 22.7880299,23.0648379 22.6683292,23.2294264 L22.6683292,23.2294264 Z M22.4663342,26.723192 C22.286783,26.7830424 21.8603491,26.9850374 21.5311721,27.1795511 C21.201995,27.3665835 20.798005,27.6733167 20.6259352,27.8453865 C20.4613466,28.0249377 20.2294264,28.3017456 20.1246883,28.4663342 C20.0124688,28.6309227 19.9226933,28.7955112 19.9226933,28.8254364 C19.9226933,28.8553616 21.6583541,28.8778055 23.7755611,28.8778055 C25.9002494,28.8778055 27.6359102,28.8553616 27.6359102,28.8254364 C27.6359102,28.7955112 27.5461347,28.6309227 27.4413965,28.4663342 C27.3291771,28.3017456 27.1047382,28.0249377 26.9326683,27.8453865 C26.7605985,27.6658354 26.3715711,27.3665835 26.0573566,27.1870324 C25.7506234,27.0074813 25.2793017,26.7905237 25.0099751,26.7157107 C24.7481297,26.6408978 24.3591022,26.5586035 24.1496259,26.5436409 C23.9476309,26.5286783 23.5586035,26.5436409 23.2892768,26.5660848 C23.0274314,26.59601 22.6533666,26.6633416 22.4663342,26.723192 Z M18.0598504,12.3740648 C18.2842893,12.40399 18.5910224,12.5012469 18.7481297,12.5760599 C18.9052369,12.6583541 19.1072319,12.8304239 19.2044888,12.9650873 C19.3092269,13.0997506 19.4289277,13.3541147 19.4738155,13.5411471 C19.5187032,13.7281796 19.5486284,13.8852868 19.5336658,13.8852868 C19.5261845,13.8927681 19.2718204,13.915212 18.9725686,13.9451372 C18.4339152,13.9900249 18.4264339,13.9900249 18.3740648,13.7955112 C18.3441397,13.6832918 18.2244389,13.5112219 18.1122195,13.4214464 C17.9625935,13.2942643 17.8129676,13.2418953 17.5660848,13.2418953 C17.3865337,13.2418953 17.117207,13.2942643 16.967581,13.3541147 C16.8254364,13.4139651 16.6907731,13.5112219 16.6608479,13.563591 C16.638404,13.6159601 16.6309227,13.7206983 16.6608479,13.8029925 C16.6832918,13.8852868 16.8254364,14.0124688 16.9825436,14.0872818 C17.1396509,14.1546135 17.5735661,14.2892768 17.9476309,14.3865337 C18.3142145,14.4763092 18.7630923,14.6483791 18.9351621,14.7605985 C19.1072319,14.872818 19.3541147,15.127182 19.4812968,15.3216958 C19.6458853,15.5835411 19.7057357,15.7630923 19.7057357,16.032419 C19.6982544,16.2418953 19.6309227,16.5261845 19.5336658,16.7356608 C19.4438903,16.9301746 19.2269327,17.1995012 19.0623441,17.3341646 C18.8977556,17.4688279 18.6209476,17.6109726 18.4488778,17.6558603 C18.276808,17.7007481 17.8503741,17.7306733 17.5137157,17.7306733 C17.0274314,17.7306733 16.8179551,17.6932668 16.5187032,17.5586035 C16.3017456,17.4538653 16.032419,17.244389 15.8753117,17.0498753 C15.7182045,16.8703242 15.5610973,16.6309227 15.5162095,16.5187032 C15.4713217,16.4064838 15.4339152,16.2269327 15.4339152,16.1221945 C15.4339152,15.9875312 15.4862843,15.9276808 15.605985,15.9052369 C15.6957606,15.882793 15.8753117,15.8528678 15.9950125,15.8229426 C16.1221945,15.8004988 16.2793017,15.8004988 16.3541147,15.8229426 C16.4289277,15.8453865 16.5037406,15.9426434 16.5187032,16.0473815 C16.5411471,16.1521197 16.638404,16.3316708 16.7356608,16.4438903 C16.840399,16.563591 17.0573566,16.6907731 17.2743142,16.7506234 C17.5735661,16.8329177 17.7007481,16.8329177 17.9401496,16.7581047 C18.1047382,16.7057357 18.3216958,16.5935162 18.4114713,16.5037406 C18.5162095,16.4139651 18.5835411,16.2568579 18.5835411,16.1221945 C18.5835411,16.0024938 18.5236908,15.8379052 18.4488778,15.7705736 C18.3740648,15.6957606 17.9326683,15.5386534 17.4538653,15.4114713 C16.9825436,15.2842893 16.4738155,15.0972569 16.3167082,15 C16.159601,14.8952618 15.9426434,14.6932668 15.8304239,14.5361596 C15.6583541,14.3117207 15.6209476,14.19202 15.6209476,13.8029925 C15.6209476,13.4289277 15.6583541,13.286783 15.8229426,13.0473815 C15.9351621,12.8902743 16.1745636,12.6733167 16.3466334,12.5760599 C16.5561097,12.4638404 16.8478803,12.3815461 17.1620948,12.3516209 C17.4314214,12.3291771 17.8354115,12.3366584 18.0598504,12.3740648 L18.0598504,12.3740648 Z M11.5062344,12.4189526 L12.1047382,14.2144638 C12.4339152,15.2094763 12.7256858,16.0174564 12.7406484,16.0174564 C12.7630923,16.0174564 12.882793,15.755611 13.0024938,15.4339152 C13.1296758,15.1122195 13.3990025,14.3117207 13.9825436,12.4563591 L14.5586035,12.4413965 C14.9102244,12.4264339 15.1346633,12.4488778 15.1346633,12.4937656 C15.1346633,12.5386534 14.9551122,13.0997506 14.723192,13.7506234 C14.4987531,14.394015 14.2668329,15.0299252 14.2069825,15.1496259 C14.1471322,15.276808 13.9301746,15.882793 13.7206983,16.4962594 C13.5112219,17.117207 13.3391521,17.6259352 13.3391521,17.6408978 C13.3391521,17.6483791 13.084788,17.6558603 12.1795511,17.6633416 L11.7531172,16.5187032 C11.521197,15.8902743 11.1022444,14.7381546 10.8329177,13.9526185 C10.563591,13.1745636 10.3466334,12.5087282 10.3466334,12.478803 C10.3466334,12.4488778 10.6084788,12.4189526 11.5062344,12.4189526 L11.5062344,12.4189526 Z" id="Path-0"></path>
        </g>
    </g>
</svg>