<?xml version="1.0" encoding="UTF-8"?>
<svg width="16px" height="16px" viewBox="0 0 16 16" version="1.1" xmlns="http://www.w3.org/2000/svg" xmlns:xlink="http://www.w3.org/1999/xlink">
    <title>Icon/trade</title>
    <g id="desktop" stroke="none" stroke-width="1" fill="none" fill-rule="evenodd">
        <g id="1_OT_Home1" transform="translate(-220, -444)">
            <g id="Card" transform="translate(15, 429)">
                <g id="Group-15" transform="translate(15, 15)">
                    <g id="Icon/trade" transform="translate(190, 0)">
                        <path d="M15,3.5 L15,7.5 C15,7.77614237 14.7761424,8 14.5,8 C14.2238576,8 14,7.77614237 14,7.5 L14,4.706875 L8.85375,9.85375 C8.75996587,9.94763852 8.63270462,10.0003933 8.5,10.0003933 C8.36729538,10.0003933 8.24003413,9.94763852 8.14625,9.85375 L6,7.706875 L1.85375,11.85375 C1.65837927,12.0491207 1.34162073,12.0491207 1.14625,11.85375 C0.95087927,11.6583793 0.95087927,11.3416207 1.14625,11.14625 L5.64625,6.64625 C5.74003413,6.55236148 5.86729538,6.49960667 6,6.49960667 C6.13270462,6.49960667 6.25996587,6.55236148 6.35375,6.64625 L8.5,8.793125 L13.293125,4 L10.5,4 C10.2238576,4 10,3.77614237 10,3.5 C10,3.22385763 10.2238576,3 10.5,3 L14.5,3 C14.7761424,3 15,3.22385763 15,3.5 Z" id="Path" fill="#5853C3" fill-rule="nonzero"></path>
                        <rect id="Rectangle" x="0" y="0" width="16" height="16"></rect>
                    </g>
                </g>
            </g>
        </g>
    </g>
</svg>