<?xml version="1.0" encoding="UTF-8"?>
<svg width="101px" height="51px" viewBox="0 0 101 51" version="1.1" xmlns="http://www.w3.org/2000/svg" xmlns:xlink="http://www.w3.org/1999/xlink">
    <title>MELBOURNE_GRAND_PRIX_CIRCUIT</title>
    <g id="new-relase" stroke="none" stroke-width="1" fill="none" fill-rule="evenodd">
        <path d="M15.8359416,1.57650382 L12.184135,3.65239387 C11.5417309,4.01855535 10.8155077,4.21074817 10.0763243,4.21074817 C7.3299534,4.21074817 4.90376978,5.99923916 4.09109964,8.62286678 L3.28004334,11.2430486 L0.226265986,23.2269164 C-0.495607793,26.064587 0.543024289,29.0578487 2.86756585,30.8368701 L7.01733468,34.0146931 C7.82068506,34.62983 8.00257773,35.7660089 7.4311124,36.6009249 C5.89320839,38.8486308 7.07164416,41.9406523 9.71488034,42.5954112 L14.3252669,43.7355068 C17.9520578,44.6322353 21.6736901,45.0857482 25.4083243,45.0857482 L31.0493243,45.0857482 C32.865739,45.0857482 34.5962354,45.8397015 35.8322934,47.1597031 L36.0232919,47.372801 C37.6465756,49.2677643 40.0188595,50.3587482 42.5153243,50.3587482 L81.2643243,50.3587482 C82.7382166,50.3587482 83.8331849,48.9942314 83.5135396,47.5549445 L82.2525073,41.8807995 C82.2008556,41.6482488 82.4156952,41.451994 82.6364479,41.5241985 L88.555588,43.4695583 L91.4493539,44.4345325 C92.6810499,44.8494653 93.5181217,45.139462 93.8444078,45.2646859 L93.947405,45.3058932 C95.3052572,45.8883549 96.0839533,44.5864605 98.4155315,39.4118115 L99.0553795,37.9790282 L99.4030464,37.1847269 C99.8230518,36.2184215 100.247928,35.2175987 100.668415,34.2083315 C101.570825,32.0425458 100.594137,29.5548377 98.4593777,28.5809511 L85.8211685,22.8188557 C83.5221539,21.7691654 80.9853192,21.3397956 78.4651807,21.5730024 L69.5988952,22.3960289 C68.2130186,22.5244328 66.917704,23.1359848 65.9010937,24.1167307 L65.7015434,24.3177687 C62.7988251,27.3681082 57.9323735,29.0104538 50.5133607,27.7303104 C42.564726,26.3596716 37.7148919,21.20437 35.2175497,14.9242348 C34.9868346,14.3445387 35.0661432,13.6811978 35.4297027,13.1556892 C36.7670393,11.2256238 36.108406,8.55845943 34.0258121,7.4721225 L22.4942787,1.45636603 C20.3990695,0.362045527 17.8914783,0.407417335 15.8359416,1.57650382 Z M21.56837,3.2291303 L33.1008004,9.24535494 C34.116321,9.77507777 34.437559,11.0759451 33.7853589,12.0172108 C33.0428873,13.0904193 32.8793877,14.4579369 33.3592061,15.663531 C36.0880002,22.5257047 41.4180392,28.1914571 50.1733952,29.7012045 C58.2544057,31.0955749 63.7905065,29.227234 67.1507429,25.6961085 C67.8668996,24.9427384 68.7955952,24.479022 69.7835809,24.3874834 L78.6497535,23.5644674 C80.8223024,23.3634256 83.0092035,23.7335677 84.9909861,24.6384152 L97.6294802,30.4006406 C98.7827067,30.9267477 99.3097408,32.2691485 98.8222474,33.4391328 C98.4054565,34.4395287 97.9844977,35.4311246 97.5694855,36.3859454 L97.1104699,37.4320877 L96.876937,37.9561629 C96.082674,39.7285236 95.3878489,41.1735293 94.8320947,42.1866234 L94.7224057,42.3841269 C94.5791914,42.6386756 94.4483014,42.8578129 94.3318164,43.0384867 L94.1823243,43.2587482 L93.3715482,42.9752831 C92.8887633,42.8092241 92.2879116,42.6058655 91.5711,42.3655396 L87.4503088,40.998365 L83.2579676,39.6232216 C81.5609282,39.0681483 79.9133407,40.5732109 80.300114,42.3145738 L81.5611413,47.9886968 C81.603355,48.178775 81.458934,48.3587482 81.2643243,48.3587482 L42.5153243,48.3587482 C40.6984064,48.3587482 38.9673908,47.6044544 37.7325626,46.2843012 L37.541773,46.071181 C35.9162955,44.1761118 33.5450046,43.0857482 31.0493243,43.0857482 L25.4083243,43.0857482 C21.8355257,43.0857482 18.2750856,42.6518779 14.8053477,41.793981 L10.1953818,40.6539895 C8.9542749,40.3465535 8.37526982,38.9365626 9.00372763,37.8538292 L9.08163159,37.7304321 C10.253616,36.0181521 9.8806033,33.6881562 8.23327952,32.4267768 L4.08331398,29.2488032 C2.39447169,27.9562961 1.63999321,25.7819442 2.16445761,23.7202855 L5.20438267,11.78558 L6.00160531,9.21444774 C6.53435872,7.49450453 8.0857504,6.30172093 9.86951842,6.21572591 L10.0763243,6.21074817 C11.1626086,6.21074817 12.2301898,5.92821596 13.1735191,5.39053015 L16.8245137,3.31510246 C18.2894476,2.48192133 20.0758616,2.44959834 21.56837,3.2291303 Z" id="MELBOURNE_GRAND_PRIX_CIRCUIT" fill="#999999" fill-rule="nonzero"></path>
    </g>
</svg>