<?xml version="1.0" encoding="UTF-8"?>
<svg width="69px" height="73px" viewBox="0 0 69 73" version="1.1" xmlns="http://www.w3.org/2000/svg" xmlns:xlink="http://www.w3.org/1999/xlink">
    <title>Group 24@1.5x</title>
    <g id="Page-1" stroke="none" stroke-width="1" fill="none" fill-rule="evenodd">
        <g id="Group-24" transform="translate(0.752000, 0.617073)">
            <path d="M61.9076567,33.3636613 C62.0949897,41.6213347 60.8828944,49.8452543 59.6733307,58.0285007 C55.9077682,58.0909451 52.1138526,57.9083376 48.3285442,57.8987178 C34.5496097,57.8636139 20.7705066,57.8283413 6.99157214,57.7932375 C5.7460607,50.2978914 5.05697897,42.7235617 4.93074014,35.1409623 C4.82036555,28.5113985 5.17933612,21.7047966 7.97431105,15.5995966 C16.0404322,-2.02067737 45.3928163,-6.32494889 56.5227606,11.0857146 C60.7603685,17.7146033 61.7363567,25.8062084 61.9076567,33.3636613" id="Fill-4" fill="#B8F5ED"></path>
            <path d="M31.6172573,59.9391288 C31.6172573,61.9176018 25.1883593,63.5215775 17.257928,63.5215775 C9.32749678,63.5215775 2.89843001,61.9176018 2.89843001,59.9391288 C2.89843001,57.9606558 9.32749678,56.3566801 17.257928,56.3566801 C25.1883593,56.3566801 31.6172573,57.9606558 31.6172573,59.9391288" id="Fill-5" fill="#C3DBDA"></path>
            <path d="M65.6536421,59.2301324 C65.6536421,61.600317 58.242849,63.5215775 49.1011663,63.5215775 C39.9594836,63.5215775 32.5486906,61.600317 32.5486906,59.2301324 C32.5486906,56.8601165 39.9594836,54.938856 49.1011663,54.938856 C58.242849,54.938856 65.6536421,56.8601165 65.6536421,59.2301324" id="Fill-6" fill="#C3DBDA"></path>
            <path d="M50.9692647,56.6697456 C50.9692647,59.4876731 43.5584716,61.7721233 34.4167889,61.7721233 C25.2751063,61.7721233 17.8643132,59.4876731 17.8643132,56.6697456 C17.8643132,53.8518182 25.2751063,51.5675367 34.4167889,51.5675367 C43.5584716,51.5675367 50.9692647,53.8518182 50.9692647,56.6697456" id="Fill-7" fill="#EDEBCC"></path>
            <path d="M44.5665258,64.315802 C44.5665258,66.2947813 39.3618744,67.8990945 32.9415836,67.8990945 C26.5212928,67.8990945 21.3166414,66.2947813 21.3166414,64.315802 C21.3166414,62.3366539 26.5212928,60.7323407 32.9415836,60.7323407 C39.3618744,60.7323407 44.5665258,62.3366539 44.5665258,64.315802" id="Fill-8" fill="#C3DBDA"></path>
            <polyline id="Fill-9" fill="#D9A72A" points="43.4695306 51.0021623 47.1726488 23.0638893 26.7337723 28.5677672 30.8633684 55.2969828 43.4695306 51.0021623"></polyline>
            <polyline id="Fill-10" fill="#F0C04A" points="47.1721425 23.0643956 27.2709624 29.467472 15.3221535 21.8171965 33.908627 18.7219824 39.7935842 20.6493185 47.1721425 23.0643956"></polyline>
            <path d="M39.7964533,51.9953648 C40.4936359,43.0270074 40.2440273,33.3560667 39.8815126,24.3421418 C39.9662344,24.3634066 40.0511249,24.3846715 40.1358467,24.4059363 C38.1443785,22.8834758 36.044561,21.6869072 33.8848307,20.8440774 L29.2310396,22.6838226 C31.39077,23.5266525 34.0053314,24.85081 35.9967995,26.3732706 C35.9120778,26.3520057 35.8271872,26.3307409 35.7424654,26.3094761 C36.1049801,35.3232322 36.3545887,44.9943417 35.6574061,53.9626991 L39.7964533,51.9953648" id="Fill-11" fill="#8FB73A"></path>
            <path d="M39.7935842,20.6493185 C38.4012442,20.9446634 36.9802135,21.1640624 35.5979996,21.4408427 C34.6393946,21.6332388 33.5913423,21.7344999 32.6597402,22.0315324 C31.0547519,22.5412133 29.4143222,22.0146556 27.7890817,21.8982053 C30.5180681,20.66282 33.4445137,19.8662327 36.4232775,19.5455726 L39.7935842,20.6493185" id="Fill-12" fill="#8FB73A"></path>
            <polyline id="Fill-13" fill="#BA8D1E" points="15.3226598 21.8165214 20.9995254 49.7102395 30.8633684 55.2969828 26.7337723 28.5677672 15.3226598 21.8165214"></polyline>
            <path d="M16.9033454,22.6932737 C17.7635584,22.9395069 18.4919632,23.7403134 19.2986766,24.2246789 C20.4896758,24.9395822 21.7572959,25.4411622 22.9714164,26.0656056 C23.9173638,26.5519964 24.8589232,27.0464881 25.7986261,27.559713 C26.2301671,27.7954826 26.6706529,27.9404547 26.9989076,28.3829657 C32.8234457,26.9934947 38.6020787,24.9387384 44.4554761,23.8846104 C44.5300718,23.871109 44.5327721,24.0356582 44.4720155,24.0704245 C41.6000821,25.7140608 38.5484103,26.4325083 35.5360616,27.2459724 C32.7826037,27.9893976 30.0178383,28.6629526 27.2718063,29.4679783 C27.4744972,30.8427664 27.5806526,32.2708854 27.7716985,33.6471924 C28.0169191,35.4136921 28.2655151,37.1790105 28.5124234,38.9448352 C28.9812623,42.2965774 29.4593834,45.670597 29.7478087,49.0685817 C29.761479,49.2297556 29.5954108,49.2510205 29.5665514,49.1057108 C28.8778072,45.6456192 28.3922602,42.0761657 27.8918617,38.5418161 C27.6577798,36.889235 27.4204913,35.2378354 27.1899535,33.584073 C27.0112277,32.3012637 26.7756269,30.9084174 26.7567248,29.5641764 C26.5454267,29.4890744 26.4266137,29.1442804 26.4522665,28.855855 C24.980774,27.849151 23.3526644,27.1701954 21.8442117,26.3415421 C20.9367435,25.8428312 20.0680921,25.2192316 19.1673747,24.6968932 C18.3571172,24.2272105 17.5061865,23.9077317 16.7436904,23.2674241 C16.5283419,23.0863355 16.6820899,22.6299855 16.9033454,22.6932737" id="Fill-14" fill="#FFD878"></path>
            <path d="M30.5639731,22.2688209 C28.82397,22.6547945 27.4066523,23.6515412 25.6666492,24.0373459 C24.2083207,24.3607063 22.5754855,24.9275997 21.2595976,25.6180316 C21.31546,25.6094244 19.9722316,25.0393244 20.0252249,25.0185659 C19.0639196,24.6332674 19.1547171,24.2056081 18.1934118,23.8203096 C20.9274613,23.1403414 23.9021746,22.15794 26.6863484,21.7135726 C27.3766115,21.6033668 28.0776758,21.4928234 28.7718206,21.5756888 C29.4659654,21.6585541 30.1646669,21.9614935 30.5712302,22.5302433 C30.4983222,22.4767437 30.4254142,22.4234129 30.3523375,22.3699133" id="Fill-15" fill="#6A872A"></path>
            <path d="M21.2393454,41.5106225 C21.8617636,44.639084 22.3165947,47.5530407 22.9577462,50.672895 C24.0392146,51.3987682 25.1206831,52.1246415 26.2021516,52.850346 C25.9549057,52.6628442 25.7209926,50.2126633 25.6367771,49.7512503 C25.4248039,48.5891104 25.2126619,47.4269706 25.0006887,46.2648308 C24.5765735,43.9405512 24.1526271,41.6161028 23.7285118,39.2918232 C23.3162104,37.0320132 22.9040778,34.7722031 22.4917764,32.5125618 C22.2796344,31.350422 22.0676612,30.1881135 21.8556879,29.0259736 C21.7103783,28.2300615 21.6340949,26.6883613 21.2840691,26.051429 C20.5976876,24.8074365 19.1196132,24.9070099 18.182273,24.3659382 C18.5272358,25.7721172 18.5623397,26.936451 18.7680685,28.3706456 C18.9705906,29.7829003 19.2531091,31.1642704 19.4957982,32.5609984 C20.0203306,35.5790853 20.6511872,38.5548112 21.2393454,41.5106225" id="Fill-16" fill="#6A872A"></path>
            <path d="M35.6194332,14.8538086 C35.412523,16.2031127 35.2056129,17.552248 34.9987027,18.9015521" id="Fill-17" fill="#E6369F"></path>
            <path d="M32.1141117,13.3384364 C31.8099909,13.7718339 31.6417287,14.2840462 31.4876431,14.7906892 C30.7371296,17.2606161 30.2286302,19.8037884 29.9715957,22.3724448 C30.2855051,22.5621406 30.7131645,22.4321888 30.9723929,22.1729604 C31.23179,21.913732 31.3625856,21.5561116 31.4857866,21.2106425 C32.3556194,18.7709253 33.225621,16.331208 34.0956225,13.8914907 C34.6029406,12.4686036 32.7844601,12.3832068 32.1141117,13.3384364" id="Fill-18" fill="#6A872A"></path>
            <path d="M36.6111168,15.8578124 C36.7896739,15.0257837 36.6497648,13.6467764 35.8050785,13.1556601 C35.4525212,12.9506064 34.8017499,12.8817489 34.3936677,12.7958457 C34.120769,12.7382957 32.8534864,12.8587964 32.724041,12.7418398 C34.195871,14.0724106 33.2607248,16.4015845 32.7542506,17.9685999 C32.2479451,19.5352777 31.3445274,20.8751308 30.7175525,22.3699133 C31.7419772,22.7930159 33.7157247,20.7826456 34.3339236,20.1295116 C35.4564028,18.9437442 36.2680105,17.4570626 36.6111168,15.8578124" id="Fill-19" fill="#8FB73A"></path>
            <path d="M24.2940551,16.1771224 C24.0770188,15.3921801 24.8673616,15.1336268 25.4999059,15.2531149 C26.5611221,15.4537806 27.547574,16.1749284 28.2672028,16.9499133 C29.1540812,17.9046366 29.7896633,19.0666076 30.3033946,20.2640201 C30.5865881,20.9239049 30.8284334,21.7115474 30.4635559,22.3299151 C29.4065589,21.8759279 28.7238903,20.8535284 28.1193616,19.8748399 C27.5150016,18.8959827 26.8762129,17.8580565 25.8528008,17.3326802 C25.5549244,17.1799447 25.2329141,17.0759833 24.942126,16.9102527 C24.6511692,16.7446908 24.3833336,16.4998077 24.2940551,16.1771224" id="Fill-20" fill="#6A872A"></path>
            <path d="M22.688898,17.5568047 C24.0657113,19.8510436 27.5521307,22.9195922 30.4468478,22.1613154 C29.8357371,21.2405145 28.6028833,20.7728571 27.7975201,20.0228499 C26.7899722,19.0848346 25.5885094,17.9385591 25.2690306,16.5438563 C25.1596686,16.0660727 25.2376397,15.5199379 25.5790583,15.1682243 C24.8314139,15.1442592 24.0792128,15.2745485 23.3830428,15.5484597 C22.9464387,15.7202661 22.4887385,16.0019407 22.3864648,16.4598096 C22.3015743,16.8393699 22.4887385,17.2231494 22.688898,17.5568047" id="Fill-21" fill="#8FB73A"></path>
            <path d="M27.2875017,21.5868275 C27.8149032,21.6467403 28.3294784,21.808758 28.8501291,21.9110317 C29.4268111,22.0244442 30.0082185,22.10039 30.589626,22.1839304 C30.7170462,22.2023261 30.6875117,22.4176747 30.5590789,22.4094051 C29.4809858,22.3397037 28.2315926,22.2102583 27.2372087,21.7728103 C27.1484365,21.7336561 27.1911349,21.5758575 27.2875017,21.5868275" id="Fill-22" fill="#6A872A"></path>
            <polyline id="Fill-23" fill="#FFD878" points="33.4733731 32.4296965 32.6219361 32.1438027 31.8493139 32.6018404 31.8582587 31.7038232 31.1838598 31.110602 32.0406974 30.8414163 32.3966302 30.0168134 32.9172809 30.7485936 33.8115852 30.832134 33.276589 31.5534505 33.4733731 32.4296965"></polyline>
            <polyline id="Fill-24" fill="#FFD878" points="36.2847186 40.0399739 35.4332816 39.7540801 34.6606594 40.2121178 34.6696041 39.3141007 33.9952053 38.7208794 34.8520429 38.4516937 35.2079756 37.6270909 35.7286264 38.358871 36.6229306 38.4424114 36.0877657 39.1637279 36.2847186 40.0399739"></polyline>
            <polyline id="Fill-25" fill="#FFD878" points="35.3922708 51.1545602 34.5408338 50.8686664 33.7682117 51.3267041 33.7771564 50.428687 33.1027575 49.8354657 33.9595951 49.56628 34.3155279 48.7416772 34.8361786 49.4734573 35.7304829 49.5569977 35.195318 50.2783142 35.3922708 51.1545602"></polyline>
            <polyline id="Fill-26" fill="#FFD878" points="32.4167136 43.2889361 31.5652766 43.0030423 30.7928232 43.4610799 30.8015992 42.5630628 30.1272003 41.9696728 30.9840379 41.7006558 31.3399706 40.876053 31.8606214 41.6078332 32.7549257 41.6913736 32.2199295 42.4126901 32.4167136 43.2889361"></polyline>
            <polyline id="Fill-27" fill="#D9A72A" points="25.5490175 31.553113 24.9171483 31.158701 24.261314 31.5119335 24.371351 30.6228611 23.9131446 29.9469433 24.6130275 29.791845 24.9854995 29.0207418 25.3080161 29.8141225 25.9965916 30.0136068 25.4960242 30.6588088 25.5490175 31.553113"></polyline>
            <polyline id="Fill-28" fill="#D9A72A" points="22.367394 47.6272988 21.7355248 47.2328869 21.0796904 47.5861193 21.1898963 46.6970469 20.731521 46.0211291 21.431404 45.8660309 21.803876 45.0950964 22.1263926 45.8883083 22.814968 46.0877927 22.3144007 46.7329946 22.367394 47.6272988"></polyline>
            <polyline id="Fill-29" fill="#D9A72A" points="26.260883 41.6393929 25.6290138 41.2449809 24.9731794 41.5982134 25.0832165 40.709141 24.6248413 40.0332232 25.3247242 39.8781249 25.697365 39.1071905 26.0198816 39.9004024 26.708457 40.0998867 26.2077209 40.7450887 26.260883 41.6393929"></polyline>
            <polyline id="Fill-30" fill="#D9A72A" points="20.6194588 37.5185727 19.9875895 37.1241608 19.3317552 37.4773932 19.4417923 36.5883208 18.983417 35.912403 19.6833 35.7573048 20.0559408 34.9863703 20.3784574 35.7795822 21.0670328 35.9790666 20.5664655 36.6242685 20.6194588 37.5185727"></polyline>
            <polyline id="Fill-31" fill="#D9A72A" points="26.3099946 36.2916258 26.0316954 36.117963 25.7427638 36.2735676 25.7913691 35.8818559 25.5893532 35.5841483 25.8976932 35.5157971 26.061905 35.1760661 26.2038393 35.5255856 26.507285 35.613514 26.2867046 35.8977202 26.3099946 36.2916258"></polyline>
            <polyline id="Fill-32" fill="#D9A72A" points="24.9488768 37.60802 24.6705775 37.4343572 24.3816459 37.5899618 24.4300825 37.1982501 24.2282353 36.9005425 24.5365754 36.8321913 24.7006183 36.4924603 24.8427214 36.8419799 25.1459984 36.9299082 24.9255867 37.2141144 24.9488768 37.60802"></polyline>
            <polyline id="Fill-33" fill="#D9A72A" points="27.714486 47.8698192 27.4361868 47.6959876 27.1472551 47.8515922 27.1956917 47.4600493 26.9938446 47.1621729 27.3021846 47.0939904 27.4662275 46.7542594 27.6083306 47.103779 27.9117764 47.1915386 27.6911959 47.4759135 27.714486 47.8698192"></polyline>
            <polyline id="Fill-34" fill="#D9A72A" points="27.714486 44.152862 27.4361868 43.9790304 27.1472551 44.134635 27.1956917 43.7430921 26.9938446 43.4452157 27.3021846 43.3770332 27.4662275 43.0373023 27.6083306 43.3868218 27.9117764 43.4745814 27.6911959 43.7589563 27.714486 44.152862"></polyline>
            <polyline id="Fill-35" fill="#D9A72A" points="20.5973501 41.0670989 20.3188821 40.8934362 20.0301192 41.0490407 20.0785558 40.6573291 19.8767087 40.3594527 20.1850487 40.2912702 20.3490916 39.9515392 20.4911947 40.3010588 20.7944717 40.3888184 20.5738913 40.6731933 20.5973501 41.0670989"></polyline>
            <polyline id="Fill-36" fill="#D9A72A" points="18.2175456 27.8272111 17.9390776 27.6535483 17.650146 27.8091528 17.6987513 27.4174412 17.4967354 27.1197336 17.8050755 27.0513823 17.9692872 26.7118201 18.1113903 27.0611709 18.4146672 27.1490993 18.1940868 27.4333054 18.2175456 27.8272111"></polyline>
            <polyline id="Fill-37" fill="#D9A72A" points="23.8137399 33.1596202 23.5352719 32.9857887 23.2463403 33.1413932 23.2949456 32.7498503 23.0929297 32.4519739 23.4012698 32.3837915 23.5654815 32.0440605 23.7075846 32.3935801 24.0108615 32.4813397 23.7902811 32.7657146 23.8137399 33.1596202"></polyline>
            <polyline id="Fill-38" fill="#D9A72A" points="18.4551717 31.8670224 18.1768724 31.6933596 17.8879408 31.8489641 17.9363773 31.4572525 17.7345302 31.1595449 18.0428703 31.0911936 18.2069132 30.7514627 18.3490163 31.1009822 18.6522933 31.1889106 18.4318816 31.4731167 18.4551717 31.8670224"></polyline>
            <polyline id="Fill-39" fill="#FFD878" points="30.1898134 26.4674434 29.3341572 26.5006908 28.6525012 27.0186413 28.5424642 26.4055053 27.8165909 26.1822246 28.6040647 25.770092 28.837134 25.1140889 29.4338993 25.4727219 30.3037321 25.2904519 29.8850175 25.9241776 30.1898134 26.4674434"></polyline>
            <polyline id="Fill-40" fill="#FFD878" points="39.6859099 22.0392958 39.1134472 22.0614045 38.657266 22.4080549 38.5835141 21.9977787 38.0977984 21.8484186 38.6248624 21.5726509 38.7808045 21.1336841 39.1801107 21.3735041 39.7621933 21.2516533 39.4820376 21.6755997 39.6859099 22.0392958"></polyline>
            <polyline id="Fill-41" fill="#FFD878" points="21.6968768 22.2664582 21.1244141 22.2885668 20.6682329 22.6352173 20.5946498 22.2249411 20.1087653 22.0754122 20.6358293 21.7996445 20.7917714 21.3606777 21.1910776 21.6006665 21.7733289 21.4786469 21.4930045 21.9027621 21.6968768 22.2664582"></polyline>
            <polyline id="Fill-42" fill="#FFD878" points="42.4515191 23.1506363 42.1099317 23.1638002 41.8378769 23.3705416 41.7939971 23.1258273 41.5042216 23.0367175 41.8186373 22.8721683 41.9116287 22.6104083 42.1497611 22.753524 42.4970866 22.6807848 42.329837 22.9336 42.4515191 23.1506363"></polyline>
            <polyline id="Fill-43" fill="#FFD878" points="29.6050306 23.7425074 29.2636119 23.7558401 28.9915571 23.9625815 28.9475086 23.7178672 28.6579018 23.6287574 28.9721488 23.4642081 29.0651402 23.2024482 29.3032725 23.3453951 29.6505981 23.2728247 29.4833485 23.5256399 29.6050306 23.7425074"></polyline>
            <polyline id="Fill-44" fill="#FFD878" points="42.4559071 32.4296965 41.6046388 32.1438027 40.8320167 32.6018404 40.8407927 31.7038232 40.1665626 31.110602 41.0234002 30.8414163 41.3791641 30.0168134 41.8999837 30.7485936 42.7941191 30.832134 42.259123 31.5534505 42.4559071 32.4296965"></polyline>
            <polyline id="Fill-45" fill="#FFD878" points="44.1361662 40.0399739 43.2847291 39.7540801 42.512107 40.2121178 42.5210517 39.3141007 41.8466529 38.7208794 42.7034905 38.4516937 43.0594232 37.6270909 43.580074 38.358871 44.4743782 38.4424114 43.9393821 39.1637279 44.1361662 40.0399739"></polyline>
            <polyline id="Fill-46" fill="#FFD878" points="42.4358236 46.2155504 41.5843866 45.9296566 40.8117645 46.3875255 40.8207092 45.4895084 40.1463103 44.8962872 41.003148 44.6271014 41.3590807 43.8024986 41.8797315 44.5342788 42.7740357 44.6178192 42.2390396 45.3391357 42.4358236 46.2155504"></polyline>
            <polyline id="Fill-47" fill="#FFD878" points="41.8264006 27.6670498 41.5244738 27.5656199 41.2503938 27.7279752 41.2534316 27.4095091 41.0142867 27.1990548 41.3182387 27.1035318 41.4444776 26.811056 41.6291103 27.0706219 41.946395 27.1003252 41.7565305 27.3561782 41.8264006 27.6670498"></polyline>
            <polyline id="Fill-48" fill="#FFD878" points="34.0444857 45.5686608 33.7425588 45.467231 33.4684788 45.629755 33.4716854 45.3111201 33.2323717 45.1006658 33.5363237 45.0053116 33.6625626 44.712667 33.8473641 44.972233 34.1644801 45.0019362 33.9747843 45.2577893 34.0444857 45.5686608"></polyline>
            <polyline id="Fill-49" fill="#FFD878" points="45.0829574 33.371931 44.7808618 33.2705011 44.5067818 33.4330252 44.5099884 33.1143903 44.2708434 32.903936 44.5747955 32.8085818 44.7008655 32.5159372 44.885667 32.7755031 45.202783 32.8052064 45.0130872 33.0610594 45.0829574 33.371931"></polyline>
            <polyline id="Fill-50" fill="#FFD878" points="44.6168188 28.125425 44.314892 28.0239951 44.040812 28.1865192 44.0438498 27.8678843 43.8047049 27.65743 44.1086569 27.5620758 44.2348957 27.2696 44.4195285 27.5291659 44.7368132 27.5587004 44.5469487 27.8145534 44.6168188 28.125425"></polyline>
            <polyline id="Fill-51" fill="#FFD878" points="42.2925392 36.1312957 41.9904436 36.0298659 41.7163636 36.1923899 41.7195702 35.8739238 41.4802565 35.6634695 41.7842085 35.5679465 41.9104473 35.2754707 42.0952488 35.5350367 42.4123648 35.5645712 42.222669 35.820593 42.2925392 36.1312957"></polyline>
            <polyline id="Fill-52" fill="#FFD878" points="42.5851838 48.5838786 42.2830882 48.4824488 42.0090081 48.6449728 42.0122147 48.3263379 41.7730698 48.1158836 42.0770218 48.0205294 42.2030919 47.7278849 42.3878934 47.9874508 42.7050094 48.017154 42.5153136 48.2730071 42.5851838 48.5838786"></polyline>
            <polyline id="Fill-53" fill="#FFD878" points="32.6909624 35.7245637 32.3888668 35.6231338 32.1149555 35.7856579 32.1179934 35.467023 31.8788484 35.2565687 32.1828005 35.1612145 32.3090393 34.8685699 32.493672 35.1281359 32.8109568 35.1578391 32.6210922 35.4136921 32.6909624 35.7245637"></polyline>
            <polyline id="Fill-54" fill="#FFD878" points="30.7928232 34.8586126 30.4908964 34.7571827 30.2168164 34.9197068 30.2198542 34.6010719 29.9807092 34.3907863 30.2846613 34.2952634 30.4109001 34.0027876 30.5955328 34.2623535 30.9128176 34.291888 30.7229531 34.5479098 30.7928232 34.8586126"></polyline>
            <path d="M21.3365561,25.0168782 C20.840883,24.7719951 20.3411595,24.5357193 19.8422799,24.2972494 C19.396056,24.0840948 18.933124,23.7794677 18.4421765,23.7023405 C18.1733283,23.6601483 17.9164627,23.9759142 18.1534136,24.1981823 C18.5182911,24.5404448 19.022065,24.7174829 19.4672763,24.9389072 C19.961768,25.1849716 20.4554158,25.4330613 20.9532828,25.6725438 C21.3907308,25.8829981 21.7763668,25.234252 21.3365561,25.0168782" id="Fill-55" fill="#8FB73A"></path>
            <path d="M39.7498732,24.8079428 C38.7678093,25.0980559 37.7795011,25.3680854 36.8031754,25.6774381 C35.4442515,26.108304 35.1878922,26.0443408 35.7546168,27.3995517 C37.0514338,26.8286079 38.7737162,26.233699 40.17787,26.0477161 C40.3027587,26.0311768 40.5952345,24.5581655 39.7498732,24.8079428" id="Fill-56" fill="#AED164"></path>
            <path d="M36.1211819,16.5045332 C36.094854,16.3860578 35.9232165,16.3023486 35.8189175,16.3816698 C35.4179236,16.6868032 35.3308391,17.139609 35.1084022,17.5831326 C34.8025937,18.1932307 34.4454796,18.7773385 34.0326719,19.3209418 C33.6456857,19.8304538 33.2114444,20.3006428 32.73788,20.7308337 C32.2611091,21.1640624 31.6889839,21.5083501 31.2641936,21.9933908 C31.1502749,22.1235113 31.2579492,22.3385223 31.4373501,22.2909296 C32.6663222,21.9647001 33.7678741,20.7186824 34.5323954,19.7597398 C34.9298452,19.2611977 35.2910097,18.7305896 35.5927678,18.1684217 C35.8619535,17.6673481 36.2496147,17.0837467 36.1211819,16.5045332" id="Fill-57" fill="#AED164"></path>
            <path d="M35.3887267,14.8502645 C35.2582686,14.8561714 35.1109337,14.9667148 35.1259541,15.1132058 C35.1278106,15.1319391 35.129667,15.1506724 35.1316923,15.1694057 C35.1451937,15.3027328 35.2402104,15.4331909 35.3887267,15.4264401 C35.5397745,15.4196894 35.631247,15.3131965 35.6457611,15.1694057 C35.6477863,15.1506724 35.6496428,15.1319391 35.6514992,15.1132058 C35.665507,14.975997 35.5207036,14.8443576 35.3887267,14.8502645" id="Fill-58" fill="#AED164"></path>
            <path d="M55.1447659,41.5512957 L53.9988278,46.4371435 L53.9988278,46.4388311 L52.2081942,54.0806683 L51.9955459,54.9852674 L50.4749418,61.4744157 L45.1975512,60.2896609 L44.4920989,60.1310186 L39.5606837,59.0238973 L38.8704206,58.8686303 C38.8687329,58.8686303 38.8687329,58.8686303 38.8687329,58.8686303 L36.2190676,58.2745652 L35.5895612,55.1405344 L35.4798617,54.6004752 L33.8242428,46.3611976 L33.7415462,45.9527779 L33.2673068,43.5950821 L33.1525442,43.0263323 L32.6040466,40.2939705 L32.4977225,39.7674128 L32.0319214,37.4485338 L34.9077365,37.9582146 L35.633441,38.0881664 L38.5058806,38.5978472 L39.2889664,38.7362374 C39.2906541,38.7362374 39.2906541,38.7362374 39.2906541,38.7362374 L42.4905046,39.3049872 L43.1605155,39.4248128 L47.5839376,40.2095863 L48.4041525,40.3547272 L53.9937648,41.3470859 L55.1447659,41.5512957" id="Fill-59" fill="#BF2525"></path>
            <path d="M35.633441,38.0881664 C34.9769316,38.5354029 34.3001699,38.9539487 33.6639127,39.4349389 C33.3010605,39.7100315 32.9517097,40.0003133 32.6040466,40.2939705 L32.4977225,39.7674128 C33.2453669,39.0957142 34.0723325,38.4729585 34.9077365,37.9582146 L35.633441,38.0881664" id="Fill-60" fill="#D93D2A"></path>
            <path d="M39.2889664,38.7362374 C38.4417486,39.3691192 37.5860924,39.9935626 36.7641898,40.6534474 C35.5760597,41.6069893 34.4402478,42.6246633 33.2673068,43.5950821 L33.1525442,43.0263323 C34.2309748,42.0322859 35.3887267,41.1074346 36.5245386,40.1927094 C37.175985,39.6661517 37.8341821,39.1227172 38.5058806,38.5978472 L39.2889664,38.7362374" id="Fill-61" fill="#D93D2A"></path>
            <path d="M43.1605155,39.4248128 C42.8887983,39.6222719 42.6187687,39.8197311 42.3538022,40.0205656 C41.3276898,40.7985883 40.2998897,41.571548 39.2704019,42.3428199 C37.4628914,43.6929678 35.6570686,45.0431157 33.8242428,46.3611976 L33.7415462,45.9527779 C35.3971651,44.6566359 37.0747239,43.3874969 38.7539703,42.1183579 C39.7800827,41.3437105 40.8078828,40.5707508 41.8390583,39.8028542 C42.0567696,39.6408365 42.274481,39.4737557 42.4905046,39.3049872 L43.1605155,39.4248128" id="Fill-62" fill="#D93D2A"></path>
            <path d="M48.4041525,40.3547272 C47.6801356,40.8137774 46.9459927,41.2559509 46.2658557,41.726815 C44.7283748,42.7866811 43.2043953,43.8651117 41.6956051,44.9637946 C39.3007802,46.7054854 36.9515229,48.5096205 34.6242054,50.3407586 L34.5161936,49.8023871 C36.6477396,48.0758855 38.8282285,46.4118282 41.0407833,44.789963 C42.590078,43.6558388 44.1545619,42.5436544 45.739298,41.4584731 C46.3519276,41.0382395 46.9662449,40.6213814 47.5839376,40.2095863 L48.4041525,40.3547272" id="Fill-63" fill="#D93D2A"></path>
            <path d="M53.9937648,41.3470859 C52.7280011,42.3360692 51.3137212,43.1461579 49.9821378,44.0440063 C48.5560441,45.0059867 47.1434518,45.9882193 45.7527995,46.9991425 C43.3579747,48.7374579 38.7303427,52.544875 35.5895612,55.1405344 L35.4798617,54.6004752 C38.4957545,52.0166297 42.83648,48.4235486 45.0827886,46.7763681 C46.5527621,45.6979375 48.0446756,44.6465098 49.5602166,43.6322112 C50.7905389,42.8069333 52.0276119,41.919211 53.3473815,41.2323233 L53.9937648,41.3470859" id="Fill-64" fill="#D93D2A"></path>
            <path d="M53.9988278,46.4388311 L53.7743657,47.3957485 C53.1566731,47.9088047 52.5322297,48.4134224 51.9094739,48.9197279 C50.613332,49.9779063 49.3104392,51.0310217 48.0109219,52.0858247 C45.9873877,53.7262544 42.338613,56.8501592 39.5606837,59.0238973 L38.8704206,58.8686303 C41.6162839,56.4873069 45.6937305,53.2351381 47.8691563,51.4715074 C49.2125535,50.381263 50.554263,49.2910186 51.9010355,48.2058372 C52.5659834,47.6708411 53.2629972,47.0008302 53.9988278,46.4388311" id="Fill-65" fill="#D93D2A"></path>
            <path d="M52.2081942,54.0806683 L51.9955459,54.9852674 C51.7373301,55.1759758 51.480802,55.3616211 51.2445261,55.5506418 C50.4614403,56.1750852 49.6766668,56.7944656 48.8868303,57.4104705 C47.6649465,58.3589494 46.4633148,59.3816865 45.1975512,60.2896609 L44.4920989,60.1310186 C45.8405591,58.9479515 47.3307849,57.8948361 48.7383141,56.7927779 C49.5011476,56.1953374 50.2707319,55.6063354 51.0420039,55.0173334 C51.4234207,54.7253639 51.8065252,54.3844515 52.2081942,54.0806683" id="Fill-66" fill="#D93D2A"></path>
            <path d="M68.0909966,36.5186194 L54.9473067,41.5512957 L48.3147052,40.3732917 C48.3147052,40.3732917 48.3147052,40.3732917 48.3130175,40.3732917 L46.6742755,40.0830099 L46.6725878,40.0830099 L43.790022,39.5716414 L43.7815836,39.5716414 L42.2390396,39.2948611 C42.2373519,39.2948611 42.2373519,39.2948611 42.2373519,39.2948611 L38.5227575,38.6349763 L38.5210698,38.6349763 L37.8156175,38.5100876 L35.7279513,38.1387969 L35.7262636,38.1387969 L34.9296764,37.9987191 L31.8344623,37.4485338 L38.198722,35.3271139 L41.1589213,34.3415059 L47.0776321,32.3686023 L50.1458432,32.9744812 L51.7744592,33.296829 L54.9523698,33.9246478 C54.9523698,33.9246478 54.9523698,33.9246478 54.9540575,33.9246478 L56.8645167,34.3010015 C56.8662044,34.3010015 56.8662044,34.3010015 56.8662044,34.3010015 L59.7960254,34.8815651 C59.7960254,34.8815651 59.7977131,34.8798774 59.7994007,34.8815651 L61.7621783,35.2680449 C61.7638659,35.2680449 61.7638659,35.2680449 61.7655536,35.2680449 L68.0909966,36.5186194" id="Fill-67" fill="#F04832"></path>
            <path d="M57.3993441,40.314054 C55.8161269,40.5596121 54.2170455,40.6117616 52.6346721,40.8347047 C52.400759,40.8677834 52.4761985,41.2139275 52.6878342,41.2270915 C54.2928225,41.3266649 55.9540108,41.0608545 57.5382405,40.8176591 C57.8690268,40.7668598 57.7287802,40.2630859 57.3993441,40.314054" id="Fill-68" fill="#F77261"></path>
            <path d="M60.6786846,39.0990896 C58.3429287,39.3387409 56.0071728,39.5800798 53.6697293,39.8180434 C52.5018513,39.9361813 51.3339734,40.0560069 50.1644078,40.1690818 C49.5551535,40.2281508 48.9357732,40.312535 48.3147052,40.3732917 C48.3147052,40.3732917 48.3147052,40.3732917 48.3130175,40.3732917 L46.6742755,40.0830099 C47.7527061,39.8281695 48.8969564,39.7910404 49.997327,39.6762778 C51.1652049,39.5564522 52.3347705,39.4416896 53.5026485,39.3252394 C55.8940979,39.0872758 58.2872351,38.8543753 60.6786846,38.6214748 C60.9875309,38.5910965 60.9824678,39.0687113 60.6786846,39.0990896" id="Fill-69" fill="#F77261"></path>
            <path d="M65.8716909,36.8443426 C61.9967665,37.4620353 58.0644607,37.8231998 54.169284,38.30419 C52.1761282,38.550592 50.18466,38.796994 48.1915042,39.0366453 C46.7400952,39.2121645 45.2616832,39.4568788 43.790022,39.5716414 L43.7815836,39.5716414 L42.2390396,39.2948611 C44.1157452,38.823997 46.1072133,38.6872945 48.0244234,38.4459556 C49.9618856,38.2012413 51.8993478,37.9599023 53.8368101,37.7202511 C57.8146833,37.2291348 61.800995,36.6046914 65.7923697,36.2536529 C66.1299067,36.2232746 66.2041649,36.7903367 65.8716909,36.8443426" id="Fill-70" fill="#F77261"></path>
            <path d="M61.7621783,35.2680449 C57.7944311,35.5802666 53.8351224,36.0241278 49.8977536,36.6097544 C46.0852734,37.1768165 42.3183608,37.9767792 38.5227575,38.6349763 L38.5210698,38.6349763 L37.815569,38.5100876 C37.8139298,38.4324541 37.856122,38.3565083 37.9590707,38.3295053 C41.9166918,37.2578254 46.0228291,36.6215682 50.0766482,36.0275031 C53.3051893,35.5532637 56.5455443,35.1718469 59.7960254,34.8815651 C59.7960254,34.8815651 59.7977131,34.8798774 59.7994007,34.8815651 L61.7621783,35.2680449" id="Fill-71" fill="#F77261"></path>
            <path d="M56.8645167,34.3010015 C55.1295767,34.6368508 53.338943,34.7870547 51.5955646,35.058772 C49.7424866,35.3473661 47.8944716,35.6612755 46.049832,36.0005002 C44.1511866,36.3481633 42.2576041,36.724517 40.3707724,37.126186 C38.8332915,37.4535969 37.2873722,37.8991457 35.7279513,38.1387969 L35.7262636,38.1387969 L34.9296764,37.9987191 C34.9398025,37.9160225 34.9870577,37.8367013 35.0714419,37.8046353 C36.8603879,37.1413751 38.8349792,36.8426549 40.6981833,36.4494243 C42.5326968,36.0629445 44.3722733,35.7017799 46.2169128,35.364243 C48.1155583,35.0182676 50.0175792,34.6976074 51.9263508,34.405638 C52.9254602,34.2520586 53.9380712,34.068101 54.9523698,33.9246478 C54.9523698,33.9246478 54.9523698,33.9246478 54.9540575,33.9246478 L56.8645167,34.3010015" id="Fill-72" fill="#F77261"></path>
            <path d="M51.7744592,33.296829 C49.3560067,33.6866842 46.9409297,34.0765394 44.5174142,34.4343286 C43.2600889,34.6199739 42.0027637,34.8022439 40.7420631,34.9743878 C39.9235359,35.085775 39.0510029,35.2697326 38.198722,35.3271139 L41.1589213,34.3415059 C42.2829194,34.1828636 43.4052298,34.0191581 44.5275403,33.8520773 C46.4008705,33.5719216 48.2758884,33.2850152 50.1458432,32.9744812 L51.7744592,33.296829" id="Fill-73" fill="#F77261"></path>
            <path d="M66.2603648,37.1727661 C65.2875832,37.3563862 64.463993,37.9533203 63.5516305,38.3143161 C62.2050268,38.847287 60.7713385,39.2211092 59.3984068,39.6865727 C58.3289209,40.0490874 57.2641605,40.4176778 56.2015941,40.800276 C55.7136844,40.975964 55.2154799,41.0839758 54.8441892,41.4139182 C48.2578302,40.378186 41.7234519,38.8466119 35.1045205,38.0608259 C35.0201363,38.0508685 35.0170985,38.1735632 35.0857872,38.1993848 C38.3333992,39.4244753 41.7842085,39.9599777 45.1906317,40.5663628 C48.3042415,41.1205986 51.430509,41.622516 54.5358491,42.2226568 C54.3064928,43.247419 54.1864984,44.3118419 53.9704747,45.3377855 C53.6931881,46.6543485 53.4120198,47.9702364 53.1327079,49.2864618 C52.6026061,51.7849105 52.0620407,54.2998985 51.7358112,56.8326072 C51.7202845,56.9527704 51.9081238,56.9686346 51.9408649,56.8602853 C52.7195627,54.2811652 53.2685666,51.62053 53.8346161,48.9860539 C54.0992451,47.7543815 54.3677557,46.5233842 54.6283343,45.2906991 C54.8303502,44.3344569 55.0966668,43.2963619 55.1181004,42.2943834 C55.3570766,42.2383522 55.4914163,41.9813178 55.4623881,41.7664756 C57.1264454,41.0159621 58.9675409,40.5098254 60.6731152,39.8921327 C61.6993964,39.5205045 62.681629,39.0557161 63.7001468,38.6663672 C64.6163909,38.3161726 65.5787088,38.078209 66.4407783,37.600763 C66.68448,37.465917 66.5104797,37.1256797 66.2603648,37.1727661" id="Fill-74" fill="#F77261"></path>
            <path d="M40.3727977,59.2270945 C39.5846488,52.5421747 39.8668297,45.1207493 40.2767684,38.401907 C40.1809079,38.4177712 40.0850474,38.4336355 39.9891869,38.4494997 C42.2410648,37.3145316 44.6154687,36.4227589 47.0577175,35.7944338 L51.7381739,37.2608632 C49.2959251,37.8891883 46.9215213,38.780961 44.6696434,39.9159291 C44.7655039,39.9000649 44.8611956,39.8842006 44.9570561,39.8683364 C44.5472862,46.5870099 44.2649365,53.5828012 45.0532541,60.267721 L40.3727977,59.2270945" id="Fill-75" fill="#D6C48B"></path>
            <path d="M53.9515726,36.9861081 C52.1138526,37.1172413 50.2573992,37.7141754 48.4439818,37.1363121 C47.3901914,36.8006316 46.2052678,36.6872191 45.1200864,36.469339 C42.9303153,36.0300347 40.6543035,35.7189943 38.5053743,35.1247605 C39.741266,34.2979637 41.7784704,34.1243009 43.2177281,34.235013 C46.9191585,34.5198942 50.5694521,35.4555467 53.9515726,36.9861081" id="Fill-76" fill="#E2D4A7"></path>
            <polyline id="Fill-77" fill="#D93D2A" points="68.0471167 36.5186194 67.8766606 37.0721801 67.6893276 37.6763713 65.8362496 43.6828417 65.6202259 44.3781679 65.6202259 44.3798556 63.7755863 50.3576354 63.7755863 50.3593231 63.4869922 51.2892375 63.4869922 51.2909252 61.6288512 57.3108971 53.3321923 60.4077989 52.5423558 60.7031437 50.4749418 61.4744157 55.1447659 41.5512957 68.0471167 36.5186194"></polyline>
            <path d="M67.8766606,37.0721801 L67.6893276,37.6763713 C66.8151068,38.4206403 65.780556,39.0282068 64.8489539,39.6813409 C63.6743252,40.5066188 62.4980089,41.3318967 61.3233802,42.1571746 C58.9994381,43.7874782 56.7109374,45.6540577 54.2249776,47.0295208 C54.0832121,47.1071544 53.9195066,46.9113829 54.0477707,46.798308 C56.11856,44.9891098 58.5640154,43.5191363 60.8136994,41.9394633 C61.9900157,41.115873 63.1646444,40.2905951 64.3409608,39.4653172 C65.4852111,38.6636669 66.621023,37.6898727 67.8766606,37.0721801" id="Fill-78" fill="#F04832"></path>
            <path d="M65.8362496,43.6828417 L65.6202259,44.3781679 L65.6202259,44.3798556 C63.64901,45.7080636 61.7132354,47.0885898 59.8162776,48.5214343 C57.3741976,50.3660739 55.0890723,52.4132356 52.6503676,54.2561875 C52.4951006,54.3726378 52.3195814,54.1228604 52.4478454,53.9945963 C54.5777037,51.8714888 57.0636636,50.0335999 59.4584884,48.2210264 C61.5394039,46.6447287 63.6675745,45.132563 65.8362496,43.6828417" id="Fill-79" fill="#F04832"></path>
            <path d="M63.7755863,50.3593231 L63.4869922,51.2892375 L63.4869922,51.2909252 C63.2102119,51.5001981 62.9199301,51.6993449 62.6583389,51.9086178 C62.1756611,52.2917223 61.6963586,52.6798898 61.2204314,53.0731204 C60.2719525,53.8595816 59.3369751,54.6662949 58.4205622,55.4915728 C56.6687453,57.0678705 55.06882,58.816312 53.3321923,60.4077989 L52.5423558,60.7031437 C52.5372927,60.6558886 52.5507942,60.6035703 52.5879233,60.5563151 C54.2114761,58.468649 56.2923916,56.6510123 58.2568568,54.8924447 C59.2525908,53.9996594 60.2668895,53.1321894 61.3014403,52.2849716 C62.0659615,51.6622158 62.8794257,50.8352502 63.7755863,50.3593231" id="Fill-80" fill="#F04832"></path>
            <path d="M50.8129851,37.4056666 C52.7804881,37.8419331 54.7481599,38.2783685 56.7158317,38.714635 C58.3648686,39.0803563 60.1286681,38.9424725 61.6166998,39.7233642 C61.5532429,39.7134069 61.4916424,39.6966988 61.4317296,39.67324 C62.5187674,39.2376485 63.6058052,38.8020571 64.6928431,38.3664656 C61.6011731,37.5975564 58.3461353,37.2801028 55.1977592,36.7776791 C54.4172049,36.6531279 53.6244993,36.5280705 52.8395571,36.6219057 C52.0546148,36.7155723 51.2646096,37.0581723 50.8047154,37.7011802 C50.8872432,37.6407611 50.969771,37.580342 51.05213,37.5199229" id="Fill-81" fill="#ECE1C3"></path>
            <path d="M61.3573027,51.1991151 C60.6322732,53.5245761 60.1205672,55.8189837 59.3957065,58.1444447 C58.1368624,58.7013807 55.6760491,59.5377973 55.743894,59.5077565 C56.0233746,59.3680162 56.2895225,57.6853944 56.3847079,57.341613 C56.6243592,56.4753243 56.8641792,55.6090357 57.1038305,54.742747 C57.5834705,53.0101698 58.0629418,51.2777612 58.5424131,49.5451839 C59.0085516,47.8607057 59.4748589,46.1763961 59.9409975,44.4919179 C60.1808175,43.625798 60.4204688,42.7595093 60.6602888,41.8932207 C60.8245005,41.2999995 60.9107412,40.1508548 61.3065033,39.6759403 C62.0828384,38.7487262 63.7541527,38.8228156 64.8140188,38.4196277 C64.4239949,39.4678488 64.3843343,40.3356563 64.1517713,41.4046359 C63.9227524,42.457245 63.6025986,43.4869015 63.3286874,44.5280343 C62.7373226,46.7719801 62.0276511,48.9784593 61.3573027,51.1991151" id="Fill-82" fill="#ECE1C3"></path>
            <path d="M45.0962901,29.0207418 C45.3302032,30.546409 45.5642851,32.0720761 45.7981982,33.5977432" id="Fill-83" fill="#00B2C5"></path>
            <path d="M49.0599868,27.3072354 C49.403937,27.7973391 49.5943078,28.3765525 49.7683081,28.9493528 C50.6170449,31.7423025 51.1922079,34.6182863 51.4826584,37.5226232 C51.1279071,37.7372967 50.6443854,37.5902993 50.3510657,37.2971485 C50.0577461,37.0039976 49.9099049,36.5996283 49.7706709,36.2089293 C48.7869194,33.4502396 47.8031679,30.6913811 46.8194164,27.9325226 C46.2456035,26.3236526 48.3020475,26.2269483 49.0599868,27.3072354" id="Fill-84" fill="#D6C48B"></path>
            <path d="M43.9748235,30.1560474 C43.7729764,29.2151631 43.9311125,27.6559111 44.8863421,27.100494 C45.285142,26.8686061 46.0209726,26.790635 46.4823857,26.6934244 C46.7908945,26.6284485 48.2239077,26.7648134 48.3703988,26.632499 C46.7061727,28.1372388 47.7635073,30.7710398 48.3361388,32.5429402 C48.9087702,34.314503 49.9303259,35.8295377 50.6391535,37.5199229 C49.4808954,37.9983815 47.2489322,35.72507 46.5498931,34.9863703 C45.2805853,33.6455047 44.3628222,31.9645706 43.9748235,30.1560474" id="Fill-85" fill="#ECE1C3"></path>
            <path d="M57.9027805,30.5170432 C58.1483386,29.6294898 57.2547095,29.337014 56.5392999,29.4723663 C55.3391872,29.6991911 54.223965,30.5146805 53.4099946,31.3910952 C52.407341,32.4705385 51.688556,33.7845699 51.1076549,35.1385995 C50.787501,35.884725 50.5137585,36.7753163 50.9263975,37.4746929 C52.1217847,36.9612992 52.8937318,35.805235 53.5772441,34.6984513 C54.2607565,33.5916675 54.9829169,32.4178827 56.1403312,31.8239864 C56.4771931,31.6509987 56.8412267,31.5335358 57.1701565,31.3462028 C57.4990863,31.1588698 57.8018569,30.8819207 57.9027805,30.5170432" id="Fill-86" fill="#D6C48B"></path>
            <path d="M59.7180543,32.0773079 C58.161165,34.6714483 54.2187332,38.1414972 50.9454683,37.2841533 C51.6364065,36.2428517 53.0304342,35.7139313 53.941109,34.8658696 C55.0804651,33.8051597 56.4392202,32.5090177 56.8003847,30.9318762 C56.924092,30.3916482 56.8358261,29.7739556 56.4498526,29.376337 C57.2952139,29.3491653 58.1459759,29.4965002 58.9331121,29.8061904 C59.4267599,30.0004429 59.9442041,30.318909 60.0601481,30.8366908 C60.1561773,31.2660378 59.9443729,31.6999416 59.7180543,32.0773079" id="Fill-87" fill="#ECE1C3"></path>
            <path d="M54.5179597,36.6343946 C53.9215319,36.7020708 53.3397869,36.8853534 52.7509536,37.0011285 C52.0988322,37.1292238 51.4413102,37.215127 50.7839569,37.3096373 C50.6398286,37.3303959 50.6732448,37.5739288 50.8185544,37.5646465 C52.0375692,37.4856629 53.4503302,37.3393406 54.5748347,36.8446801 C54.6750832,36.8004628 54.6269841,36.6220745 54.5179597,36.6343946" id="Fill-88" fill="#E2D4A7"></path>
            <path d="M44.8692965,39.5888558 C44.2472158,39.2641452 43.5041282,39.1819549 42.8233161,39.0243252 C42.0515378,38.8455993 41.2763841,38.6324447 40.4919482,38.5202137 C40.1763511,38.4749837 40.040155,38.9026431 40.3574397,39.0084609 C41.108122,39.2585758 41.8959333,39.4136741 42.66518,39.5983068 C43.344642,39.7615059 44.0527945,40.0256286 44.7545339,40.0128022 C44.9710639,40.0087518 45.0758691,39.6968676 44.8692965,39.5888558" id="Fill-89" fill="#ECE1C3"></path>
            <path d="M64.4434032,38.1865584 C63.8849483,38.182508 63.420835,38.609661 62.8890455,38.7878805 C62.3096632,38.9819643 61.6999027,39.082044 61.1267649,39.2872665 C60.9389256,39.3546051 60.954621,39.6588947 61.1762141,39.6524815 C61.7974509,39.6347608 62.4269573,39.4369641 63.0161281,39.2487873 C63.3064099,39.1559646 63.5872407,39.0246627 63.8780288,38.9375782 C64.2420624,38.8287225 64.3683012,38.8862725 64.6140282,38.5985223 C64.7461739,38.4437616 64.6636461,38.1882461 64.4434032,38.1865584" id="Fill-90" fill="#FFFCF5"></path>
            <path d="M58.0786372,32.1313138 C57.3929309,33.4261057 56.4994705,34.3337426 55.404163,35.2855969 C55.2313441,35.4358008 55.451587,35.6622881 55.6318317,35.5806042 C56.9278049,34.9937961 58.0028602,33.7049112 58.5636779,32.4146761 C58.7039245,32.0919908 58.2517937,31.8044093 58.0786372,32.1313138" id="Fill-91" fill="#FFFCF5"></path>
            <path d="M58.5381938,30.7077516 C58.352886,30.7077516 58.1755104,30.8706132 58.1841176,31.0618279 C58.1927247,31.2535489 58.3397221,31.4157354 58.5381938,31.4157354 C58.7233329,31.4157354 58.9007085,31.2528738 58.8921014,31.0618279 C58.8834942,30.8699381 58.7366656,30.7077516 58.5381938,30.7077516" id="Fill-92" fill="#FFFCF5"></path>
            <path d="M47.8305084,32.3051454 C47.6737224,31.5429869 47.1809185,30.8777015 47.0070869,30.0964722 C46.8173911,29.2433475 46.8410187,28.3927543 46.8879364,27.5271407 C46.8987375,27.3288377 46.6042365,27.2996408 46.5500618,27.4812357 C46.2948839,28.3360481 46.296234,29.2284958 46.460277,30.1022103 C46.6042365,30.8694318 46.8830421,31.9827976 47.5230122,32.4842087 C47.6657903,32.5959335 47.8698314,32.4958538 47.8305084,32.3051454" id="Fill-93" fill="#FFFCF5"></path>
            <polyline id="Fill-94" fill="#8FB73A" points="28.1856876 59.9592122 31.8888058 41.5431948 11.4499293 45.171211 15.5795254 62.7903036 28.1856876 59.9592122"></polyline>
            <polyline id="Fill-95" fill="#A4CC4B" points="32.0628061 41.5431948 18.5829294 37.0502402 0 40.7209548 11.6239296 45.171211 32.0628061 41.5431948"></polyline>
            <path d="M24.5126102,60.6138652 C25.2097929,54.7022426 24.9601843,48.3275193 24.5976696,42.3858559 C24.6823913,42.3998637 24.7672819,42.4138715 24.8520037,42.4278793 C22.8605355,41.4242131 20.760718,40.6355579 18.6009877,40.0799721 L14.4619405,41.3767891 C16.6216708,41.932375 18.7214884,42.7210301 20.7129565,43.7246963 C20.6282347,43.7106885 20.5433442,43.6966808 20.4586224,43.682673 C20.8211371,49.6241676 21.0707457,55.9990597 20.3735631,61.9106823 L24.5126102,60.6138652" id="Fill-96" fill="#D93D2A"></path>
            <path d="M12.5045636,41.1337625 C14.1296353,41.2497064 15.7714152,41.7776143 17.3752221,41.2665833 C18.3069929,40.9697195 19.3548765,40.8693023 20.3144941,40.6767374 C22.2509437,40.2882324 24.2638455,40.0131397 26.1641787,39.4877634 C25.0712339,38.7564896 23.2696303,38.6029103 21.9967784,38.7009647 C18.7235136,38.9529361 15.4954787,39.7802392 12.5045636,41.1337625" id="Fill-97" fill="#F04832"></path>
            <polyline id="Fill-98" fill="#6A872A" points="0.0388167522 40.7209548 5.71585115 59.1076064 15.5795254 62.7903036 11.4499293 45.171211 0.0388167522 40.7209548"></polyline>
            <path d="M1.61950241,41.2988181 C2.47971539,41.4611734 3.20812018,41.9890812 4.01483356,42.3083912 C5.20583277,42.7795928 6.47345289,43.1102103 7.68774216,43.5218366 C8.63352076,43.8424967 9.57508016,44.1683887 10.5147831,44.5067695 C10.9463241,44.6620365 11.3868099,44.7575595 11.7150646,45.0493602 C17.5396026,44.1334536 23.3182357,42.7790865 29.1716331,42.0840979 C29.2462288,42.0753219 29.2489291,42.18384 29.1881724,42.2066238 C26.3162391,43.2901175 23.2645673,43.7636818 20.2522185,44.2998593 C17.4987607,44.789963 14.7339953,45.2338241 11.9879632,45.764601 C12.1906542,46.6708878 12.2968096,47.6121097 12.4878555,48.5194091 C12.7330761,49.6837429 12.9816721,50.8474016 13.2285804,52.0113978 C13.6974192,54.2209149 14.1755404,56.4447772 14.4639657,58.6846726 C14.477636,58.790828 14.3115678,58.8050045 14.2827084,58.709144 C13.5939642,56.4284067 13.1084172,54.0756052 12.6080187,51.7457562 C12.3739368,50.6565244 12.1366483,49.5677989 11.9061105,48.477892 C11.7273847,47.6321931 11.4919526,46.7140925 11.4728818,45.828058 C11.2615837,45.77844 11.1427706,45.5511089 11.1684234,45.3610756 C9.696931,44.6974779 8.0688214,44.2499039 6.56036866,43.703769 C5.6529005,43.375008 4.78424909,42.963888 3.88353167,42.6196003 C3.07327416,42.3099101 2.22234345,42.0994558 1.46001619,41.6773658 C1.24449883,41.5580465 1.39824692,41.2571323 1.61950241,41.2988181" id="Fill-99" fill="#B4D66D"></path>
            <path d="M15.2801301,41.5047156 C13.540127,41.8906892 11.8001239,42.2764939 10.0601208,42.6622987 C8.60162352,42.9856591 7.04186515,42.8638083 5.72614602,43.5544089 C5.78200839,43.545633 5.83652061,43.5307813 5.88951392,43.5100228 C4.92820861,43.1248931 3.96690331,42.7395947 3.00576677,42.354465 C5.73981627,41.6744967 8.6183316,41.3938347 11.4025053,40.9494673 C12.0927685,40.8392615 12.7938328,40.7287181 13.4879775,40.8115835 C14.1821223,40.8944488 14.8808239,41.1973882 15.2873872,41.766138 C15.2144792,41.7126384 15.1415712,41.6593076 15.0684944,41.605808" id="Fill-100" fill="#F04832"></path>
            <path d="M5.9555024,53.7026269 C6.57792058,55.7649778 7.03275166,57.6857319 7.67390314,59.742176 C8.75537161,60.2206346 9.83684008,60.6990933 10.9183086,61.177552 C10.6710627,61.0540134 10.4371496,59.438899 10.3529341,59.1347782 C10.1409609,58.368738 9.92881891,57.6025291 9.71684569,56.8364889 C9.29273048,55.3044086 8.86878403,53.7723282 8.44466882,52.2400791 C8.03236741,50.7505285 7.62023476,49.2609778 7.20793335,47.7714271 C6.99579136,47.005387 6.78381814,46.2393468 6.57184492,45.4733066 C6.42653525,44.9486054 6.35042066,43.9322816 6.00022605,43.5125543 C5.31384461,42.6925082 3.83577019,42.7579904 2.89843001,42.4015514 C3.2433928,43.3284279 3.27849664,44.0958182 3.48422543,45.0412593 C3.68674762,45.9721863 3.96926606,46.8826923 4.21195515,47.8033244 C4.73648761,49.7927673 5.36734422,51.7543634 5.9555024,53.7026269" id="Fill-101" fill="#BF2525"></path>
            <path d="M20.3355902,34.0897034 C20.12868,35.4390074 19.9217698,36.7881427 19.7148597,38.1374468" id="Fill-102" fill="#E6369F"></path>
            <path d="M16.8302687,32.5743311 C16.5261479,33.0077286 16.3578857,33.5199409 16.2039688,34.0265839 C15.4534554,36.496342 14.9447871,39.0396831 14.6879215,41.6081707 C15.0016621,41.7980353 15.4293215,41.6680835 15.6887186,41.4088551 C15.947947,41.1496267 16.0787426,40.7918375 16.2019436,40.4465372 C17.0719452,38.00682 17.9417779,35.5671027 18.8117795,33.1273854 C19.3190976,31.7044983 17.5006171,31.6191015 16.8302687,32.5743311" id="Fill-103" fill="#BF2525"></path>
            <path d="M21.3272738,35.0937071 C21.5058309,34.2616784 21.3659218,32.8826711 20.5212355,32.3915548 C20.1686781,32.1865011 19.5179068,32.1176436 19.1098246,32.0315716 C18.836926,31.9741904 17.5696434,32.0946911 17.440198,31.9777345 C18.912028,33.3083053 17.9768818,35.6374792 17.4704076,37.2044946 C16.9641021,38.7711724 16.0606844,40.1108567 15.4337094,41.605808 C16.4581342,42.0289106 18.4318816,40.0185403 19.0502494,39.3654063 C20.1725598,38.1796389 20.9841675,36.6929573 21.3272738,35.0937071" id="Fill-104" fill="#F04832"></path>
            <path d="M9.01021203,35.4128483 C8.79317575,34.6280748 9.58351858,34.3695215 10.2160629,34.4890096 C11.2774479,34.6896753 12.2637309,35.4108231 12.9833598,36.185808 C13.8702382,37.1405313 14.5058203,38.3025023 15.0195516,39.4999148 C15.3027451,40.1597996 15.5445903,40.9474421 15.1797129,41.5658098 C14.1227158,41.1118226 13.4400473,40.0894231 12.8355186,39.1107346 C12.2311586,38.1318774 11.5923699,37.0939512 10.5689578,36.5685749 C10.2710814,36.4158394 9.94907112,36.311878 9.65828302,36.1461474 C9.36732615,35.9804167 9.09949056,35.7355336 9.01021203,35.4128483" id="Fill-105" fill="#D93D2A"></path>
            <path d="M7.40505494,36.7926995 C8.78186826,39.0869383 12.2682877,42.1554869 15.1630048,41.3972101 C14.5518941,40.4764092 13.3190403,40.008583 12.5136771,39.2587446 C11.506298,38.3207293 10.3046663,37.1744538 9.98518758,35.779751 C9.8758256,35.3019674 9.95379664,34.7558326 10.2952153,34.404119 C9.54757089,34.3801539 8.79536974,34.5104432 8.09919973,34.7843544 C7.66259565,34.9561608 7.20506428,35.2376666 7.10262181,35.6957043 C7.01773126,36.0752646 7.20489551,36.4590442 7.40505494,36.7926995" id="Fill-106" fill="#F04832"></path>
            <path d="M18.7984468,42.2358207 C18.1724845,42.0397117 17.5303204,41.9485768 16.8856247,41.957859 C16.5707027,41.962247 15.8787519,41.9408134 16.4093601,41.3521489 C16.5349238,41.2129149 16.7099367,41.1297121 16.8835995,41.0591668 C18.5942369,40.3633343 20.8609665,40.6012979 22.4440149,41.5404946 C24.1759171,42.5677883 25.2732498,44.5818715 25.1978103,46.5940982 C25.1711449,47.3059636 25.0096334,48.0085468 24.9981572,48.7207499 C24.9866809,49.4331217 25.1522428,50.19393 25.6666492,50.6865652 C24.6761469,50.5355174 23.7977069,49.7990117 23.476203,48.8501953 C23.5021933,49.5777562 23.5280149,50.3053172 23.5540052,51.0328781 C22.648056,50.9903485 21.9242079,50.19393 21.6504655,49.329329 C21.376723,48.4648968 21.4501373,47.5349825 21.4855786,46.6286957 C21.52102,45.7225777 21.5056621,44.7727486 21.0812093,43.9712671 C20.6223278,43.1046409 19.734268,42.5291404 18.7984468,42.2358207" id="Fill-107" fill="#BF2525"></path>
            <path d="M18.9631648,41.7695134 C18.3242073,41.6206596 17.6769802,41.5777924 17.0348161,41.6351737 C16.7210755,41.663358 16.029631,41.6935676 16.5146716,41.0669302 C16.6294342,40.9185827 16.7976964,40.8227222 16.965621,40.7393505 C18.6195522,39.9176168 20.8975892,39.9852929 22.5466261,40.8034826 C24.350255,41.6986306 25.5952601,43.6249541 25.6703621,45.6371808 C25.6970275,46.3490463 25.5885094,47.0617556 25.6301952,47.7727773 C25.6720498,48.4839677 25.8939803,49.2302619 26.443828,49.6832366 C25.4448874,49.6066157 24.5137916,48.9377861 24.1222487,48.0156351 C24.2025825,48.7391456 24.2827476,49.4628249 24.3630814,50.1863354 C23.456457,50.2118195 22.6750589,49.4717696 22.337522,48.6299524 C21.9998162,47.788304 22.0035291,46.8555205 21.9711256,45.9492338 C21.938722,45.042947 21.8523126,44.0969996 21.3692972,43.3294405 C20.8467899,42.4994371 19.9182257,41.992119 18.9631648,41.7695134" id="Fill-108" fill="#F04832"></path>
            <path d="M15.4811334,41.2350236 C16.3450593,40.5558992 17.5306579,39.9986256 18.7339772,39.8009977 C18.816505,39.7581306 18.8983577,39.7135757 18.9771726,39.6626076 C19.2406202,39.492489 19.4591754,39.2793344 19.6784057,39.0575726 C19.7538452,38.9811204 19.8966233,39.0830566 19.8313099,39.175373 C19.6920759,39.3723258 19.5094684,39.5664096 19.3023895,39.734503 C20.1109593,39.6823535 20.9061964,39.8101112 21.5951094,40.1949034 C21.7027837,40.2551537 21.630382,40.442318 21.509375,40.398607 C20.4635167,40.0210719 19.4321725,39.9388816 18.3505352,40.2364204 C17.8325847,40.3790298 17.3347177,40.58594 16.8582842,40.8331858 C16.4476705,41.0461717 16.068279,41.3445543 15.6259367,41.4837883 C15.491597,41.5261492 15.3618141,41.3288589 15.4811334,41.2350236" id="Fill-109" fill="#D93D2A"></path>
            <path d="M12.0036587,40.8227222 C12.5310602,40.8824662 13.0456353,41.0446527 13.5662861,41.1469264 C14.142968,41.2603389 14.7243755,41.3362847 15.3057829,41.4198251 C15.4332031,41.4382208 15.4036687,41.6535694 15.2752358,41.6452998 C14.1971427,41.5755984 12.9477496,41.446153 11.9533657,41.008705 C11.8645935,40.9695508 11.9072919,40.8117522 12.0036587,40.8227222" id="Fill-110" fill="#BF2525"></path>
            <path d="M16.5344175,48.7823504 C16.4378819,48.7707053 16.3644677,48.8049653 16.2783957,48.8422632 C16.0380694,48.9463933 16.0380694,49.3715212 16.2783957,49.4756513 C16.3644677,49.5129491 16.4378819,49.5472092 16.5344175,49.5357329 C16.7293451,49.5124428 16.9208974,49.3791157 16.9111088,49.1590416 C16.9011514,48.9349171 16.7448718,48.8073281 16.5344175,48.7823504" id="Fill-111" fill="#B4D66D"></path>
            <path d="M18.9471318,52.2434545 C18.7667183,52.2515554 18.5736472,52.401253 18.5900177,52.6007374 C18.5908615,52.6125512 18.5918742,52.624365 18.5928868,52.6361788 C18.6079072,52.8203052 18.7449472,52.9995373 18.9471318,52.9904238 C19.1520168,52.9813103 19.2851751,52.8344818 19.3013769,52.6361788 C19.3023895,52.624365 19.3034021,52.6125512 19.3042459,52.6007374 C19.3196039,52.4139107 19.1290643,52.2353536 18.9471318,52.2434545" id="Fill-112" fill="#B4D66D"></path>
            <path d="M16.7472346,56.5511014 C16.3973775,56.5511014 16.3967024,57.0948735 16.7472346,57.0948735 C17.0972604,57.0948735 17.0977667,56.5511014 16.7472346,56.5511014" id="Fill-113" fill="#B4D66D"></path>
            <path d="M19.3018832,58.907447 C18.7883207,58.907447 18.7874768,59.7058907 19.3018832,59.7058907 C19.8156145,59.7058907 19.8164583,58.907447 19.3018832,58.907447" id="Fill-114" fill="#B4D66D"></path>
            <path d="M26.9943509,57.7048028 C26.9835497,57.6874196 26.9727485,57.6702052 26.9619473,57.6528221 C26.8311517,57.4435492 26.5329378,57.4435492 26.4021422,57.6528221 C26.391341,57.6702052 26.3805399,57.6874196 26.3697387,57.7048028 C26.2229101,57.9397285 26.4141248,58.2490812 26.6819604,58.2490812 C26.9501335,58.2490812 27.1411794,57.9397285 26.9943509,57.7048028" id="Fill-115" fill="#B4D66D"></path>
            <path d="M28.597989,53.7971372 C28.1742114,53.7971372 28.1735363,54.4556719 28.597989,54.4556719 C29.0217667,54.4556719 29.0224418,53.7971372 28.597989,53.7971372" id="Fill-116" fill="#B4D66D"></path>
            <path d="M26.8129247,52.0573029 C26.8174815,52.0601719 26.8218695,52.0632098 26.8262574,52.0660788 C26.6515821,51.8535993 26.306788,52.0358693 26.306788,52.2812587 C26.306788,52.5273231 26.6524259,52.7080742 26.8262574,52.4966072 C26.8218695,52.4994763 26.8174815,52.5025141 26.8129247,52.5053832 C26.9815245,52.4107041 26.9815245,52.151982 26.8129247,52.0573029" id="Fill-117" fill="#B4D66D"></path>
            <path d="M28.8818576,46.7481838 C28.5191741,46.7481838 28.5184991,47.3120393 28.8818576,47.3120393 C29.2447099,47.3120393 29.2452162,46.7481838 28.8818576,46.7481838" id="Fill-118" fill="#B4D66D"></path>
            <path d="M27.1469176,45.6469694 C27.0556138,45.4898459 26.8760441,45.4901835 26.7849092,45.6469694 C26.7050817,45.7843469 26.8066803,45.9623977 26.965829,45.9623977 C27.1251464,45.9623977 27.2265763,45.7843469 27.1469176,45.6469694" id="Fill-119" fill="#B4D66D"></path>
            <path d="M9.41238733,47.1365201 C9.38960359,46.966739 9.27737254,46.7988143 9.08328878,46.8075903 C8.88549211,46.8163662 8.7789992,46.9530687 8.754359,47.1365201 C8.74305151,47.2200605 8.76532895,47.2965126 8.81224659,47.3658764 C8.9487803,47.5675548 9.21779727,47.5675548 9.35433097,47.3658764 C9.40124861,47.2965126 9.42352605,47.2200605 9.41238733,47.1365201" id="Fill-120" fill="#B4D66D"></path>
            <path d="M10.9284347,50.6647941 C10.4916618,50.6647941 10.4909867,51.3432434 10.9284347,51.3432434 C11.3650387,51.3432434 11.3657138,50.6647941 10.9284347,50.6647941" id="Fill-121" fill="#B4D66D"></path>
            <path d="M10.7154488,55.218843 C10.2948778,55.218843 10.2942027,55.8724833 10.7154488,55.8724833 C11.1360199,55.8724833 11.136695,55.218843 10.7154488,55.218843" id="Fill-122" fill="#B4D66D"></path>
            <path d="M12.8037901,60.3198705 C12.7769559,60.2349799 12.7415145,60.1738858 12.6746822,60.1148168 C12.5638013,60.0167623 12.4157913,60.016256 12.3042354,60.1148168 C12.2375718,60.1738858 12.2019617,60.2349799 12.1752962,60.3198705 C12.111333,60.5235741 12.2841519,60.7323407 12.4895432,60.7323407 C12.6947657,60.7323407 12.8677534,60.5234053 12.8037901,60.3198705" id="Fill-123" fill="#B4D66D"></path>
            <path d="M5.96816003,56.6007193 C5.96579728,56.5895806 5.96343452,56.5784419 5.96107176,56.5673032 C5.90082141,56.2866412 5.45341615,56.2863036 5.3931658,56.5673032 C5.39080304,56.5784419 5.38844028,56.5895806 5.38607752,56.6007193 C5.34523555,56.7910902 5.47383713,56.9828112 5.67703439,56.9828112 C5.87921904,56.9828112 6.00900201,56.7910902 5.96816003,56.6007193" id="Fill-124" fill="#B4D66D"></path>
            <path d="M2.90956873,46.8676719 C2.51785707,46.8676719 2.517182,47.4764198 2.90956873,47.4764198 C3.30128039,47.4764198 3.30195546,46.8676719 2.90956873,46.8676719" id="Fill-125" fill="#B4D66D"></path>
            <path d="M18.9471318,45.7423236 C18.935318,45.7416485 18.9235042,45.7409734 18.9116904,45.7404671 C18.5304424,45.72089 18.5297674,46.3524217 18.9116904,46.3328445 C18.9235042,46.3321695 18.935318,46.3316632 18.9471318,46.3309881 C19.3256795,46.3117485 19.3263546,45.761732 18.9471318,45.7423236" id="Fill-126" fill="#B4D66D"></path>
            <path d="M13.1992147,43.3555996 C13.0216702,43.3555996 12.8517203,43.5117105 12.8598212,43.6948243 C12.8680909,43.878782 13.0090126,44.0342177 13.1992147,44.0342177 C13.3765903,44.0342177 13.546709,43.8781069 13.5384393,43.6948243 C13.5301697,43.5110354 13.3894167,43.3555996 13.1992147,43.3555996" id="Fill-127" fill="#B4D66D"></path>
            <path d="M16.6053003,42.8391681 C16.3259884,42.8391681 16.3256509,43.2732406 16.6053003,43.2732406 C16.8846121,43.2732406 16.8851184,42.8391681 16.6053003,42.8391681" id="Fill-128" fill="#B4D66D"></path>
            <path d="M6.38670588,41.0620359 C6.38316175,41.0512347 6.37944884,41.0402648 6.37573593,41.0294636 C6.28493849,40.7612904 5.92107363,40.7609529 5.83010741,41.0294636 C5.8263945,41.0402648 5.8226816,41.0512347 5.81896869,41.0620359 C5.75686189,41.2453185 5.92039855,41.4346767 6.10283729,41.4346767 C6.28544479,41.4346767 6.44881269,41.2451497 6.38670588,41.0620359" id="Fill-129" fill="#B4D66D"></path>
            <path d="M8.62001928,39.9783734 C8.61107455,39.9733104 8.60212982,39.9684161 8.59318509,39.9635218 C8.39910133,39.8565226 8.15033658,39.9901872 8.15033658,40.2176871 C8.15033658,40.4451871 8.39910133,40.5788517 8.59318509,40.4718525 C8.60212982,40.4669582 8.61107455,40.4620639 8.62001928,40.4571696 C8.8004328,40.357765 8.8004328,40.0776093 8.62001928,39.9783734" id="Fill-130" fill="#B4D66D"></path>
            <path d="M24.6462749,40.6397771 C24.5981759,40.5520175 24.4962397,40.4956488 24.3970038,40.4966615 C24.3828273,40.4968302 24.3686507,40.496999 24.3544742,40.4971678 C23.983521,40.5010494 23.9830147,41.0696305 24.3544742,41.0736809 C24.3686507,41.0738497 24.3828273,41.0740185 24.3970038,41.0740185 C24.4962397,41.0751998 24.5981759,41.0188312 24.6462749,40.9310715 C24.7007871,40.8320044 24.7007871,40.739013 24.6462749,40.6397771" id="Fill-131" fill="#B4D66D"></path>
            <path d="M27.3268248,41.2245599 C27.3251371,41.2117335 27.321593,41.1848993 27.3148422,41.1364628 C27.3145047,41.1351126 27.3136608,41.1341 27.3131545,41.1327499 C27.2817636,40.9457544 27.0832918,40.7999384 26.8908958,40.8620452 C26.8323331,40.8811161 26.7948665,40.9273586 26.7418732,40.948961 C26.7911536,40.9089629 26.7913224,40.9082878 26.742042,40.9469358 C26.7145327,40.9631376 26.6927616,40.9850775 26.6765598,41.012418 C26.5888002,41.1259991 26.5906566,41.2459935 26.6134404,41.3791519 C26.6458439,41.5688477 26.8892081,41.6922174 27.0645585,41.6353424 C27.2441282,41.5772861 27.3531527,41.4086864 27.3268248,41.2245599" id="Fill-132" fill="#B4D66D"></path>
            <polyline id="Fill-133" fill="#D6C48B" points="25.7488394 65.4978565 23.1747824 52.6971042 34.617961 55.2190117 34.5111305 67.465697 25.7488394 65.4978565"></polyline>
            <polyline id="Fill-134" fill="#ECE1C3" points="23.0193467 52.6647007 32.2278617 49.6521832 42.578433 52.006166 34.6797303 55.3563893 23.0193467 52.6647007"></polyline>
            <path d="M28.1061977,66.1619605 C27.6216633,62.0527853 27.7951573,57.4908043 28.0471287,53.3608707 C27.9882285,53.3706592 27.9293283,53.3804478 27.8704281,53.3900676 C29.2546672,52.6925475 30.7140083,52.1443874 32.2153728,51.7580763 L35.0923692,52.6594688 C33.5910047,53.0456111 32.1316636,53.59394 30.7474245,54.2914601 C30.8063247,54.2816715 30.8652249,54.2720517 30.9241251,54.2622632 C30.6721537,58.3921968 30.4986597,62.6924179 30.9831941,66.801593 L28.1061977,66.1619605" id="Fill-135" fill="#BA8D1E"></path>
            <path d="M36.452812,52.4905316 C35.3232445,52.5712029 34.1822008,52.9381056 33.0674849,52.5828479 C32.4197514,52.3766128 31.6913466,52.3067427 31.0242048,52.1729093 C29.6782761,51.9028797 28.2791854,51.711665 26.9582344,51.34645 C27.7178614,50.8381193 28.9701235,50.7314576 29.8549767,50.7996401 C32.1301447,50.974653 34.3739218,51.549816 36.452812,52.4905316" id="Fill-136" fill="#D9A72A"></path>
            <polyline id="Fill-137" fill="#ECE1C3" points="42.5514301 52.006166 41.1717477 64.9839564 34.3155279 67.5438368 34.4223583 55.2969828 42.5514301 52.006166"></polyline>
            <polyline id="Fill-138" fill="#F0C04A" points="34.4167889 52.8186175 37.4137798 54.0860689 37.219696 66.4594993 39.0678797 65.769405 39.7063309 53.1968277 35.7151249 52.1751033 34.4167889 52.8186175"></polyline>
            <path d="M31.0096907,47.594389 C31.1534815,48.5322355 31.2972722,49.470082 31.441063,50.4077597" id="Fill-139" fill="#00B2C5"></path>
            <path d="M33.4462014,46.5411048 C33.6574995,46.8423566 33.7744561,47.1982893 33.8814553,47.5505092 C34.4032875,49.2672222 34.7566887,51.0350721 34.9352457,52.820474 C34.7171969,52.9522822 34.4199956,52.861991 34.2397508,52.6817463 C34.0593373,52.5015015 33.9685398,52.2529055 33.8829742,52.0129168 C33.2782767,50.317131 32.6735792,48.6213452 32.0688817,46.9253907 C31.7161556,45.9364074 32.9802316,45.8770008 33.4462014,46.5411048" id="Fill-140" fill="#BA8D1E"></path>
            <path d="M30.3202714,48.2922467 C30.1962266,47.7138771 30.2934373,46.7554408 30.8805828,46.4140222 C31.1256347,46.2714128 31.578103,46.2234826 31.861634,46.1639073 C32.0513298,46.1239091 32.9321326,46.2076183 33.0222549,46.1262719 C31.9991804,47.051292 32.6491078,48.6701193 33.0011589,49.7593511 C33.3532099,50.8484142 33.9810287,51.7796787 34.4167889,52.8186175 C33.7047547,53.112781 32.3328357,51.7153779 31.9031511,51.2613907 C31.1229344,50.4371254 30.5587413,49.4039247 30.3202714,48.2922467" id="Fill-141" fill="#F0C04A"></path>
            <path d="M38.8817281,48.5141772 C39.0326071,47.9685487 38.4832657,47.7888103 38.0436238,47.8718444 C37.3059367,48.0114159 36.6203991,48.5126583 36.1200005,49.0513673 C35.503658,49.714965 35.0618221,50.5225222 34.704708,51.3548884 C34.5079239,51.8136012 34.3398305,52.3610861 34.5933208,52.7909395 C35.3281388,52.4753424 35.802547,51.7646583 36.2227805,51.0843525 C36.6430141,50.4040468 37.0868752,49.6825615 37.7982344,49.3173465 C38.0053133,49.2111911 38.2291003,49.1389582 38.431285,49.0238581 C38.6334696,48.9085892 38.8196213,48.7384706 38.8817281,48.5141772" id="Fill-142" fill="#BA8D1E"></path>
            <path d="M39.9974565,49.4731198 C39.0405392,51.0678132 36.6171925,53.2007094 34.6051346,52.6738142 C35.0297561,52.0336753 35.8867625,51.7084584 36.4465676,51.1873013 C37.146788,50.5353486 37.9820233,49.7385926 38.2039538,48.7691864 C38.2800684,48.43705 38.2258937,48.0573209 37.9884365,47.8129442 C38.5082434,47.7962361 39.0310882,47.886696 39.5149474,48.0772356 C39.8185619,48.1965549 40.1365218,48.3923264 40.2077421,48.7106238 C40.266811,48.9745777 40.1366905,49.2412319 39.9974565,49.4731198" id="Fill-143" fill="#F0C04A"></path>
            <path d="M32.078164,53.2565717 C32.5132492,53.1202068 32.9596418,53.0569186 33.4077222,53.0633318 C33.6266149,53.0665384 34.1074363,53.051518 33.7386772,52.6424232 C33.6514239,52.5455501 33.5297418,52.4878313 33.4090723,52.4387197 C32.2199295,51.9551979 30.6444757,52.1204223 29.5441052,52.7733876 C28.3402795,53.487447 27.577446,54.8873816 27.629933,56.2859661 C27.6484975,56.7807953 27.7607286,57.2692113 27.7688294,57.7642093 C27.7767616,58.259376 27.6616615,58.7881277 27.304041,59.1307277 C27.9926165,59.025585 28.6030521,58.5137101 28.8266703,57.8541629 C28.8086121,58.359962 28.7905539,58.8655924 28.7724956,59.3713916 C29.4021709,59.3418571 29.9054385,58.7882965 30.0956406,58.1873119 C30.2860114,57.5863273 30.2348746,56.939944 30.2104032,56.3101 C30.185763,55.680256 30.1963954,55.0200337 30.4914027,54.4629289 C30.8103751,53.8604254 31.4275615,53.4606128 32.078164,53.2565717" id="Fill-144" fill="#BA8D1E"></path>
            <path d="M31.9635702,52.9325362 C32.4077689,52.8290812 32.8575369,52.7992091 33.3039295,52.8392073 C33.5219784,52.8586156 34.0026311,52.8797117 33.6654316,52.4441202 C33.5857729,52.3410027 33.4688164,52.2743391 33.3520286,52.2164516 C32.2023776,51.6451702 30.6189917,51.6922566 29.4728849,52.2610064 C28.2191038,52.8832558 27.353659,54.2220963 27.3015095,55.6208495 C27.282945,56.1156787 27.3583845,56.6110142 27.3293563,57.1053371 C27.3003281,57.59966 27.1460737,58.1182856 26.7638131,58.4332076 C27.4582954,58.3798767 28.1053538,57.9150883 28.3775774,57.2741056 C28.321715,57.7770357 28.2660214,58.2799658 28.210159,58.7828959 C28.8403406,58.8006166 29.3834376,58.2862102 29.6181945,57.7010899 C29.8527827,57.1161383 29.8502512,56.4677298 29.8728662,55.837717 C29.8953124,55.207873 29.955394,54.550351 30.2910745,54.0168738 C30.6542643,53.4398543 31.2998037,53.0871282 31.9635702,52.9325362" id="Fill-145" fill="#D9A72A"></path>
            <path d="M34.3838791,52.560908 C33.7834008,52.0888626 32.9593043,51.7015389 32.1228877,51.5641613 C32.0655064,51.5344581 32.0086314,51.5034047 31.9539504,51.4679633 C31.7706678,51.3498254 31.6187762,51.2016466 31.4663782,51.0473922 C31.4138912,50.9943989 31.3148241,51.0651129 31.3602229,51.1294137 C31.4569272,51.266285 31.5838411,51.401131 31.7278006,51.5179188 C31.1658016,51.4818023 30.612916,51.5705746 30.1341198,51.8380726 C30.0593554,51.8799272 30.1096484,52.0100477 30.1938638,51.9796694 C30.9207497,51.7170656 31.6376783,51.6600218 32.3895419,51.866932 C32.7495251,51.9659991 33.0955005,52.1097899 33.4266242,52.2815962 C33.7121805,52.4297749 33.9757969,52.6370226 34.2832931,52.7338957 C34.376622,52.7632615 34.4669132,52.6262214 34.3838791,52.560908" id="Fill-146" fill="#D9A72A"></path>
            <path d="M36.8009814,52.2743391 C36.4344162,52.316025 36.0767958,52.4285935 35.7147874,52.4998138 C35.314131,52.57846 34.9099305,52.6314533 34.5058987,52.6895096 C34.4171265,52.7021673 34.4377162,52.8518649 34.5269948,52.8461268 C35.2764956,52.7976902 36.1448095,52.7077366 36.8360852,52.4036158 C36.8976857,52.3764441 36.8679825,52.2667446 36.8009814,52.2743391" id="Fill-147" fill="#F0C04A"></path>
            <path d="M46.5168145,68.1993337 C46.4948745,68.1993337 46.4729346,68.1993337 46.4509947,68.1993337" id="Fill-148" fill="#ECE1C3"></path>
            <path d="M39.0984268,49.4655252 C38.8638386,50.2329155 38.3853799,50.7844509 37.6638947,51.1363332 C37.4882067,51.2220676 37.6114077,51.5196065 37.7980656,51.4544618 C38.6235123,51.166374 39.2955484,50.4312185 39.4874382,49.572862 C39.5439756,49.319878 39.1745414,49.2162541 39.0984268,49.4655252" id="Fill-149" fill="#FFD878"></path>
            <path d="M39.684391,48.5934984 C39.6757838,48.5833723 39.6666703,48.5737525 39.6570505,48.564639 C39.5848176,48.4925749 39.4624604,48.4924061 39.3900587,48.564639 C39.3804389,48.5737525 39.3713254,48.5833723 39.3627183,48.5934984 C39.2334416,48.7372892 39.3188384,48.9818347 39.5235546,48.9818347 C39.727427,48.9818347 39.8136677,48.7372892 39.684391,48.5934984" id="Fill-150" fill="#FFD878"></path>
            <path d="M32.3058327,48.6496983 C32.1519158,48.192842 32.0319214,47.7250158 31.8975817,47.2622526 C31.8351374,47.0475791 31.496419,47.0838643 31.5013133,47.315921 C31.5183589,48.1390049 31.7279694,49.5065359 32.455024,50.0155417 C32.5486906,50.0811926 32.6698663,49.9925892 32.6722291,49.8909906 C32.6828615,49.4645126 32.4401724,49.0484983 32.3058327,48.6496983" id="Fill-151" fill="#FFD878"></path>
            <path d="M31.6758199,46.4001832 C31.6570866,46.401027 31.6383533,46.4020396 31.61962,46.4030522 C31.4172666,46.4135159 31.4169291,46.707173 31.61962,46.7176367 C31.6383533,46.7186493 31.6570866,46.7194931 31.6758199,46.7205057 C31.8818863,46.7311382 31.8823926,46.3895507 31.6758199,46.4001832" id="Fill-152" fill="#FFD878"></path>
            <path d="M38.9434973,53.1176753 C38.6073105,53.2645039 38.2699423,53.4089697 37.9347681,53.5579923 C37.6669325,53.676974 37.3245012,53.7741847 37.1894864,54.0519776 C37.1466192,54.1402435 37.1818919,54.2388043 37.2780899,54.2698577 C37.5742786,54.3653807 37.8792432,54.1864861 38.1523107,54.0742551 C38.4917041,53.9348523 38.8290723,53.790724 39.1674531,53.6491272 C39.5514014,53.4882909 39.3328462,52.9477254 38.9434973,53.1176753" id="Fill-153" fill="#FFD878"></path>
            <path d="M20.9942936,33.5788411 C20.9242547,33.3496535 20.5787856,33.3910018 20.5747351,33.6355474 C20.5494198,35.1969934 20.3666436,36.5008987 19.4159707,37.8061542 C19.327536,37.9274988 19.5157129,38.0591382 19.6178178,37.9619275 C20.7298334,36.9025677 21.4651577,35.1169971 20.9942936,33.5788411" id="Fill-154" fill="#F77261"></path>
            <path d="M20.1678343,32.833897 C20.0994831,32.5318014 19.6247373,32.5314639 19.5562173,32.833897 C19.5459224,32.8798021 19.5368089,32.9275635 19.5417032,32.9744812 C19.5585801,33.1407181 19.6768868,33.3032422 19.8620258,33.2948038 C20.0502027,33.2865341 20.1641214,33.1537133 20.1823484,32.9744812 C20.1872427,32.9275635 20.1781292,32.8798021 20.1678343,32.833897" id="Fill-155" fill="#F77261"></path>
            <path d="M21.5525797,41.2210158 C21.3316618,41.1710603 21.2189244,41.45341 21.4017007,41.5789738 C22.0907824,42.0520318 22.743579,42.4817164 23.2031355,43.2026954 C23.6282634,43.8694997 23.7344187,44.6022925 23.9671505,45.3387981 C24.014912,45.4898459 24.2462936,45.503685 24.2874731,45.3387981 C24.6974117,43.7002249 23.1373158,41.5794801 21.5525797,41.2210158" id="Fill-156" fill="#F77261"></path>
            <path d="M11.0376279,38.6726116 C10.6776447,38.189765 10.2651745,37.7609243 9.97269871,37.2284597 C9.68241691,36.6998768 9.62436055,36.0639571 9.32158989,35.5586643 C9.22201648,35.3924273 8.92565901,35.4069414 8.88414197,35.6158768 C8.76161604,36.2325568 9.09898425,36.9246764 9.38622822,37.4606851 C9.7023316,38.0503622 10.1392732,38.6440898 10.7264188,38.9838207 C10.9097014,39.0898073 11.1797309,38.8634888 11.0376279,38.6726116" id="Fill-157" fill="#F77261"></path>
            <path d="M34.0645691,71.8295438 L34.0517427,71.7858328 C34.1022045,71.7752004 34.1401774,71.730308 34.1401774,71.6768083 C34.1401774,71.6153766 34.0902219,71.5655899 34.0286214,71.5655899 C33.9671897,71.5655899 33.9172342,71.6153766 33.9172342,71.6768083 C33.9172342,71.730308 33.9550384,71.7752004 34.0055001,71.7858328 L34.0196767,71.8346069 C33.8471953,71.8584032 33.7099865,71.9255731 33.7099865,71.9255731 L33.7342892,72 C33.8385881,71.9652337 33.929048,71.9441376 34.0110695,71.9353617 C34.0914033,71.9267545 34.1519912,71.9230416 34.2012716,71.9230416 C34.2540961,71.9230416 34.2930816,71.9272608 34.3378053,71.9348554 L34.3504629,71.8543528 C34.3504629,71.8543528 34.2269244,71.8163799 34.0645691,71.8295438" id="Fill-186" fill="#3A8DA1"></path>
        </g>
    </g>
</svg>