<?xml version="1.0" encoding="UTF-8"?>
<svg width="80px" height="32px" viewBox="0 0 80 32" version="1.1" xmlns="http://www.w3.org/2000/svg" xmlns:xlink="http://www.w3.org/1999/xlink">
    <title>MIAMI_INTERNATIONAL_AUTODROME</title>
    <g id="new-relase" stroke="none" stroke-width="1" fill="none" fill-rule="evenodd">
        <g id="MIAMI_INTERNATIONAL_AUTODROME" transform="translate(0.000000, 0.860489)" fill="#999999">
            <path d="M11.79418,0.0023782802 C12.3183658,-0.0130389486 13.212565,0.0486299665 13.7984197,0.12571611 C14.3688572,0.218219483 15.8797456,0.310722855 17.1439584,0.37239177 C18.4235884,0.418643457 25.6234342,0.696153574 33.1778763,0.98908092 C40.7323184,1.2974255 48.5334361,1.60577007 50.5222586,1.68285621 C52.5110811,1.75994236 57.7221045,1.97578356 62.0851802,2.14537308 C66.4482559,2.33037982 72.0601272,2.54622102 79.0749663,2.83914837 L79.4449798,3.27083078 C79.6454037,3.50208921 79.8149933,3.8721027 79.8149933,4.11877836 C79.8149933,4.35003679 79.6454037,5.16714991 79.4295625,5.92259412 C79.2137213,6.69345556 79.0441318,7.44889977 79.0441318,7.61848928 C79.0441318,7.7880788 79.259973,8.09642338 79.5220659,8.31226458 C79.8766622,8.5897747 80,8.82103313 80,9.16021216 C80,9.43772228 79.6916554,10.1160803 79.2291386,10.8561073 C78.6587011,11.781141 78.2732704,12.2128235 77.7182501,12.5520025 C77.0244749,12.9836849 76.8703026,13.0145193 75.2052419,13.060771 C74.2185392,13.0916055 73.262671,13.1378572 73.0776643,13.1686916 C72.8772403,13.2149433 72.584313,13.4770362 72.4147235,13.7545463 C72.2451339,14.0166392 72.1063789,14.5099905 72.1063789,14.8337523 C72.1063789,15.280852 72.2142995,15.5121104 72.6151474,15.9129584 C72.8926575,16.1750512 73.6326845,16.7146542 74.2493737,17.100085 C74.8814801,17.4855157 75.4673347,17.978867 75.5906726,18.2255427 C75.7140104,18.4568011 75.8065138,18.7959801 75.8065138,18.9964041 C75.8065138,19.1968281 75.5135864,19.6130933 75.0664868,20.0293584 C74.5268838,20.538127 73.4785122,21.1548161 71.0271729,22.3727772 C69.2079399,23.2823937 66.8799383,24.3615997 65.8624012,24.7778649 C64.8448641,25.1941301 63.2106379,25.8416537 62.2393525,26.1962499 C61.2680671,26.5508462 58.8013105,27.4296282 56.7662363,28.154238 C54.7311621,28.8634305 52.2644055,29.6497092 51.2931201,29.8963848 C50.3218347,30.1430605 49.0422047,30.4051534 48.4409327,30.4976568 C47.8396608,30.5901601 46.5754481,30.7443324 45.6349971,30.8214186 C44.4324533,30.9293392 43.3069956,30.9293392 42.0119484,30.8060013 C40.9635768,30.713498 39.4835228,30.4822395 38.7280786,30.2818156 C37.9726344,30.0968088 36.6467527,29.6497092 35.7988052,29.3105301 C34.9508576,28.9713511 33.6249759,28.4317481 32.8695317,28.1234035 C32.1140875,27.7996417 30.8961264,27.4296282 30.1715167,27.3062904 C29.0306417,27.0904492 27.9976874,27.0904492 21.9232993,27.2292043 C17.8839854,27.3371249 14.3996917,27.3525421 13.5979958,27.2754559 C12.8425516,27.1983698 11.6862594,27.0287803 11.054153,26.8900252 C10.4220466,26.7512702 9.45076123,26.5045945 8.89574099,26.3504222 C8.34072076,26.1962499 7.44652149,25.9804087 6.89150125,25.8879054 C6.12063981,25.7491503 5.50395066,25.7645675 4.27057236,25.9033226 C2.83677009,26.0729121 2.5746772,26.0729121 1.95798805,25.8416537 C1.57255733,25.7183158 1.03295433,25.3483024 0.770861438,25.055375 C0.49335132,24.7470304 0.185006745,24.2074274 0.0925033725,23.8528312 C-0.0308344575,23.3594798 -0.0308344575,22.9432147 0.0925033725,22.2648566 C0.185006745,21.7560881 0.462516863,21.0314783 0.693775294,20.6460476 C0.925033725,20.2606169 1.46463673,19.6901794 1.88090191,19.3818348 C2.31258431,19.058073 3.00635961,18.6263906 3.42262478,18.4259666 C3.85430719,18.2255427 4.5018308,17.978867 4.88726151,17.8709464 C5.27269223,17.7630258 6.10522259,17.6705224 6.73732897,17.6551052 C7.67777992,17.639688 8.04779341,17.7167741 8.7415687,18.0405359 C9.20408557,18.2563771 10.0982848,18.8730663 10.714974,19.4280865 C11.3316631,19.9676895 12.133359,20.5689614 12.4879553,20.7693854 C12.8888032,20.9698094 13.3975718,21.1085644 13.8292542,21.1085644 C14.2146849,21.1085644 14.7697051,21.0314783 15.0626325,20.9235577 C15.3555598,20.8156371 16.1880902,20.3685375 16.9126999,19.9214378 C17.6373097,19.458921 18.5777606,18.9809869 18.9940258,18.8422318 C19.5182116,18.6880595 20.150318,18.6263906 20.9365966,18.6572251 C21.8924648,18.7034768 22.2778955,18.8113974 23.1720948,19.258497 C23.7579495,19.5668416 25.5925997,20.6152131 27.2422432,21.5864985 C28.8918867,22.5577839 31.3278088,23.9453345 32.6382733,24.6545271 C33.9487377,25.3637196 35.4133744,26.0883293 35.8758913,26.2425016 C36.4411897,26.4480647 37.2891373,26.5765416 38.4197341,26.6279323 C39.6839468,26.674184 40.4239738,26.6279323 41.3490075,26.4275084 C42.0273656,26.2887533 42.998651,25.9649915 43.5074195,25.7337331 C44.0161881,25.5024746 44.7253806,25.1016267 45.0953941,24.8241166 C45.4499904,24.5620237 45.8662555,24.1149241 46.0050106,23.8528312 C46.1900173,23.4982349 46.2825207,22.7736251 46.3441896,21.4014918 C46.436693,19.6285105 46.4675275,19.4126693 46.8683754,18.8268146 C47.0996338,18.4568011 47.6700713,17.9326153 48.1788399,17.6242707 C48.6567739,17.3159262 49.2117942,16.9150782 49.4122182,16.7300715 C49.5972249,16.560482 49.7513972,16.2829718 49.7513972,16.1442168 C49.7513972,15.9900445 49.5972249,15.6971172 49.4122182,15.4812759 C49.2117942,15.280852 47.0071305,13.9241358 44.5095394,12.4749163 C42.0119484,11.0102796 39.899788,9.76148408 39.8072846,9.69981517 C39.699364,9.60731179 39.7301985,9.39147059 39.8843708,9.08312602 C40.0077086,8.82103313 40.1618809,8.60519192 40.238967,8.62060915 C40.300636,8.62060915 42.1661206,9.68439794 44.4016188,10.9794452 C46.6216997,12.2899096 48.8263635,13.600374 49.2888803,13.8933014 C49.7513972,14.201646 50.2910002,14.6024939 50.4914242,14.8029179 C50.6764309,15.0033419 50.8768549,15.4504415 50.9231066,15.7896205 C51.0001927,16.2058857 50.9385238,16.560482 50.7689343,16.9150782 C50.6301792,17.1771711 50.2293313,17.639688 49.874735,17.9171981 C49.5047215,18.2101254 48.9651185,18.5801389 48.6721912,18.7497284 C48.3792638,18.9347352 48.0092503,19.3047487 47.8704953,19.597676 C47.6854885,19.9522723 47.5929852,20.5997959 47.5467335,21.8023397 C47.5004818,23.236142 47.4388129,23.6215727 47.0996338,24.2690963 C46.8837926,24.7007787 46.4675275,25.255799 46.1900173,25.5024746 C45.89709,25.7645675 45.2804008,26.1808327 44.817884,26.4429256 C44.3553671,26.7204357 43.5228368,27.075032 42.9678165,27.2446215 C42.4127963,27.4296282 41.518597,27.6454694 40.9635768,27.7379728 C40.4085566,27.815059 39.4526884,27.8921451 38.8514165,27.8921451 C38.2347273,27.8921451 37.1863558,27.7842245 36.5388321,27.6454694 C35.8758913,27.5067144 35.0587782,27.2754559 34.7195992,27.1212837 C34.3804201,26.9825286 32.5457699,25.995826 30.6340335,24.9320372 C28.7222972,23.8682484 26.0859511,22.35736 24.7754866,21.5864985 C23.4650222,20.8002199 22.0774716,20.0601929 21.6920409,19.9368551 C21.229524,19.7826828 20.7361727,19.7210139 20.2274041,19.7826828 C19.7032183,19.8443517 19.0556947,20.1218618 18.2231644,20.5997959 C17.5448063,20.9852266 16.6043554,21.5248296 16.1418385,21.7869225 C15.3709771,22.2186049 15.1705531,22.2648566 13.9063403,22.2648566 C12.7808826,22.2648566 12.3954519,22.2031877 11.9021006,21.9410948 C11.5629216,21.7560881 10.7612257,21.1239817 10.1291193,20.5535442 C9.48159568,19.9676895 8.61823087,19.3201659 8.2019657,19.1197419 C7.55444209,18.8113974 7.27693197,18.7651457 6.42898439,18.8422318 C5.87396415,18.8884835 5.0414338,19.0734902 4.57891694,19.2430798 C4.11640008,19.4126693 3.31470418,19.8443517 2.80593563,20.2143652 C2.22008094,20.6460476 1.77298131,21.1085644 1.58797456,21.4939952 C1.41838505,21.8331742 1.26421276,22.3881944 1.21796107,22.7273735 C1.17170939,23.1128042 1.2333783,23.5290694 1.40296782,23.8528312 C1.54172288,24.1303413 1.89631914,24.4695203 2.20466371,24.6236926 C2.69801503,24.854951 2.88302178,24.8703683 4.16265176,24.6853615 C5.39603006,24.5003548 5.76604355,24.5003548 7.01483908,24.716196 C7.78570052,24.854951 9.25033725,25.1632956 10.2524571,25.4253885 C11.2391598,25.6720642 12.6883793,25.9495743 13.4438235,26.0420776 C14.3842744,26.1654155 16.172673,26.1808327 19.071112,26.0883293 C21.3991135,26.0266604 24.8063211,25.9649915 26.6255541,25.9649915 C28.8764695,25.9649915 30.2177684,26.0266604 30.7882058,26.1654155 C31.2507227,26.2887533 32.0524186,26.5200117 32.5611871,26.6896013 C33.0699557,26.874608 34.1491617,27.3062904 34.9508576,27.6608867 C35.7525535,28.0309002 36.9859318,28.493417 37.6951243,28.7246754 C38.3888996,28.9405166 39.560609,29.233444 40.3160532,29.3567818 C41.0869146,29.4955369 42.597803,29.5880403 43.8928503,29.5880403 C45.1262286,29.5880403 46.7142031,29.5109541 47.4388129,29.433868 C48.1634226,29.3413646 49.4738871,29.0946889 50.3680863,28.8788477 C51.2622856,28.6784238 52.433995,28.354662 52.9890152,28.1850724 C53.5440355,28.0000657 56.211216,27.0596147 58.9246483,26.0883293 C61.6380806,25.1016267 64.6906918,23.9453345 65.7082289,23.4982349 C66.725766,23.0511353 68.4679129,22.2648566 69.5625361,21.7406708 C70.6571594,21.216485 72.1526306,20.4456236 72.8772403,20.0293584 C73.6018501,19.6285105 74.2802081,19.1968281 74.3727115,19.0734902 C74.5268838,18.919318 74.4960493,18.8113974 74.2185392,18.5493045 C74.0335325,18.379715 73.3705916,17.9480325 72.7693197,17.5934363 C71.9367894,17.1155022 71.5513586,16.7763232 71.2584313,16.2983891 C71.0117556,15.8667067 70.8730006,15.3887726 70.8730006,14.9416729 C70.8730006,14.5562422 70.9500867,14.001222 71.0425901,13.7082946 C71.1505107,13.4153673 71.3971864,12.9682677 71.6284448,12.721592 C71.844286,12.4749163 72.2605512,12.181989 72.5380613,12.0740684 C72.8464059,11.9353133 73.6326845,11.8582272 74.6964733,11.8582272 C75.9606861,11.8582272 76.4694546,11.7965583 76.8857198,11.5807171 C77.2403161,11.4111276 77.6565812,10.9640279 78.72037,9.31438445 L78.2578532,8.89811927 C77.9186741,8.55894024 77.8107535,8.32768181 77.8107535,7.8959994 C77.8107535,7.5722376 78.0111775,6.60095219 78.2424359,5.73758738 C78.4736944,4.87422257 78.6278666,4.13419559 78.581615,4.0879439 C78.5353633,4.04169221 70.4259009,3.68709595 60.5434573,3.30166523 C50.6610137,2.91623451 40.0847948,2.49996934 37.0321835,2.37663151 C33.9795722,2.25329368 30.8807092,2.12995585 30.1406822,2.06828693 C29.2773174,2.02203525 28.7839661,2.0528697 28.7839661,2.14537308 C28.7839661,2.23787645 28.8764695,2.33037982 28.9843901,2.37663151 C29.0768934,2.40746597 29.5548275,2.57705548 30.0173444,2.746645 C30.4798612,2.93165174 31.3894777,3.36333415 32.0215841,3.73334764 C32.6536905,4.10336113 34.4575063,5.15173268 36.0300636,6.06134918 C37.6026209,6.98638291 38.8976681,7.75724434 38.9285026,7.7880788 C38.9439198,7.81891326 38.8514165,8.06558892 38.7280786,8.31226458 C38.6047408,8.57435747 38.4505685,8.77478144 38.3888996,8.77478144 C38.3118135,8.77478144 36.7700906,7.91141663 34.9508576,6.83221062 C33.1316246,5.76842183 31.3278088,4.72005028 30.9423781,4.50420908 C30.5569474,4.28836787 29.724417,3.93377161 29.0923107,3.71793041 C28.0901908,3.36333415 27.6739256,3.31708246 25.9317788,3.30166523 C24.2358836,3.30166523 23.7425323,3.36333415 22.7712469,3.67167872 C22.1391405,3.8721027 20.8132588,4.44254016 19.8419734,4.93589148 C18.7010985,5.5371634 17.7452303,5.90717689 17.1439584,6.01509749 C16.6351898,6.10760087 15.9414145,6.13843532 15.6022355,6.07676641 C15.2630565,6.03051472 14.6463673,5.86092521 14.2146849,5.73758738 C13.7984197,5.59883232 12.6421276,4.95130871 11.6708422,4.3037851 C10.6995568,3.64084427 9.77452303,2.93165174 9.63576797,2.70039331 C9.48159568,2.48455211 9.35825785,2.06828693 9.35825785,1.80619404 C9.34284062,1.52868393 9.48159568,1.11241875 9.6511852,0.881160319 C9.82077472,0.649901888 10.1445365,0.356974542 10.3912122,0.233636711 C10.6224706,0.12571611 11.254577,0.0177955089 11.79418,0.0023782802 L11.79418,0.0023782802 Z M10.6687223,1.99120079 C10.714974,2.08370416 11.4241665,2.62330717 12.2566969,3.20916186 C13.07381,3.81043378 14.0296782,4.38087125 14.3688572,4.50420908 C14.7080362,4.62754691 15.2938909,4.78171919 15.6793216,4.84338811 C16.1418385,4.91533518 16.6968587,4.86908349 17.3443823,4.70463305 C17.8685681,4.56587799 18.8398535,4.14961281 19.5027944,3.7641821 C20.150318,3.39416861 21.2141068,2.90081729 21.8462131,2.68497608 C22.4783195,2.46913488 23.1258431,2.29954536 23.2800154,2.29954536 C23.4187705,2.29954536 23.5421083,2.19162476 23.5421083,2.06828693 C23.5421083,1.9449491 23.5266911,1.8370285 23.5112738,1.8370285 C23.4804394,1.82161127 21.1061862,1.7291079 18.2231644,1.60577007 C15.3401426,1.48243224 12.4725381,1.37451164 11.8558489,1.37451164 C10.9924841,1.37451164 10.714974,1.42076333 10.6687223,1.60577007 C10.6224706,1.7291079 10.6224706,1.91411465 10.6687223,1.99120079 L10.6687223,1.99120079 Z" id="Path-0"></path>
        </g>
    </g>
</svg>