<?xml version="1.0" encoding="UTF-8"?><svg version="1.1" width="32px" height="36px" viewBox="0 0 32.0 36.0" xmlns="http://www.w3.org/2000/svg" xmlns:xlink="http://www.w3.org/1999/xlink"><defs><clipPath id="i0"><path d="M375,0 L375,1350 L0,1350 L0,0 L375,0 Z"></path></clipPath><clipPath id="i1"><path d="M8.99764927,0 C10.2394738,0 11.3925966,0.561375 12.1605966,1.540125 C12.9285966,2.518875 13.1991931,3.774375 12.9050177,4.984875 L12.7714037,5.533875 C11.5890879,10.389375 7.28087734,13.78125 2.29224576,13.78125 L1.12340365,13.78125 C0.778701898,13.78125 0.453087862,13.622625 0.239754529,13.3515 C0.0275440028,13.07925 -0.0499296814,12.724875 0.0320352309,12.389625 L2.83792997,0.858375 C2.96031593,0.3555 3.41168435,0 3.92929839,0 L8.99764927,0 Z M8.99764927,2.25 L4.8107019,2.25 L2.55385979,11.52675 C6.39161418,11.410875 9.67357909,8.760375 10.5886668,5.000625 L10.7222808,4.4505 C10.8525265,3.916125 10.7323861,3.362625 10.3944212,2.9295 C10.0553335,2.4975 9.5467019,2.25 8.99764927,2.25 Z"></path></clipPath><clipPath id="i2"><path d="M9.09185939,0 C9.60947343,0 10.059719,0.354375 10.1832278,0.858375 L12.9891225,12.389625 C13.0710875,12.726 12.9936138,13.07925 12.7814033,13.3515 C12.5669471,13.622625 12.2413331,13.78125 11.8966313,13.78125 L10.7277892,13.78125 C5.73915764,13.78125 1.43094711,10.389375 0.249754129,5.533875 L0.116140093,4.984875 C-0.178035345,3.774375 0.0925611461,2.518875 0.860561146,1.540125 C1.62856115,0.561375 2.78056115,0 4.02350851,0 L9.09185939,0 Z M8.20933308,2.25 L4.02350851,2.25 C3.47445588,2.25 2.9658243,2.498625 2.62673658,2.9295 C2.28764887,3.362625 2.16863132,3.916125 2.29775413,4.4505 L2.43136816,5.000625 C3.34533308,8.760375 6.6284208,11.410875 10.4661752,11.52675 L8.20933308,2.25 Z"></path></clipPath><clipPath id="i3"><path d="M19.0001404,0 L19.0001404,9.28125 C19.0001404,12.319875 17.5741754,15.0255 15.3611228,16.765875 C13.3894737,18.316125 12.2992281,20.728125 12.6899649,23.20875 L6.31017544,23.20875 C6.69417544,20.727 5.60842105,18.320625 3.64014035,16.777125 C1.42147368,15.03675 0,12.3255 0,9.280125 L0,0 L19.0001404,0 Z"></path></clipPath><clipPath id="i4"><path d="M18.1524211,0 C18.6206316,0 19.0001404,0.38025 19.0001404,0.849375 C19.0001404,1.3185 18.6206316,1.69875 18.1524211,1.69875 L0.847719298,1.69875 C0.379508772,1.69875 0,1.3185 0,0.849375 C0,0.38025 0.379508772,0 0.847719298,0 Z"></path></clipPath><clipPath id="i5"><path d="M18.1524211,0 C18.6206316,0 19.0001404,0.38025 19.0001404,0.849375 C19.0001404,1.3185 18.6206316,1.69875 18.1524211,1.69875 L0.847719298,1.69875 C0.379508772,1.69875 0,1.3185 0,0.849375 C0,0.38025 0.379508772,0 0.847719298,0 Z"></path></clipPath><clipPath id="i6"><path d="M16.4603509,0 L16.4603509,7.146 L0,7.146 L0,0 L16.4603509,0 Z"></path></clipPath><clipPath id="i7"><path d="M20.4620351,0 C21.0829474,0 21.5870877,0.505125 21.5859668,1.12725 L21.5793597,1.25 C21.5182288,1.81448 21.0404304,2.2545 20.4609123,2.2545 L1.12505263,2.2545 C0.504140351,2.2545 0,1.749375 0,1.12725 L0.00660709552,1.0045 C0.0677376998,0.44002 0.545534503,0 1.12505263,0 Z"></path></clipPath><clipPath id="i8"><path d="M5.59382456,0 C5.89810526,0 6.14287719,0.255375 6.12715789,0.563625 C6.1114386,0.85275 5.85319298,1.069875 5.56350877,1.069875 L4.65515789,1.069875 C4.39803509,1.069875 4.20491228,1.287 4.2082807,1.54575 L4.2082807,1.55925 C4.20491228,1.818 4.39691228,2.035125 4.65515789,2.035125 L7.90007018,2.035125 C8.20435088,2.035125 8.44912281,2.2905 8.43340351,2.59875 C8.41768421,2.887875 8.1594386,3.105 7.86975439,3.105 L5.61066667,3.105 C5.35017544,3.105 5.13796491,3.31875 5.13908772,3.580875 L5.13908772,3.619125 C5.13796491,3.86775 5.33894737,4.07025 5.58708772,4.07025 L6.63691228,4.07025 C6.94119298,4.07025 7.18596491,4.325625 7.17024561,4.633875 C7.15452632,4.923 6.8962807,5.140125 6.60659649,5.140125 L4.90329825,5.140125 C4.65964912,5.140125 4.46652632,5.344875 4.48112281,5.589 C4.48224561,5.60025 4.48224561,5.610375 4.48224561,5.621625 C4.48112281,5.87475 4.68210526,6.07725 4.92912281,6.07725 L6.05080702,6.07725 C6.34610526,6.07725 6.58526316,6.316875 6.58526316,6.61275 C6.58526316,6.908625 6.34610526,7.14825 6.05080702,7.14825 L0,7.146 L0,0 Z"></path></clipPath><clipPath id="i9"><path d="M18.9417544,0 L18.9417544,6.658875 C18.9417544,7.468875 18.2647018,8.12025 17.4472982,8.0775 C16.6804211,8.037 16.1055439,7.347375 16.1055439,6.577875 L16.1055439,5.286375 C16.1055439,4.600125 15.5295439,4.08825 14.8446316,4.096125 L14.8109474,4.096125 C14.1260351,4.08825 13.5500351,4.600125 13.5500351,5.286375 L13.5500351,10.54575 C13.5500351,11.35575 12.8729825,12.007125 12.0555789,11.964375 C11.2887018,11.923875 10.7138246,11.23425 10.7138246,10.46475 L10.7138246,6.705 C10.7138246,6.010875 10.146807,5.445 9.45291228,5.4495 L9.35410526,5.4495 C8.69501754,5.446125 8.15831579,5.9805 8.15831579,6.640875 L8.15831579,9.437625 C8.15831579,10.247625 7.48126316,10.899 6.66385965,10.85625 C5.89698246,10.81575 5.32210526,10.126125 5.32210526,9.356625 L5.32210526,5.947875 C5.32210526,5.29875 4.77754386,4.784625 4.13080702,4.824 C4.10273684,4.825125 4.07354386,4.82625 4.04435088,4.82625 L4.02863158,4.82625 C3.37291228,4.822875 2.83621053,5.35725 2.83621053,6.01425 L2.83621053,7.873875 C2.83621053,8.659125 2.20070175,9.29475 1.41810526,9.29475 C0.634385965,9.29475 0,8.658 0,7.873875 L0,0 L18.9417544,0 Z"></path></clipPath><clipPath id="i10"><path d="M1.40575439,0 C2.1821311,0 2.81150877,0.63060693 2.81150877,1.4085 C2.81150877,2.18639307 2.1821311,2.817 1.40575439,2.817 C0.629377677,2.817 0,2.18639307 0,1.4085 C0,0.63060693 0.629377677,0 1.40575439,0 Z"></path></clipPath><clipPath id="i11"><path d="M1.40575439,0 C2.1821311,0 2.81150877,0.63060693 2.81150877,1.4085 C2.81150877,2.18639307 2.1821311,2.817 1.40575439,2.817 C0.629377677,2.817 0,2.18639307 0,1.4085 C0,0.63060693 0.629377677,0 1.40575439,0 Z"></path></clipPath><clipPath id="i12"><path d="M5.28505263,0 L5.28505263,8.0325 L2.64196491,6.12675 L0,8.0325 L0,0 L5.28505263,0 Z"></path></clipPath><clipPath id="i13"><path d="M18.9406316,0 L18.9406316,1.03725 L0,1.03725 L0,0 L18.9406316,0 Z"></path></clipPath></defs><g transform="translate(-45.0 -350.0)"><g clip-path="url(#i0)"><g transform="translate(45.0 350.0)"><g transform="translate(0.0 4.21875)"><g transform="translate(18.9293682779155 0.0)"><g clip-path="url(#i1)"><polygon points="8.8817842e-16,0 13.0211578,0 13.0211578,13.78125 8.8817842e-16,13.78125 8.8817842e-16,0" stroke="none" fill="#F3AB3F"></polygon></g></g><g transform="translate(0.04947394160717522 0.0)"><g clip-path="url(#i2)"><polygon points="2.77555756e-17,0 13.0211578,0 13.0211578,13.78125 2.77555756e-17,13.78125 2.77555756e-17,0" stroke="none" fill="#F3AB3F"></polygon></g></g></g><g transform="translate(6.4993684210526315 2.2544999999999984)"><g clip-path="url(#i3)"><polygon points="0,0 19.0001404,0 19.0001404,23.20875 0,23.20875 0,0" stroke="none" fill="#FFCC5B"></polygon></g></g><g transform="translate(6.4993684210526315 25.455375)"><g clip-path="url(#i4)"><polygon points="0,0 19.0001404,0 19.0001404,1.69875 0,1.69875 0,0" stroke="none" fill="#F3AB3F"></polygon></g></g><g transform="translate(6.4993684210526315 34.30125)"><g clip-path="url(#i5)"><polygon points="0,0 19.0001404,0 19.0001404,1.69875 0,1.69875 0,0" stroke="none" fill="#6E7070"></polygon></g></g><g transform="translate(7.769263157894738 27.1575)"><g clip-path="url(#i6)"><polygon points="0,0 16.4603509,0 16.4603509,7.146 0,7.146 0,0" stroke="none" fill="#464646"></polygon></g></g><g transform="translate(5.2058947368421045 0.0)"><g clip-path="url(#i7)"><polygon points="0,0 21.5859686,0 21.5859686,2.2545 0,2.2545 0,0" stroke="none" fill="#E99D38"></polygon></g></g><g transform="translate(7.769263157894738 27.153)"><g clip-path="url(#i8)"><polygon points="0,0 8.43412056,0 8.43412056,7.14825 0,7.14825 0,0" stroke="none" fill="#3F3F3F"></polygon></g></g><g transform="translate(6.528561403508769 2.2544999999999984)"><g clip-path="url(#i9)"><polygon points="0,0 18.9417544,0 18.9417544,11.9663656 0,11.9663656 0,0" stroke="none" fill="#F8BC50"></polygon></g></g><g transform="translate(9.824561403508824 29.25)"><g transform="translate(9.514105263157893 0.06975000000000131)"><g clip-path="url(#i10)"><polygon points="0,0 2.81150877,0 2.81150877,2.817 0,2.817 0,0" stroke="none" fill="#FDBC4A"></polygon></g></g><g transform="translate(4.769122807017541 0.06975000000000131)"><g clip-path="url(#i10)"><polygon points="0,0 2.81150877,0 2.81150877,2.817 0,2.817 0,0" stroke="none" fill="#FDBC4A"></polygon></g></g><g transform="translate(0.024140350877192462 0.06975000000000131)"><g clip-path="url(#i11)"><polygon points="0,0 2.81150877,0 2.81150877,2.817 0,2.817 0,0" stroke="none" fill="#FDBC4A"></polygon></g></g></g><g transform="translate(9.361403508771929 2.2544999999999984)"><g clip-path="url(#i12)"><polygon points="0,0 5.28505263,0 5.28505263,8.0325 0,8.0325 0,0" stroke="none" fill="#E95353"></polygon></g></g><g transform="translate(6.526315789473529 2.25)"><g transform="translate(0.0022456140350879394 0.0)"><g clip-path="url(#i13)"><polygon points="0,0 18.9406316,0 18.9406316,1.03725 0,1.03725 0,0" stroke="none" fill="#010101" opacity="10%"></polygon></g></g></g></g></g></g></svg>