<?xml version="1.0" encoding="UTF-8"?>
<svg width="72px" height="64px" viewBox="0 0 72 64" version="1.1" xmlns="http://www.w3.org/2000/svg" xmlns:xlink="http://www.w3.org/1999/xlink">
    <!-- Generator: Sketch 54.1 (76490) - https://sketchapp.com -->
    <title>no-internet</title>
    <desc>Created with Sketch.</desc>
    <g id="Page-1" stroke="none" stroke-width="1" fill="none" fill-rule="evenodd">
        <g id="Error-Pages-No-Internet" transform="translate(-152.000000, -284.000000)" fill="#999999" fill-rule="nonzero">
            <path d="M223.155805,340.485674 C223.581471,341.191466 223.594063,342.075846 223.188756,342.793633 C222.783348,343.511421 222.019471,343.957294 221.195217,343.957294 L200.288846,343.957294 C199.464593,343.957294 198.700765,343.511421 198.295357,342.793683 C197.89005,342.075946 197.902643,341.191566 198.328258,340.485674 L208.781394,323.149923 C209.193271,322.466928 209.944507,322.042656 210.742032,322.042656 C211.539557,322.042656 212.290792,322.466928 212.70262,323.149873 L223.155805,340.485674 Z M221.744023,341.977792 C221.855615,341.78024 221.852131,341.536796 221.734914,341.34248 L211.281778,324.006679 C211.168394,323.818683 210.961584,323.701864 210.742081,323.701864 C210.522529,323.701864 210.315719,323.818683 210.202335,324.006679 L199.7491,341.34248 C199.631982,341.536747 199.628498,341.78024 199.74009,341.977842 C199.851633,342.175394 200.061928,342.298136 200.288846,342.298136 L221.195217,342.298136 C221.422136,342.298136 221.63243,342.175344 221.744023,341.977792 Z M210.749747,328.869027 C211.350118,328.869027 211.858059,329.207738 211.858059,329.808059 C211.858059,331.639882 211.642588,334.272118 211.642588,336.103891 C211.642588,336.581072 211.119217,336.781163 210.749796,336.781163 C210.257235,336.781163 209.841575,336.581072 209.841525,336.103891 C209.841525,334.272068 209.626054,331.639833 209.626054,329.808059 C209.626054,329.207688 210.118615,328.869027 210.749747,328.869027 Z M210.765226,337.843285 C211.396308,337.843285 211.935158,338.382036 211.935158,339.028597 C211.935158,339.659729 211.396357,340.21391 210.765226,340.21391 C210.087905,340.21391 209.579914,339.659729 209.579914,339.028597 C209.579914,338.382036 210.087955,337.843285 210.765226,337.843285 Z M215.999811,316.11064 C215.308126,316.037503 214.605811,316 213.894737,316 C211.605792,316 209.407611,316.388609 207.362572,317.103448 L200.520828,317.103448 C200.481002,318.597423 200.360805,320.07789 200.162608,321.539816 C199.066207,322.596641 198.091464,323.778821 197.261453,325.063284 C197.881733,322.47974 198.237689,319.81511 198.313931,317.103448 L185.103448,317.103448 L185.103448,328.179862 C188.506772,328.270425 191.845788,328.771788 195.066788,329.678579 C194.840975,330.374807 194.652707,331.087948 194.504372,331.815614 C191.464776,330.957069 188.31498,330.476584 185.103448,330.386759 L185.103448,345.082483 C188.948081,341.728206 192.038171,337.718716 194.262748,333.280924 C194.158822,334.10247 194.105263,334.939717 194.105263,335.789474 C194.105263,336.482459 194.140883,337.167125 194.210391,337.841741 C192.44085,340.627923 190.323032,343.211064 187.885241,345.531586 C190.59779,345.176587 193.196485,344.455883 195.630121,343.420401 C195.915572,344.102828 196.238154,344.765863 196.595342,345.406978 C193.048565,346.931062 189.172823,347.831718 185.106759,347.97131 L185.105655,347.972414 L184.484414,347.988966 C184.32331,347.994483 184.162207,348 184,348 C183.837793,348 183.67669,347.994483 183.514483,347.990069 L182.893241,347.973517 L182.892138,347.972414 C173.870345,347.663448 165.786483,343.606069 160.152276,337.307586 C160.13131,337.282207 160.102621,337.268966 160.082759,337.241379 C160.075034,337.231448 160.075034,337.220414 160.068414,337.210483 C155.054345,331.559724 152,324.13131 152,316 C152,307.539862 155.305931,299.842207 160.687448,294.11531 C160.688552,294.114207 160.688552,294.113103 160.688552,294.113103 C160.691862,294.106483 160.698483,294.104276 160.702897,294.098759 C166.30731,288.141241 174.159448,284.327724 182.893241,284.02869 L182.894345,284.027586 L183.515586,284.011034 C183.67669,284.005517 183.837793,284 184,284 C184.162207,284 184.32331,284.005517 184.484414,284.011034 L185.107862,284.027586 L185.108966,284.02869 C193.842759,284.327724 201.694897,288.141241 207.29931,294.098759 C207.302621,294.104276 207.309241,294.106483 207.313655,294.113103 C207.313655,294.113103 207.313655,294.114207 207.313655,294.114207 C212.694069,299.842207 216,307.539862 216,316 C216,316.036895 215.999937,316.073775 215.999811,316.11064 Z M154.234483,317.103448 C154.486069,323.955862 157.05931,330.224552 161.193931,335.142621 C164.005517,333.242483 167.005793,331.719724 170.144,330.584276 C168.517517,326.326069 167.603862,321.780966 167.479172,317.103448 L154.234483,317.103448 Z M161.796414,296.16331 C157.309793,301.178483 154.498207,307.716414 154.234483,314.896552 L167.479172,314.896552 C167.613793,309.864828 168.646621,304.978759 170.513655,300.446897 C167.464828,299.378759 164.541793,297.94869 161.796414,296.16331 Z M213.765517,314.896552 C213.501793,307.716414 210.690207,301.178483 206.203586,296.16331 C203.458207,297.94869 200.535172,299.378759 197.486345,300.446897 C199.353379,304.978759 200.386207,309.864828 200.520828,314.896552 L213.765517,314.896552 Z M182.896552,300.510897 L182.896552,286.917517 C178.944,290.365793 175.785931,294.507034 173.549241,299.095172 C176.574897,299.944828 179.706483,300.420414 182.896552,300.510897 Z M182.896552,302.717793 C179.38869,302.624 175.944828,302.092138 172.627862,301.131034 C170.828138,305.445517 169.821793,310.098759 169.686069,314.896552 L182.896552,314.896552 L182.896552,302.717793 Z M185.103448,302.717793 L185.103448,314.896552 L198.315034,314.896552 C198.17931,310.098759 197.172966,305.445517 195.373241,301.131034 C192.055172,302.093241 188.61131,302.624 185.103448,302.717793 Z M185.103448,300.510897 C188.293517,300.420414 191.425103,299.944828 194.450759,299.095172 C192.214069,294.507034 189.056,290.365793 185.103448,286.917517 L185.103448,300.510897 Z M196.589241,298.424276 C199.399724,297.454345 202.096552,296.15669 204.638897,294.543448 C200.161103,290.235586 194.347034,287.313655 187.885241,286.468414 C191.527724,289.936552 194.469517,293.982897 196.589241,298.424276 Z M171.410759,298.424276 C173.530483,293.982897 176.472276,289.936552 180.115862,286.468414 C173.654069,287.313655 167.838897,290.235586 163.362207,294.543448 C165.903448,296.15669 168.600276,297.454345 171.410759,298.424276 Z M169.686069,317.103448 C169.810759,321.538207 170.683586,325.847172 172.236138,329.880276 C175.672276,328.846345 179.247448,328.276966 182.896552,328.179862 L182.896552,317.103448 L169.686069,317.103448 Z M182.896552,330.386759 C179.543172,330.481655 176.257103,331.000276 173.093517,331.93269 C175.348966,336.907034 178.665931,341.391448 182.896552,345.082483 L182.896552,330.386759 Z M162.693517,336.795586 C167.252966,341.465379 173.327448,344.64331 180.114759,345.531586 C176.215172,341.818483 173.134345,337.434483 170.988138,332.623448 C168.083862,333.666207 165.304276,335.060966 162.693517,336.795586 Z" id="no-internet"></path>
        </g>
    </g>
</svg>