<?xml version="1.0" encoding="UTF-8"?>
<svg width="82px" height="69px" viewBox="0 0 82 69" version="1.1" xmlns="http://www.w3.org/2000/svg" xmlns:xlink="http://www.w3.org/1999/xlink">
    <title>667FB73D-D040-4BB7-857F-3A342D093DEA</title>
    <g id="Pick'em" stroke="none" stroke-width="1" fill="none" fill-rule="evenodd">
        <g id="5.1-Pickem" transform="translate(-262.000000, -815.000000)" fill-rule="nonzero">
            <g id="Group-10" transform="translate(20.000000, 386.000000)">
                <g id="Group-2" transform="translate(283.000000, 463.500000) rotate(-17.000000) translate(-283.000000, -463.500000) translate(248.000000, 439.000000)">
                    <path d="M16.2371134,9.98078844 L16.2371134,11.4259444 L6.49484536,11.4259444 C3.70495333,11.4259444 1.44329897,13.6905087 1.44329897,16.4839904 L1.44329897,42.4967981 C1.44329897,45.2902797 3.70495333,47.554844 6.49484536,47.554844 L63.5051546,47.554844 C66.2950467,47.554844 68.556701,45.2902797 68.556701,42.4967981 L68.556701,16.4839904 C68.556701,13.6905087 66.2950467,11.4259444 63.5051546,11.4259444 L53.0412371,11.4259444 L53.0412371,9.98078844 L63.5051546,9.98078844 C67.0921587,9.98078844 70,12.8923711 70,16.4839904 L70,42.4967981 C70,46.0884173 67.0921587,49 63.5051546,49 L6.49484536,49 C2.90784132,49 0,46.0884173 0,42.4967981 L0,16.4839904 C0,12.8923711 2.90784132,9.98078844 6.49484536,9.98078844 L16.2371134,9.98078844 Z" id="Path" fill="#EB4A3C"></path>
                    <path d="M35.3355362,0 L37.2599349,3.79159204 L41.419119,4.41316451 L38.3773276,7.39671235 L39.1222561,11.5612479 L35.3355362,9.57221598 L31.6108937,11.5612479 L32.3558222,7.39671235 L29.3140309,4.41316451 L33.473215,3.79159204 L35.3355362,0 Z M23.3860435,4.61759004 L24.3923276,6.63274778 L26.6061527,6.95517302 L24.9960981,8.48669291 L25.3583604,10.7033664 L23.3860435,9.6554844 L21.4137265,10.7033664 L21.7759888,8.48669291 L20.2061856,6.95517302 L22.4200107,6.63274778 L23.3860435,4.61759004 Z M48.3131392,6.63274778 L50.5269643,6.95517302 L48.957161,8.48669291 L49.3194233,10.7033664 L47.3471064,9.6554844 L45.3747895,10.7033664 L45.7370518,8.48669291 L44.1269972,6.95517302 L46.3408223,6.63274778 L47.3471064,4.61759004 L48.3131392,6.63274778 Z" id="Combined-Shape" fill="#EB4A3C"></path>
                    <path d="M9.15051546,16.4839904 C10.0838488,16.4839904 10.8151203,16.5803341 11.3443299,16.7730216 C11.8735395,16.965709 12.2512027,17.2980949 12.4773196,17.7701792 C12.7034364,18.2422635 12.8164948,18.902218 12.8164948,19.7500429 C12.8164948,20.5978677 12.7082474,21.2578223 12.4917526,21.7299066 C12.2752577,22.2019909 11.9216495,22.5319682 11.4309278,22.7198384 C10.9402062,22.9077087 10.2762887,23.0016439 9.43917526,23.0016439 C8.99656357,23.0016439 8.56357388,22.9823751 8.14020619,22.9438376 C7.71683849,22.9053001 7.32233677,22.8571283 6.95670103,22.799322 C6.59106529,22.7415158 6.27835052,22.6813009 6.0185567,22.6186775 C5.75876289,22.5560541 5.58075601,22.4958393 5.48453608,22.438033 L5.52783505,21.3397145 C6.09553265,21.3397145 6.68487973,21.3397145 7.29587629,21.3397145 C7.90687285,21.3397145 8.51065292,21.3397145 9.10721649,21.3397145 C9.49209622,21.3300801 9.79278351,21.2819082 10.0092784,21.1951989 C10.2257732,21.1084895 10.3797251,20.9495224 10.471134,20.7182974 C10.562543,20.4870724 10.6082474,20.1643209 10.6082474,19.7500429 C10.6082474,19.3261305 10.562543,18.9985618 10.471134,18.7673368 C10.3797251,18.5361119 10.2257732,18.3747361 10.0092784,18.2832096 C9.79278351,18.191683 9.49209622,18.1459197 9.10721649,18.1459197 C8.22199313,18.1459197 7.46185567,18.1507369 6.82680412,18.1603713 C6.19175258,18.1700057 5.76357388,18.1892744 5.54226804,18.2181775 L5.3257732,16.628506 C5.72989691,16.5803341 6.10996564,16.5466138 6.46597938,16.527345 C6.82199313,16.5080763 7.20927835,16.4960333 7.62783505,16.4912161 C8.04639175,16.486399 8.55395189,16.4839904 9.15051546,16.4839904 Z M7.53402062,16.628506 L7.53402062,26.6000823 L5.3257732,26.6000823 L5.3257732,16.628506 L7.53402062,16.628506 Z M16.2948454,16.5851513 C16.833677,16.5851513 17.3773196,16.5875599 17.9257732,16.5923771 C18.4742268,16.5971943 19.0130584,16.6092372 19.542268,16.628506 C20.0714777,16.6477747 20.5670103,16.681495 21.028866,16.7296669 L20.9278351,18.33379 L17.1030928,18.33379 C16.862543,18.33379 16.6821306,18.3964135 16.5618557,18.5216603 C16.4415808,18.6469072 16.3814433,18.8299602 16.3814433,19.0708196 L16.3814433,24.1577686 C16.3814433,24.398628 16.4415808,24.5816811 16.5618557,24.7069279 C16.6821306,24.8321748 16.862543,24.8947982 17.1030928,24.8947982 L20.9278351,24.8947982 L21.028866,26.4989213 C20.5670103,26.5374588 20.0714777,26.5687705 19.542268,26.5928565 C19.0130584,26.6169424 18.4742268,26.631394 17.9257732,26.6362112 C17.3773196,26.6410283 16.833677,26.6434369 16.2948454,26.6434369 C15.6597938,26.6434369 15.1474227,26.4579752 14.757732,26.0870519 C14.3680412,25.7161285 14.1731959,25.2320013 14.1731959,24.6346701 L14.1731959,18.5939181 C14.1731959,17.9869526 14.3680412,17.5004167 14.757732,17.1343106 C15.1474227,16.7682044 15.6597938,16.5851513 16.2948454,16.5851513 Z M14.4329897,20.631588 L20.3938144,20.631588 L20.3938144,22.1923565 L14.4329897,22.1923565 L14.4329897,20.631588 Z M26.4268041,16.4839904 C27.3024055,16.4839904 28.0120275,16.5731083 28.5556701,16.7513442 C29.0993127,16.9295801 29.4986254,17.2330629 29.7536082,17.6617925 C30.0085911,18.0905221 30.1360825,18.6854446 30.1360825,19.4465601 C30.1360825,19.90901 30.075945,20.3160623 29.9556701,20.6677169 C29.8353952,21.0193716 29.6357388,21.301177 29.356701,21.5131332 C29.0776632,21.7250894 28.6975945,21.8599706 28.2164948,21.9177769 L28.2164948,21.9900347 C28.3896907,22.0189378 28.5701031,22.0863784 28.757732,22.1923565 C28.9453608,22.2983346 29.1209622,22.4548932 29.2845361,22.6620322 C29.44811,22.8691712 29.5683849,23.1461595 29.6453608,23.4929969 L30.5113402,26.6000823 L28.1876289,26.6000823 L27.4226804,23.5652547 C27.3360825,23.237686 27.2085911,23.0112782 27.0402062,22.8860314 C26.8718213,22.7607845 26.638488,22.6981611 26.3402062,22.6981611 C25.6859107,22.6981611 25.1350515,22.6957525 24.6876289,22.6909353 C24.2402062,22.6861181 23.8649485,22.6788923 23.5618557,22.669258 C23.2587629,22.6596236 22.9869416,22.6499892 22.7463918,22.6403549 L22.7896907,21.0362317 L26.3835052,21.0362317 C26.7683849,21.0362317 27.0738832,20.9952856 27.3,20.9133935 C27.5261168,20.8315013 27.6848797,20.6845771 27.7762887,20.4726209 C27.8676976,20.2606647 27.9134021,19.9668163 27.9134021,19.5910757 C27.9134021,19.2057008 27.8676976,18.9094438 27.7762887,18.7023048 C27.6848797,18.4951658 27.5261168,18.3506502 27.3,18.268758 C27.0738832,18.1868658 26.7683849,18.1459197 26.3835052,18.1459197 C25.4790378,18.1459197 24.7140893,18.1507369 24.0886598,18.1603713 C23.4632302,18.1700057 23.0350515,18.1844572 22.8041237,18.203726 L22.5876289,16.628506 C22.9917526,16.5803341 23.3718213,16.5466138 23.7278351,16.527345 C24.0838488,16.5080763 24.4735395,16.4960333 24.8969072,16.4912161 C25.3202749,16.486399 25.8302405,16.4839904 26.4268041,16.4839904 Z M24.7670103,16.628506 L24.7670103,26.6000823 L22.5876289,26.6000823 L22.5876289,16.628506 L24.7670103,16.628506 Z M34.0474227,16.5851513 C34.5573883,16.5851513 35.0793814,16.5875599 35.6134021,16.5923771 C36.1474227,16.5971943 36.6718213,16.6116458 37.1865979,16.6357317 C37.7013746,16.6598177 38.1800687,16.6959466 38.6226804,16.7441184 L38.5072165,18.33379 L34.8989691,18.33379 C34.6391753,18.33379 34.4419244,18.3964135 34.3072165,18.5216603 C34.1725086,18.6469072 34.1051546,18.8299602 34.1051546,19.0708196 L34.1051546,26.6000823 L31.8969072,26.6000823 L31.8969072,18.6228212 C31.8969072,18.0062213 32.0941581,17.5124597 32.4886598,17.1415363 C32.8831615,16.770613 33.4027491,16.5851513 34.0474227,16.5851513 Z M32.156701,20.8050068 L37.9731959,20.8050068 L37.9731959,22.3657752 L32.156701,22.3657752 L32.156701,20.8050068 Z M42.014433,16.5851513 C42.5532646,16.5851513 43.0969072,16.5875599 43.6453608,16.5923771 C44.1938144,16.5971943 44.732646,16.6092372 45.2618557,16.628506 C45.7910653,16.6477747 46.2865979,16.681495 46.7484536,16.7296669 L46.6474227,18.33379 L42.8226804,18.33379 C42.5821306,18.33379 42.4017182,18.3964135 42.2814433,18.5216603 C42.1611684,18.6469072 42.1010309,18.8299602 42.1010309,19.0708196 L42.1010309,24.1577686 C42.1010309,24.398628 42.1611684,24.5816811 42.2814433,24.7069279 C42.4017182,24.8321748 42.5821306,24.8947982 42.8226804,24.8947982 L46.6474227,24.8947982 L46.7484536,26.4989213 C46.2865979,26.5374588 45.7910653,26.5687705 45.2618557,26.5928565 C44.732646,26.6169424 44.1938144,26.631394 43.6453608,26.6362112 C43.0969072,26.6410283 42.5532646,26.6434369 42.014433,26.6434369 C41.3793814,26.6434369 40.8670103,26.4579752 40.4773196,26.0870519 C40.0876289,25.7161285 39.8927835,25.2320013 39.8927835,24.6346701 L39.8927835,18.5939181 C39.8927835,17.9869526 40.0876289,17.5004167 40.4773196,17.1343106 C40.8670103,16.7682044 41.3793814,16.5851513 42.014433,16.5851513 Z M40.1525773,20.631588 L46.1134021,20.631588 L46.1134021,22.1923565 L40.1525773,22.1923565 L40.1525773,20.631588 Z M52.2041237,16.4550872 C52.6756014,16.4550872 53.0773196,16.4671302 53.4092784,16.4912161 C53.7412371,16.5153021 54.0467354,16.551431 54.3257732,16.5996028 C54.604811,16.6477747 54.8934708,16.7152153 55.1917526,16.8019247 L55.0185567,18.4204994 C54.7010309,18.4012306 54.4099656,18.3867791 54.1453608,18.3771447 C53.880756,18.3675103 53.5969072,18.3602846 53.2938144,18.3554674 C52.9907216,18.3506502 52.6274914,18.3482416 52.2041237,18.3482416 C51.7134021,18.3482416 51.3309278,18.4445853 51.056701,18.6372728 C50.7824742,18.8299602 50.5876289,19.1647547 50.4721649,19.6416562 C50.356701,20.1185577 50.2989691,20.7761036 50.2989691,21.6142941 C50.2989691,22.4524846 50.356701,23.1100306 50.4721649,23.586932 C50.5876289,24.0638335 50.7824742,24.398628 51.056701,24.5913154 C51.3309278,24.7840029 51.7134021,24.8803466 52.2041237,24.8803466 C52.8680412,24.8803466 53.4261168,24.8707123 53.8783505,24.8514435 C54.3305842,24.8321748 54.7780069,24.7984545 55.2206186,24.7502826 L55.4082474,26.3688573 C54.9463918,26.5133729 54.4749141,26.6169424 53.9938144,26.6795658 C53.5127148,26.7421893 52.9161512,26.773501 52.2041237,26.773501 C51.1745704,26.773501 50.3494845,26.607308 49.728866,26.2749222 C49.1082474,25.9425363 48.6608247,25.4006028 48.3865979,24.6491217 C48.1123711,23.8976406 47.9752577,22.8860314 47.9752577,21.6142941 C47.9752577,20.3425568 48.1123711,19.3309477 48.3865979,18.5794665 C48.6608247,17.8279854 49.1082474,17.2860519 49.728866,16.9536661 C50.3494845,16.6212802 51.1745704,16.4550872 52.2041237,16.4550872 Z M61.2391753,16.628506 L61.2391753,26.6000823 L59.0309278,26.6000823 L59.0309278,16.628506 L61.2391753,16.628506 Z M64.2412371,16.628506 L64.2412371,18.3626931 L56.043299,18.3626931 L56.043299,16.628506 L64.2412371,16.628506 Z M10.2214433,29.2707305 C10.8969072,29.2707305 11.6568041,29.3114357 12.501134,29.3928462 C13.3454639,29.4742566 14.1553952,29.6527334 14.9309278,29.9282765 L14.6870103,32.5396733 C14.1241237,32.5271487 13.4267698,32.5177551 12.5949485,32.5114928 C11.7631271,32.5052305 10.9406873,32.5020993 10.1276289,32.5020993 C9.88996564,32.5020993 9.69295533,32.5083616 9.53659794,32.5208863 C9.38024055,32.533411 9.25828179,32.5584604 9.17072165,32.5960344 C9.08316151,32.6336085 9.02061856,32.6837072 8.98309278,32.7463307 C8.94556701,32.8089541 8.92680412,32.8903645 8.92680412,32.990562 C8.92680412,33.1659076 9.00498282,33.3130727 9.16134021,33.4320572 C9.31769759,33.5510417 9.61477663,33.6982067 10.0525773,33.8735523 L12.3979381,34.8504778 C13.473677,35.3138911 14.2273196,35.8493214 14.658866,36.4567686 C15.0904124,37.0642159 15.3061856,37.8438775 15.3061856,38.7957536 C15.3061856,39.5221853 15.2186254,40.1390261 15.0435052,40.6462758 C14.8683849,41.1535256 14.5775601,41.5605779 14.1710309,41.8674326 C13.7645017,42.1742874 13.2235052,42.3997318 12.5480412,42.5437656 C11.8725773,42.6877995 11.0282474,42.7598165 10.0150515,42.7598165 C9.57725086,42.7598165 8.91429553,42.7253736 8.02618557,42.6564878 C7.1380756,42.587602 6.13113402,42.4091253 5.00536082,42.1210575 L5.24927835,39.2654293 C5.99979381,39.277954 6.68776632,39.2936098 7.31319588,39.3123969 C7.93862543,39.3311839 8.47962199,39.3437086 8.93618557,39.3499709 C9.39274914,39.3562333 9.73360825,39.3593644 9.95876289,39.3593644 C10.3090034,39.3593644 10.574811,39.3468397 10.7561856,39.3217904 C10.9375601,39.296741 11.062646,39.2497734 11.1314433,39.1808877 C11.2002405,39.1120019 11.2346392,39.0211979 11.2346392,38.9084758 C11.2346392,38.7832289 11.209622,38.6799003 11.1595876,38.5984898 C11.1095533,38.5170794 11.0219931,38.4388001 10.8969072,38.363652 C10.7718213,38.2885038 10.5904467,38.2070934 10.3527835,38.1194206 L7.78226804,36.9921989 C6.73154639,36.5162609 5.98728522,35.9839618 5.54948454,35.3953016 C5.11168385,34.8066414 4.89278351,34.0363732 4.89278351,33.0844972 C4.89278351,32.3455407 4.98972509,31.7318311 5.18360825,31.2433684 C5.37749141,30.7549057 5.68082474,30.3666405 6.09360825,30.0785727 C6.50639175,29.7905049 7.05364261,29.5838476 7.73536082,29.4586008 C8.41707904,29.3333539 9.2457732,29.2707305 10.2214433,29.2707305 Z M22.2484536,29.3083046 C22.9239175,29.3083046 23.4993127,29.3270916 23.9746392,29.3646656 C24.4499656,29.4022397 24.8846392,29.4554696 25.2786598,29.5243554 C25.6726804,29.5932412 26.0823368,29.6903075 26.5076289,29.8155543 L26.2074227,32.7839047 C25.769622,32.77138 25.3630928,32.7651177 24.9878351,32.7651177 C24.6125773,32.7651177 24.2123024,32.7619865 23.7870103,32.7557242 C23.3617182,32.7494618 22.848866,32.7463307 22.2484536,32.7463307 C21.8231615,32.7463307 21.494811,32.8371346 21.2634021,33.0187426 C21.0319931,33.2003505 20.8725086,33.5259923 20.7849485,33.995668 C20.6973883,34.4653437 20.6536082,35.1385455 20.6536082,36.0152735 C20.6536082,36.8920014 20.6973883,37.5652033 20.7849485,38.034879 C20.8725086,38.5045547 21.0319931,38.8301965 21.2634021,39.0118044 C21.494811,39.1934124 21.8231615,39.2842163 22.2484536,39.2842163 C23.1865979,39.2842163 23.971512,39.2748228 24.6031959,39.2560358 C25.2348797,39.2372488 25.8634364,39.1965435 26.488866,39.1339201 L26.7890722,42.1022705 C26.1386254,42.3277148 25.472543,42.4874046 24.7908247,42.5813397 C24.1091065,42.6752748 23.2616495,42.7222424 22.2484536,42.7222424 C20.8224742,42.7222424 19.6779381,42.5061916 18.8148454,42.0740899 C17.9517526,41.6419883 17.3294502,40.9374748 16.9479381,39.9605493 C16.5664261,38.9836239 16.3756701,37.6685319 16.3756701,36.0152735 C16.3756701,34.362015 16.5664261,33.0469231 16.9479381,32.0699976 C17.3294502,31.0930722 17.9517526,30.3885587 18.8148454,29.956457 C19.6779381,29.5243554 20.8224742,29.3083046 22.2484536,29.3083046 Z M33.7501031,29.2707305 C34.8633677,29.2707305 35.8046392,29.3740592 36.5739175,29.5807165 C37.3431959,29.7873738 37.9654983,30.1411961 38.4408247,30.6421835 C38.9161512,31.1431709 39.2601375,31.8288975 39.4727835,32.6993631 C39.6854296,33.5698287 39.7917526,34.6751322 39.7917526,36.0152735 C39.7917526,37.3428901 39.6854296,38.4450624 39.4727835,39.3217904 C39.2601375,40.1985183 38.9161512,40.887376 38.4408247,41.3883634 C37.9654983,41.8893508 37.3431959,42.2431732 36.5739175,42.4498305 C35.8046392,42.6564878 34.8633677,42.7598165 33.7501031,42.7598165 C32.6493471,42.7598165 31.7143299,42.6564878 30.9450515,42.4498305 C30.1757732,42.2431732 29.5534708,41.8893508 29.0781443,41.3883634 C28.6028179,40.887376 28.2588316,40.1985183 28.0461856,39.3217904 C27.8335395,38.4450624 27.7272165,37.3428901 27.7272165,36.0152735 C27.7272165,34.6751322 27.8335395,33.5698287 28.0461856,32.6993631 C28.2588316,31.8288975 28.6028179,31.1431709 29.0781443,30.6421835 C29.5534708,30.1411961 30.1757732,29.7873738 30.9450515,29.5807165 C31.7143299,29.3740592 32.6493471,29.2707305 33.7501031,29.2707305 Z M33.7501031,32.295442 C33.2872852,32.295442 32.9307904,32.3956395 32.6806186,32.5960344 C32.4304467,32.7964294 32.2553265,33.1659076 32.1552577,33.7044691 C32.055189,34.2430305 32.0051546,35.0132987 32.0051546,36.0152735 C32.0051546,37.0172483 32.055189,37.7875164 32.1552577,38.3260779 C32.2553265,38.8646394 32.4304467,39.2341176 32.6806186,39.4345125 C32.9307904,39.6349075 33.2872852,39.735105 33.7501031,39.735105 C34.212921,39.735105 34.5694158,39.6349075 34.8195876,39.4345125 C35.0697595,39.2341176 35.2448797,38.8646394 35.3449485,38.3260779 C35.4450172,37.7875164 35.4950515,37.0172483 35.4950515,36.0152735 C35.4950515,35.0132987 35.4450172,34.2430305 35.3449485,33.7044691 C35.2448797,33.1659076 35.0697595,32.7964294 34.8195876,32.5960344 C34.5694158,32.3956395 34.212921,32.295442 33.7501031,32.295442 Z M46.8653608,29.3458786 C48.1412371,29.3458786 49.1794502,29.4648631 49.98,29.7028321 C50.7805498,29.9408012 51.3715808,30.3447223 51.7530928,30.9145954 C52.1346048,31.4844686 52.3253608,32.276655 52.3253608,33.2911545 C52.3253608,33.8046665 52.2471821,34.2837358 52.0908247,34.7283621 C51.9344674,35.1729884 51.6655326,35.5393354 51.2840206,35.8274032 C50.9025086,36.115471 50.3740206,36.2970789 49.6985567,36.372227 L49.6985567,36.4849492 C49.9362199,36.5099986 50.1989003,36.5820155 50.4865979,36.701 C50.7742955,36.8199845 51.0432302,37.0203795 51.2934021,37.3021849 C51.5435739,37.5839903 51.7186942,37.9879114 51.8187629,38.5139482 L52.8319588,42.4967981 L48.5727835,42.4967981 L47.7284536,38.6454574 C47.6534021,38.2822415 47.5376976,38.0442725 47.3813402,37.9315503 C47.2249828,37.8188282 46.9716838,37.7624671 46.6214433,37.7624671 C45.683299,37.7499424 44.9171478,37.74368 44.3229897,37.74368 C43.7288316,37.74368 43.2253608,37.7374177 42.8125773,37.724893 C42.3997938,37.7123683 41.9870103,37.6935813 41.5742268,37.6685319 L41.6305155,34.8880518 L46.7715464,34.8880518 C47.1593127,34.8880518 47.4595189,34.8504778 47.6721649,34.7753297 C47.884811,34.7001815 48.0317869,34.5655412 48.1130928,34.3714086 C48.1943986,34.1772759 48.2350515,33.904864 48.2350515,33.5541728 C48.2350515,33.190957 48.1943986,32.9154139 48.1130928,32.7275436 C48.0317869,32.5396733 47.884811,32.4081642 47.6721649,32.333016 C47.4595189,32.2578679 47.1593127,32.2202939 46.7715464,32.2202939 C45.4706529,32.2202939 44.3761512,32.2265562 43.4880412,32.2390809 C42.5999313,32.2516056 41.9932646,32.276655 41.6680412,32.314229 L41.3678351,29.5337489 C41.9432302,29.4711255 42.4842268,29.4272891 42.9908247,29.4022397 C43.4974227,29.3771903 44.054055,29.3615345 44.6607216,29.3552721 C45.2673883,29.3490098 46.002268,29.3458786 46.8653608,29.3458786 Z M45.3643299,29.5337489 L45.3643299,42.4967981 L41.3678351,42.4967981 L41.3678351,29.5337489 L45.3643299,29.5337489 Z M56.9973196,29.4586008 C57.7478351,29.4586008 58.5202405,29.461732 59.3145361,29.4679943 C60.1088316,29.4742566 60.8874914,29.4930437 61.6505155,29.5243554 C62.4135395,29.5556671 63.1077663,29.6151594 63.7331959,29.7028321 L63.545567,32.5772474 L58.7985567,32.5772474 C58.5608935,32.5772474 58.3732646,32.6398708 58.2356701,32.7651177 C58.0980756,32.8903645 58.0292784,33.0531854 58.0292784,33.2535804 L58.0292784,38.7769666 C58.0292784,38.9773615 58.0980756,39.1401824 58.2356701,39.2654293 C58.3732646,39.3906761 58.5608935,39.4532996 58.7985567,39.4532996 L63.545567,39.4532996 L63.7331959,42.3277148 C63.1077663,42.4028629 62.4135395,42.459224 61.6505155,42.4967981 C60.8874914,42.5343721 60.1088316,42.5562903 59.3145361,42.5625527 C58.5202405,42.568815 57.7478351,42.5719462 56.9973196,42.5719462 C56.1092096,42.5719462 55.3805842,42.2995343 54.8114433,41.7547105 C54.2423024,41.2098867 53.957732,40.4991108 53.957732,39.6223828 L53.957732,32.4081642 C53.957732,31.5314362 54.2423024,30.8206603 54.8114433,30.2758365 C55.3805842,29.7310127 56.1092096,29.4586008 56.9973196,29.4586008 Z M54.2954639,34.5123113 L62.8701031,34.5123113 L62.8701031,37.2176433 L54.2954639,37.2176433 L54.2954639,34.5123113 Z" id="Combined-Shape" fill="#282E48"></path>
                </g>
            </g>
        </g>
    </g>
</svg>