<?xml version="1.0" encoding="UTF-8"?>
<svg width="18px" height="18px" viewBox="0 0 18 18" version="1.1" xmlns="http://www.w3.org/2000/svg" xmlns:xlink="http://www.w3.org/1999/xlink">
    <title>61F48E2E-9C41-42BA-9CFB-F3C4333E0A6F</title>
    <g id="desktop" stroke="none" stroke-width="1" fill="none" fill-rule="evenodd">
        <g id="1_OT_Home1" transform="translate(-16, -264)">
            <g id="Group-21" transform="translate(15, 263)">
                <g id="Icon" transform="translate(1, 0.9999)">
                    <path d="M9.00087773,0.00326926937 C13.7231881,0.00422764218 16.7228955,0.00313788573 18,0 C16.3192334,9.78042158 10.3192334,15.7804216 0,18 L0,9.00439453 C-0.000621497082,4.03383182 4.02831184,0.00389072163 8.99887455,0.00326915418 C8.99954228,0.00326907068 9.00021,0.00326906149 9.00087773,0.00326926937 Z" id="Rectangle" fill="#5853C3"></path>
                    <g id="149831" transform="translate(2.3333, 3.1667)" fill="#FFFFFF" fill-rule="nonzero">
                        <path d="M7.99687585,3.21393749 C7.98660326,3.1642886 7.95200879,3.12293968 7.90487573,3.10422703 C7.4891379,2.93868042 7.04832287,2.85477531 6.5946671,2.85477531 C5.88752002,2.85477531 5.34186413,3.05669086 5.13112493,3.14783958 L2.88339125,1.23748911 C2.96194637,0.548139161 2.58971599,0.0767010636 2.57309856,0.0561775101 C2.54605747,0.0228267356 2.50632672,0.00245409052 2.46357461,0 C2.42097356,-0.000865896086 2.37882573,0.0137722267 2.34861222,0.0441048315 L0.0442282214,2.34606282 C0.0137125817,2.37639542 -0.00230057579,2.41834798 0.000267572101,2.4615078 C0.00268465247,2.50436581 0.0233809032,2.54435656 0.0570689608,2.57106736 C0.386547229,2.83213904 0.788688976,2.88706972 1.06786176,2.88706972 C1.13010158,2.88706972 1.18327735,2.88420246 1.22391451,2.88103338 L3.14579554,5.13771882 C3.01466893,5.47424474 2.61403786,6.68754893 3.09941781,7.90492766 C3.11815018,7.95216201 3.15939162,7.98656915 3.2092439,7.99683092 C3.21936542,7.99894364 3.22963802,8 3.23975954,8 C3.2794903,8 3.31801252,7.98430552 3.34656428,7.95578381 L5.54761809,5.75704723 L7.59760438,7.80487533 C7.62706255,7.83430249 7.66573584,7.84909152 7.70440912,7.84909152 C7.74308241,7.84909152 7.78175569,7.83430249 7.81121386,7.80487533 C7.87028126,7.74587012 7.87028126,7.65049596 7.81121386,7.59149074 L5.76122757,5.54366264 L7.95578548,3.35126421 C7.99173955,3.31534799 8.00714844,3.26373729 7.99687585,3.21393749 Z" id="Path"></path>
                    </g>
                </g>
            </g>
        </g>
    </g>
</svg>