<?xml version="1.0" encoding="UTF-8"?>
<svg width="11px" height="15px" viewBox="0 0 11 15" version="1.1" xmlns="http://www.w3.org/2000/svg" xmlns:xlink="http://www.w3.org/1999/xlink">
    <title>FC48B382-29B4-4CBA-8C3C-0C3F0E8EB0AA@2x</title>
    <defs>
        <radialGradient cx="51.3860024%" cy="45.0177757%" fx="51.3860024%" fy="45.0177757%" r="112.396619%" gradientTransform="translate(0.513860,0.450178),scale(1.000000,0.685862),rotate(88.975455),translate(-0.513860,-0.450178)" id="radialGradient-1">
            <stop stop-color="#FEF8C9" offset="0%"></stop>
            <stop stop-color="#FEEA00" offset="100%"></stop>
        </radialGradient>
    </defs>
    <g id="Page-1" stroke="none" stroke-width="1" fill="none" fill-rule="evenodd">
        <g id="5.1-DFS-tournament-game-white" transform="translate(-215.000000, -284.000000)" fill="url(#radialGradient-1)" stroke="#FFBB00" stroke-width="0.77">
            <g id="Group-4" transform="translate(46.000000, 278.000000)">
                <g id="Combined-Shape-2" transform="translate(170.000000, 7.000000)">
                    <path d="M5.16332476,8.39273766 L6.8529824,8.64018146 L6.8529824,12.9329506 L4.2249086,11.6662582 L1.5968348,12.9329506 L1.5968348,8.64018146 L3.28649244,8.39273766 L4.2249086,9.02479092 L5.16332476,8.39273766 Z M4.22491164,-0.464184726 L5.17290953,0.174335375 L6.30661788,0.00831312409 L6.8804772,0.993982378 L7.97437844,1.33253044 L8.06454228,2.46831211 L8.90416527,3.24576975 L8.48735484,4.30841469 L8.90416363,5.37105544 L8.06456676,6.14851374 L7.97440264,7.28429893 L6.8804971,7.62284833 L6.30660852,8.60852183 L5.17293025,8.4424734 L4.22491005,9.08101712 L3.27690767,8.442494 L2.14320495,8.60851543 L1.5693201,7.62284833 L0.475414559,7.28429893 L0.38525044,6.14851374 L-0.454341904,5.37105963 L-0.0375582905,4.30841469 L-0.454341904,3.24576974 L0.38525044,2.46831564 L0.475414559,1.33253044 L1.5693201,0.993981048 L2.14320543,0.00831312733 L3.27688696,0.174335376 L4.22491164,-0.464184726 Z" id="Combined-Shape"></path>
                </g>
            </g>
        </g>
    </g>
</svg>