<?xml version="1.0" encoding="UTF-8"?>
<svg width="83px" height="73px" viewBox="0 0 83 73" version="1.1" xmlns="http://www.w3.org/2000/svg" xmlns:xlink="http://www.w3.org/1999/xlink">
    <title>RED_BULL_RING</title>
    <g id="new-relase" stroke="none" stroke-width="1" fill="none" fill-rule="evenodd">
        <path d="M79.73232,0.422695574 L77.9035339,0.817654285 C72.485611,2.00675998 67.7212383,3.22896782 64.626504,4.3502514 L64.2895672,4.47441633 C59.2460617,6.36605657 49.704328,6.90965835 37.3441026,6.34777716 C34.7267468,6.22877291 31.7718315,6.30379517 28.5528299,6.54449811 L27.7874597,6.60446153 C23.9269171,6.92054236 19.9565673,7.44188226 16.1421807,8.07284622 L14.7456471,8.31035212 C14.3063381,8.38715907 13.8901678,8.46198166 13.4988868,8.53416645 L12.1783547,8.7868143 C9.46211302,9.26924223 6.90559757,19.1849957 3.92499501,36.695693 C3.7221111,37.8876126 3.52147664,39.0985369 3.32458174,40.3164242 L2.88850739,43.0633412 L2.30844933,46.8765801 C0.909795673,56.3029303 -0.0956137879,64.8304472 0.00723099044,66.6812282 C0.151541366,69.2782187 3.13679001,70.9953417 7.77104443,72.0468328 C11.3043766,72.8485297 15.4760705,73.1123269 17.2173049,72.6768683 C19.0182411,72.2266343 21.7440938,66.9345781 26.9743789,55.1252082 L27.6444511,53.6068914 L32.734193,41.9301915 C34.1531844,38.7015413 35.0873664,36.6701523 35.6884685,35.5375875 L35.7590117,35.405975 C37.4972685,32.1964177 37.0321878,29.6170586 34.8198725,25.1201434 L34.2070932,23.8857857 C33.0510714,21.5296627 32.7346906,20.6048235 32.7346906,19.4447455 C32.7346906,15.8917963 47.9785111,13.8780429 53.4546093,17.3829992 C56.0498738,19.0442431 54.8641412,22.5538069 49.9577381,29.5387705 L48.9614311,30.939176 L47.4562336,33.0314802 C45.7775563,35.3723055 44.7665197,36.866432 43.9349098,38.2985961 C41.7842089,42.0029376 42.0452006,46.3856367 44.0939532,50.3312023 C45.8872733,53.7848465 48.7682515,56.2603109 50.8493049,55.7398683 C52.4759739,55.3337613 56.9481766,48.854436 64.7387486,36.4348566 L65.8001216,34.73788 L67.6919257,31.6908057 C69.6005799,28.60325 71.553849,25.4048157 73.4983175,22.1905917 L75.9361803,18.144948 L78.3239064,14.1476757 L78.3872598,14.0211774 L82.5985303,3.87752522 C83.3805196,1.99019241 81.7317685,-0.00328107188 79.73232,0.422695574 Z M80.750851,3.11196579 L76.5666906,13.1887455 L74.2212624,17.1158433 C73.7544374,17.8936671 73.2653839,18.7066352 72.7569253,19.5497226 C69.8516194,24.3670805 66.9067073,29.184307 64.1031241,33.6794852 L62.2909117,36.570787 C59.5589594,40.9066382 57.1726136,44.5842554 55.2207656,47.4461816 L54.6992829,48.2063649 C52.3850984,51.5591544 50.6244173,53.734627 50.3644695,53.7995244 C49.4827152,54.0200389 47.2803127,52.1276369 45.8689281,49.4095387 C44.1118799,46.0257484 43.8932077,42.3536986 45.6645006,39.3028449 L45.9210446,38.86909 C46.5811665,37.7726973 47.392199,36.5699644 48.5835993,34.8941626 L50.9646917,31.5766065 L51.3402525,31.0485269 C53.9424171,27.3751399 55.4292335,24.9106098 56.2227022,22.6610209 C57.3010459,19.6037741 56.8609707,17.1887853 54.5328075,15.6985146 C47.960114,11.4916864 30.7346906,13.7672154 30.7346906,19.4447455 C30.7346906,21.0105272 31.0935673,22.0800405 32.3868832,24.7169581 L32.8533869,25.6568135 C34.8857995,29.7143039 35.3459906,31.8004499 34.1135134,34.2375114 L33.7766016,34.8782059 C33.2246396,35.951192 32.4592107,37.6075013 31.3835157,40.036582 L26.4788279,51.2853508 L25.5912433,53.3068898 L24.6265693,55.4838014 C22.8407298,59.4903444 21.3656672,62.6581304 20.1127076,65.1394652 L19.7606862,65.8298707 C18.2287833,68.803955 16.9873712,70.6727989 16.732155,70.736603 C12.8306691,71.7123105 2.1552879,69.2901153 2.00415029,66.5702628 L1.99805654,66.3784003 C1.9754264,64.0952039 3.17861656,54.3136909 4.73313254,44.2240539 L5.01551156,42.412732 L5.23156521,41.0554495 L5.37737116,40.1533305 C5.54823605,39.1026952 5.72165833,38.0592733 5.89663626,37.031298 L6.28719056,34.7739215 C7.37349382,28.5983325 8.4691203,23.2312469 9.50918997,19.1141473 L9.6337275,18.6261236 C10.8729781,13.8195408 12.1207022,10.8280885 12.5526722,10.7513172 L13.4852342,10.5710626 L14.6651358,10.3554268 C15.0825254,10.281137 15.5233505,10.2046646 15.9856504,10.1266961 L16.4701277,10.0457751 C20.2327846,9.42336934 24.1507432,8.90890884 27.9471775,8.59807082 L28.7055119,8.53865847 C31.8467287,8.30377829 34.7241848,8.23072264 37.2532702,8.34571346 L38.6192047,8.40384053 C50.3565024,8.86853573 59.4572218,8.31370366 64.6940386,6.45569543 L64.9918671,6.3470548 C68.2757703,5.1155911 73.8744423,3.71281908 80.1486489,2.37888321 C80.5698223,2.28915354 80.9175646,2.70960214 80.750851,3.11196579 Z" id="RED_BULL_RING" fill="#999999" fill-rule="nonzero"></path>
    </g>
</svg>