<?xml version="1.0" encoding="UTF-8"?>
<svg width="48px" height="60px" viewBox="0 0 48 60" version="1.1" xmlns="http://www.w3.org/2000/svg" xmlns:xlink="http://www.w3.org/1999/xlink">
    <title>1AA60988-0B71-452E-9A77-38BF7AA4C56A</title>
    <g id="Tournaments" stroke="none" stroke-width="1" fill="none" fill-rule="evenodd">
        <g id="3.0-27-Pickem-Redeem-offers" transform="translate(-75.000000, -680.000000)" fill="#FFFFFF" fill-rule="nonzero">
            <g id="lock-(2)" transform="translate(75.000000, 680.000000)">
                <path d="M39,21 L39,15 C39,6.6 32.4,0 24,0 C15.6,0 9,6.6 9,15 L9,21 C3.9,21 0,24.9 0,30 L0,51 C0,56.1 3.9,60 9,60 L39,60 C44.1,60 48,56.1 48,51 L48,30 C48,24.9 44.1,21 39,21 Z M15,15 C15,9.9 18.9,6 24,6 C29.1,6 33,9.9 33,15 L33,21 L15,21 L15,15 Z M27,45 C27,46.8 25.8,48 24,48 C22.2,48 21,46.8 21,45 L21,36 C21,34.2 22.2,33 24,33 C25.8,33 27,34.2 27,36 L27,45 Z" id="Shape"></path>
            </g>
        </g>
    </g>
</svg>