<?xml version="1.0" encoding="UTF-8"?>
<svg width="24px" height="16px" viewBox="0 0 24 16" version="1.1" xmlns="http://www.w3.org/2000/svg" xmlns:xlink="http://www.w3.org/1999/xlink">
    <title>0C175C7D-9ADD-4594-AC54-CE9A2AE4B385</title>
    <g id="Page-1" stroke="none" stroke-width="1" fill="none" fill-rule="evenodd">
        <g id="01--Guru-2.8---Generate---Player-List---excluded" transform="translate(-318.000000, -213.000000)" fill="#999999" fill-rule="nonzero">
            <g id="Group-5" transform="translate(0.000000, 155.000000)">
                <g id="List-/-Player-roaster" transform="translate(0.000000, 30.000000)">
                    <g id="icon/unlock-ic" transform="translate(318.000000, 24.000000)">
                        <g id="1453" transform="translate(0.000000, 4.615385)">
                            <path d="M9.72082652,0.0385025818 C9.45030954,-0.0400111223 9.13579845,0.00411228166 8.92706043,0.147513345 L0.213418242,4.89272589 C-0.0711394141,5.08868571 -0.0711394141,5.40987814 0.213418242,5.60648684 L8.92706043,10.3289888 C9.06559508,10.4263198 9.25280406,10.4775809 9.44094909,10.4775809 C9.53642567,10.4775809 9.63096621,10.4639545 9.72082652,10.4392973 C9.99321559,10.3607836 10.1560874,10.1771524 10.1560874,9.97275721 L10.1560874,7.14431724 C19.4744146,7.14431724 23.5499542,8.96635427 22.9293564,14.7692308 C26.8766579,5.48514748 19.3003103,3.38669029 10.1560874,3.38669029 L10.1560874,0.504393818 C10.1551514,0.299998638 9.99321559,0.116367412 9.72082652,0.0385025818 Z" id="Path"></path>
                        </g>
                    </g>
                </g>
            </g>
        </g>
    </g>
</svg>