<?xml version="1.0" encoding="UTF-8"?>
<svg width="16px" height="16px" viewBox="0 0 16 16" version="1.1" xmlns="http://www.w3.org/2000/svg" xmlns:xlink="http://www.w3.org/1999/xlink">
    <title>B15D1C2C-6B69-4EFE-AD1B-1DE77002424B</title>
    <g id="desktop" stroke="none" stroke-width="1" fill="none" fill-rule="evenodd">
        <g id="8_OT_Question_Myjoined" transform="translate(-329, -153)">
            <g id="Card-Copy-2" transform="translate(15, 138)">
                <g id="Group-15" transform="translate(15, 15)">
                    <g id="icon/share" transform="translate(299, 0)">
                        <path d="M11,10 C10.3261336,9.99978386 9.68087861,10.2723601 9.21125,10.755625 L6.33,8.90375 C6.55664195,8.32256393 6.55664195,7.67743607 6.33,7.09625 L9.21125,5.244375 C10.1077903,6.16274927 11.5541057,6.25305725 12.5579235,5.4533414 C13.5617414,4.65362554 13.7969307,3.22370602 13.1021352,2.14460685 C12.4073398,1.06550769 11.0082921,0.687818059 9.86483599,1.27065926 C8.72137989,1.85350046 8.2050135,3.20751286 8.67,4.40375 L5.78875,6.255625 C5.07904033,5.52700531 3.99864417,5.30100502 3.05639076,5.68406245 C2.11413736,6.06711988 1.49789661,6.98285966 1.49789661,8 C1.49789661,9.01714034 2.11413736,9.93288012 3.05639076,10.3159376 C3.99864417,10.698995 5.07904033,10.4729947 5.78875,9.744375 L8.67,11.59625 C8.27379633,12.6181292 8.58938059,13.7789221 9.44843963,14.4595336 C10.3074987,15.1401451 11.5097023,15.1818584 12.4138695,14.5624263 C13.3180367,13.9429942 13.7133181,12.8068664 13.3888951,11.7599834 C13.0644721,10.7131003 12.0959992,9.99959214 11,10 Z M11,2 C11.8284271,2 12.5,2.67157288 12.5,3.5 C12.5,4.32842712 11.8284271,5 11,5 C10.1715729,5 9.5,4.32842712 9.5,3.5 C9.5,2.67157288 10.1715729,2 11,2 Z M4,9.5 C3.17157288,9.5 2.5,8.82842712 2.5,8 C2.5,7.17157288 3.17157288,6.5 4,6.5 C4.82842712,6.5 5.5,7.17157288 5.5,8 C5.5,8.82842712 4.82842712,9.5 4,9.5 Z M11,14 C10.3933066,14 9.8463522,13.6345367 9.6141807,13.0740251 C9.3820092,12.5135136 9.51034283,11.8683368 9.93933983,11.4393398 C10.3683368,11.0103428 11.0135136,10.8820092 11.5740251,11.1141807 C12.1345367,11.3463522 12.5,11.8933066 12.5,12.5 C12.5,13.3284271 11.8284271,14 11,14 L11,14 Z" id="Shape" fill="#5853C3" fill-rule="nonzero"></path>
                        <rect id="Rectangle" x="0" y="0" width="16" height="16"></rect>
                    </g>
                </g>
            </g>
        </g>
    </g>
</svg>