<?xml version="1.0" encoding="UTF-8"?>
<svg width="80px" height="49px" viewBox="0 0 80 49" version="1.1" xmlns="http://www.w3.org/2000/svg" xmlns:xlink="http://www.w3.org/1999/xlink">
    <title>SILVERSTONE_CIRCUIT</title>
    <g id="new-relase" stroke="none" stroke-width="1" fill="none" fill-rule="evenodd">
        <path d="M55.759142,3.78495347 C54.9100472,6.43405247 56.8305061,9.14173349 59.5799855,9.24689856 L59.7459336,9.25006416 C61.6153515,9.25006416 62.8737482,11.1631631 62.1335839,12.8794684 L51.5017355,37.542372 C51.2978829,38.0149171 50.8326305,38.3210187 50.3183741,38.3210187 L46.13805,38.3210187 C45.9536116,38.3210187 45.8499957,38.1087576 45.9635165,37.9633957 L47.610039,35.8540368 C48.6661548,34.5007171 48.3094316,32.5293154 46.8457181,31.6324483 L40.7858805,27.915896 C39.5782283,27.1747425 38.7193277,25.97952 38.4026929,24.5991577 L37.4008571,20.2337891 C36.8784888,17.9549348 35.2313718,16.0992256 33.0301185,15.3092163 L14.85127,8.78705823 C13.4154661,8.27221994 11.8111693,8.74120907 10.8794072,9.94870713 L7.7304983,14.0255399 C6.64288706,15.4329088 7.04618127,17.4768931 8.58677092,18.3657785 C9.25802964,18.7536393 9.4660113,19.6263466 9.04154113,20.275301 L0.559459061,33.2417333 C-0.766878654,35.2695195 0.38372649,37.9953283 2.76201262,38.4587785 L35.1884426,44.7800589 C36.0334982,44.9449645 36.821295,45.3268469 37.4742862,45.8881182 L39.255463,47.4200572 C41.7711826,49.5834858 45.5074248,49.5232194 47.9520332,47.2800699 L48.1259517,47.1204461 C49.1436938,46.1868885 50.5034466,45.7197464 51.8792168,45.8312584 L52.7473022,45.9011501 C55.1162353,46.0926156 57.4035895,44.9845729 58.72263,43.0069156 C59.2020676,42.2877593 59.8597587,41.7070414 60.631769,41.3213781 L74.6082426,34.3331414 C75.9158837,33.6793208 77.0593451,32.7402611 77.9558084,31.5844545 C79.9754767,28.9779851 80.5416466,25.5282932 79.4614202,22.4129205 L74.6690385,8.59384132 C73.4687207,5.13430452 70.4748804,2.60708648 66.8637561,2.00523242 L60.4345641,0.934361954 C58.3844463,0.592512398 56.3939346,1.80612489 55.759142,3.78495347 Z M60.1734321,2.50040562 L66.6028238,3.57130938 C69.6405914,4.07760397 72.159243,6.20369666 73.169052,9.11415192 L77.961383,22.9330849 C78.8658204,25.5414824 78.3917994,28.4297081 76.7010407,30.6117056 C75.950482,31.5793978 74.9930775,32.3656596 73.8982169,32.9130899 L59.9219949,39.9012009 C58.9811604,40.3712014 58.1688288,41.0607136 57.5518431,41.9103792 L57.4017051,42.1260978 C56.4024978,43.6242244 54.6696048,44.4636743 52.8749612,44.318625 L52.0070572,44.2487479 C50.1911448,44.1015605 48.3960271,44.7182719 47.0525682,45.950604 L46.878552,46.1103174 C45.0267545,47.8095094 42.1964037,47.8551635 40.2906957,46.216323 L38.5093717,44.6842574 C37.6474271,43.9433825 36.6077857,43.4394192 35.492377,43.2217565 L3.06574105,36.9004359 C1.79416376,36.652647 1.17891617,35.195112 1.88812084,34.1108366 L10.3702024,21.1444051 C11.263817,19.7781958 10.8690685,17.9567716 9.51884397,17.0757604 L9.38064893,16.9908457 C8.67244254,16.5822264 8.48710775,15.6429087 8.98687529,14.9962095 L12.136134,10.9189238 C12.6473897,10.2563726 13.527575,9.99906524 14.3152509,10.2815033 L32.493888,16.8035855 C34.1859151,17.4108383 35.4518605,18.8371041 35.8533732,20.5887203 L36.8552362,24.9542074 C37.2671854,26.7500906 38.3845462,28.3049794 39.9556282,29.2691749 L46.0159479,32.9860228 C46.6717418,33.3878501 46.8315424,34.270975 46.3584549,34.877195 L44.7121033,36.9863349 C43.7844846,38.1741394 44.6312082,39.9086845 46.13805,39.9086845 L50.3183741,39.9086845 C51.4664713,39.9086845 52.5046977,39.2256083 52.9596184,38.1710692 L63.5915036,13.5080804 C64.761927,10.794083 62.8293451,7.77434535 59.9091682,7.66543389 L59.7459336,7.66239836 C57.9844837,7.66239836 56.7333478,5.94711494 57.2709846,4.26973653 C57.6649694,3.04157432 58.9006596,2.28817552 60.1734321,2.50040562 Z" id="SILVERSTONE_CIRCUIT" fill="#999999" fill-rule="nonzero"></path>
    </g>
</svg>