<?xml version="1.0" encoding="UTF-8"?>
<svg width="80px" height="51px" viewBox="0 0 80 51" version="1.1" xmlns="http://www.w3.org/2000/svg" xmlns:xlink="http://www.w3.org/1999/xlink">
    <title>SPA_FRANCORCHAMPS</title>
    <g id="new-relase" stroke="none" stroke-width="1" fill="none" fill-rule="evenodd">
        <path d="M56.1776917,0.536694536 L37.7605791,8.38672814 C32.8663002,10.4732889 28.2825374,13.2191739 24.1363634,16.548595 C21.6715375,18.5279378 18.7441109,19.8492852 15.6295511,20.38836 C13.4733599,20.7623277 11.76108,22.4076791 11.3017912,24.5471106 C11.1533929,25.2405863 10.8018003,25.8748533 10.2922844,26.3686699 L4.25733419,32.2112141 C2.47923434,33.9335415 1.44592471,36.277288 1.36906967,38.7432882 L1.3644516,39.039763 C1.3644516,39.5976416 1.30381952,40.1553764 1.18386247,40.7015808 L0.0473015203,45.8606403 C-0.342208158,47.6271008 1.76246545,48.8558127 3.10945114,47.6471107 L16.2469621,35.86896 C16.7240366,35.4412523 17.4705671,35.6686714 17.6468969,36.2602768 L17.6708615,36.3621999 C17.9166209,37.7736391 19.2437996,38.7320653 20.661634,38.5224139 L28.8060921,37.3125942 C30.1943658,37.1067362 31.4942249,36.5072232 32.5515406,35.584733 L35.6916256,32.8455099 C37.1027162,31.6148362 39.0390418,31.1772224 40.8416044,31.6816022 C45.7593836,33.0587137 50.0915877,35.9964854 53.1884866,40.0455938 L53.4666018,40.4167436 C55.5421911,43.2433139 58.1804962,45.6074454 61.2151202,47.3591839 L65.4937915,49.8285733 C68.4904416,51.5598095 72.3251697,50.5093713 74.0220418,47.4920167 C75.8157834,44.3027961 74.4813586,40.2613387 71.1408182,38.7672969 L68.9964688,37.8087094 C67.6913941,37.2252326 66.9148791,35.8733305 67.0547422,34.4643038 L67.0770259,34.2879294 C67.4786662,31.6772675 65.8149548,29.1933106 63.2478173,28.5701561 L54.9382245,26.5533338 C53.0569684,26.0965217 51.6412482,24.5445232 51.3583851,22.629007 L51.2862108,22.1407164 C50.9284427,19.7173443 52.4728585,17.4186315 54.8518121,16.8334584 L65.3519481,14.2500704 C67.3727954,13.7527615 69.5058609,14.3895644 70.9240815,15.9134382 L72.1014226,17.179837 C73.7090885,18.9081887 76.369544,19.1232224 78.2349753,17.6762676 C80.2764837,16.0931023 80.5954122,13.1315248 78.9381626,11.1488034 L71.7758263,2.58428822 C70.5990905,1.17780871 68.6670815,0.661346932 66.9459856,1.29331185 L63.9607269,2.38995567 C63.0202819,2.73528505 61.9713,2.50008795 61.269619,1.8002187 L61.1494909,1.67191235 C59.912202,0.258668338 57.9063976,-0.199377889 56.1776917,0.536694536 Z M59.8085603,2.84500369 C60.9918168,4.19857746 62.886878,4.68222616 64.5749619,4.06236534 L67.560213,2.96572433 C68.5753925,2.59296309 69.7149933,2.89759949 70.4092414,3.72739123 L77.5713062,12.2915817 C78.5810777,13.4996652 78.3867755,15.3039601 77.1430853,16.2684271 C76.0061417,17.1503174 74.3853502,17.0193155 73.4061156,15.9665708 L72.2286134,14.6999989 C70.3697994,12.7027085 67.5747326,11.8682726 64.926253,12.520035 L54.4262067,15.1034009 C51.1551809,15.9080052 49.0317137,19.0685797 49.523698,22.401077 L49.5958771,22.8893996 C49.9847299,25.5226657 51.9312789,27.6565909 54.5179105,28.2846844 L62.8275687,30.3015226 C64.4383642,30.6925319 65.5018105,32.2108336 65.3383091,33.8421055 L65.3160652,34.0172708 C64.9683147,36.2819689 66.1775596,38.500016 68.2693308,39.4352115 L70.4135701,40.3937498 C72.7968459,41.4596593 73.7489479,44.3432084 72.4691454,46.6186602 C71.2585047,48.7714048 68.5226581,49.5208289 66.3847052,48.2856827 L62.1057601,45.8161352 C59.4333987,44.273513 57.0914937,42.2198231 55.2117313,39.773657 L54.9027392,39.362349 C51.5541032,34.8005594 46.7723754,31.4922039 41.3218602,29.9659119 C38.9410026,29.2997179 36.3840251,29.8776004 34.5205066,31.5028562 L31.3802922,34.2421922 C30.5799018,34.9405193 29.5958871,35.3943605 28.5445362,35.5502584 L20.4004371,36.760025 C19.9387276,36.8282966 19.506059,36.5158436 19.4259786,36.0559278 C19.0684172,34.0113747 16.6027604,33.1571695 15.0576572,34.5423882 L1.91984617,46.3208081 C1.86127561,46.3733656 1.770383,46.3203024 1.78718233,46.2441159 L2.92390463,41.0843232 C3.04200433,40.5465766 3.11334376,40.0000712 3.13715554,39.4514868 L3.14609096,39.039763 C3.14609096,36.9481992 3.99412468,34.9465855 5.49674327,33.4910985 L11.5318763,27.6483771 C12.2315825,26.9702307 12.7322811,26.1156546 12.9820165,25.1781628 L13.0438648,24.9204976 C13.3504758,23.4922619 14.4938584,22.393571 15.9337075,22.143845 C19.3451834,21.5533794 22.5519004,20.1059692 25.2519035,17.9377708 C29.2711536,14.7102708 33.714668,12.0484011 38.4592288,10.0256691 L56.875972,2.17579288 C57.8420387,1.76444759 58.9550129,1.9853459 59.6900782,2.71857775 L59.8085603,2.84500369 Z" id="SPA_FRANCORCHAMPS" fill="#999999" fill-rule="nonzero"></path>
    </g>
</svg>