<?xml version="1.0" encoding="UTF-8"?>
<svg width="484px" height="432px" viewBox="0 0 484 432" version="1.1" xmlns="http://www.w3.org/2000/svg" xmlns:xlink="http://www.w3.org/1999/xlink">
    <title>icon@2x</title>
    <g id="Page-1" stroke="none" stroke-width="1" fill="none" fill-rule="evenodd">
        <g id="icon" transform="translate(0.132690, 0.387409)">
            <circle id="Oval" fill="#D49841" cx="213.36731" cy="214.112591" r="112.5"></circle>
            <polygon id="Path-2" fill="#D49841" points="366.756929 191.890591 471.126237 191.890591 418.941583 271.503046"></polygon>
            <g id="time" transform="translate(0.000000, 0.000000)" fill="#000000" fill-rule="nonzero">
                <path d="M260.114666,102.152697 C214.224338,83.144411 161.40235,93.6515254 126.279587,128.774575 C91.1568233,163.897624 80.6501389,216.719698 99.6587991,262.609871 C118.667459,308.500043 163.448019,338.420591 213.11931,338.420591 C280.91215,338.343438 335.849709,283.405432 335.92631,215.612591 C335.92631,165.9413 306.004993,121.160984 260.114666,102.152697 Z M106.31131,215.612591 C106.31131,156.624161 154.13088,108.804591 213.11931,108.804591 C272.107739,108.804591 319.92731,156.624161 319.92731,215.612591 C319.92731,274.60102 272.107739,322.420591 213.11931,322.420591 C154.158523,322.353909 106.377992,274.573378 106.31131,215.612591 Z" id="Shape"></path>
                <path d="M265.79931,225.612591 C265.79931,221.194313 262.217588,217.612591 257.79931,217.612591 L214.86731,217.612591 L214.86731,158.168591 C214.86731,153.750313 211.285588,150.168591 206.86731,150.168591 C202.449032,150.168591 198.86731,153.750313 198.86731,158.168591 L198.86731,225.189591 C198.86731,229.612591 202.31831,233.612591 206.73631,233.612591 L257.79931,233.612591 C262.217588,233.612591 265.79931,230.030869 265.79931,225.612591 Z" id="Path"></path>
                <path d="M268.11931,0.000791291582 C163.331432,0.0468133519 73.7311384,75.3872898 55.7023097,178.612591 L8.00230966,178.612591 C5.06946314,178.590694 2.36321881,180.186755 0.96326843,182.764003 C-0.436681952,185.341251 -0.302488838,188.480225 1.31230966,190.928591 L59.5873097,279.770591 C61.067482,282.024038 63.5831441,283.380356 66.2792397,283.378543 C68.9753353,283.376729 71.4891704,282.017027 72.9663097,279.761591 L131.24031,190.905591 C132.850858,188.460161 132.98296,185.326282 131.583924,182.75399 C130.184888,180.181697 127.482357,178.589538 124.55431,178.612591 L71.9543097,178.612591 C89.7875904,84.3257771 172.160837,16.0525423 268.11931,16.0255907 C378.18431,16.0255907 467.72931,105.558591 467.72931,215.625591 C467.72931,325.692591 378.18431,415.230591 268.11931,415.230591 C263.701032,415.230591 260.11931,418.812313 260.11931,423.230591 C260.11931,427.648869 263.701032,431.230591 268.11931,431.230591 C355.32842,431.230591 433.951024,378.699328 467.323964,298.128392 C500.696904,217.557455 482.247604,124.816603 420.57931,63.1525907 C380.232963,22.5853416 325.333862,-0.154610824 268.11931,0.000791291582 Z M66.2793097,260.879591 L22.8183097,194.612591 L109.74031,194.612591 L66.2793097,260.879591 Z" id="Shape" transform="translate(241.871100, 215.615295) scale(-1, 1) translate(-241.871100, -215.615295) "></path>
            </g>
        </g>
    </g>
</svg>