<?xml version="1.0" encoding="UTF-8"?>
<svg width="80px" height="87px" viewBox="0 0 80 87" version="1.1" xmlns="http://www.w3.org/2000/svg" xmlns:xlink="http://www.w3.org/1999/xlink">
    <title>SUZUKA_CIRCUIT</title>
    <g id="new-relase" stroke="none" stroke-width="1" fill="none" fill-rule="evenodd">
        <path d="M69.8635729,0.923961949 C73.142727,-0.661065457 77.0832658,0.583975453 78.8618265,3.7641697 L79.4295996,4.78060906 C80.5313724,6.75013987 79.9957228,9.23192674 78.1793021,10.571579 L76.9290495,11.4940433 C76.0331379,12.1551259 74.497827,12.5888423 73.3892637,12.4942359 L70.5724303,12.2550962 C69.2973539,12.1466832 68.0833206,12.8079506 67.4823141,13.9378988 L66.944142,14.9428905 L66.0879879,16.5083759 C65.0238041,18.4254263 64.5879402,19.0436288 64.0841393,19.2020477 C62.4374222,19.7195366 60.2336264,19.4656298 57.7063068,18.729068 C56.6046546,18.4073177 55.4439508,18.9102638 54.9460467,19.9253704 L53.4816508,22.9087971 C52.2752881,25.3655907 49.1398998,26.0990316 46.9779569,24.4810493 L46.7556658,24.30523 C44.6857865,22.6116221 41.7087162,22.609344 39.635898,24.2997376 C38.3262835,25.3682903 37.565952,26.9701134 37.565952,28.6606722 L37.565952,30.6229723 C37.565952,31.5522785 37.7961152,32.4672019 38.2357654,33.2862341 L43.2156985,42.5537467 C43.5912236,43.2537547 43.7117891,44.0624957 43.5554781,44.8392006 L42.4484638,50.3751675 C42.1122385,52.0550804 40.583912,53.2255974 38.8739426,53.1126518 L35.8938324,52.9131242 L34.8851706,56.2801982 C34.3049398,58.2132143 33.4137929,60.0380716 32.2425704,61.6909352 L31.9673306,62.069283 L31.6906769,62.4301916 L14.3721632,84.4471034 C12.4899465,86.8404883 9.22521096,87.6527497 6.44060442,86.4203207 L3.96533487,85.324181 C1.28298056,84.1371979 -0.307188286,81.3349026 0.0497550322,78.4234868 C0.401529265,75.5492844 2.57004935,73.2321458 5.4148249,72.6898895 L6.97956027,72.3916315 C12.3851223,71.3618366 17.2177209,68.3671588 20.5452545,63.9849735 C21.6103603,62.5823402 22.5048085,61.0584895 23.2099604,59.4449919 L23.6336553,58.4766746 C24.0011333,57.6372641 23.7866783,56.6565621 23.1024618,56.0466211 L16.6300673,50.2809406 C15.531164,49.3000909 15.267302,47.6847672 15.9972158,46.4058476 C16.8868046,44.849067 18.9018829,44.3610649 20.4049965,45.337586 L27.6776218,50.0647925 C28.246135,50.4345453 28.899303,50.652268 29.5756812,50.6975547 L34.5889163,51.0314298 L35.1452341,49.1781398 C35.7979871,47.0017792 35.5451904,44.6586648 34.4520678,42.6766119 L34.3047264,42.4201742 L27.7235033,31.4117618 C27.079081,30.3326703 27.1561285,28.9712585 27.9181138,27.9717056 L29.3289928,26.1209909 C29.6569497,25.6912543 29.6593353,25.0961976 29.3369727,24.6658581 L29.3022195,24.619827 C28.1325336,23.0610851 28.6651233,20.8319165 30.4157612,19.9869116 L69.8635729,0.923961949 Z M19.4289699,46.8395519 C18.7891365,46.4238742 17.9312551,46.6316319 17.55268,47.2941385 C17.2420734,47.8383685 17.3544884,48.5265564 17.8221913,48.9440153 L24.2941663,54.7093216 C25.5571267,55.8351805 25.9529632,57.645339 25.2746079,59.1948695 L24.8511385,60.1626716 C24.0892936,61.9058919 23.1227408,63.5525854 21.9718184,65.0682302 C18.3765697,69.802982 13.1551795,73.0385873 7.31486385,74.1512056 L5.75022036,74.4494462 C3.67022228,74.8459245 2.08488954,76.5399073 1.82770235,78.6412778 C1.56674557,80.7697775 2.72924815,82.8184124 4.6904054,83.6862548 L7.16572355,84.782416 C9.20145405,85.6834026 11.588088,85.0896116 12.964227,83.3397439 L30.2758435,61.3317166 L30.538783,60.9887018 C31.7143569,59.4142057 32.6049078,57.6463294 33.1694853,55.7654618 L34.061397,52.7913201 L29.4563016,52.484809 C28.5724808,52.4256331 27.7160585,52.1637021 26.9522852,51.7208132 L26.7012151,51.5665113 L19.4289699,46.8395519 Z M77.2984697,4.63849522 C75.9822572,2.28501278 73.0684235,1.36436655 70.6431719,2.53664759 L31.1942488,21.600134 C30.4627789,21.9532029 30.2400885,22.8852794 30.7333159,23.5425687 L30.7685147,23.5891942 C31.5731392,24.6633039 31.5672162,26.1407023 30.7532188,27.2073195 L29.3426254,29.0576598 C29.0244423,29.4750442 28.9923109,30.0427994 29.261161,30.4929918 L35.8420793,41.5008943 C37.3170276,43.9669921 37.6865926,46.9399778 36.8609364,49.6928196 L36.4222473,51.1541295 L38.9925894,51.3253487 C39.7123858,51.3728921 40.3645125,50.9420554 40.6154758,50.288258 L40.6602208,50.1546014 L40.6920305,50.0237824 L41.7992317,44.4868839 C41.8734061,44.1183122 41.8161008,43.7339148 41.6375427,43.401068 L36.6577195,34.1337602 C36.0780937,33.0539653 35.7747151,31.8480028 35.7747151,30.6229723 L35.7747151,28.6606722 C35.7747151,26.4320363 36.7769363,24.3206137 38.5036696,22.9117216 C41.169852,20.7374365 44.9703388,20.6872636 47.6843154,22.7563565 L47.9554763,22.9718545 C49.2310727,24.0159464 51.1472622,23.5988908 51.8737336,22.1194102 L53.3379587,19.1363315 C54.22151,17.3349828 56.2752951,16.4450544 58.2079863,17.0095195 C60.2069387,17.5920939 61.9666398,17.8283844 63.1817254,17.5858959 L63.3561808,17.5460473 L63.3940099,17.4957821 C63.5109663,17.3332514 63.6669179,17.0912269 63.8550225,16.7803446 L64.0979873,16.3712392 C64.3971599,15.8592833 64.7504188,15.2279134 65.1481986,14.4972651 L65.3687117,14.0905133 C65.5408662,13.7716855 65.7180391,13.4407155 65.9007385,13.0969777 C66.8385644,11.3337777 68.7344373,10.3011215 70.7240687,10.4702893 L73.5411827,10.709453 C74.2165749,10.7670919 75.3197026,10.4554647 75.8655433,10.0526953 L77.1159663,9.13010525 C78.2060508,8.32614274 78.5274682,6.83694225 77.8660683,5.65462223 L77.2984697,4.63849522 Z" id="SUZUKA_CIRCUIT" fill="#999999" fill-rule="nonzero"></path>
    </g>
</svg>