<?xml version="1.0" encoding="UTF-8"?>
<svg width="40px" height="40px" viewBox="0 0 40 40" version="1.1" xmlns="http://www.w3.org/2000/svg" xmlns:xlink="http://www.w3.org/1999/xlink">
    <title>track</title>
    <g id="new-relase" stroke="none" stroke-width="1" fill="none" fill-rule="evenodd">
        <g id="track">
            <rect id="Rectangle" x="0" y="0" width="40" height="40"></rect>
            <g id="Path-2" transform="translate(0.000000, 6.000000)" fill="#999999" fill-rule="nonzero">
                <path d="M3.15546654,1.65098705 L0.20000053,17.4133043 C-0.169590241,19.3849705 -0.0252713596,21.4185068 0.619072933,23.3185492 C1.03000327,24.5293858 0.899767775,25.8581191 0.261597297,26.9664451 C-0.0949379904,27.586055 0.352291318,28.3591934 1.06719073,28.3591934 L37.6120838,28.3591934 C38.030705,28.3591934 38.4423241,28.2488789 38.8056631,28.039564 C39.9712566,27.3668243 40.3505349,25.8641162 39.6444093,24.7186361 L27.0327091,4.2703927 C26.5040064,3.41284716 25.2179277,3.54948108 24.880794,4.49894654 L22.7620448,10.4643276 C22.2303801,11.9612103 22.8930569,13.6197918 24.3098858,14.3383461 C26.7325606,15.5666752 28.5849741,17.6854641 29.4789289,20.2505973 C29.6981224,20.8789787 29.2318813,21.5353954 28.5666428,21.5353954 L5.1236436,21.5353954 C5.03249273,21.5353954 4.98480188,21.4267756 5.04659984,21.3594944 C6.50583499,19.771718 8.61228875,18.9390224 10.7631108,19.0997132 L18.7181313,19.6948393 C19.3555838,19.7428722 19.6844205,18.949174 19.2001831,18.5316718 L15.7030119,15.517669 C14.4229907,14.4142024 13.5862524,12.8876074 13.343084,11.2198389 L13.3185157,11.0339646 C13.0927298,9.13491719 12.0114349,7.44718431 10.3888607,6.44774956 L10.2351682,6.3560836 C9.00791913,5.64727478 8.08609762,4.51135934 7.64547526,3.1648522 L7.06597372,1.39457332 C6.87521863,0.810781962 6.42908836,0.345274945 5.85374054,0.129879521 C4.67712247,-0.311496309 3.38708038,0.415713198 3.15546654,1.65098705 Z M5.67660224,0.602094152 C6.10864858,0.76384129 6.44343843,1.11317204 6.58661362,1.55134867 L7.16614924,3.32173177 C7.62623762,4.72772552 8.56872513,5.92266865 9.82440213,6.69811992 L9.98298071,6.79285139 C11.5040667,7.67086904 12.5374673,9.19408781 12.7951799,10.9252686 L12.8176886,11.0934368 C13.0388951,12.9585618 13.9508091,14.6730315 15.3737297,15.8996871 L18.8708882,18.913679 C18.9867665,19.0135875 18.9081334,19.2033807 18.7558919,19.1919092 L10.8007114,18.596771 C8.49601343,18.424584 6.2389014,19.3168358 4.67520913,21.0182708 C4.31638973,21.4089278 4.59335618,22.0397411 5.1236436,22.0397411 L28.5666428,22.0397411 C29.5790734,22.0397411 30.2886804,21.0406918 29.9551582,20.0845541 C29.0183115,17.3963461 27.0769505,15.1758191 24.5379821,13.8885275 C23.3473824,13.2847069 22.7905329,11.8909953 23.2373034,10.6331289 L25.3560604,4.66772589 C25.5515289,4.1172303 26.2969582,4.03803536 26.6034207,4.53511168 L39.2151128,24.9833418 C39.7720664,25.8868345 39.4729003,27.0721366 38.5537277,27.6026508 C38.2670584,27.7677971 37.9422448,27.8548476 37.6120838,27.8548476 L1.06719073,27.8548476 C0.740182091,27.8548476 0.535691369,27.5013385 0.698702943,27.2180465 C1.38077477,26.033476 1.54169933,24.622608 1.14869579,23.3189015 L1.09668293,23.1565204 C0.480165106,21.3385327 0.342076108,19.3927791 0.695710051,17.5062382 L3.65117386,1.74393267 C3.82503859,0.816654073 4.79339357,0.270782773 5.67660224,0.602094152 Z" id="Path"></path>
            </g>
        </g>
    </g>
</svg>