<?xml version="1.0" encoding="UTF-8"?>
<svg width="121px" height="56px" viewBox="0 0 121 56" version="1.1" xmlns="http://www.w3.org/2000/svg" xmlns:xlink="http://www.w3.org/1999/xlink">
    <!-- Generator: Sketch 58 (84663) - https://sketch.com -->
    <title>user-img copy</title>
    <desc>Created with Sketch.</desc>
    <defs>
        <path d="M47.7720702,24.098807 C47.7720702,10.9215439 37.0896842,0.239157895 23.9118596,0.239157895 C10.7345965,0.239157895 0.0524912281,10.9215439 0.0524912281,24.098807 C0.0524912281,37.2763509 10.7345965,47.9590175 23.9118596,47.9590175 C37.0896842,47.9590175 47.7720702,37.2763509 47.7720702,24.098807" id="path-1"></path>
        <path d="M47.829614,23.9489123 C47.829614,10.7716491 37.1472281,0.0892631579 23.9694035,0.0892631579 C10.7921404,0.0892631579 0.110315789,10.7716491 0.110315789,23.9489123 C0.110315789,37.1264561 10.7921404,47.8091228 23.9694035,47.8091228 C37.1472281,47.8091228 47.829614,37.1264561 47.829614,23.9489123" id="path-3"></path>
        <path d="M47.7195789,23.8596491 C47.7195789,10.6826667 37.037193,1.98951966e-13 23.8596491,1.98951966e-13 C10.6821053,1.98951966e-13 9.9475983e-14,10.6826667 9.9475983e-14,23.8596491 C9.9475983e-14,37.037193 10.6821053,47.7198596 23.8596491,47.7198596 C37.037193,47.7198596 47.7195789,37.037193 47.7195789,23.8596491" id="path-5"></path>
        <path d="M47.7720702,23.9489123 C47.7720702,10.7716491 37.0896842,0.0892631579 23.9118596,0.0892631579 C10.7345965,0.0892631579 0.0524912281,10.7716491 0.0524912281,23.9489123 C0.0524912281,37.1264561 10.7345965,47.8091228 23.9118596,47.8091228 C37.0896842,47.8091228 47.7720702,37.1264561 47.7720702,23.9489123" id="path-7"></path>
    </defs>
    <g id="Page-1" stroke="none" stroke-width="1" fill="none" fill-rule="evenodd">
        <g id="33.1-fixture-create-contest" transform="translate(-127.000000, -230.000000)">
            <g id="Group-2" transform="translate(20.000000, 200.000000)">
                <g id="user-img-copy" transform="translate(107.000000, 30.000000)">
                    <circle id="Oval" fill="#FFFFFF" cx="28" cy="28" r="28"></circle>
                    <g id="1/avatar-ic" transform="translate(4.000000, 4.000000)">
                        <g id="Group-3">
                            <path d="M47.7720702,24.098807 C47.7720702,10.9215439 37.0896842,0.239157895 23.9121404,0.239157895 C10.7345965,0.239157895 0.0524912281,10.9215439 0.0524912281,24.098807 C0.0524912281,37.2763509 10.7345965,47.9590175 23.9121404,47.9590175 C37.0896842,47.9590175 47.7720702,37.2763509 47.7720702,24.098807" id="Fill-34" fill="#667892"></path>
                            <g id="Group-182">
                                <mask id="mask-2" fill="white">
                                    <use xlink:href="#path-1"></use>
                                </mask>
                                <g id="Clip-159"></g>
                                <path d="M27.509614,16.1706667 C28.6369123,13.0192281 33.4641404,11.8254035 33.4641404,11.8254035 C33.4641404,11.8254035 35.5146667,17.8200702 33.3052632,20.5131228" id="Fill-158" fill="#DB4E2A" mask="url(#mask-2)"></path>
                                <path d="M32.4645614,13.6797193 C32.4645614,13.6797193 30.138386,14.1911579 28.9723509,16.2593684 C27.8054737,18.3284211 32.6203509,19.1034386 32.6203509,19.1034386 C32.6203509,19.1034386 33.7482105,15.952 32.4645614,13.6797193" id="Fill-160" fill="#842A24" mask="url(#mask-2)"></path>
                                <path d="M19.536,16.589193 C18.2360702,13.5037193 13.3518596,12.5768421 13.3518596,12.5768421 C13.3518596,12.5768421 11.6328421,18.674807 13.9856842,21.242386" id="Fill-161" fill="#DB4E2A" mask="url(#mask-2)"></path>
                                <path d="M14.4510877,14.373614 C14.4510877,14.373614 16.8008421,14.7562105 18.0802807,16.757614 C19.3577544,18.7592982 14.5931228,19.797614 14.5931228,19.797614 C14.5931228,19.797614 13.2948772,16.7129825 14.4510877,14.373614" id="Fill-162" fill="#842A24" mask="url(#mask-2)"></path>
                                <path d="M23.7077895,33.754386 C16.4078596,33.754386 10.4889825,40.1139649 10.4889825,47.9590175 L36.9274386,47.9590175 C36.9274386,40.1139649 31.0094035,33.754386 23.7077895,33.754386" id="Fill-163" fill="#DB4E2A" mask="url(#mask-2)"></path>
                                <path d="M12.6924912,24.925193 C12.6924912,31.1747368 17.7583158,36.2405614 24.0081404,36.2405614 C30.2574035,36.2405614 35.3235088,31.1747368 35.3235088,24.925193 C35.3235088,18.6759298 30.5139649,15.7136842 24.2635789,15.7136842 C18.0143158,15.7136842 12.6924912,18.6759298 12.6924912,24.925193" id="Fill-164" fill="#DB4E2A" mask="url(#mask-2)"></path>
                                <path d="M28.3385263,36.256 C27.7585965,36.0637193 24.8684912,37.725193 24.8684912,37.725193 C24.6924912,37.5371228 24.4373333,37.4178246 24.1527018,37.4178246 C23.8680702,37.4178246 23.613193,37.5371228 23.4369123,37.725193 C23.4369123,37.725193 20.5420351,35.9724912 19.9915789,36.2958596 C19.4411228,36.6189474 19.421193,40.0443509 19.9915789,40.3825965 C20.5614035,40.7202807 23.4910877,39.0065965 23.4910877,39.0065965 C23.6631579,39.1637895 23.8958596,39.2609123 24.1527018,39.2609123 C24.4095439,39.2609123 24.6419649,39.1637895 24.8140351,39.0071579 C24.8140351,39.0071579 27.8405614,40.784 28.3138246,40.3825965 C28.786807,39.9809123 28.9187368,36.4485614 28.3385263,36.256" id="Fill-165" fill="#0A0B09" mask="url(#mask-2)"></path>
                                <path d="M24.6964211,41.5713684 C24.6964211,41.202807 24.3977544,40.9047018 24.0300351,40.9047018 C23.6614737,40.9047018 23.362807,41.202807 23.362807,41.5713684 C23.362807,41.9396491 23.6614737,42.2380351 24.0300351,42.2380351 C24.3977544,42.2380351 24.6964211,41.9396491 24.6964211,41.5713684" id="Fill-166" fill="#161410" mask="url(#mask-2)"></path>
                                <path d="M18.2380351,22.1114386 C18.2380351,22.1114386 21.7181754,21.1028772 21.6392982,24.6414035 C21.6392982,24.6414035 18.2380351,25.8764912 18.2380351,22.1114386" id="Fill-167" fill="#FFFFFE" mask="url(#mask-2)"></path>
                                <path d="M20.8833684,23.4068772 C20.8833684,23.8728421 20.5058246,24.2509474 20.0392982,24.2509474 C19.5730526,24.2509474 19.1955088,23.8728421 19.1955088,23.4068772 C19.1955088,22.9409123 19.5730526,22.562807 20.0392982,22.562807 C20.5058246,22.562807 20.8833684,22.9409123 20.8833684,23.4068772" id="Fill-168" fill="#161410" mask="url(#mask-2)"></path>
                                <path d="M20.6332632,23.010807 C20.6332632,23.1202807 20.5448421,23.2087018 20.4353684,23.2087018 C20.3264561,23.2087018 20.2374737,23.1202807 20.2374737,23.010807 C20.2374737,22.9013333 20.3264561,22.8129123 20.4353684,22.8129123 C20.5448421,22.8129123 20.6332632,22.9013333 20.6332632,23.010807" id="Fill-169" fill="#FFFFFE" mask="url(#mask-2)"></path>
                                <path d="M30.1900351,22.1114386 C30.1900351,22.1114386 26.709614,21.1028772 26.7882105,24.6414035 C26.7882105,24.6414035 30.1900351,25.8764912 30.1900351,22.1114386" id="Fill-170" fill="#FFFFFE" mask="url(#mask-2)"></path>
                                <path d="M27.5447018,23.4068772 C27.5447018,23.8728421 27.9222456,24.2509474 28.3884912,24.2509474 C28.8544561,24.2509474 29.2322807,23.8728421 29.2322807,23.4068772 C29.2322807,22.9409123 28.8544561,22.562807 28.3884912,22.562807 C27.9222456,22.562807 27.5447018,22.9409123 27.5447018,23.4068772" id="Fill-171" fill="#161410" mask="url(#mask-2)"></path>
                                <path d="M27.7945263,23.010807 C27.7945263,23.1202807 27.8829474,23.2087018 27.9927018,23.2087018 C28.101614,23.2087018 28.1905965,23.1202807 28.1905965,23.010807 C28.1905965,22.9013333 28.101614,22.8129123 27.9927018,22.8129123 C27.8829474,22.8129123 27.7945263,22.9013333 27.7945263,23.010807" id="Fill-172" fill="#FFFFFE" mask="url(#mask-2)"></path>
                                <path d="M28.5992982,29.0293333 C28.5487719,29.0293333 28.4999298,29.0009825 28.4780351,28.9512982 C28.4474386,28.8844912 28.4780351,28.8061754 28.5445614,28.7767018 C28.7831579,28.6694737 34.413193,26.157193 36.5265965,27.0501053 C36.5939649,27.0784561 36.6251228,27.1559298 36.5967719,27.2230175 C36.5675789,27.2901053 36.4915088,27.3209825 36.4224561,27.2934737 C34.4157193,26.442386 28.7107368,28.9917193 28.6534737,29.0175439 L28.5992982,29.0293333" id="Fill-173" fill="#161410" mask="url(#mask-2)"></path>
                                <path d="M29.8969825,30.0067368 C29.829614,30.0067368 29.7720702,29.9553684 29.7650526,29.8874386 C29.757193,29.8152982 29.8110877,29.749614 29.8835088,29.7428772 C30.5675789,29.6732632 36.5852632,29.0759298 37.2597895,29.4026667 C37.3260351,29.4352281 37.3541053,29.5138246 37.322386,29.5792281 C37.2906667,29.6446316 37.2123509,29.6735439 37.1452632,29.6407018 C36.6854737,29.4189474 32.5672982,29.7381053 29.9101754,30.0061754 L29.8969825,30.0067368" id="Fill-174" fill="#161410" mask="url(#mask-2)"></path>
                                <path d="M35.5578947,32.4665263 C35.5225263,32.4665263 35.4860351,32.4510877 35.4599298,32.4221754 C34.8202105,31.7061053 31.8113684,31.4436491 30.7076491,31.4029474 C30.6329825,31.4001404 30.5762807,31.3381053 30.5790877,31.2656842 C30.581614,31.1924211 30.6442105,31.1421754 30.7160702,31.1376842 C30.882807,31.1441404 34.8117895,31.2993684 35.6569825,32.245614 C35.7052632,32.3003509 35.7013333,32.384 35.6465965,32.4325614 C35.621614,32.4552982 35.5901754,32.4665263 35.5578947,32.4665263" id="Fill-175" fill="#161410" mask="url(#mask-2)"></path>
                                <path d="M19.4172632,29.0293333 C19.4675088,29.0293333 19.5163509,29.0009825 19.5376842,28.9512982 C19.568,28.8844912 19.5379649,28.8061754 19.472,28.7767018 C19.2317193,28.6694737 13.602807,26.157193 11.4896842,27.0501053 C11.4225965,27.0784561 11.3905965,27.1559298 11.4197895,27.2230175 C11.4475789,27.2901053 11.5247719,27.3209825 11.5927018,27.2934737 C13.6008421,26.442386 19.3052632,28.9917193 19.3630877,29.0175439 L19.4172632,29.0293333" id="Fill-176" fill="#161410" mask="url(#mask-2)"></path>
                                <path d="M18.1190175,30.0067368 C18.186386,30.0067368 18.2436491,29.9553684 18.2512281,29.8874386 C18.2579649,29.8152982 18.205193,29.749614 18.1324912,29.7428772 C17.4484211,29.6732632 11.4301754,29.0759298 10.7556491,29.4026667 C10.6899649,29.4346667 10.6624561,29.5138246 10.693614,29.5792281 C10.7253333,29.6446316 10.8030877,29.6735439 10.8701754,29.6407018 C11.3302456,29.4189474 15.4495439,29.7381053 18.106386,30.0061754 L18.1190175,30.0067368" id="Fill-177" fill="#161410" mask="url(#mask-2)"></path>
                                <path d="M12.4567018,32.4665263 C12.4940351,32.4665263 12.5302456,32.4510877 12.5560702,32.4221754 C13.1960702,31.7061053 16.2049123,31.4436491 17.309193,31.4029474 C17.3827368,31.4001404 17.4394386,31.3381053 17.4369123,31.2656842 C17.4338246,31.1924211 17.3717895,31.1421754 17.3002105,31.1376842 C17.1323509,31.1441404 13.2033684,31.2993684 12.3587368,32.245614 C12.3101754,32.3003509 12.3149474,32.384 12.3696842,32.4325614 C12.394386,32.4552982 12.4261053,32.4665263 12.4567018,32.4665263" id="Fill-178" fill="#161410" mask="url(#mask-2)"></path>
                                <path d="M27.3642105,27.8321404 C25.8293333,27.8321404 24.5257544,28.6515088 24.0272281,29.797614 C23.418386,28.8878596 22.2602105,28.2725614 20.9299649,28.2725614 C18.9664561,28.2725614 17.3743158,29.6117895 17.3743158,31.264 C17.3743158,32.9162105 18.9664561,34.2548772 20.9299649,34.2548772 C22.4651228,34.2548772 23.7681404,33.4352281 24.2672281,32.2894035 C24.8763509,33.1994386 26.0339649,33.8147368 27.3642105,33.8147368 C29.3274386,33.8147368 30.9201404,32.4752281 30.9201404,30.8232982 C30.9201404,29.1713684 29.3274386,27.8321404 27.3642105,27.8321404" id="Fill-179" fill="#FFFFFE" mask="url(#mask-2)"></path>
                                <path d="M25.0610526,27.1845614 C26.0558596,27.1845614 26.3674386,27.8256842 25.7529825,28.608 L25.3597193,29.109614 C24.7458246,29.8924912 23.7400702,29.8924912 23.1261754,29.109614 L22.7329123,28.608 C22.1184561,27.8256842 22.4300351,27.1845614 23.4245614,27.1845614 L25.0610526,27.1845614" id="Fill-180" fill="#161410" mask="url(#mask-2)"></path>
                                <path d="M33.1121404,22.0704561 C33.1121404,22.0704561 32.5274386,22.2731228 32.4850526,22.2731228 C32.4418246,22.2731228 32.2874386,22.1310877 32.3084912,22.0364912 C32.3301053,21.9421754 32.5018947,21.8388772 32.5493333,21.8388772 C32.5964912,21.8388772 33.1121404,22.0148772 33.1121404,22.0148772 L33.1121404,22.0704561 Z M31.5738947,23.9963509 C31.453193,24.5978947 31.0150175,25.2168421 30.7738947,25.4832281 C30.1032982,26.1024561 29.1929825,26.1111579 28.5049825,26.1111579 C26.7682807,26.0336842 26.4162807,25.4405614 25.994386,24.821614 C25.488,24.0218947 25.5138246,23.0164211 25.5907368,22.3461053 C25.6679298,21.6755088 26.2012632,21.2544561 26.5451228,21.090807 C26.8887018,20.9274386 27.7459649,20.8359298 27.7459649,20.8359298 C28.6913684,20.7556491 29.8599298,20.8648421 30.3988772,20.9905965 C30.9375439,21.1169123 31.1497544,21.2833684 31.3664561,21.5124211 C31.5848421,21.7414737 31.6769123,22.2731228 31.6769123,22.2731228 C31.744,22.5476491 31.6937544,23.3945263 31.5738947,23.9963509 L31.5738947,23.9963509 Z M22.0648421,24.821614 C21.6437895,25.4405614 21.2917895,26.0336842 19.5553684,26.1111579 C18.8670877,26.1111579 17.9564912,26.1024561 17.2858947,25.4832281 C17.0447719,25.2168421 16.6071579,24.5978947 16.4864561,23.9963509 C16.3660351,23.3945263 16.3163509,22.5476491 16.3831579,22.2731228 C16.3831579,22.2731228 16.4749474,21.7414737 16.6924912,21.5124211 C16.9103158,21.2833684 17.1225263,21.1169123 17.661193,20.9905965 C18.1998596,20.8648421 19.3687018,20.7556491 20.3141053,20.8359298 C20.3141053,20.8359298 21.1713684,20.9274386 21.5149474,21.090807 C21.858807,21.2544561 22.3921404,21.6755088 22.4687719,22.3461053 C22.5470877,23.0164211 22.5720702,24.0218947 22.0648421,24.821614 L22.0648421,24.821614 Z M15.5750175,22.2731228 C15.5323509,22.2731228 14.9476491,22.0704561 14.9476491,22.0704561 L14.9476491,22.0148772 C14.9476491,22.0148772 15.4632982,21.8388772 15.5110175,21.8388772 C15.5578947,21.8388772 15.7296842,21.9421754 15.7512982,22.0364912 C15.7726316,22.1310877 15.6179649,22.2731228 15.5750175,22.2731228 L15.5750175,22.2731228 Z M33.6822456,21.5466667 C33.6710175,21.4321404 33.2586667,21.3170526 33.2586667,21.3170526 C33.2586667,21.3170526 32.7424561,21.1912982 32.2040702,20.9790877 C31.6651228,20.7671579 30.5650526,20.3660351 30.0606316,20.2975439 C29.5564912,20.2287719 28.341614,20.1597193 27.6544561,20.2515088 C26.9658947,20.3432982 26.2778947,20.4917895 26.0491228,20.6181053 C25.8203509,20.7441404 25.5907368,20.893193 25.488,20.9734737 C25.3847018,21.0540351 25.2814035,21.1343158 25.189614,21.1225263 C25.0975439,21.1110175 24.8920702,20.9734737 24.8920702,20.9734737 C24.8920702,20.9734737 24.3469474,20.9734737 24.0297544,20.9765614 C23.7131228,20.9734737 23.168,20.9734737 23.168,20.9734737 C23.168,20.9734737 22.9622456,21.1110175 22.8704561,21.1225263 C22.7781053,21.1343158 22.6759298,21.0540351 22.5720702,20.9734737 C22.4687719,20.893193 22.2397193,20.7441404 22.0106667,20.6181053 C21.781614,20.4917895 21.0938947,20.3432982 20.405614,20.2515088 C19.7181754,20.1597193 18.5032982,20.2287719 17.9991579,20.2975439 C17.4952982,20.3660351 16.3941053,20.7671579 15.856,20.9790877 C15.3173333,21.1912982 14.8019649,21.3170526 14.8019649,21.3170526 C14.8019649,21.3170526 14.3887719,21.4321404 14.3778246,21.5466667 C14.3663158,21.661193 14.4693333,22.6122105 14.4693333,22.6122105 C14.4693333,22.6122105 14.9049825,22.7267368 15.1567719,22.818807 C15.4088421,22.9103158 15.5239298,23.0705965 15.7072281,23.4262456 C15.8902456,23.8734035 16.3941053,25.122807 16.7157895,25.5924211 C17.0360702,26.0620351 17.7583158,26.3601404 18.6981053,26.5782456 C20.4297544,26.7152281 21.0478596,26.325614 21.6092632,26.0277895 C22.1709474,25.7299649 22.5035789,25.0192281 22.698386,24.6756491 C22.893193,24.3315088 23.2252632,22.9678596 23.2485614,22.8530526 C23.2712982,22.7385263 23.1969123,22.618386 23.1340351,22.5268772 C23.0708772,22.434807 23.0130526,22.2458947 23.0366316,22.1136842 C23.0593684,21.9823158 23.1281404,21.8388772 23.4141754,21.7414737 C23.5960702,21.6794386 23.8607719,21.6524912 24.0297544,21.6409825 C24.1995789,21.6524912 24.4634386,21.6794386 24.645614,21.7414737 C24.9319298,21.8388772 25.0004211,21.9823158 25.0231579,22.1136842 C25.0467368,22.2458947 24.989193,22.434807 24.9260351,22.5268772 C24.8631579,22.618386 24.7887719,22.7385263 24.8115088,22.8530526 C24.834807,22.9678596 25.1671579,24.3315088 25.3614035,24.6756491 C25.5562105,25.0192281 25.8888421,25.7299649 26.4505263,26.0277895 C27.0122105,26.325614 27.6311579,26.7152281 29.3616842,26.5782456 C30.3014737,26.3601404 31.0237193,26.0620351 31.3448421,25.5924211 C31.6651228,25.122807 32.1695439,23.8734035 32.3525614,23.4262456 C32.5364211,23.0705965 32.6506667,22.9103158 32.9030175,22.818807 C33.1550877,22.7267368 33.5912982,22.6122105 33.5912982,22.6122105 C33.5912982,22.6122105 33.6937544,21.661193 33.6822456,21.5466667 L33.6822456,21.5466667 Z" id="Fill-181" fill="#161410" mask="url(#mask-2)"></path>
                            </g>
                        </g>
                    </g>
                    <circle id="Oval-Copy" fill="#FFFFFF" cx="61" cy="28" r="28"></circle>
                    <g id="4/avatar-ic" transform="translate(37.000000, 4.000000)">
                        <g id="Group-10">
                            <path d="M47.829614,23.9489123 C47.829614,10.7719298 37.1472281,0.0892631579 23.9696842,0.0892631579 C10.7921404,0.0892631579 0.110315789,10.7719298 0.110315789,23.9489123 C0.110315789,37.1264561 10.7921404,47.8091228 23.9696842,47.8091228 C37.1472281,47.8091228 47.829614,37.1264561 47.829614,23.9489123" id="Fill-31" fill="#8CCABB"></path>
                            <g id="Group-81">
                                <mask id="mask-4" fill="white">
                                    <use xlink:href="#path-3"></use>
                                </mask>
                                <g id="Clip-59"></g>
                                <path d="M34.9695439,47.8091228 C35.0843509,47.0138947 35.1466667,43.405193 35.1466667,42.5664561 C35.1466667,35.3069474 30.650386,29.4223158 25.1037193,29.4223158 C19.557614,29.4223158 15.0610526,35.3069474 15.0610526,42.5664561 C15.0610526,43.405193 15.1239298,47.0138947 15.2387368,47.8091228 L34.9695439,47.8091228" id="Fill-58" fill="#C79559" mask="url(#mask-4)"></path>
                                <path d="M20.3966316,32.8415439 C20.3966316,32.8415439 17.533193,39.408 19.2544561,41.9185965 C20.9757193,44.4294737 25.0315789,47.8091228 25.0315789,47.8091228 C25.0315789,47.8091228 31.4046316,43.5601404 31.501193,40.3253333 C31.5974737,37.0905263 29.6665263,31.8762105 29.6665263,31.8762105" id="Fill-60" fill="#DBBF93" mask="url(#mask-4)"></path>
                                <path d="M18.9552281,31.9242105 C20.9832982,33.469193 21.0315789,34.3865263 21.3052632,36.9456842 C21.9174737,41.7737544 23.9769825,41.6289123 25.1037193,41.6289123 L25.1037193,32.5035789 C25.1037193,32.5035789 20.0176842,28.448 17.5724912,26.9086316 C17.2996491,28.0342456 16.9277193,30.3792281 18.9552281,31.9242105" id="Fill-61" fill="#B16D48" mask="url(#mask-4)"></path>
                                <path d="M32.6349474,26.9086316 C30.1900351,28.448 25.1037193,32.5035789 25.1037193,32.5035789 L25.1037193,41.6289123 C26.2307368,41.6289123 28.2905263,41.7737544 28.9024561,36.9456842 C29.1758596,34.3865263 29.2241404,33.469193 31.2519298,31.9242105 C33.2797193,30.3792281 32.9080702,28.0342456 32.6349474,26.9086316" id="Fill-62" fill="#B16D48" mask="url(#mask-4)"></path>
                                <path d="M30.7688421,19.9298246 C30.7688421,19.9298246 34.4261053,16.6402807 38.8929123,18.6037895 C37.8105263,21.021193 35.8099649,23.0571228 31.8756491,23.2595088" id="Fill-63" fill="#B16D48" mask="url(#mask-4)"></path>
                                <path d="M31.074807,21.0287719 C31.074807,21.0287719 34.8718596,18.794386 37.1696842,19.8049123 C36.6133333,21.0481404 33.7445614,22.9103158 31.7195789,23.0150175" id="Fill-64" fill="#161410" mask="url(#mask-4)"></path>
                                <path d="M19.2757895,19.7192982 C19.2757895,19.7192982 15.6182456,16.4297544 11.1517193,18.3932632 C12.2341053,20.8109474 14.2346667,22.8465965 18.1695439,23.0489825" id="Fill-65" fill="#B16D48" mask="url(#mask-4)"></path>
                                <path d="M18.9698246,20.8182456 C18.9698246,20.8182456 15.1727719,18.5838596 12.8749474,19.594386 C13.4312982,20.8373333 16.3003509,22.6997895 18.3253333,22.8047719" id="Fill-66" fill="#161410" mask="url(#mask-4)"></path>
                                <path d="M31.9270175,19.2581053 L29.8669474,18.2284912 L25.1037193,20.1597193 L20.3399298,18.2284912 L18.2798596,19.2581053 C18.2798596,19.2581053 18.4092632,24.4729825 17.5076491,27.1124211 C19.6317193,27.7557895 21.949193,31.8119298 23.1724912,35.9963509 L27.0349474,35.9963509 C28.2582456,31.8119298 30.5754386,27.7557895 32.6995088,27.1124211 C31.7981754,24.4729825 31.9270175,19.2581053 31.9270175,19.2581053" id="Fill-67" fill="#C79559" mask="url(#mask-4)"></path>
                                <path d="M26.0134737,35.4461754 C27.1197193,35.4461754 27.466386,36.1591579 26.7828772,37.029614 L26.3455439,37.5873684 C25.6620351,38.458386 24.5442807,38.458386 23.8607719,37.5873684 L23.424,37.029614 C22.7404912,36.1591579 23.0868772,35.4461754 24.1931228,35.4461754 L26.0134737,35.4461754" id="Fill-68" fill="#161410" mask="url(#mask-4)"></path>
                                <path d="M32.3946667,28.1765614 C32.3946667,28.1765614 29.0484211,27.2061754 29.1239298,30.6094035 C29.1239298,30.6094035 32.3946667,31.7973333 32.3946667,28.1765614" id="Fill-69" fill="#FFFFFE" mask="url(#mask-4)"></path>
                                <path d="M29.6609123,29.232 C29.6609123,29.6794386 30.0235789,30.0432281 30.4718596,30.0432281 C30.9195789,30.0432281 31.2833684,29.6794386 31.2833684,29.232 C31.2833684,28.7834386 30.9195789,28.4199298 30.4718596,28.4199298 C30.0235789,28.4199298 29.6609123,28.7834386 29.6609123,29.232" id="Fill-70" fill="#161410" mask="url(#mask-4)"></path>
                                <path d="M30.0917895,29.1567719 C30.0917895,29.2620351 30.1762807,29.3473684 30.2812632,29.3473684 C30.3865263,29.3473684 30.4715789,29.2620351 30.4715789,29.1567719 C30.4715789,29.0515088 30.3865263,28.9658947 30.2812632,28.9658947 C30.1762807,28.9658947 30.0917895,29.0515088 30.0917895,29.1567719" id="Fill-71" fill="#FFFFFE" mask="url(#mask-4)"></path>
                                <path d="M17.8122105,28.1765614 C17.8122105,28.1765614 21.1587368,27.2061754 21.0832281,30.6094035 C21.0832281,30.6094035 17.8122105,31.7973333 17.8122105,28.1765614" id="Fill-72" fill="#FFFFFE" mask="url(#mask-4)"></path>
                                <path d="M20.546807,29.232 C20.546807,29.6794386 20.1832982,30.0432281 19.7350175,30.0432281 C19.2867368,30.0432281 18.9235088,29.6794386 18.9235088,29.232 C18.9235088,28.7834386 19.2867368,28.4199298 19.7350175,28.4199298 C20.1832982,28.4199298 20.546807,28.7834386 20.546807,29.232" id="Fill-73" fill="#161410" mask="url(#mask-4)"></path>
                                <path d="M20.1153684,29.1567719 C20.1153684,29.2620351 20.0305965,29.3473684 19.9250526,29.3473684 C19.8206316,29.3473684 19.7350175,29.2620351 19.7350175,29.1567719 C19.7350175,29.0515088 19.8206316,28.9658947 19.9250526,28.9658947 C20.0305965,28.9658947 20.1153684,29.0515088 20.1153684,29.1567719" id="Fill-74" fill="#FFFFFE" mask="url(#mask-4)"></path>
                                <path d="M29.2954386,42.3413333 C28.7155088,42.1490526 25.8256842,43.8105263 25.8256842,43.8105263 C25.6494035,43.6221754 25.3942456,43.5028772 25.109614,43.5028772 C24.8247018,43.5028772 24.5701053,43.6221754 24.3938246,43.8105263 C24.3938246,43.8105263 21.4989474,42.0578246 20.9484912,42.381193 C20.3980351,42.7042807 20.378386,46.1299649 20.9484912,46.4679298 C21.5185965,46.805614 24.4477193,45.0919298 24.4477193,45.0919298 C24.6200702,45.2491228 24.8530526,45.3462456 25.109614,45.3462456 C25.3664561,45.3462456 25.5988772,45.2491228 25.7715088,45.0922105 C25.7715088,45.0922105 28.7974737,46.8693333 29.2704561,46.4679298 C29.7437193,46.0662456 29.8759298,42.533614 29.2954386,42.3413333" id="Fill-75" fill="#0A0B09" mask="url(#mask-4)"></path>
                                <path d="M25.1042807,38.2515088 C25.1042807,38.2515088 23.8349474,38.0909474 23.4523509,38.9953684 C23.0694737,39.9000702 22.0993684,40.8662456 21.504,40.5260351 C20.6492632,40.037614 21.0169825,38.9956491 21.8175439,38.752 C21.2603509,38.1956491 19.7302456,39.5938246 20.896,40.6947368 C22.1170526,41.8484211 24.5128421,40.6301754 25.1042807,39.3608421 C25.1042807,38.5950877 25.1042807,38.2515088 25.1042807,38.2515088" id="Fill-76" fill="#161410" mask="url(#mask-4)"></path>
                                <path d="M25.1042807,38.2515088 C25.1042807,38.2515088 26.3738947,38.0909474 26.7564912,38.9953684 C27.1399298,39.9000702 28.109193,40.8662456 28.7048421,40.5260351 C29.5598596,40.037614 29.1918596,38.9956491 28.3918596,38.752 C28.9479298,38.1956491 30.4788772,39.5938246 29.3134035,40.6947368 C28.0917895,41.8484211 25.6962807,40.6301754 25.1042807,39.3608421 C25.1042807,38.5950877 25.1042807,38.2515088 25.1042807,38.2515088" id="Fill-77" fill="#161410" mask="url(#mask-4)"></path>
                                <path d="M19.8910877,33.0225965 C18.2127719,33.0225965 16.8516491,31.6614737 16.8516491,29.9831579 C16.8516491,28.3048421 18.2127719,26.944 19.8910877,26.944 C21.5696842,26.944 22.9305263,28.3048421 22.9305263,29.9831579 C22.9305263,31.6614737 21.5696842,33.0225965 19.8910877,33.0225965 Z M19.8910877,26.3284211 C17.8728421,26.3284211 16.2363509,27.9649123 16.2363509,29.9831579 C16.2363509,32.0016842 17.8728421,33.6378947 19.8910877,33.6378947 C21.9098947,33.6378947 23.546386,32.0016842 23.546386,29.9831579 C23.546386,27.9649123 21.9098947,26.3284211 19.8910877,26.3284211 L19.8910877,26.3284211 Z" id="Fill-78" fill="#0A0B09" mask="url(#mask-4)"></path>
                                <polygon id="Fill-79" fill="#0A0B09" mask="url(#mask-4)" points="15.0054737 30.3489123 16.7941053 30.3489123 16.7941053 29.6176842 15.0054737 29.6176842"></polygon>
                                <polygon id="Fill-80" fill="#0A0B09" mask="url(#mask-4)" points="15.0054737 44.5642105 15.6791579 44.5642105 15.6791579 29.9831579 15.0054737 29.9831579"></polygon>
                            </g>
                            <path d="M28.4164494,19.8662905 C28.4164494,19.8662905 28.9862634,17.8559474 29.9014676,17.5527808 C30.816527,17.2501937 32.0037601,17.2500489 33.9565814,17.4447243 C35.9094027,17.6395447 38.6163811,16.7914606 40.1288916,14.3684459 C41.6419808,11.9455761 40.3300195,12.7997438 39.9360114,13.480239 C39.541714,14.1602996 37.6651477,16.1371829 36.127026,16.4635251 C34.5889043,16.7903018 32.9706208,16.5686846 32.8030625,15.9393208 C32.6352148,15.309812 34.7441634,12.5178699 35.7042234,11.9470246 C36.6645727,11.3761793 36.8739483,10.3225561 35.5563437,11.3847253 C34.2383051,12.447329 32.9693186,13.8299017 31.6316012,16.1783197 C31.0800189,16.4433912 29.7867234,16.8000066 29.2632122,16.4632354 C28.7394116,16.1264642 29.3986479,12.9850042 30.4786611,11.8969073 C31.5586743,10.8088103 32.5381236,10.2076918 33.4896465,10.3103889 C34.4416034,10.4132308 34.278386,9.5444335 33.0458629,9.8126917 C31.8134845,10.0812396 29.0791585,10.0154787 28.2459972,14.4507195 C28.0279398,15.6103713 28.3645034,17.3711416 28.3645034,17.3711416 L27.3662436,19.1908651 L28.4164494,19.8662905" id="Fill-82" fill="#C79559"></path>
                            <path d="M21.8246709,19.8662905 C21.8246709,19.8662905 21.2550047,17.8559286 20.3395163,17.5529041 C19.4246066,17.2503142 18.2372353,17.2500245 16.2845695,17.4447018 C14.331759,17.6395239 11.6249402,16.7914319 10.1122934,14.3683947 C8.5993572,11.9455023 9.91116663,12.7998228 10.3053172,13.4801795 C10.699323,14.1602464 12.575879,16.1370033 14.1141369,16.4636382 C15.6522501,16.7902732 17.2705246,16.5687987 17.4385161,15.9392842 C17.6060735,15.3097696 15.4969919,12.5178015 14.5369372,11.9469508 C13.5767378,11.3761002 13.367074,10.3224672 14.6846713,11.3847911 C16.002992,12.4472599 17.2716822,13.8299903 18.6093921,16.1782853 C19.1611161,16.4435042 20.4542598,16.799978 20.9780575,16.4633485 C21.5018552,16.1265742 20.8424778,12.9849401 19.7624706,11.8966882 C18.6826081,10.8087259 17.7031642,10.2076018 16.7516466,10.3104447 C15.7995501,10.4131428 15.9627667,9.54433733 17.195283,9.81274287 C18.4276546,10.0811484 21.1619655,10.015242 21.9951222,14.4508139 C22.213323,15.6103317 21.8764719,17.3711184 21.8764719,17.3711184 L22.8750156,19.1908588 L21.8246709,19.8662905" id="Fill-83" fill="#C79559"></path>
                        </g>
                    </g>
                    <circle id="Oval-Copy-2" fill="#FFFFFF" cx="93" cy="28" r="28"></circle>
                    <g id="2/avatar-ic" transform="translate(69.000000, 4.000000)">
                        <g id="Group-239">
                            <mask id="mask-6" fill="white">
                                <use xlink:href="#path-5"></use>
                            </mask>
                            <use id="Mask" fill="#F0AE51" xlink:href="#path-5"></use>
                            <g mask="url(#mask-6)">
                                <g transform="translate(1.912421, 1.033544)">
                                    <mask id="mask-8" fill="white">
                                        <use xlink:href="#path-7"></use>
                                    </mask>
                                    <g id="Clip-220" stroke="none" fill="none"></g>
                                    <path d="M22.0230175,31.5000702 C15.021193,31.5000702 9.3445614,38.8016842 9.3445614,47.8091228 L34.7017544,47.8091228 C34.7017544,41.6162807 32.0190877,36.2304561 28.066807,33.4689123 C26.2705965,32.2133333 24.2119298,31.5000702 22.0230175,31.5000702" id="Fill-219" stroke="none" fill="#161410" fill-rule="evenodd" mask="url(#mask-8)"></path>
                                    <polyline id="Fill-221" stroke="none" fill="#F8F7F5" fill-rule="evenodd" mask="url(#mask-8)" points="16.2088421 32.549614 22.0230175 47.8091228 28.2725614 32.8844912"></polyline>
                                    <polyline id="Fill-222" stroke="none" fill="#3D3D3C" fill-rule="evenodd" mask="url(#mask-8)" points="16.4457544 32.8844912 22.0235789 47.8091228 28.0305965 33.4442105 31.7602807 34.4123509 28.3612632 38.8154386 30.3477895 39.6547368 22.0235789 47.8091228 15.733614 41.5752982 17.2892632 39.6547368 13.4632982 34.9546667 16.4457544 32.8844912"></polyline>
                                    <path d="M25.6230175,14.4693333 C24.3573333,14.4693333 21.4470175,14.4693333 21.4470175,14.4693333 C21.4470175,14.4693333 18.5361404,14.4693333 17.2707368,14.4693333 C16.005614,14.4693333 13.0318596,16.3042807 13.0318596,19.1517193 C13.0318596,21.9991579 13.5379649,25.9216842 15.5621053,28.5159298 C17.5870877,31.1101754 14.8030877,34.9698246 21.4470175,34.9698246 C28.0906667,34.9698246 25.3066667,31.1101754 27.3310877,28.5159298 C29.3555088,25.9216842 29.8621754,21.9991579 29.8621754,19.1517193 C29.8621754,16.3042807 26.8878596,14.4693333 25.6230175,14.4693333" id="Fill-223" stroke="none" fill="#96502B" fill-rule="evenodd" mask="url(#mask-8)"></path>
                                    <path d="M20.7598596,15.5607018 C20.7598596,15.5607018 20.6750877,21.6350877 18.9883509,24.2506667 C17.3010526,26.8656842 13.8419649,33.530386 17.0478596,34.458386 C20.253193,35.3866667 20.5905965,32.0117895 21.6875789,32.0117895 C22.7842807,32.0117895 23.4391579,34.8609123 26.749193,34.2054737 C29.5121404,33.6578246 27.7254737,28.3663158 24.8190877,24.3696842 C22.1877895,20.752 22.5313684,15.5607018 22.5313684,15.5607018 L20.7598596,15.5607018" id="Fill-224" stroke="none" fill="#FFFFFE" fill-rule="evenodd" mask="url(#mask-8)"></path>
                                    <path d="M29.0130526,19.8430877 C28.8426667,19.8430877 28.7048421,19.8088421 28.7048421,19.7667368 C28.7048421,19.7249123 28.8426667,19.6909474 29.0130526,19.6909474 C29.1828772,19.6909474 29.3204211,19.7249123 29.3204211,19.7667368 C29.3204211,19.8088421 29.1828772,19.8430877 29.0130526,19.8430877 M28.4814035,21.3369825 C28.4673684,21.8922105 28.373614,22.4342456 28.176,22.9552281 C28.0957193,23.1660351 27.9876491,23.3605614 27.824,23.5188772 C27.642386,23.696 27.4155789,23.789193 27.1747368,23.8545965 C26.8724211,23.9365614 26.562807,23.9559298 26.2509474,23.9587368 C25.7810526,23.9632281 25.3170526,23.9042807 24.8575439,23.8065965 C24.4025263,23.7094737 24.0390175,23.4717193 23.7507368,23.1107368 C23.3802105,22.6478596 23.1430175,22.122386 23.0102456,21.5475088 C22.9487719,21.2822456 22.8971228,21.0150175 22.9038596,20.7402105 C22.906386,20.6225965 22.9187368,20.5032982 22.9403509,20.3870877 C22.9936842,20.0971228 23.170807,19.9079298 23.4388772,19.7990175 C23.7083509,19.690386 23.9898947,19.6238596 24.2742456,19.5674386 C24.5905965,19.5045614 24.9083509,19.4576842 25.2303158,19.437193 C25.4818246,19.4206316 25.7341754,19.4138947 25.904,19.4063158 C26.5774035,19.4394386 27.1663158,19.4888421 27.7392281,19.6522105 C27.8444912,19.6822456 27.9455439,19.7305263 28.0440702,19.7771228 C28.1389474,19.8214737 28.2119298,19.8938947 28.258807,19.9873684 C28.3101754,20.0909474 28.3632281,20.1945263 28.4039298,20.3023158 C28.4522105,20.4289123 28.4625965,20.5642105 28.4676491,20.6986667 C28.4757895,20.9114386 28.4870175,21.1244912 28.4814035,21.3369825 M20.2436491,21.5079298 C20.1352982,21.9671579 19.9578947,22.3980351 19.7192982,22.8050526 C19.5890526,23.0276491 19.4414035,23.2356491 19.253614,23.4141754 C19.0065965,23.6496842 18.709614,23.789193 18.3825965,23.8750877 C17.7215439,24.0477193 17.0529123,24.0906667 16.3769825,23.989614 C16.2439298,23.9696842 16.1131228,23.9348772 15.9834386,23.9020351 C15.7139649,23.8329825 15.5107368,23.6766316 15.3555088,23.4458947 C15.1845614,23.1910175 15.0792982,22.9103158 15.0088421,22.6141754 C14.9167719,22.2276491 14.8651228,21.8346667 14.8261053,21.4397193 C14.8030877,21.2106667 14.8078596,20.9821754 14.8362105,20.7539649 C14.8505263,20.6394386 14.8595088,20.5232281 14.8850526,20.4106667 C14.9774035,20.0115088 15.2238596,19.7569123 15.6210526,19.6530526 C15.9834386,19.5581754 16.3536842,19.5020351 16.7264561,19.4717193 C17.0029474,19.4492632 17.2808421,19.4377544 17.4590877,19.4270877 C18.096,19.4352281 18.6304561,19.4753684 19.1562105,19.597193 C19.3712281,19.6460351 19.5890526,19.690386 19.7852632,19.7950877 C19.8818246,19.8467368 19.9755789,19.9073684 20.0603509,19.9775439 C20.1995789,20.0923509 20.2708772,20.2484211 20.3000702,20.4255439 C20.3621053,20.7910175 20.3270175,21.1505965 20.2436491,21.5079298 M14.2896842,19.8430877 C14.1198596,19.8430877 13.9820351,19.8088421 13.9820351,19.7667368 C13.9820351,19.7249123 14.1198596,19.6909474 14.2896842,19.6909474 C14.4603509,19.6909474 14.597614,19.7249123 14.597614,19.7667368 C14.597614,19.8088421 14.4603509,19.8430877 14.2896842,19.8430877 M29.6676491,19.3445614 C29.6645614,19.2934737 29.6401404,19.261193 29.5907368,19.2485614 C29.5556491,19.2398596 29.5211228,19.2297544 29.4857544,19.2244211 C28.9855439,19.1458246 28.4833684,19.069193 27.9778246,19.0335439 C27.5730526,19.0057544 27.1685614,18.9877895 26.7635088,18.9698246 C25.9837193,18.9347368 25.205614,18.9518596 24.4305965,19.0498246 C23.9570526,19.1098947 23.4874386,19.1952281 23.0327018,19.3425965 C22.8019649,19.4172632 22.576,19.504 22.3452632,19.5769825 C21.9848421,19.6909474 21.6162807,19.7425965 21.2429474,19.6724211 C21.0189474,19.6300351 20.7969123,19.5660351 20.5793684,19.4955789 C20.1858246,19.3681404 19.792,19.242386 19.3835789,19.1674386 C18.5894737,19.0206316 17.7886316,18.9532632 17.0422456,18.9611228 C16.4342456,18.9622456 15.888,18.9830175 15.3434386,19.0484211 C14.8974035,19.1014737 14.4516491,19.1612632 14.0058947,19.2221754 C13.9112982,19.2350877 13.8186667,19.2628772 13.7260351,19.2870175 C13.6766316,19.3002105 13.6435088,19.3333333 13.642386,19.3883509 C13.6328421,19.6513684 13.6238596,19.9146667 13.6173527,20.1782456 C13.6165614,20.2178246 13.626386,20.2576842 13.6322807,20.2972632 C13.6370526,20.3306667 13.6558596,20.3539649 13.6878596,20.368 C13.7221053,20.3828772 13.757193,20.3977544 13.7869474,20.4185263 C13.9337544,20.5204211 14.0039298,20.6750877 14.0597895,20.8350877 C14.0993684,20.949614 14.1257544,21.0686316 14.1583158,21.1854035 C14.1793684,21.2581053 14.2065965,21.3296842 14.2231579,21.4029474 C14.3000702,21.7462456 14.3722105,22.0917895 14.450807,22.434807 C14.5268772,22.7618246 14.6254035,23.0821053 14.7817544,23.381614 C14.9563509,23.7162105 15.205614,23.9724912 15.5595789,24.1198596 C15.7740351,24.2091228 15.9963509,24.2661053 16.2251228,24.3023158 C16.6341053,24.3665965 17.0461754,24.3747368 17.4590877,24.3447018 C17.8773333,24.3149474 18.2894035,24.2512281 18.6919298,24.1294035 C18.9903158,24.0392982 19.2727018,23.9132632 19.5127018,23.7094737 C19.8778947,23.397614 20.1726316,23.0276491 20.3985965,22.6026667 C20.6256842,22.1785263 20.7828772,21.7274386 20.925193,21.2701754 C20.9664561,21.138807 21.0049123,21.0068772 21.0520702,20.8777544 C21.1230877,20.6882807 21.2581053,20.5709474 21.4613333,20.5395088 C21.525614,20.5294035 21.5929825,20.5268772 21.6578246,20.530807 C21.8096842,20.5395088 21.9559298,20.5720702 22.0572632,20.6986667 C22.1010526,20.7539649 22.1420351,20.8151579 22.1709474,20.8794386 C22.2265263,21.005193 22.2781754,21.1329123 22.32,21.2637193 C22.4985263,21.8290526 22.7351579,22.3668772 23.0346667,22.8788772 C23.2830877,23.3038596 23.6106667,23.6471579 24.0449123,23.8840702 C24.3525614,24.0516491 24.6804211,24.1583158 25.0228772,24.2248421 C25.5374035,24.3247719 26.0572632,24.3494737 26.5796491,24.3264561 C26.8954386,24.3127018 27.2075789,24.2725614 27.5110175,24.181614 C27.8231579,24.0884211 28.0968421,23.9365614 28.3014737,23.6760702 C28.4345263,23.5082105 28.5327719,23.3212632 28.613614,23.1239298 C28.7834386,22.7093333 28.893193,22.2764912 28.992,21.84 C29.0402807,21.6266667 29.0905263,21.413614 29.1427368,21.2008421 C29.1696842,21.0896842 29.2039298,20.9804912 29.2345263,20.8701754 C29.2634386,20.7671579 29.2881404,20.6624561 29.3535439,20.573193 C29.4189474,20.4836491 29.4857544,20.3955088 29.5955088,20.3567719 C29.6432281,20.3393684 29.6676491,20.3059649 29.6780351,20.2610526 C29.6858947,20.2259649 29.6943158,20.1900351 29.6943158,20.1549474 C29.6943158,19.9977544 29.6943158,19.84 29.6901053,19.6830877 C29.6864561,19.5696842 29.6746667,19.4574035 29.6676491,19.3445614" id="Fill-225" stroke="none" fill="#0A0B09" fill-rule="evenodd" mask="url(#mask-8)"></path>
                                    <path d="M27.6623158,20.3489123 C27.6623158,20.3489123 24.7132632,19.493614 24.7795088,22.493193 C24.7795088,22.493193 27.6623158,23.5402105 27.6623158,20.3489123" id="Fill-226" stroke="none" fill="#FFFFFE" fill-rule="evenodd" mask="url(#mask-8)"></path>
                                    <path d="M25.2527719,21.2791579 C25.2527719,21.6735439 25.5730526,21.9941053 25.9682807,21.9941053 C26.362386,21.9941053 26.6829474,21.6735439 26.6829474,21.2791579 C26.6829474,20.8836491 26.362386,20.5630877 25.9682807,20.5630877 C25.5730526,20.5630877 25.2527719,20.8836491 25.2527719,21.2791579" id="Fill-227" stroke="none" fill="#161410" fill-rule="evenodd" mask="url(#mask-8)"></path>
                                    <path d="M25.6322807,21.2126316 C25.6322807,21.3055439 25.7072281,21.3804912 25.8001404,21.3804912 C25.8933333,21.3804912 25.9674386,21.3055439 25.9674386,21.2126316 C25.9674386,21.12 25.8933333,21.0444912 25.8001404,21.0444912 C25.7072281,21.0444912 25.6322807,21.12 25.6322807,21.2126316" id="Fill-228" stroke="none" fill="#FFFFFE" fill-rule="evenodd" mask="url(#mask-8)"></path>
                                    <path d="M16.1970526,20.3489123 C16.1970526,20.3489123 19.1469474,19.493614 19.0807018,22.493193 C19.0807018,22.493193 16.1970526,23.5402105 16.1970526,20.3489123" id="Fill-229" stroke="none" fill="#FFFFFE" fill-rule="evenodd" mask="url(#mask-8)"></path>
                                    <path d="M18.6071579,21.2791579 C18.6071579,21.6735439 18.2868772,21.9941053 17.8919298,21.9941053 C17.4967018,21.9941053 17.1767018,21.6735439 17.1767018,21.2791579 C17.1767018,20.8836491 17.4967018,20.5630877 17.8919298,20.5630877 C18.2868772,20.5630877 18.6071579,20.8836491 18.6071579,21.2791579" id="Fill-230" stroke="none" fill="#161410" fill-rule="evenodd" mask="url(#mask-8)"></path>
                                    <path d="M18.2270877,21.2126316 C18.2270877,21.3055439 18.1521404,21.3804912 18.0595088,21.3804912 C17.9677193,21.3804912 17.8919298,21.3055439 17.8919298,21.2126316 C17.8919298,21.12 17.9677193,21.0444912 18.0595088,21.0444912 C18.1521404,21.0444912 18.2270877,21.12 18.2270877,21.2126316" id="Fill-231" stroke="none" fill="#FFFFFE" fill-rule="evenodd" mask="url(#mask-8)"></path>
                                    <path d="M16.2520702,14.7814737 C16.2520702,14.7814737 8.352,17.2210526 8.75789474,23.6547368 C9.16294737,30.0884211 10.7477895,33.4057544 12.9136842,33.4391579 C15.0798596,33.4728421 16.1456842,31.5691228 15.5733333,25.7313684 C15.0007018,19.8941754 16.2520702,14.7814737 16.2520702,14.7814737" id="Fill-232" stroke="none" fill="#763A23" fill-rule="evenodd" mask="url(#mask-8)"></path>
                                    <path d="M26.797193,14.7814737 C26.797193,14.7814737 34.6978246,17.2210526 34.2919298,23.6547368 C33.8871579,30.0884211 32.3020351,33.4057544 30.1355789,33.4391579 C27.9694035,33.4728421 27.8231579,31.5104561 28.3952281,25.6727018 C28.9675789,19.8357895 26.797193,14.7814737 26.797193,14.7814737" id="Fill-233" stroke="none" fill="#763A23" fill-rule="evenodd" mask="url(#mask-8)"></path>
                                    <path d="M22.7317895,29.5188772 C23.7072281,29.5188772 24.0126316,30.1470877 23.4099649,30.9142456 L23.0245614,31.4057544 C22.4221754,32.1734737 21.437193,32.1734737 20.834807,31.4057544 L20.4499649,30.9142456 C19.8467368,30.1470877 20.1527018,29.5188772 21.1278596,29.5188772 L22.7317895,29.5188772" id="Fill-234" stroke="none" fill="#161410" fill-rule="evenodd" mask="url(#mask-8)"></path>
                                    <path d="M21.9298246,31.9946667 C21.9298246,31.9946667 20.4552982,31.808 20.0106667,32.8586667 C19.5660351,33.9090526 18.4395789,35.0315789 17.7479298,34.6363509 C16.754807,34.0693333 17.1823158,32.8586667 18.1117193,32.5757193 C17.4649825,31.9295439 15.6878596,33.5536842 17.0416842,34.8325614 C18.4595088,36.1729123 21.2429474,34.757614 21.9298246,33.2830877 C21.9298246,32.3938246 21.9298246,31.9946667 21.9298246,31.9946667" id="Fill-235" stroke="none" fill="#161410" fill-rule="evenodd" mask="url(#mask-8)"></path>
                                    <path d="M21.9298246,31.9946667 C21.9298246,31.9946667 23.4040702,31.808 23.8487018,32.8586667 C24.2938947,33.9090526 25.4206316,35.0315789 26.1114386,34.6363509 C27.1054035,34.0693333 26.677614,32.8586667 25.7482105,32.5757193 C26.3941053,31.9295439 28.1726316,33.5536842 26.8185263,34.8325614 C25.4004211,36.1729123 22.6169825,34.757614 21.9298246,33.2830877 C21.9298246,32.3938246 21.9298246,31.9946667 21.9298246,31.9946667" id="Fill-236" stroke="none" fill="#161410" fill-rule="evenodd" mask="url(#mask-8)"></path>
                                    <path d="M30.3194386,12.9277193 C29.9876491,9.24407018 26.4030877,11.5337544 26.4030877,11.5337544 C26.4030877,11.5337544 26.4030877,10.7705263 26.4030877,8.11592982 C26.4030877,4.46512281 22.3747368,6.52266667 21.9564912,6.52266667 C21.5379649,6.52266667 17.5098947,4.46512281 17.5098947,8.11592982 C17.5098947,10.7705263 17.5098947,11.5337544 17.5098947,11.5337544 C17.5098947,11.5337544 13.9250526,9.24407018 13.5935439,12.9277193 C13.2617544,16.6113684 16.9451228,16.6442105 16.9451228,16.6442105 L26.9675789,16.6442105 C26.9675789,16.6442105 30.6509474,16.6113684 30.3194386,12.9277193" id="Fill-237" stroke="none" fill="#0A0B09" fill-rule="evenodd" mask="url(#mask-8)"></path>
                                    <path d="M26.4030877,11.5337544 C26.4030877,11.5337544 25.9522807,12.9024561 21.9564912,12.9024561 C17.9604211,12.9024561 17.5098947,11.5337544 17.5098947,11.5337544 C17.5098947,11.5337544 16.6167018,12.546807 17.2106667,13.4919298 C17.9407719,14.6534737 19.9188772,14.9852632 21.9564912,14.9852632 C23.9935439,14.9852632 25.9719298,14.6534737 26.7020351,13.4919298 C27.296,12.546807 26.4030877,11.5337544 26.4030877,11.5337544" id="Fill-238" stroke="none" fill="#FFFFFE" fill-rule="evenodd" mask="url(#mask-8)"></path>
                                </g>
                            </g>
                        </g>
                    </g>
                </g>
            </g>
        </g>
    </g>
</svg>