<svg xmlns="http://www.w3.org/2000/svg" width="112" height="15"  fill="#fff" fill-rule="evenodd" xmlns:v="https://vecta.io/nano"><path d="M23.36 12H21l.041-7.907L22.245 3h4.734l-.003 2.263h-3.594l.033 1.106h3.514l-.003 2.263h-3.514L23.36 12zm7.168 0h-2.363l-.037-7.907L29.402 3h3.518l1.171 1.093.024 7.907h-2.363l.001-2.276H30.53L30.529 12zm1.137-4.5l.006-2.4h-1.159l.019 2.4h1.134zm6.871-2.224h-1.141L37.383 12h-2.363l-.037-7.907L36.175 3h3.599l1.171 1.093L40.901 12h-2.363V5.276zM41.85 3h6.002l-.018 2.276h-1.757L46.053 12h-2.379l.024-6.724h-1.852L41.85 3zm9.551 9h-2.363l-.037-7.907L50.274 3h3.518l1.171 1.093.024 7.907h-2.363V9.724h-1.222L51.402 12zm1.137-4.5l-.021-2.4h-1.124l.012 2.4h1.134zm6.565-1.427l.038-.797h-1.142l-.048 1.376h2.351l1.164 1.106.065 3.15L60.354 12h-3.559l-1.161-1.093-.015-1.98h2.351l.028.797h1.129l.058-1.389h-2.417l-1.094-1.093-.052-3.15L56.799 3h3.466l1.24 1.093-.065 1.98h-2.337zM62.42 3h2.414l-.023 1.53.593.887.586-.887.01-1.53h2.414l-.002 2.263-1.829 2.481L66.571 12h-2.441l.026-4.256-1.751-2.481L62.42 3zm13.195 3.073l.038-.797h-1.142l-.048 1.376h2.351l1.164 1.106.065 3.15L76.866 12h-3.559l-1.161-1.093-.015-1.98h2.351l.028.797h1.129l.058-1.389H73.28l-1.094-1.093-.052-3.15L73.311 3h3.466l1.24 1.093-.065 1.98h-2.337zM81.312 7.5h1.059l-.067-2.4h-1.059l.067 2.4zm2.375 2.224H81.31L81.323 12h-2.377l-.034-7.894L80.101 3H83.7l1.174 1.106.006 4.526-1.193 1.093zm4.11.176h1.161l-.04-4.5h-1.161l.04 4.5zM86.711 12l-1.169-1.093.002-6.814L86.734 3h3.511l1.169 1.093.011 6.814L90.235 12h-3.524zm8.05-3.356L94.705 12h-2.363l.014-9h4.74l1.174 1.106.01 2.263-1.188 1.17 1.187 1.106-.017 2.263L97.082 12h-1.155l-.025-3.356H94.76zM94.388 5.1l.038 1.2h1.226l.049-1.2h-1.312zM99.173 3h6.002l-.018 2.276H103.4L103.376 12h-2.379l.024-6.724h-1.852L99.173 3zm10.399 3.073l.038-.797h-1.142l-.048 1.376h2.351l1.164 1.106.065 3.15L110.823 12h-3.559l-1.161-1.093-.015-1.98h2.351l.028.797h1.129l.058-1.389h-2.417l-1.094-1.093-.052-3.15L107.268 3h3.466l1.24 1.093-.065 1.98h-2.337z"/><path d="M13.617 4.769v.506h-2.723v-.853c0-.363-.043-.595-.13-.697s-.247-.15-.449-.15c-.221 0-.387.069-.501.208s-.168.347-.168.627c0 .361.063.634.19.817.12.183.426.414.914.692 1.398.806 2.284 1.454 2.654 1.947s.553 1.289.553 2.386c0 .799-.101 1.387-.303 1.764s-.59.697-1.167.951-1.251.384-2.016.384c-.842 0-1.559-.148-2.154-.447s-.879-.678-1.062-1.141-.277-1.105-.277-1.957v-.741h2.723v1.362c0 .424.048.697.144.817s.21.181.456.181.428-.072.549-.22.18-.368.18-.66c0-.639-.108-1.058-.32-1.255-.221-.197-.724-.546-1.511-1.046L7.624 7.164c-.26-.218-.476-.516-.647-.9s-.257-.87-.257-1.468c0-.856.118-1.484.354-1.882s.618-.706 1.148-.931 1.167-.336 1.915-.336c.816 0 1.511.12 2.089.361s.955.542 1.143.905.249.984.249 1.854zM2.383 1.813H7.83v.193c-.503.223-.869.525-1.097.908-.169.285-.277.687-.325 1.206h-.961v2.143h1.19c.171.384.387.683.647.9l.376.285v.958H5.447v4.78H2.383V1.813zm0 11.39l-.016-.017h.016v.017zM1.6 0C.716 0 0 .664 0 1.483v12.033C0 14.336.716 15 1.6 15h12.8c.884 0 1.6-.664 1.6-1.483V1.483C16 .664 15.284 0 14.4 0H1.6z" fill-rule="nonzero"/></svg>