<?xml version="1.0" encoding="UTF-8"?>
<svg width="30px" height="35px" viewBox="0 0 30 35" version="1.1" xmlns="http://www.w3.org/2000/svg" xmlns:xlink="http://www.w3.org/1999/xlink">
    <title>5566C164-12AD-457F-8E7F-CAD6C3E0EDBB</title>
    <g id="Page-1" stroke="none" stroke-width="1" fill="none" fill-rule="evenodd">
        <g id="6-h2h-whats-h2h" transform="translate(-47.000000, -440.000000)" fill="#00BFEB" fill-rule="nonzero">
            <path d="M65.4090909,457.260274 C66.5369545,457.260274 67.4545455,458.178502 67.4545455,459.30715 L67.4545455,459.30715 L67.4545455,462.718677 L74.9545455,462.718677 C76.0824091,462.718677 77,463.636906 77,464.765553 L77,464.765553 L77,474.317708 C77,474.694538 76.69475,475 76.3181818,475 L76.3181818,475 L47.6818182,475 C47.30525,475 47,474.694538 47,474.317708 L47,474.317708 L47,462.036386 C47,460.907738 47.9175909,459.98951 49.0454545,459.98951 L49.0454545,459.98951 L56.5454545,459.98951 L56.5454545,459.30715 C56.5454545,458.178502 57.4630455,457.260274 58.5909091,457.260274 L58.5909091,457.260274 Z M65.4090909,458.62479 L58.5909091,458.62479 C58.2149545,458.62479 57.9090909,458.930866 57.9090909,459.307081 L57.9090909,459.307081 L57.9090909,465.788786 C57.9090909,466.165616 57.6038409,466.471078 57.2272727,466.471078 C56.8507045,466.471078 56.5454545,466.165616 56.5454545,465.788786 L56.5454545,465.788786 L56.5454545,461.354025 L49.0454545,461.354025 C48.6695,461.354025 48.3636364,461.660102 48.3636364,462.036317 L48.3636364,462.036317 L48.3636364,473.635348 L56.5454545,473.635348 L56.5454545,471.929414 C56.5454545,471.552584 56.8507045,471.247122 57.2272727,471.247122 C57.6038409,471.247122 57.9090909,471.552584 57.9090909,471.929414 L57.9090909,471.929414 L57.9090909,473.635348 L66.0909091,473.635348 L66.0909091,459.307081 C66.0909091,458.930866 65.7850455,458.62479 65.4090909,458.62479 L65.4090909,458.62479 Z M74.9545455,464.083261 L67.4545455,464.083261 L67.4545455,473.635416 L75.6363636,473.635416 L75.6363636,464.765553 C75.6363636,464.389337 75.3305,464.083261 74.9545455,464.083261 L74.9545455,464.083261 Z M71.1749224,465.410959 C72.3528314,465.410959 73.3111726,466.314286 73.3111726,467.424617 C73.3111726,467.728948 73.2403166,468.022472 73.1058189,468.288947 C73.4643129,468.703089 73.6666667,469.225566 73.6666667,469.77402 C73.6666667,471.069406 72.5488996,472.123288 71.1749939,472.123288 C70.6219316,472.123288 70.0980118,471.955818 69.6597334,471.638936 C69.3470957,471.412869 69.2885967,470.99141 69.5291641,470.697618 C69.769803,470.403892 70.2182241,470.348919 70.5308617,470.574919 C70.7171443,470.709565 70.9398549,470.780782 71.1749939,470.780782 C71.7611984,470.780782 72.238119,470.329118 72.238119,469.773952 C72.238119,469.438745 72.0625505,469.126427 71.7684125,468.938418 C71.5916298,468.825452 71.4780602,468.643955 71.4587748,468.443864 C71.4394895,468.243773 71.516631,468.046099 71.6689856,467.905143 C71.8066976,467.777679 71.8826249,467.607055 71.8826249,467.424684 C71.8826249,467.054574 71.5651302,466.753465 71.1749224,466.753465 C70.9688544,466.753465 70.7732863,466.838643 70.6384314,466.987049 C70.3822213,467.268961 69.9314431,467.302321 69.6313767,467.061622 C69.3314531,466.820855 69.2958823,466.397182 69.5520209,466.115269 C69.9587284,465.6677 70.5502185,465.410959 71.1749224,465.410959 Z M57.2380952,468.287671 C57.6325952,468.287671 57.952381,468.609383 57.952381,469.006454 L57.952381,469.006454 L57.9458606,469.104533 C57.8985645,469.455519 57.5997202,469.726027 57.2380952,469.726027 C56.8435952,469.726027 56.5238095,469.4041 56.5238095,469.006957 C56.5238095,468.609815 56.8435952,468.287671 57.2380952,468.287671 Z M50.5407674,463.645817 C51.0304947,462.778417 51.9687339,462.366963 52.9309738,462.59742 C53.9375005,462.838614 54.6315904,463.719102 54.6188758,464.738709 C54.6015182,466.126953 53.5849197,466.863958 52.7679695,467.456139 C52.5378919,467.622976 52.3407438,467.768471 52.1833825,467.904369 L52.1833825,467.904369 L53.9046425,467.904369 C54.299153,467.904369 54.6189472,468.204822 54.6189472,468.575472 C54.6189472,468.946122 54.299153,469.246575 53.9046425,469.246575 L53.9046425,469.246575 L51.047638,469.246575 C50.6531275,469.246575 50.3333333,468.946122 50.3333333,468.575472 C50.3333333,467.525867 51.1632125,466.92429 51.8953748,466.393515 C52.6953961,465.813547 53.1818376,465.411691 53.1904093,464.723005 C53.1962666,464.255917 52.8870441,463.972108 52.5779644,463.898018 C52.3929595,463.853792 52.0461646,463.843726 51.8028724,464.274708 C51.6180103,464.602139 51.1857131,464.72683 50.8371324,464.553149 C50.4886232,464.379467 50.3559054,463.973248 50.5407674,463.645817 Z M61.4232455,460.226924 C61.6329123,460.107041 61.8911514,460.106973 62.1006828,460.226924 C62.3102819,460.346808 62.4394014,460.568384 62.4394014,460.808218 L62.4394014,460.808218 L62.4394014,465.506834 L62.5130389,465.506834 C62.8871875,465.506834 63.1904762,465.807349 63.1904762,466.178075 C63.1904762,466.548801 62.8871875,466.849315 62.5130389,466.849315 L62.5130389,466.849315 L61.0108894,466.849315 C60.6367407,466.849315 60.333452,466.548801 60.333452,466.178075 C60.333452,465.807349 60.6367407,465.506834 61.0108894,465.506834 L61.0108894,465.506834 L61.0845268,465.506834 L61.0845268,461.905294 C60.8258135,461.932949 60.5626968,461.811119 60.4242286,461.5735 C60.2371205,461.252445 60.3481524,460.841915 60.6721707,460.656585 L60.6721707,460.656585 Z M54.0057676,453.612871 C54.2549882,453.361952 54.6591021,453.361887 54.9083227,453.612871 C55.1575432,453.863855 55.1575432,454.270725 54.9083227,454.521644 L54.9083227,454.521644 L52.8513753,456.592616 C52.7267969,456.718108 52.5634154,456.780822 52.4000977,456.780822 C52.2367801,456.780822 52.0734624,456.718108 51.9488202,456.592616 C51.6995996,456.341632 51.6995996,455.934763 51.9488202,455.683843 L51.9488202,455.683843 Z M69.0916773,453.612849 C69.3409618,453.361927 69.7450756,453.361927 69.9942324,453.612849 L69.9942324,453.612849 L72.0511798,455.683835 C72.3004004,455.934821 72.3004004,456.341693 72.0511798,456.592615 C71.9266014,456.718108 71.7632199,456.780822 71.5999023,456.780822 C71.4365846,456.780822 71.2732669,456.718108 71.1486247,456.592615 L71.1486247,456.592615 L69.0916773,454.521628 C68.8424568,454.270642 68.8424568,453.86377 69.0916773,453.612849 Z M61.4878196,441.515902 C61.9362944,441.37821 62.4110304,441.424975 62.8246261,441.647501 C63.1283595,441.811006 63.3757705,442.058386 63.540123,442.363076 L63.540123,442.363076 L64.8361468,444.768685 L67.4501126,445.235921 C67.9110733,445.317126 68.314626,445.57553 68.5846338,445.963273 C68.8546416,446.351016 68.9588718,446.821607 68.8781206,447.288433 C68.8131803,447.664125 68.6352561,448.000927 68.3630768,448.26385 L68.3630768,448.26385 L66.5522807,450.190994 L66.9198686,452.845079 C66.984266,453.314986 66.8637499,453.781126 66.5805776,454.158667 C66.2973374,454.536209 65.8854382,454.779823 65.4206095,454.844664 C65.0769756,454.892593 64.7321202,454.839392 64.4233654,454.690676 L64.4233654,454.690676 L61.9725307,453.512589 L59.5872471,454.684103 C59.3402432,454.805499 59.0783106,454.863014 58.8203816,454.863014 C58.1683321,454.863014 57.5408473,454.49588 57.2367069,453.865686 C57.0693007,453.51882 57.0187463,453.136759 57.0899296,452.759013 L57.0899296,452.759013 L57.4301027,450.14197 L55.5863276,448.212429 C55.2606082,447.870766 55.086484,447.422291 55.095577,446.949029 C55.10467,446.475768 55.2958266,446.034413 55.6338962,445.706307 C55.8946752,445.453244 56.2202589,445.289875 56.5763787,445.233114 L56.5763787,445.233114 L59.2021518,444.740818 L60.4501998,442.376907 C60.6709426,441.959311 61.0394126,441.653594 61.4878196,441.515902 Z M61.9993347,442.808402 C61.960452,442.808402 61.9212978,442.814222 61.8830257,442.825998 C61.7813742,442.857221 61.6978407,442.926512 61.6478971,443.021068 L61.6478971,443.021068 L60.2463538,445.675701 C60.1492487,445.85961 59.974446,445.988881 59.7714142,446.02695 L59.7714142,446.02695 L56.8142217,446.581416 C56.8065537,446.582854 56.7988857,446.584155 56.7911499,446.585319 C56.7343526,446.593946 56.6506156,446.619691 56.574818,446.693296 C56.4980025,446.76779 56.4546411,446.868098 56.4525305,446.975459 C56.4505696,447.083024 56.4901309,447.184907 56.5639607,447.262414 L56.5639607,447.262414 L58.6339751,449.428723 C58.7772916,449.578739 58.8451498,449.786407 58.818278,449.99298 L58.818278,449.99298 L58.4327755,452.958739 C58.4306041,452.97524 58.4278897,452.991604 58.4245647,453.0079 C58.4120788,453.06918 58.4075323,453.163668 58.456933,453.26603 C58.5537667,453.466783 58.7943919,453.550589 58.9932843,453.452746 L58.9932843,453.452746 L61.6724618,452.136899 C61.8581218,452.045697 62.074793,452.044739 62.2612674,452.134365 L62.2612674,452.134365 L65.0075566,453.454458 C65.0765006,453.487597 65.1550803,453.499169 65.2348137,453.488008 C65.340469,453.473287 65.4341133,453.417827 65.4985107,453.332035 C65.562976,453.246174 65.5903229,453.140183 65.5757333,453.033507 L65.5757333,453.033507 L65.1630876,450.053849 C65.1345193,449.847482 65.2006132,449.639198 65.3427083,449.488017 L65.3427083,449.488017 L67.3909402,447.308152 L67.3909402,447.308152 L67.4204585,447.278642 C67.4650414,447.23667 67.5222458,447.163407 67.5413818,447.052966 C67.5597714,446.946359 67.5360211,446.838999 67.4744058,446.750536 C67.4127906,446.662073 67.3207748,446.603121 67.2152553,446.584566 L67.2152553,446.584566 L64.2778095,446.059541 C64.0744385,446.023184 63.89855,445.89542 63.7999521,445.712332 L63.7999521,445.712332 L62.3481259,443.017713 C62.3110074,442.948901 62.2549565,442.892893 62.1859448,442.855783 C62.1275867,442.824355 62.0637321,442.808402 61.9993347,442.808402 Z M52.4373449,447.67883 C52.7972749,447.621509 53.1311382,447.894757 53.1835347,448.289289 C53.2358654,448.68382 52.9866528,449.050269 52.6269203,449.107662 L52.6269203,449.107662 L49.6578932,449.581461 C49.6257049,449.586514 49.5937798,449.589041 49.5622498,449.589041 C49.2406957,449.589041 48.9594263,449.330303 48.9117034,448.971002 C48.8593727,448.57647 49.1085853,448.210022 49.4683178,448.152629 L49.4683178,448.152629 Z M71.473459,447.671263 L71.5626551,447.678796 L74.5316822,448.152585 C74.8914147,448.209977 75.1406273,448.576418 75.0882966,448.970942 C75.0406395,449.330309 74.7593043,449.589041 74.4377502,449.589041 C74.4061543,449.589041 74.3742293,449.586587 74.3421068,449.581461 L74.3421068,449.581461 L71.3730797,449.107672 C71.0133472,449.05028 70.7641346,448.683839 70.8164653,448.289315 C70.868796,447.894791 71.2031859,447.621621 71.5626551,447.678796 Z M51.3716533,440.336231 C51.5484949,440.014705 51.9402876,439.904527 52.2465739,440.090196 L52.2465739,440.090196 L54.7748767,441.622202 C55.081227,441.807804 55.1862047,442.218938 55.0092991,442.540464 C54.8906788,442.756115 54.6754073,442.876712 54.4540512,442.876712 C54.3453586,442.876712 54.2352569,442.847672 54.1343785,442.786499 L54.1343785,442.786499 L51.6060757,441.254494 C51.2997253,441.068892 51.1947477,440.657758 51.3716533,440.336231 Z M71.7534261,440.09021 C72.0597764,439.904542 72.4514411,440.014652 72.6283467,440.336244 C72.8052523,440.657769 72.7002747,441.068901 72.3939243,441.254502 L72.3939243,441.254502 L69.8656215,442.7865 C69.7647431,442.847605 69.6545774,442.876712 69.5459488,442.876712 C69.3245927,442.876712 69.1092571,442.756115 68.9907009,442.540466 C68.8137953,442.218941 68.918773,441.807809 69.2251233,441.622208 L69.2251233,441.622208 Z" id="leaderboard-ic"></path>
        </g>
    </g>
</svg>