<?xml version="1.0" encoding="UTF-8"?>
<svg width="80px" height="50px" viewBox="0 0 80 50" version="1.1" xmlns="http://www.w3.org/2000/svg" xmlns:xlink="http://www.w3.org/1999/xlink">
    <title>YAS_MARINA_CIRCUIT   </title>
    <g id="new-relase" stroke="none" stroke-width="1" fill="none" fill-rule="evenodd">
        <path d="M17.9327473,0.629221077 C15.9005695,0.629221077 14.4968949,2.66071453 15.2152871,4.56141681 C15.424831,5.11412086 15.2574739,5.73287748 14.7980584,6.10504349 C12.5429323,7.93224972 10.3645908,10.1119677 8.65762961,12.5381355 C5.81197772,16.5813021 2.23936393,25.8100898 0.657447088,32.66306 C-0.145383185,36.1439784 -0.153573362,41.052039 0.313520942,46.3889383 C0.491092772,48.4088185 2.44497948,49.7823493 4.39991385,49.2523001 C5.61178739,48.9235978 6.61020121,48.7341552 7.23814357,48.7341552 C7.61970069,48.7341552 8.02077345,48.8256451 8.86980275,49.1027997 L9.66473173,49.3694496 C12.0110995,50.1598244 13.2050403,50.247224 14.1424473,49.0757514 C14.978783,48.0306292 14.0860769,45.4374535 11.8993673,40.8877181 L11.6395137,40.351506 L11.3761802,39.8163916 C10.4337267,37.9150547 9.41954405,36.0032462 8.47145709,34.2874097 C8.29812445,33.9735648 8.23944595,33.6101064 8.30467425,33.2544569 L9.0504407,29.2046922 C9.1374666,28.7345481 9.43608496,28.3295383 9.85978131,28.1076511 L11.3649224,27.3185107 C12.2047096,26.8780089 13.2391562,27.2832305 13.5566068,28.1768333 L14.1484036,29.8452541 C14.7682295,31.5899876 16.7696089,32.4050866 18.4317935,31.5898685 L21.8130135,29.9327398 C23.4590292,29.1256082 24.0487603,27.0740588 23.0818457,25.5171623 L17.2181708,16.0697029 C16.6918371,15.2219357 16.8882931,14.1138973 17.6738848,13.4984618 L22.0536009,10.0678125 C23.0212229,9.31061527 24.4393742,9.62217064 25.0006908,10.7155226 L33.9586234,28.1841842 C34.9034706,30.0257703 37.1356716,30.7900853 39.010401,29.9143134 L45.2122579,27.0154437 C46.6220618,26.3558019 47.4941254,24.9182298 47.4248905,23.3642904 C47.2589691,19.6354835 48.2858436,16.7067179 51.0592911,15.5859297 L51.5092153,15.4080372 C53.2734166,14.7274514 54.6567308,14.4057489 57.2814281,13.9774187 L59.02971,13.695438 C59.1742032,13.6710594 59.3105515,13.6474349 59.4513305,13.6224284 C61.7242181,13.2186975 63.437406,12.7084181 65.29741,11.7782719 C67.8421171,10.5059184 69.5797678,9.03726015 70.6577248,7.52569305 C71.0545023,6.96931166 71.6915317,6.66539397 72.3482945,6.71976532 L72.88672,6.76085042 C76.5094333,7.01410731 78.962994,6.692768 79.6108616,5.11875424 C80.8645382,2.07494396 79.1664626,0.67330384 73.3867202,0.630245704 L17.9327473,0.629221077 Z M17.9327473,2.16867749 L73.367275,2.16919716 L73.8621211,2.17341234 C78.2599198,2.23181262 78.8844566,2.84012059 78.1873475,4.53263683 C77.9186668,5.18540459 75.4909214,5.43397606 72.4749949,5.18553165 C71.2712919,5.08588076 70.1126189,5.63866714 69.4043381,6.63185411 C68.4742148,7.93612128 66.9313778,9.24012342 64.6089014,10.4013616 C63.0046406,11.2036164 61.5182942,11.6666064 59.57666,12.0343479 L59.1820928,12.1066985 C58.863176,12.1633474 58.5654559,12.2130556 58.1322354,12.2823993 L57.018049,12.4605819 C54.0758319,12.9411353 52.6027516,13.3012256 50.4823304,14.1586798 C46.9330841,15.5929789 45.6952094,19.1235416 45.8869578,23.4327681 C45.9284646,24.3643655 45.4064051,25.2249659 44.5601094,25.6209444 L38.3586818,28.5196133 C37.2343477,29.0448413 35.895188,28.5863073 35.3283972,27.4815849 L26.3703731,10.012745 C25.3674143,8.05914689 22.8337639,7.50252615 21.104588,8.85566555 L16.7245452,12.2865706 C15.3206932,13.3863534 14.9696024,15.366553 15.9102246,16.881616 L21.7739598,26.3291725 C22.2602883,27.112244 21.9636122,28.1443174 21.135377,28.5504465 L17.7541041,30.2076011 C16.9177239,30.6178035 15.9108995,30.2077556 15.5991653,29.3302626 L15.0073702,27.6618466 C14.3762611,25.885315 12.3192648,25.0795322 10.6499527,25.955153 L9.14526412,26.7440562 C8.30297081,27.1851599 7.70971934,27.9897745 7.53657006,28.9251904 L6.79057456,32.9761982 C6.66126385,33.6812484 6.77825287,34.4058859 7.12393978,35.0318042 C8.06193115,36.7293698 9.06601071,38.6221332 9.99590265,40.4981212 L10.2562144,41.0270704 L10.5129335,41.5568377 C12.2083819,45.0844492 13.1577856,47.8423231 12.9404579,48.1139055 C12.6129151,48.523234 11.9197346,48.489157 10.3489104,47.9745957 L9.31083054,47.6270359 C8.31103412,47.3008008 7.82672124,47.1946988 7.23814357,47.1946988 C6.43719993,47.1946988 5.33204109,47.4043956 3.99699014,47.7665079 C2.9699893,48.0449627 1.94090181,47.3215414 1.84708881,46.2544185 C1.39333757,41.069973 1.40131768,36.2877959 2.15749043,33.0091757 C3.6985147,26.3333549 7.20379165,17.2785119 9.91661498,13.4240711 C11.5298402,11.1311338 13.6133574,9.04629998 15.7671455,7.30120248 C16.7002334,6.54532115 17.067713,5.30379509 16.7085382,4.17025591 L16.6550406,4.01640747 C16.3175189,3.12340073 16.9771916,2.16867749 17.9327473,2.16867749 Z" id="YAS_MARINA_CIRCUIT---" fill="#999999" fill-rule="nonzero"></path>
    </g>
</svg>