<svg xmlns="http://www.w3.org/2000/svg" width="17" height="16" viewBox="0 0 17 16">
  <path d="M14.6972285,8.96998693 C14.7465111,9.02706167 14.7940509,9.08575513 14.839848,9.1460674 C15.3517607,9.82022807 15.6077132,10.6516805 15.6077132,11.6404495 C15.6077132,13.0037521 15.1149091,14.0711572 14.1292862,14.8426966 C13.1436633,15.6142361 11.7722164,16 10.0149042,16 L2.6113087,16 L2.6113087,8.96998693 L0,8.96998693 L0,6.97678207 L2.6113087,6.97678207 L2.6113087,0 L9.78569069,0 C11.466598,0 12.7883825,0.370782809 13.751084,1.11235955 C14.7137854,1.85393629 15.1951289,2.87639798 15.1951289,4.17977528 C15.1951289,5.01873079 14.9697379,5.74906056 14.5189491,6.37078652 C14.3566466,6.59463353 14.1720605,6.79663187 13.9651899,6.97678207 L16.7065459,6.97678207 L16.7065459,8.96998693 L14.6972285,8.96998693 Z M5.49939858,6.74157307 L9.30434242,6.74157307 C11.3519931,6.74157307 12.3758031,5.99251685 12.3758031,4.49438202 C12.3758031,3.74531461 12.1236708,3.18352247 11.6193986,2.80898877 C11.1151264,2.43445505 10.3434487,2.24719101 9.30434242,2.24719101 L5.49939858,2.24719101 L5.49939858,6.74157307 Z M9.69400534,13.752809 C10.7636736,13.752809 11.5468118,13.5655449 12.0434436,13.1910113 C12.5400752,12.8164775 12.7883874,12.2247231 12.7883874,11.4157303 C12.7883874,10.5917562 12.5400752,9.98502067 12.0434436,9.5955056 C11.5468118,9.20599053 10.7636736,9.01123593 9.69400534,9.01123593 L5.49939858,9.01123593 L5.49939858,13.752809 L9.69400534,13.752809 Z"/>
</svg>
