<?xml version="1.0" encoding="UTF-8" standalone="no"?>
<svg width="18px" height="16px" viewBox="0 0 18 16" version="1.1" xmlns="http://www.w3.org/2000/svg" xmlns:xlink="http://www.w3.org/1999/xlink">
    <!-- Generator: Sketch 47.1 (45422) - http://www.bohemiancoding.com/sketch -->
    <title>tw-ic</title>
    <desc>Created with Sketch.</desc>
    <defs></defs>
    <g id="Page-1" stroke="none" stroke-width="1" fill="none" fill-rule="evenodd">
        <g id="5-FS-Emailer-Reminder" transform="translate(-779.000000, -39.000000)" fill="#FFFFFF">
            <g id="Group-4-Copy" transform="translate(728.000000, 32.000000)">
                <g id="Group" transform="translate(45.000000, 0.000000)">
                    <path d="M23.3488147,9.65551698 C23.4798119,9.20578723 23.3299863,8.71946104 22.9670399,8.42668941 C22.7611299,8.25956561 22.5119547,8.17539377 22.2591741,8.17539377 C22.0596738,8.17539377 21.8601734,8.22825531 21.6811038,8.33682479 C21.3253682,8.54867759 20.9532079,8.71864778 20.5646228,8.83860282 C19.8219046,8.26200537 18.9009179,7.94117647 17.9542927,7.94117647 C15.7846261,7.94117647 13.9871197,9.58395058 13.7038933,11.7081714 C11.9740889,11.3324478 10.3981161,10.3650815 9.26280681,8.9516452 C9.04648111,8.68083145 8.72199256,8.52631309 8.3830823,8.52631309 C8.35463947,8.52631309 8.32459424,8.52834623 8.2941484,8.53037936 C7.92238868,8.56006315 7.59028867,8.77272921 7.40240579,9.09884427 C7.0210316,9.76205332 6.82032942,10.51838 6.82032942,11.2889387 C6.82032942,11.8094215 6.91126633,12.3156725 7.07951966,12.78858 C6.89844703,12.9975864 6.79348901,13.2684001 6.79348901,13.5546657 C6.79348901,14.6964751 7.21812835,15.7463866 7.9255935,16.5352435 C7.88192776,16.7320511 7.88873801,16.9402443 7.95243391,17.1394916 C8.19720244,17.9177762 8.64507676,18.5874913 9.22434891,19.0986217 C8.84818255,19.1852333 8.45879629,19.2295557 8.06380159,19.2295557 C7.85909338,19.2295557 7.65198155,19.216137 7.44326731,19.192146 C7.39920097,19.1864532 7.35513462,19.1836068 7.31026707,19.1836068 C6.83515174,19.1836068 6.40490396,19.4853242 6.24346089,19.9500992 C6.06439128,20.454317 6.25387657,21.018309 6.69774486,21.3082342 C8.32860027,22.3683115 10.2130375,22.9290505 12.1467489,22.9290505 C18.4181911,22.9290505 22.1870656,17.805547 22.2547675,12.8044384 C22.7651359,12.3632479 23.2138114,11.8553704 23.5943844,11.288532 C23.7382009,11.0957907 23.8235294,10.8562873 23.8235294,10.5940127 C23.8235294,10.2081234 23.6360471,9.86574327 23.3488147,9.65551698 Z M21.1102443,12.251832 C21.1174552,12.3888654 21.1202594,12.5271187 21.1202594,12.6657785 C21.1202594,16.8963285 17.947883,21.7742291 12.1467489,21.7742291 C10.3660679,21.7742291 8.70797145,21.2443937 7.31146888,20.3359885 C7.55703861,20.3636391 7.80941859,20.3811241 8.06380159,20.3811241 C9.5416266,20.3811241 10.9012737,19.8687737 11.9812998,19.0095704 C10.5996195,18.9847661 9.43586737,18.0580626 9.03406241,16.7865391 C9.22675253,16.8239489 9.42465048,16.8446868 9.62615386,16.8446868 C9.91458813,16.8446868 10.1934079,16.8048374 10.4574054,16.7320511 C9.01443286,16.4364331 7.92679531,15.1441717 7.92679531,13.5916688 L7.92679531,13.5518193 C8.35223586,13.7909162 8.83896868,13.9348622 9.35574674,13.9511273 C8.50967289,13.3769696 7.95363572,12.3961847 7.95363572,11.2860923 C7.95363572,10.6997358 8.10906975,10.1503823 8.38067868,9.67747485 C9.93501889,11.6142405 12.259719,12.8882037 14.881266,13.0215774 C14.8267839,12.7881733 14.8003441,12.5425705 14.8003441,12.2916815 C14.8003441,10.5252927 16.2120696,9.0919316 17.9530909,9.0919316 C18.8608576,9.0919316 19.6808923,9.48066726 20.2561584,10.1015871 C20.9736386,9.95886091 21.6494561,9.69252006 22.2587735,9.32533565 C22.0228183,10.0723099 21.5224649,10.6997358 20.872286,11.0957907 C21.5096456,11.0193448 22.1165594,10.8473415 22.6830123,10.5915729 C22.2611771,11.2368904 21.7271731,11.8004757 21.1102443,12.251832 Z" id="tw-ic"></path>
                </g>
            </g>
        </g>
    </g>
</svg>