<?xml version="1.0" encoding="UTF-8"?>
<svg width="50px" height="50px" viewBox="0 0 50 50" version="1.1" xmlns="http://www.w3.org/2000/svg" xmlns:xlink="http://www.w3.org/1999/xlink">
    <!-- Generator: Sketch 47.1 (45422) - http://www.bohemiancoding.com/sketch -->
    <title>ic-invite</title>
    <desc>Created with Sketch.</desc>
    <defs></defs>
    <g id="Page-1" stroke="none" stroke-width="1" fill="none" fill-rule="evenodd">
        <g id="01.2-Event-Details-About" transform="translate(-1160.000000, -1145.000000)" fill-rule="nonzero">
            <g id="ic-invite" transform="translate(1160.000000, 1145.000000)">
                <g id="Group" transform="translate(2.050781, 1.562500)" fill="#FFFFFF">
                    <path d="M43.625,24.7757812 L43.625,2.34375 C43.625,1.0515625 42.5734375,0 41.28125,0 L5.34375,0 C4.0515625,0 3,1.0515625 3,2.34375 L3,24.7757812 L23.3125,31.9828125 L43.625,24.7757812 Z M9.25,16.40625 L37.375,16.40625 L37.375,17.96875 L9.25,17.96875 L9.25,16.40625 Z M9.25,19.53125 L37.375,19.53125 L37.375,21.09375 L9.25,21.09375 L9.25,19.53125 Z M9.25,22.65625 L37.375,22.65625 L37.375,24.21875 L9.25,24.21875 L9.25,22.65625 Z M15.5,25.78125 L31.125,25.78125 L31.125,27.34375 L15.5,27.34375 L15.5,25.78125 Z" id="Shape"></path>
                    <polygon id="Shape" points="1.07421875 22.5398437 0.0265625 23.85 1.07421875 24.2210938"></polygon>
                    <polygon id="Shape" points="44.8242188 22.5398437 44.8242188 24.2210938 45.871875 23.85"></polygon>
                </g>
                <path d="M24.7382812,35.1109375 L1.5625,26.8875 L1.5625,46.09375 C1.5625,47.3859375 2.6140625,48.4375 3.90625,48.4375 L46.09375,48.4375 C47.3859375,48.4375 48.4375,47.3859375 48.4375,46.09375 L48.4375,26.8875 L25.2609375,35.1109375 C25.0921875,35.1710937 24.9078125,35.1710937 24.7382812,35.1109375 Z M44.53125,44.53125 L46.09375,44.53125 L46.09375,46.09375 L44.53125,46.09375 L44.53125,44.53125 Z M41.40625,44.53125 L42.96875,44.53125 L42.96875,46.09375 L41.40625,46.09375 L41.40625,44.53125 Z M38.28125,44.53125 L39.84375,44.53125 L39.84375,46.09375 L38.28125,46.09375 L38.28125,44.53125 Z" id="Shape" fill="#EEC97B"></path>
                <g id="Group" fill="#666666">
                    <path d="M49.8265625,25.2945313 L49.8289062,25.2929688 L46.875,21.6007813 L46.875,3.90625 C46.875,1.75234375 45.1226562,0 42.96875,0 L7.03125,0 C4.87734375,0 3.125,1.75234375 3.125,3.90625 L3.125,21.6007813 L0.17109375,25.2929688 L0.1734375,25.2945313 C0.0640625,25.4320312 0,25.6015625 0,25.78125 L0,46.09375 C0,48.2476562 1.75234375,50 3.90625,50 L46.09375,50 C48.2476562,50 50,48.2476562 50,46.09375 L50,25.78125 C50,25.6015625 49.9359375,25.4320312 49.8265625,25.2945313 Z M46.875,24.1023437 L47.9226563,25.4125 L46.875,25.7835938 L46.875,24.1023437 Z M4.6875,3.90625 C4.6875,2.6140625 5.7390625,1.5625 7.03125,1.5625 L42.96875,1.5625 C44.2609375,1.5625 45.3125,2.6140625 45.3125,3.90625 L45.3125,26.3382813 L25,33.5453125 L4.6875,26.3382813 L4.6875,3.90625 Z M3.125,24.1023437 L3.125,25.7835938 L2.07734375,25.4117188 L3.125,24.1023437 Z M48.4375,46.09375 C48.4375,47.3859375 47.3859375,48.4375 46.09375,48.4375 L3.90625,48.4375 C2.6140625,48.4375 1.5625,47.3859375 1.5625,46.09375 L1.5625,26.8875 L24.7382812,35.1109375 C24.9078125,35.1703125 25.0914062,35.1703125 25.2609375,35.1109375 L48.4375,26.8875 L48.4375,46.09375 Z" id="Shape"></path>
                    <rect id="Rectangle-path" x="44.53125" y="44.53125" width="1.5625" height="1.5625"></rect>
                    <rect id="Rectangle-path" x="41.40625" y="44.53125" width="1.5625" height="1.5625"></rect>
                    <rect id="Rectangle-path" x="38.28125" y="44.53125" width="1.5625" height="1.5625"></rect>
                    <rect id="Rectangle-path" x="10.9375" y="21.09375" width="28.125" height="1.5625"></rect>
                    <rect id="Rectangle-path" x="10.9375" y="24.21875" width="28.125" height="1.5625"></rect>
                    <rect id="Rectangle-path" x="17.1875" y="27.34375" width="15.625" height="1.5625"></rect>
                </g>
                <path d="M27.9313455,15.4768 C28.8258909,15.9242182 29.3818182,16.8234182 29.3818182,17.8238545 L29.3818182,19 L16,19 L16,17.7671273 C16,16.8059636 16.5239273,15.9233455 17.3678545,15.4625455 L19.9630545,14.0469818 C20.2100364,13.912 20.3636364,13.6536727 20.3636364,13.3720727 L20.3636364,12.4094545 C20.1687273,12.1543273 19.6110545,11.3592727 19.3445818,10.3041455 C19.0699636,10.0839273 18.9090909,9.75374545 18.9090909,9.39970909 L18.9090909,8.23607273 C18.9090909,7.95592727 19.0138182,7.68450909 19.2,7.47243636 L19.2,5.92509091 C19.1837091,5.76538182 19.1197091,4.81265455 19.8085818,4.02690909 C20.4061091,3.3456 21.3757091,3 22.6909091,3 C24.0061091,3 24.9757091,3.3456 25.5732364,4.0272 C26.2621091,4.81294545 26.1981091,5.76538182 26.1818182,5.92538182 L26.1818182,7.47272727 C26.368,7.6848 26.4727273,7.95621818 26.4727273,8.23636364 L26.4727273,9.4 C26.4727273,9.85818182 26.2062545,10.264 25.7957818,10.4522182 C25.5857455,11.0634182 25.2968727,11.6301091 24.9364364,12.1392 C24.864,12.2416 24.7938909,12.3344 24.7272727,12.4158545 L24.7272727,13.3994182 C24.7272727,13.6926545 24.8901818,13.9562182 25.1522909,14.0874182 L27.9313455,15.4768 Z M32.1358545,15.8075636 C32.9547636,16.2168727 33.4545455,17.0250182 33.4545455,17.9245091 L33.4545455,19 L29.8178909,19 L29.8178909,17.8232727 C29.8178909,16.6564364 29.1697455,15.6077091 28.1262545,15.0858182 L25.3472,13.6964364 C25.2322909,13.6391273 25.1636364,13.5277091 25.1636364,13.3991273 L25.1636364,12.5671273 C25.2058182,12.5118545 25.2488727,12.4533818 25.2925091,12.3914182 C25.6448,11.8939636 25.9328,11.3444364 26.1504,10.7562182 C26.6167273,10.4682182 26.9088,9.95476364 26.9088,9.4 L26.9088,8.23636364 C26.9088,7.90938182 26.8064,7.59083636 26.6178909,7.32261818 L26.6178909,5.94574545 C26.6336,5.76887273 26.6548364,5.22370909 26.4244364,4.61454545 C26.7336727,4.53978182 27.0600727,4.49730909 27.4053818,4.4944 C30.8418909,4.52261818 30.9565091,8.00247273 30.9573818,8.03767273 C30.9969455,10.0839273 32.2632727,12.1013818 32.8058182,12.8734545 C32.9559273,13.0875636 33.0013091,13.3549091 32.9297455,13.6074182 C32.8587636,13.8576 32.6818909,14.0597818 32.4442182,14.1621818 C32.048,14.3323636 31.5927273,14.3678545 31.2805818,14.3678545 C31.1104,14.3678545 31.0007273,14.3570909 31.0007273,14.3570909 L29.1025455,14.3585455 C29.1662545,14.4676364 29.2404364,14.5493818 29.3073455,14.5828364 L32.1358545,15.8075636 Z" id="Combined-Shape" fill="#FE7C80"></path>
            </g>
        </g>
    </g>
</svg>