<?xml version="1.0" standalone="no"?>
<!-- Generator: Adobe Fireworks 10, Export SVG Extension by Aaron Beall (http://fireworks.abeall.com) . Version: 0.6.1  -->
<!DOCTYPE svg PUBLIC "-//W3C//DTD SVG 1.1//EN" "http://www.w3.org/Graphics/SVG/1.1/DTD/svg11.dtd">
<svg id="icon-lightbox.fw-Page%201" viewBox="0 0 200 300" style="background-color:#ffffff00" version="1.1"
	xmlns="http://www.w3.org/2000/svg" xmlns:xlink="http://www.w3.org/1999/xlink" xml:space="preserve"
	x="0px" y="0px" width="200px" height="300px"
>
	<defs>
		<filter id="filter1" x="-100%" y="-100%" width="300%" height="300%">
			<!-- Drop Shadow -->
			<feOffset result="out" in="SourceGraphic" dx="0.7071" dy="-0.7071"/>
			<feColorMatrix result="out" in="out" type="matrix" values="0 0 0 0 0  0 0 0 0 0  0 0 0 0 0  0 0 0 0.749 0"/>
			<feGaussianBlur result="out" in="out" stdDeviation="1"/>
			<feBlend in="SourceGraphic" in2="out" mode="normal" result="Drop_Shadow1"/>
		</filter>
		<filter id="filter2" x="-100%" y="-100%" width="300%" height="300%">
			<!-- Drop Shadow -->
			<feOffset result="out" in="SourceGraphic" dx="0.7071" dy="0.7071"/>
			<feColorMatrix result="out" in="out" type="matrix" values="0 0 0 0 0  0 0 0 0 0  0 0 0 0 0  0 0 0 0.749 0"/>
			<feGaussianBlur result="out" in="out" stdDeviation="1"/>
			<feBlend in="SourceGraphic" in2="out" mode="normal" result="Drop_Shadow2"/>
		</filter>
	</defs>
	<g id="Layer%201">
		<g visibility="hidden">
			<rect x="0" y="0" width="24" height="24" fill="#8c0000"/>
			<rect x="0" y="50" width="24" height="24" fill="#8c0000"/>
			<rect x="50" y="0" width="24" height="24" fill="#8c0000"/>
			<rect x="50" y="50" width="24" height="24" fill="#8c0000"/>
			<rect x="100" y="0" width="24" height="24" fill="#8c0000"/>
			<rect x="100" y="50" width="24" height="24" fill="#8c0000"/>
			<rect x="100" y="100" width="24" height="24" fill="#8c0000"/>
			<rect x="100" y="150" width="24" height="24" fill="#8c0000"/>
			<rect x="150" y="100" width="24" height="24" fill="#8c0000"/>
			<rect x="150" y="150" width="24" height="24" fill="#8c0000"/>
			<rect x="150" y="0" width="24" height="24" fill="#8c0000"/>
			<rect x="150" y="50" width="24" height="24" fill="#8c0000"/>
		</g>
		<path filter="url(#filter1)" d="M 107.415 68 L 110.5355 64.8787 L 109.1213 63.4645 L 106 66.585 L 106 63 L 104 63 L 104 70 L 111 70 L 111 68 L 107.415 68 ZM 106 68 L 106 67.6549 L 106.345 68 L 106 68 ZM 118 57.415 L 118 61 L 120 61 L 120 54 L 113 54 L 113 56 L 116.585 56 L 113.4645 59.1213 L 114.8787 60.5355 L 118 57.415 ZM 118 56 L 118 56.345 L 117.6549 56 L 118 56 Z" fill="#ffffff"/>
		<path d="M 5 12 L 9 12 L 9 20 L 5 20 L 5 12 ZM 4 21 L 11 21 C 11 21 16.4855 21.0154 17.1393 20.9754 C 17.6804 20.7979 18.21 19.2163 18.2841 18.6836 C 18.3204 18.4221 18.1899 17.9443 18.0942 17.7188 C 18.4543 17.4453 18.8523 17.0542 18.9132 16.6133 C 18.9557 16.3057 18.8153 15.7871 18.6902 15.5063 C 19.2603 15.2266 19.5922 13.6113 19.0792 13.2837 C 19.5422 12.9316 19.8949 12.1763 19.973 11.6101 C 20.0533 11.0283 19.9623 11.1218 19.5922 10.6553 C 19.2266 10.1951 18.9166 10.082 18.3223 10 L 14.9634 10 C 14.7506 9.9297 14.7372 9.6162 14.7524 9.5615 C 14.8262 9.2925 14.9578 8.3921 15.0974 8.0906 C 15.3101 7.6316 15.5302 7.1572 15.5831 6.6514 C 15.754 5.0474 14.8862 4.2725 14.1115 3.7761 C 13.8257 3.5933 13.504 3.5 13.1556 3.5 C 12.6089 3.5 12.5183 3.7358 12.4718 3.7632 C 12.2915 3.8672 12.1884 4.061 12.2041 4.2634 C 12.2267 4.551 12.228 5.4434 11.9563 6.1055 C 11.7966 6.4946 11.2836 7.2683 10.7838 8.0161 C 10.053 9.1099 9.6002 9.8159 9.4449 10.2795 L 9.3821 10.9404 C 9.27 10.928 9 11 9 11 L 4.63 11 C 4.1626 11.1426 4 11.5044 4 12.2507 L 4 21 ZM 7 18 L 7 19 L 8 19 L 8 18 L 7 18 Z" fill="#ffffff"/>
		<path d="M 54 5 L 54 14 C 54 15.1046 53.3954 16 54.5 16 L 57 16 L 57 20.5 L 62.855 16 L 69 16 C 70.1046 16 71 15.1046 71 14 L 71 5 C 71 3.8954 70.1046 3 69 3 L 56 3 C 54.8954 3 54 3.8954 54 5 Z" fill="#ffffff"/>
		<path d="M 112 9.75 C 110.1772 9.75 108.7 11.2615 108.7 13.125 C 108.7 14.9891 110.1772 16.5 112 16.5 C 113.8223 16.5 115.3 14.9891 115.3 13.125 C 115.3 11.2615 113.8223 9.75 112 9.75 ZM 120.8 6 L 118.16 6 C 117.7969 6 117.4059 6.087 117.2911 5.7346 L 116.6089 3.64 C 116.4937 3.288 116.103 3 115.74 3 L 108.26 3 C 107.897 3 107.5059 3.288 107.3911 3.6404 L 106.7089 5.3599 C 106.5938 5.712 106.2029 6 105.84 6 L 103.2 6 C 101.99 6 101 7.0125 101 8.25 L 101 18.75 C 101 19.9875 101.99 21 103.2 21 L 120.8 21 C 122.01 21 123 19.9875 123 18.75 L 123 8.25 C 123 7.0125 122.01 6 120.8 6 ZM 112 18.75 C 108.9624 18.75 106.5 16.2314 106.5 13.125 C 106.5 10.0186 108.9624 7.5 112 7.5 C 115.0371 7.5 117.5 10.0186 117.5 13.125 C 117.5 16.2314 115.0371 18.75 112 18.75 ZM 120.03 10.1985 C 119.605 10.1985 119.26 9.8461 119.26 9.411 C 119.26 8.9762 119.605 8.6234 120.03 8.6234 C 120.4553 8.6234 120.8 8.9762 120.8 9.411 C 120.8 9.8461 120.4551 10.1985 120.03 10.1985 Z" fill="#cccccc"/>
		<path d="M 155 12 L 159 12 L 159 20 L 155 20 L 155 12 ZM 154 21 L 161 21 C 161 21 166.5401 21.0441 167.1939 21.004 C 167.7349 20.8265 168.21 19.2163 168.2841 18.6836 C 168.3204 18.4221 168.1899 17.9443 168.0942 17.7188 C 168.4543 17.4453 168.8523 17.0542 168.9132 16.6133 C 168.9557 16.3057 168.8153 15.7871 168.6902 15.5063 C 169.2603 15.2266 169.5922 13.6113 169.0792 13.2837 C 169.5422 12.9316 169.8949 12.1763 169.973 11.6101 C 170.0533 11.0283 169.9623 11.1218 169.5922 10.6553 C 169.2266 10.1951 168.9166 10.082 168.3223 10 L 164.9634 10 C 164.7506 9.9297 164.7372 9.6162 164.7524 9.5615 C 164.8262 9.2925 164.9578 8.3921 165.0974 8.0906 C 165.3101 7.6316 165.5302 7.1572 165.5831 6.6514 C 165.754 5.0474 164.8862 4.2725 164.1115 3.7761 C 163.8257 3.5933 163.504 3.5 163.1556 3.5 C 162.6089 3.5 162.5183 3.7358 162.4718 3.7632 C 162.2915 3.8672 162.1884 4.061 162.2041 4.2634 C 162.2267 4.551 162.228 5.4434 161.9563 6.1055 C 161.7966 6.4946 161.2836 7.2683 160.7838 8.0161 C 160.053 9.1099 159.6002 9.8159 159.4449 10.2795 L 159.3821 10.9404 C 159.27 10.928 159 11 159 11 L 154.63 11 C 154.1626 11.1426 154 11.5044 154 12.2507 L 154 21 ZM 157 18 L 157 19 L 158 19 L 158 18 L 157 18 Z" fill="#cccccc"/>
		<path d="M 5 62 L 9 62 L 9 70 L 5 70 L 5 62 ZM 4 71 L 11 71 C 11 71 16.4399 70.9775 17.0938 70.9375 C 17.6348 70.76 18.21 69.2163 18.2841 68.6836 C 18.3204 68.4221 18.1899 67.9443 18.0942 67.7188 C 18.4543 67.4453 18.8523 67.0542 18.9132 66.6133 C 18.9557 66.3057 18.8153 65.7871 18.6902 65.5063 C 19.2603 65.2266 19.5922 63.6113 19.0792 63.2837 C 19.5422 62.9316 19.8949 62.1763 19.973 61.6101 C 20.0533 61.0283 19.9623 61.1218 19.5922 60.6553 C 19.2266 60.1951 18.9166 60.082 18.3223 60 L 14.9634 60 C 14.7506 59.9297 14.7372 59.6162 14.7524 59.5615 C 14.8262 59.2925 14.9578 58.3921 15.0974 58.0906 C 15.3101 57.6316 15.5302 57.1572 15.5831 56.6514 C 15.754 55.0474 14.8862 54.2725 14.1115 53.7761 C 13.8257 53.5933 13.504 53.5 13.1556 53.5 C 12.6089 53.5 12.5183 53.7358 12.4718 53.7632 C 12.2915 53.8672 12.1884 54.061 12.2041 54.2634 C 12.2267 54.551 12.228 55.4434 11.9563 56.1055 C 11.7966 56.4946 11.2836 57.2683 10.7838 58.0161 C 10.053 59.1099 9.6002 59.8159 9.4449 60.2795 L 9.3821 60.9404 C 9.27 60.928 9 61 9 61 L 4.63 61 C 4.1626 61.1427 4 61.5044 4 62.2507 L 4 71 ZM 7 68 L 7 69 L 8 69 L 8 68 L 7 68 Z" fill="#0053a0"/>
		<path id="Forma%201" d="M 64.9609 56 C 63.1083 56 62.2192 57.7217 62 58.2078 C 61.686 57.5332 60.9747 56 59.0391 56 C 56.8083 56 55 57.8899 55 60.2212 C 55 60.8477 55.106 61.4504 55.2914 62.0259 C 55.2914 62.0259 55.4595 62.5454 55.6084 62.8311 C 57.311 66.4866 62 68 62 68 C 62 68 66.689 66.4866 68.3916 62.8311 C 68.3916 62.8311 68.6112 62.344 68.7086 62.0259 C 68.8857 61.4475 69 60.8477 69 60.2212 C 69 57.8899 67.1917 56 64.9609 56 Z" fill="#cccccc"/>
		<path filter="url(#filter2)" d="M 155.636 69.7782 L 162 63.415 L 168.364 69.7782 L 169.7782 68.364 L 163.4149 62 L 169.7782 55.636 L 168.364 54.2218 L 162 60.585 L 155.636 54.2218 L 154.2218 55.636 L 160.585 62 L 154.2218 68.364 L 155.636 69.7782 Z" fill="#ffffff"/>
		<path id="Ellipse" d="M 52 125 C 52 112.2972 62.2973 102 75 102 C 87.7027 102 98 112.2972 98 125 C 98 137.7028 87.7027 148 75 148 C 62.2973 148 52 137.7028 52 125 Z" fill="#000000"/>
		<path id="Ellipse2" d="M 48 125 C 48 112.2972 37.7027 102 25 102 C 12.2973 102 2 112.2972 2 125 C 2 137.7028 12.2973 148 25 148 C 37.7027 148 48 137.7028 48 125 Z" fill="#000000"/>
		<path d="M 50 125 C 50 138.8073 61.1927 150 75 150 C 88.8073 150 100 138.8073 100 125 C 100 111.1927 88.8073 100 75 100 C 61.1927 100 50 111.1927 50 125 ZM 52 126.5 L 52 124.5 C 52.2661 111.7521 62.1882 101.5 75 101.5 C 87.9788 101.5 98.5 112.0212 98.5 125 C 98.5 137.9788 88.4338 148.5 75.455 148.5 C 62.98 148.5 52.7735 138.7798 52 126.5 ZM 81 126.5 L 70.344 137.1569 L 71.3431 138.571 L 84.1931 125.3909 L 71.3431 112.429 L 70.344 113.8431 L 81 124.5 L 81 126.5 Z" fill="#ffffff"/>
		<path d="M 50 125 C 50 138.8073 38.8073 150 25 150 C 11.1927 150 0 138.8073 0 125 C 0 111.1927 11.1927 100 25 100 C 38.8073 100 50 111.1927 50 125 ZM 48 126.5 L 48 124.5 C 47.7339 111.7521 37.8118 101.5 25 101.5 C 12.0212 101.5 1.5 112.0212 1.5 125 C 1.5 137.9788 11.5662 148.5 24.545 148.5 C 37.02 148.5 47.2265 138.7798 48 126.5 ZM 19 126.5 L 29.656 137.1569 L 28.6569 138.571 L 15.8069 125.3909 L 28.6569 112.429 L 29.656 113.8431 L 19 124.5 L 19 126.5 Z" fill="#ffffff"/>
		<path d="M 119.9417 111.0132 C 119.7937 109.6702 119.2981 108.4431 118.4971 107.3501 C 117.2064 105.5898 115.4805 104.5137 113.3252 104.1389 C 112.8953 104.0645 112.4557 104.0449 112.0208 104 C 111.9919 104 111.9631 104 111.9344 104 C 111.5281 104.0444 111.12 104.0737 110.7163 104.1356 C 106.572 104.7701 103.5756 108.6853 104.0493 112.8506 C 104.2754 114.8386 105.1101 116.5341 106.5919 117.886 C 108.3538 119.4939 110.4467 120.1833 112.8196 119.9585 C 114.6403 119.7854 116.2294 119.0527 117.5391 117.7739 C 119.441 115.916 120.2321 113.6443 119.9417 111.0132 ZM 118.2529 115.1066 C 118.0505 114.7542 117.7947 114.2627 117.6804 113.8433 C 117.5144 113.2343 117.1157 113.8226 117.0824 114.2203 C 117.0491 114.618 116.7834 114.9163 116.252 114.3198 C 115.7205 113.7231 115.6206 113.8558 115.4546 113.8558 C 115.2886 113.8558 114.9897 114.2535 115.056 116.1094 C 115.1035 117.4347 115.6273 117.6448 115.9697 117.741 C 115.3342 118.1768 114.6038 118.5203 113.7837 118.728 C 110.6504 119.5215 107.4519 118.0806 105.9575 115.2178 C 104.5654 112.5508 105.2437 109.5327 106.6589 107.8716 C 106.6969 108.1702 106.7343 108.4386 106.7653 108.708 C 106.8496 109.4436 106.786 110.1697 106.6355 110.8926 C 106.6034 111.0468 106.6146 111.2223 106.6563 111.3738 C 106.679 111.4565 106.804 111.5543 106.8904 111.5625 C 106.9585 111.5691 107.0771 111.4615 107.1047 111.3807 C 107.1545 111.2363 107.1565 111.0745 107.1719 110.9191 C 107.1829 110.8096 107.1831 110.6985 107.1907 110.5267 C 107.303 110.6177 107.385 110.6727 107.4531 110.7411 C 107.6267 110.9155 107.8022 111.0891 107.9607 111.2766 C 108.0306 111.3596 108.1028 111.4763 108.1008 111.5764 C 108.0964 111.7908 108.1908 111.9365 108.3059 112.105 C 108.4338 112.292 108.4915 112.5276 108.5737 112.7444 C 108.6083 112.8352 108.6155 112.9377 108.6565 113.0251 C 108.7441 113.2122 108.8767 113.3405 109.1046 113.3542 C 109.3442 113.3694 109.4341 113.4622 109.4685 113.7069 C 109.4071 113.7139 109.3462 113.722 109.2849 113.7278 C 108.9926 113.7554 108.8477 113.8894 108.8593 114.1838 C 108.8821 114.7681 109.0934 115.2786 109.5281 115.6846 C 109.6479 115.7964 109.7751 115.9004 109.8916 116.0154 C 110.1575 116.2773 110.2502 116.585 110.1224 116.9468 C 110.0613 117.1191 109.9773 117.2885 109.9502 117.4668 C 109.9226 117.6482 109.9224 117.8447 109.9644 118.0221 C 110.0081 118.2065 109.9893 118.6101 110.1803 118.5767 C 110.5181 118.5177 110.7122 118.5841 110.7385 118.2065 C 110.7434 118.1348 110.7379 118.1257 110.7186 118.0593 C 110.6183 117.7053 111.0742 116.6997 111.3479 116.5164 C 111.5817 116.3595 111.8162 116.2 112.0281 116.0157 C 112.3335 115.751 112.4703 115.4086 112.3418 115.01 C 112.2212 114.6353 112.3625 114.3597 112.625 114.1187 C 112.8933 113.8723 113.0691 113.5889 113.0508 113.2102 C 113.0322 112.8315 112.7839 112.5581 112.4602 112.5969 C 112.302 112.6156 112.1503 112.6913 111.9961 112.7434 C 111.7699 112.8195 111.5493 112.9263 111.3171 112.9678 C 110.9918 113.0254 110.7913 112.8132 110.6462 112.5558 C 110.5294 112.3488 110.491 112.3328 110.2883 112.4618 C 110.1172 112.5709 109.9467 112.6809 109.7694 112.7795 C 109.5854 112.8821 109.4852 112.844 109.3433 112.6906 C 109.2594 112.6001 109.1432 112.5366 109.0354 112.4711 C 108.9579 112.4237 108.853 112.4109 108.7908 112.3513 C 108.7075 112.271 108.5913 112.1516 108.603 112.0645 C 108.6168 111.9622 108.7356 111.8342 108.8394 111.7922 C 109.0178 111.72 109.2207 111.7083 109.4124 111.6667 C 109.5143 111.6447 109.6178 111.6216 109.7142 111.5835 C 109.8462 111.5311 109.8406 111.4446 109.7395 111.3635 C 109.6897 111.3235 109.6282 111.2954 109.5681 111.2715 C 109.2761 111.1541 108.9825 111.042 108.6908 110.9242 C 108.6183 110.8953 108.5469 110.8594 108.4817 110.817 C 108.2983 110.6968 108.2762 110.5642 108.4426 110.4177 C 109.0999 109.8395 109.8672 109.6702 110.5474 110.4385 C 110.7581 110.6765 110.9009 110.9731 111.0999 111.2229 C 111.2563 111.4198 111.4364 111.6047 111.6354 111.7566 C 111.7173 111.8191 111.9016 111.8296 111.9933 111.7795 C 112.1299 111.705 112.1345 111.5349 112.0659 111.3932 C 112.0065 111.27 111.9368 111.1487 111.8528 111.0409 C 111.4666 110.5443 111.493 109.5764 112.2498 109.1726 C 112.5031 109.0374 112.7582 108.895 112.8792 108.5321 C 112.734 108.5713 112.6292 108.5964 112.526 108.6279 C 111.9514 108.8055 112.3514 108.3779 112.6157 108.3032 C 112.7762 108.2578 112.472 108.135 112.472 108.135 C 112.4795 108.1226 112.6741 108.067 112.8907 107.9749 C 113.0398 107.9116 113.1924 107.8406 113.3162 107.74 C 113.3962 107.6743 113.4271 107.5488 113.4799 107.4502 C 113.4667 107.4347 113.4534 107.4196 113.4398 107.4041 C 113.2881 107.4243 113.1364 107.4468 112.9844 107.4639 C 112.7263 107.4927 112.6658 107.4423 112.6418 107.1827 C 112.6252 107.0056 112.4445 106.9089 112.2753 106.9998 C 112.1609 107.0616 112.0621 107.1514 111.952 107.2224 C 111.6979 107.3865 111.5081 107.3208 111.4084 107.0378 C 111.3489 106.8691 111.2662 106.8374 111.1108 106.9319 C 111.0327 106.9791 110.9674 107.0483 110.8879 107.0925 C 110.7576 107.1653 110.625 107.2382 110.4851 107.2875 C 110.3489 107.3357 110.1846 107.3706 110.0918 107.2214 C 109.9922 107.061 110.0793 106.9049 110.205 106.8043 C 110.3611 106.6793 110.5413 106.5823 110.717 106.4839 C 110.9673 106.3433 111.2323 106.2264 111.4741 106.0731 C 111.6515 105.9602 111.7291 105.7761 111.6716 105.559 C 111.6232 105.3756 111.5002 105.3136 111.3301 105.3977 C 111.1895 105.4673 111.0667 105.5762 110.9221 105.6323 C 110.8167 105.6727 110.6851 105.6731 110.5717 105.6532 C 110.5298 105.6458 110.4854 105.53 110.4841 105.4629 C 110.4834 105.4242 110.5621 105.3569 110.6123 105.3488 C 110.9615 105.2944 111.3123 105.2485 111.6635 105.2086 C 111.7098 105.2036 111.7797 105.2322 111.8088 105.2693 C 112.0408 105.5613 112.3645 105.7031 112.7048 105.8042 C 112.991 105.889 113.0325 105.8486 113.0718 105.5493 C 113.4392 105.4629 113.8127 105.293 114.1826 105.5255 C 114.3879 105.6543 114.5747 105.8185 114.7483 105.9885 C 114.7913 106.0308 114.7651 106.1616 114.7444 106.246 C 114.7173 106.3593 114.6545 106.4639 114.6252 106.5773 C 114.5693 106.7968 114.7118 106.9683 114.939 106.9647 C 115.011 106.9631 115.0823 106.9485 115.1545 106.9449 C 115.3645 106.9351 115.4392 107.0154 115.4199 107.2269 C 115.3928 107.5267 115.4429 107.5627 115.7458 107.5116 C 115.8333 107.4968 115.9338 107.5364 116.0227 107.5675 C 116.0756 107.5862 116.1169 107.6367 116.1638 107.6722 C 116.4458 107.8855 116.6614 107.8054 116.7439 107.4568 C 116.7529 107.4187 116.7517 107.3782 116.7595 107.3398 C 116.7922 107.1833 116.881 107.1431 116.9866 107.2543 C 117.2109 107.4912 117.4213 107.7412 117.6488 107.9995 C 117.4043 108.2233 117.3962 108.4951 117.4503 108.7615 C 117.5106 109.0579 117.4323 109.3154 117.3151 109.5764 C 117.2029 109.8267 117.0795 110.0752 117.0046 110.3368 C 116.8923 110.7295 117.0195 110.9089 117.4196 110.9958 C 117.801 111.079 117.8633 111.1555 117.8777 111.5276 C 117.897 112.0352 118.1584 112.3853 118.6045 112.6088 C 118.7036 112.6581 118.8088 112.6956 118.9102 112.7378 C 118.8599 113.5199 118.636 114.3342 118.2529 115.1066 Z" fill="#cccccc"/>
		<path d="M 120 169 C 120 169 119.9685 165.9878 119.7834 165.6755 C 119.5081 165.2106 118.8667 164.891 117.676 164.3962 C 116.4895 163.9031 116.1104 163.4871 116.1104 162.5962 C 116.1104 162.0609 116.4724 162.2361 116.6318 161.2568 C 116.6978 160.8502 117.0178 161.25 117.0791 160.3225 C 117.0791 159.9529 116.9044 159.8606 116.9044 159.8606 C 116.9044 159.8606 116.9932 159.314 117.0276 158.8928 C 117.071 158.3682 116.7617 157.0132 115.1149 157.0132 C 113.4677 157.0132 113.1589 158.3682 113.202 158.8928 C 113.2368 159.314 113.3253 159.8606 113.3253 159.8606 C 113.3253 159.8606 113.1509 159.9529 113.1509 160.3225 C 113.2122 161.25 113.5319 160.8502 113.5981 161.2568 C 113.7572 162.2361 114.1196 162.061 114.1196 162.5962 C 114.1196 163.2017 113.9435 163.5881 113.4578 163.9285 C 116.0503 165.219 116.3977 165.4818 116.3977 166.6354 L 116.3977 169 L 120 169 ZM 112.1787 164.844 C 110.5962 164.1864 110.0906 163.6316 110.0906 162.4441 C 110.0906 161.7308 110.5737 161.9637 110.7859 160.6577 C 110.8738 160.1162 111.3007 160.6488 111.3823 159.4122 C 111.3823 158.9193 111.1494 158.7969 111.1494 158.7969 C 111.1494 158.7969 111.2678 158.0679 111.3141 157.5063 C 111.3716 156.8068 110.9597 155 108.7633 155 C 106.5675 155 106.1554 156.8068 106.2131 157.5063 C 106.2594 158.0679 106.3774 158.7969 106.3774 158.7969 C 106.3774 158.7969 106.1447 158.9193 106.1447 159.4122 C 106.2266 160.6488 106.6531 160.1162 106.7412 160.6577 C 106.9535 161.9636 107.4366 161.7307 107.4366 162.4441 C 107.4366 163.6316 106.9307 164.1864 105.3485 164.844 C 104.8662 165.0444 104 165.355 104 166.1018 L 104 169 L 115.115 169 C 115.115 169 115.115 167.2856 115.115 166.8269 C 115.115 166.1458 113.766 165.504 112.1787 164.844 Z" fill="#cccccc"/>
		<path d="M 165.8656 164.844 C 165.3424 164.6404 164.9281 164.4458 164.6073 164.24 C 163.8923 163.7813 163.6365 163.2638 163.6365 162.4441 C 163.6365 161.7308 164.1523 161.9637 164.3789 160.6577 C 164.4727 160.1162 164.9282 160.6488 165.0154 159.4122 C 165.0154 158.9193 164.7668 158.7969 164.7668 158.7969 C 164.7668 158.7969 164.8932 158.0679 164.9426 157.5063 C 165.0039 156.8068 164.5643 155 162.2197 155 C 159.8757 155 159.4358 156.8068 159.4974 157.5063 C 159.5469 158.0679 159.6729 158.7969 159.6729 158.7969 C 159.6729 158.7969 159.4243 158.9193 159.4243 159.4122 C 159.5117 160.6488 159.9672 160.1162 160.0612 160.6577 C 160.2877 161.9636 160.8035 161.7307 160.8035 162.4441 C 160.8035 163.4135 159.3927 164.24 159.3927 164.24 C 159.0717 164.446 158.6583 164.6401 158.1344 164.844 C 156.4401 165.504 155 166.1458 155 166.8269 L 155 169 L 157.135 169 L 159.3927 169 L 164.6073 169 L 169 169 L 169 166.8269 C 169 166.1458 167.5601 165.504 165.8656 164.844 Z" fill="#cccccc"/>
		<path d="M 170 104 L 166.8 106.1333 L 170 109.3333 L 170 104 ZM 165.59 115.5669 C 165.0319 115.3497 164.59 115.1422 164.2478 114.9227 C 163.4852 114.4333 163.2122 113.8814 163.2122 113.007 C 163.2122 112.2462 163.7625 112.4947 164.0042 111.1016 C 164.1042 110.524 164.5901 111.0921 164.6831 109.773 C 164.6831 109.2473 164.418 109.1167 164.418 109.1167 C 164.418 109.1167 164.5527 108.3391 164.6055 107.7401 C 164.6708 106.9939 164.202 105.0667 161.701 105.0667 C 159.2008 105.0667 158.7315 106.9939 158.7973 107.7401 C 158.85 108.3391 158.9844 109.1167 158.9844 109.1167 C 158.9844 109.1167 158.7193 109.2473 158.7193 109.773 C 158.8125 111.0921 159.2983 110.524 159.3986 111.1016 C 159.6402 112.4945 160.1904 112.2461 160.1904 113.007 C 160.1904 114.041 158.6855 114.9227 158.6855 114.9227 C 158.3431 115.1424 157.9022 115.3495 157.3434 115.5669 C 155.5361 116.271 154 116.9555 154 117.682 L 154 120 L 156.2773 120 L 158.6855 120 L 164.2478 120 L 168.9333 120 L 168.9333 117.682 C 168.9333 116.9555 167.3974 116.271 165.59 115.5669 Z" fill="#cccccc"/>
	</g>
</svg>