<?xml version="1.0" standalone="no"?>
<!-- Generator: Adobe Fireworks 10, Export SVG Extension by Aaron Beall (http://fireworks.abeall.com) . Version: 0.6.1  -->
<!DOCTYPE svg PUBLIC "-//W3C//DTD SVG 1.1//EN" "http://www.w3.org/Graphics/SVG/1.1/DTD/svg11.dtd">
<svg id="new-sprite.fw-Page%201" viewBox="0 0 600 600" style="background-color:#ffffff00" version="1.1"
	xmlns="http://www.w3.org/2000/svg" xmlns:xlink="http://www.w3.org/1999/xlink" xml:space="preserve"
	x="0px" y="0px" width="600px" height="600px"
>
	<defs>
		<filter id="filter1" x="-100%" y="-100%" width="300%" height="300%">
			<!-- Drop Shadow -->
			<feOffset result="out" in="SourceGraphic" dx="0.7071" dy="0.7071"/>
			<feColorMatrix result="out" in="out" type="matrix" values="0 0 0 0 0  0 0 0 0 0  0 0 0 0 0  0 0 0 0.749 0"/>
			<feGaussianBlur result="out" in="out" stdDeviation="1"/>
			<feBlend in="SourceGraphic" in2="out" mode="normal" result="Drop_Shadow1"/>
		</filter>
	</defs>
	<g id="Layer%201">
		<g visibility="hidden">
			<rect x="0" y="0" width="24" height="20" fill="#8c0000"/>
			<rect x="0" y="100" width="24" height="20" fill="#8c0000"/>
			<rect x="100" y="100" width="20" height="20" fill="#8c0000"/>
			<rect x="100" y="150" width="20" height="20" fill="#8c0000"/>
			<rect x="50" y="150" width="20" height="20" fill="#8c0000"/>
			<rect x="0" y="200" width="20" height="20" fill="#8c0000"/>
			<rect x="50" y="200" width="20" height="20" fill="#8c0000"/>
			<rect x="50" y="250" width="20" height="20" fill="#8c0000"/>
			<rect x="0" y="350" width="20" height="20" fill="#8c0000"/>
			<rect x="50" y="300" width="20" height="20" fill="#8c0000"/>
			<rect x="200" y="300" width="20" height="20" fill="#8c0000"/>
			<rect x="100" y="300" width="20" height="20" fill="#8c0000"/>
			<rect x="50" y="350" width="20" height="20" fill="#8c0000"/>
			<rect x="100" y="350" width="20" height="20" fill="#8c0000"/>
			<rect x="250" y="300" width="20" height="20" fill="#8c0000"/>
			<rect x="0" y="250" width="20" height="20" fill="#8c0000"/>
			<rect x="0" y="300" width="20" height="20" fill="#8c0000"/>
			<rect x="100" y="200" width="20" height="20" fill="#8c0000"/>
			<rect x="150" y="200" width="20" height="20" fill="#8c0000"/>
			<rect x="200" y="200" width="20" height="20" fill="#8c0000"/>
			<rect x="250" y="200" width="20" height="20" fill="#8c0000"/>
			<rect x="300" y="200" width="20" height="20" fill="#8c0000"/>
			<rect x="50" y="100" width="20" height="20" fill="#8c0000"/>
			<rect x="150" y="100" width="20" height="20" fill="#8c0000"/>
			<rect x="150" y="150" width="20" height="20" fill="#8c0000"/>
			<rect x="200" y="100" width="20" height="20" fill="#8c0000"/>
			<rect x="200" y="150" width="20" height="20" fill="#8c0000"/>
			<rect x="250" y="100" width="20" height="20" fill="#8c0000"/>
			<rect x="300" y="100" width="20" height="20" fill="#8c0000"/>
			<rect x="350" y="100" width="20" height="20" fill="#8c0000"/>
			<rect x="400" y="100" width="20" height="20" fill="#8c0000"/>
			<rect x="450" y="100" width="20" height="20" fill="#8c0000"/>
			<rect x="250" y="150" width="20" height="20" fill="#8c0000"/>
			<rect x="300" y="150" width="20" height="20" fill="#8c0000"/>
			<rect x="350" y="150" width="20" height="20" fill="#8c0000"/>
			<rect x="400" y="150" width="20" height="20" fill="#8c0000"/>
			<rect x="400" y="200" width="20" height="20" fill="#8c0000"/>
			<rect x="550" y="200" width="20" height="20" fill="#8c0000"/>
			<rect x="550" y="150" width="20" height="20" fill="#8c0000"/>
			<rect x="550" y="250" width="20" height="20" fill="#8c0000"/>
			<rect x="500" y="250" width="20" height="20" fill="#8c0000"/>
			<rect x="450" y="250" width="20" height="20" fill="#8c0000"/>
			<rect x="400" y="250" width="20" height="20" fill="#8c0000"/>
			<rect x="400" y="300" width="20" height="20" fill="#8c0000"/>
			<rect x="500" y="300" width="24" height="24" fill="#8c0000"/>
			<rect x="450" y="300" width="14" height="14" fill="#8c0000"/>
			<rect x="350" y="300" width="20" height="20" fill="#8c0000"/>
			<rect x="350" y="250" width="20" height="20" fill="#8c0000"/>
			<rect x="300" y="250" width="20" height="20" fill="#8c0000"/>
			<rect x="250" y="250" width="20" height="20" fill="#8c0000"/>
			<rect x="200" y="250" width="20" height="20" fill="#8c0000"/>
			<rect x="150" y="300" width="20" height="20" fill="#8c0000"/>
			<rect x="300" y="300" width="20" height="20" fill="#8c0000"/>
			<rect x="100" y="250" width="16" height="16" fill="#8c0000"/>
			<rect x="350" y="200" width="20" height="20" fill="#8c0000"/>
			<rect x="450" y="150" width="30" height="32" fill="#8c0000"/>
			<rect x="450" y="200" width="30" height="32" fill="#8c0000"/>
			<rect x="0" y="50" width="24" height="20" fill="#8c0000"/>
			<rect x="0" y="150" width="24" height="20" fill="#8c0000"/>
			<rect x="50" y="0" width="24" height="20" fill="#8c0000"/>
			<rect x="50" y="50" width="24" height="20" fill="#8c0000"/>
			<rect x="100" y="0" width="24" height="20" fill="#8c0000"/>
			<rect x="100" y="50" width="24" height="20" fill="#8c0000"/>
			<rect x="150" y="0" width="24" height="20" fill="#8c0000"/>
			<rect x="150" y="50" width="24" height="20" fill="#8c0000"/>
			<rect x="200" y="0" width="24" height="20" fill="#8c0000"/>
			<rect x="200" y="50" width="24" height="20" fill="#8c0000"/>
			<rect x="250" y="0" width="24" height="20" fill="#8c0000"/>
			<rect x="250" y="50" width="24" height="20" fill="#8c0000"/>
			<rect x="300" y="0" width="24" height="20" fill="#8c0000"/>
			<rect x="300" y="50" width="24" height="20" fill="#8c0000"/>
			<rect x="350" y="0" width="24" height="20" fill="#8c0000"/>
			<rect x="350" y="50" width="24" height="20" fill="#8c0000"/>
			<rect x="400" y="0" width="24" height="20" fill="#8c0000"/>
			<rect x="400" y="50" width="24" height="20" fill="#8c0000"/>
			<rect x="450" y="0" width="24" height="20" fill="#8c0000"/>
			<rect x="450" y="50" width="24" height="20" fill="#8c0000"/>
			<rect x="500" y="0" width="24" height="20" fill="#8c0000"/>
			<rect x="500" y="50" width="24" height="20" fill="#8c0000"/>
			<rect x="550" y="0" width="24" height="20" fill="#8c0000"/>
			<rect x="550" y="50" width="24" height="20" fill="#8c0000"/>
			<rect x="550" y="51" width="24" height="20" fill="#8c0000"/>
		</g>
		<path d="M 165.8656 12.844 C 165.3424 12.6404 164.9281 12.4458 164.6073 12.24 C 163.8923 11.7813 163.6365 11.2638 163.6365 10.4441 C 163.6365 9.7308 164.1523 9.9637 164.3789 8.6577 C 164.4727 8.1162 164.9282 8.6488 165.0154 7.4122 C 165.0154 6.9193 164.7668 6.7969 164.7668 6.7969 C 164.7668 6.7969 164.8932 6.0679 164.9426 5.5063 C 165.0039 4.8068 164.5643 3 162.2197 3 C 159.8757 3 159.4358 4.8068 159.4974 5.5063 C 159.5469 6.0679 159.6729 6.7969 159.6729 6.7969 C 159.6729 6.7969 159.4243 6.9193 159.4243 7.4122 C 159.5117 8.6488 159.9672 8.1162 160.0612 8.6577 C 160.2877 9.9636 160.8035 9.7307 160.8035 10.4441 C 160.8035 11.4135 159.3927 12.24 159.3927 12.24 C 159.0717 12.446 158.6583 12.6401 158.1344 12.844 C 156.4401 13.504 155 14.1458 155 14.8269 L 155 17 L 157.135 17 L 159.3927 17 L 164.6073 17 L 169 17 L 169 14.8269 C 169 14.1458 167.5601 13.504 165.8656 12.844 Z" fill="#bbbbbb"/>
		<path d="M 165.8656 62.844 C 165.3424 62.6404 164.9281 62.4458 164.6073 62.24 C 163.8923 61.7813 163.6365 61.2638 163.6365 60.4441 C 163.6365 59.7308 164.1523 59.9637 164.3789 58.6577 C 164.4727 58.1162 164.9282 58.6488 165.0154 57.4122 C 165.0154 56.9193 164.7668 56.7969 164.7668 56.7969 C 164.7668 56.7969 164.8932 56.0679 164.9426 55.5063 C 165.0039 54.8068 164.5643 53 162.2197 53 C 159.8757 53 159.4358 54.8068 159.4974 55.5063 C 159.5469 56.0679 159.6729 56.7969 159.6729 56.7969 C 159.6729 56.7969 159.4243 56.9193 159.4243 57.4122 C 159.5117 58.6488 159.9672 58.1162 160.0612 58.6577 C 160.2877 59.9636 160.8035 59.7307 160.8035 60.4441 C 160.8035 61.4135 159.3927 62.24 159.3927 62.24 C 159.0717 62.446 158.6583 62.6401 158.1344 62.844 C 156.4401 63.504 155 64.1458 155 64.8269 L 155 67 L 157.135 67 L 159.3927 67 L 164.6073 67 L 169 67 L 169 64.8269 C 169 64.1458 167.5601 63.504 165.8656 62.844 Z" fill="#666666"/>
		<path d="M 69 2.5 L 66.2 5.3667 L 69 8.1666 L 69 2.5 ZM 65.0746 13.6211 C 64.5863 13.431 64.2662 13.2494 63.9668 13.0574 C 63.2995 12.6292 63.0607 12.1462 63.0607 11.3811 C 63.0607 10.7155 63.5422 10.9329 63.7537 9.7139 C 63.8412 9.2085 64.2664 9.7056 64.3477 8.5514 C 64.3477 8.0913 64.1157 7.9771 64.1157 7.9771 C 64.1157 7.9771 64.2336 7.2966 64.2798 6.7726 C 64.337 6.1196 63.9267 4.4334 61.7384 4.4334 C 59.5507 4.4334 59.1401 6.1196 59.1976 6.7726 C 59.2438 7.2966 59.3613 7.9771 59.3613 7.9771 C 59.3613 7.9771 59.1294 8.0913 59.1294 8.5514 C 59.2109 9.7056 59.636 9.2085 59.7238 9.7139 C 59.9352 10.9327 60.4166 10.7153 60.4166 11.3811 C 60.4166 12.2859 59.0999 13.0574 59.0999 13.0574 C 58.8002 13.2496 58.4144 13.4308 57.9254 13.6211 C 56.3441 14.2371 55 14.8361 55 15.4718 L 55 18 L 68 18 L 68 15.9718 C 68 15.3361 66.6561 14.2371 65.0746 13.6211 Z" fill="#bbbbbb"/>
		<path d="M 69 52.5 L 66.2 55.3667 L 69 58.1666 L 69 52.5 ZM 65.0746 63.6211 C 64.5863 63.431 64.2662 63.2494 63.9668 63.0574 C 63.2995 62.6292 63.0607 62.1462 63.0607 61.3811 C 63.0607 60.7155 63.5422 60.9329 63.7537 59.7139 C 63.8412 59.2085 64.2664 59.7056 64.3477 58.5514 C 64.3477 58.0913 64.1157 57.9771 64.1157 57.9771 C 64.1157 57.9771 64.2336 57.2966 64.2798 56.7726 C 64.337 56.1196 63.9267 54.4333 61.7384 54.4333 C 59.5507 54.4333 59.1401 56.1196 59.1976 56.7726 C 59.2438 57.2966 59.3613 57.9771 59.3613 57.9771 C 59.3613 57.9771 59.1294 58.0913 59.1294 58.5514 C 59.2109 59.7056 59.636 59.2085 59.7238 59.7139 C 59.9352 60.9327 60.4166 60.7153 60.4166 61.3811 C 60.4166 62.2859 59.0999 63.0574 59.0999 63.0574 C 58.8002 63.2496 58.4144 63.4308 57.9254 63.6211 C 56.3441 64.2371 55 64.8361 55 65.4718 L 55 68 L 68 68 L 68 65.9718 C 68 65.3361 66.6561 64.2371 65.0746 63.6211 Z" fill="#666666"/>
		<path d="M 120 17 C 120 17 119.9685 13.9878 119.7834 13.6755 C 119.5081 13.2106 118.8667 12.891 117.676 12.3962 C 116.4895 11.9031 116.1104 11.4871 116.1104 10.5962 C 116.1104 10.0609 116.4724 10.2361 116.6318 9.2568 C 116.6978 8.8502 117.0178 9.25 117.0791 8.3225 C 117.0791 7.9529 116.9044 7.8606 116.9044 7.8606 C 116.9044 7.8606 116.9932 7.314 117.0276 6.8928 C 117.071 6.3682 116.7617 5.0132 115.1149 5.0132 C 113.4677 5.0132 113.1589 6.3682 113.202 6.8928 C 113.2368 7.314 113.3253 7.8606 113.3253 7.8606 C 113.3253 7.8606 113.1509 7.9529 113.1509 8.3225 C 113.2122 9.25 113.5319 8.8502 113.5981 9.2568 C 113.7572 10.2361 114.1196 10.061 114.1196 10.5962 C 114.1196 11.2017 113.5458 11.5881 113.0601 11.9285 C 115.6526 13.219 116 13.4818 116 14.6354 L 116 17 L 120 17 ZM 112.1787 12.844 C 110.5962 12.1864 110.0906 11.6316 110.0906 10.4441 C 110.0906 9.7308 110.5737 9.9637 110.7859 8.6577 C 110.8738 8.1162 111.3007 8.6488 111.3823 7.4122 C 111.3823 6.9193 111.1494 6.7969 111.1494 6.7969 C 111.1494 6.7969 111.2678 6.0679 111.3141 5.5063 C 111.3716 4.8068 110.9597 3 108.7633 3 C 106.5675 3 106.1554 4.8068 106.2131 5.5063 C 106.2594 6.0679 106.3774 6.7969 106.3774 6.7969 C 106.3774 6.7969 106.1447 6.9193 106.1447 7.4122 C 106.2266 8.6488 106.6531 8.1162 106.7412 8.6577 C 106.9535 9.9636 107.4366 9.7307 107.4366 10.4441 C 107.4366 11.6316 106.9307 12.1864 105.3485 12.844 C 104.8662 13.0444 104 13.355 104 14.1018 L 104 17 L 115.115 17 C 115.115 17 115.115 15.2856 115.115 14.8269 C 115.115 14.1458 113.766 13.504 112.1787 12.844 Z" fill="#bbbbbb"/>
		<path d="M 120 67 C 120 67 119.9685 63.9878 119.7834 63.6755 C 119.5081 63.2106 118.8667 62.891 117.676 62.3962 C 116.4895 61.9031 116.1104 61.4871 116.1104 60.5962 C 116.1104 60.0609 116.4724 60.2361 116.6318 59.2568 C 116.6978 58.8502 117.0178 59.25 117.0791 58.3225 C 117.0791 57.9529 116.9044 57.8606 116.9044 57.8606 C 116.9044 57.8606 116.9932 57.314 117.0276 56.8928 C 117.071 56.3682 116.7617 55.0132 115.1149 55.0132 C 113.4677 55.0132 113.1589 56.3682 113.202 56.8928 C 113.2368 57.314 113.3253 57.8606 113.3253 57.8606 C 113.3253 57.8606 113.1509 57.9529 113.1509 58.3225 C 113.2122 59.25 113.5319 58.8502 113.5981 59.2568 C 113.7572 60.2361 114.1196 60.061 114.1196 60.5962 C 114.1196 61.2017 113.5458 61.5881 113.0601 61.9285 C 115.6526 63.219 116 63.4818 116 64.6354 L 116 67 L 120 67 ZM 112.1787 62.844 C 110.5962 62.1864 110.0906 61.6316 110.0906 60.4441 C 110.0906 59.7308 110.5737 59.9637 110.7859 58.6577 C 110.8738 58.1162 111.3007 58.6488 111.3823 57.4122 C 111.3823 56.9193 111.1494 56.7969 111.1494 56.7969 C 111.1494 56.7969 111.2678 56.0679 111.3141 55.5063 C 111.3716 54.8068 110.9597 53 108.7633 53 C 106.5675 53 106.1554 54.8068 106.2131 55.5063 C 106.2594 56.0679 106.3774 56.7969 106.3774 56.7969 C 106.3774 56.7969 106.1447 56.9193 106.1447 57.4122 C 106.2266 58.6488 106.6531 58.1162 106.7412 58.6577 C 106.9535 59.9636 107.4366 59.7307 107.4366 60.4441 C 107.4366 61.6316 106.9307 62.1864 105.3485 62.844 C 104.8662 63.0444 104 63.355 104 64.1018 L 104 67 L 115.115 67 C 115.115 67 115.115 65.2856 115.115 64.8269 C 115.115 64.1458 113.766 63.504 112.1787 62.844 Z" fill="#666666"/>
		<path d="M 316.7428 12.0332 C 315.8651 12.0332 315.0952 12.4468 314.5908 13.0811 L 309.9065 10.7065 C 309.9678 10.481 310.0106 10.2466 310.0106 10 C 310.0106 9.7305 309.9607 9.4771 309.8867 9.2339 L 314.5471 6.8701 C 315.0514 7.5337 315.8417 7.9639 316.7428 7.9639 C 318.2693 7.9639 319.5 6.7437 319.5 5.2334 C 319.5 3.7236 318.2693 2.5 316.7428 2.5 C 315.2229 2.5 313.9889 3.7236 313.9889 5.2334 C 313.9889 5.48 314.0326 5.7139 314.0931 5.9399 L 309.4126 8.3135 C 308.9082 7.6807 308.1353 7.2666 307.2572 7.2666 C 305.7345 7.2666 304.5 8.4902 304.5 10 C 304.5 11.5107 305.7345 12.7334 307.2572 12.7334 C 308.1583 12.7334 308.9486 12.2974 309.4529 11.6333 L 314.1133 13.9976 C 314.0393 14.2432 313.9856 14.4976 313.9856 14.7666 C 313.9856 16.2773 315.2229 17.5 316.7428 17.5 C 318.266 17.5 319.5 16.2773 319.5 14.7666 C 319.5 13.2573 318.266 12.0332 316.7428 12.0332 L 316.7428 12.0332 ZM 316.7428 12.0332 L 316.7428 12.0332 Z" fill="#bbbbbb"/>
		<path d="M 316.7428 62.0332 C 315.8651 62.0332 315.0952 62.4468 314.5908 63.0811 L 309.9065 60.7065 C 309.9678 60.481 310.0106 60.2466 310.0106 60 C 310.0106 59.7305 309.9607 59.4771 309.8867 59.2339 L 314.5471 56.8701 C 315.0514 57.5337 315.8417 57.9639 316.7428 57.9639 C 318.2693 57.9639 319.5 56.7437 319.5 55.2334 C 319.5 53.7236 318.2693 52.5 316.7428 52.5 C 315.2229 52.5 313.9889 53.7236 313.9889 55.2334 C 313.9889 55.48 314.0326 55.7139 314.0931 55.9399 L 309.4126 58.3135 C 308.9082 57.6807 308.1353 57.2666 307.2572 57.2666 C 305.7345 57.2666 304.5 58.4902 304.5 60 C 304.5 61.5107 305.7345 62.7334 307.2572 62.7334 C 308.1583 62.7334 308.9486 62.2974 309.4529 61.6333 L 314.1133 63.9976 C 314.0393 64.2432 313.9856 64.4976 313.9856 64.7666 C 313.9856 66.2773 315.2229 67.5 316.7428 67.5 C 318.266 67.5 319.5 66.2773 319.5 64.7666 C 319.5 63.2573 318.266 62.0332 316.7428 62.0332 L 316.7428 62.0332 ZM 316.7428 62.0332 L 316.7428 62.0332 Z" fill="#444444"/>
		<path id="Forma%201" d="M 264.9609 4 C 263.1083 4 262.2192 5.7217 262 6.208 C 261.686 5.5332 260.9747 4 259.0391 4 C 256.8083 4 255 5.8896 255 8.2212 C 255 8.8477 255.106 9.4502 255.2914 10.0259 C 255.2914 10.0259 255.4595 10.5454 255.6084 10.8311 C 257.311 14.4863 262 16 262 16 C 262 16 266.689 14.4863 268.3916 10.8311 C 268.3916 10.8311 268.6112 10.3438 268.7086 10.0259 C 268.8857 9.4473 269 8.8477 269 8.2212 C 269 5.8896 267.1917 4 264.9609 4 Z" stroke="#bbbbbb" stroke-width="2" fill="#ffffff"/>
		<path id="archive" d="M 369.6966 3.4834 L 368.7734 2.3633 C 368.5866 2.1436 368.3099 2 368 2 L 356.0001 2 C 355.6899 2 355.4134 2.1436 355.2299 2.3633 L 354.3067 3.4834 C 354.1133 3.7168 354 4.0098 354 4.3335 L 354 16.6667 C 354 17.4033 354.5967 18 355.3333 18 L 368.6667 18 C 369.4033 18 370 17.4033 370 16.6667 L 370 4.3335 C 370 4.0098 369.8867 3.7168 369.6966 3.4834 ZM 362 15.6665 L 358.3333 11 L 361 11 L 361 7 L 363 7 L 363 11 L 365.3333 11 L 362 15.6665 ZM 355.4167 4 L 355.96 3 L 367.96 3 L 368.5833 4 L 355.4167 4 Z" fill="#bbbbbb"/>
		<path id="archive2" d="M 369.6966 53.4834 L 368.7734 52.3633 C 368.5866 52.1436 368.3099 52 368 52 L 356.0001 52 C 355.6899 52 355.4134 52.1436 355.2299 52.3633 L 354.3067 53.4834 C 354.1133 53.7168 354 54.0098 354 54.3335 L 354 66.6667 C 354 67.4033 354.5967 68 355.3333 68 L 368.6667 68 C 369.4033 68 370 67.4033 370 66.6667 L 370 54.3335 C 370 54.0098 369.8867 53.7168 369.6966 53.4834 ZM 362 65.6665 L 358.3333 61 L 361 61 L 361 57 L 363 57 L 363 61 L 365.3333 61 L 362 65.6665 ZM 355.4167 54 L 355.96 53 L 367.96 53 L 368.5833 54 L 355.4167 54 Z" fill="#444444"/>
		<path d="M 512 7.75 C 510.1772 7.75 508.7 9.2617 508.7 11.125 C 508.7 12.9893 510.1772 14.5 512 14.5 C 513.8223 14.5 515.3 12.9893 515.3 11.125 C 515.3 9.2617 513.8223 7.75 512 7.75 ZM 520.8 4 L 518.16 4 C 517.7969 4 517.4059 4.0869 517.2911 3.7344 L 516.6089 1.6401 C 516.4937 1.2881 516.103 1 515.74 1 L 508.26 1 C 507.897 1 507.5059 1.2881 507.3911 1.6406 L 506.7089 3.3599 C 506.5938 3.7119 506.2029 4 505.84 4 L 503.2 4 C 501.99 4 501 5.0127 501 6.25 L 501 16.75 C 501 17.9873 501.99 19 503.2 19 L 520.8 19 C 522.01 19 523 17.9873 523 16.75 L 523 6.25 C 523 5.0127 522.01 4 520.8 4 ZM 512 16.75 C 508.9624 16.75 506.5 14.2314 506.5 11.125 C 506.5 8.0186 508.9624 5.5 512 5.5 C 515.0371 5.5 517.5 8.0186 517.5 11.125 C 517.5 14.2314 515.0371 16.75 512 16.75 ZM 520.03 8.1982 C 519.605 8.1982 519.26 7.8462 519.26 7.4111 C 519.26 6.9761 519.605 6.6235 520.03 6.6235 C 520.4553 6.6235 520.8 6.9761 520.8 7.4111 C 520.8 7.8462 520.4551 8.1982 520.03 8.1982 Z" fill="#cccccc"/>
		<path d="M 309.7232 258.4233 C 308.1715 258.4233 306.914 259.6191 306.914 261.0918 C 306.914 262.5654 308.1715 263.7603 309.7232 263.7603 C 311.2744 263.7603 312.5324 262.5654 312.5324 261.0918 C 312.5324 259.6191 311.2744 258.4233 309.7232 258.4233 ZM 317.8947 255 L 314.8422 255 C 314.4946 255 314.1205 254.7441 314.0106 254.4307 L 313.3577 252.5688 C 313.2476 252.2559 312.8738 252 312.5263 252 L 306.4211 252 C 306.0737 252 305.6994 252.2559 305.5897 252.5693 L 304.9367 254.4307 C 304.8265 254.7441 304.4526 255 304.1052 255 L 302.1053 255 C 300.9474 255 300 255.8999 300 257 L 300 266 C 300 267.1001 300.9474 268 302.1053 268 L 317.8947 268 C 319.0527 268 320 267.1001 320 266 L 320 257 C 320 255.8999 319.0527 255 317.8947 255 ZM 309.7232 265.5396 C 307.1375 265.5396 305.0413 263.5479 305.0413 261.0918 C 305.0413 258.6357 307.1375 256.644 309.7232 256.644 C 312.3085 256.644 314.4051 258.6357 314.4051 261.0918 C 314.4051 263.5479 312.3085 265.5396 309.7232 265.5396 ZM 316.6315 258.3984 C 316.2249 258.3984 315.8948 258.0854 315.8948 257.6987 C 315.8948 257.3125 316.2249 256.9985 316.6315 256.9985 C 317.0386 256.9985 317.3684 257.3125 317.3684 257.6987 C 317.3684 258.0854 317.0385 258.3984 316.6315 258.3984 Z" fill="#bbbbbb"/>
		<path d="M 512 57.75 C 510.1772 57.75 508.7 59.2617 508.7 61.125 C 508.7 62.9893 510.1772 64.5 512 64.5 C 513.8223 64.5 515.3 62.9893 515.3 61.125 C 515.3 59.2617 513.8223 57.75 512 57.75 ZM 520.8 54 L 518.16 54 C 517.7969 54 517.4059 54.0869 517.2911 53.7344 L 516.6089 51.6401 C 516.4937 51.2881 516.103 51 515.74 51 L 508.26 51 C 507.897 51 507.5059 51.2881 507.3911 51.6406 L 506.7089 53.3599 C 506.5938 53.7119 506.2029 54 505.84 54 L 503.2 54 C 501.99 54 501 55.0127 501 56.25 L 501 66.75 C 501 67.9873 501.99 69 503.2 69 L 520.8 69 C 522.01 69 523 67.9873 523 66.75 L 523 56.25 C 523 55.0127 522.01 54 520.8 54 ZM 512 66.75 C 508.9624 66.75 506.5 64.2314 506.5 61.125 C 506.5 58.0186 508.9624 55.5 512 55.5 C 515.0371 55.5 517.5 58.0186 517.5 61.125 C 517.5 64.2314 515.0371 66.75 512 66.75 ZM 520.03 58.1982 C 519.605 58.1982 519.26 57.8462 519.26 57.4111 C 519.26 56.9761 519.605 56.6235 520.03 56.6235 C 520.4553 56.6235 520.8 56.9761 520.8 57.4111 C 520.8 57.8462 520.4551 58.1982 520.03 58.1982 Z" fill="#444444"/>
		<path d="M 407 8 L 417 8 L 417 16 L 407 16 L 407 8 ZM 407 4 C 405.8954 4 405 4.8428 405 5.8824 L 405 16.1176 C 405 17.1572 405.8954 18 407 18 L 417 18 C 418.1046 18 419 17.1572 419 16.1176 L 419 5.8824 C 419 4.8428 418.1046 4 417 4 L 416 4 L 416 2 L 414 2 L 414 4 L 410 4 L 410 2 L 408 2 L 408 4 L 407 4 ZM 409 9 L 409 13 L 413 13 L 413 9 L 409 9 Z" fill="#bbbbbb"/>
		<path d="M 407 58 L 417 58 L 417 66 L 407 66 L 407 58 ZM 407 54 C 405.8954 54 405 54.8428 405 55.8824 L 405 66.1176 C 405 67.1572 405.8954 68 407 68 L 417 68 C 418.1046 68 419 67.1572 419 66.1176 L 419 55.8824 C 419 54.8428 418.1046 54 417 54 L 416 54 L 416 52 L 414 52 L 414 54 L 410 54 L 410 52 L 408 52 L 408 54 L 407 54 ZM 409 59 L 409 63 L 413 63 L 413 59 L 409 59 Z" fill="#444444"/>
		<path d="M 460 16 C 460 17.1045 460.8954 18 462 18 C 463.1046 18 464 17.1045 464 16 C 464 14.8955 463.1046 14 462 14 C 460.8954 14 460 14.8955 460 16 ZM 460 10 C 460 11.1045 460.8954 12 462 12 C 463.1046 12 464 11.1045 464 10 C 464 8.8955 463.1046 8 462 8 C 460.8954 8 460 8.8955 460 10 ZM 460 4 C 460 5.1045 460.8954 6 462 6 C 463.1046 6 464 5.1045 464 4 C 464 2.8955 463.1046 2 462 2 C 460.8954 2 460 2.8955 460 4 Z" fill="#bbbbbb"/>
		<path d="M 460 66 C 460 67.1045 460.8954 68 462 68 C 463.1046 68 464 67.1045 464 66 C 464 64.8955 463.1046 64 462 64 C 460.8954 64 460 64.8955 460 66 ZM 460 60 C 460 61.1045 460.8954 62 462 62 C 463.1046 62 464 61.1045 464 60 C 464 58.8955 463.1046 58 462 58 C 460.8954 58 460 58.8955 460 60 ZM 460 54 C 460 55.1045 460.8954 56 462 56 C 463.1046 56 464 55.1045 464 54 C 464 52.8955 463.1046 52 462 52 C 460.8954 52 460 52.8955 460 54 Z" fill="#444444"/>
		<path id="Forma%2012" d="M 264.9609 54 C 263.1083 54 262.2192 55.7217 262 56.208 C 261.686 55.5332 260.9747 54 259.0391 54 C 256.8083 54 255 55.8896 255 58.2212 C 255 58.8477 255.106 59.4502 255.2914 60.0259 C 255.2914 60.0259 255.4595 60.5454 255.6084 60.8311 C 257.311 64.4863 262 66 262 66 C 262 66 266.689 64.4863 268.3916 60.8311 C 268.3916 60.8311 268.6112 60.3438 268.7086 60.0259 C 268.8857 59.4473 269 58.8477 269 58.2212 C 269 55.8896 267.1917 54 264.9609 54 Z" stroke="#ff6a6a" stroke-width="2" fill="#ffcaca"/>
		<path d="M 555.5 10 C 555.5 6.4102 558.4102 3.5 562 3.5 C 565.5898 3.5 568.5 6.4102 568.5 10 C 568.5 13.5898 565.5898 16.5 562 16.5 C 558.4102 16.5 555.5 13.5898 555.5 10 ZM 554 10 C 554 14.4183 557.5817 18 562 18 C 566.4183 18 570 14.4183 570 10 C 570 5.5817 566.4183 2 562 2 C 557.5817 2 554 5.5817 554 10 ZM 561 9 L 561 14 L 563 14 L 563 9 L 561 9 ZM 561 6 L 561 8 L 563 8 L 563 6 L 561 6 Z" fill="#cccccc"/>
		<path d="M 555.5 60 C 555.5 56.4102 558.4102 53.5 562 53.5 C 565.5898 53.5 568.5 56.4102 568.5 60 C 568.5 63.5898 565.5898 66.5 562 66.5 C 558.4102 66.5 555.5 63.5898 555.5 60 ZM 554 60 C 554 64.4183 557.5817 68 562 68 C 566.4183 68 570 64.4183 570 60 C 570 55.5817 566.4183 52 562 52 C 557.5817 52 554 55.5817 554 60 ZM 561 59 L 561 64 L 563 64 L 563 59 L 561 59 ZM 561 56 L 561 58 L 563 58 L 563 56 L 561 56 Z" fill="#444444"/>
		<path d="M 163.8889 105 L 160 108.8882 L 156.1111 105 L 155 106.1113 L 158.8882 110 L 155 113.8887 L 156.1111 115 L 160 111.1113 L 163.8889 115 L 165 113.8887 L 161.1117 110 L 165 106.1113 L 163.8889 105 Z" fill="#cccccc"/>
		<path d="M 163.8889 155 L 160 158.8882 L 156.1111 155 L 155 156.1113 L 158.8882 160 L 155 163.8887 L 156.1111 165 L 160 161.1113 L 163.8889 165 L 165 163.8887 L 161.1117 160 L 165 156.1113 L 163.8889 155 Z" fill="#444444"/>
		<path d="M 108 104 L 108 112 L 115 112 L 112 108 L 115 104 L 108 104 ZM 105 104 L 105 116 L 107 116 L 107 104 L 105 104 Z" fill="#cccccc"/>
		<path d="M 108 154 L 108 162 L 115 162 L 112 158 L 115 154 L 108 154 ZM 105 154 L 105 166 L 107 166 L 107 154 L 105 154 Z" fill="#444444"/>
		<path d="M 259 105 L 259 109 L 255 109 L 255 111 L 259 111 L 259 115 L 261 115 L 261 111 L 265 111 L 265 109 L 261 109 L 261 105 L 259 105 Z" fill="#bbbbbb"/>
		<path d="M 259 155 L 259 159 L 255 159 L 255 161 L 259 161 L 259 165 L 261 165 L 261 161 L 265 161 L 265 159 L 261 159 L 261 155 L 259 155 Z" fill="#444444"/>
		<path filter="url(#filter1)" d="M 214.6667 104 L 210 108.6658 L 205.3333 104 L 204 105.3333 L 208.6658 110 L 204 114.6667 L 205.3333 116 L 210 111.334 L 214.6667 116 L 216 114.6667 L 211.334 110 L 216 105.3333 L 214.6667 104 Z" fill="#ffffff"/>
		<path d="M 214.6667 154 L 210 158.6658 L 205.3333 154 L 204 155.3333 L 208.6658 160 L 204 164.6667 L 205.3333 166 L 210 161.334 L 214.6667 166 L 216 164.6667 L 211.334 160 L 216 155.3333 L 214.6667 154 Z" fill="#444444"/>
		<path d="M 18.9489 9.1365 C 18.8195 7.9614 18.3858 6.8877 17.6849 5.9314 C 16.5555 4.3911 15.0453 3.4495 13.1595 3.1216 C 12.7833 3.0564 12.3987 3.0393 12.0181 3 C 11.9929 3 11.9677 3 11.9426 3 C 11.587 3.0388 11.23 3.0645 10.8767 3.1187 C 7.2505 3.6738 4.6285 7.0996 5.0431 10.7443 C 5.2409 12.4839 5.9713 13.9673 7.2679 15.1503 C 8.8095 16.5571 10.6407 17.1604 12.7171 16.9637 C 14.3102 16.8123 15.7007 16.1711 16.8466 15.0522 C 18.5109 13.4265 19.203 11.4387 18.9489 9.1365 ZM 17.4713 12.7183 C 17.2942 12.4099 17.0703 11.98 16.9703 11.6129 C 16.8251 11.0801 16.4762 11.5948 16.447 11.9429 C 16.4179 12.2908 16.1855 12.5518 15.7204 12.0299 C 15.2554 11.5078 15.168 11.6239 15.0227 11.6239 C 14.8774 11.6239 14.616 11.9719 14.674 13.5957 C 14.7155 14.7554 15.1738 14.9392 15.4734 15.0234 C 14.9174 15.4048 14.2783 15.7053 13.5607 15.8871 C 10.819 16.5813 8.0204 15.3206 6.7128 12.8157 C 5.4947 10.4819 6.0881 7.8411 7.3265 6.3877 C 7.3597 6.6489 7.3925 6.8838 7.4196 7.1195 C 7.4933 7.7632 7.4377 8.3984 7.306 9.031 C 7.278 9.166 7.2877 9.3196 7.3242 9.4521 C 7.3441 9.5244 7.4534 9.6101 7.5291 9.6172 C 7.5886 9.623 7.6924 9.5288 7.7166 9.4583 C 7.7602 9.3318 7.7619 9.1902 7.7753 9.0542 C 7.785 8.9584 7.7852 8.8612 7.7918 8.7109 C 7.8901 8.7905 7.9619 8.8386 8.0214 8.8984 C 8.1733 9.051 8.3269 9.203 8.4656 9.3671 C 8.5267 9.4397 8.5899 9.5417 8.5882 9.6294 C 8.5844 9.8169 8.6669 9.9445 8.7676 10.0918 C 8.8796 10.2555 8.93 10.4617 9.002 10.6514 C 9.0322 10.7308 9.0385 10.8206 9.0744 10.897 C 9.1511 11.0607 9.2671 11.1729 9.4665 11.1851 C 9.6761 11.1982 9.7548 11.2794 9.7849 11.4937 C 9.7312 11.4998 9.6779 11.5068 9.6243 11.5118 C 9.3684 11.536 9.2416 11.6533 9.2518 11.9109 C 9.2718 12.4221 9.4567 12.8688 9.837 13.2241 C 9.9419 13.3219 10.0532 13.4128 10.1551 13.5134 C 10.3878 13.7427 10.4689 14.012 10.3571 14.3285 C 10.3036 14.4792 10.2301 14.6274 10.2064 14.7834 C 10.1823 14.9421 10.182 15.1143 10.2188 15.2694 C 10.257 15.4308 10.2405 15.7839 10.4077 15.7546 C 10.7032 15.7031 10.8731 15.7612 10.8962 15.4308 C 10.9005 15.3679 10.8956 15.3601 10.8788 15.302 C 10.791 14.9922 11.1899 14.1123 11.4294 13.9519 C 11.6339 13.8146 11.8391 13.675 12.0245 13.5138 C 12.2917 13.2822 12.4115 12.9825 12.299 12.6338 C 12.1935 12.3059 12.3172 12.0648 12.5468 11.8539 C 12.7816 11.6383 12.9354 11.3904 12.9194 11.059 C 12.9031 10.7275 12.6859 10.4883 12.4026 10.5223 C 12.2642 10.5387 12.1315 10.605 11.9965 10.6505 C 11.7986 10.717 11.6056 10.8105 11.4025 10.8468 C 11.1178 10.8972 10.9423 10.7117 10.8154 10.4863 C 10.7132 10.3052 10.6796 10.2913 10.5023 10.4041 C 10.3525 10.4995 10.2032 10.5958 10.0482 10.6821 C 9.8872 10.7719 9.7996 10.7385 9.6753 10.6042 C 9.6019 10.5251 9.5002 10.4695 9.4059 10.4122 C 9.3381 10.3708 9.2463 10.3596 9.1919 10.3074 C 9.119 10.2371 9.0173 10.1327 9.0276 10.0564 C 9.0397 9.9669 9.1436 9.855 9.2344 9.8182 C 9.3906 9.755 9.5681 9.7448 9.7358 9.7085 C 9.825 9.6891 9.9155 9.6689 9.9999 9.6355 C 10.1154 9.5898 10.1105 9.514 10.022 9.4431 C 9.9785 9.4081 9.9246 9.3835 9.8721 9.3625 C 9.6166 9.2598 9.3597 9.1617 9.1044 9.0587 C 9.041 9.0334 8.9785 9.002 8.9214 8.9648 C 8.761 8.8596 8.7417 8.7437 8.8873 8.6155 C 9.4623 8.1096 10.1337 7.9614 10.7289 8.6337 C 10.9133 8.842 11.0382 9.1016 11.2123 9.3201 C 11.3492 9.4924 11.5068 9.6542 11.6809 9.7871 C 11.7526 9.8418 11.9139 9.8508 11.9941 9.8071 C 12.1136 9.7419 12.1177 9.593 12.0576 9.469 C 12.0056 9.3613 11.9446 9.2551 11.8712 9.1609 C 11.5332 8.7263 11.5564 7.8794 12.2185 7.5261 C 12.4401 7.4077 12.6633 7.2832 12.7692 6.9656 C 12.6422 6.9999 12.5505 7.022 12.4602 7.0494 C 11.9575 7.2048 12.3075 6.8307 12.5387 6.7654 C 12.6792 6.7256 12.413 6.6182 12.413 6.6182 C 12.4195 6.6072 12.5898 6.5586 12.7794 6.478 C 12.9098 6.4226 13.0433 6.3606 13.1516 6.2725 C 13.2217 6.2151 13.2487 6.1052 13.2948 6.0189 C 13.2833 6.0054 13.2717 5.9922 13.2598 5.9785 C 13.127 5.9963 12.9943 6.0159 12.8613 6.0309 C 12.6355 6.0562 12.5825 6.012 12.5616 5.7849 C 12.5471 5.6299 12.3889 5.5454 12.2408 5.6248 C 12.1407 5.679 12.0543 5.7574 11.958 5.8196 C 11.7356 5.9631 11.5695 5.9058 11.4824 5.6582 C 11.4302 5.5105 11.3579 5.4827 11.2219 5.5654 C 11.1536 5.6067 11.0964 5.6672 11.0269 5.7061 C 10.9128 5.7697 10.7968 5.8334 10.6744 5.8765 C 10.5552 5.9187 10.4114 5.9492 10.3303 5.8188 C 10.2431 5.6785 10.3194 5.5417 10.4293 5.4539 C 10.5659 5.3445 10.7236 5.2595 10.8774 5.1733 C 11.0963 5.0503 11.3282 4.9481 11.5398 4.814 C 11.695 4.7152 11.7629 4.5542 11.7126 4.364 C 11.6702 4.2036 11.5627 4.1494 11.4138 4.223 C 11.2907 4.2839 11.1833 4.3791 11.0568 4.4282 C 10.9645 4.4636 10.8494 4.464 10.7501 4.4465 C 10.7135 4.4401 10.6746 4.3389 10.6736 4.28 C 10.6729 4.2461 10.7418 4.1873 10.7857 4.1802 C 11.0913 4.1326 11.3982 4.0925 11.7054 4.0576 C 11.7461 4.0532 11.8071 4.0781 11.8327 4.1106 C 12.0356 4.3662 12.3189 4.4902 12.6167 4.5786 C 12.8671 4.6528 12.9034 4.6176 12.9377 4.3557 C 13.2593 4.28 13.5861 4.1313 13.9097 4.3348 C 14.0894 4.4475 14.2528 4.5912 14.4047 4.74 C 14.4423 4.7769 14.4194 4.8914 14.4013 4.9652 C 14.3776 5.0643 14.3227 5.1559 14.2971 5.2551 C 14.2481 5.4471 14.3728 5.5972 14.5715 5.5941 C 14.6346 5.5928 14.697 5.58 14.7602 5.5769 C 14.9439 5.5681 15.0093 5.6384 14.9924 5.8235 C 14.9687 6.0859 15.0125 6.1174 15.2776 6.0726 C 15.3541 6.0598 15.4421 6.0944 15.5198 6.1216 C 15.566 6.1379 15.6023 6.1821 15.6433 6.2131 C 15.89 6.3999 16.0787 6.3298 16.1509 6.0247 C 16.1588 5.9915 16.1577 5.9559 16.1646 5.9224 C 16.1932 5.7854 16.2708 5.7502 16.3632 5.8474 C 16.5595 6.0548 16.7435 6.2736 16.9426 6.4995 C 16.7287 6.6953 16.7217 6.9332 16.769 7.1663 C 16.8218 7.4257 16.7532 7.651 16.6506 7.8794 C 16.5525 8.0984 16.4445 8.3158 16.379 8.5447 C 16.2808 8.8883 16.392 9.0454 16.7421 9.1213 C 17.0759 9.1941 17.1303 9.2611 17.1429 9.5867 C 17.1598 10.0308 17.3886 10.3372 17.7789 10.5327 C 17.8656 10.5759 17.9577 10.6086 18.0463 10.6455 C 18.0023 11.33 17.8065 12.0425 17.4713 12.7183 Z" fill="#bbbbbb"/>
		<path d="M 18.9489 59.1365 C 18.8195 57.9614 18.3858 56.8877 17.6849 55.9314 C 16.5555 54.3911 15.0453 53.4495 13.1595 53.1216 C 12.7833 53.0564 12.3987 53.0393 12.0181 53 C 11.9929 53 11.9677 53 11.9426 53 C 11.587 53.0388 11.23 53.0645 10.8767 53.1187 C 7.2505 53.6738 4.6285 57.0996 5.0431 60.7443 C 5.2409 62.4839 5.9713 63.9673 7.2679 65.1503 C 8.8095 66.5571 10.6407 67.1604 12.7171 66.9637 C 14.3102 66.8123 15.7007 66.1711 16.8466 65.0522 C 18.5109 63.4265 19.203 61.4387 18.9489 59.1365 ZM 17.4713 62.7183 C 17.2942 62.4099 17.0703 61.98 16.9703 61.6129 C 16.8251 61.0801 16.4762 61.5948 16.447 61.9429 C 16.4179 62.2908 16.1855 62.5518 15.7204 62.0299 C 15.2554 61.5078 15.168 61.6239 15.0227 61.6239 C 14.8774 61.6239 14.616 61.9719 14.674 63.5957 C 14.7155 64.7554 15.1738 64.9392 15.4734 65.0234 C 14.9174 65.4048 14.2783 65.7053 13.5607 65.8871 C 10.819 66.5813 8.0204 65.3206 6.7128 62.8157 C 5.4947 60.4819 6.0881 57.8411 7.3265 56.3877 C 7.3597 56.6489 7.3925 56.8838 7.4196 57.1195 C 7.4933 57.7632 7.4377 58.3984 7.306 59.031 C 7.278 59.166 7.2877 59.3196 7.3242 59.4521 C 7.3441 59.5244 7.4534 59.6101 7.5291 59.6172 C 7.5886 59.623 7.6924 59.5288 7.7166 59.4583 C 7.7602 59.3318 7.7619 59.1902 7.7753 59.0542 C 7.785 58.9584 7.7852 58.8612 7.7918 58.7109 C 7.8901 58.7905 7.9619 58.8386 8.0214 58.8984 C 8.1733 59.051 8.3269 59.203 8.4656 59.3671 C 8.5267 59.4397 8.5899 59.5417 8.5882 59.6294 C 8.5844 59.8169 8.6669 59.9445 8.7676 60.0918 C 8.8796 60.2555 8.93 60.4617 9.002 60.6514 C 9.0322 60.7308 9.0385 60.8206 9.0744 60.897 C 9.1511 61.0607 9.2671 61.1729 9.4665 61.1851 C 9.6761 61.1982 9.7548 61.2794 9.7849 61.4937 C 9.7312 61.4998 9.6779 61.5068 9.6243 61.5118 C 9.3684 61.536 9.2416 61.6533 9.2518 61.9109 C 9.2718 62.4221 9.4567 62.8688 9.837 63.2241 C 9.9419 63.3219 10.0532 63.4128 10.1551 63.5134 C 10.3878 63.7427 10.4689 64.012 10.3571 64.3285 C 10.3036 64.4792 10.2301 64.6274 10.2064 64.7834 C 10.1823 64.9421 10.182 65.1143 10.2188 65.2694 C 10.257 65.4308 10.2405 65.7839 10.4077 65.7546 C 10.7032 65.7031 10.8731 65.7612 10.8962 65.4308 C 10.9005 65.3679 10.8956 65.3601 10.8788 65.302 C 10.791 64.9922 11.1899 64.1123 11.4294 63.9519 C 11.6339 63.8146 11.8391 63.675 12.0245 63.5138 C 12.2917 63.2822 12.4115 62.9825 12.299 62.6338 C 12.1935 62.3059 12.3172 62.0648 12.5468 61.8539 C 12.7816 61.6383 12.9354 61.3904 12.9194 61.059 C 12.9031 60.7275 12.6859 60.4883 12.4026 60.5223 C 12.2642 60.5387 12.1315 60.605 11.9965 60.6505 C 11.7986 60.717 11.6056 60.8105 11.4025 60.8468 C 11.1178 60.8972 10.9423 60.7117 10.8154 60.4863 C 10.7132 60.3052 10.6796 60.2913 10.5023 60.4041 C 10.3525 60.4995 10.2032 60.5958 10.0482 60.6821 C 9.8872 60.7719 9.7996 60.7385 9.6753 60.6042 C 9.6019 60.5251 9.5002 60.4695 9.4059 60.4122 C 9.3381 60.3708 9.2463 60.3596 9.1919 60.3074 C 9.119 60.2371 9.0173 60.1327 9.0276 60.0564 C 9.0397 59.9669 9.1436 59.855 9.2344 59.8182 C 9.3906 59.755 9.5681 59.7448 9.7358 59.7085 C 9.825 59.6891 9.9155 59.6689 9.9999 59.6355 C 10.1154 59.5898 10.1105 59.514 10.022 59.4431 C 9.9785 59.4081 9.9246 59.3835 9.8721 59.3625 C 9.6166 59.2598 9.3597 59.1617 9.1044 59.0587 C 9.041 59.0334 8.9785 59.002 8.9214 58.9648 C 8.761 58.8596 8.7417 58.7437 8.8873 58.6155 C 9.4623 58.1096 10.1337 57.9614 10.7289 58.6337 C 10.9133 58.842 11.0382 59.1016 11.2123 59.3201 C 11.3492 59.4924 11.5068 59.6542 11.6809 59.7871 C 11.7526 59.8418 11.9139 59.8508 11.9941 59.8071 C 12.1136 59.7419 12.1177 59.593 12.0576 59.469 C 12.0056 59.3613 11.9446 59.2551 11.8712 59.1609 C 11.5332 58.7263 11.5564 57.8794 12.2185 57.5261 C 12.4401 57.4077 12.6633 57.2832 12.7692 56.9656 C 12.6422 56.9999 12.5505 57.022 12.4602 57.0494 C 11.9575 57.2048 12.3075 56.8307 12.5387 56.7654 C 12.6792 56.7256 12.413 56.6182 12.413 56.6182 C 12.4195 56.6072 12.5898 56.5586 12.7794 56.478 C 12.9098 56.4226 13.0433 56.3606 13.1516 56.2725 C 13.2217 56.2151 13.2487 56.1052 13.2948 56.0189 C 13.2833 56.0054 13.2717 55.9922 13.2598 55.9785 C 13.127 55.9963 12.9943 56.0159 12.8613 56.0309 C 12.6355 56.0562 12.5825 56.012 12.5616 55.7849 C 12.5471 55.6299 12.3889 55.5454 12.2408 55.6248 C 12.1407 55.679 12.0543 55.7574 11.958 55.8196 C 11.7356 55.9631 11.5695 55.9058 11.4824 55.6582 C 11.4302 55.5105 11.3579 55.4827 11.2219 55.5654 C 11.1536 55.6067 11.0964 55.6672 11.0269 55.7061 C 10.9128 55.7697 10.7968 55.8334 10.6744 55.8765 C 10.5552 55.9187 10.4114 55.9492 10.3303 55.8188 C 10.2431 55.6785 10.3194 55.5417 10.4293 55.4539 C 10.5659 55.3445 10.7236 55.2595 10.8774 55.1733 C 11.0963 55.0503 11.3282 54.9481 11.5398 54.814 C 11.695 54.7152 11.7629 54.5542 11.7126 54.364 C 11.6702 54.2036 11.5627 54.1494 11.4138 54.223 C 11.2907 54.2839 11.1833 54.3792 11.0568 54.4282 C 10.9645 54.4636 10.8494 54.464 10.7501 54.4465 C 10.7135 54.4401 10.6746 54.3389 10.6736 54.28 C 10.6729 54.2461 10.7418 54.1873 10.7857 54.1802 C 11.0913 54.1326 11.3982 54.0925 11.7054 54.0576 C 11.7461 54.0532 11.8071 54.0781 11.8327 54.1106 C 12.0356 54.3662 12.3189 54.4902 12.6167 54.5786 C 12.8671 54.6528 12.9034 54.6176 12.9377 54.3557 C 13.2593 54.28 13.5861 54.1313 13.9097 54.3348 C 14.0894 54.4475 14.2528 54.5912 14.4047 54.74 C 14.4423 54.7769 14.4194 54.8914 14.4013 54.9652 C 14.3776 55.0643 14.3227 55.1559 14.2971 55.2551 C 14.2481 55.4471 14.3728 55.5972 14.5715 55.5941 C 14.6346 55.5928 14.697 55.58 14.7602 55.5769 C 14.9439 55.5681 15.0093 55.6384 14.9924 55.8235 C 14.9687 56.0859 15.0125 56.1174 15.2776 56.0726 C 15.3541 56.0598 15.4421 56.0944 15.5198 56.1216 C 15.566 56.1379 15.6023 56.1821 15.6433 56.2131 C 15.89 56.3999 16.0787 56.3298 16.1509 56.0247 C 16.1588 55.9915 16.1577 55.9559 16.1646 55.9224 C 16.1932 55.7854 16.2708 55.7502 16.3632 55.8474 C 16.5595 56.0548 16.7435 56.2736 16.9426 56.4995 C 16.7287 56.6953 16.7217 56.9332 16.769 57.1663 C 16.8218 57.4257 16.7532 57.651 16.6506 57.8794 C 16.5525 58.0984 16.4445 58.3158 16.379 58.5447 C 16.2808 58.8883 16.392 59.0454 16.7421 59.1213 C 17.0759 59.1941 17.1303 59.2611 17.1429 59.5867 C 17.1598 60.0308 17.3886 60.3372 17.7789 60.5327 C 17.8656 60.5759 17.9577 60.6086 18.0463 60.6455 C 18.0023 61.33 17.8065 62.0425 17.4713 62.7183 Z" fill="#666666"/>
		<path d="M 504 104 L 516 104 L 516 106 L 504 106 L 504 104 ZM 501 103 L 501 115 C 501 116.1046 501.8954 117 503 117 L 517 117 C 518.1046 117 519 116.1046 519 115 L 519 111.22 L 525 114.5555 L 525 103.4445 L 519 106.78 L 519 103 C 519 101.8954 518.1046 101 517 101 L 503 101 C 501.8954 101 501 101.8954 501 103 Z" fill="#bbbbbb"/>
		<path d="M 554 105 L 566 105 L 566 107 L 554 107 L 554 105 ZM 551 104 L 551 116 C 551 117.1046 551.8954 118 553 118 L 567 118 C 568.1046 118 569 117.1046 569 116 L 569 112.22 L 575 115.5555 L 575 104.4445 L 569 107.78 L 569 104 C 569 102.8954 568.1046 102 567 102 L 553 102 C 551.8954 102 551 102.8954 551 104 Z" fill="#444444"/>
		<path d="M 14.75 107 L 16 108.25 L 13.2506 111 L 16 113.75 L 14.75 115 L 12 112.2506 L 9.25 115 L 8 113.75 L 10.7494 111 L 8 108.25 L 9.25 107 L 12 109.7494 L 14.75 107 ZM 19.6965 103.4834 L 18.7734 102.3633 C 18.5867 102.1436 18.3098 102 18 102 L 6 102 C 5.6899 102 5.4133 102.1436 5.23 102.3633 L 4.3066 103.4834 C 4.1133 103.7168 4 104.0098 4 104.3335 L 4 116.6667 C 4 117.4033 4.5967 118 5.3333 118 L 18.6667 118 C 19.4033 118 20 117.4033 20 116.6667 L 20 104.3335 C 20 104.0098 19.8867 103.7168 19.6965 103.4834 ZM 5.4167 104 L 5.96 103 L 17.96 103 L 18.5833 104 L 5.4167 104 Z" fill="#bbbbbb"/>
		<path d="M 14.75 157 L 16 158.25 L 13.2506 161 L 16 163.75 L 14.75 165 L 12 162.2506 L 9.25 165 L 8 163.75 L 10.7494 161 L 8 158.25 L 9.25 157 L 12 159.7494 L 14.75 157 ZM 19.6965 153.4834 L 18.7734 152.3633 C 18.5867 152.1436 18.3098 152 18 152 L 6 152 C 5.6899 152 5.4133 152.1436 5.23 152.3633 L 4.3066 153.4834 C 4.1133 153.7168 4 154.0098 4 154.3335 L 4 166.6667 C 4 167.4033 4.5967 168 5.3333 168 L 18.6667 168 C 19.4033 168 20 167.4033 20 166.6667 L 20 154.3335 C 20 154.0098 19.8867 153.7168 19.6965 153.4834 ZM 5.4167 154 L 5.96 153 L 17.96 153 L 18.5833 154 L 5.4167 154 Z" fill="#444444"/>
		<path d="M 53.3532 157.9062 C 52.8085 158.9564 52.5 160.1531 52.5 161.4211 C 52.5 165.6068 55.8579 169 60 169 C 64.1421 169 67.5 165.6068 67.5 161.4211 C 67.5 157.2353 64.1421 153.8421 60 153.8421 L 60 151 L 55.3125 154.7895 L 60 158.5789 L 60 156.0065 C 62.9591 156.0065 65.358 158.4307 65.358 161.4211 C 65.358 164.4114 62.9591 166.8356 60 166.8356 C 57.0409 166.8356 54.642 164.4114 54.642 161.4211 C 54.642 160.8473 54.7317 160.2963 54.8952 159.7774 L 53.3532 157.9062 Z" fill="#444444"/>
		<path d="M 53.3532 107.9062 C 52.8085 108.9564 52.5 110.1531 52.5 111.4211 C 52.5 115.6068 55.8579 119 60 119 C 64.1421 119 67.5 115.6068 67.5 111.4211 C 67.5 107.2353 64.1421 103.8421 60 103.8421 L 60 101 L 55.3125 104.7895 L 60 108.5789 L 60 106.0065 C 62.9591 106.0065 65.358 108.4307 65.358 111.4211 C 65.358 114.4114 62.9591 116.8356 60 116.8356 C 57.0409 116.8356 54.642 114.4114 54.642 111.4211 C 54.642 110.8473 54.7317 110.2963 54.8952 109.7774 L 53.3532 107.9062 Z" fill="#bbbbbb"/>
		<path d="M 214.3935 53.375 C 214.3935 53.625 214.6435 53.625 214.6435 54.125 C 214.6435 54.875 214.1435 56.125 213.8935 56.875 C 214.1435 57.125 214.6435 57.125 218.3935 57.125 C 220.1435 57.375 219.8935 58.125 219.8935 59.375 C 219.8935 60.875 219.8935 60.875 218.6435 63.375 C 217.8935 64.375 217.9011 66.6385 216.6511 66.8885 C 215.4011 67.1385 207.995 66.9784 207.995 66.9784 L 208 58.125 L 213.5 53.125 C 213.5 53.125 213.8935 53.375 214.3935 53.375 ZM 217.8935 59.125 C 217.6435 59.625 217.6435 60.5 217.3935 61 C 216.8935 62.25 216.3935 63.75 215.6435 65 L 210 65 L 210 59.25 L 211.5 57.625 C 212.75 59.875 215.6435 58.625 217.8935 59.125 ZM 207 58 L 207 67 L 204 67 L 204 58 L 207 58 Z" fill="#0154a0"/>
		<path d="M 217.8935 59.125 C 215.6435 58.625 212.75 59.875 211.5 57.625 L 210 59.25 L 210 65 L 215.6435 65 C 216.3935 63.75 216.8935 62.25 217.3935 61 C 217.6435 60.5 217.6435 59.625 217.8935 59.125 Z" fill="#c1e1ff"/>
		<path d="M 214.3935 3.375 C 214.3935 3.625 214.6435 3.625 214.6435 4.125 C 214.6435 4.875 214.1435 6.125 213.8935 6.875 C 214.1435 7.125 214.6435 7.125 218.3935 7.125 C 220.1435 7.375 219.8935 8.125 219.8935 9.375 C 219.8935 10.875 219.8935 10.875 218.6435 13.375 C 217.8935 14.375 217.9011 16.6385 216.6511 16.8885 C 215.4011 17.1385 207.995 16.9784 207.995 16.9784 L 208 8.125 L 213.5 3.125 C 213.5 3.125 213.8935 3.375 214.3935 3.375 ZM 217.8935 9.125 C 217.6435 9.625 217.6435 10.5 217.3935 11 C 216.8935 12.25 216.3935 13.75 215.6435 15 L 210 15 L 210 9.25 L 211.5 7.625 C 212.75 9.875 215.6435 8.625 217.8935 9.125 ZM 207 8 L 207 17 L 204 17 L 204 8 L 207 8 Z" fill="#bbbbbb"/>
		<path d="M 217.8935 9.125 C 215.6435 8.625 212.75 9.875 211.5 7.625 L 210 9.25 L 210 15 L 215.6435 15 C 216.3935 13.75 216.8935 12.25 217.3935 11 C 217.6435 10.5 217.6435 9.625 217.8935 9.125 Z" fill="#ffffff"/>
		<path d="M 314.6667 105.5 L 308 112.1658 L 305.3333 109.5 L 304 110.8333 L 308.165 115 L 316 106.8333 L 314.6667 105.5 Z" fill="#00529f"/>
		<path d="M 352.5 110.4688 L 356.6642 114.6213 L 357.3713 113.9141 L 354.4551 111 L 367.5 111 L 367.5 110 L 354.4551 110 L 357.3713 107.0859 L 356.6642 106.3787 L 352.5 110.4688 Z" fill="#444444"/>
		<path d="M 417.5 110.4688 L 413.3358 114.6213 L 412.6287 113.9141 L 415.5449 111 L 402.5 111 L 402.5 110 L 415.5449 110 L 412.6287 107.0859 L 413.3358 106.3787 L 417.5 110.4688 Z" fill="#0053a0"/>
		<path d="M 461.7056 105.3364 L 464.5535 108.1982 L 457.3445 115.4424 L 454.4983 112.5806 L 461.7056 105.3364 ZM 466.7146 104.6462 L 465.4446 103.3699 C 464.9536 102.8767 464.1566 102.8767 463.6642 103.3699 L 462.4475 104.5925 L 465.2954 107.4543 L 466.7146 106.0283 C 467.0951 105.6458 467.0951 105.0287 466.7146 104.6462 L 466.7146 104.6462 ZM 453.0079 116.6031 C 452.9562 116.8375 453.1667 117.0476 453.4 116.9905 L 456.5736 116.2173 L 453.7272 113.3555 L 453.0079 116.6031 ZM 453.0079 116.6031 L 453.0079 116.6031 Z" fill="#bbbbbb"/>
		<path d="M 315 150 L 315 152 L 313 152 L 313 154 L 315 154 L 315 156 L 317 156 L 317 154 L 319 154 L 319 152 L 317 152 L 317 150 L 315 150 ZM 312.59 162.6039 C 312.0319 162.3885 311.59 162.1826 311.2478 161.965 C 310.4851 161.4797 310.2123 160.9324 310.2123 160.0652 C 310.2123 159.3109 310.7625 159.5573 311.0042 158.1757 C 311.1041 157.603 311.5901 158.1663 311.6831 156.8582 C 311.6831 156.3368 311.418 156.2073 311.418 156.2073 C 311.418 156.2073 311.5527 155.4362 311.6055 154.8423 C 311.6707 154.1022 311.2019 152.1911 308.701 152.1911 C 306.2008 152.1911 305.7317 154.1022 305.7972 154.8423 C 305.85 155.4362 305.9844 156.2073 305.9844 156.2073 C 305.9844 156.2073 305.7192 156.3368 305.7192 156.8582 C 305.8125 158.1663 306.2983 157.603 306.3986 158.1757 C 306.6403 159.5571 307.1902 159.3107 307.1902 160.0652 C 307.1902 161.0907 305.6855 161.965 305.6855 161.965 C 305.3433 162.1829 304.9022 162.3882 304.3434 162.6039 C 302.5359 163.302 301 163.9809 301 164.7014 L 301 167 L 315.9333 167 L 315.9333 164.7014 C 315.9333 163.9809 314.3972 163.302 312.59 162.6039 Z" fill="#bbbbbb"/>
		<path d="M 352 155 L 352 162 C 352 163.1046 352.8954 164 354 164 L 356 164 L 356 168 L 361.855 164 L 366 164 C 367.1046 164 368 163.1045 368 162 L 368 155 C 368 153.8955 367.1046 153 366 153 L 354 153 C 352.8954 153 352 153.8955 352 155 Z" fill="#cccccc"/>
		<path d="M 416.7351 156.8127 L 413.1946 152.2654 C 413.0432 152.1135 412.854 152 412.627 152 L 403.8325 152 C 403.3784 152 403 152.3789 403 152.8337 L 403 167.2041 C 403 167.6589 403.3784 168 403.8325 168 L 416.1675 168 C 416.6216 168 417 167.6589 417 167.2041 L 417 157.3811 C 417 157.1538 416.8865 156.9644 416.7351 156.8127 L 416.7351 156.8127 ZM 415 166 L 405 166 L 405 154 L 410 154 L 410 158.499 C 410 158.9539 411.3784 160 411.8325 160 L 415 160 L 415 166 ZM 412 158 L 412 153.9451 L 412.2864 153.9451 L 415.3352 158 L 412 158 ZM 412.2109 157.7222 L 412.2109 157.7222 Z" fill="#cccccc"/>
		<path d="M 468 163 L 468 169 L 472 166 L 468 163 ZM 458 165 L 458 167 L 466 167 L 466 165 L 458 165 ZM 458 170 L 458 172 L 472 172 L 472 170 L 458 170 ZM 458 160 L 458 162 L 472 162 L 472 160 L 458 160 Z" fill="#ffffff"/>
		<path d="M 462 213 L 462 219 L 458 216 L 462 213 ZM 472 215 L 472 217 L 464 217 L 464 215 L 472 215 ZM 472 220 L 472 222 L 458 222 L 458 220 L 472 220 ZM 472 210 L 472 212 L 458 212 L 458 210 L 472 210 Z" fill="#ffffff"/>
		<path d="M 413 205 L 413 206 L 416 206 L 416 209 L 417 209 L 417 206 L 420 206 L 420 205 L 417 205 L 417 202.3333 L 416 202 L 416 205 L 413 205 ZM 411.6029 212.8623 C 409.772 212.1367 409.1714 211.5244 409.1714 210.2141 C 409.1714 209.427 409.7303 209.6843 409.976 208.2429 C 410.0775 207.6455 410.5713 208.2332 410.6658 206.8684 C 410.6658 206.325 410.3965 206.1895 410.3965 206.1895 C 410.3965 206.1895 410.5334 205.385 410.587 204.7656 C 410.6533 203.9934 410.1769 202 407.6359 202 C 407.4987 202 407.3691 202.0088 407.2438 202.0203 C 407.1184 202.0088 406.9856 202 406.8485 202 C 404.3075 202 403.8311 203.9934 403.8973 204.7656 C 403.9509 205.385 404.0879 206.1895 404.0879 206.1895 C 404.0879 206.1895 403.8186 206.325 403.8186 206.8684 C 403.9131 208.2332 404.4067 207.6455 404.5084 208.2429 C 404.754 209.6843 405.313 209.427 405.313 210.2141 C 405.313 211.5244 405.228 212.1367 403.3971 212.8623 C 401.5608 213.5906 400 214.8503 400 215.6023 L 400 218 L 402.125 218 L 412.3594 218 L 415 218 L 415 215.6023 C 415 214.8503 413.4392 213.5906 411.6029 212.8623 Z" fill="#ffffff"/>
		<g>
			<path d="M 524.7576 150.5151 L 524.7576 150.5151 C 538.1465 150.5151 549 161.3687 549 174.7578 L 549 174.7578 C 549 188.1465 538.1465 199 524.7576 199 L 524.7576 199 C 511.3687 199 500.5151 188.1465 500.5151 174.7578 L 500.5151 174.7578 C 500.5151 161.3687 511.3687 150.5151 524.7576 150.5151 Z" fill="#0053a0"/>
			<path d="M 520 167 C 520 165.343 521.1229 164.7368 522.5081 165.646 L 533.4919 172.854 C 534.8771 173.7632 534.8771 175.2368 533.4919 176.146 L 522.5081 183.354 C 521.1229 184.2632 520 183.657 520 182 L 520 167 Z" fill="#ffffff"/>
			<path d="M 531.0958 174.8679 L 531.0958 174.8679 C 530.779 175.3203 530.1555 175.4302 529.703 175.1135 L 523.1498 170.5248 C 522.6974 170.2081 522.5875 169.5845 522.9042 169.1321 L 522.9042 169.1321 C 523.221 168.6797 523.8445 168.5698 524.297 168.8865 L 530.8502 173.4752 C 531.3026 173.7919 531.4125 174.4155 531.0958 174.8679 Z" fill="#0053a0"/>
		</g>
		<path d="M 14.5781 205.6211 L 13.4609 204.5 L 8.4219 209.5391 L 9.5391 210.6602 L 14.5781 205.6211 ZM 17.9414 204.5 L 9.5391 212.9805 L 6.1802 209.6211 L 5.0591 210.7383 L 9.5391 215.2188 L 19.1406 205.6211 L 17.9414 204.5 ZM 0.5 210.7383 L 4.98 215.2188 L 6.1021 214.1016 L 1.6211 209.6211 L 0.5 210.7383 ZM 0.5 210.7383 L 0.5 210.7383 Z" fill="#bbbbbb"/>
		<path d="M 65.5156 204 C 64.2969 202.6719 62.5313 202 60.25 202 C 57.9063 202 56.0469 202.7188 54.6406 204.1563 C 53.2344 205.5938 52.4688 207.5469 52.375 210 C 52.2813 212.4844 52.8594 214.4219 54.1406 215.8594 C 55.4219 217.2813 57.2344 218 59.6094 218 C 60.1875 218 60.7813 217.9063 61.3906 217.75 C 61.9844 217.5781 62.4844 217.3438 62.8906 217.0625 L 62.5625 215.4219 C 62.1563 215.5781 61.7031 215.7188 61.1719 215.8438 C 60.6406 215.9375 60.1406 216 59.6406 216 C 57.875 216 56.5156 215.4688 55.5781 214.4063 C 54.625 213.3438 54.2031 211.9063 54.2969 210.0781 C 54.3906 208.2031 54.9531 206.7344 56 205.6406 C 57.0313 204.5469 58.4375 204 60.2188 204 C 62.0313 204 63.3906 204.4844 64.2656 205.4375 C 65.1406 206.3906 65.5313 207.7188 65.4375 209.4219 C 65.375 210.25 65.1563 210.9375 64.7656 211.4688 C 64.3594 212.0156 63.8438 212.2813 63.1875 212.2813 C 63.0156 212.2813 62.8906 212.1875 62.7969 212 C 62.7031 211.8125 62.6719 211.4531 62.7031 210.9375 L 63.1406 205.9688 L 63.0938 205.9688 L 63.125 205.9375 C 62.6094 205.625 62.1406 205.3906 61.7031 205.2344 C 61.2656 205.0781 60.7031 205 60 205 C 58.9844 205 58.125 205.4688 57.4219 206.375 C 56.7188 207.2969 56.2969 208.5156 56.1406 210.0469 C 56.0156 211.25 56.1719 212.2031 56.6406 212.9219 C 57.1094 213.6406 57.7813 214 58.6563 214 C 59.1406 214 59.5625 213.875 59.9375 213.6094 C 60.2969 213.3594 60.5938 212.9688 60.8438 212.4531 C 60.9844 212.9531 61.2344 213.3438 61.5781 213.625 C 61.9219 213.9063 62.3281 214.0313 62.8125 214.0313 C 64.2344 214.0313 65.3125 213.5938 66.0313 212.6875 C 66.75 211.7813 67.1406 210.7188 67.2031 209.4844 C 67.2969 207.1719 66.7344 205.3438 65.5156 204 L 65.5156 204 ZM 58.9375 207.75 C 59.25 207.25 59.7188 207 60.3438 207 C 60.4688 207 60.5781 207.0156 60.7031 207.0313 C 60.8281 207.0625 60.9531 207.0781 61.0938 207.0938 L 60.7344 210.8281 C 60.5469 211.2813 60.3281 211.5938 60.0781 211.75 C 59.8281 211.9219 59.5469 212 59.2344 212 C 58.875 212 58.625 211.8438 58.4688 211.5 C 58.3125 211.1563 58.25 210.6563 58.3125 209.9844 C 58.4063 209 58.625 208.25 58.9375 207.75 L 58.9375 207.75 Z" fill="#bbbbbb"/>
		<path d="M 368 201.5 L 364.8 204.7489 L 368 207.9221 L 368 201.5 ZM 363.6566 214.1039 C 363.0985 213.8884 362.59 213.6826 362.2478 213.4651 C 361.4851 212.9797 361.2123 212.4324 361.2123 211.5652 C 361.2123 210.8108 361.7625 211.0573 362.0042 209.6758 C 362.1041 209.103 362.5901 209.6663 362.6831 208.3582 C 362.6831 207.8368 362.418 207.7073 362.418 207.7073 C 362.418 207.7073 362.5527 206.9362 362.6055 206.3423 C 362.6707 205.6023 362.2019 203.6912 359.701 203.6912 C 357.2008 203.6912 356.7317 205.6023 356.7972 206.3423 C 356.85 206.9362 356.9844 207.7073 356.9844 207.7073 C 356.9844 207.7073 356.7192 207.8368 356.7192 208.3582 C 356.8125 209.6663 357.2983 209.103 357.3986 209.6758 C 357.6403 211.0571 358.1902 210.8108 358.1902 211.5652 C 358.1902 212.5907 356.6855 213.4651 356.6855 213.4651 C 356.3433 213.6829 355.9022 213.8882 355.3434 214.1039 C 353.5359 214.802 352 215.481 352 216.2014 L 352 219 L 367 219 L 367 216.7014 C 367 215.981 365.4639 214.802 363.6566 214.1039 Z" fill="#ffffff"/>
		<path d="M 115.842 204.5 L 107.7284 213.203 L 104.485 209.7555 L 103.4024 210.902 L 107.7284 215.5 L 117 205.6505 L 115.842 204.5 Z" fill="#36bc74"/>
		<path d="M 163.75 205 L 160 208.7494 L 156.25 205 L 155 206.25 L 158.7494 210 L 155 213.75 L 156.25 215 L 160 211.2506 L 163.75 215 L 165 213.75 L 161.2506 210 L 165 206.25 L 163.75 205 Z" fill="#ff6a6a"/>
		<path id="Ellipse" opacity="0.8" d="M 207 210 C 207 208.3433 208.3431 207 210 207 C 211.6569 207 213 208.3433 213 210 C 213 211.6567 211.6569 213 210 213 C 208.3431 213 207 211.6567 207 210 Z" stroke="#0053a0" stroke-width="2" fill="none"/>
		<path d="M 255 211 L 261 211 L 261 213 L 255 213 L 255 211 ZM 255 207 L 265 207 L 265 209 L 255 209 L 255 207 ZM 254 203 C 252.8954 203 252 203.8954 252 205 L 252 216 C 252 217.1046 252.8954 218 254 218 L 265 218 C 266.1046 218 267 217.1046 267 216 L 267 205 C 267 203.8954 266.1046 203 265 203 L 254 203 Z" fill="#cccccc"/>
		<path d="M 308.2858 207.8948 C 308.2858 206.9646 309.0532 206.2104 310 206.2104 C 310.9468 206.2104 311.7142 206.9646 311.7142 207.8948 C 311.7142 208.825 310.9468 209.5789 310 209.5789 C 309.0532 209.5789 308.2858 208.825 308.2858 207.8948 ZM 304 207.8948 C 304 211.1504 310 218 310 218 C 310 218 316 211.1504 316 207.8948 C 316 204.6392 313.3137 202 310 202 C 306.6863 202 304 204.6392 304 207.8948 Z" fill="#cccccc"/>
		<path d="M 506 204 L 512 209 L 518 204 L 506 204 ZM 504 204 L 504 216 L 520 216 L 520 204 L 512 212 L 504 204 Z" fill="#cccccc"/>
		<path d="M 565 204 L 560 208.9995 L 555 204 L 554 205 L 558.9995 210 L 554 215 L 555 216 L 560 211.0005 L 565 216 L 566 215 L 561.0005 210 L 566 205 L 565 204 Z" fill="#999999"/>
		<path d="M 514.6667 256.5 L 510 261.1658 L 505.3333 256.5 L 504 257.8333 L 510.1649 264 L 516 257.8333 L 514.6667 256.5 Z" fill="#ffffff"/>
		<path d="M 564.6667 264 L 560 259.3342 L 555.3333 264 L 554 262.6667 L 560.1649 256.5 L 566 262.6667 L 564.6667 264 Z" fill="#ffffff"/>
		<path d="M 458 266 C 458 267.1046 458.8954 268.5 460 268.5 C 461.1046 268.5 462 267.1046 462 266 L 458 266 ZM 455 257.5 L 455 262.335 L 453 265 L 467 265 L 465 262.335 L 465 257.5 C 465 254.527 463.8378 253.061 461 252.585 L 461 251 L 459 251 L 459 252.585 C 456.1622 253.061 455 254.527 455 257.5 Z" fill="#999999"/>
		<path d="M 416 253 L 416 255 L 414 255 L 414 256 L 416 256 L 416 258 L 417 258 L 417 256 L 419 256 L 419 255 L 417 255 L 417 253 L 416 253 ZM 413.6566 263.1039 C 413.0985 262.8884 412.09 262.6826 411.7478 262.4651 C 410.9851 261.9797 410.7123 261.4324 410.7123 260.5652 C 410.7123 259.8108 411.2625 260.0573 411.5042 258.6758 C 411.6041 258.103 412.0901 258.6663 412.1831 257.3582 C 412.1831 256.8368 411.918 256.7073 411.918 256.7073 C 411.918 256.7073 412.0527 255.9362 412.1055 255.3423 C 412.1707 254.6023 411.7019 252.6912 409.201 252.6912 C 406.7008 252.6912 406.2317 254.6023 406.2972 255.3423 C 406.35 255.9362 406.4844 256.7073 406.4844 256.7073 C 406.4844 256.7073 406.2192 256.8368 406.2192 257.3582 C 406.3125 258.6663 406.7983 258.103 406.8986 258.6758 C 407.1403 260.0571 407.6902 259.8108 407.6902 260.5652 C 407.6902 261.5907 406.1855 262.4651 406.1855 262.4651 C 405.8433 262.6829 405.9022 262.8882 405.3434 263.1039 C 403.5359 263.802 402 264.481 402 265.2014 L 402 268 L 417 268 L 417 265.7014 C 417 264.981 415.4639 263.802 413.6566 263.1039 Z" fill="#bbbbbb"/>
		<path d="M 360.2495 258.4233 C 358.6978 258.4233 357.4403 259.6191 357.4403 261.0918 C 357.4403 262.5654 358.6978 263.7603 360.2495 263.7603 C 361.8007 263.7603 363.0587 262.5654 363.0587 261.0918 C 363.0587 259.6191 361.8007 258.4233 360.2495 258.4233 ZM 367.8947 255 L 365.3685 255 C 365.0209 255 364.6468 254.7441 364.5369 254.4307 L 363.884 252.5688 C 363.7739 252.2559 363.4001 252 363.0526 252 L 356.9475 252 C 356.6 252 356.2257 252.2559 356.116 252.5693 L 355.463 254.4307 C 355.3528 254.7441 354.9789 255 354.6315 255 L 352.1053 255 C 350.9474 255 350 255.8999 350 257 L 350 266 C 350 267.1001 350.9474 268 352.1053 268 L 367.8947 268 C 369.0527 268 370 267.1001 370 266 L 370 257 C 370 255.8999 369.0527 255 367.8947 255 ZM 360.2495 265.5396 C 357.6638 265.5396 355.5676 263.5479 355.5676 261.0918 C 355.5676 258.6357 357.6638 256.644 360.2495 256.644 C 362.8349 256.644 364.9314 258.6357 364.9314 261.0918 C 364.9314 263.5479 362.8349 265.5396 360.2495 265.5396 ZM 367.1578 258.3984 C 366.7513 258.3984 366.4211 258.0854 366.4211 257.6987 C 366.4211 257.3125 366.7513 256.9985 367.1578 256.9985 C 367.5649 256.9985 367.8947 257.3125 367.8947 257.6987 C 367.8947 258.0854 367.5648 258.3984 367.1578 258.3984 Z" fill="#444444"/>
		<path opacity="0.302" d="M 263.75 255 L 260 258.7495 L 256.25 255 L 255 256.25 L 258.7494 260 L 255 263.75 L 256.25 265 L 260 261.2505 L 263.75 265 L 265 263.75 L 261.2506 260 L 265 256.25 L 263.75 255 Z" fill="#0053a0"/>
		<path opacity="0.6" d="M 213.75 255 L 210 258.7495 L 206.25 255 L 205 256.25 L 208.7494 260 L 205 263.75 L 206.25 265 L 210 261.2505 L 213.75 265 L 215 263.75 L 211.2506 260 L 215 256.25 L 213.75 255 Z" fill="#0053a0"/>
		<g>
			<g>
				<g>
					<path d="M 166.4321 302.0983 C 166.085 301.9319 165.674 301.9796 165.373 302.2208 C 164.1237 303.2253 161.8745 303.2247 160.6271 302.2214 C 160.2609 301.9265 159.7395 301.927 159.3733 302.2208 C 158.1244 303.2252 155.8744 303.2247 154.6273 302.2213 C 154.327 301.9796 153.9147 301.9319 153.5686 302.0983 C 153.2217 302.2643 153.0005 302.6155 153.0005 303.0001 L 153 311.0001 C 153 314.1345 155.5127 316.7363 159.7209 317.9605 C 159.8123 317.9867 159.9059 318 160.0002 318 C 160.0945 318 160.1882 317.9867 160.2794 317.9605 C 164.4879 316.7363 167 314.1349 167 311.0001 L 167 303.0001 C 167 302.6155 166.7792 302.2643 166.4321 302.0983 Z" fill="#bbbbbb"/>
					<path d="M 316.4321 302.0983 C 316.085 301.9319 315.674 301.9796 315.373 302.2208 C 314.1237 303.2253 311.8745 303.2247 310.6271 302.2214 C 310.2609 301.9265 309.7395 301.927 309.3733 302.2208 C 308.1244 303.2252 305.8744 303.2247 304.6273 302.2213 C 304.327 301.9796 303.9147 301.9319 303.5686 302.0983 C 303.2217 302.2643 303.0005 302.6155 303.0005 303.0001 L 303 311.0001 C 303 314.1345 305.5127 316.7363 309.7209 317.9605 C 309.8123 317.9867 309.9059 318 310.0002 318 C 310.0945 318 310.1882 317.9867 310.2794 317.9605 C 314.4879 316.7363 317 314.1349 317 311.0001 L 317 303.0001 C 317 302.6155 316.7792 302.2643 316.4321 302.0983 Z" fill="#ffffff"/>
					<path d="M 159 310.4913 C 159 309.9371 159.4478 309.4878 160 309.4878 C 160.5522 309.4878 161 309.9371 161 310.4913 C 161 311.0455 160.5522 311.4948 160 311.4948 C 159.4478 311.4948 159 311.0455 159 310.4913 ZM 161 308 L 159 308 L 159 306 L 161 306 L 161 308 ZM 158 307.5084 C 157.4478 307.5086 157 307.958 157 308.5122 L 157 311.9965 C 157 312.5507 157.4478 313 158 313 L 162 313 C 162.5522 313 163 312.5507 163 311.9965 L 163 308.5122 C 163 307.958 162.5522 307.5086 162 307.5084 L 162 306.0035 C 162 305.4493 161.5522 305 161 305 L 159 305 C 158.4478 305 158 305.4493 158 306.0035 L 158 307.5084 Z" fill="#ffffff"/>
					<path d="M 309 310.4913 C 309 309.9371 309.4478 309.4878 310 309.4878 C 310.5522 309.4878 311 309.9371 311 310.4913 C 311 311.0455 310.5522 311.4948 310 311.4948 C 309.4478 311.4948 309 311.0455 309 310.4913 ZM 311 308 L 309 308 L 309 306 L 311 306 L 311 308 ZM 308 307.5084 C 307.4478 307.5086 307 307.958 307 308.5122 L 307 311.9965 C 307 312.5507 307.4478 313 308 313 L 312 313 C 312.5522 313 313 312.5507 313 311.9965 L 313 308.5122 C 313 307.958 312.5522 307.5086 312 307.5084 L 312 306.0035 C 312 305.4493 311.5522 305 311 305 L 309 305 C 308.4478 305 308 305.4493 308 306.0035 L 308 307.5084 Z" fill="#666666"/>
				</g>
			</g>
		</g>
		<path d="M 108.7844 254.8004 L 103.7466 259.9009 L 103 263 L 106.2623 262.2892 L 111.2217 257.268 L 108.7844 254.8004 ZM 110.5626 253 L 109.7501 253.8225 L 112.1875 256.2903 L 113 255.4677 L 110.5626 253 Z" fill="#ffffff"/>
		<path d="M 66.497 252 L 61.9882 252 C 61.1617 252 60.007 252.4783 59.4227 253.0627 L 52.4384 260.0469 C 51.8539 260.6313 51.8539 261.5881 52.4384 262.1724 L 57.8276 267.5615 C 58.412 268.146 59.3686 268.146 59.953 267.5615 L 66.9373 260.5774 C 67.5218 259.9929 68 258.8384 68 258.0117 L 68 253.5029 C 68 252.6763 67.3236 252 66.497 252 L 66.497 252 ZM 64.4999 257 C 63.6716 257 63.0001 256.3286 63.0001 255.5 C 63.0001 254.6716 63.6716 254 64.4999 254 C 65.3284 254 65.9999 254.6716 65.9999 255.5 C 65.9999 256.3286 65.3284 257 64.4999 257 L 64.4999 257 ZM 64.4999 257 L 64.4999 257 Z" fill="#666666"/>
		<path d="M 3 256 L 12 256 L 12 257 L 3 257 L 3 256 ZM 1 255.5 L 1 264.5 C 1 265.3284 1.6716 266 2.5 266 L 12.5 266 C 13.3284 266 14 265.3284 14 264.5 L 14 261.665 L 19 264.1667 L 19 255.8333 L 14 258.3351 L 14 255.5 C 14 254.6716 13.3284 254 12.5 254 L 2.5 254 C 1.6716 254 1 254.6716 1 255.5 Z" fill="#bbbbbb"/>
		<path d="M 7 301 L 7 313 L 17.5 313 L 12.7 307.1666 L 17.5 301 L 7 301 ZM 2 301 L 2 319 L 6 319 L 6 301 L 2 301 Z" fill="#cccccc"/>
		<path d="M 58 310.8667 C 58 309.8358 58.8954 309 60 309 C 61.1046 309 62 309.8358 62 310.8667 C 62 311.8976 61.1046 312.7333 60 312.7333 C 58.8954 312.7333 58 311.8976 58 310.8667 ZM 55 316.0667 C 55 316.5822 55.4478 317 56 317 L 64 317 C 64.5522 317 65 316.5822 65 316.0667 L 65 307.9333 C 65 307.4178 64.5522 307 64 307 L 59 307 L 59 304 L 61 304 L 61 306.2667 C 61 306.7822 61.4478 307.2 62 307.2 C 62.5522 307.2 63 306.7822 63 306.2667 L 63 303.8667 C 63 302.8358 62.1046 302 61 302 L 59 302 C 57.8954 302 57 302.8358 57 303.8667 L 57 307 L 56 307 C 55.4478 307 55 307.4178 55 307.9333 L 55 316.0667 Z" fill="#bbbbbb"/>
		<path d="M 208 310.8667 C 208 309.8358 208.8954 309 210 309 C 211.1046 309 212 309.8358 212 310.8667 C 212 311.8976 211.1046 312.7333 210 312.7333 C 208.8954 312.7333 208 311.8976 208 310.8667 ZM 205 316.0667 C 205 316.5822 205.4478 317 206 317 L 214 317 C 214.5522 317 215 316.5822 215 316.0667 L 215 307.9333 C 215 307.4178 214.5522 307 214 307 L 209 307 L 209 304 L 211 304 L 211 306.2667 C 211 306.7822 211.4478 307.2 212 307.2 C 212.5522 307.2 213 306.7822 213 306.2667 L 213 303.8667 C 213 302.8358 212.1046 302 211 302 L 209 302 C 207.8954 302 207 302.8358 207 303.8667 L 207 307 L 206 307 C 205.4478 307 205 307.4178 205 307.9333 L 205 316.0667 Z" fill="#ffffff"/>
		<path d="M 109.9995 303 C 106.1403 303 103 306.141 103 310.0005 C 103 313.8598 106.1403 317 109.9995 317 C 113.8597 317 117 313.8598 117 310.0005 C 117 306.141 113.8597 303 109.9995 303 L 109.9995 303 ZM 115.9703 310.0005 C 115.9703 311.3654 115.5068 312.6251 114.7334 313.6319 C 114.5149 313.4603 114.2821 312.9996 114.5013 312.5211 C 114.7214 312.0397 114.7791 310.9253 114.7285 310.4924 C 114.6801 310.0595 114.4551 309.0148 113.8434 309.0049 C 113.2324 308.9957 112.8137 308.794 112.4498 308.0692 C 111.6965 306.5616 113.8647 306.2719 113.1107 305.4366 C 112.8999 305.2023 111.8104 306.4022 111.651 304.803 C 111.6403 304.6898 111.7499 304.5187 111.8959 304.3417 C 114.2607 305.1362 115.9703 307.3715 115.9703 310.0005 L 115.9703 310.0005 ZM 109.1792 304.0895 C 109.037 304.3672 108.6603 304.4803 108.4309 304.689 C 107.9326 305.1404 107.7181 305.0779 107.449 305.5108 C 107.1791 305.9445 106.3069 306.5681 106.3069 306.8815 C 106.3069 307.1941 106.7477 307.5643 106.9678 307.4918 C 107.1877 307.4197 107.7678 307.4234 108.1096 307.5437 C 108.4514 307.6648 110.9645 307.7851 110.1642 309.9093 C 109.9099 310.5842 108.7985 310.4703 108.5023 311.589 C 108.4579 311.7528 108.3042 312.4535 108.2936 312.6827 C 108.2756 313.0366 108.5442 314.3732 108.2024 314.3732 C 107.8591 314.3732 106.9355 313.1783 106.9355 312.9619 C 106.9355 312.7454 106.6956 311.9856 106.6956 311.3354 C 106.6956 310.6854 105.5897 310.696 105.5897 309.8315 C 105.5897 309.0518 106.1895 308.6644 106.0548 308.2908 C 105.9222 307.9191 104.8677 307.9053 104.4292 307.8605 C 105.1967 305.8688 107.0026 304.39 109.1792 304.0895 L 109.1792 304.0895 ZM 108.1227 315.6656 C 108.4807 315.4762 108.5172 315.2319 108.8425 315.2184 C 109.215 315.2013 109.5168 315.0731 109.9363 314.9813 C 110.3087 314.8994 110.9738 314.5227 111.5605 314.4736 C 112.054 314.4337 113.0288 314.4999 113.2922 314.977 C 112.3473 315.6036 111.2152 315.9703 110.0002 315.9703 C 109.3438 315.9703 108.7129 315.8621 108.1227 315.6656 L 108.1227 315.6656 ZM 108.1227 315.6656 L 108.1227 315.6656 Z" fill="#bbbbbb"/>
		<path d="M 259.9995 303 C 256.1403 303 253 306.141 253 310.0005 C 253 313.8598 256.1403 317 259.9995 317 C 263.8597 317 267 313.8598 267 310.0005 C 267 306.141 263.8597 303 259.9995 303 L 259.9995 303 ZM 265.9703 310.0005 C 265.9703 311.3654 265.5068 312.6251 264.7334 313.6319 C 264.5149 313.4603 264.2821 312.9996 264.5013 312.5211 C 264.7214 312.0397 264.7791 310.9253 264.7285 310.4924 C 264.6801 310.0595 264.4551 309.0148 263.8434 309.0049 C 263.2324 308.9957 262.8137 308.794 262.4498 308.0692 C 261.6965 306.5616 263.8647 306.2719 263.1107 305.4366 C 262.8999 305.2023 261.8104 306.4022 261.651 304.803 C 261.6403 304.6898 261.7499 304.5187 261.8959 304.3417 C 264.2607 305.1362 265.9703 307.3715 265.9703 310.0005 L 265.9703 310.0005 ZM 259.1792 304.0895 C 259.037 304.3672 258.6603 304.4803 258.4309 304.689 C 257.9326 305.1404 257.7181 305.0779 257.449 305.5108 C 257.1791 305.9445 256.3069 306.5681 256.3069 306.8815 C 256.3069 307.1941 256.7477 307.5643 256.9678 307.4918 C 257.1877 307.4197 257.7678 307.4234 258.1096 307.5437 C 258.4514 307.6648 260.9645 307.7851 260.1642 309.9093 C 259.9099 310.5842 258.7985 310.4703 258.5023 311.589 C 258.4579 311.7528 258.3042 312.4535 258.2936 312.6827 C 258.2756 313.0366 258.5442 314.3732 258.2024 314.3732 C 257.8591 314.3732 256.9355 313.1783 256.9355 312.9619 C 256.9355 312.7454 256.6956 311.9856 256.6956 311.3354 C 256.6956 310.6854 255.5897 310.696 255.5897 309.8315 C 255.5897 309.0518 256.1895 308.6644 256.0548 308.2908 C 255.9222 307.9191 254.8677 307.9053 254.4292 307.8605 C 255.1967 305.8688 257.0026 304.39 259.1792 304.0895 L 259.1792 304.0895 ZM 258.1227 315.6656 C 258.4807 315.4762 258.5172 315.2319 258.8425 315.2184 C 259.215 315.2013 259.5168 315.0731 259.9363 314.9813 C 260.3087 314.8994 260.9738 314.5227 261.5605 314.4736 C 262.054 314.4337 263.0288 314.4999 263.2922 314.977 C 262.3473 315.6036 261.2152 315.9703 260.0002 315.9703 C 259.3438 315.9703 258.7129 315.8621 258.1227 315.6656 L 258.1227 315.6656 ZM 258.1227 315.6656 L 258.1227 315.6656 Z" fill="#ffffff"/>
		<path d="M 564.6667 164 L 560 159.3342 L 555.3333 164 L 554 162.6667 L 560.1649 156.5 L 566 162.6667 L 564.6667 164 Z" fill="#555555"/>
		<path d="M 412 304 L 412 305 L 416.07 305 L 416.0679 306.8594 L 419.4844 304.4429 L 416.0679 302.0264 L 416.07 304 L 412 304 ZM 411.59 313.6039 C 411.0319 313.3884 410.59 313.1826 410.2478 312.9651 C 409.4851 312.4797 409.2123 311.9324 409.2123 311.0652 C 409.2123 310.3108 409.7625 310.5573 410.0042 309.1758 C 410.1041 308.603 410.5901 309.1663 410.6831 307.8582 C 410.6831 307.3368 410.418 307.2073 410.418 307.2073 C 410.418 307.2073 410.5527 306.4362 410.6055 305.8423 C 410.6707 305.1023 410.2019 303.1912 407.701 303.1912 C 405.2008 303.1912 404.7317 305.1023 404.7972 305.8423 C 404.85 306.4362 404.9844 307.2073 404.9844 307.2073 C 404.9844 307.2073 404.7192 307.3368 404.7192 307.8582 C 404.8125 309.1663 405.2983 308.603 405.3986 309.1758 C 405.6403 310.5571 406.1902 310.3108 406.1902 311.0652 C 406.1902 312.0907 404.6855 312.9651 404.6855 312.9651 C 404.3433 313.1829 403.9022 313.3882 403.3434 313.6039 C 401.5359 314.302 400 314.981 400 315.7014 L 400 318 L 414.9333 318 L 414.9333 315.7014 C 414.9333 314.981 413.3972 314.302 411.59 313.6039 Z" fill="#cccccc"/>
		<path d="M 365.342 305 L 358.2284 312.703 L 354.985 309.2555 L 353.9023 310.402 L 358.2284 315 L 366.5 306.1505 L 365.342 305 Z" fill="#cccccc"/>
		<g>
			<path d="M 16.3059 356.0759 L 18.1963 355.1809 C 18.3964 355.0855 18.4868 354.8329 18.4001 354.6133 C 18.3133 354.3936 18.0831 354.2942 17.883 354.3896 L 15.9925 355.2846 C 15.7284 355.4294 15.7359 355.7195 15.7887 355.852 C 15.8717 356.0717 16.1057 356.1711 16.3059 356.0759 L 16.3059 356.0759 ZM 16.3059 356.0759 L 16.3059 356.0759 Z" fill="#bbbbbb"/>
			<path d="M 13 355.036 L 13 352.4256 C 12.9283 351.8954 12.2342 351.9452 11.9776 352.1232 C 9.4304 353.4863 7.8152 354.054 5.3098 353.7556 C 5.0493 353.7266 4.7853 353.7225 4.525 353.7515 C 2.6079 353.9461 1.0947 355.6864 1.0042 357.8034 C 0.9552 358.9844 1.3362 360.1031 2.0759 360.9566 C 2.5061 361.4536 3.0232 361.8182 3.5928 362.0378 L 4.5438 366.529 C 4.7212 367.3537 5.4607 368 6.2041 368 C 7.4833 368 7.472 366.7695 7.3777 366.3344 L 6.5098 362.2285 C 8.8304 362.2534 10.2039 362.7796 12.1019 363.7945 C 12.1019 363.7945 12.8905 364.3871 13 363.5833 L 13 360.9732 C 14.3208 360.7617 15.3358 359.5148 15.3358 358.0066 C 15.3358 356.4983 14.3208 355.2471 13 355.036 L 13 355.036 ZM 6.6115 366.2592 C 6.6115 366.2633 6.6115 366.529 6.6115 366.5251 C 6.6495 366.7031 6.6418 367.1382 6.2041 367.13 C 5.8116 367.1215 5.4042 366.4954 5.3098 366.0604 L 4.4494 362 L 5.7098 362 L 6.6115 366.2592 ZM 11 362.2469 C 9.0038 361.2277 7.8758 361.0652 5.4647 361.0652 C 5.0532 361.0652 5.6 360.9453 5.1812 360.9743 C 4.2604 361.0446 3.3781 361.0255 2.7405 360.2924 C 2.148 359.6127 2.0925 358.737 2.1303 357.7924 C 2.2021 356.106 3.0465 355.1233 4.5749 354.97 C 4.7862 354.9494 4.1241 354.9494 4.3315 354.9743 C 6.8448 355.2725 8.4417 354.8 11 353.5197 L 11 362.2469 ZM 13 360.0947 L 13 355.9142 C 13.8832 356.1131 14.7699 357.0335 14.7699 358.0652 C 14.7699 359.0968 13.8868 359.8959 13 360.0947 L 13 360.0947 ZM 12.702 360.0947 L 12.702 360.0947 Z" fill="#bbbbbb"/>
			<rect x="17" y="357" width="2" height="1" fill="#bbbbbb"/>
			<path d="M 17.8864 360.5202 L 15.996 359.6254 C 15.7959 359.53 15.7055 359.2773 15.7922 359.0578 C 15.879 358.838 16.1092 358.7387 16.3093 358.8341 L 18.1998 359.7291 C 18.4639 359.8739 18.4564 360.1639 18.4036 360.2964 C 18.3206 360.5162 18.0866 360.6155 17.8864 360.5202 L 17.8864 360.5202 ZM 17.8864 360.5202 L 17.8864 360.5202 Z" fill="#bbbbbb"/>
		</g>
		<g>
			<g>
				<rect x="503" y="308" width="18" height="8" stroke="#999999" stroke-width="1" fill="none"/>
				<path d="M 511 306 L 508 306 L 512 301 L 516 306 L 513 306 L 513 308 L 511 308 L 511 306 Z" fill="#999999"/>
			</g>
			<path d="M 513 318 L 516 318 L 512 323 L 508 318 L 511 318 L 511 316 L 513 316 L 513 318 Z" fill="#999999"/>
		</g>
		<path d="M 454.5796 302 L 454 302.5796 L 458.4203 307.0001 L 454 311.4204 L 454.5796 312 L 459.5793 307.0001 L 454.5796 302 Z" fill="#666666"/>
		<g>
			<path d="M 66.4264 356.0759 L 68.3317 355.1809 C 68.5334 355.0855 68.6244 354.8329 68.5371 354.6133 C 68.4496 354.3936 68.2176 354.2942 68.0159 354.3896 L 66.1105 355.2846 C 65.8443 355.4294 65.8519 355.7195 65.9051 355.852 C 65.9888 356.0717 66.2246 356.1711 66.4264 356.0759 L 66.4264 356.0759 ZM 66.4264 356.0759 L 66.4264 356.0759 Z" fill="#666666"/>
			<path d="M 63 355.036 L 63 352.4256 C 62.9277 351.8954 62.3226 351.9452 62.064 352.1232 C 59.4968 353.4863 57.8689 354.054 55.3437 353.7556 C 55.0812 353.7266 54.8151 353.7225 54.5527 353.7515 C 52.6206 353.9461 51.0954 355.6864 51.0042 357.8034 C 50.9549 358.9844 51.3388 360.1031 52.0844 360.9566 C 52.518 361.4536 53.0391 361.8182 53.6132 362.0378 L 54.5716 366.529 C 54.7505 367.3537 55.4958 368 56.2451 368 C 57.5343 368 57.5229 366.7695 57.4279 366.3344 L 56.5532 362.2285 C 58.8921 362.2534 60.1819 362.7796 62.0949 363.7945 C 62.0949 363.7945 62.8897 364.3871 63 363.5833 L 63 360.9732 C 64.3312 360.7617 65.3541 359.5148 65.3541 358.0066 C 65.3541 356.4983 64.3312 355.2471 63 355.036 L 63 355.036 ZM 56.6557 366.2592 C 56.6557 366.2633 56.6557 366.529 56.6557 366.5251 C 56.6939 366.7031 56.6862 367.1382 56.2451 367.13 C 55.8494 367.1215 55.4389 366.4954 55.3437 366.0604 L 54.4766 362 L 55.7468 362 L 56.6557 366.2592 ZM 61 362.2469 C 58.9881 361.2277 57.8512 361.0652 55.4211 361.0652 C 55.0064 361.0652 55.6362 360.9453 55.2141 360.9743 C 54.2861 361.0446 53.3969 361.0255 52.7542 360.2924 C 52.1571 359.6127 52.1011 358.737 52.1392 357.7924 C 52.2115 356.106 53.0626 355.1233 54.603 354.97 C 54.816 354.9494 54.07 354.9494 54.2791 354.9743 C 56.8121 355.2725 58.4215 354.8 61 353.5197 L 61 362.2469 ZM 63 360.0947 L 63 355.9142 C 63.8901 356.1131 64.8782 357.0335 64.8782 358.0652 C 64.8782 359.0968 63.8938 359.8959 63 360.0947 L 63 360.0947 ZM 62.7941 360.0947 L 62.7941 360.0947 Z" fill="#666666"/>
			<rect x="67" y="357" width="2" height="1" fill="#666666"/>
			<path d="M 68.0193 360.5202 L 66.114 359.6254 C 65.9124 359.53 65.8212 359.2773 65.9086 359.0578 C 65.9961 358.838 66.2281 358.7387 66.4298 358.8341 L 68.3352 359.7291 C 68.6014 359.8739 68.5938 360.1639 68.5406 360.2964 C 68.4569 360.5162 68.2211 360.6155 68.0193 360.5202 L 68.0193 360.5202 ZM 68.0193 360.5202 L 68.0193 360.5202 Z" fill="#666666"/>
		</g>
		<path d="M 110.057 359 C 110.0199 359.1058 110 359.2196 110 359.3383 L 110 365.8693 C 110 366.4297 109.9632 366.9114 110.5187 366.9114 C 111.0741 366.9114 111 366.4297 111 365.8693 L 111 359.3383 C 111 359.2196 110.9801 359.1058 110.943 359 L 113.6516 359 C 114.207 359 114.6573 358.4864 114.6573 357.9259 C 114.6573 357.3654 114.207 357 113.6516 357 L 107.2879 357 C 106.7326 357 106.0972 358.3969 106.2823 358.9259 C 106.3559 359.1364 107.7326 359 108.2879 359 L 110.057 359 ZM 118.68 353.0148 C 118.68 352.4544 118.2298 352 117.6744 352 C 117.1189 352 116.6687 352.4544 116.6687 353.0148 C 116.6687 353.5753 117.1189 354.0297 117.6744 354.0297 C 118.2298 354.0297 118.68 353.5753 118.68 353.0148 ZM 118.8363 355.399 C 118.2808 355.399 118 355.8371 118 356.3976 L 118 359.0893 C 118 359.2079 118.02 359.8942 118.057 360 L 113 360 L 113 365.3344 C 113 366.0241 112.4627 367 113.0181 367 C 113.5736 367 114 366.3249 114 365.6351 L 114 361 L 116.8471 361 C 117.3028 361 119 360.5457 119 359.9852 L 119 359.1038 L 119 356.3976 C 119 355.8371 119.3917 355.399 118.8363 355.399 ZM 102.2595 353.0148 C 102.2595 353.5753 102.7098 354.0297 103.2652 354.0297 C 103.8207 354.0297 104.2709 353.5753 104.2709 353.0148 C 104.2709 352.4544 103.8207 352 103.2652 352 C 102.7098 352 102.2595 352.4544 102.2595 353.0148 ZM 101.7347 355.3828 C 101.1794 355.3828 102 355.8371 102 356.3976 L 102 359.1038 L 102 359.9852 C 102 360.5457 102.3694 361 102.8252 361 L 107 361 L 107 364.8771 C 107 365.567 107.1131 367 107.6685 367 C 108.224 367 108 366.3249 108 365.6351 L 108 360 L 103.4515 360 C 103.4885 359.8942 103 359.2079 103 359.0893 L 103 356.3976 C 103 355.8371 102.2902 355.3828 101.7347 355.3828 Z" fill="#cccccc"/>
	</g>
</svg>