<?xml version="1.0" encoding="UTF-8"?>
<svg width="34px" height="52px" viewBox="0 0 34 52" version="1.1" xmlns="http://www.w3.org/2000/svg" xmlns:xlink="http://www.w3.org/1999/xlink">
    <!-- Generator: Sketch 47.1 (45422) - http://www.bohemiancoding.com/sketch -->
    <title>ic-left-star</title>
    <desc>Created with Sketch.</desc>
    <defs></defs>
    <g id="Page-1" stroke="none" stroke-width="1" fill="none" fill-rule="evenodd">
        <g id="01-Events-Listing" transform="translate(-1211.000000, -768.000000)">
            <g id="ic-left-star" transform="translate(1211.000000, 768.000000)">
                <path d="M34,3.48766487 C34,3.34776736 33.8990644,3.26082552 33.6970415,3.22675989 L30.9819902,2.81284761 L29.7650603,0.232480534 C29.6965953,0.0774670269 29.6081819,0 29.5000284,0 C29.3918939,0 29.3035373,0.0774670269 29.2350155,0.232480534 L28.0180287,2.81284761 L25.3028448,3.22675989 C25.1009735,3.26082552 25,3.34776736 25,3.48766487 C25,3.56709836 25.0450876,3.6578341 25.1352439,3.75991181 L27.1040194,5.76745988 L26.6388781,8.60293183 C26.6316603,8.65588749 26.6280798,8.69380661 26.6280798,8.71639123 C26.6280798,8.795785 26.6469863,8.8628635 26.6848371,8.91772604 C26.7226691,8.97266804 26.7794264,9 26.855185,9 C26.9201263,9 26.9922097,8.97741538 27.0715298,8.93200779 L29.4999716,7.59349674 L31.9285839,8.93200779 C32.0044372,8.97741538 32.0765395,9 32.1448529,9 C32.2172015,9 32.2720644,8.97266804 32.3099153,8.91772604 C32.3476525,8.86294295 32.3665779,8.795785 32.3665779,8.71639123 C32.3665779,8.66730891 32.3647592,8.62950898 32.3611409,8.60293183 L31.8959617,5.76745988 L33.8593001,3.75991181 C33.9531884,3.66160814 34,3.57083267 34,3.48766487 Z" id="ic-star-copy-11" fill="#FFFFFF" fill-rule="nonzero" opacity="0.5"></path>
                <path d="M9,24.4876649 C9,24.3477674 8.89906436,24.2608255 8.69704152,24.2267599 L5.98199021,23.8128476 L4.76506025,21.2324805 C4.69659527,21.077467 4.60818187,21 4.50002842,21 C4.39189391,21 4.30353734,21.077467 4.23501552,21.2324805 L3.01802873,23.8128476 L0.302844814,24.2267599 C0.10097353,24.2608255 0,24.3477674 0,24.4876649 C0,24.5670984 0.0450876177,24.6578341 0.135243909,24.7599118 L2.10401937,26.7674599 L1.63887807,29.6029318 C1.63166026,29.6558875 1.62807978,29.6938066 1.62807978,29.7163912 C1.62807978,29.795785 1.64698627,29.8628635 1.68483713,29.917726 C1.72266905,29.972668 1.77942641,30 1.85518497,30 C1.9201263,30 1.99220965,29.9774154 2.07152976,29.9320078 L4.49997158,28.5934967 L6.92858391,29.9320078 C7.00443719,29.9774154 7.07653949,30 7.14485292,30 C7.21720149,30 7.27206441,29.972668 7.30991528,29.917726 C7.34765248,29.862943 7.36657791,29.795785 7.36657791,29.7163912 C7.36657791,29.6673089 7.36475925,29.629509 7.36114087,29.6029318 L6.89596169,26.7674599 L8.85930011,24.7599118 C8.95318844,24.6616081 9,24.5708327 9,24.4876649 Z" id="ic-star-copy-12" fill="#FFFFFF" fill-rule="nonzero" opacity="0.5"></path>
                <path d="M13,46.0002545 L13,43.0002545 C13,42.4479698 12.5522847,42.0002545 12,42.0002545 C11.4477153,42.0002545 11,42.4479698 11,43.0002545 L11,43.0002545 L11,46.0002545 L8,46.0002545 C7.44771525,46.0002545 7,46.4479698 7,47.0002545 C7,47.5525393 7.44771525,48.0002545 8,48.0002545 L11,48.0002545 L11,51.0002545 C11,51.5525393 11.4477153,52.0002545 12,52.0002545 C12.5522847,52.0002545 13,51.5525393 13,51.0002545 L13,48.0002545 L16,48.0002545 C16.5522847,48.0002545 17,47.5525393 17,47.0002545 C17,46.4479698 16.5522847,46.0002545 16,46.0002545 L13,46.0002545 Z" id="Combined-Shape" fill="#F3BFE1" opacity="0.66"></path>
                <path d="M22,18 L22,15 C22,14.4477153 21.5522847,14 21,14 C20.4477153,14 20,14.4477153 20,15 L20,15 L20,18 L17,18 C16.4477153,18 16,18.4477153 16,19 C16,19.5522847 16.4477153,20 17,20 L20,20 L20,23 C20,23.5522847 20.4477153,24 21,24 C21.5522847,24 22,23.5522847 22,23 L22,20 L25,20 C25.5522847,20 26,19.5522847 26,19 C26,18.4477153 25.5522847,18 25,18 L22,18 Z" id="Combined-Shape" fill="#F3BFE1" opacity="0.661571558"></path>
            </g>
        </g>
    </g>
</svg>