<?xml version="1.0" encoding="UTF-8"?>
<svg width="115px" height="26px" viewBox="0 0 115 26" version="1.1" xmlns="http://www.w3.org/2000/svg" xmlns:xlink="http://www.w3.org/1999/xlink">
    <!-- Generator: sketchtool 48.2 (47327) - http://www.bohemiancoding.com/sketch -->
    <title>8E6C1280-D6F7-4DAA-9348-A33D2B961894</title>
    <desc>Created with sketchtool.</desc>
    <defs></defs>
    <g id="Footer" stroke="none" stroke-width="1" fill="none" fill-rule="evenodd" transform="translate(-40.000000, -11.000000)" fill-opacity="0.5">
        <path d="M40,15.2494393 L41.5361823,15.2494393 L41.5361823,17.9427458 C41.7223871,17.5171348 41.9551397,17.1247805 42.2344469,16.7656711 C42.5137542,16.4065618 42.8329577,16.0973334 43.1920671,15.8379766 C43.5511764,15.5786199 43.9435307,15.3791177 44.3691418,15.2394641 C44.7947528,15.0998104 45.2536079,15.0432848 45.7457207,15.0698855 L45.7457207,16.7257703 L45.6260182,16.7257703 C45.0674037,16.7257703 44.5387228,16.8255214 44.0399599,17.0250266 C43.5411969,17.2245317 43.1056171,17.523785 42.7332074,17.9227954 C42.3607977,18.3218058 42.0681945,18.8139112 41.855389,19.3991264 C41.6425834,19.9843417 41.5361823,20.6692992 41.5361823,21.4540196 L41.5361823,25.5638059 L40,25.5638059 L40,15.2494393 Z M51.5512926,25.803211 C50.7798726,25.803211 50.0683147,25.6602344 49.4165978,25.3742769 C48.7648808,25.0883195 48.1996246,24.7026153 47.7208122,24.2171526 C47.2419997,23.73169 46.8695956,23.1664338 46.6035887,22.521367 C46.3375818,21.8763002 46.2045803,21.1880177 46.2045803,20.4564986 L46.2045803,20.4165978 C46.2045803,19.6850788 46.3409068,18.9934712 46.6135639,18.3417542 C46.886221,17.6900373 47.2619501,17.118131 47.7407626,16.6260182 C48.219575,16.1339054 48.7881563,15.7448761 49.4465234,15.4589187 C50.1048905,15.1729612 50.8197734,15.0299847 51.5911935,15.0299847 C52.3626135,15.0299847 53.0774964,15.1729612 53.7358635,15.4589187 C54.3942306,15.7448761 54.9628119,16.1305803 55.4416244,16.616043 C55.9204368,17.1015056 56.2928409,17.6667618 56.5588478,18.3118286 C56.8248547,18.9568954 56.9578562,19.6451779 56.9578562,20.376697 L56.9578562,20.4165978 C56.9578562,21.1481168 56.8215297,21.8397244 56.5488726,22.4914414 C56.2762155,23.1431583 55.9004864,23.7150646 55.4216739,24.2071774 C54.9428615,24.6992902 54.3742802,25.0883195 53.7159131,25.3742769 C53.057546,25.6602344 52.336013,25.803211 51.5512926,25.803211 Z M51.5911935,24.426632 C52.149808,24.426632 52.6618636,24.3202309 53.1273757,24.1074253 C53.5928878,23.8946198 53.9918922,23.6086667 54.3244009,23.2495573 C54.6569095,22.890448 54.9162624,22.4714934 55.1024672,21.9926809 C55.2886721,21.5138685 55.3817731,21.0018128 55.3817731,20.4564986 L55.3817731,20.4165978 C55.3817731,19.8579833 55.285347,19.3359525 55.092492,18.8504899 C54.899637,18.3650273 54.630309,17.9394226 54.2845,17.5736631 C53.9386911,17.2079036 53.5330366,16.9186254 53.0675245,16.7058199 C52.6020124,16.4930143 52.0966068,16.3866132 51.5512926,16.3866132 C50.9926781,16.3866132 50.4806225,16.4930143 50.0151104,16.7058199 C49.5495983,16.9186254 49.1539189,17.2045785 48.8280604,17.5636879 C48.502202,17.9227972 48.2461741,18.3450769 48.0599693,18.8305395 C47.8737645,19.3160021 47.7806634,19.8313828 47.7806634,20.376697 L47.7806634,20.4165978 C47.7806634,20.9752123 47.8770895,21.4972431 48.0699445,21.9827057 C48.2627995,22.4681683 48.5288024,22.890448 48.8679613,23.2495573 C49.2071201,23.6086667 49.6094495,23.8946198 50.0749616,24.1074253 C50.5404737,24.3202309 51.0458793,24.426632 51.5911935,24.426632 Z M62.0053122,25.7832605 C61.5264998,25.7832605 61.0543446,25.7134348 60.5888325,25.5737811 C60.1233204,25.4341275 59.7110158,25.2313003 59.3519065,24.9652934 C58.9927971,24.6992864 58.703519,24.3667828 58.4840633,23.9677724 C58.2646075,23.568762 58.1548813,23.1032569 58.1548813,22.5712431 L58.1548813,22.5313422 C58.1548813,21.9727277 58.2612825,21.4839473 58.474088,21.0649864 C58.6868936,20.6460255 58.9894719,20.2968967 59.3818321,20.0175894 C59.7741923,19.7382822 60.2396974,19.5254798 60.7783614,19.379176 C61.3170255,19.2328722 61.912207,19.1597214 62.563924,19.1597214 C63.2289412,19.1597214 63.8041726,19.1996218 64.2896352,19.2794239 C64.7750978,19.359226 65.2505781,19.4656272 65.7160902,19.5986306 L65.7160902,19.2794239 C65.7160902,18.3617001 65.4500872,17.6667674 64.9180734,17.1946051 C64.3860596,16.7224428 63.6346013,16.4863652 62.663676,16.4863652 C62.0518601,16.4863652 61.496579,16.552866 60.9978161,16.6858694 C60.4990531,16.8188729 60.0102727,16.9984249 59.5314603,17.2245308 L59.0726006,15.9676544 C59.6445155,15.7016474 60.2230719,15.4888451 60.8082871,15.3292409 C61.3935023,15.1696368 62.0651597,15.0898359 62.8232794,15.0898359 C64.2863174,15.0898359 65.3968797,15.4688901 66.1549994,16.2270098 C66.8732181,16.9452285 67.232322,17.9560396 67.232322,19.2594735 L67.232322,25.5638059 L65.7160902,25.5638059 L65.7160902,24.0276237 C65.5431857,24.2537295 65.3370334,24.473182 65.0976272,24.6859875 C64.8582209,24.898793 64.5855679,25.0849951 64.27966,25.2445992 C63.973752,25.4042034 63.6312733,25.5338798 63.2522134,25.6336324 C62.8731536,25.733385 62.457524,25.7832605 62.0053122,25.7832605 Z M62.3045685,24.5463346 C62.783381,24.5463346 63.2289359,24.4798338 63.6412466,24.3468304 C64.0535573,24.2138269 64.4159863,24.0242998 64.7285444,23.7782434 C65.0411026,23.532187 65.2871553,23.2395838 65.4667099,22.900425 C65.6462646,22.5612662 65.7360406,22.185537 65.7360406,21.7732263 L65.7360406,20.8156062 C65.3503306,20.7092034 64.9114257,20.6094523 64.4193129,20.5163499 C63.9272001,20.4232475 63.3619439,20.376697 62.7235273,20.376697 C61.7659024,20.376697 61.0244192,20.5662241 60.4990556,20.9452839 C59.9736919,21.3243438 59.711014,21.8264243 59.711014,22.4515406 L59.711014,22.4914414 C59.711014,22.8106497 59.7808398,23.0999279 59.9204934,23.3592846 C60.0601471,23.6186414 60.2496741,23.8347687 60.4890804,24.0076732 C60.7284866,24.1805777 61.0044646,24.3135792 61.3170228,24.4066816 C61.6295809,24.499784 61.9587595,24.5463346 62.3045685,24.5463346 Z M74.0154645,25.7832605 C73.4036486,25.7832605 72.801817,25.6635592 72.2099516,25.424153 C71.6180862,25.1847468 71.0894054,24.8356179 70.6238932,24.376756 C70.1583811,23.9178941 69.785977,23.3592879 69.5066698,22.7009208 C69.2273625,22.0425537 69.087711,21.2877704 69.087711,20.4365482 L69.087711,20.3966474 C69.087711,19.5587256 69.2273625,18.8072673 69.5066698,18.14225 C69.785977,17.4772327 70.1583811,16.9153016 70.6238932,16.4564396 C71.0894054,15.9975777 71.6180862,15.6451238 72.2099516,15.3990674 C72.801817,15.153011 73.4036486,15.0299847 74.0154645,15.0299847 C74.4942769,15.0299847 74.9331818,15.0898353 75.3321921,15.2095384 C75.7312025,15.3292415 76.0903065,15.4888433 76.4095148,15.6883485 C76.7287231,15.8878537 77.0180013,16.1206062 77.277358,16.3866132 C77.5367148,16.6526201 77.7661423,16.9319231 77.9656475,17.2245308 L77.9656475,11 L79.5018297,11 L79.5018297,25.5638059 L77.9656475,25.5638059 L77.9656475,23.4889623 C77.7528419,23.7948703 77.5167643,24.0874735 77.2574076,24.3667808 C76.9980508,24.646088 76.7087727,24.8888157 76.3895644,25.0949711 C76.0703561,25.3011264 75.7145771,25.4673783 75.3222169,25.5937316 C74.9298567,25.7200848 74.4942769,25.7832605 74.0154645,25.7832605 Z M74.2947704,24.4066816 C73.8026576,24.4066816 73.3371524,24.3135806 72.898241,24.1273758 C72.4593296,23.9411709 72.0736254,23.675168 71.7411167,23.329359 C71.4086081,22.98355 71.1459302,22.5645954 70.9530752,22.0724826 C70.7602201,21.5803698 70.6637941,21.0284137 70.6637941,20.4165978 L70.6637941,20.376697 C70.6637941,19.7515807 70.7602201,19.1929746 70.9530752,18.7008618 C71.1459302,18.208749 71.405283,17.7931194 71.7311415,17.4539606 C72.057,17.1148018 72.4427042,16.8554489 72.8882658,16.6758942 C73.3338274,16.4963396 73.8026576,16.4065636 74.2947704,16.4065636 C74.7735828,16.4065636 75.2357629,16.5029896 75.6813245,16.6958446 C76.1268861,16.8886997 76.5258905,17.1580276 76.8783496,17.5038366 C77.2308088,17.8496456 77.5101119,18.2652752 77.7162672,18.7507378 C77.9224226,19.2362004 78.0254987,19.7781814 78.0254987,20.376697 L78.0254987,20.4165978 C78.0254987,21.0151134 77.9224226,21.5570943 77.7162672,22.042557 C77.5101119,22.5280196 77.2308088,22.9469742 76.8783496,23.2994334 C76.5258905,23.6518925 76.1268861,23.9245455 75.6813245,24.1174005 C75.2357629,24.3102556 74.7735828,24.4066816 74.2947704,24.4066816 Z M86.0777949,25.7433597 C85.6122828,25.7433597 85.1900032,25.6934841 84.8109433,25.5937316 C84.4318834,25.493979 84.1060299,25.317752 83.8333728,25.0650454 C83.5607157,24.8123389 83.3479133,24.4798352 83.1949594,24.0675245 C83.0420054,23.6552138 82.9655295,23.1431581 82.9655295,22.5313422 L82.9655295,17.4639358 L81.6887027,17.4639358 L81.6887027,14.8703813 L82.9655295,14.8703813 L82.9655295,12.1371739 L85.9979932,12.1371739 L85.9979932,14.8703813 L88.511746,14.8703813 L88.511746,17.4639358 L85.9979932,17.4639358 L85.9979932,22.0325817 C85.9979932,22.7241997 86.3238468,23.0700035 86.9755638,23.0700035 C87.5075776,23.0700035 88.0063331,22.9436522 88.4718452,22.6909456 L88.4718452,25.1248967 C88.1526369,25.3111015 87.800183,25.4607282 87.414473,25.5737811 C87.028763,25.6868341 86.5832081,25.7433597 86.0777949,25.7433597 Z M89.9481762,14.8703813 L92.9806399,14.8703813 L92.9806399,17.0250266 C93.2865479,16.2802072 93.7088275,15.6916757 94.2474915,15.2594145 C94.7861555,14.8271532 95.5010384,14.6309761 96.3921616,14.6708771 L96.3921616,17.8429937 L96.2325582,17.8429937 C95.2217319,17.8429937 94.4270482,18.1488971 93.8484831,18.760713 C93.2699181,19.3725289 92.9806399,20.3234894 92.9806399,21.6136229 L92.9806399,25.5638059 L89.9481762,25.5638059 L89.9481762,14.8703813 Z M97.5492859,11 L100.741353,11 L100.741353,13.6933066 L97.5492859,13.6933066 L97.5492859,11 Z M97.6290875,14.8703813 L100.661551,14.8703813 L100.661551,25.5638059 L97.6290875,25.5638059 L97.6290875,14.8703813 Z M102.716444,14.8703813 L105.748908,14.8703813 L105.748908,16.4065636 C106.121318,15.9011504 106.570198,15.4855209 107.095561,15.1596624 C107.620925,14.8338039 108.282607,14.6708771 109.080628,14.6708771 C109.705744,14.6708771 110.310901,14.7905784 110.896116,15.0299847 C111.481331,15.2693909 112.000037,15.6251698 112.452249,16.0973321 C112.904461,16.5694944 113.26689,17.1480507 113.539547,17.8330185 C113.812204,18.5179863 113.94853,19.30602 113.94853,20.1971432 L113.94853,20.237044 C113.94853,21.1281672 113.812204,21.9162009 113.539547,22.6011687 C113.26689,23.2861365 112.907786,23.8646929 112.462224,24.3368552 C112.016663,24.8090174 111.501282,25.1647963 110.916067,25.4042026 C110.330851,25.6436088 109.719045,25.7633101 109.080628,25.7633101 C108.269307,25.7633101 107.600975,25.6037084 107.075611,25.2845001 C106.550247,24.9652918 106.108017,24.5928877 105.748908,24.1672766 L105.748908,28.755873 L102.716444,28.755873 L102.716444,14.8703813 Z M108.302562,23.1897061 C108.661671,23.1897061 108.9975,23.1198803 109.310058,22.9802267 C109.622616,22.840573 109.898594,22.6410708 110.138,22.3817141 C110.377407,22.1223573 110.566934,21.8131289 110.706587,21.4540196 C110.846241,21.0949103 110.916067,20.6892558 110.916067,20.237044 L110.916067,20.1971432 C110.916067,19.7582318 110.846241,19.3559024 110.706587,18.9901428 C110.566934,18.6243833 110.377407,18.3118299 110.138,18.0524731 C109.898594,17.7931164 109.622616,17.5936142 109.310058,17.4539606 C108.9975,17.3143069 108.661671,17.2444812 108.302562,17.2444812 C107.943452,17.2444812 107.607624,17.3143069 107.295066,17.4539606 C106.982507,17.5936142 106.709854,17.7931164 106.477098,18.0524731 C106.244342,18.3118299 106.05814,18.6243833 105.918487,18.9901428 C105.778833,19.3559024 105.709007,19.7582318 105.709007,20.1971432 L105.709007,20.237044 C105.709007,20.6759554 105.778833,21.0782849 105.918487,21.4440444 C106.05814,21.8098039 106.244342,22.1223573 106.477098,22.3817141 C106.709854,22.6410708 106.982507,22.840573 107.295066,22.9802267 C107.607624,23.1198803 107.943452,23.1897061 108.302562,23.1897061 Z M115.38496,14.8703813 L118.417424,14.8703813 L118.417424,16.4065636 C118.789834,15.9011504 119.238714,15.4855209 119.764077,15.1596624 C120.289441,14.8338039 120.951123,14.6708771 121.749144,14.6708771 C122.37426,14.6708771 122.979417,14.7905784 123.564632,15.0299847 C124.149848,15.2693909 124.668553,15.6251698 125.120765,16.0973321 C125.572977,16.5694944 125.935406,17.1480507 126.208063,17.8330185 C126.48072,18.5179863 126.617046,19.30602 126.617046,20.1971432 L126.617046,20.237044 C126.617046,21.1281672 126.48072,21.9162009 126.208063,22.6011687 C125.935406,23.2861365 125.576302,23.8646929 125.13074,24.3368552 C124.685179,24.8090174 124.169798,25.1647963 123.584583,25.4042026 C122.999368,25.6436088 122.387561,25.7633101 121.749144,25.7633101 C120.937823,25.7633101 120.269491,25.6037084 119.744127,25.2845001 C119.218763,24.9652918 118.776534,24.5928877 118.417424,24.1672766 L118.417424,28.755873 L115.38496,28.755873 L115.38496,14.8703813 Z M120.971078,23.1897061 C121.330187,23.1897061 121.666016,23.1198803 121.978574,22.9802267 C122.291132,22.840573 122.56711,22.6410708 122.806516,22.3817141 C123.045923,22.1223573 123.23545,21.8131289 123.375103,21.4540196 C123.514757,21.0949103 123.584583,20.6892558 123.584583,20.237044 L123.584583,20.1971432 C123.584583,19.7582318 123.514757,19.3559024 123.375103,18.9901428 C123.23545,18.6243833 123.045923,18.3118299 122.806516,18.0524731 C122.56711,17.7931164 122.291132,17.5936142 121.978574,17.4539606 C121.666016,17.3143069 121.330187,17.2444812 120.971078,17.2444812 C120.611968,17.2444812 120.27614,17.3143069 119.963582,17.4539606 C119.651024,17.5936142 119.378371,17.7931164 119.145614,18.0524731 C118.912858,18.3118299 118.726656,18.6243833 118.587003,18.9901428 C118.447349,19.3559024 118.377523,19.7582318 118.377523,20.1971432 L118.377523,20.237044 C118.377523,20.6759554 118.447349,21.0782849 118.587003,21.4440444 C118.726656,21.8098039 118.912858,22.1223573 119.145614,22.3817141 C119.378371,22.6410708 119.651024,22.840573 119.963582,22.9802267 C120.27614,23.1198803 120.611968,23.1897061 120.971078,23.1897061 Z M133.120883,25.803211 C132.322862,25.803211 131.581379,25.6702095 130.896411,25.4042026 C130.211443,25.1381957 129.619587,24.7591415 129.120824,24.2670287 C128.622061,23.7749159 128.233032,23.1897094 127.953724,22.5113918 C127.674417,21.8330742 127.534766,21.088266 127.534766,20.2769449 L127.534766,20.237044 C127.534766,19.4789243 127.664442,18.7607164 127.923799,18.0823988 C128.183156,17.4040811 128.545585,16.8122246 129.011097,16.3068115 C129.476609,15.8013983 130.035215,15.4023939 130.686932,15.1097863 C131.338649,14.8171787 132.050207,14.6708771 132.821627,14.6708771 C133.71275,14.6708771 134.484158,14.8304789 135.135875,15.1496872 C135.787592,15.4688955 136.329573,15.8978252 136.761835,16.4364892 C137.194096,16.9751532 137.513299,17.59361 137.719455,18.2918782 C137.92561,18.9901463 138.028686,19.7183293 138.028686,20.4764491 C138.028686,20.5961522 138.025361,20.7225036 138.018711,20.855507 C138.012061,20.9885105 138.002086,21.128162 137.988785,21.2744658 L130.547279,21.2744658 C130.693583,21.9660838 130.996161,22.4881146 131.455023,22.8405737 C131.913885,23.1930329 132.482466,23.3692598 133.160784,23.3692598 C133.666197,23.3692598 134.118402,23.2828089 134.517412,23.1099044 C134.916423,22.9369999 135.328727,22.6576968 135.754338,22.2719868 L137.490025,23.808169 C136.984612,24.4332853 136.372805,24.9220657 135.654586,25.2745248 C134.936368,25.626984 134.091808,25.803211 133.120883,25.803211 Z M135.076024,19.379176 C134.982922,18.7008584 134.743519,18.1522273 134.357809,17.7332664 C133.972099,17.3143055 133.460043,17.1048282 132.821627,17.1048282 C132.18321,17.1048282 131.667829,17.3109805 131.275469,17.7232912 C130.883109,18.135602 130.627081,18.687558 130.507378,19.379176 L135.076024,19.379176 Z M139.485067,14.8703813 L142.51753,14.8703813 L142.51753,17.0250266 C142.823438,16.2802072 143.245718,15.6916757 143.784382,15.2594145 C144.323046,14.8271532 145.037929,14.6309761 145.929052,14.6708771 L145.929052,17.8429937 L145.769449,17.8429937 C144.758622,17.8429937 143.963939,18.1488971 143.385374,18.760713 C142.806809,19.3725289 142.51753,20.3234894 142.51753,21.6136229 L142.51753,25.5638059 L139.485067,25.5638059 L139.485067,14.8703813 Z M150.777004,25.7633101 C150.018884,25.7633101 149.244151,25.6336337 148.45278,25.3742769 C147.661409,25.1149202 146.906626,24.7059407 146.188408,24.1473262 L147.485185,22.1522843 C148.0704,22.5778953 148.652281,22.8970988 149.230846,23.1099044 C149.809411,23.3227099 150.351392,23.4291111 150.856806,23.4291111 C151.295717,23.4291111 151.618246,23.3559603 151.824401,23.2096565 C152.030556,23.0633527 152.133632,22.8705005 152.133632,22.6310943 L152.133632,22.5911935 C152.133632,22.4315893 152.073782,22.2919378 151.954079,22.1722347 C151.834376,22.0525316 151.671449,21.9494554 151.465293,21.8630032 C151.259138,21.7765509 151.02306,21.693425 150.757053,21.6136229 C150.491047,21.5338209 150.211743,21.4473699 149.919136,21.3542675 C149.546726,21.2478647 149.170997,21.1181883 148.791937,20.9652343 C148.412877,20.8122804 148.070399,20.6127782 147.764491,20.3667218 C147.458583,20.1206654 147.209205,19.818087 147.01635,19.4589777 C146.823495,19.0998683 146.727069,18.6609635 146.727069,18.14225 L146.727069,18.1023492 C146.727069,17.557035 146.830145,17.0749047 147.0363,16.6559438 C147.242456,16.2369829 147.521759,15.881204 147.874218,15.5885964 C148.226677,15.2959888 148.642307,15.0765364 149.121119,14.9302326 C149.599932,14.7839288 150.105337,14.7107779 150.637351,14.7107779 C151.315669,14.7107779 152.003951,14.8205042 152.702219,15.0399599 C153.400487,15.2594156 154.04222,15.5619939 154.627435,15.9477039 L153.47031,18.0424979 C152.938297,17.73659 152.419591,17.4938623 151.914178,17.3143076 C151.408765,17.134753 150.96321,17.044977 150.5775,17.044977 C150.20509,17.044977 149.925787,17.1148027 149.739582,17.2544564 C149.553377,17.39411 149.460276,17.570337 149.460276,17.7831425 L149.460276,17.8230433 C149.460276,17.9693471 149.520127,18.0990236 149.63983,18.2120765 C149.759533,18.3251294 149.919135,18.4315306 150.11864,18.5312832 C150.318145,18.6310358 150.547573,18.7241368 150.80693,18.8105891 C151.066286,18.8970413 151.342264,18.9934674 151.634872,19.0998701 C152.007282,19.2195733 152.386336,19.3625498 152.772046,19.5288042 C153.157756,19.6950585 153.50356,19.8978857 153.809468,20.1372919 C154.115376,20.3766982 154.368078,20.6693014 154.567584,21.0151104 C154.767089,21.3609194 154.86684,21.779874 154.86684,22.2719868 L154.86684,22.3118876 C154.86684,22.9104032 154.763764,23.4257839 154.557608,23.8580451 C154.351453,24.2903063 154.062175,24.6460853 153.689765,24.9253925 C153.317355,25.2046998 152.885101,25.4141771 152.392988,25.5538307 C151.900875,25.6934843 151.362219,25.7633101 150.777004,25.7633101 Z M137.505371,37 C137.032697,37 136.593793,36.9140606 136.188644,36.7421792 C135.783495,36.5702978 135.433598,36.3354991 135.138945,36.0377759 C134.844291,35.7400528 134.614096,35.388622 134.448353,34.983473 C134.28261,34.578324 134.19974,34.1455577 134.19974,33.6851611 L134.19974,33.6667454 C134.19974,33.2063488 134.28261,32.7751171 134.448353,32.3730374 C134.614096,31.9709577 134.844291,31.6179923 135.138945,31.3141306 C135.433598,31.0102688 135.786564,30.7708662 136.197851,30.5959155 C136.609139,30.4209648 137.06339,30.3334907 137.560619,30.3334907 C137.86755,30.3334907 138.143783,30.3580448 138.389328,30.4071538 C138.634873,30.4562628 138.858929,30.5237866 139.061504,30.6097273 C139.264078,30.695668 139.451304,30.800023 139.623185,30.9227954 C139.795066,31.0455678 139.954668,31.1806155 140.101995,31.3279424 L139.199622,32.3684335 C138.947939,32.1413045 138.691655,31.9632872 138.430764,31.8343761 C138.169872,31.7054651 137.876758,31.6410105 137.551411,31.6410105 C137.281311,31.6410105 137.031166,31.693188 136.800968,31.7975446 C136.57077,31.9019011 136.372802,32.0461566 136.207059,32.2303152 C136.041317,32.4144738 135.912407,32.6277877 135.820328,32.8702633 C135.728249,33.1127388 135.68221,33.3720916 135.68221,33.6483296 L135.68221,33.6667454 C135.68221,33.9429833 135.728249,34.2038708 135.820328,34.4494157 C135.912407,34.6949605 136.039782,34.909809 136.202455,35.0939677 C136.365129,35.2781263 136.561562,35.4239164 136.79176,35.5313422 C137.021958,35.6387681 137.275173,35.6924802 137.551411,35.6924802 C137.919728,35.6924802 138.231258,35.6234218 138.486011,35.4853028 C138.740764,35.3471838 138.993978,35.1645626 139.245662,34.9374336 L140.148034,35.8490143 C139.982292,36.0270343 139.810413,36.1866361 139.632393,36.3278243 C139.454373,36.4690126 139.259475,36.5902486 139.047692,36.6915358 C138.83591,36.7928231 138.60418,36.8695547 138.352497,36.921733 C138.100813,36.9739113 137.818441,37 137.505371,37 Z M141.197733,30.1677488 L142.597332,30.1677488 L142.597332,36.8895054 L141.197733,36.8895054 L141.197733,30.1677488 Z M145.553063,36.9815842 C145.019003,36.9815842 144.606187,36.8189132 144.314603,36.4935663 C144.023018,36.1682194 143.877228,35.7201067 143.877228,35.149215 L143.877228,31.9540786 L145.276827,31.9540786 L145.276827,34.7072365 C145.276827,35.038722 145.350489,35.2888671 145.497816,35.4576791 C145.645143,35.6264912 145.853853,35.710896 146.123952,35.710896 C146.394052,35.710896 146.607366,35.6264912 146.7639,35.4576791 C146.920435,35.2888671 146.998701,35.038722 146.998701,34.7072365 L146.998701,31.9540786 L148.3983,31.9540786 L148.3983,36.8895054 L146.998701,36.8895054 L146.998701,36.1897061 C146.918899,36.2940626 146.831425,36.3938137 146.736277,36.4889623 C146.641128,36.584111 146.535238,36.6685157 146.418605,36.7421792 C146.301971,36.8158427 146.173062,36.8741587 146.031873,36.917129 C145.890685,36.9600994 145.731083,36.9815842 145.553063,36.9815842 Z M152.587888,36.9815842 C152.213432,36.9815842 151.904971,36.9079219 151.662496,36.760595 C151.42002,36.6132681 151.215914,36.4413892 151.050171,36.2449534 L151.050171,36.8895054 L149.650573,36.8895054 L149.650573,30.1677488 L151.050171,30.1677488 L151.050171,32.6630858 C151.222053,32.4298182 151.429228,32.2379892 151.671703,32.087593 C151.914179,31.9371967 152.219571,31.8619998 152.587888,31.8619998 C152.876403,31.8619998 153.155706,31.9172465 153.425806,32.0277417 C153.695905,32.1382369 153.935308,32.3024425 154.144021,32.5203636 C154.352734,32.7382846 154.520009,33.0053107 154.645851,33.3214497 C154.771692,33.6375886 154.834612,34.0012965 154.834612,34.4125841 L154.834612,34.4309999 C154.834612,34.8422875 154.771692,35.2059954 154.645851,35.5221343 C154.520009,35.8382733 154.354269,36.1052993 154.148625,36.3232204 C153.942981,36.5411415 153.705113,36.7053471 153.435014,36.8158423 C153.164914,36.9263375 152.882542,36.9815842 152.587888,36.9815842 Z M152.228781,35.793767 C152.394523,35.793767 152.549521,35.7615397 152.693779,35.6970842 C152.838036,35.6326286 152.965411,35.5405507 153.075906,35.4208476 C153.186401,35.3011445 153.273875,35.1584237 153.338331,34.9926809 C153.402786,34.8269381 153.435014,34.639713 153.435014,34.4309999 L153.435014,34.4125841 C153.435014,34.2100096 153.402786,34.0243191 153.338331,33.855507 C153.273875,33.6866949 153.186401,33.5424395 153.075906,33.4227364 C152.965411,33.3030333 152.838036,33.2109553 152.693779,33.1464998 C152.549521,33.0820443 152.394523,33.049817 152.228781,33.049817 C152.063038,33.049817 151.90804,33.0820443 151.763782,33.1464998 C151.619525,33.2109553 151.493685,33.3030333 151.386259,33.4227364 C151.278833,33.5424395 151.192894,33.6866949 151.128438,33.855507 C151.063983,34.0243191 151.031755,34.2100096 151.031755,34.4125841 L151.031755,34.4309999 C151.031755,34.6335744 151.063983,34.8192649 151.128438,34.988077 C151.192894,35.1568891 151.278833,35.3011445 151.386259,35.4208476 C151.493685,35.5405507 151.619525,35.6326286 151.763782,35.6970842 C151.90804,35.7615397 152.063038,35.793767 152.228781,35.793767 Z" id="Road-Trippers-footer-logo" fill="#000000"></path>
    </g>
</svg>