<?xml version="1.0" standalone="no"?>
<!-- Generator: Adobe Fireworks 10, Export SVG Extension by Aaron Beall (http://fireworks.abeall.com) . Version: 0.6.1  -->
<!DOCTYPE svg PUBLIC "-//W3C//DTD SVG 1.1//EN" "http://www.w3.org/Graphics/SVG/1.1/DTD/svg11.dtd">
<svg id="m-icons.fw-Page%201" viewBox="0 0 600 600" style="background-color:#ffffff00" version="1.1"
	xmlns="http://www.w3.org/2000/svg" xmlns:xlink="http://www.w3.org/1999/xlink" xml:space="preserve"
	x="0px" y="0px" width="600px" height="600px"
>
	<defs>
		<clipPath id="mask1">
			<path id="Ellipse2" d="M 219.75 35 C 219.75 21.0547 231.0546 9.75 245 9.75 C 258.9454 9.75 270.25 21.0547 270.25 35 C 270.25 48.9453 258.9454 60.25 245 60.25 C 231.0546 60.25 219.75 48.9453 219.75 35 Z" stroke="#848eab" stroke-width="2" fill="none"/>
		</clipPath>
			<clipPath id="mask2">
				<rect x="6.7261" y="7.7483" width="70" height="84" fill="#ffffff" rx="4" ry="4"/>
			</clipPath>
			<clipPath id="mask3">
				<path id="Ellipse6" d="M 599.0327 59.6848 C 599.0327 26.9976 572.6107 0.5 540.0164 0.5 C 507.4221 0.5 481 26.9976 481 59.6848 C 481 92.3721 507.4221 118.8695 540.0164 118.8695 C 572.6107 118.8695 599.0327 92.3721 599.0327 59.6848 Z" fill="#f9f9f9"/>
			</clipPath>
		<clipPath id="mask4">
			<path id="Ellipse9" d="M 598.5327 209.6848 C 598.5327 176.9976 572.1107 150.5 539.5164 150.5 C 506.9221 150.5 480.5 176.9976 480.5 209.6848 C 480.5 242.3721 506.9221 268.8695 539.5164 268.8695 C 572.1107 268.8695 598.5327 242.3721 598.5327 209.6848 Z" fill="#f9f9f9"/>
		</clipPath>
		<clipPath id="mask5">
			<path id="Ellipse11" d="M 61 235.5 C 61 221.4166 49.5835 210 35.5 210 C 21.4166 210 10 221.4166 10 235.5 C 10 249.5835 21.4166 261 35.5 261 C 49.5835 261 61 249.5835 61 235.5 Z" stroke="#848eab" stroke-width="2" fill="#dae0eb"/>
		</clipPath>
	</defs>
	<g id="Layer%201">
		<rect visibility="hidden" x="0" y="200" width="70" height="70" fill="#0053a0"/>
		<path opacity="0.851" d="M 307.8167 10 L 295 23.6731 L 295 60 L 335 60 L 335 10 L 307.8167 10 ZM 332 57 L 298 57 L 298 25 L 310 25 L 310 13 L 332 13 L 332 57 ZM 301 48.8259 L 301 54 L 329 54 L 329 48.8259 L 319.1288 34.6814 L 314.9961 41.0985 L 309.7642 38.8066 L 301 48.8259 ZM 310.4536 32.6704 C 310.4536 30.2465 308.5066 28.281 306.1023 28.281 C 303.7026 28.281 301.7585 30.2465 301.7585 32.6704 C 301.7585 35.1011 303.7026 37.0665 306.1023 37.0665 C 308.5066 37.0665 310.4536 35.1011 310.4536 32.6704 Z" fill="#7983a2"/>
			<path id="Ellipse" d="M 219.75 35 C 219.75 21.0547 231.0546 9.75 245 9.75 C 258.9454 9.75 270.25 21.0547 270.25 35 C 270.25 48.9453 258.9454 60.25 245 60.25 C 231.0546 60.25 219.75 48.9453 219.75 35 Z" stroke="#848eab" stroke-width="2" fill="none"/>
		<path opacity="0.851" clip-path="url(#mask1)" d="M 260.0852 53.0903 C 253.0953 50.5691 250.8613 48.4431 250.8613 43.8906 C 250.8613 41.158 252.9957 42.0503 253.9327 37.0454 C 254.3214 34.9692 256.2065 37.0115 256.5675 32.272 C 256.5675 30.3828 255.5386 29.9135 255.5386 29.9135 C 255.5386 29.9135 256.0613 27.1182 256.2662 24.9667 C 256.5199 22.2861 254.7012 15.3611 245 15.3611 C 235.299 15.3611 233.4792 22.2861 233.7338 24.9667 C 233.9387 27.1182 234.4614 29.9135 234.4614 29.9135 C 234.4614 29.9135 233.4327 30.3828 233.4327 32.272 C 233.7927 37.0115 235.6779 34.9692 236.0668 37.0454 C 237.0047 42.0503 239.1381 41.158 239.1381 43.8906 C 239.1381 48.4431 236.905 50.5691 229.915 53.0903 C 222.9028 55.6187 218.3472 58.1957 218.3472 59.9543 C 218.3472 61.7107 271.6528 61.7107 271.6528 59.9543 C 271.6528 58.1957 267.0972 55.6187 260.0852 53.0903 Z" fill="#7983a2"/>
		<path opacity="0.851" d="M 150 22 L 150 60 L 200 60 L 200 22 L 150 22 ZM 197 57 L 153 57 L 153 25 L 197 25 L 197 57 ZM 193 37 L 184 37 L 184 28 L 193 28 L 193 37 ZM 179 47 L 157 47 L 157 44 L 179 44 L 179 47 ZM 179 53 L 157 53 L 157 50 L 179 50 L 179 53 ZM 197 19 L 153 19 L 153 16 L 197 16 L 197 19 ZM 193 13 L 156 13 L 156 10 L 193 10 L 193 13 ZM 193.7496 13.1252 L 193.7496 13.1252 Z" fill="#7983a2"/>
		<g>
			<rect x="1.5856" y="2.589" width="82.2821" height="94.3177" fill="#cccccc" rx="4" ry="4"/>
				<rect x="6.7261" y="7.7483" width="70" height="84" fill="#ffffff" rx="4" ry="4"/>
			<g clip-path="url(#mask2)">
				<path d="M 16.1538 50.0057 L 47.3077 93 L -15 93 L 16.1538 50.0057 Z" fill="#5687d1"/>
				<path d="M 49.6154 40 L 90 95 L 9.2308 95 L 49.6154 40 Z" fill="#0053a0"/>
			</g>
			<path id="Ellipse3" d="M 56 32 C 56 29.2385 58.2385 27 61 27 C 63.7615 27 66 29.2385 66 32 C 66 34.7615 63.7615 37 61 37 C 58.2385 37 56 34.7615 56 32 Z" fill="#ff5c26"/>
		</g>
		<g>
			<path d="M 375.423 24.1046 L 400.3461 58 L 350.5 58 L 375.423 24.1046 Z" fill="#cccccc"/>
			<path id="Ellipse4" d="M 350 26 C 350 23.7908 351.7908 22 354 22 C 356.2092 22 358 23.7908 358 26 C 358 28.2092 356.2092 30 354 30 C 351.7908 30 350 28.2092 350 26 Z" fill="#cccccc"/>
			<path d="M 391.1538 16.0057 L 360 59 L 422.3077 59 L 411.455 44.025 C 409.7923 44.7805 407.9454 45.2 406 45.2 C 398.7097 45.2 392.8 39.2903 392.8 32 C 392.8 28.558 394.1169 25.4249 396.275 23.075 L 391.1538 16.0057 Z" fill="#0053a0"/>
			<path d="M 405 26 L 407 26 L 407 31 L 412 31 L 412 33 L 407 33 L 407 38 L 405 38 L 405 33 L 400 33 L 400 31 L 405 31 L 405 26 ZM 395 32 C 395 38.0753 399.9247 43 406 43 C 412.0753 43 417 38.0753 417 32 C 417 25.9247 412.0753 21 406 21 C 399.9247 21 395 25.9247 395 32 Z" fill="#0053a0"/>
		</g>
		<path d="M 5 140 L 5 145 L 0 145 L 0 147 L 5 147 L 5 152 L 7 152 L 7 147 L 12 147 L 12 145 L 7 145 L 7 140 L 5 140 Z" fill="#999999"/>
		<path d="M 73 148 L 77 148 L 77 156 L 73 156 L 73 148 ZM 72 157 L 79 157 L 79.0515 156.9919 C 79.0515 156.9919 84.4399 156.9932 85.0938 156.9531 C 85.6348 156.7756 86.21 155.7163 86.2841 155.1836 C 86.3204 154.9221 86.1899 154.4443 86.0942 154.2188 C 86.4543 153.9453 86.8523 153.5542 86.9132 153.1133 C 86.9557 152.8057 86.8153 152.2871 86.6902 152.0063 C 87.2603 151.7266 87.5922 150.1113 87.0792 149.7837 C 87.5422 149.4316 87.8949 148.6763 87.973 148.1101 C 88.0533 147.5283 87.9623 147.0066 87.5922 146.54 C 87.2266 146.0798 86.9166 145.9668 86.3223 145.8848 L 82.9634 145.8848 C 82.7506 145.8145 82.7372 145.501 82.7524 145.4463 C 82.8262 145.1772 82.9578 144.8921 83.0974 144.5906 C 83.3101 144.1316 83.5302 143.6572 83.5831 143.1514 C 83.754 141.5474 82.8862 140.7725 82.1115 140.2761 C 81.8257 140.0933 81.504 140 81.1556 140 C 80.6089 140 80.5183 140.2358 80.4718 140.2632 C 80.2915 140.3672 80.1884 140.561 80.2041 140.7634 C 80.2267 141.051 80.228 141.9434 79.9563 142.6055 C 79.7966 142.9946 79.2836 143.7683 78.7838 144.5161 C 78.053 145.6099 77.6002 146.3159 77.4449 146.7795 L 77.3821 146.9404 C 77.27 146.928 77 147 77 147 L 72.63 147 C 72.1626 147.1426 72 147.5044 72 148.2507 L 72 157 ZM 75 154 L 75 155 L 76 155 L 76 154 L 75 154 Z" fill="#ffffff"/>
		<path d="M 141 145 L 141 154 C 141 155.1046 141.8954 156 143 156 L 144.4451 156 L 144 160 L 149.855 156 L 156 156 C 157.1046 156 158 155.1046 158 154 L 158 145 C 158 143.8954 157.1046 143 156 143 L 143 143 C 141.8954 143 141 143.8954 141 145 Z" fill="#ffffff"/>
		<path d="M 227.9417 149.0132 C 227.7937 147.6702 227.2981 146.4431 226.4971 145.3501 C 225.2064 143.5898 223.4805 142.5137 221.3252 142.1389 C 220.8953 142.0645 220.4557 142.0449 220.0208 142 C 219.9919 142 219.9631 142 219.9344 142 C 219.5281 142.0444 219.12 142.0737 218.7163 142.1356 C 214.572 142.7701 211.5756 146.6853 212.0493 150.8506 C 212.2754 152.8386 213.1101 154.5341 214.5919 155.886 C 216.3538 157.4939 218.4467 158.1833 220.8196 157.9585 C 222.6403 157.7854 224.2294 157.0527 225.5391 155.7739 C 227.441 153.916 228.2321 151.6443 227.9417 149.0132 ZM 226.2529 153.1066 C 226.0505 152.7542 225.7947 152.2627 225.6804 151.8433 C 225.5144 151.2343 225.1157 151.8226 225.0824 152.2203 C 225.0491 152.618 224.7834 152.9163 224.252 152.3198 C 223.7205 151.7231 223.6206 151.8558 223.4546 151.8558 C 223.2886 151.8558 222.9897 152.2535 223.056 154.1094 C 223.1035 155.4347 223.6273 155.6448 223.9697 155.741 C 223.3342 156.1768 222.6038 156.5203 221.7837 156.728 C 218.6504 157.5215 215.4519 156.0806 213.9575 153.2178 C 212.5654 150.5508 213.2437 147.5327 214.6589 145.8716 C 214.6969 146.1702 214.7343 146.4386 214.7653 146.708 C 214.8496 147.4436 214.786 148.1697 214.6355 148.8926 C 214.6034 149.0468 214.6146 149.2223 214.6563 149.3738 C 214.679 149.4565 214.804 149.5543 214.8904 149.5625 C 214.9585 149.5691 215.0771 149.4615 215.1047 149.3807 C 215.1545 149.2363 215.1565 149.0745 215.1719 148.9191 C 215.1829 148.8096 215.1831 148.6985 215.1907 148.5267 C 215.303 148.6177 215.385 148.6727 215.4531 148.7411 C 215.6267 148.9155 215.8022 149.0891 215.9607 149.2766 C 216.0306 149.3596 216.1028 149.4763 216.1008 149.5764 C 216.0964 149.7908 216.1908 149.9365 216.3059 150.105 C 216.4338 150.292 216.4915 150.5276 216.5737 150.7444 C 216.6083 150.8352 216.6155 150.9377 216.6565 151.0251 C 216.7441 151.2122 216.8767 151.3405 217.1046 151.3542 C 217.3442 151.3694 217.4341 151.4622 217.4685 151.7069 C 217.4071 151.7139 217.3462 151.722 217.2849 151.7278 C 216.9926 151.7554 216.8477 151.8894 216.8593 152.1838 C 216.8821 152.7681 217.0934 153.2786 217.5281 153.6846 C 217.6479 153.7964 217.7751 153.9004 217.8916 154.0154 C 218.1575 154.2773 218.2502 154.585 218.1224 154.9468 C 218.0613 155.1191 217.9773 155.2885 217.9502 155.4668 C 217.9226 155.6482 217.9224 155.8447 217.9644 156.0221 C 218.0081 156.2065 217.9893 156.6101 218.1803 156.5767 C 218.5181 156.5177 218.7122 156.5841 218.7385 156.2065 C 218.7434 156.1348 218.7379 156.1257 218.7186 156.0593 C 218.6183 155.7053 219.0742 154.6997 219.3479 154.5164 C 219.5817 154.3595 219.8162 154.2 220.0281 154.0157 C 220.3335 153.751 220.4703 153.4086 220.3418 153.01 C 220.2212 152.6353 220.3625 152.3597 220.625 152.1187 C 220.8933 151.8723 221.0691 151.5889 221.0508 151.2102 C 221.0322 150.8315 220.7839 150.5581 220.4602 150.5969 C 220.302 150.6156 220.1503 150.6913 219.9961 150.7434 C 219.7699 150.8195 219.5493 150.9263 219.3171 150.9678 C 218.9918 151.0254 218.7913 150.8132 218.6462 150.5558 C 218.5294 150.3488 218.491 150.3328 218.2883 150.4618 C 218.1172 150.5709 217.9467 150.6809 217.7694 150.7795 C 217.5854 150.8821 217.4852 150.844 217.3433 150.6906 C 217.2594 150.6001 217.1432 150.5366 217.0354 150.4711 C 216.9579 150.4237 216.853 150.4109 216.7908 150.3513 C 216.7075 150.271 216.5913 150.1516 216.603 150.0645 C 216.6168 149.9622 216.7356 149.8342 216.8394 149.7922 C 217.0178 149.72 217.2207 149.7083 217.4124 149.6667 C 217.5143 149.6447 217.6178 149.6216 217.7142 149.5835 C 217.8462 149.5311 217.8406 149.4446 217.7395 149.3635 C 217.6897 149.3235 217.6282 149.2954 217.5681 149.2715 C 217.2761 149.1541 216.9825 149.042 216.6908 148.9242 C 216.6183 148.8953 216.5469 148.8594 216.4817 148.817 C 216.2983 148.6968 216.2762 148.5642 216.4426 148.4177 C 217.0999 147.8395 217.8672 147.6702 218.5474 148.4385 C 218.7581 148.6765 218.9009 148.9731 219.0999 149.2229 C 219.2563 149.4198 219.4364 149.6047 219.6354 149.7566 C 219.7173 149.8191 219.9016 149.8296 219.9933 149.7795 C 220.1299 149.705 220.1345 149.5349 220.0659 149.3932 C 220.0065 149.27 219.9368 149.1487 219.8528 149.0409 C 219.4666 148.5443 219.493 147.5764 220.2498 147.1726 C 220.5031 147.0374 220.7582 146.895 220.8792 146.5321 C 220.734 146.5713 220.6292 146.5964 220.526 146.6279 C 219.9514 146.8055 220.3514 146.3779 220.6157 146.3032 C 220.7762 146.2578 220.472 146.135 220.472 146.135 C 220.4795 146.1226 220.6741 146.067 220.8907 145.9749 C 221.0398 145.9116 221.1924 145.8406 221.3162 145.74 C 221.3962 145.6743 221.4271 145.5488 221.4799 145.4502 C 221.4667 145.4347 221.4534 145.4196 221.4398 145.4041 C 221.2881 145.4243 221.1364 145.4468 220.9844 145.4639 C 220.7263 145.4927 220.6658 145.4423 220.6418 145.1827 C 220.6252 145.0056 220.4445 144.9089 220.2753 144.9998 C 220.1609 145.0616 220.0621 145.1514 219.952 145.2224 C 219.6979 145.3865 219.5081 145.3208 219.4084 145.0378 C 219.3489 144.8691 219.2662 144.8374 219.1108 144.9319 C 219.0327 144.9791 218.9674 145.0483 218.8879 145.0925 C 218.7576 145.1653 218.625 145.2382 218.4851 145.2875 C 218.3489 145.3357 218.1846 145.3706 218.0918 145.2214 C 217.9922 145.061 218.0793 144.9049 218.205 144.8043 C 218.3611 144.6793 218.5413 144.5823 218.717 144.4839 C 218.9673 144.3433 219.2323 144.2264 219.4741 144.0731 C 219.6515 143.9602 219.7291 143.7761 219.6716 143.559 C 219.6232 143.3756 219.5002 143.3136 219.3301 143.3977 C 219.1895 143.4673 219.0667 143.5762 218.9221 143.6323 C 218.8167 143.6727 218.6851 143.6731 218.5717 143.6532 C 218.5298 143.6458 218.4854 143.53 218.4841 143.4629 C 218.4834 143.4242 218.5621 143.3569 218.6123 143.3488 C 218.9615 143.2944 219.3123 143.2485 219.6635 143.2086 C 219.7098 143.2036 219.7797 143.2322 219.8088 143.2693 C 220.0408 143.5613 220.3645 143.7031 220.7048 143.8042 C 220.991 143.889 221.0325 143.8486 221.0718 143.5493 C 221.4392 143.4629 221.8127 143.293 222.1826 143.5255 C 222.3879 143.6543 222.5747 143.8185 222.7483 143.9885 C 222.7913 144.0308 222.7651 144.1616 222.7444 144.246 C 222.7173 144.3593 222.6545 144.4639 222.6252 144.5773 C 222.5693 144.7968 222.7118 144.9683 222.939 144.9647 C 223.011 144.9631 223.0823 144.9485 223.1545 144.9449 C 223.3645 144.9351 223.4392 145.0154 223.4199 145.2269 C 223.3928 145.5267 223.4429 145.5627 223.7458 145.5116 C 223.8333 145.4968 223.9338 145.5364 224.0227 145.5675 C 224.0756 145.5862 224.1169 145.6367 224.1638 145.6722 C 224.4458 145.8855 224.6614 145.8054 224.7439 145.4568 C 224.7529 145.4187 224.7517 145.3782 224.7595 145.3398 C 224.7922 145.1833 224.881 145.1431 224.9866 145.2543 C 225.2109 145.4912 225.4213 145.7412 225.6488 145.9995 C 225.4043 146.2233 225.3962 146.4951 225.4503 146.7615 C 225.5106 147.0579 225.4323 147.3154 225.3151 147.5764 C 225.2029 147.8267 225.0795 148.0752 225.0046 148.3368 C 224.8923 148.7295 225.0195 148.9089 225.4196 148.9958 C 225.801 149.079 225.8633 149.1555 225.8777 149.5276 C 225.897 150.0352 226.1584 150.3853 226.6045 150.6088 C 226.7036 150.6581 226.8088 150.6956 226.9102 150.7378 C 226.8599 151.5199 226.636 152.3342 226.2529 153.1066 Z" fill="#cccccc"/>
		<path d="M 266.4619 151.0027 L 268.903 153.4557 L 262.7239 159.6649 L 260.2842 157.2119 L 266.4619 151.0027 ZM 270.7552 150.411 L 269.6666 149.3171 C 269.2458 148.8943 268.5627 148.8943 268.1406 149.3171 L 267.0978 150.365 L 269.5388 152.818 L 270.7552 151.5957 C 271.0815 151.2678 271.0815 150.739 270.7552 150.411 ZM 259.0068 160.6599 C 258.9624 160.8607 259.1428 161.0408 259.3428 160.9919 L 262.063 160.3291 L 259.6233 157.8761 L 259.0068 160.6599 Z" fill="#999999"/>
		<path d="M 291 152.5 L 291 161.23 C 291 161.4639 291.0735 161.5 291.3065 161.5 L 298.5781 161.5 C 298.8114 161.5 299 161.3102 299 161.0764 L 299 152.5 L 291 152.5 ZM 293 154.5 L 294 154.5 L 294 159.5 L 293 159.5 L 293 154.5 ZM 296 154.5 L 297 154.5 L 297 159.5 L 296 159.5 L 296 154.5 ZM 290 149.5 L 290 151.5 L 300 151.5 L 300 149.5 L 297 149.5 L 297 148.5 L 293 148.5 L 293 149.5 L 290 149.5 Z" fill="#999999"/>
		<path d="M 328.125 157 C 327.6953 157 327.301 157.1556 326.9849 157.4147 L 323.7231 155.3275 C 323.7391 155.2207 323.75 155.1113 323.75 155 C 323.75 154.8881 323.7391 154.7793 323.7231 154.6725 L 326.9849 152.5847 C 327.301 152.8443 327.6953 153 328.125 153 C 329.1602 153 330 152.1042 330 151 C 330 149.8959 329.1602 149 328.125 149 C 327.0898 149 326.25 149.8959 326.25 151 C 326.25 151.1113 326.261 151.2207 326.2775 151.3275 L 323.0151 153.4146 C 322.6989 153.1556 322.3047 153 321.875 153 C 320.8398 153 320 153.8958 320 155 C 320 156.1042 320.8398 157 321.875 157 C 322.3047 157 322.6989 156.8444 323.0151 156.5847 L 326.2775 158.6725 C 326.261 158.7793 326.25 158.888 326.25 159 C 326.25 160.1041 327.0898 161 328.125 161 C 329.1602 161 330 160.1041 330 159 C 330 157.8958 329.1602 157 328.125 157 L 328.125 157 ZM 328.125 157 L 328.125 157 Z" fill="#999999"/>
		<g>
				<path id="Ellipse5" d="M 599.0327 59.6848 C 599.0327 26.9976 572.6107 0.5 540.0164 0.5 C 507.4221 0.5 481 26.9976 481 59.6848 C 481 92.3721 507.4221 118.8695 540.0164 118.8695 C 572.6107 118.8695 599.0327 92.3721 599.0327 59.6848 Z" fill="#f9f9f9"/>
			<g clip-path="url(#mask3)">
				<path d="M 509.0549 60.7722 L 549.1099 116.4117 L 469 116.4117 L 509.0549 60.7722 Z" fill="#dddddd"/>
				<path d="M 552.0769 47.8235 L 604 119 L 500.1539 119 L 552.0769 47.8235 Z" fill="#bbbbbb"/>
			</g>
			<path id="Ellipse7" d="M 560.2857 37.4706 C 560.2857 33.8969 563.1638 31 566.7143 31 C 570.2648 31 573.1429 33.8969 573.1429 37.4706 C 573.1429 41.0443 570.2648 43.9412 566.7143 43.9412 C 563.1638 43.9412 560.2857 41.0443 560.2857 37.4706 Z" fill="#bbbbbb"/>
		</g>
			<path id="Ellipse8" d="M 598.5327 209.6848 C 598.5327 176.9976 572.1107 150.5 539.5164 150.5 C 506.9221 150.5 480.5 176.9976 480.5 209.6848 C 480.5 242.3721 506.9221 268.8695 539.5164 268.8695 C 572.1107 268.8695 598.5327 242.3721 598.5327 209.6848 Z" fill="#f9f9f9"/>
		<g clip-path="url(#mask4)">
			<rect x="526.5" y="194" width="25" height="32" fill="#eaeaea"/>
			<path opacity="0.6" d="M 527 239 L 527 271 L 552 271 L 552 239 L 527 239 ZM 574 239 L 574 271 L 599 271 L 599 239 L 574 239 ZM 481 239 L 481 271 L 506 271 L 506 239 L 481 239 ZM 574 194 L 574 226 L 599 226 L 599 194 L 574 194 ZM 480 194 L 480 226 L 506 226 L 506 194 L 480 194 ZM 527 150 L 527 182 L 552 182 L 552 150 L 527 150 ZM 574 150 L 574 182 L 599 182 L 599 150 L 574 150 ZM 481 150 L 481 182 L 506 182 L 506 150 L 481 150 Z" fill="#eaeaea"/>
		</g>
		<path d="M 532.3333 214.6165 C 532.3333 210.1136 535.9895 206.4631 540.5 206.4631 C 545.0105 206.4631 548.6667 210.1136 548.6667 214.6165 C 548.6667 219.1194 545.0105 222.7699 540.5 222.7699 C 535.9895 222.7699 532.3333 219.1194 532.3333 214.6165 ZM 549 191 L 532 191 L 532 181 L 549 181 L 549 191 ZM 516 231 C 516 233.7615 518.2385 236 521 236 L 560 236 C 562.7615 236 565 233.7615 565 231 L 565 196 C 565 193.2385 562.7615 191 560 191 L 554 191 L 554 181 C 554 178.2385 551.7615 176 549 176 L 532 176 C 529.2385 176 527 178.2385 527 181 L 527 191 L 521 191 C 518.2385 191 516 193.2385 516 196 L 516 231 Z" fill="#bcbcbc"/>
		<path d="M 400.75 105.4688 L 404.9142 109.6213 L 405.6213 108.9142 L 402.705 106 L 416 106 L 416 105 L 402.705 105 L 405.6213 102.0858 L 404.9142 101.3787 L 400.75 105.4688 Z" fill="#0053a0"/>
			<path id="Ellipse10" d="M 61 235.5 C 61 221.4166 49.5835 210 35.5 210 C 21.4166 210 10 221.4166 10 235.5 C 10 249.5835 21.4166 261 35.5 261 C 49.5835 261 61 249.5835 61 235.5 Z" stroke="#848eab" stroke-width="2" fill="#dae0eb"/>
		<g clip-path="url(#mask5)">
			<path id="Ellipse12" d="M 44 224 C 44 222.3431 45.3431 221 47 221 C 48.6569 221 50 222.3431 50 224 C 50 225.6569 48.6569 227 47 227 C 45.3431 227 44 225.6569 44 224 Z" fill="#8791ad"/>
			<path d="M 23.8022 236.8215 L 41.6044 261.8364 L 6 261.8364 L 23.8022 236.8215 Z" fill="#8791ad"/>
			<path d="M 42.9231 231 L 66 263 L 19.8462 263 L 42.9231 231 Z" fill="#8791ad"/>
		</g>
	</g>
</svg>