<?xml version="1.0" encoding="UTF-8"?>
<svg width="28px" height="35px" viewBox="0 0 28 35" version="1.1" xmlns="http://www.w3.org/2000/svg" xmlns:xlink="http://www.w3.org/1999/xlink">
    <!-- Generator: Sketch 47.1 (45422) - http://www.bohemiancoding.com/sketch -->
    <title>ic-right-star</title>
    <desc>Created with Sketch.</desc>
    <defs></defs>
    <g id="Page-1" stroke="none" stroke-width="1" fill="none" fill-rule="evenodd">
        <g id="01-Events-Listing" transform="translate(-1360.000000, -766.000000)">
            <g id="ic-right-star" transform="translate(1360.000000, 766.000000)">
                <path d="M28,14.3251099 C28,14.2318449 27.9327096,14.1738837 27.7980277,14.1511733 L25.9879935,13.8752317 L25.1767068,12.154987 C25.1310635,12.0516447 25.0721212,12 25.0000189,12 C24.9279293,12 24.8690249,12.0516447 24.8233437,12.154987 L24.0120192,13.8752317 L22.2018965,14.1511733 C22.0673157,14.1738837 22,14.2318449 22,14.3251099 C22,14.3780656 22.0300584,14.4385561 22.0901626,14.5066079 L23.4026796,15.8449733 L23.0925854,17.7352879 C23.0877735,17.7705917 23.0853865,17.7958711 23.0853865,17.8109275 C23.0853865,17.8638567 23.0979908,17.9085757 23.1232248,17.9451507 C23.148446,17.9817787 23.1862843,18 23.23679,18 C23.2800842,18 23.3281398,17.9849436 23.3810198,17.9546719 L24.9999811,17.0623312 L26.6190559,17.9546719 C26.6696248,17.9849436 26.717693,18 26.7632353,18 C26.8114677,18 26.8480429,17.9817787 26.8732769,17.9451507 C26.898435,17.9086286 26.9110519,17.8638567 26.9110519,17.8109275 C26.9110519,17.7782059 26.9098395,17.753006 26.9074272,17.7352879 L26.5973078,15.8449733 L27.9062001,14.5066079 C27.9687923,14.4410721 28,14.3805551 28,14.3251099 Z" id="ic-star-copy-13" fill="#FFFFFF" fill-rule="nonzero" opacity="0.5"></path>
                <path d="M14.4,13.6 L14.4,12.4 C14.4,12.1790861 14.2209139,12 14,12 C13.7790861,12 13.6,12.1790861 13.6,12.4 L13.6,12.4 L13.6,13.6 L12.4,13.6 C12.1790861,13.6 12,13.7790861 12,14 C12,14.2209139 12.1790861,14.4 12.4,14.4 L13.6,14.4 L13.6,15.6 C13.6,15.8209139 13.7790861,16 14,16 C14.2209139,16 14.4,15.8209139 14.4,15.6 L14.4,14.4 L15.6,14.4 C15.8209139,14.4 16,14.2209139 16,14 C16,13.7790861 15.8209139,13.6 15.6,13.6 L14.4,13.6 Z" id="Combined-Shape" fill="#D9D1E9" opacity="0.700520833"></path>
                <path d="M19,30.7126282 C19,30.6038191 18.9214945,30.5361976 18.7643656,30.5097021 L16.6526591,30.1877704 L15.706158,28.1808182 C15.6529074,28.0602521 15.5841415,28 15.5000221,28 C15.4159175,28 15.3471957,28.0602521 15.293901,28.1808182 L14.3473557,30.1877704 L12.235546,30.5097021 C12.078535,30.5361976 12,30.6038191 12,30.7126282 C12,30.7744098 12.0350681,30.8449821 12.1051897,30.9243758 L13.6364595,32.4858021 L13.2746829,34.6911692 C13.2690691,34.7323569 13.2662843,34.7618496 13.2662843,34.7794154 C13.2662843,34.8411661 13.2809893,34.8933383 13.3104289,34.9360091 C13.3398537,34.9787418 13.3839983,35 13.4429216,35 C13.4934316,35 13.5494964,34.9824342 13.6111898,34.9471172 L15.4999779,33.906053 L17.3888986,34.9471172 C17.4478956,34.9824342 17.5039752,35 17.5571078,35 C17.6133789,35 17.6560501,34.9787418 17.6854897,34.9360091 C17.7148408,34.8934001 17.7295606,34.8411661 17.7295606,34.7794154 C17.7295606,34.7412403 17.7281461,34.7118403 17.7253318,34.6911692 L17.3635258,32.4858021 L18.8905668,30.9243758 C18.963591,30.8479174 19,30.7773143 19,30.7126282 Z" id="ic-star-copy-14" fill="#FFFFFF" fill-rule="nonzero" opacity="0.5"></path>
                <path d="M3.6,26.4 L3.6,24.6 C3.6,24.2686292 3.33137085,24 3,24 C2.66862915,24 2.4,24.2686292 2.4,24.6 L2.4,26.4 L0.6,26.4 C0.26862915,26.4 0,26.6686292 0,27 C0,27.3313708 0.26862915,27.6 0.6,27.6 L2.4,27.6 L2.4,29.4 C2.4,29.7313708 2.66862915,30 3,30 C3.33137085,30 3.6,29.7313708 3.6,29.4 L3.6,27.6 L5.4,27.6 C5.73137085,27.6 6,27.3313708 6,27 C6,26.6686292 5.73137085,26.4 5.4,26.4 L3.6,26.4 Z" id="Combined-Shape" fill="#F3BFE1" opacity="0.661571558"></path>
                <path d="M12,3.48766487 C12,3.34776736 11.8990644,3.26082552 11.6970415,3.22675989 L8.98199021,2.81284761 L7.76506025,0.232480534 C7.69659527,0.0774670269 7.60818187,0 7.50002842,0 C7.39189391,0 7.30353734,0.0774670269 7.23501552,0.232480534 L6.01802873,2.81284761 L3.30284481,3.22675989 C3.10097353,3.26082552 3,3.34776736 3,3.48766487 C3,3.56709836 3.04508762,3.6578341 3.13524391,3.75991181 L5.10401937,5.76745988 L4.63887807,8.60293183 C4.63166026,8.65588749 4.62807978,8.69380661 4.62807978,8.71639123 C4.62807978,8.795785 4.64698627,8.8628635 4.68483713,8.91772604 C4.72266905,8.97266804 4.77942641,9 4.85518497,9 C4.9201263,9 4.99220965,8.97741538 5.07152976,8.93200779 L7.49997158,7.59349674 L9.92858391,8.93200779 C10.0044372,8.97741538 10.0765395,9 10.1448529,9 C10.2172015,9 10.2720644,8.97266804 10.3099153,8.91772604 C10.3476525,8.86294295 10.3665779,8.795785 10.3665779,8.71639123 C10.3665779,8.66730891 10.3647592,8.62950898 10.3611409,8.60293183 L9.89596169,5.76745988 L11.8593001,3.75991181 C11.9531884,3.66160814 12,3.57083267 12,3.48766487 Z" id="ic-star-copy-15" fill="#FFFFFF" fill-rule="nonzero" opacity="0.5"></path>
            </g>
        </g>
    </g>
</svg>