<?xml version="1.0" encoding="UTF-8"?>
<svg width="20px" height="20px" viewBox="0 0 20 20" version="1.1" xmlns="http://www.w3.org/2000/svg" xmlns:xlink="http://www.w3.org/1999/xlink">
    <!-- Generator: sketchtool 49.2 (51160) - http://www.bohemiancoding.com/sketch -->
    <title>EDB6AEC4-BF4E-420E-BC7C-6A35608AB665</title>
    <desc>Created with sketchtool.</desc>
    <defs></defs>
    <g id="Symbols" stroke="none" stroke-width="1" fill="none" fill-rule="evenodd" opacity="0.463032156">
        <g id="Footer" transform="translate(-987.000000, -15.000000)">
            <g id="vinfotech-logo-grey" transform="translate(987.000000, 15.000000)">
                <rect id="Rectangle" fill="#757576" x="0" y="0" width="20" height="20" rx="1.25"></rect>
                <g id="Group-4" transform="translate(2.083333, 3.333333)" fill="#FFFFFF">
                    <path d="M7.83045977,5.6126658 L11.4700872,0.251436782 L14.0811871,0.251436782 L15.242312,2.07606156 L9.31673222,12.7514368 L6.34810237,12.7514368 L0.0783021202,2.16907551 L1.59317661,0.251436782 L4.19083231,0.251436782 L7.83045977,5.6126658 Z M7.83045977,6.35449347 L3.97008723,0.668103448 L1.79501566,0.668103448 L0.58261742,2.20284567 L6.58554444,12.3347701 L9.07146005,12.3347701 L14.757688,2.0906051 L13.8524597,0.668103448 L11.6908323,0.668103448 L7.83045977,6.35449347 Z" id="Path-2" fill-rule="nonzero"></path>
                    <path d="M1.56663439,0.64516008 C1.56386926,0.64292112 1.56096199,0.640570236 1.55790469,0.638102778 C1.56177057,0.641222812 1.5663326,0.644959053 1.57156977,0.649294732 L1.56663439,0.64516008 Z M1.66666667,0.668103448 L1.66666667,0.251436782 C1.74776752,0.251436782 1.68594842,0.206004047 1.81958985,0.31386214 C1.83433456,0.325762165 1.85441783,0.34251907 1.88020737,0.364407328 C1.92899943,0.405818424 1.99911827,0.466371891 2.09004272,0.545586081 C2.26159973,0.695048067 2.50695911,0.910711659 2.82010242,1.18718682 C3.37121525,1.67376597 4.1196055,2.33749163 5.01617122,3.13442068 L5.03244649,3.14888743 C5.73260544,3.77125094 6.48175172,4.43805679 7.23022255,5.10486095 C7.49218584,5.33824107 7.73535373,5.55495159 7.95351777,5.74943647 C8.17789488,5.9494815 8.17789488,5.9494815 8.22775022,5.99394707 L7.9504107,6.3049035 C7.90058932,6.26046822 7.90058932,6.26046822 7.67625279,6.06045936 C7.4581207,5.86600297 7.21498572,5.64932178 6.95305691,5.41597238 C6.20469315,4.74926361 5.45565785,4.08255654 4.75562822,3.46030798 L4.73935649,3.44584438 C3.84310876,2.64919798 3.09502291,1.98574227 2.54433016,1.49953401 C2.2318174,1.22361557 1.98706329,1.00848399 1.816341,0.859749221 C1.72665622,0.781615045 1.65773375,0.722094742 1.61058888,0.68208166 C1.59503032,0.668876705 1.58196906,0.657903962 1.57156977,0.649294732 C1.66057951,0.72122837 1.59047241,0.668103448 1.66666667,0.668103448 Z M14.3689882,0.668103448 L14.3689882,0.251436782 C14.2878874,0.251436782 14.3497065,0.206004047 14.2160651,0.31386214 C14.2013204,0.325762165 14.1812371,0.34251907 14.1554475,0.364407328 C14.1066555,0.405818424 14.0365366,0.466371891 13.9456122,0.545586081 C13.7740552,0.695048067 13.5286958,0.910711659 13.2155525,1.18718682 C12.6644397,1.67376597 11.9160494,2.33749163 11.0194837,3.13442068 L11.0032084,3.14888743 C10.3030495,3.77125094 9.5539032,4.43805679 8.80543237,5.10486095 C8.54346907,5.33824107 8.30030118,5.55495159 8.08213714,5.74943647 C7.85776004,5.9494815 7.85776004,5.9494815 7.80790469,5.99394707 L8.08524421,6.3049035 C8.1350656,6.26046822 8.1350656,6.26046822 8.35940212,6.06045936 C8.57753422,5.86600297 8.82066919,5.64932178 9.082598,5.41597238 C9.83096177,4.74926361 10.5799971,4.08255654 11.2800267,3.46030798 L11.2962984,3.44584438 C12.1925462,2.64919798 12.940632,1.98574227 13.4913248,1.49953401 C13.8038375,1.22361557 14.0485916,1.00848399 14.2193139,0.859749221 C14.3089987,0.781615045 14.3779212,0.722094742 14.425066,0.68208166 C14.4406246,0.668876705 14.4536858,0.657903962 14.4640851,0.649294732 C14.3750754,0.72122837 14.4451825,0.668103448 14.3689882,0.668103448 Z" id="Path-3" fill-rule="nonzero"></path>
                    <polygon id="Path-3" fill-rule="nonzero" points="6.91353262 12.3129212 6.50600761 12.3997225 3.96290416 0.460067345 4.37042917 0.373265988"></polygon>
                    <polygon id="Path-3" fill-rule="nonzero" points="6.91462651 12.3942248 6.50491372 12.3184189 7.71181027 5.79543039 8.12152307 5.87123628"></polygon>
                    <path d="M9.32841962,12.3184189 L8.12152307,5.79543039 L7.71181027,5.87123628 L8.91870682,12.3942248 L9.32841962,12.3184189 Z M8.91870682,12.3942248 L9.32841962,12.3184189 L8.12152307,5.79543039 L7.71181027,5.87123628 L8.91870682,12.3942248 Z" id="Path-3" fill-rule="nonzero"></path>
                    <path d="M7.88292263,6.3049035 L14.262233,0.61524833 L13.9848935,0.304291899 L7.60558311,5.99394707 L7.88292263,6.3049035 Z M7.60558311,5.99394707 L13.9848935,0.304291899 L14.262233,0.61524833 L7.88292263,6.3049035 L7.60558311,5.99394707 Z" id="Path-3" fill-rule="nonzero"></path>
                    <polygon id="Path-3" fill-rule="nonzero" points="9.32618851 12.3660016 9.00714482 12.6339984 0.25714482 2.21733168 0.576188513 1.94933498"></polygon>
                    <polygon id="Path-3" fill-rule="nonzero" transform="translate(10.758712, 7.291667) scale(-1, 1) translate(-10.758712, -7.291667) " points="15.0102789 12.3660016 14.7111435 12.6339984 6.50714482 2.21733168 6.80628014 1.94933498"></polygon>
                    <path d="M9.32714163,12.400578 L11.9133485,0.504026291 L11.5061917,0.415513939 L8.91998481,12.3120657 L9.32714163,12.400578 Z M8.91998481,12.3120657 L9.32714163,12.400578 L11.9133485,0.504026291 L11.5061917,0.415513939 L8.91998481,12.3120657 Z" id="Path-3" fill-rule="nonzero"></path>
                    <circle id="Oval" cx="4.16666667" cy="0.416666667" r="1"></circle>
                    <circle id="Oval-Copy" cx="1.66666667" cy="0.416666667" r="1"></circle>
                    <circle id="Oval-Copy-2" cx="0.416666667" cy="2.08333333" r="1"></circle>
                    <circle id="Oval" transform="translate(11.666667, 0.416667) scale(-1, 1) translate(-11.666667, -0.416667) " cx="11.6666667" cy="0.416666667" r="1"></circle>
                    <circle id="Oval-Copy" transform="translate(14.166667, 0.416667) scale(-1, 1) translate(-14.166667, -0.416667) " cx="14.1666667" cy="0.416666667" r="1"></circle>
                    <circle id="Oval-Copy-2" transform="translate(15.000000, 2.083333) scale(-1, 1) translate(-15.000000, -2.083333) " cx="15" cy="2.08333333" r="1"></circle>
                    <circle id="Oval-Copy-3" cx="4.58333333" cy="2.91666667" r="1"></circle>
                    <circle id="Oval-Copy-3" cx="11.091954" cy="3.29022989" r="1"></circle>
                    <circle id="Oval-Copy-4" cx="7.91666667" cy="5.83333333" r="1"></circle>
                    <circle id="Oval-Copy-5" cx="5.83333333" cy="8.33333333" r="1"></circle>
                    <circle id="Oval-Copy-5" cx="10" cy="8.33333333" r="1"></circle>
                </g>
            </g>
        </g>
    </g>
</svg>