<?xml version="1.0" encoding="UTF-8"?>
<svg width="238px" height="35px" viewBox="0 0 238 35" version="1.1" xmlns="http://www.w3.org/2000/svg" xmlns:xlink="http://www.w3.org/1999/xlink">
    <!-- Generator: sketchtool 55.1 (78136) - https://sketchapp.com -->
    <title>1531B75D-E5A4-4F72-965A-1240D079CA14</title>
    <desc>Created with sketchtool.</desc>
    <defs>
        <path d="M238,5.03544443 C237.836699,5.01208598 237.669761,5 237.5,5 C235.567003,5 234,6.56700338 234,8.5 C234,10.4329966 235.567003,12 237.5,12 C237.669761,12 237.836699,11.987914 238,11.9645556 L238,14.0354444 C237.836699,14.012086 237.669761,14 237.5,14 C235.567003,14 234,15.5670034 234,17.5 C234,19.4329966 235.567003,21 237.5,21 C237.669761,21 237.836699,20.987914 238,20.9645556 L238,23.0354444 C237.836699,23.012086 237.669761,23 237.5,23 C235.567003,23 234,24.5670034 234,26.5 C234,28.4329966 235.567003,30 237.5,30 C237.669761,30 237.836699,29.987914 238,29.9645556 L238,32 C238,33.6568542 236.656854,35 235,35 L3,35 C1.34314575,35 2.02906125e-16,33.6568542 0,32 L0,29.9645556 C0.163301492,29.987914 0.33023933,30 0.5,30 C2.43299662,30 4,28.4329966 4,26.5 C4,24.5670034 2.43299662,23 0.5,23 C0.33023933,23 0.163301492,23.012086 -5.55111512e-17,23.0354444 L0,20.9645556 C0.163301492,20.987914 0.33023933,21 0.5,21 C2.43299662,21 4,19.4329966 4,17.5 C4,15.5670034 2.43299662,14 0.5,14 C0.33023933,14 0.163301492,14.012086 -5.55111512e-17,14.0354444 L0,11.9645556 C0.163301492,11.987914 0.33023933,12 0.5,12 C2.43299662,12 4,10.4329966 4,8.5 C4,6.56700338 2.43299662,5 0.5,5 C0.33023933,5 0.163301492,5.01208598 -5.55111512e-17,5.03544443 L0,3 C-2.02906125e-16,1.34314575 1.34314575,2.08071603e-15 3,0 L235,0 C236.656854,-3.04359188e-16 238,1.34314575 238,3 L238,5.03544443 Z" id="path-1"></path>
    </defs>
    <g id="Page-1" stroke="none" stroke-width="1" fill="none" fill-rule="evenodd">
        <g id="4-FS-impr-verify-account-offers" transform="translate(-69.000000, -427.000000)">
            <g id="Group-6" transform="translate(69.000000, 427.000000)">
                <g id="strip/offer-stp">
                    <mask id="mask-2" fill="white">
                        <use xlink:href="#path-1"></use>
                    </mask>
                    <use id="Combined-Shape" fill="#00BFEB" fill-rule="nonzero" xlink:href="#path-1"></use>
                    <g id="Group-4" mask="url(#mask-2)" fill="#FFFFFF" fill-rule="nonzero" opacity="0.1">
                        <g transform="translate(55.000000, -151.704545)" id="Oval-10">
                            <ellipse cx="166.4" cy="157.102273" rx="20.8" ry="19.4886364"></ellipse>
                            <ellipse cx="165.2" cy="158.693182" rx="41.2" ry="39.375"></ellipse>
                            <ellipse cx="165.2" cy="158.295455" rx="82.8" ry="79.5454545"></ellipse>
                            <ellipse cx="166" cy="157.897727" rx="166" ry="157.897727"></ellipse>
                        </g>
                    </g>
                </g>
            </g>
        </g>
    </g>
</svg>