<svg xmlns="http://www.w3.org/2000/svg" width="128" height="17"  xmlns:v="https://vecta.io/nano"><defs><linearGradient x1="52.4111421%" y1="12.6714714%" x2="52.4111421%" y2="87.1568602%" id="A"><stop stop-color="#555" offset="0%"/><stop stop-color="#494949" offset="51.5716768%"/><stop stop-color="#303030" offset="52.0245792%"/><stop stop-color="#212121" offset="100%"/></linearGradient></defs><g fill-rule="evenodd"><path d="M26.697 13H24l.047-8.786L25.423 3h5.41l-.004 2.514h-4.107l.037 1.229h4.015l-.004 2.514h-4.015L26.697 13zm8.193 0h-2.701l-.042-8.786L33.602 3h4.021l1.338 1.214.027 8.786h-2.701v-2.529h-1.397L34.89 13zm1.299-5l.007-2.667h-1.324L34.893 8h1.296zm7.853-2.471h-1.304L42.723 13h-2.701l-.042-8.786L41.343 3h4.113l1.338 1.214-.05 8.786h-2.701V5.529zM47.829 3h6.859l-.02 2.529h-2.008L52.632 13h-2.719l.027-7.471h-2.116L47.829 3zm10.916 10h-2.701l-.042-8.786L57.457 3h4.021l1.338 1.214.027 8.786h-2.701l.001-2.529h-1.397L58.745 13zm1.299-5l-.024-2.667h-1.285L58.748 8h1.296zm7.503-1.586l.043-.886h-1.305l-.054 1.529h2.686l1.33 1.229.074 3.5L68.976 13h-4.068l-1.326-1.214-.017-2.2h2.686l.033.886h1.29l.066-1.543h-2.762l-1.251-1.214-.059-3.5L64.913 3h3.961l1.417 1.214-.074 2.2h-2.671zM71.337 3h2.759l-.027 1.7.678.986.67-.986.011-1.7h2.759l-.002 2.514-2.09 2.757L76.081 13h-2.79l.029-4.729-2.001-2.757L71.337 3zm15.08 3.414l.043-.886h-1.305l-.054 1.529h2.686l1.33 1.229.074 3.5L87.847 13h-4.068l-1.326-1.214-.017-2.2h2.686l.033.886h1.29l.066-1.543h-2.762l-1.251-1.214-.059-3.5L83.784 3h3.961l1.417 1.214-.074 2.2h-2.671zM92.928 8h1.211l-.077-2.667h-1.211L92.928 8zm2.714 2.471h-2.716L92.94 13h-2.716l-.039-8.771L91.544 3h4.113l1.341 1.229.006 5.029-1.363 1.214zm4.697.195h1.326l-.046-5h-1.326l.046 5zM99.098 13l-1.336-1.214.002-7.571L99.124 3h4.012l1.336 1.214.013 7.571-1.36 1.214h-4.027zm9.2-3.729L108.235 13h-2.701l.016-10h5.417l1.341 1.229.011 2.514-1.358 1.3 1.357 1.229-.02 2.514L110.951 13h-1.32l-.029-3.729h-1.304zm-.426-3.938l.043 1.333h1.401l.056-1.333h-1.5zM113.341 3h6.859l-.02 2.529h-2.008L118.144 13h-2.719l.027-7.471h-2.116L113.341 3zm11.885 3.414l.043-.886h-1.305l-.054 1.529h2.686l1.33 1.229.074 3.5L126.655 13h-4.068l-1.326-1.214-.017-2.2h2.686l.033.886h1.29l.066-1.543h-2.762l-1.251-1.214-.059-3.5L122.592 3h3.961l1.417 1.214-.074 2.2h-2.671z" fill="url(#A)"/><path d="M15.319 5.404v.574h-3.064v-.967c0-.412-.049-.674-.146-.79s-.278-.17-.506-.17c-.249 0-.436.079-.563.236s-.189.393-.189.711c0 .409.07.719.214.926.135.207.479.47 1.029.784 1.573.913 2.569 1.647 2.986 2.206s.623 1.461.623 2.705c0 .905-.114 1.571-.341 1.999s-.663.79-1.313 1.078-1.408.436-2.269.436c-.947 0-1.754-.168-2.423-.506s-.989-.769-1.194-1.293-.311-1.253-.311-2.218v-.839h3.064v1.544c0 .48.054.79.162.926s.237.205.513.205.482-.081.617-.249.203-.417.203-.748c0-.724-.122-1.199-.36-1.422-.249-.223-.815-.619-1.7-1.186L8.577 8.12c-.292-.247-.536-.585-.728-1.02s-.29-.986-.29-1.663c0-.971.133-1.682.398-2.133s.696-.8 1.291-1.055 1.313-.38 2.155-.38c.918 0 1.7.136 2.35.409s1.075.614 1.286 1.026.28 1.115.28 2.101zM2.681 2.055h6.128v.219c-.566.252-.978.595-1.234 1.03-.19.323-.312.779-.366 1.367H6.128v2.429h1.338c.192.436.436.774.728 1.02l.423.322v1.085H6.128v5.418H2.681V2.055zm0 12.909l-.018-.019h.018v.019zM1.8 0C.806 0 0 .753 0 1.681v13.637C0 16.247.806 17 1.8 17h14.4c.994 0 1.8-.753 1.8-1.681V1.681C18 .753 17.194 0 16.2 0H1.8z" fill="#0cbfeb" fill-rule="nonzero"/></g></svg>