<?xml version="1.0" encoding="UTF-8"?>
<svg width="38px" height="40px" viewBox="0 0 38 40" version="1.1" xmlns="http://www.w3.org/2000/svg" xmlns:xlink="http://www.w3.org/1999/xlink">
    <!-- Generator: sketchtool 58 (101010) - https://sketch.com -->
    <title>89BBECAF-5C3C-422C-A775-7F98FACE8D82</title>
    <desc>Created with sketchtool.</desc>
    <g id="Page-1" stroke="none" stroke-width="1" fill="none" fill-rule="evenodd">
        <g id="12-FS-Private-h2p" transform="translate(-64.000000, -564.000000)" fill="#6C72BC" fill-rule="nonzero">
            <path d="M85.6599782,564.398992 C86.4691912,563.858598 87.2931784,563.875474 88.0771298,564.398992 C88.4880517,564.673369 88.7315582,564.66165 89.1781525,564.439149 C89.4416386,564.307742 90.0586338,564 90.5546031,564.655556 C91.2767019,565.609624 90.75394,567.43065 88.956616,570.212854 C89.5751423,570.717856 89.8095392,571.566221 89.6420472,572.291069 C90.3567972,572.840369 91.0382478,573.408731 91.6717779,573.98475 C91.9084713,574.199986 91.9294461,574.5703 91.7185501,574.811864 C91.6051791,574.941787 91.4477918,575.007959 91.289792,575.007959 C91.1539152,575.007959 91.0175026,574.959053 90.9081123,574.859521 C90.3301577,574.333971 89.7097177,573.814749 89.0596527,573.310918 C87.7907552,574.497331 82.1204464,574.382877 80.8494821,573.463185 C77.4394733,576.153278 74.9796832,579.243921 73.7223448,582.425033 C72.8874875,584.537311 72.5828939,586.644276 72.8113965,588.623193 C76.1186748,589.474839 76.7476119,590.968363 79.1896424,591.323131 L79.1896424,591.323131 L85.5403301,592.069385 C85.5453059,592.069932 85.5502051,592.070557 85.5551043,592.071338 C87.2054518,592.309621 88.4732775,593.6583 88.6382434,595.351044 C88.6403102,595.371748 88.6412289,595.392529 88.6410758,595.41331 L88.6410758,595.41331 L88.6351814,596.236909 L95.7805376,593.026031 C97.3919975,590.631408 97.7593623,587.634828 97.1278991,584.729109 C96.5283573,581.970577 95.0659407,579.282202 92.7812211,576.73875 C92.5669569,576.500155 92.5827262,576.129606 92.8164342,575.911011 C93.0502188,575.692338 93.4132967,575.708432 93.6274844,575.946949 C96.0501477,578.644074 97.6049604,581.513465 98.2486717,584.475435 C98.8091729,587.054356 98.6694686,589.784606 97.5435671,592.233839 L97.5435671,592.233839 L98.2576281,591.912978 C99.604913,591.265943 100.845104,591.533679 101.576236,592.630247 C102.268633,593.668847 102.096701,595.080886 101.176337,595.914641 C101.110351,595.974329 101.804203,595.514405 90.3783844,602.906634 C89.2723859,603.621873 87.9956038,604 86.6861347,604 L86.6861347,604 L78.1212301,604 C77.2970132,604 76.4874175,603.851171 75.7149486,603.55781 L75.7149486,603.55781 L69.9667116,601.374282 L69.9667116,601.541158 C69.9667116,602.478585 69.2194277,603.241246 68.3009009,603.241246 L68.3009009,603.241246 L65.6658106,603.241246 C64.7472838,603.241246 64,602.478663 64,601.541158 L64,601.541158 L64,587.897017 C64,586.959668 64.7472838,586.197008 65.6658106,586.197008 L65.6658106,586.197008 L68.3009775,586.197008 C69.2195043,586.197008 69.9667881,586.95959 69.9667881,587.897017 L69.9667881,587.897017 L69.9667881,588.251316 C70.5262941,588.255222 71.0831208,588.299832 71.6335939,588.382958 C71.4600544,586.321305 71.801928,584.151918 72.6577601,581.986515 C74.0117814,578.560714 76.5330415,575.381243 80.1544821,572.530211 C80.1498891,572.517398 80.1447602,572.504664 80.1403968,572.491773 C79.1255698,572.505757 76.5705511,572.72904 75.5238026,574.554753 C75.3637359,574.833974 75.0121405,574.927959 74.7384732,574.764598 C74.4648825,574.60116 74.3728691,574.242252 74.5329357,573.963031 C75.2366625,572.735524 76.5283719,571.891535 78.2685128,571.52208 C78.9920661,571.368485 79.6490971,571.32661 80.0887254,571.319579 C80.0947729,571.294422 80.1012796,571.269266 80.1083223,571.244266 C79.5929092,570.596606 78.7649414,569.960196 77.54473,570.099884 C75.8896364,570.288245 74.6613106,569.725273 73.9222176,569.219567 C73.6589612,569.039409 73.5886115,568.675501 73.7651364,568.40675 C73.9416614,568.138154 74.2982326,568.066435 74.5615655,568.246436 C75.1413574,568.643313 76.1073453,569.085113 77.4173503,568.935503 C78.9967357,568.755502 80.0888785,569.504803 80.7554783,570.223244 C80.8468028,570.147306 80.9446341,570.080822 81.047288,570.024181 C79.3712196,567.336587 78.8989809,565.572983 79.6048511,564.645791 C80.1039589,563.990318 80.7202652,564.302976 80.9834451,564.436492 C81.4229968,564.659462 81.6674218,564.67665 82.0830898,564.398992 C82.8924559,563.858598 83.716137,563.875474 84.5001649,564.398992 C84.9161391,564.676884 85.2438509,564.676884 85.6599782,564.398992 Z M68.3009009,587.368967 L65.6658106,587.368967 C65.3802781,587.368967 65.1480245,587.605922 65.1480245,587.89733 L65.1480245,587.89733 L65.1480245,601.54147 C65.1480245,601.8328 65.3802781,602.069911 65.6658106,602.069911 L65.6658106,602.069911 L68.3009775,602.069911 C68.5864335,602.069911 68.8187636,601.832878 68.8187636,601.54147 L68.8187636,601.54147 L68.8187636,593.815332 C68.8187636,593.491737 69.0757428,593.22947 69.3927376,593.22947 C69.7097323,593.22947 69.9667116,593.491737 69.9667116,593.815332 L69.9667116,593.815332 L69.9667116,600.124353 L76.1154597,602.460069 C76.7594006,602.70468 77.4342679,602.828743 78.1213067,602.828743 L78.1213067,602.828743 L86.6862113,602.828743 C87.7777417,602.828743 88.8420202,602.513507 89.7639153,601.917332 L89.7639153,601.917332 L100.445282,595.009714 C100.908028,594.56229 100.987947,593.830645 100.626936,593.28947 C100.162582,592.59306 99.4778396,592.641732 98.7268048,592.982359 C98.7146333,592.987828 88.2953747,597.669651 88.2836625,597.674964 C88.2107866,597.707386 88.1270406,597.723792 88.0545475,597.723792 L88.0545475,597.723792 L81.5623948,597.723792 C81.2453236,597.723792 80.9883443,597.461525 80.9883443,597.137929 C80.9883443,596.814334 81.2454001,596.552067 81.5623948,596.552067 L81.5623948,596.552067 L87.4847072,596.552067 L87.4926685,595.437685 C87.3688101,594.299945 86.5130545,593.396267 85.4010852,593.232438 L85.4010852,593.232438 L79.0507036,592.486262 L79.0507036,592.486262 L79.036006,592.484309 C75.7827722,592.014697 74.7151254,589.460386 69.966635,589.423276 L69.966635,589.423276 L69.966635,591.076567 C69.966635,591.400162 69.7096557,591.662429 69.392661,591.662429 C69.0756663,591.662429 68.818687,591.400162 68.818687,591.076567 L68.818687,591.076567 L68.818687,587.89733 C68.818687,587.606 68.5864335,587.368967 68.3009009,587.368967 L68.3009009,587.368967 Z M88.9859438,578 L88.6767068,579.016807 L86.7228916,579.016807 C87.0180723,579.448179 87.2008032,579.987395 87.2570281,580.619048 L89,580.619048 L88.6907631,581.635854 L87.2289157,581.635854 C87.1445783,582.159664 86.9337349,582.621849 86.624498,582.991597 C86.1746988,583.484594 85.5843373,583.823529 84.8393574,584.008403 C84.9211391,584.07563 85.0549637,584.240642 85.2408311,584.491585 L88.5080321,589 L86.2730924,589 L83.7570281,585.364146 C83.5321285,585.02521 83.2931727,584.778711 83.0401606,584.593838 C82.7590361,584.378151 82.4497992,584.270308 82.1405622,584.270308 L82.1405622,583.068627 L83.0120482,583.068627 C83.8975904,583.068627 84.5582329,582.89916 84.9939759,582.560224 C85.2891566,582.329132 85.4859438,582.021008 85.5702811,581.635854 L82.0281124,581.635854 L82.3373494,580.619048 L85.5983936,580.619048 C85.5281124,580.141457 85.3594378,579.771709 85.0783133,579.509804 C84.7128514,579.170868 84.1927711,579.016807 83.5040161,579.016807 L82,579.016807 L82.3092369,578 L88.9859438,578 Z M82.0709949,570.992233 C81.102787,570.744419 80.8417505,572.384272 81.7426707,572.616695 C83.8422918,573.157636 85.8832754,573.157636 87.9824371,572.616695 C88.8978254,572.3806 88.6054799,570.748482 87.654113,570.992233 C85.7755691,571.473486 83.9493857,571.473486 82.0709949,570.992233 Z M85.0799567,565.773766 C83.7958258,565.773766 83.6896506,564.726182 82.7116442,565.379545 C81.9301424,565.901345 81.2493807,565.879938 80.4724719,565.485873 C80.4681851,565.483686 80.4636687,565.481342 80.4591522,565.479077 C80.3404227,565.916813 80.6030667,567.22479 82.3015643,569.844648 C85.7740381,570.633325 87.0006798,569.786054 87.845948,569.800742 C89.54812,567.214321 89.8154336,565.918923 89.6973165,565.484389 C88.8978254,565.877907 88.2335221,565.903766 87.4485755,565.379545 C87.0324482,565.101731 86.7046599,565.101574 86.288456,565.379545 C86.0393614,565.545952 85.6981768,565.773766 85.0799567,565.773766 Z" id="commision-ic"></path>
        </g>
    </g>
</svg>