<?xml version="1.0" encoding="UTF-8"?>
<svg width="30px" height="30px" viewBox="0 0 30 30" version="1.1" xmlns="http://www.w3.org/2000/svg" xmlns:xlink="http://www.w3.org/1999/xlink">
    <!-- Generator: sketchtool 55.1 (78136) - https://sketchapp.com -->
    <title>51F0A5F1-83F6-492E-90C3-7C52355EA3DB</title>
    <desc>Created with sketchtool.</desc>
    <g id="Page-1" stroke="none" stroke-width="1" fill="none" fill-rule="evenodd">
        <g id="1-FS-impr-my-wallet" transform="translate(-32.000000, -490.000000)" fill="#000" fill-rule="nonzero">
            <g id="icon/add-cash-ic" transform="translate(32.000000, 490.000000)">
                <path d="M4.98427734,26.604152 C4.87535156,26.4953216 4.72417969,26.432807 4.57007813,26.432807 C4.41597656,26.432807 4.26480469,26.4953216 4.15582031,26.604152 C4.04683594,26.7129825 3.98414063,26.8638012 3.98414063,27.0176023 C3.98414063,27.1714035 4.04677734,27.3222807 4.15582031,27.4309942 C4.26480469,27.5397661 4.41597656,27.6023977 4.57007813,27.6023977 C4.72417969,27.6023977 4.87535156,27.5398246 4.98427734,27.4309942 C5.09326172,27.3222807 5.15601563,27.1714035 5.15601563,27.0176023 C5.15601563,26.8638012 5.09332031,26.712924 4.98427734,26.604152 Z" id="Path"></path>
                <path d="M27.5107617,10.6981287 C27.4017773,10.5892982 27.2511914,10.5267836 27.0965039,10.5267836 C26.9424023,10.5267836 26.7912305,10.5892982 26.6822461,10.6981287 C26.5733203,10.8069006 26.5105664,10.9577778 26.5105664,11.1115789 C26.5105664,11.2653801 26.5732617,11.4162573 26.6822461,11.5249708 C26.7912305,11.6337427 26.9424023,11.6963743 27.0965039,11.6963743 C27.2511914,11.6963743 27.4017773,11.6338012 27.5107617,11.5249708 C27.6202734,11.4162573 27.6829688,11.2653801 27.6829688,11.1115789 C27.6829688,10.9577778 27.6202734,10.8069006 27.5107617,10.6981287 Z" id="Path"></path>
                <path d="M29.8276172,0.17128655 C29.7176953,0.0616374269 29.5686328,-2.77111667e-13 29.4131836,-2.77111667e-13 L14.9994727,0.000760233918 C14.675918,0.000760233918 14.4135937,0.262631579 14.4135937,0.585555556 L14.4135937,2.25789474 L8.85955078,3.74321637 C8.54695312,3.82684211 8.36144531,4.14748538 8.44523437,4.4594152 L11.3237695,15.1811696 L8.83359375,17.6664912 C8.51666016,17.2046199 7.98451172,16.9008772 7.38257812,16.9008772 L1.75775391,16.9008772 C0.788496094,16.9008772 -1.31450406e-13,17.6878947 -1.31450406e-13,18.6552047 L-1.31450406e-13,28.1871345 C-1.31450406e-13,29.1545029 0.788496094,29.9415789 1.75775391,29.9415789 L7.38263672,29.9415789 C8.20605469,29.9415789 8.89875,29.3733333 9.08859375,28.6093567 L9.78527344,29.215731 C10.3231055,29.6838012 11.012168,29.9415789 11.7257812,29.9415789 L29.4133008,29.9415789 C29.7368555,29.9415789 29.9992383,29.6797076 29.9992383,29.3567836 L29.9992383,0.584795322 C29.9992383,0.429707602 29.9374805,0.280935673 29.8276172,0.17128655 Z M7.96851562,28.187193 C7.96851562,28.5095906 7.70560547,28.7719883 7.38251953,28.7719883 L1.75769531,28.7719883 C1.43460937,28.7719883 1.17175781,28.5096491 1.17175781,28.187193 L1.17175781,18.6552632 C1.17175781,18.332807 1.43460937,18.0704678 1.75769531,18.0704678 L3.98419922,18.0704678 L3.98419922,24.8070175 C3.98419922,25.1299415 4.24658203,25.3918129 4.57013672,25.3918129 C4.89369141,25.3918129 5.15607422,25.1299415 5.15607422,24.8070175 L5.15607422,18.0704678 L7.38257812,18.0704678 C7.70566406,18.0704678 7.96851562,18.332807 7.96851562,18.6552632 L7.96851562,28.187193 L7.96851562,28.187193 Z M9.72878906,4.72157895 L14.4135937,3.46871345 L14.4135937,5.63567251 L14.0208984,5.74070175 C13.8707227,5.78087719 13.7428125,5.87883041 13.6651172,6.01315789 C13.5874219,6.14748538 13.5663281,6.30707602 13.606582,6.45690058 C13.8317578,7.29555556 13.3313086,8.16064327 12.4910156,8.38538012 C12.3407227,8.42561404 12.2125781,8.52374269 12.1349414,8.65836257 C12.0573047,8.79292398 12.0363867,8.95280702 12.0769922,9.10274854 L14.360918,17.5435673 L13.1849414,17.5435673 L12.5789062,15.1772515 C12.5596289,15.1019298 12.5258789,15.0325146 12.4807031,14.9721637 L9.72878906,4.72157895 Z M14.4135937,8.31748538 L14.4135937,13.2520468 L13.3449023,9.30263158 C13.7913281,9.0725731 14.1566602,8.72836257 14.4135937,8.31748538 Z M22.8314062,28.7719298 L11.7256641,28.7719298 L11.7256641,28.7719298 C11.295293,28.7719298 10.8796875,28.6164912 10.5553125,28.3342105 L9.14033203,27.1025731 L9.14033203,19.0144444 L11.698418,16.461345 L12.1623633,18.2730409 C12.2286914,18.5319298 12.4623047,18.7129825 12.7300195,18.7129825 L24.2497852,18.7136842 C24.7021289,18.7136842 25.0700977,19.0809357 25.0700977,19.5323977 C25.0700977,19.9838596 24.7021289,20.3511111 24.2497852,20.3511111 L18.3470508,20.3511111 C18.0234961,20.3511111 17.7611133,20.6129825 17.7611133,20.9359064 C17.7611133,21.2588304 18.0234961,21.5207018 18.3470508,21.5207018 L26.0837695,21.5207018 C26.5361133,21.5207018 26.904082,21.8879532 26.904082,22.3394152 C26.904082,22.7908772 26.5361133,23.1581287 26.0837695,23.1581287 L18.3470508,23.1581287 C18.0234961,23.1581287 17.7611133,23.42 17.7611133,23.742924 C17.7611133,24.065848 18.0234961,24.3277193 18.3470508,24.3277193 L24.8300391,24.3277193 C25.2823828,24.3277193 25.6503516,24.6949708 25.6503516,25.1464327 C25.6503516,25.5978947 25.2823828,25.9651462 24.8300391,25.9651462 L18.3470508,25.9651462 C18.0234961,25.9651462 17.7611133,26.2270175 17.7611133,26.5499415 C17.7611133,26.8728655 18.0234961,27.1347368 18.3470508,27.1347368 L22.8314062,27.1347368 C23.28375,27.1347368 23.6517187,27.5019883 23.6517187,27.9534503 C23.6516602,28.4046784 23.2836914,28.7719298 22.8314062,28.7719298 Z M28.8273633,28.7719298 L28.8273633,28.7719298 L24.6461133,28.7719298 C24.7597266,28.5220468 24.8235352,28.2450292 24.8235352,27.9532164 C24.8235352,27.6614035 24.7597266,27.384386 24.6461133,27.1345029 L24.8300391,27.1345029 C25.9284961,27.1345029 26.822168,26.2425731 26.822168,25.1462573 C26.822168,24.8264912 26.7457031,24.5243275 26.6107031,24.2563743 C27.4542187,24.0251462 28.0758398,23.2535088 28.0758398,22.3392982 C28.0758398,21.8957895 27.9294727,21.4857895 27.6826172,21.1547953 L27.6826172,13.7430994 C27.6826172,13.4201754 27.4202344,13.1583041 27.0966797,13.1583041 C26.773125,13.1583041 26.5107422,13.4201754 26.5107422,13.7430994 L26.5107422,20.3976023 C26.3730469,20.3674854 26.2302539,20.3511111 26.0836523,20.3511111 L26.0644336,20.3511111 C26.1780469,20.1012281 26.2418555,19.8242105 26.2418555,19.5323977 C26.2418555,18.4360234 25.3481836,17.544152 24.2497266,17.544152 L23.307832,17.544152 C24.3079687,17.1160819 25.0103906,16.1239181 25.0103906,14.9707602 C25.0103906,13.4275439 23.7525,12.1720468 22.2062695,12.1720468 C20.6600977,12.1720468 19.4021484,13.4275439 19.4021484,14.9707602 C19.4021484,16.1239181 20.1046289,17.1160819 21.104707,17.544152 L17.9017969,17.544152 L17.9017969,6.42473684 C18.9485156,6.19707602 19.7744531,5.37280702 20.0025,4.32807018 L24.4099805,4.32807018 C24.6380273,5.37280702 25.4639648,6.19707602 26.5106836,6.42473684 L26.5106836,8.2428655 C26.5106836,8.56578947 26.7730664,8.82766082 27.0966211,8.82766082 C27.4201758,8.82766082 27.6825586,8.56578947 27.6825586,8.2428655 L27.6825586,5.90263158 C27.6825586,5.5797076 27.4201758,5.31783626 27.0966211,5.31783626 C26.2266797,5.31783626 25.519043,4.61146199 25.519043,3.74327485 C25.519043,3.42035088 25.2566602,3.15847953 24.9331055,3.15847953 L19.4794336,3.15847953 C19.1558789,3.15847953 18.8934961,3.42035088 18.8934961,3.74327485 C18.8934961,4.61152047 18.1858008,5.31783626 17.315918,5.31783626 C16.9923633,5.31783626 16.7299805,5.5797076 16.7299805,5.90263158 L16.7299805,17.5440936 L15.5855273,17.5440936 L15.5855273,1.17023392 L28.8273633,1.16959064 L28.8273633,28.7719298 Z M22.2063867,16.599883 C21.3063281,16.599883 20.5741406,15.8690643 20.5741406,14.9708187 C20.5741406,14.0725731 21.3063867,13.3416959 22.2063867,13.3416959 C23.1063867,13.3416959 23.8386328,14.0725146 23.8386328,14.9707602 C23.8386328,15.8690058 23.1064453,16.599883 22.2063867,16.599883 Z" id="Shape"></path>
            </g>
        </g>
    </g>
</svg>