<?xml version="1.0" encoding="UTF-8"?>
<svg width="156px" height="90px" viewBox="0 0 156 90" version="1.1" xmlns="http://www.w3.org/2000/svg" xmlns:xlink="http://www.w3.org/1999/xlink">
    <!-- Generator: Sketch 58 (84663) - https://sketch.com -->
    <title>brand-logo</title>
    <desc>Created with Sketch.</desc>
    <defs>
        <linearGradient x1="52.4111421%" y1="12.6714714%" x2="52.4111421%" y2="87.1568602%" id="linearGradient-1">
            <stop stop-color="#555555" offset="0%"></stop>
            <stop stop-color="#494949" offset="51.5716768%"></stop>
            <stop stop-color="#303030" offset="52.0245792%"></stop>
            <stop stop-color="#212121" offset="100%"></stop>
        </linearGradient>
    </defs>
    <g id="Page-1" stroke="none" stroke-width="1" fill="none" fill-rule="evenodd">
        <g id="brand-logo" fill-rule="nonzero">
            <g id="FANTASYSPORTS-2" transform="translate(0.000000, 74.000000)" fill="#FFFFFF">
                <path d="M4.04614437,16 L0,16 L0.0701453106,1.94285714 L2.13449951,2.84217094e-14 L10.2497777,2.84217094e-14 L10.244357,4.02285714 L4.08318267,4.02285714 L4.13905255,5.98857143 L10.1622902,5.98857143 L10.1568695,10.0114286 L4.13363189,10.0114286 L4.04614437,16 Z M16.3349541,16 L12.2834435,16 L12.2197987,1.94285714 L14.4025761,0 L20.4338021,0 L22.440655,1.94285714 L22.4812799,16 L18.4297693,16 L18.4312155,11.9542857 L16.3364003,11.9542857 L16.3349541,16 Z M18.2841953,8 L18.2941685,3.73333333 L16.3074605,3.73333333 L16.3402069,8 L18.2841953,8 Z M30.0639016,4.04571429 L28.1072061,4.04571429 L28.0843349,16 L24.0328243,16 L23.9691795,1.94285714 L26.0138372,0 L32.1831829,0 L34.1900358,1.94285714 L34.1155609,16 L30.0640503,16 L30.0639016,4.04571429 Z M35.7435505,2.84217094e-14 L46.0319828,2.84217094e-14 L46.0012765,4.04571429 L42.9888977,4.04571429 L42.9479149,16 L38.8696175,16 L38.9106002,4.04571429 L35.7360164,4.04571429 L35.7435505,2.84217094e-14 Z M52.1171592,16 L48.0656486,16 L48.0020038,1.94285714 L50.1847811,0 L56.2160071,0 L58.2228601,1.94285714 L58.2634849,16 L54.2119743,16 L54.2134205,11.9542857 L52.1186054,11.9542857 L52.1171592,16 Z M54.0664004,8 L54.029699,3.73333333 L52.1025532,3.73333333 L52.1224119,8 L54.0664004,8 Z M65.3205147,5.46285714 L65.3855114,4.04571429 L63.4275975,4.04571429 L63.3459034,6.49142857 L67.3755635,6.49142857 L69.3703721,8.45714286 L69.4818326,14.0571429 L67.4645535,16 L61.3631473,16 L59.3735328,14.0571429 L59.3477039,10.5371429 L63.3773639,10.5371429 L63.4261994,11.9542857 L65.3613469,11.9542857 L65.4606133,9.48571429 L61.3171211,9.48571429 L59.4413387,7.54285714 L59.3526447,1.94285714 L61.3699238,0 L67.3119649,0 L69.4381781,1.94285714 L69.3274083,5.46285714 L65.3205147,5.46285714 Z M71.0052949,0 L75.1434416,0 L75.1031953,2.72 L76.1199281,4.29714286 L77.1252442,2.72 L77.1419784,0 L81.280125,0 L81.277307,4.02285714 L78.1416172,8.43428571 L78.1209542,16 L73.9357831,16 L73.9799583,8.43428571 L70.9789646,4.02285714 L71.0052949,0 Z M93.6258411,5.46285714 L93.6908378,4.04571429 L91.7329239,4.04571429 L91.6512298,6.49142857 L95.6808899,6.49142857 L97.6756985,8.45714286 L97.787159,14.0571429 L95.7698799,16 L89.6684737,16 L87.6788591,14.0571429 L87.6530302,10.5371429 L91.6826903,10.5371429 L91.7315258,11.9542857 L93.6666733,11.9542857 L93.7659397,9.48571429 L89.6224475,9.48571429 L87.7466651,7.54285714 L87.6579711,1.94285714 L89.6752502,0 L95.6172913,0 L97.7435045,1.94285714 L97.6327347,5.46285714 L93.6258411,5.46285714 Z M103.392437,8 L105.20825,8 L105.09319,3.73333333 L103.277376,3.73333333 L103.392437,8 Z M107.463161,11.9542857 L103.388631,11.9542857 L103.410204,16 L99.3356737,16 L99.277223,1.96571429 L101.316687,0 L107.486032,0 L109.498079,1.96571429 L109.507819,10.0114286 L107.463161,11.9542857 Z M114.509191,12.2666667 L116.498652,12.2666667 L116.429703,4.26666667 L114.440241,4.26666667 L114.509191,12.2666667 Z M112.647044,16 L110.643558,14.0571429 L110.64715,1.94285714 L112.686461,0 L118.704717,0 L120.708203,1.94285714 L120.727582,14.0571429 L118.688271,16 L112.647044,16 Z M126.446486,10.0342857 L126.351883,16 L122.300372,16 L122.32469,0 L130.450731,0 L132.462778,1.96571429 L132.479158,5.98857143 L130.442645,8.06857143 L132.477712,10.0342857 L132.448051,14.0571429 L130.426414,16 L128.446698,16 L128.403181,10.0342857 L126.446486,10.0342857 Z M125.807902,3.73333333 L125.872355,5.86666667 L127.973991,5.86666667 L128.057889,3.73333333 L125.807902,3.73333333 Z M134.011099,0 L144.299531,0 L144.268825,4.04571429 L141.256446,4.04571429 L141.215463,16 L137.137166,16 L137.178148,4.04571429 L134.003565,4.04571429 L134.011099,0 Z M151.838682,5.46285714 L151.903679,4.04571429 L149.945765,4.04571429 L149.864071,6.49142857 L153.893731,6.49142857 L155.88854,8.45714286 L156,14.0571429 L153.982721,16 L147.881315,16 L145.8917,14.0571429 L145.865871,10.5371429 L149.895531,10.5371429 L149.944367,11.9542857 L151.879514,11.9542857 L151.978781,9.48571429 L147.835289,9.48571429 L145.959506,7.54285714 L145.870812,1.94285714 L147.888091,0 L153.830132,0 L155.956346,1.94285714 L155.845576,5.46285714 L151.838682,5.46285714 Z" id="FANTASYSPORTS"></path>
            </g>
            <g id="Shape-4-Copy" transform="translate(46.041667, 0.000000)" fill="#0CBFEB">
                <g id="Shape-3" transform="translate(0.958333, 0.000000)">
                    <g id="Shape-2">
                        <path d="M50.2127276,17.8028693 L50.2127276,18.0677557 L50.2127276,19.6922727 L40.1701019,19.6922727 L40.1701019,16.5064773 C40.1701019,15.1498295 40.010377,14.285767 39.6911277,13.9053409 C39.371678,13.5338636 38.7794735,13.34375 38.0341576,13.34375 C37.2178974,13.34375 36.6054518,13.6030682 36.1884035,14.1215057 C35.7715557,14.6399432 35.5673404,15.4176989 35.5673404,16.4633239 C35.5673404,17.8114205 35.7982099,18.8311932 36.2683662,19.513892 C36.7120686,20.1965909 37.8387602,21.0606534 39.6402242,22.0977273 C44.7955095,25.1049432 48.0609511,27.5247159 49.4273302,29.3653977 C50.7848913,31.2146307 51.4680808,34.1786932 51.4680808,38.2748864 C51.4680808,41.25625 51.0955231,43.4513068 50.3500068,44.859858 C49.6046909,46.2771591 48.1761855,47.4609943 46.0466542,48.4115625 C43.917123,49.3621307 41.4324694,49.8461648 38.6109307,49.8461648 C35.5054144,49.8461648 32.861036,49.293125 30.6693784,48.1782955 C28.4777208,47.0636648 27.4289878,45.6463636 26.7544158,43.9180398 C26.0712262,42.198267 25.7341406,39.7916193 25.7341406,36.6115909 L25.7341406,33.8461932 L35.7765659,33.8461932 L35.7765659,38.931733 C35.7765659,40.5130966 35.954127,41.5328693 36.3090489,41.9823011 C36.6639708,42.4315341 37.0846264,42.65625 37.9896671,42.65625 C38.8949083,42.65625 39.5692799,42.3883807 40.0127819,41.8353409 C40.4564844,41.2823011 40.6783356,40.461392 40.6783356,39.3724148 C40.6783356,36.9874432 40.2791236,35.4231818 39.4981352,34.6885795 C38.681875,33.9541761 36.8275034,32.649233 33.9258016,30.7826989 C31.0154823,28.8988636 29.0723302,27.5593182 28.113981,26.7469602 C27.1556318,25.9346023 26.3570075,24.8199716 25.726926,23.3853693 C25.0882269,21.959517 24.7775951,20.1361364 24.7775951,17.9064773 C24.7775951,14.7091477 25.2122792,12.3671307 26.0820482,10.8808239 C26.9516168,9.40306818 28.362286,8.24508523 30.3144565,7.406875 C32.266627,6.57721591 34.6180095,6.15383523 37.3776223,6.15383523 C40.3855401,6.15383523 42.9499558,6.60326705 45.0794871,7.50193182 C47.2,8.40059659 48.6020516,9.52417614 49.2942595,10.8808239 C49.986267,12.2462216 50.2127276,14.5536364 50.2127276,17.8028693 Z M8.78727242,6.76911932 L28.8723234,6.76911932 L28.8723234,7.48920455 C27.0167493,8.32045455 25.6682065,9.45059659 24.8264946,10.8808239 C24.2046298,11.9443466 23.8052174,13.4455682 23.6282575,15.3846875 L20.085051,15.3846875 L20.085051,23.3845739 L24.4715727,23.3853693 C25.1016542,24.8199716 25.9002785,25.9346023 26.8586277,26.7469602 C27.1977174,27.0343182 27.6600577,27.3890909 28.2446467,27.8092898 L28.2446467,31.3846591 L20.085051,31.3846591 L20.085051,49.2306818 L8.78727242,49.2306818 L8.78727242,6.76911932 Z M5.9,0 C2.64137228,0 0,2.47963068 0,5.53835227 L0,50.4616477 C0,53.5203693 2.64137228,56 5.9,56 L53.1,56 C56.3586277,56 59,53.5203693 59,50.4616477 L59,5.53835227 C59,2.47963068 56.3586277,0 53.1,0 L5.9,0 Z" id="Shape"></path>
                    </g>
                </g>
            </g>
        </g>
    </g>
</svg>