<?xml version="1.0" encoding="UTF-8"?>
<svg width="23px" height="23px" viewBox="0 0 23 23" version="1.1" xmlns="http://www.w3.org/2000/svg" xmlns:xlink="http://www.w3.org/1999/xlink">
    <!-- Generator: sketchtool 55.1 (78136) - https://sketchapp.com -->
    <title>3243E691-70D0-49C6-B830-F3658267C607</title>
    <desc>Created with sketchtool.</desc>
    <g id="Page-1" stroke="none" stroke-width="1" fill="none" fill-rule="evenodd">
        <g id="15-FS-referral-referral-share" transform="translate(-173.000000, -349.000000)" fill="#fff" fill-rule="nonzero">
            <g id="link-ic" transform="translate(173.000000, 349.000000)">
                <path d="M21.6114301,1.5595235 C19.7569637,-0.519396833 16.7379542,-0.52028545 14.8826947,1.5595235 L11.2379961,5.64360891 C11.0829616,5.8173336 11.0829616,6.09813669 11.2379961,6.27186139 C11.3930306,6.44558608 11.6436235,6.44558608 11.798658,6.27186139 L15.4433566,2.18777597 C16.188791,1.35247565 17.1844218,0.892616162 18.2466659,0.892616162 C19.309703,0.892616162 20.3049373,1.35291996 21.0503717,2.18822028 C21.7958062,3.02352061 22.2065881,4.13917971 22.2065881,5.32992698 C22.2065881,6.52067425 21.7958062,7.63588904 21.0503717,8.47118937 L16.2847459,13.8126684 C14.7391589,15.5445836 12.2229212,15.5445836 10.6769377,13.8126684 C10.5219032,13.6389437 10.2713104,13.6389437 10.1162759,13.8126684 C9.96124137,13.986393 9.96124137,14.2671961 10.1162759,14.4409208 C11.0441039,15.4801588 12.2621755,16 13.4806436,16 C14.6991117,16 15.9175798,15.4801588 16.8450112,14.4409208 L21.6114301,9.09944184 C22.5067444,8.09619284 23,6.75749078 23,5.32948267 C23,3.90147456 22.5067444,2.5627725 21.6114301,1.5595235 Z" id="Path"></path>
                <path d="M10.8751919,17.6053377 L7.72318555,20.9108114 C6.96132235,21.7097688 5.94374868,22.1500453 4.85768838,22.1500453 C3.77162808,22.1500453 2.75445966,21.7097688 1.99219121,20.9108114 C0.412540817,19.2542498 0.412540817,16.5577686 1.99219121,14.900782 L6.57714878,10.0925884 C8.15720442,8.43602676 10.7284927,8.43687672 12.3081431,10.0925884 C12.4665944,10.2587545 12.7227102,10.2587545 12.8811615,10.0925884 C13.0396128,9.92642227 13.0396128,9.6578366 12.8811615,9.49167046 C10.9858242,7.50320151 7.90027822,7.50235156 6.0041304,9.49167046 L1.41876758,14.300289 C0.503721253,15.2598878 0,16.5403445 0,17.9062217 C0,19.2720988 0.504126499,20.5525555 1.41917283,21.5117294 C2.33421916,22.4709032 3.55522651,23 4.85728313,23 C6.16015025,23 7.3811576,22.4713282 8.29579869,21.5117294 L11.447805,18.2062557 C11.6062564,18.0400895 11.6062564,17.7715039 11.447805,17.6053377 C11.2893537,17.4391716 11.0336432,17.4395966 10.8751919,17.6053377 Z" id="Path"></path>
            </g>
        </g>
    </g>
</svg>