<?xml version="1.0" encoding="UTF-8"?>
<svg width="12px" height="22px" viewBox="0 0 12 22" version="1.1" xmlns="http://www.w3.org/2000/svg" xmlns:xlink="http://www.w3.org/1999/xlink">
    <!-- Generator: sketchtool 55.1 (78136) - https://sketchapp.com -->
    <title>2EBC3EA3-0B43-404E-A7CB-8467A5E9309A</title>
    <desc>Created with sketchtool.</desc>
    <g id="Page-1" stroke="none" stroke-width="1" fill="none" fill-rule="evenodd">
        <g id="27-FS-impr-profile" transform="translate(-51.000000, -292.000000)" fill="#fff" fill-rule="nonzero">
            <g id="icon/mobile-ic" transform="translate(51.000000, 292.000000)">
                <g id="977411">
                    <path d="M7.75343836,1.1 L4.24660274,1.1 C4.0530411,1.1 3.89593151,1.26426953 3.89593151,1.46665234 C3.89593151,1.66903516 4.0530411,1.83330469 4.24660274,1.83330469 L7.75343836,1.83330469 C7.947,1.83330469 8.10410959,1.66903516 8.10410959,1.46665234 C8.10410959,1.26426953 7.947,1.1 7.75343836,1.1 Z" id="Path"></path>
                    <path d="M10.2082192,1.1 L9.85754795,1.1 C9.6639863,1.1 9.50687671,1.26426953 9.50687671,1.46665234 C9.50687671,1.66903516 9.6639863,1.83330469 9.85754795,1.83330469 L10.2082192,1.83330469 C10.4017808,1.83330469 10.5588904,1.66903516 10.5588904,1.46665234 C10.5588904,1.26426953 10.4017808,1.1 10.2082192,1.1 Z" id="Path"></path>
                    <path d="M6.43553425,18.7 L5.56479452,18.7 C5.03141096,18.7 4.59727397,19.1539219 4.59727397,19.7116133 L4.59727397,19.8887305 C4.59727397,20.4464219 5.03141096,20.9 5.56446575,20.9 L6.43520548,20.9 C6.96858904,20.9 7.40272603,20.4464219 7.40272603,19.8887305 L7.40272603,19.7116133 C7.40272603,19.1539219 6.96858904,18.7 6.43553425,18.7 Z M6.70138356,19.8887305 C6.70138356,20.042 6.58216438,20.1666523 6.43557534,20.1666523 L5.56479452,20.1666523 C5.41787671,20.1666523 5.29861644,20.042 5.29861644,19.8887305 L5.29861644,19.7116133 C5.29861644,19.558 5.41783562,19.4333047 5.56479452,19.4333047 L6.43520548,19.4333047 C6.58216438,19.4333047 6.70138356,19.557957 6.70138356,19.7116133 L6.70138356,19.8887305 L6.70138356,19.8887305 Z" id="Shape"></path>
                    <path d="M10.6942603,0 L1.30606849,0 C0.607150685,0 0.0383424658,0.594730469 0.0383424658,1.3255 L0.0383424658,20.6745 C0.0383424658,21.4052695 0.607150685,22 1.30606849,22 L10.6938904,22 C11.3928082,22 11.9616164,21.4052695 11.9616164,20.6748867 L11.9616164,1.3255 C11.9616164,0.594730469 11.3928493,0 10.6942603,0 Z M11.260274,20.6745 C11.260274,21.0008477 11.0063836,21.2666523 10.6942603,21.2666523 L1.30606849,21.2666523 C0.993616438,21.2666523 0.739726027,21.0008047 0.739726027,20.6748437 L0.739726027,1.3255 C0.739726027,0.999152344 0.993616438,0.733347656 1.30606849,0.733347656 L10.6938904,0.733347656 C11.0063425,0.733347656 11.260274,0.999195313 11.260274,1.3255 L11.260274,20.6745 L11.260274,20.6745 Z" id="Shape"></path>
                    <path d="M11.6109452,2.2 L0.389054795,2.2 C0.195493151,2.2 0.0383835616,2.36426953 0.0383835616,2.56665234 L0.0383835616,17.9666523 C0.0383835616,18.1690352 0.195493151,18.3333047 0.389054795,18.3333047 L11.6109863,18.3333047 C11.8045479,18.3333047 11.9616575,18.1690352 11.9616575,17.9666523 L11.9616575,2.56665234 C11.9616575,2.36426953 11.8045479,2.2 11.6109452,2.2 Z M11.260274,17.6 L0.739726027,17.6 L0.739726027,2.93334766 L11.260274,2.93334766 L11.260274,17.6 Z" id="Shape"></path>
                </g>
            </g>
        </g>
    </g>
</svg>