<?xml version="1.0" encoding="UTF-8"?>
<svg width="142px" height="19px" viewBox="0 0 142 19" version="1.1" xmlns="http://www.w3.org/2000/svg" xmlns:xlink="http://www.w3.org/1999/xlink">
    <!-- Generator: Sketch 58 (84663) - https://sketch.com -->
    <title>FS-hearder-white-logo</title>
    <desc>Created with Sketch.</desc>
    <g id="Page-1" stroke="none" stroke-width="1" fill="none" fill-rule="evenodd">
        <g id="1-Sports-hub" transform="translate(-117.000000, -57.000000)" fill="#28292D">
            <g id="FS-hearder-white-logo" transform="translate(117.000000, 57.000000)">
                <g id="FANTASYSPORTS-2" transform="translate(27.000000, 4.000000)">
                    <path d="M2.98273463,11 L0,11 L0.0517096841,1.33571429 L1.57350926,2.84217094e-14 L7.55592587,2.84217094e-14 L7.55192987,2.76571429 L3.0100385,2.76571429 L3.05122464,4.11714286 L7.49143187,4.11714286 L7.48743587,6.88285714 L3.04722863,6.88285714 L2.98273463,11 Z M12.0417931,11 L9.0551026,11 L9.00818496,1.33571429 L10.6172836,0 L15.0633798,0 L16.5427906,1.33571429 L16.5727384,11 L13.5860479,11 L13.587114,8.21857143 L12.0428592,8.21857143 L12.0417931,11 Z M13.4787337,5.5 L13.4860858,2.56666667 L12.0215254,2.56666667 L12.0456653,5.5 L13.4787337,5.5 Z M22.1624916,2.78142857 L20.7200558,2.78142857 L20.7031956,11 L17.7165051,11 L17.6695874,1.33571429 L19.1768671,0 L23.7247822,0 L25.2041931,1.33571429 L25.1492917,11 L22.1626012,11 L22.1624916,2.78142857 Z M26.3494123,2.84217094e-14 L33.9338334,2.84217094e-14 L33.9111974,2.78142857 L31.6905336,2.78142857 L31.6603219,11 L28.6538847,11 L28.6840963,2.78142857 L26.3438583,2.78142857 L26.3494123,2.84217094e-14 Z M38.4197007,11 L35.4330102,11 L35.3860925,1.33571429 L36.9951912,0 L41.4412873,0 L42.9206981,1.33571429 L42.9506459,11 L39.9639554,11 L39.9650215,8.21857143 L38.4207668,8.21857143 L38.4197007,11 Z M39.8566413,5.5 L39.8295858,2.56666667 L38.4089335,2.56666667 L38.4235729,5.5 L39.8566413,5.5 Z M48.1529436,3.75571429 L48.2008578,2.78142857 L46.7575238,2.78142857 L46.6973006,4.46285714 L49.6678833,4.46285714 L51.1384153,5.81428571 L51.2205817,9.66428571 L49.733485,11 L45.2356535,11 L43.7689504,9.66428571 L43.7499099,7.24428571 L46.7204926,7.24428571 L46.7564932,8.21857143 L48.1830442,8.21857143 L48.2562214,6.52142857 L45.2017239,6.52142857 L43.8189356,5.18571429 L43.7535522,1.33571429 L45.2406489,0 L49.6209998,0 L51.1884005,1.33571429 L51.1067433,3.75571429 L48.1529436,3.75571429 Z M52.3436469,0 L55.3942037,0 L55.364535,1.87 L56.1140496,2.95428571 L56.855148,1.87 L56.867484,0 L59.9180409,0 L59.9159635,2.76571429 L57.6043973,5.79857143 L57.5891649,11 L54.5039427,11 L54.5365077,5.79857143 L52.3242368,2.76571429 L52.3436469,0 Z M69.0190495,3.75571429 L69.0669638,2.78142857 L67.6236298,2.78142857 L67.5634066,4.46285714 L70.5339893,4.46285714 L72.0045213,5.81428571 L72.0866877,9.66428571 L70.5995909,11 L66.1017595,11 L64.6350564,9.66428571 L64.6160159,7.24428571 L67.5865986,7.24428571 L67.6225991,8.21857143 L69.0491502,8.21857143 L69.1223274,6.52142857 L66.0678299,6.52142857 L64.6850416,5.18571429 L64.6196582,1.33571429 L66.1067549,0 L70.4871057,0 L72.0545065,1.33571429 L71.9728493,3.75571429 L69.0190495,3.75571429 Z M76.2187837,5.5 L77.5573641,5.5 L77.4725437,2.56666667 L76.1339634,2.56666667 L76.2187837,5.5 Z M79.219638,8.21857143 L76.2159776,8.21857143 L76.2318814,11 L73.228221,11 L73.1851323,1.35142857 L74.6885831,0 L79.2364982,0 L80.719738,1.35142857 L80.7269177,6.88285714 L79.219638,8.21857143 Z M84.4138264,8.43333333 L85.8804169,8.43333333 L85.8295887,2.93333333 L84.3629982,2.93333333 L84.4138264,8.43333333 Z M83.0410905,11 L81.5641613,9.66428571 L81.5668092,1.33571429 L83.0701475,0 L87.5066821,0 L88.9836114,1.33571429 L88.9978967,9.66428571 L87.4945584,11 L83.0410905,11 Z M93.2137554,6.89857143 L93.1440164,11 L90.1573259,11 L90.1752522,0 L96.165603,0 L97.6488428,1.35142857 L97.6609176,4.11714286 L96.1596419,5.54714286 L97.6598515,6.89857143 L97.6379866,9.66428571 L96.1476767,11 L94.6882711,11 L94.6561911,6.89857143 L93.2137554,6.89857143 Z M92.7430046,2.56666667 L92.7905183,4.03333333 L94.3398012,4.03333333 L94.4016486,2.56666667 L92.7430046,2.56666667 Z M98.790233,0 L106.374654,0 L106.352018,2.78142857 L104.131354,2.78142857 L104.101143,11 L101.094705,11 L101.124917,2.78142857 L98.7846791,2.78142857 L98.790233,0 Z M111.932362,3.75571429 L111.980276,2.78142857 L110.536942,2.78142857 L110.476719,4.46285714 L113.447302,4.46285714 L114.917834,5.81428571 L115,9.66428571 L113.512903,11 L109.015072,11 L107.548369,9.66428571 L107.529328,7.24428571 L110.499911,7.24428571 L110.535911,8.21857143 L111.962462,8.21857143 L112.03564,6.52142857 L108.981142,6.52142857 L107.598354,5.18571429 L107.53297,1.33571429 L109.020067,0 L113.400418,0 L114.967819,1.33571429 L114.886162,3.75571429 L111.932362,3.75571429 Z" id="FANTASYSPORTS"></path>
                </g>
                <g id="Shape-3" fill-rule="nonzero">
                    <g id="Shape-2">
                        <path d="M17.0212636,6.04025923 L17.0212636,6.13013139 L17.0212636,6.68130682 L13.6169837,6.68130682 L13.6169837,5.60041193 C13.6169837,5.14012074 13.5628397,4.84695668 13.4546196,4.71788352 C13.3463315,4.59184659 13.1455842,4.52734375 12.8929348,4.52734375 C12.6162364,4.52734375 12.4086277,4.6153267 12.2672554,4.79122514 C12.1259511,4.96712358 12.0567255,5.23100497 12.0567255,5.5857706 C12.0567255,6.04316051 12.1349864,6.38915483 12.2943614,6.6207848 C12.444769,6.85241477 12.8266984,7.14557884 13.4373641,7.49744318 C15.1849185,8.51774858 16.2918478,9.3387429 16.7550272,9.96325994 C17.2152174,10.5906783 17.4468071,11.5963423 17.4468071,12.9861222 C17.4468071,13.9976563 17.3205163,14.7424077 17.0677989,15.2203089 C16.8151495,15.701179 16.3309103,16.1028374 15.6090353,16.4253516 C14.8871603,16.7478658 14.0449049,16.9120916 13.0884511,16.9120916 C12.0357337,16.9120916 11.1393342,16.7244531 10.3963995,16.3462074 C9.65346467,15.9680291 9.29796196,15.4871591 9.06929348,14.9007635 C8.8377038,14.3172692 8.7234375,13.500728 8.7234375,12.4217898 L8.7234375,11.4835298 L12.1276495,11.4835298 L12.1276495,13.2089808 C12.1276495,13.7455149 12.1878397,14.0915092 12.3081522,14.243995 C12.4284647,14.3964134 12.5710598,14.4726563 12.8778533,14.4726563 C13.1847147,14.4726563 13.4133152,14.381772 13.5636549,14.1941335 C13.7140625,14.006495 13.7892663,13.7279723 13.7892663,13.3584979 C13.7892663,12.5493111 13.6539402,12.0185795 13.3891984,11.7693395 C13.1125,11.5201669 12.4838995,11.0774183 11.5002717,10.44413 C10.5137228,9.80497159 9.85502717,9.35048295 9.53016304,9.07486151 C9.20529891,8.79924006 8.9345788,8.42106179 8.72099185,7.93432173 C8.5044837,7.45055043 8.39918478,6.83190341 8.39918478,6.07541193 C8.39918478,4.99060369 8.54653533,4.19599077 8.84137228,3.6917081 C9.1361413,3.1903267 9.61433424,2.79743963 10.276087,2.51304688 C10.9378397,2.2315554 11.7349185,2.08790838 12.6703804,2.08790838 C13.6900136,2.08790838 14.5593071,2.24039418 15.2811821,2.5452983 C16,2.85020241 16.4752717,3.2314169 16.7099185,3.6917081 C16.9444973,4.15496804 17.0212636,4.93784091 17.0212636,6.04025923 Z M2.97873641,2.29666548 L9.78722826,2.29666548 L9.78722826,2.54098011 C9.15822011,2.82301136 8.70108696,3.20645241 8.41576087,3.6917081 C8.20495924,4.05254616 8.06956522,4.5618892 8.0095788,5.21980469 L6.80849185,5.21980469 L6.80849185,7.93405185 L8.29544837,7.93432173 C8.50903533,8.42106179 8.77975543,8.79924006 9.10461957,9.07486151 C9.21956522,9.17235795 9.37629076,9.29272727 9.57445652,9.43529474 L9.57445652,10.6483665 L6.80849185,10.6483665 L6.80849185,16.703267 L2.97873641,16.703267 L2.97873641,2.29666548 Z M2.97873641,16.7244531 L2.95842391,16.703267 L2.97873641,16.703267 L2.97873641,16.7244531 Z M2,0 C0.895380435,0 0,0.841303267 0,1.87908381 L0,17.1209162 C0,18.1586967 0.895380435,19 2,19 L18,19 C19.1046196,19 20,18.1586967 20,17.1209162 L20,1.87908381 C20,0.841303267 19.1046196,0 18,0 L2,0 Z" id="Shape"></path>
                    </g>
                </g>
            </g>
        </g>
    </g>
</svg>