<?xml version="1.0" encoding="UTF-8"?>
<svg width="38px" height="35px" viewBox="0 0 38 35" version="1.1" xmlns="http://www.w3.org/2000/svg" xmlns:xlink="http://www.w3.org/1999/xlink">
    <!-- Generator: sketchtool 58 (101010) - https://sketch.com -->
    <title>8E3D1E7B-440C-497F-BC38-E27A8203A85E</title>
    <desc>Created with sketchtool.</desc>
    <g id="Page-1" stroke="none" stroke-width="1" fill="none" fill-rule="evenodd">
        <g id="12-FS-Private-h2p" transform="translate(-64.000000, -385.000000)" fill="#6C72BC" fill-rule="nonzero">
            <path d="M94.5647656,385 C95.7026133,385 96.729875,385.678404 97.1819414,386.728285 L97.1819414,386.728285 L97.2727852,386.93947 L98.0211328,386.93947 C100.215039,386.93947 102,388.734094 102,390.940045 L102,390.940045 L102,392.492964 C102,392.802055 101.750848,393.052642 101.443359,393.052642 C101.135871,393.052642 100.886719,392.802055 100.886793,392.492964 L100.886793,392.492964 L100.886793,390.940045 C100.886793,389.351307 99.6013242,388.058825 98.021207,388.058825 L98.021207,388.058825 L96.9071836,388.058825 C96.6851953,388.058825 96.4844336,387.926218 96.3962617,387.721376 L96.3962617,387.721376 L96.1602461,387.172892 C95.8847461,386.53292 95.2584883,386.119355 94.5648398,386.119355 L94.5648398,386.119355 L90.872457,386.119355 C87.5567344,386.119355 84.8591797,388.831628 84.8591797,392.165366 L84.8591797,392.165366 L84.8591797,396.4022 C85.1670391,396.197731 85.5323437,396.074005 85.9254062,396.062588 L85.9254062,396.062588 L85.9254062,393.364121 C85.9254062,393.261663 85.9276328,393.167562 85.9323086,393.076521 C85.9405469,392.914737 86.0181055,392.764445 86.1449453,392.664524 C86.2717852,392.564603 86.4357344,392.524978 86.5936719,392.555573 C87.4416211,392.720119 88.3165859,392.803548 89.1942969,392.803548 C92.3615078,392.803548 95.4520508,391.692849 97.896668,389.675995 C98.0167539,389.576969 98.1724648,389.532717 98.3263203,389.554283 C98.4801016,389.575775 98.6180742,389.660846 98.7066914,389.78905 C99.435,390.841617 99.8199727,392.077833 99.8199727,393.364121 L99.8199727,393.364121 L99.8199727,396.062513 C100.213258,396.073782 100.578785,396.197508 100.886719,396.402126 L100.886719,396.402126 L100.886719,395.135389 C100.886719,394.826297 101.135871,394.575711 101.443359,394.575711 C101.750848,394.575711 102,394.826297 102,395.135389 L102,395.135389 L102,403.593237 C102,405.249808 100.659906,406.597586 99.0126953,406.597586 L99.0126953,406.597586 L95.8279687,406.597586 L95.8279687,407.387851 L96.9872656,407.387851 C99.488957,407.387851 101.524258,409.434257 101.524258,411.949597 L101.524258,411.949597 L101.524258,419.440322 C101.524258,419.749414 101.275105,420 100.967617,420 L100.967617,420 L87.4523828,420 C87.1448945,420 86.8957422,419.749414 86.8957422,419.440322 L86.8957422,419.440322 L86.8957422,413.003283 L84.1132812,413.003283 C83.805793,413.003283 83.5566406,412.752697 83.5566406,412.443606 C83.5566406,412.134515 83.805793,411.883928 84.1132812,411.883928 L84.1132812,411.883928 L87.4523828,411.883928 C87.7598711,411.883928 88.0090234,412.134515 88.0090234,412.443606 L88.0090234,412.443606 L88.0090234,418.880645 L97.7373945,418.880645 L97.7373945,415.130805 C97.7373945,414.821713 97.9865469,414.571127 98.2940352,414.571127 C98.6015234,414.571127 98.8506758,414.821713 98.8506758,415.130805 L98.8506758,415.130805 L98.8506758,418.880645 L100.410902,418.880645 L100.410902,411.949597 C100.410902,410.051469 98.8750937,408.507207 96.9871914,408.507207 L96.9871914,408.507207 L95.8278945,408.507207 L95.8278945,408.786299 C95.8278945,410.400484 93.4189766,411.797215 93.144293,411.951164 C93.0601289,411.998401 92.9667617,412.021982 92.8733203,412.021982 C92.7800273,412.021982 92.6866602,411.998326 92.6024219,411.951164 C92.3276641,411.797215 89.9179297,410.400559 89.9179297,408.786299 L89.9179297,408.786299 L89.9179297,408.507207 L80.8701445,408.507207 C81.8278633,409.344186 82.4351953,410.576521 82.4351953,411.949597 L82.4351953,411.949597 L82.4351953,419.440248 C82.4351953,419.749339 82.186043,420 81.8785547,420 L81.8785547,420 L65.6892187,420 C65.3817305,420 65.1325781,419.749339 65.1325781,419.440248 L65.1325781,419.440248 L65.1325781,413.47401 C64.464832,413.164247 64,412.485097 64,411.698414 L64,411.698414 L64,408.653544 C64,407.575679 64.8721445,406.698776 65.9441602,406.698776 L65.9441602,406.698776 L67.2997656,406.698776 C67.8852031,406.698776 68.3960508,407.022121 68.6677656,407.499787 C68.9944023,407.425685 69.3295,407.387851 69.6695703,407.387851 L69.6695703,407.387851 L70.828793,407.387851 L70.828793,406.31924 C68.7307031,405.327417 67.2007578,403.31198 66.893418,400.892904 C65.7649219,400.891636 64.8472812,399.96772 64.8472812,398.832321 L64.8472812,398.832321 L64.8472812,398.122351 C64.8472812,397.643341 65.0109336,397.202315 65.2844297,396.852032 C64.9622461,395.65865 64.7699453,394.819059 64.7129453,394.355646 C64.5997617,393.441133 64.7000312,390.866093 64.7087148,390.648938 C64.7152461,389.120869 65.9536602,387.879728 67.4749219,387.879728 L67.4749219,387.879728 L68.0882656,387.879728 L69.9164219,386.041448 C70.5910703,385.363193 71.5861953,385.080071 72.5136328,385.302524 L72.5136328,385.302524 L79.5149102,386.977229 C79.7995391,387.045361 80.092332,387.079911 80.385125,387.079911 C81.2326289,387.079911 82.0644727,386.787685 82.7274687,386.257036 C83.1260977,385.937721 83.6606211,385.910857 84.0891602,386.188755 C84.5174766,386.466505 84.7137852,386.967006 84.5890977,387.46385 L84.5890977,387.46385 L84.1674609,389.14154 C84.0922773,389.441229 83.7894648,389.622788 83.4914766,389.547045 C83.1933398,389.471302 83.0127656,389.166986 83.0880977,388.867298 L83.0880977,388.867298 L83.5096602,387.189757 C83.5139648,387.172669 83.5193828,387.151177 83.4857617,387.129387 C83.4520664,387.107447 83.4347734,387.121477 83.4208945,387.132596 C82.5616641,387.820327 81.4835625,388.199117 80.3851992,388.199117 C80.0056445,388.199117 79.6261641,388.154343 79.2572227,388.065989 L79.2572227,388.065989 L72.2556484,386.391508 C71.7013828,386.258528 71.1068164,386.4277 70.7035859,386.833056 L70.7035859,386.833056 L68.7124453,388.83521 C68.6079453,388.940205 68.4664102,388.999158 68.3187891,388.999158 L68.3187891,388.999158 L67.4749219,388.999158 C66.5634414,388.999158 65.8219961,389.744648 65.8219961,390.661027 L65.8219961,390.661027 L65.8215508,390.684011 C65.7911211,391.429427 65.7310781,393.517547 65.8176914,394.21789 C65.8610352,394.56989 66.0136289,395.249563 66.2540234,396.165569 C66.4382344,396.104303 66.6338008,396.068483 66.8367148,396.062663 L66.8367148,396.062663 L66.8367148,394.259157 C66.8367148,393.964692 67.0636016,393.720598 67.355875,393.700748 C68.8112305,393.602021 69.105582,393.301661 69.105582,391.915302 C69.105582,391.660761 69.2764336,391.438233 69.5214297,391.373833 C69.7661289,391.309432 70.0237422,391.419278 70.1476875,391.641284 C70.1523633,391.649493 70.7761719,392.71885 72.2799922,393.494489 C74.2873867,394.529817 76.9608945,394.579517 80.0113594,393.638587 C80.1799844,393.586425 80.3635273,393.618065 80.5055078,393.723583 C80.6474883,393.829101 80.7312812,393.996109 80.7312812,394.173639 L80.7312812,394.173639 L80.7312812,396.062588 C80.9139336,396.067886 81.0903516,396.097736 81.2580859,396.148256 L81.2580859,396.148256 L82.4440273,391.42898 C82.5192852,391.129291 82.8223945,390.94803 83.1200117,391.023474 C83.4181484,391.099218 83.5987227,391.403533 83.5233906,391.703222 L83.5233906,391.703222 L82.2423008,396.801213 C82.5405117,397.159183 82.7207148,397.619835 82.7207148,398.122276 L82.7207148,398.122276 L82.7207148,398.832246 C82.7207148,399.967795 81.8025547,400.89171 80.6734648,400.89283 C80.4713672,402.479031 79.7374922,403.941207 78.5743359,405.055264 C78.0266758,405.579869 77.4063555,406.003657 76.7381641,406.319688 L76.7381641,406.319688 L76.7381641,407.387851 L89.9178555,407.387851 L89.9178555,406.597586 L86.7338711,406.597586 C85.0862891,406.597586 83.7458242,405.249883 83.7458242,403.593237 L83.7458242,403.593237 L83.7458242,392.165366 C83.7458242,388.214341 86.9427969,385 90.8723828,385 L90.8723828,385 Z M70.828793,408.507207 L69.6694961,408.507207 C69.3994141,408.507207 69.1338594,408.539071 68.8757266,408.60071 L68.8757266,408.60071 L68.8757266,412.068622 C68.8757266,412.942391 68.168793,413.653256 67.2997656,413.653256 L67.2997656,413.653256 L66.2458594,413.653256 L66.2458594,418.880645 L67.8060117,418.880645 L67.8060117,415.130805 C67.8060117,414.821713 68.0551641,414.571127 68.3626523,414.571127 C68.6701406,414.571127 68.919293,414.821713 68.919293,415.130805 L68.919293,415.130805 L68.919293,418.880645 L78.6480352,418.880645 L78.6480352,415.130805 C78.6480352,414.821713 78.8971875,414.571127 79.2046758,414.571127 C79.5121641,414.571127 79.7613164,414.821713 79.7613164,415.130805 L79.7613164,415.130805 L79.7613164,418.880645 L81.3219141,418.880645 L81.3219141,411.949597 C81.3219141,410.051469 79.7860313,408.507207 77.8981289,408.507207 L77.8981289,408.507207 L76.7380898,408.507207 L76.7380898,408.786299 C76.7380898,409.580146 76.4308984,410.326233 75.8729961,410.88718 C75.315168,411.448126 74.5731289,411.757068 73.7835156,411.757068 C72.1542656,411.757068 70.828793,410.424364 70.828793,408.786299 L70.828793,408.786299 L70.828793,408.507207 Z M67.2997656,407.818131 L65.9441602,407.818131 C65.4860078,407.818131 65.1132812,408.192892 65.1132812,408.653544 L65.1132812,408.653544 L65.1132812,411.698488 C65.1132812,412.15914 65.4860078,412.5339 65.9441602,412.5339 L65.9441602,412.5339 L67.2997656,412.5339 C67.5548555,412.5339 67.7624453,412.325178 67.7624453,412.068622 L67.7624453,412.068622 L67.7624453,408.28341 C67.7624453,408.026854 67.5549297,407.818131 67.2997656,407.818131 L67.2997656,407.818131 Z M94.7146875,406.732058 C94.1208633,406.895559 93.5026953,406.981824 92.8727266,406.981824 C92.2356328,406.981824 91.6183555,406.894439 91.0312109,406.732655 L91.0312109,406.732655 L91.0312109,408.786299 C91.0312109,409.406646 92.0330898,410.283101 92.8733203,410.811735 C93.712957,410.28325 94.7146875,409.40672 94.7146875,408.786299 L94.7146875,408.786299 Z M75.6248828,406.732282 C75.0313555,406.895708 74.4135586,406.981898 73.7840352,406.981898 C73.146793,406.981898 72.5293672,406.894439 71.9420742,406.732655 L71.9420742,406.732655 L71.9420742,408.786224 C71.9420742,409.807151 72.7681289,410.637638 73.7835156,410.637638 C74.2757344,410.637638 74.7381914,410.445184 75.0857578,410.095646 C75.4334727,409.746109 75.6248828,409.281129 75.6248828,408.786299 L75.6248828,408.786299 Z M70.0466758,393.257334 C69.7630117,394.143043 69.1101094,394.597427 67.9500703,394.763912 L67.9500703,394.763912 L67.9500703,396.62137 C67.9500703,396.930461 67.700918,397.181048 67.3934297,397.181048 L67.3934297,397.181048 L66.895793,397.181048 C66.3800469,397.181048 65.9605625,397.603269 65.9605625,398.122276 L65.9605625,398.122276 L65.9605625,398.832246 C65.9605625,399.351254 66.3801211,399.773474 66.895793,399.773474 L66.895793,399.773474 L67.4021133,399.773474 C67.6983945,399.773474 67.9427227,400.006823 67.9580117,400.304273 C68.0780234,402.638725 69.5438437,404.594164 71.5775117,405.42883 C71.5882734,405.43286 71.5991094,405.43689 71.6095742,405.441516 C72.2823672,405.712997 73.0163164,405.862543 73.7839609,405.862543 C74.5394336,405.862543 75.2755352,405.717549 75.9592383,405.441367 C75.9627266,405.4398 75.9661406,405.438308 75.9696289,405.43689 C76.643832,405.163021 77.2668984,404.76162 77.8064687,404.244776 C78.89125,403.205716 79.5314609,401.806224 79.6090937,400.304123 C79.624457,400.006673 79.8687852,399.773474 80.1649922,399.773474 L80.1649922,399.773474 L80.6713125,399.773474 C81.1874297,399.773474 81.6073594,399.351254 81.6073594,398.832246 L81.6073594,398.832246 L81.6073594,398.122276 C81.6073594,397.603269 81.1874297,397.181048 80.6713125,397.181048 L80.6713125,397.181048 L80.1746406,397.181048 C79.8671523,397.181048 79.618,396.930461 79.618,396.62137 L79.618,396.62137 L79.618,394.914801 C77.3249375,395.520522 74.2987422,395.828419 71.6996016,394.452582 C70.9867305,394.07521 70.4433008,393.642691 70.0466758,393.257334 Z M98.1025508,390.936165 C95.5444531,392.86653 92.4057422,393.922978 89.1942227,393.922978 C88.4704414,393.922978 87.7479961,393.870368 87.0386133,393.766343 L87.0386133,393.766343 L87.0386133,396.62137 C87.0386133,396.930461 86.7894609,397.181048 86.4819727,397.181048 L86.4819727,397.181048 L85.9853008,397.181048 C85.4691836,397.181048 85.0492539,397.603269 85.0492539,398.122276 L85.0492539,398.122276 L85.0492539,398.832321 C85.0492539,399.351328 85.4692578,399.773549 85.985375,399.773549 L85.985375,399.773549 L86.4916953,399.773549 C86.7879766,399.773549 87.0323047,400.006897 87.0475938,400.304347 C87.1675313,402.638651 88.6329805,404.594015 90.6661289,405.428756 C90.6771875,405.43286 90.6882461,405.436964 90.6990078,405.44174 C91.3715781,405.713147 92.1053047,405.862618 92.8726523,405.862618 C93.6250078,405.862618 94.3582148,405.719116 95.0394688,405.445322 C95.0491172,405.440845 95.0588398,405.436666 95.0687109,405.432785 C95.7392773,405.158991 96.3590781,404.759157 96.8960508,404.244851 C97.980832,403.205045 98.6211172,401.805477 98.6986758,400.304198 C98.7140391,400.006748 98.9583672,399.773549 99.2545742,399.773549 L99.2545742,399.773549 L99.7608945,399.773549 C100.276641,399.773549 100.696125,399.351328 100.696125,398.832321 L100.696125,398.832321 L100.696125,398.122351 C100.696125,397.603343 100.276566,397.181122 99.7608945,397.181122 L99.7608945,397.181122 L99.2632578,397.181122 C98.9557695,397.181122 98.7066172,396.930536 98.7066172,396.621445 L98.7066172,396.621445 L98.7066172,393.364196 C98.7066172,392.508187 98.49925,391.679417 98.1025508,390.936165 Z M100.886719,400.552546 C100.563941,400.76694 100.177855,400.892382 99.7630469,400.89283 C99.5609492,402.478135 98.8270742,403.940386 97.6640664,405.055115 C97.5081328,405.204437 97.3461133,405.345252 97.1790469,405.478231 L97.1790469,405.478231 L99.0126953,405.478231 C100.046043,405.478231 100.886719,404.63267 100.886719,403.593237 L100.886719,403.593237 Z M84.8591797,400.55262 L84.8591797,403.593237 C84.8591797,404.632596 85.7001523,405.478231 86.7339453,405.478231 L86.7339453,405.478231 L88.5661094,405.478231 C87.1802227,404.37686 86.2194609,402.754392 85.983,400.89283 C85.5681172,400.892382 85.181957,400.76694 84.8591797,400.55262 L84.8591797,400.55262 Z M95.4310696,399.824579 C95.7300896,399.9564 95.8742238,400.326718 95.7529173,400.651656 C95.2456429,402.010675 94.0448881,402.888889 92.6939222,402.888889 C91.8130675,402.888889 90.9840232,402.516031 90.3594936,401.838892 C90.0438007,401.495921 89.8000192,401.096309 89.6344596,400.65064 C89.5136985,400.325363 89.6583002,399.955384 89.9576318,399.824156 C90.2569635,399.692758 90.5974319,399.850147 90.7182709,400.175255 C90.8246964,400.461841 90.9818417,400.719218 91.1853436,400.940359 C91.5887635,401.37773 92.124709,401.618937 92.6939222,401.618937 C93.5667522,401.618937 94.34235,401.051861 94.6698852,400.174324 C94.7912696,399.849385 95.1318937,399.692758 95.4310696,399.824579 Z M71.3304428,400.175382 C71.4367141,400.461718 71.5939395,400.719099 71.7975222,400.940413 C72.2009479,401.377707 72.7369011,401.618917 73.3061225,401.618917 C74.178965,401.618917 74.954574,401.051832 75.2821139,400.174281 C75.4035,399.849338 75.7440512,399.692708 76.0433092,399.824531 C76.3423335,399.956354 76.4864698,400.326678 76.3651616,400.651621 C75.8578799,402.010661 74.6571079,402.888889 73.3061225,402.888889 C72.425333,402.888889 71.5962768,402.516025 70.9716603,401.838961 C70.6558071,401.495645 70.4121,401.096027 70.2466938,400.650521 C70.125931,400.325323 70.2706127,399.955338 70.5699486,399.824108 C70.8692846,399.692793 71.20968,399.850184 71.3304428,400.175382 Z M77.5714286,395.888889 C77.7618249,395.888889 77.9201133,396.10431 77.9529379,396.388373 L77.9591837,396.497828 L77.9591837,396.835505 C77.9591837,397.171802 77.7856245,397.444444 77.5714286,397.444444 C77.3810322,397.444444 77.2227439,397.229023 77.1899193,396.94496 L77.1836735,396.835505 L77.1836735,396.497828 C77.1836735,396.161531 77.3572327,395.888889 77.5714286,395.888889 Z M70.5918367,395.888889 C70.7822331,395.888889 70.9405214,396.10431 70.9733461,396.388373 L70.9795918,396.497828 L70.9795918,396.835505 C70.9795918,397.171802 70.8060327,397.444444 70.5918367,397.444444 C70.4014404,397.444444 70.243152,397.229023 70.2103274,396.94496 L70.2040816,396.835505 L70.2040816,396.497828 C70.2040816,396.161531 70.3776408,395.888889 70.5918367,395.888889 Z M96.1836735,395.888889 C96.3740698,395.888889 96.5323582,396.10431 96.5651828,396.388373 L96.5714286,396.497828 L96.5714286,396.835505 C96.5714286,397.171802 96.3978694,397.444444 96.1836735,397.444444 C95.9932771,397.444444 95.8349888,397.229023 95.8021641,396.94496 L95.7959184,396.835505 L95.7959184,396.497828 C95.7959184,396.161531 95.9694776,395.888889 96.1836735,395.888889 Z M89.9795918,395.888889 C90.1699882,395.888889 90.3282765,396.10431 90.3611012,396.388373 L90.3673469,396.497828 L90.3673469,396.835505 C90.3673469,397.171802 90.1937878,397.444444 89.9795918,397.444444 C89.7891955,397.444444 89.6309071,397.229023 89.5980825,396.94496 L89.5918367,396.835505 L89.5918367,396.497828 C89.5918367,396.161531 89.7653959,395.888889 89.9795918,395.888889 Z" id="friends-ic"></path>
        </g>
    </g>
</svg>