<?xml version="1.0" encoding="UTF-8"?>
<svg width="18px" height="18px" viewBox="0 0 18 18" version="1.1" xmlns="http://www.w3.org/2000/svg" xmlns:xlink="http://www.w3.org/1999/xlink">
    <!-- Generator: sketchtool 55.1 (78136) - https://sketchapp.com -->
    <title>7A087964-05A2-4AA8-8DB5-825DECE1562F</title>
    <desc>Created with sketchtool.</desc>
    <g id="Page-1" stroke="none" stroke-width="1" fill="none" fill-rule="evenodd">
        <g id="15-FS-referral-referral-share" transform="translate(-340.000000, -101.000000)" fill="#FFFFFF" fill-rule="nonzero">
            <g id="Icon-/-White-/ic-info-Icon-/-Black-/ic-info-white" transform="translate(337.000000, 98.000000)">
                <g id="149150" transform="translate(3.000000, 3.000000)">
                    <g id="149149" transform="translate(9.000000, 9.000000) rotate(-180.000000) translate(-9.000000, -9.000000) ">
                        <path d="M9,0 C4.03753846,0 0,4.03719231 0,9 C0,13.9628077 4.03753846,18 9,18 C13.9624615,18 18,13.9628077 18,9 C18,4.03719231 13.9624615,0 9,0 Z M9,17.3076923 C4.41934615,17.3076923 0.692307692,13.5806538 0.692307692,9 C0.692307692,4.41934615 4.41934615,0.692307692 9,0.692307692 C13.5806538,0.692307692 17.3076923,4.41934615 17.3076923,9 C17.3076923,13.5806538 13.5806538,17.3076923 9,17.3076923 Z" id="Shape"></path>
                        <path d="M8.9,3 C8.6792,3 8.5,3.15473077 8.5,3.34615385 L8.5,10.9615385 C8.5,11.1529615 8.6792,11.3076923 8.9,11.3076923 C9.1208,11.3076923 9.3,11.1529615 9.3,10.9615385 L9.3,3.34615385 C9.3,3.15473077 9.1208,3 8.9,3 Z" id="Path"></path>
                        <path d="M8.9,13 C8.6792,13 8.5,13.1547308 8.5,13.3461538 L8.5,14.0384615 C8.5,14.2298846 8.6792,14.3846154 8.9,14.3846154 C9.1208,14.3846154 9.3,14.2298846 9.3,14.0384615 L9.3,13.3461538 C9.3,13.1547308 9.1208,13 8.9,13 Z" id="Path"></path>
                    </g>
                </g>
            </g>
        </g>
    </g>
</svg>