<svg xmlns="http://www.w3.org/2000/svg" xmlns:xlink="http://www.w3.org/1999/xlink" width="44" height="44" viewBox="0 0 44 44">
  <defs>
    <circle id="refer-a-friends-a" cx="22" cy="22" r="22"/>
  </defs>
  <g fill="none" fill-rule="evenodd">
    <mask id="refer-a-friends-b" fill="#fff">
      <use xlink:href="#refer-a-friends-a"/>
    </mask>
    <use fill="#FFF" fill-rule="nonzero" xlink:href="#refer-a-friends-a"/>
    <g fill="#000" fill-rule="nonzero" mask="url(#refer-a-friends-b)">
      <g transform="translate(6 6)">
        <path d="M19.8748298 18.1024475C19.8673415 17.8113098 19.6314591 17.5819702 19.3477049 17.5896606 19.0639507 17.5976257 18.840638 17.8401489 18.8483937 18.1312867L18.855882 18.4122619C18.8633704 18.6984558 19.0917645 18.9250488 19.3688327 18.9250488 19.3736466 18.9250488 19.3784605 18.9250488 19.383007 18.9247742 19.6667612 18.916809 19.8900739 18.6742859 19.8823182 18.3831482L19.8748298 18.1024475zM24.4181065 17.5896606C24.4132926 17.5896606 24.4084787 17.5896606 24.4039321 17.5899353 24.1204454 17.5976257 23.8968652 17.8401489 23.9043536 18.1312867L23.9118419 18.4119873C23.9193303 18.6984558 24.1477243 18.9250488 24.4247925 18.9250488 24.4296064 18.9250488 24.4344204 18.9250488 24.4389669 18.9247742 24.7224536 18.9170838 24.9460338 18.6745605 24.9385454 18.3834229L24.9310571 18.1027222C24.9235688 17.8165283 24.6951747 17.5896606 24.4181065 17.5896606L24.4181065 17.5896606zM23.7313197 19.6517945C23.5018559 19.480957 23.18066 19.5336914 23.0143121 19.7696228 22.7543601 20.1382141 22.3352811 20.35849 21.8934696 20.35849 21.4513907 20.35849 21.0323117 20.1382141 20.7723597 19.7696228 20.6060117 19.5336914 20.2850833 19.480957 20.0553521 19.6517945 19.8256208 19.8226318 19.7742723 20.1522217 19.9406201 20.3881531 20.3931292 21.0300293 21.122974 21.4131775 21.8932022 21.4131775 22.6634304 21.4131775 23.3935425 21.0300293 23.8460516 20.3881531 24.0123995 20.1522217 23.9610509 19.8226318 23.7313197 19.6517945L23.7313197 19.6517945zM1.30617868 26.546814C1.06040098 26.4015198.746426041 26.4885864.605217535 26.7409973.209405813 27.4479675 0 28.255188 0 29.074768L0 35.4726562C0 35.7637939.22973128 36 .513485477 36 .797239674 36 1.02697095 35.7637939 1.02697095 35.4726562L1.02697095 29.074768C1.02697095 28.439209 1.18903984 27.8140869 1.49552645 27.2669678 1.63673496 27.0142822 1.55195638 26.6921082 1.30617868 26.546814L1.30617868 26.546814zM6.41001037 16.1304016C6.1265236 16.1383667 5.90294346 16.3806152 5.91069922 16.6717529L5.91872246 16.9744262C5.92621079 17.2606201 6.15460482 17.4874878 6.43167302 17.4874878 6.43648699 17.4874878 6.44130088 17.4874878 6.44611484 17.4872131 6.72960161 17.479248 6.95318175 17.2367248 6.94542593 16.9458618L6.93740275 16.6431885C6.929647 16.3520508 6.69296223 16.1227112 6.41001037 16.1304016zM11.8823749 17.4874878C11.8871888 17.4874878 11.8920027 17.4874878 11.8968166 17.4872131 12.1803034 17.479248 12.4038836 17.2367248 12.3958604 16.9455871L12.3878371 16.6429138C12.3800814 16.3517761 12.1455362 16.1227112 11.8604448 16.1304016 11.576958 16.1383667 11.3533779 16.3808899 11.361401 16.6720276L11.3694243 16.9744262C11.3769126 17.2606201 11.6053066 17.4874878 11.8823749 17.4874878zM11.2260762 19.081604C11.3924242 18.8456726 11.3410756 18.5160828 11.1110769 18.3449707 10.8816131 18.174408 10.5604172 18.2271424 10.3940693 18.4630738 10.1063035 18.8712158 9.64256193 19.1148377 9.15341348 19.1148377 8.66426509 19.1148377 8.20025613 18.8712158 7.91249024 18.4630738 7.74614238 18.2271424 7.42521395 18.174408 7.19548267 18.3449707 6.96575146 18.5160828 6.91440291 18.8456726 7.08075078 19.081604 7.56107365 19.7627563 8.33584834 20.1695252 9.15314605 20.1695252 9.9707112 20.1695252 10.7454859 19.7627563 11.2260762 19.081604L11.2260762 19.081604zM3.81316451 29.8070068C3.52967781 29.8070068 3.29967904 30.0429383 3.29967904 30.3343506L3.29967904 35.4726562C3.29967904 35.7637939 3.52967781 36 3.81316451 36 4.09691878 36 4.32664999 35.7637939 4.32664999 35.4726562L4.32664999 30.3343506C4.32664999 30.0429383 4.09691878 29.8070068 3.81316451 29.8070068zM14.2992334 29.8070068C14.0154792 29.8070068 13.7857479 30.0429383 13.7857479 30.3343506L13.7857479 35.4726562C13.7857479 35.7637939 14.0154792 36 14.2992334 36 14.5827201 36 14.8127188 35.7637939 14.8127188 35.4726562L14.8127188 30.3343506C14.8127188 30.0429383 14.5827201 29.8070068 14.2992334 29.8070068z"/>
        <path d="M31.6061009,-1.70530257e-13 L21.1941131,-1.70530257e-13 C20.4418034,-1.70530257e-13 19.8296324,0.628692609 19.8296324,1.40130619 L19.8296324,3.63290407 C19.8296324,3.92431641 20.0593636,4.16024782 20.3431178,4.16024782 C20.6266047,4.16024782 20.8566033,3.92431641 20.8566033,3.63290407 L20.8566033,1.40130619 C20.8566033,1.21014408 21.0079746,1.0546875 21.1941131,1.0546875 L31.6061009,1.0546875 C31.7922394,1.0546875 31.9436106,1.21014408 31.9436106,1.40130619 L31.9436106,8.39877321 C31.9436106,8.58966061 31.7922394,8.74539183 31.6061009,8.74539183 L25.927005,8.74539183 C25.7681454,8.74539183 25.6181114,8.82092285 25.5207631,8.95001217 L24.7427791,9.98300173 C24.6545238,10.1000061 24.5376524,10.1175842 24.4756062,10.1175842 C24.4138275,10.1175842 24.296956,10.1000061 24.2087007,9.98300173 L23.4307168,8.95001217 C23.3333685,8.82092285 23.1833344,8.74539183 23.0244748,8.74539183 L21.1941131,8.74539183 C21.0079746,8.74539183 20.8566033,8.58993532 20.8566033,8.39877321 L20.8566033,5.92959593 C20.8566033,5.63818359 20.6268721,5.40225218 20.3431178,5.40225218 C20.0593636,5.40225218 19.8296324,5.63818359 19.8296324,5.92959593 L19.8296324,7.53085329 C18.6988946,7.84643555 17.6558772,8.41964723 16.7687775,9.20901487 C16.4737909,8.54516602 16.0945604,7.91482542 15.6340281,7.33502194 C14.0390139,5.32699587 11.6767132,4.17535397 9.15341348,4.17535397 C6.6301138,4.17535397 4.26781318,5.32699587 2.67253143,7.33502194 C1.07751716,9.34304808 0.453311415,11.9506531 0.9601109,14.4893188 L1.14624939,15.4220581 C0.757658502,15.856018 0.519904046,16.4347229 0.519904046,17.069458 C0.519904046,18.4128113 1.58431665,19.5059509 2.89236743,19.5059509 C3.18040067,19.5059509 3.4596084,19.4521179 3.72276971,19.3510437 C4.08381422,21.3565979 5.46166692,22.9685669 7.25886609,23.6453247 L7.25886609,24.3871765 L4.56440452,24.3871765 C3.80460642,24.3871765 3.0520293,24.5830078 2.38850981,24.9532471 C2.1392554,25.0922242 2.04698849,25.4124756 2.18231328,25.668457 C2.27538252,25.8442383 2.45189315,25.9442139 2.63402002,25.9442139 C2.71692656,25.9442139 2.8009028,25.9236145 2.87872796,25.8799438 C3.39248086,25.5934754 3.9752334,25.441864 4.56440452,25.441864 L5.62587526,25.441864 L5.62587526,35.4726562 C5.62587526,35.7637939 5.85560654,36 6.13936074,36 C6.42284751,36 6.65284621,35.7637939 6.65284621,35.4726562 L6.65284621,25.441864 L7.25913351,25.441864 L7.25913351,25.8390198 C7.25913351,26.9115601 8.10879149,27.7841492 9.15341348,27.7841492 C10.1977681,27.7841492 11.0474261,26.9115601 11.0474261,25.8390198 L11.0474261,25.441864 L11.6539808,25.441864 L11.6539808,35.4726562 C11.6539808,35.7637939 11.8837121,36 12.1674663,36 C12.4509531,36 12.6809518,35.7637939 12.6809518,35.4726562 L12.6809518,25.441864 L13.5482608,25.441864 C15.4987033,25.441864 17.0856944,27.0716858 17.0856944,29.074768 L17.0856944,35.4726562 C17.0856944,35.7637939 17.3154256,36 17.5991799,36 C17.8826666,36 18.1126654,35.7637939 18.1126654,35.4726562 L18.1126654,32.1124878 C19.01073,32.0309143 20.3885827,32.1056213 21.5883201,33.0158386 C21.6789824,33.0845032 21.786226,33.1191101 21.8934696,33.1191101 C22.0007132,33.1191101 22.1079567,33.0845032 22.198619,33.0158386 C23.6960176,31.880127 25.4886702,32.0515137 26.2436544,32.1932373 L26.2436544,35.4726562 C26.2436544,35.7637939 26.4733856,36 26.7571398,36 C27.0406266,36 27.2706253,35.7637939 27.2706253,35.4726562 L27.2706253,30.8042908 C27.2706253,30.5128785 27.0406266,30.276947 26.7571398,30.276947 C26.4733856,30.276947 26.2436544,30.5128785 26.2436544,30.8042908 L26.2436544,31.120697 C25.9545513,31.0737305 25.586286,31.0336304 25.1669395,31.0311584 L25.1669395,26.5578003 C27.1839746,27.2323609 28.6463385,29.1810608 28.6463385,31.4747314 L28.6463385,35.4726562 C28.6463385,35.7637939 28.8760698,36 29.159824,36 C29.4433107,36 29.6733094,35.7637939 29.6733094,35.4726562 L29.6733094,31.4747314 C29.6733094,29.8764953 29.0836035,28.4169617 28.1160042,27.3136597 C28.4823976,26.8459168 28.7105242,26.2787476 28.769361,25.6712036 L28.9121742,24.1924438 C28.939988,23.9026795 28.7340589,23.6445007 28.4519093,23.6156617 C28.1689575,23.5868225 27.9180985,23.798584 27.8902847,24.0883484 L27.7474715,25.5671082 C27.711367,25.9414672 27.5776468,26.2924805 27.3634271,26.588562 C26.3492933,25.7654114 25.0738703,25.2680054 23.6877269,25.2501526 L23.6877269,24.6261291 C25.3418455,23.9933166 26.6111174,22.511261 26.9590573,20.6672058 C27.1962769,20.7526245 27.4474034,20.7976684 27.7009368,20.7976684 C27.8774475,20.7976684 28.0491442,20.7759705 28.2138874,20.736145 L28.1119927,21.7919312 C28.0839114,22.0816955 28.2901079,22.3401489 28.5722575,22.3687133 C28.5893737,22.370636 28.6064899,22.37146 28.6236061,22.37146 C28.8843604,22.37146 29.1076731,22.1682129 29.1338823,21.8960266 L29.3077185,20.0970154 C29.6981814,19.6831055 29.9391452,19.1197815 29.9391452,18.4993286 C29.9391452,18.0414734 29.8075645,17.6149292 29.5821123,17.2562256 L29.6941698,16.0946961 C29.9201569,13.7554321 29.1547426,11.4812622 27.6191001,9.80007933 L31.6058335,9.80007933 C32.3584106,9.80007933 32.9705815,9.17166136 32.9705815,8.39877321 L32.9705815,1.40130619 C32.9705815,0.628692609 32.3584106,-1.70530257e-13 31.6061009,-1.70530257e-13 L31.6061009,-1.70530257e-13 Z M16.7596846,17.069458 C16.7596846,17.8313598 16.1560717,18.4512634 15.4141922,18.4512634 C15.1689494,18.4512634 14.9346716,18.3839722 14.7276728,18.2573547 L15.0333571,15.7436828 C15.1558448,15.706604 15.2831464,15.6876525 15.4141922,15.6876525 C16.1560717,15.6873779 16.7596846,16.3075562 16.7596846,17.069458 L16.7596846,17.069458 Z M15.4540408,19.5048523 C15.88355,19.4977112 16.2857803,19.3727417 16.6313132,19.1598816 L16.6823943,19.5809326 C16.5016047,19.686676 16.29835,19.7429809 16.0857349,19.7429809 C15.8589455,19.7429809 15.6441909,19.677063 15.4593896,19.5625305 L15.4540408,19.5048523 Z M3.46843392,8.00161741 C4.86768184,6.24023437 6.9398097,5.22976683 9.15341348,5.22976683 C11.3667499,5.22976683 13.4388777,6.23995973 14.8381256,8.00161741 C16.2373735,9.76327516 16.7850914,12.0506287 16.3403381,14.2775574 L16.2392456,14.7851257 C15.9819681,14.6867981 15.7040975,14.6326904 15.4139247,14.6326904 C15.3312857,14.6326904 15.248914,14.6381836 15.1668099,14.6469727 L15.273786,13.7669678 C15.3192508,13.7680664 15.3644482,13.769165 15.4109829,13.769989 L15.4256921,13.769989 C15.6613071,13.769989 15.8830151,13.6768799 16.0515025,13.5065918 C16.2231992,13.3332825 16.3176057,13.1017456 16.3176057,12.8548279 L16.3176057,11.8778687 C16.3176057,11.5867309 16.0878744,11.3505249 15.8041202,11.3505249 C15.520366,11.3505249 15.2906348,11.5867309 15.2906348,11.8778687 L15.2906348,12.7125549 C12.6953936,12.6526795 11.7256548,12.1442871 11.6625389,12.1094055 C11.505284,12.0058594 11.3116572,12.0025635 11.1471813,12.0940246 C10.9816358,12.1860352 10.8848224,12.3684082 10.8848224,12.5617676 L10.8848224,12.7081604 C8.59874222,12.613678 7.4923415,11.9053344 7.48405083,11.8998413 C7.32626099,11.7935486 7.12407615,11.7847595 6.95826306,11.87677 C6.79218262,11.9687805 6.68868319,12.1470337 6.68868319,12.3409424 L6.68868319,12.7089844 C4.82649606,12.6381226 3.68158393,12.1959229 3.04507582,11.83255 C2.79689117,11.6911011 2.48452084,11.7828369 2.34678911,12.0374451 C2.20905731,12.2920532 2.29838236,12.6131287 2.54603216,12.7545777 C2.66129897,12.8202209 2.79047261,12.8880615 2.93408813,12.9561768 L3.13974974,14.6461487 C3.05791296,14.6376343 2.9755414,14.6329651 2.89263485,14.6329651 C2.60246209,14.6329651 2.32459155,14.6867981 2.06731389,14.7851257 L1.96622147,14.277832 C1.52146815,12.0506287 2.06918599,9.76327516 3.46843392,8.00161741 Z M1.546875,17.069458 C1.546875,16.3075562 2.15048786,15.6873779 2.89263485,15.6873779 C3.02314575,15.6873779 3.15044735,15.7071533 3.27320249,15.7442322 L3.57888683,18.2573547 C3.37188797,18.3842468 3.13761022,18.4512634 2.89263485,18.4512634 C2.15048786,18.4512634 1.546875,17.8313598 1.546875,17.069458 Z M4.69090379,18.8907166 L4.01855871,13.3632202 C4.73931047,13.5733338 5.65556116,13.7359314 6.79833377,13.7675171 C7.04090218,13.7732849 7.27197065,13.6820984 7.44634176,13.5076904 C7.54850394,13.4055176 7.62365466,13.28302 7.66831722,13.1487121 C8.32782516,13.4093628 9.42834223,13.7205506 10.9931357,13.7669678 C11.2316925,13.7741089 11.469447,13.6799011 11.6414111,13.5079651 C11.7055968,13.4439697 11.7590849,13.3720093 11.801073,13.294281 C12.2896865,13.4508362 13.0719496,13.629364 14.2446755,13.7178039 L14.051851,15.3042297 C14.0513161,15.3086242 14.0507812,15.3130188 14.0502464,15.3171387 L13.6156558,18.8907166 C13.3351109,21.1972961 11.4167612,22.9367066 9.15314605,22.9367066 C6.88979833,22.9367066 4.9714487,21.1972961 4.69090379,18.8907166 Z M9.15341348,26.7297363 C8.6752302,26.7297363 8.28610446,26.3301086 8.28610446,25.8390198 L8.28610446,23.9197082 C8.56932375,23.9661255 8.85869424,23.9913941 9.15341348,23.9913941 C9.44786536,23.9913941 9.73750321,23.9661255 10.0204551,23.9197082 L10.0204551,25.8390198 C10.0204551,26.3301086 9.6315969,26.7297363 9.15341348,26.7297363 Z M11.0474261,24.3871765 L11.0474261,23.6453247 C12.6362892,23.0468445 13.8983402,21.7183227 14.4190466,20.0321961 C14.4385698,20.054718 14.4586278,20.0766907 14.4792207,20.0983887 L14.9140787,24.6019592 C14.48243,24.4624328 14.0237698,24.3871765 13.5479934,24.3871765 L11.0474261,24.3871765 Z M15.9964098,25.1216125 L15.5727843,20.7358703 C15.7383299,20.7759705 15.910294,20.7976684 16.0857349,20.7976684 C16.3424776,20.7976684 16.5919995,20.7528992 16.8278818,20.6677551 C17.1760892,22.5118103 18.4450937,23.9935913 20.0989448,24.6261291 L20.0989448,25.2507019 C19.0297183,25.2644348 17.9979334,25.5621643 17.0864967,26.1177979 C16.7778705,25.7288818 16.4096052,25.3924256 15.9964098,25.1216125 L15.9964098,25.1216125 Z M18.1126654,31.0545044 L18.1126654,29.074768 C18.1126654,28.3320922 17.9428407,27.6297912 17.6422378,27.0049438 C17.9530034,26.8187256 18.2806178,26.6690369 18.6199997,26.5558777 L18.6199997,31.0333557 C18.4408146,31.0344543 18.2707226,31.0421448 18.1126654,31.0545044 Z M24.1399686,26.3325805 L24.1399686,31.1047668 C23.422961,31.2140808 22.6423026,31.4607239 21.8934696,31.9520874 C21.1457064,31.4620972 20.3642456,31.2154541 19.6469706,31.1064148 L19.6469706,26.3328552 C19.7964698,26.3166504 19.9473061,26.3078613 20.0989448,26.3053894 L20.0989448,26.6341553 C20.0989448,27.6503906 20.9039403,28.4768371 21.8934696,28.4768371 C22.8827314,28.4768371 23.6877269,27.650116 23.6877269,26.6341553 L23.6877269,26.3059387 C23.840168,26.3084106 23.9910042,26.3166504 24.1399686,26.3325805 L24.1399686,26.3325805 Z M22.660756,26.6341553 C22.660756,27.0686645 22.3165602,27.4221496 21.8934696,27.4221496 C21.4703789,27.4221496 21.1259158,27.0686645 21.1259158,26.6341553 L21.1259158,24.8988648 C21.3770423,24.9375916 21.6329827,24.9584656 21.8934696,24.9584656 C22.1536891,24.9584656 22.4098969,24.9375916 22.660756,24.8988648 L22.660756,26.6341553 Z M21.8934696,23.9037781 C19.8125162,23.9037781 18.0487471,22.3044434 17.7909346,20.184082 L17.54275,18.1439209 C17.6986676,17.8195496 17.7866556,17.4548035 17.7866556,17.069458 C17.7866556,16.5412903 17.6216448,16.0523987 17.3427046,15.652771 C18.5900464,15.7384644 20.1516306,15.5530701 21.5452622,14.5239258 C22.0683756,15.5187378 23.3839147,17.3119812 26.2663868,17.9618225 L25.9960046,20.184082 C25.7379247,22.304718 23.974423,23.9037781 21.8934696,23.9037781 L21.8934696,23.9037781 Z M27.1042774,19.5812073 L27.2890787,18.0628967 C27.4367058,18.0280152 27.5773794,17.9618225 27.7028089,17.8654175 C27.8841335,17.7256164 28.0151792,17.536377 28.0849812,17.3204956 C28.5650366,17.4858398 28.9121742,17.9511109 28.9121742,18.4993286 C28.9121742,19.1851502 28.3690029,19.7429809 27.7012043,19.7429809 C27.4880544,19.7429809 27.2850671,19.6872254 27.1042774,19.5812073 Z M28.6722802,15.9906006 L28.6316292,16.409729 C28.5072695,16.3509521 28.3764912,16.3034363 28.2408989,16.2688293 L28.3858516,15.1501465 C28.4230258,14.8614807 28.2253874,14.5964355 27.9443076,14.5579834 C27.6637627,14.5200805 27.4051478,14.7225037 27.3677062,15.0111695 L27.1139053,16.9736023 C27.1112309,16.9936523 27.1018704,17.0095825 27.0863589,17.0219422 C27.0753939,17.0304566 27.0569404,17.0395203 27.0326034,17.035675 C23.191625,16.4349976 22.2657466,13.641449 22.2291073,13.5252686 C22.176154,13.3533325 22.041899,13.2209473 21.8723418,13.1739807 C21.7027847,13.1272888 21.5219949,13.1726074 21.3925538,13.294281 C20.1072355,14.5030518 18.5365583,14.6911926 17.3258558,14.5939636 L17.3467162,14.4895935 C17.6310052,13.065216 17.5590638,11.6194153 17.1597754,10.2697449 C17.9246548,9.50949098 18.8433123,8.94808962 19.8488881,8.62399294 C19.954527,9.28976442 20.5166867,9.80007933 21.1943805,9.80007933 L22.7725461,9.80007933 L23.3964844,10.6284485 C23.6569713,10.9742432 24.050376,11.1722717 24.4758737,11.1722717 C24.9013713,11.1722717 25.294776,10.9742432 25.5552629,10.6284485 L26.1503177,9.83825684 C27.9590168,11.3277283 28.9012091,13.620575 28.6722802,15.9906006 L28.6722802,15.9906006 Z"/>
        <path d="M25.1254863 3.26513672C24.8417321 3.26513672 24.6120008 3.50134277 24.6120008 3.79248047L24.6120008 4.2701111 24.146922 4.2701111C23.8631678 4.2701111 23.6334365 4.50631716 23.6334365 4.79745485 23.6334365 5.08886719 23.8631678 5.3247986 24.146922 5.3247986L24.6120008 5.3247986 24.6120008 5.80270388C24.6120008 6.09384157 24.8417321 6.33004763 25.1254863 6.33004763 25.4092405 6.33004763 25.6389717 6.09384157 25.6389717 5.80270388L25.6389717 5.3247986 26.1040505 5.3247986C26.3878047 5.3247986 26.617536 5.08886719 26.617536 4.79745485 26.617536 4.50631716 26.3878047 4.2701111 26.1040505 4.2701111L25.6389717 4.2701111 25.6389717 3.79248047C25.6389717 3.50134277 25.4092405 3.26513672 25.1254863 3.26513672zM28.8241863 2.64221191C28.6706756 2.54663086 28.4797231 2.5403137 28.3205962 2.62573242L27.6680417 2.9753723C27.4166478 3.10995485 27.3190321 3.42855837 27.4503452 3.68673708 27.5648097 3.91223145 27.8154014 4.01715084 28.0445977 3.95068359L28.0445977 5.97463987 27.9346797 5.97463987C27.6509255 5.97463987 27.4211942 6.21057129 27.4211942 6.50198362 27.4211942 6.79312132 27.6509255 7.02932737 27.9346797 7.02932737L29.1814866 7.02932737C29.4652409 7.02932737 29.6949721 6.79312132 29.6949721 6.50198362 29.6949721 6.21057129 29.4652409 5.97463987 29.1814866 5.97463987L29.0715687 5.97463987 29.0715687 3.09320072C29.0715687 2.90890505 28.9776971 2.73779297 28.8241863 2.64221191z"/>
      </g>
    </g>
  </g>
</svg>
