<?xml version="1.0" encoding="UTF-8"?>
<svg width="20px" height="19px" viewBox="0 0 20 19" version="1.1" xmlns="http://www.w3.org/2000/svg" xmlns:xlink="http://www.w3.org/1999/xlink">
    <!-- Generator: sketchtool 58 (101010) - https://sketch.com -->
    <title>3F5A8DE8-0A57-48BE-AB03-5B698F1D2728</title>
    <desc>Created with sketchtool.</desc>
    <g id="Page-1" stroke="none" stroke-width="1" fill="none" fill-rule="evenodd">
        <g id="23-FS-Private-chat" transform="translate(-332.000000, -56.000000)" fill="#E0E0E0" fill-rule="nonzero">
            <path d="M333.153482,56.2004165 C333.418125,55.936363 333.848339,55.936363 334.112982,56.2004165 L334.112982,56.2004165 L351.755839,73.80398 C352.020482,74.0693875 352.020482,74.4972895 351.755839,74.7626971 C351.622839,74.8940468 351.449125,74.9603987 351.275411,74.9603987 C351.101696,74.9603987 350.927982,74.8940468 350.794982,74.761343 L350.794982,74.761343 L347.882554,71.8554009 L347.882554,74.2833385 C347.882554,74.5406214 347.733268,74.784363 347.502554,74.8926927 C347.407554,74.9333163 347.298982,74.9603987 347.203982,74.9603987 C347.054696,74.9603987 346.905411,74.9062339 346.783268,74.8114454 L346.783268,74.8114454 L340.173982,69.5439176 L337.025411,69.5439176 C336.278982,69.5439176 335.668268,68.9345635 335.668268,68.1897973 L335.668268,68.1897973 L335.668268,62.7733163 C335.668268,62.4483274 335.790411,62.1368797 335.993982,61.9066793 C336.238268,61.6087728 336.604696,61.419196 337.025411,61.419196 L337.025411,61.419196 L337.423054,61.419196 L333.153482,57.1577795 C332.888839,56.8937261 332.888839,56.4644699 333.153482,56.2004165 Z M346.783268,56.1516682 C346.986839,55.9891737 347.258268,55.9485501 347.502554,56.0704209 C347.733268,56.1787506 347.882554,56.4224922 347.882554,56.6797751 L347.882554,56.6797751 L347.882554,68.0273029 L340.771125,60.9317127 Z" id="mute-ic"></path>
        </g>
    </g>
</svg>