<?xml version="1.0" encoding="UTF-8"?>
<svg width="28px" height="28px" viewBox="0 0 28 28" version="1.1" xmlns="http://www.w3.org/2000/svg" xmlns:xlink="http://www.w3.org/1999/xlink">
    <!-- Generator: sketchtool 58 (101010) - https://sketch.com -->
    <title>C6374E5C-B522-4A5B-AF22-B6C89620487C</title>
    <desc>Created with sketchtool.</desc>
    <g id="Page-1" stroke="none" stroke-width="1" fill="none" fill-rule="evenodd">
        <g id="1-FS-3.0-Lineup-first-time" transform="translate(-13.000000, -330.000000)" fill-rule="nonzero">
            <g id="Group-8" transform="translate(0.000000, 324.000000)">
                <g id="new-ic" transform="translate(27.000000, 20.000000) rotate(-10.000000) translate(-27.000000, -20.000000) translate(13.000000, 6.000000)">
                    <g id="891449" transform="translate(0.487293, 0.430212)" fill="#00BFEB">
                        <g id="891448" transform="translate(0.000000, -0.000000)">
                            <path d="M25.4484073,11.4977108 C25.0331242,11.1915275 24.5098961,10.8090733 24.4465479,10.5591996 C24.4731629,10.0755092 24.6112974,9.60457637 24.8501181,9.18313442 C25.2161303,8.34316497 25.5938554,7.47273116 25.1738982,6.7489002 C24.7539409,6.02506925 23.7989878,5.90777597 22.8804379,5.810389 C22.404336,5.80719959 21.9352729,5.69524033 21.5090468,5.48308961 C21.2965662,5.05537882 21.1849919,4.584611 21.1829022,4.10702444 C21.0796864,3.18847454 20.9728961,2.23825051 20.244391,1.81356415 C19.5158859,1.3888778 18.6442424,1.76077393 17.8043279,2.13146029 C17.382446,2.37017108 16.9111283,2.50825051 16.4271079,2.53503055 C16.1737149,2.46700815 15.7924705,1.94845418 15.4885967,1.53317108 C14.9560204,0.815224033 14.3565214,0.00109979633 13.4907617,0.00109979633 C12.625002,0.00109979633 12.025558,0.815224033 11.496446,1.53317108 C11.1891079,1.94960896 10.8078086,2.47168228 10.5579348,2.53618534 C10.0743544,2.50704073 9.60353157,2.36912627 9.18071487,2.13261507 C8.33607128,1.76071894 7.46563747,1.39003259 6.74417108,1.80768024 C6.02270468,2.2253279 5.90189206,3.18259063 5.79862118,4.10696945 C5.7952668,4.58290631 5.68374745,5.05185947 5.47247658,5.47836049 C5.04707536,5.68748676 4.57982688,5.79735642 4.10581466,5.79977597 C3.18610998,5.90299185 2.23467617,6.00978208 1.81119959,6.73828717 C1.38772301,7.46679226 1.75967413,8.33733605 2.13036049,9.17846029 C2.36995112,9.60127699 2.50808554,10.0739145 2.53393075,10.5591996 C2.46590835,10.8125927 1.94735438,11.1950468 1.53207128,11.4977108 C0.814124236,12.025613 0,12.6262668 0,13.4920265 C0,14.3577862 0.814124236,14.9584399 1.53328106,15.4863422 C1.94856415,15.7925255 2.47179226,16.1749796 2.53514053,16.4248534 C2.50852546,16.9085438 2.37039104,17.3794766 2.13157026,17.8009185 C1.76555804,18.640888 1.38783299,19.5113218 1.80779022,20.2351527 C2.22774745,20.9589837 3.18270061,21.076277 4.10125051,21.173664 C4.57735234,21.1768534 5.04641548,21.2888126 5.47264155,21.5009633 C5.6851222,21.9286741 5.79669654,22.399442 5.79878615,22.8770285 C5.90200204,23.7955784 6.00879226,24.7458024 6.73729735,25.1704888 C7.46580244,25.5951752 8.33040733,25.212721 9.17153157,24.8467088 C9.59764766,24.6106375 10.0717149,24.4742627 10.5581548,24.4478676 C10.8115479,24.51589 11.1927923,25.034444 11.496666,25.4497271 C12.025723,26.1676741 12.625222,26.9817984 13.4909817,26.9817984 C14.3567413,26.9817984 14.9561853,26.1676741 15.4852974,25.4497271 C15.7926354,25.0332892 16.1739348,24.5112159 16.4238086,24.4467128 C16.9077189,24.4740978 17.3788717,24.6121222 17.8010285,24.8502831 C18.640998,25.2162953 19.5114318,25.5917108 20.234053,25.1752179 C20.9566741,24.75878 21.076332,23.8003075 21.1796029,22.8806029 C21.1829572,22.404666 21.2944766,21.9357128 21.5057475,21.5092118 C21.9319185,21.2983809 22.4004868,21.1872464 22.8759287,21.184277 C23.7956334,21.0810611 24.7470672,20.9742709 25.1705438,20.2457658 C25.5940204,19.5172607 25.2116212,18.6526558 24.8467637,17.8115316 C24.607943,17.3865703 24.4714033,16.9117882 24.4479226,16.4249084 C24.515945,16.1715153 25.034499,15.7890611 25.4497821,15.4863971 C26.1677291,14.9573401 26.9830631,14.3566864 26.9830631,13.4920815 C26.9830631,12.6274766 26.1675092,12.025613 25.4484073,11.4977108 Z" id="Path"></path>
                        </g>
                    </g>
                    <path d="M8.02666563,17.3357918 L9.46396013,17.3357918 L9.46396013,11.3357918 L8.04357497,11.3357918 L8.04357497,15.0557918 L5.87917854,11.3357918 L4.40806534,11.3357918 L4.40806534,17.3357918 L5.8284505,17.3357918 L5.8284505,13.6586489 L8.02666563,17.3357918 Z M13.7166609,17.3357918 L13.7166609,16.0243632 L11.9411795,16.0243632 L11.9411795,14.9529346 L13.3953833,14.9529346 L13.3953833,13.6500775 L11.9411795,13.6500775 L11.9411795,12.6472204 L13.6490235,12.6472204 L13.6490235,11.3357918 L10.4954303,11.3357918 L10.4954303,17.3357918 L13.7166609,17.3357918 Z M19.2291081,17.3357918 L18.27373,13.5643632 L17.3183519,17.3357918 L15.6781452,17.3357918 L14.1393946,11.3357918 L15.6865999,11.3357918 L16.5827953,15.5615061 L17.6227201,11.3357918 L18.9247398,11.3357918 L19.9646647,15.5615061 L20.8608601,11.3357918 L22.4080653,11.3357918 L20.8693148,17.3357918 L19.2291081,17.3357918 Z" id="NEW" fill="#FFFFFF"></path>
                </g>
            </g>
        </g>
    </g>
</svg>