<?xml version="1.0" encoding="UTF-8"?>
<svg width="238px" height="35px" viewBox="0 0 238 35" version="1.1" xmlns="http://www.w3.org/2000/svg" xmlns:xlink="http://www.w3.org/1999/xlink">
    <!-- Generator: Sketch 58 (84663) - https://sketch.com -->
    <title>offer-stripe-svg</title>
    <desc>Created with Sketch.</desc>
    <g id="Page-1" stroke="none" stroke-width="1" fill="#fff" fill-rule="evenodd">
        <path d="M235.000588,0 C236.657442,-3.04359188e-16 238.000588,1.34314575 238.000588,3 L238.000902,5.03548933 C237.8375,5.01210147 237.670457,5 237.500588,5 C235.567591,5 234.000588,6.56700338 234.000588,8.5 C234.000588,10.4329966 235.567591,12 237.500588,12 C237.670457,12 237.8375,11.9878985 238.000902,11.9645107 L238.000902,14.0354893 C237.8375,14.0121015 237.670457,14 237.500588,14 C235.567591,14 234.000588,15.5670034 234.000588,17.5 C234.000588,19.4329966 235.567591,21 237.500588,21 C237.670457,21 237.8375,20.9878985 238.000902,20.9645107 L238.000902,23.0354893 C237.8375,23.0121015 237.670457,23 237.500588,23 C235.567591,23 234.000588,24.5670034 234.000588,26.5 C234.000588,28.4329966 235.567591,30 237.500588,30 C237.670457,30 237.8375,29.9878985 238.000902,29.9645107 L238.000588,32 C238.000588,33.6568542 236.657442,35 235.000588,35 L3.00058788,35 C1.34373364,35 0.000587884797,33.6568542 0.000587884797,32 L1.79106729e-13,29.9644714 C0.16348872,29.987885 0.330623497,30 0.500587885,30 C2.43358451,30 4.00058788,28.4329966 4.00058788,26.5 C4.00058788,24.5670034 2.43358451,23 0.500587885,23 C0.330623497,23 0.16348872,23.012115 1.78523862e-13,23.0355286 L1.79106729e-13,20.9644714 C0.16348872,20.987885 0.330623497,21 0.500587885,21 C2.43358451,21 4.00058788,19.4329966 4.00058788,17.5 C4.00058788,15.5670034 2.43358451,14 0.500587885,14 C0.330623497,14 0.16348872,14.012115 1.78523862e-13,14.0355286 L1.79106729e-13,11.9644714 C0.16348872,11.987885 0.330623497,12 0.500587885,12 C2.43358451,12 4.00058788,10.4329966 4.00058788,8.5 C4.00058788,6.56700338 2.43358451,5 0.500587885,5 C0.330623497,5 0.16348872,5.01211501 1.78523862e-13,5.03552857 L0.000587884797,3 C0.000587884797,1.34314575 1.34373364,2.08071603e-15 3.00058788,0 L235.000588,0 Z" id="offer-stripe-svg" fill="transparent" fill-rule="nonzero"></path>
    </g>
</svg>