<?xml version="1.0" encoding="UTF-8"?>
<svg width="25px" height="17px" viewBox="0 0 25 17" version="1.1" xmlns="http://www.w3.org/2000/svg" xmlns:xlink="http://www.w3.org/1999/xlink">
    <!-- Generator: sketchtool 55.1 (78136) - https://sketchapp.com -->
    <title>0530FE4B-C863-4246-9A90-16915754997D</title>
    <desc>Created with sketchtool.</desc>
    <g id="Page-1" stroke="none" stroke-width="1" fill="none" fill-rule="evenodd" opacity="0.58">
        <g id="27-FS-impr-profile" transform="translate(-217.000000, -295.000000)" fill="#000000" fill-rule="nonzero">
            <g id="icon/pancard-ic" transform="translate(217.000000, 295.000000)">
                <g id="636564">
                    <g id="636563">
                        <path d="M7.08334961,4.27152339 C4.32626953,4.27152339 2.08334961,6.55484211 2.08334961,9.36158187 C2.08334961,12.1683216 4.32626953,14.4516404 7.08334961,14.4516404 C9.84042969,14.4516404 12.0833496,12.1683216 12.0833496,9.36158187 C12.0833496,6.55484211 9.84042969,4.27152339 7.08334961,4.27152339 Z M7.08334961,13.6033304 C4.78583984,13.6033304 2.91669922,11.7004737 2.91669922,9.36163158 C2.91669922,7.02278947 4.78583984,5.11988304 7.08334961,5.11988304 C9.38085938,5.11988304 11.25,7.02273977 11.25,9.36158187 C11.25,11.700424 9.38081055,13.6033304 7.08334961,13.6033304 Z" id="Shape"></path>
                        <path d="M7.08334961,5.96824269 C6.16416016,5.96824269 5.41669922,6.72921637 5.41669922,7.66491228 C5.41669922,8.60065789 6.16420898,9.36158187 7.08334961,9.36158187 C8.00249023,9.36158187 8.75,8.60065789 8.75,7.66491228 C8.75,6.72916667 8.00249023,5.96824269 7.08334961,5.96824269 Z M7.08334961,8.51327193 C6.6237793,8.51327193 6.25,8.13280994 6.25,7.66491228 C6.25,7.19706433 6.62373047,6.81655263 7.08334961,6.81655263 C7.54291992,6.81655263 7.91669922,7.19701462 7.91669922,7.66491228 C7.91665039,8.13276023 7.54291992,8.51327193 7.08334961,8.51327193 Z" id="Shape"></path>
                        <path d="M11.1416504,11.7899971 C10.3579102,10.8156784 8.80288086,10.2099415 7.08330078,10.2099415 C5.3637207,10.2099415 3.80874023,10.8156784 3.02539063,11.7899971 C2.90625,11.9380263 2.89912109,12.1488363 3.00791016,12.3045205 C3.94624023,13.6487135 5.46958008,14.4516901 7.08334961,14.4516901 C8.69711914,14.4516901 10.2204102,13.6487135 11.1591797,12.3045205 C11.2674805,12.1488363 11.2604004,11.9380263 11.1416504,11.7899971 Z M7.08334961,13.6033304 C5.85253906,13.6033304 4.68461914,13.0425789 3.89541016,12.087348 C4.58081055,11.4544708 5.78666992,11.0583012 7.08334961,11.0583012 C8.3800293,11.0583012 9.58583984,11.4544708 10.2712891,12.087348 C9.48208008,13.0425789 8.31416016,13.6033304 7.08334961,13.6033304 Z" id="Shape"></path>
                        <path d="M22.5,8.9374269 L14.1666504,8.9374269 C13.9366699,8.9374269 13.75,9.1270117 13.75,9.36158187 L13.75,12.7549708 C13.75,12.9895409 13.9366699,13.1791257 14.1666504,13.1791257 L22.5,13.1791257 C22.7299805,13.1791257 22.9166504,12.9895409 22.9166504,12.7549708 L22.9166504,9.36158187 C22.9166504,9.1270117 22.7299805,8.9374269 22.5,8.9374269 Z M22.0833496,12.3308158 L14.5833496,12.3308158 L14.5833496,9.78578655 L22.0833496,9.78578655 L22.0833496,12.3308158 L22.0833496,12.3308158 Z" id="Shape"></path>
                        <path d="M17.9166504,5.11988304 L14.1666504,5.11988304 C13.9366699,5.11988304 13.75,5.30946784 13.75,5.54403801 C13.75,5.77860819 13.9366699,5.96819298 14.1666504,5.96819298 L17.9166504,5.96819298 C18.1466309,5.96819298 18.3333008,5.77860819 18.3333008,5.54403801 C18.3333008,5.30946784 18.1466797,5.11988304 17.9166504,5.11988304 Z" id="Path"></path>
                        <path d="M22.5,5.11988304 L19.5833496,5.11988304 C19.3533691,5.11988304 19.1666992,5.30946784 19.1666992,5.54403801 C19.1666992,5.77860819 19.3533691,5.96819298 19.5833496,5.96819298 L22.5,5.96819298 C22.7299805,5.96819298 22.9166504,5.77860819 22.9166504,5.54403801 C22.9166504,5.30946784 22.7299805,5.11988304 22.5,5.11988304 Z" id="Path"></path>
                        <path d="M22.5,6.81655263 L17.5,6.81655263 C17.2700195,6.81655263 17.0833496,7.00613743 17.0833496,7.2407076 C17.0833496,7.47527778 17.2700195,7.66486257 17.5,7.66486257 L22.5,7.66486257 C22.7299805,7.66486257 22.9166504,7.47527778 22.9166504,7.2407076 C22.9166504,7.00618713 22.7299805,6.81655263 22.5,6.81655263 Z" id="Path"></path>
                        <path d="M15.8333496,6.81655263 L14.1666992,6.81655263 C13.9367188,6.81655263 13.7500488,7.00613743 13.7500488,7.2407076 C13.7500488,7.47527778 13.9367188,7.66486257 14.1666992,7.66486257 L15.8333496,7.66486257 C16.0633301,7.66486257 16.25,7.47527778 16.25,7.2407076 C16.25,7.00618713 16.0633301,6.81655263 15.8333496,6.81655263 Z" id="Path"></path>
                        <path d="M16.25,10.6340965 L15.8333496,10.6340965 C15.6033691,10.6340965 15.4166992,10.8236813 15.4166992,11.0582515 C15.4166992,11.2928216 15.6033691,11.4824064 15.8333496,11.4824064 L16.25,11.4824064 C16.4799805,11.4824064 16.6666504,11.2928216 16.6666504,11.0582515 C16.6666504,10.8236813 16.4799805,10.6340965 16.25,10.6340965 Z" id="Path"></path>
                        <path d="M20.8333496,10.6340965 L20.4166992,10.6340965 C20.1867188,10.6340965 20.0000488,10.8236813 20.0000488,11.0582515 C20.0000488,11.2928216 20.1867188,11.4824064 20.4166992,11.4824064 L20.8333496,11.4824064 C21.0633301,11.4824064 21.25,11.2928216 21.25,11.0582515 C21.25,10.8236813 21.0633301,10.6340965 20.8333496,10.6340965 Z" id="Path"></path>
                        <path d="M18.75,10.6340965 L17.9166504,10.6340965 C17.6866699,10.6340965 17.5,10.8236813 17.5,11.0582515 C17.5,11.2928216 17.6866699,11.4824064 17.9166504,11.4824064 L18.75,11.4824064 C18.9799805,11.4824064 19.1666504,11.2928216 19.1666504,11.0582515 C19.1666504,10.8236813 18.9799805,10.6340965 18.75,10.6340965 Z" id="Path"></path>
                        <path d="M23.1258301,0.0298245614 L15.4166504,0.0298245614 C15.1866699,0.0298245614 9.81333008,0.0298245614 9.58334961,0.0298245614 L1.87416992,0.0298245614 C0.840820313,0.0298245614 0,0.885789474 0,1.93775146 L0,15.0887427 C0,16.1407047 0.840820313,16.9966696 1.87416992,16.9966696 L23.1258301,16.9966696 C24.1591797,16.9966696 25,16.1407047 25,15.0887427 L25,1.93775146 C25,0.885789474 24.1591797,0.0298245614 23.1258301,0.0298245614 Z M24.1666504,15.0887427 C24.1666504,15.672807 23.6995605,16.1483099 23.1258301,16.1483099 L1.87416992,16.1483099 C1.30043945,16.1483099 0.833349609,15.672807 0.833349609,15.0887427 L0.833349609,1.93775146 C0.833349609,1.35368713 1.30043945,0.878184211 1.87416992,0.878184211 L9.16665039,0.878184211 L15.8333496,0.878184211 L23.1258301,0.878184211 C23.6995605,0.878184211 24.1666504,1.35368713 24.1666504,1.93775146 L24.1666504,15.0887427 Z" id="Shape"></path>
                    </g>
                </g>
            </g>
        </g>
    </g>
</svg>