<?xml version="1.0" encoding="UTF-8"?>
<svg width="38px" height="38px" viewBox="0 0 38 38" version="1.1" xmlns="http://www.w3.org/2000/svg" xmlns:xlink="http://www.w3.org/1999/xlink">
    <!-- Generator: sketchtool 58 (101010) - https://sketch.com -->
    <title>8961B6BA-EA5F-4A7B-9705-EED4C69A70E1</title>
    <desc>Created with sketchtool.</desc>
    <g id="Page-1" stroke="none" stroke-width="1" fill="none" fill-rule="evenodd">
        <g id="18-FS-referral-user-referrals" transform="translate(-31.000000, -747.000000)">
            <g id="Group-8" transform="translate(15.000000, 737.000000)">
                <g id="Group-2" transform="translate(0.000000, 0.000000)">
                    <g id="icon/green-tick-ic" transform="translate(16.000000, 10.000000)">
                        <circle id="Oval" fill="#5DBE7D" cx="19" cy="19" r="19"></circle>
                        <path d="M9,20.24 C9,20.08 9.08461538,19.84 9.25384615,19.68 L10.4384615,18.56 C10.7769231,18.24 11.2846154,18.24 11.6230769,18.56 L11.7076923,18.64 L16.3615385,23.36 C16.5307692,23.52 16.7846154,23.52 16.9538462,23.36 L28.2923077,12.24 L28.3769231,12.24 C28.7153846,11.92 29.2230769,11.92 29.5615385,12.24 L30.7461538,13.36 C31.0846154,13.68 31.0846154,14.16 30.7461538,14.48 L17.2076923,27.76 C17.0384615,27.92 16.8692308,28 16.6153846,28 C16.3615385,28 16.1923077,27.92 16.0230769,27.76 L9.42307692,21.04 L9.25384615,20.8 C9.08461538,20.64 9,20.4 9,20.24 Z" id="Shape-Copy" fill="#FFFFFF" fill-rule="nonzero"></path>
                    </g>
                </g>
            </g>
        </g>
    </g>
</svg>