<?xml version="1.0" encoding="UTF-8"?>
<svg width="115px" height="66px" viewBox="0 0 115 66" version="1.1" xmlns="http://www.w3.org/2000/svg" xmlns:xlink="http://www.w3.org/1999/xlink">
    <!-- Generator: sketchtool 58 (101010) - https://sketch.com -->
    <title>0BBAFB90-961D-4912-8CBE-DA83ACD2F5A6</title>
    <desc>Created with sketchtool.</desc>
    <g id="Page-1" stroke="none" stroke-width="1" fill="none" fill-rule="evenodd">
        <g id="4-FS-Soccer-Multi-Games-info" transform="translate(-126.000000, -503.000000)">
            <g id="tshirt-ic" transform="translate(126.000000, 503.000000)">
                <g id="Group-4">
                    <g id="Group">
                        <path d="M3.5692482,8.26996964 L1.6250542,15.9762072 L0.30701464,17.5587636 L0.30701464,19.3749195 L6.93787493,22.7551703 C7.20973813,38.2331758 7.54972086,45.9752619 7.95782312,45.9814287 C19.9381164,46.1624606 16.3178351,46.251356 30.7623098,45.6723639 C32.4761024,45.6036683 32.4989529,22.784335 32.5141868,22.7168257 C32.5804564,22.4231504 34.8447324,21.3091817 39.3070146,19.3749195 L38.4710648,17.2628602 L37.9236172,15.9762072 L34.850031,7.74592998 C28.9213806,5.36100702 25.7672504,4.59945071 25.3876404,5.46126103 C21.8880722,13.4061625 15.0348111,10.6181706 13.4859397,5.86501239 C13.2727369,5.21073806 10.805058,5.32698086 9.74506064,5.59804035 C6.96176415,6.30977699 4.90316,7.20042009 3.5692482,8.26996964 Z" id="Path-23" fill="#FFFFFF"></path>
                        <path d="M79.2622336,8.26996964 L77.3180396,15.9762072 L76,17.5587636 L76,19.3749195 L82.6308603,22.7551703 C83.1848844,37.8217149 83.6659476,45.3580706 84.0740498,45.3642373 C96.0543431,45.5452692 92.0108205,46.251356 106.455295,45.6723639 C108.169088,45.6036683 108.191938,22.784335 108.207172,22.7168257 C108.273442,22.4231504 110.537718,21.3091817 115,19.3749195 L114.16405,17.2628602 L113.616603,15.9762072 L110.543016,7.74592998 C104.614366,5.36100702 101.460236,4.59945071 101.080626,5.46126103 C97.5810576,13.4061625 90.7277965,10.6181706 89.1789251,5.86501239 C88.9657222,5.21073806 86.4980433,5.32698086 85.438046,5.59804035 C82.6547495,6.30977699 80.5961454,7.20042009 79.2622336,8.26996964 Z" id="Path-23-Copy" fill="#FFFFFF"></path>
                        <g id="Group-17">
                            <g id="110539-copy" transform="translate(0.000000, 5.000000)" fill="#999999" fill-rule="nonzero">
                                <g id="110538">
                                    <path d="M38.2218014,11.3114838 C38.169291,11.2811102 38.1154296,11.2544557 38.0605774,11.2312549 L35.6070901,3.62562203 C35.3349908,2.77453996 34.6584804,2.09808423 33.7976882,1.81595464 L28.5820462,0.106794816 C28.3658799,0.0359524838 28.1407067,0 27.9127413,0 L25.9446374,0 C25.231739,0 24.6356605,0.523170626 24.5582009,1.21689417 C24.2751132,3.75411231 22.1004804,5.66738661 19.5,5.66738661 C16.8995196,5.66738661 14.7248868,3.75411231 14.441709,1.21689417 C14.3642494,0.523170626 13.7681709,0 13.0552725,0 L11.0871686,0 C10.8592933,0 10.6341201,0.0359524838 10.4177737,0.106794816 L5.20231178,1.8160432 C4.34142956,2.09817279 3.66500924,2.77462851 3.39327021,3.62420518 L0.939332564,11.2313434 C0.88448037,11.2544557 0.830618938,11.2811102 0.778108545,11.3115724 C0.34721709,11.5607603 0.0899792148,12.0030821 0.0899792148,12.4945508 L0.0899792148,13.70746 C0.0899792148,14.2055702 0.365140878,14.6653369 0.808101617,14.9072635 L6.57505774,18.0570907 L6.57505774,36.7937365 C6.57505774,37.3097343 6.86643187,37.7596717 7.29561201,37.9940713 L7.29561201,39.6274298 C7.29561201,40.3842916 7.92186374,41 8.69168591,41 L30.3083141,41 C31.0781363,41 31.704388,40.3842916 31.704388,39.6274298 L31.704388,37.9940713 C32.1335681,37.7596717 32.4249423,37.3097343 32.4249423,36.7937365 L32.4249423,18.0570907 L38.1918083,14.9071749 C38.6347691,14.6652484 38.9099307,14.2054816 38.9099307,13.7073715 L38.9099307,12.4944622 C38.9099307,12.0029935 38.6527829,11.5607603 38.2218014,11.3114838 Z M36.6894527,11.374622 L32.4249423,13.7039179 L32.4249423,10.8023045 C32.4249423,10.2685961 32.5244688,9.7457797 32.7209099,9.24837797 L34.5274296,4.67240605 L36.6894527,11.374622 Z M13.098776,1.36176674 C13.4572517,4.57358099 16.2092286,6.99568035 19.5,6.99568035 C22.7907714,6.99568035 25.5427483,4.57358099 25.901224,1.36176674 C25.9033857,1.34334773 25.9228406,1.32829374 25.9447275,1.32829374 L27.441679,1.32829374 C27.281806,3.20632397 26.4481247,4.94975378 25.0632194,6.27680778 C23.5662679,7.7111879 21.5906882,8.50107991 19.5,8.50107991 C17.3997644,8.50107991 15.4174296,7.7048121 13.9183164,6.25909719 C12.5434988,4.93310583 11.7180139,3.19746868 11.5589515,1.32829374 L13.0552725,1.32829374 C13.0771594,1.32829374 13.0966143,1.34334773 13.098776,1.36176674 Z M10.223224,1.57075162 C10.4357875,3.70744492 11.3962864,5.68739957 12.9723187,7.20741037 C14.7254273,8.89815119 17.0437206,9.82937365 19.5,9.82937365 C21.9450208,9.82937365 24.2555681,8.90550108 26.0061547,7.2280432 C27.5936259,5.70679266 28.5631316,3.71780562 28.7769561,1.57075162 L33.3704896,3.07623974 C33.4714573,3.10935853 33.5666605,3.15416631 33.6566397,3.20676674 L31.4613811,8.76762419 C31.2043233,9.41884233 31.073903,10.1034449 31.073903,10.802216 L31.073903,14.8326134 L31.073903,17.6663067 L31.073903,32.587473 L7.926097,32.587473 L7.926097,17.6663067 L7.926097,14.8326134 L7.926097,10.802216 C7.926097,10.1034449 7.79576674,9.41884233 7.53861894,8.76762419 L5.34327021,3.20667819 C5.43324942,3.15416631 5.52845266,3.10926998 5.62942032,3.07623974 L10.223224,1.57075162 Z M31.073903,36.7937365 C31.073903,36.8181771 31.0536374,36.838013 31.0288684,36.838013 L7.97113164,36.838013 C7.94636259,36.838013 7.926097,36.8181771 7.926097,36.7937365 L7.926097,33.9157667 L31.073903,33.9157667 L31.073903,36.7937365 Z M4.47257044,4.67214039 L6.27909007,9.24828942 C6.47553118,9.74569114 6.57505774,10.2685076 6.57505774,10.802216 L6.57505774,13.7038294 L2.31054734,11.374622 L4.47257044,4.67214039 Z M1.46434642,13.7460691 C1.4500254,13.7382765 1.44110855,13.7233996 1.44110855,13.7073715 L1.44110855,12.4944622 C1.44110855,12.4843672 1.44110855,12.4691361 1.46326559,12.4562959 C1.47245266,12.4509827 1.48019861,12.4491231 1.4866836,12.4491231 C1.49596074,12.4491231 1.50271594,12.4528423 1.50793995,12.4557646 L6.57505774,15.2233974 L6.57505774,16.5375227 L1.46434642,13.7460691 Z M30.3083141,39.6717063 L8.69168591,39.6717063 C8.66691686,39.6717063 8.64665127,39.6518704 8.64665127,39.6274298 L8.64665127,38.1663067 L30.3533487,38.1663067 L30.3533487,39.6274298 C30.3533487,39.6518704 30.3330831,39.6717063 30.3083141,39.6717063 Z M37.5588915,13.7073715 C37.5588915,13.7233996 37.5499746,13.7382765 37.5356536,13.7460691 L32.4249423,16.5375227 L32.4249423,15.2233974 L37.49206,12.4557646 C37.501067,12.4508056 37.5145774,12.4435443 37.5367344,12.4562959 C37.5588915,12.4691361 37.5588915,12.4843672 37.5588915,12.4944622 L37.5588915,13.7073715 Z" id="Shape"></path>
                                </g>
                            </g>
                            <g id="110539-copy-2" transform="translate(76.000000, 5.000000)" fill="#999999" fill-rule="nonzero">
                                <g id="110538">
                                    <path d="M38.2218014,11.3114838 C38.169291,11.2811102 38.1154296,11.2544557 38.0605774,11.2312549 L35.6070901,3.62562203 C35.3349908,2.77453996 34.6584804,2.09808423 33.7976882,1.81595464 L28.5820462,0.106794816 C28.3658799,0.0359524838 28.1407067,0 27.9127413,0 L25.9446374,0 C25.231739,0 24.6356605,0.523170626 24.5582009,1.21689417 C24.2751132,3.75411231 22.1004804,5.66738661 19.5,5.66738661 C16.8995196,5.66738661 14.7248868,3.75411231 14.441709,1.21689417 C14.3642494,0.523170626 13.7681709,0 13.0552725,0 L11.0871686,0 C10.8592933,0 10.6341201,0.0359524838 10.4177737,0.106794816 L5.20231178,1.8160432 C4.34142956,2.09817279 3.66500924,2.77462851 3.39327021,3.62420518 L0.939332564,11.2313434 C0.88448037,11.2544557 0.830618938,11.2811102 0.778108545,11.3115724 C0.34721709,11.5607603 0.0899792148,12.0030821 0.0899792148,12.4945508 L0.0899792148,13.70746 C0.0899792148,14.2055702 0.365140878,14.6653369 0.808101617,14.9072635 L6.57505774,18.0570907 L6.57505774,36.7937365 C6.57505774,37.3097343 6.86643187,37.7596717 7.29561201,37.9940713 L7.29561201,39.6274298 C7.29561201,40.3842916 7.92186374,41 8.69168591,41 L30.3083141,41 C31.0781363,41 31.704388,40.3842916 31.704388,39.6274298 L31.704388,37.9940713 C32.1335681,37.7596717 32.4249423,37.3097343 32.4249423,36.7937365 L32.4249423,18.0570907 L38.1918083,14.9071749 C38.6347691,14.6652484 38.9099307,14.2054816 38.9099307,13.7073715 L38.9099307,12.4944622 C38.9099307,12.0029935 38.6527829,11.5607603 38.2218014,11.3114838 Z M36.6894527,11.374622 L32.4249423,13.7039179 L32.4249423,10.8023045 C32.4249423,10.2685961 32.5244688,9.7457797 32.7209099,9.24837797 L34.5274296,4.67240605 L36.6894527,11.374622 Z M13.098776,1.36176674 C13.4572517,4.57358099 16.2092286,6.99568035 19.5,6.99568035 C22.7907714,6.99568035 25.5427483,4.57358099 25.901224,1.36176674 C25.9033857,1.34334773 25.9228406,1.32829374 25.9447275,1.32829374 L27.441679,1.32829374 C27.281806,3.20632397 26.4481247,4.94975378 25.0632194,6.27680778 C23.5662679,7.7111879 21.5906882,8.50107991 19.5,8.50107991 C17.3997644,8.50107991 15.4174296,7.7048121 13.9183164,6.25909719 C12.5434988,4.93310583 11.7180139,3.19746868 11.5589515,1.32829374 L13.0552725,1.32829374 C13.0771594,1.32829374 13.0966143,1.34334773 13.098776,1.36176674 Z M10.223224,1.57075162 C10.4357875,3.70744492 11.3962864,5.68739957 12.9723187,7.20741037 C14.7254273,8.89815119 17.0437206,9.82937365 19.5,9.82937365 C21.9450208,9.82937365 24.2555681,8.90550108 26.0061547,7.2280432 C27.5936259,5.70679266 28.5631316,3.71780562 28.7769561,1.57075162 L33.3704896,3.07623974 C33.4714573,3.10935853 33.5666605,3.15416631 33.6566397,3.20676674 L31.4613811,8.76762419 C31.2043233,9.41884233 31.073903,10.1034449 31.073903,10.802216 L31.073903,14.8326134 L31.073903,17.6663067 L31.073903,32.587473 L7.926097,32.587473 L7.926097,17.6663067 L7.926097,14.8326134 L7.926097,10.802216 C7.926097,10.1034449 7.79576674,9.41884233 7.53861894,8.76762419 L5.34327021,3.20667819 C5.43324942,3.15416631 5.52845266,3.10926998 5.62942032,3.07623974 L10.223224,1.57075162 Z M31.073903,36.7937365 C31.073903,36.8181771 31.0536374,36.838013 31.0288684,36.838013 L7.97113164,36.838013 C7.94636259,36.838013 7.926097,36.8181771 7.926097,36.7937365 L7.926097,33.9157667 L31.073903,33.9157667 L31.073903,36.7937365 Z M4.47257044,4.67214039 L6.27909007,9.24828942 C6.47553118,9.74569114 6.57505774,10.2685076 6.57505774,10.802216 L6.57505774,13.7038294 L2.31054734,11.374622 L4.47257044,4.67214039 Z M1.46434642,13.7460691 C1.4500254,13.7382765 1.44110855,13.7233996 1.44110855,13.7073715 L1.44110855,12.4944622 C1.44110855,12.4843672 1.44110855,12.4691361 1.46326559,12.4562959 C1.47245266,12.4509827 1.48019861,12.4491231 1.4866836,12.4491231 C1.49596074,12.4491231 1.50271594,12.4528423 1.50793995,12.4557646 L6.57505774,15.2233974 L6.57505774,16.5375227 L1.46434642,13.7460691 Z M30.3083141,39.6717063 L8.69168591,39.6717063 C8.66691686,39.6717063 8.64665127,39.6518704 8.64665127,39.6274298 L8.64665127,38.1663067 L30.3533487,38.1663067 L30.3533487,39.6274298 C30.3533487,39.6518704 30.3330831,39.6717063 30.3083141,39.6717063 Z M37.5588915,13.7073715 C37.5588915,13.7233996 37.5499746,13.7382765 37.5356536,13.7460691 L32.4249423,16.5375227 L32.4249423,15.2233974 L37.49206,12.4557646 C37.501067,12.4508056 37.5145774,12.4435443 37.5367344,12.4562959 C37.5588915,12.4691361 37.5588915,12.4843672 37.5588915,12.4944622 L37.5588915,13.7073715 Z" id="Shape"></path>
                                </g>
                            </g>
                            <path d="M33.3718245,6.02881097 L30.3533487,18.0354011 L28.3070146,20.5010799 L28.3070146,23.3307149 L38.601816,28.5972649 C39.0238996,52.7125439 39.5517429,64.7749873 40.1853457,64.7845954 C58.7854571,65.0666494 53.164757,65.2051517 75.5906551,64.3030615 C78.2514192,64.1960313 78.2868958,28.6427045 78.3105473,28.5375227 C78.4134349,28.0799663 81.9288567,26.3443637 88.8568129,23.3307149 L87.5589515,20.0400518 L86.7090069,18.0354011 L81.9370831,5.21233868 C72.732504,1.49654452 67.835531,0.310012896 67.2461641,1.6527438 C61.8128783,14.0311808 51.1727866,9.68739089 48.7680724,2.28180267 C48.4370625,1.26242017 44.6058455,1.44353056 42.9601372,1.86585081 C38.6389054,2.97476163 35.4428012,4.36241501 33.3718245,6.02881097 Z" id="Path-23" fill="#FFFFFF"></path>
                            <path d="M87.7628637,18.20873 C87.6793857,18.1598359 87.5937598,18.1169287 87.5065589,18.079581 L83.6061432,5.83636717 C83.1735751,4.46633261 82.098097,3.37740389 80.7296582,2.92324406 L72.4381247,0.171913607 C72.0944758,0.05787473 71.7365081,0 71.3741016,0 L68.245321,0 C67.1119954,0 66.1643834,0.842177106 66.0412425,1.95890281 C65.5912055,6.04320518 62.134097,9.12311015 58,9.12311015 C53.865903,9.12311015 50.4087945,6.04320518 49.9586143,1.95890281 C49.8354734,0.842177106 48.8878614,0 47.7545358,0 L44.6257552,0 C44.2634919,0 43.9055242,0.05787473 43.5615889,0.171913607 L35.2703418,2.92338661 C33.9017598,3.37754644 32.8264249,4.46647516 32.3944296,5.83408639 L28.4932979,18.0797235 C28.406097,18.1169287 28.3204711,18.1598359 28.2369931,18.2088726 C27.5519861,18.6100043 27.1430439,19.3220346 27.1430439,20.1131793 L27.1430439,22.0656674 C27.1430439,22.8675032 27.5804804,23.6076156 28.2846744,23.9970583 L37.4526559,29.0675119 L37.4526559,59.2289417 C37.4526559,60.0595724 37.9158661,60.7838618 38.5981524,61.1611879 L38.5981524,63.7904968 C38.5981524,65.0088596 39.5937321,66 40.817552,66 L75.182448,66 C76.4062679,66 77.4018476,65.0088596 77.4018476,63.7904968 L77.4018476,61.1611879 C78.0841339,60.7838618 78.5473441,60.0595724 78.5473441,59.2289417 L78.5473441,29.0675119 L87.7151824,23.9969158 C88.4193764,23.607473 88.8568129,22.8673607 88.8568129,22.0655248 L88.8568129,20.1130367 C88.8568129,19.321892 88.4480139,18.6100043 87.7628637,18.20873 Z M85.3268222,18.3103672 L78.5473441,22.0599654 L78.5473441,17.3890756 C78.5473441,16.5299352 78.7055658,15.6883283 79.0178568,14.8876328 L81.8897598,7.52143413 L85.3268222,18.3103672 Z M47.8236952,2.19211231 C48.3935797,7.36234989 52.7685173,11.2613391 58,11.2613391 C63.2314827,11.2613391 67.6064203,7.36234989 68.1763048,2.19211231 C68.1797413,2.1624622 68.2106697,2.13822894 68.2454642,2.13822894 L70.6252333,2.13822894 C70.3710762,5.16139957 69.0457367,7.96789633 66.8440924,10.1041296 C64.4643233,12.4131317 61.3236582,13.6846652 58,13.6846652 C54.661164,13.6846652 51.5097598,12.4028683 49.1265543,10.0756199 C46.9409469,7.94109719 45.6286374,5.14714471 45.3757691,2.13822894 L47.7545358,2.13822894 C47.7893303,2.13822894 47.8202587,2.1624622 47.8236952,2.19211231 Z M43.2523048,2.528527 C43.5902263,5.96808207 45.1171732,9.15532613 47.6226605,11.6021728 C50.4096536,14.3238531 54.0951455,15.8228942 58,15.8228942 C61.8869561,15.8228942 65.5601339,14.3356847 68.3431178,11.6353866 C70.8667898,9.18654428 72.4080554,5.98476026 72.7479815,2.528527 L80.0505219,4.95199568 C80.2110346,5.00530886 80.3623834,5.07743844 80.5054273,5.16211231 L77.0155289,14.1137365 C76.606873,15.1620389 76.3995381,16.2640821 76.3995381,17.388933 L76.3995381,23.8768898 L76.3995381,28.4384449 L76.3995381,52.4578834 L39.6004619,52.4578834 L39.6004619,28.4384449 L39.6004619,23.8768898 L39.6004619,17.388933 C39.6004619,16.2640821 39.3932702,15.1620389 38.9844711,14.1137365 L35.4944296,5.16196976 C35.6374734,5.07743844 35.7888222,5.00516631 35.9493349,4.95199568 L43.2523048,2.528527 Z M76.3995381,59.2289417 C76.3995381,59.2682851 76.367321,59.300216 76.3279446,59.300216 L39.6720554,59.300216 C39.632679,59.300216 39.6004619,59.2682851 39.6004619,59.2289417 L39.6004619,54.5961123 L76.3995381,54.5961123 L76.3995381,59.2289417 Z M34.1102402,7.52100648 L36.9821432,14.8874903 C37.2944342,15.6881857 37.4526559,16.5297927 37.4526559,17.388933 L37.4526559,22.0598229 L30.6731778,18.3103672 L34.1102402,7.52100648 Z M29.3279353,22.1278186 C29.3051686,22.1152743 29.2909931,22.0913261 29.2909931,22.0655248 L29.2909931,20.1130367 C29.2909931,20.0967862 29.2909931,20.0722678 29.3262171,20.0515983 C29.3408222,20.0430454 29.3531363,20.0400518 29.3634457,20.0400518 C29.378194,20.0400518 29.388933,20.0460389 29.3972379,20.050743 L37.4526559,24.5059568 L37.4526559,26.621378 L29.3279353,22.1278186 Z M75.182448,63.8617711 L40.817552,63.8617711 C40.7781755,63.8617711 40.7459584,63.8298402 40.7459584,63.7904968 L40.7459584,61.4384449 L75.2540416,61.4384449 L75.2540416,63.7904968 C75.2540416,63.8298402 75.2218245,63.8617711 75.182448,63.8617711 Z M86.7090069,22.0655248 C86.7090069,22.0913261 86.6948314,22.1152743 86.6720647,22.1278186 L78.5473441,26.621378 L78.5473441,24.5059568 L86.6027621,20.050743 C86.6170808,20.0427603 86.6385589,20.0310713 86.6737829,20.0515983 C86.7090069,20.0722678 86.7090069,20.0967862 86.7090069,20.1130367 L86.7090069,22.0655248 Z" id="Shape" fill="#555555" fill-rule="nonzero"></path>
                        </g>
                    </g>
                    <path d="M53.5273438,38.9433594 L56.3886719,38.9433594 L56.3886719,42 L47.3945312,42 L47.3945312,38.9433594 L50.2558594,38.9433594 L50.2558594,28.5332031 L47.3945312,28.5332031 L47.3945312,25.4765625 L51.1054688,25.4765625 C51.7695346,25.4765625 52.3359352,25.6946593 52.8046875,26.1308594 C53.2864607,26.5735699 53.5273438,27.1074188 53.5273438,27.7324219 L53.5273438,38.9433594 Z M63.2636719,28.5332031 L63.2636719,38.9433594 L65.6953125,38.9433594 L65.6953125,28.5332031 L63.2636719,28.5332031 Z M66.5449219,25.4765625 C67.2089877,25.4765625 67.7786435,25.6946593 68.2539062,26.1308594 C68.7356795,26.5735699 68.9765625,27.1074188 68.9765625,27.7324219 L68.9765625,39.7441406 C68.9765625,40.3691437 68.7356795,40.9029926 68.2539062,41.3457031 C67.7786435,41.7819032 67.2089877,42 66.5449219,42 L62.4042969,42 C61.7467415,42 61.1803409,41.7819032 60.7050781,41.3457031 C60.2233049,40.9029926 59.9824219,40.3691437 59.9824219,39.7441406 L59.9824219,27.7324219 C59.9824219,27.1074188 60.2233049,26.5735699 60.7050781,26.1308594 C61.1803409,25.6946593 61.7467415,25.4765625 62.4042969,25.4765625 L66.5449219,25.4765625 Z" id="10" fill="#555555" fill-rule="nonzero"></path>
                    <path d="M14.7841797,21.5732422 L14.7841797,28.8603516 L16.4863281,28.8603516 L16.4863281,21.5732422 L14.7841797,21.5732422 Z M17.0810547,19.4335938 C17.5459008,19.4335938 17.9446598,19.5862615 18.2773438,19.8916016 C18.614585,20.2014989 18.7832031,20.5751931 18.7832031,21.0126953 L18.7832031,29.4208984 C18.7832031,29.8584006 18.614585,30.2320948 18.2773438,30.5419922 C17.9446598,30.8473323 17.5459008,31 17.0810547,31 L14.1826172,31 C13.7223284,31 13.325848,30.8473323 12.9931641,30.5419922 C12.6559228,30.2320948 12.4873047,29.8584006 12.4873047,29.4208984 L12.4873047,21.0126953 C12.4873047,20.5751931 12.6559228,20.2014989 12.9931641,19.8916016 C13.325848,19.5862615 13.7223284,19.4335938 14.1826172,19.4335938 L17.0810547,19.4335938 Z M25.3046875,21.5732422 L23.6025391,21.5732422 L23.6025391,23.3984375 C23.6025391,23.6855483 23.6686191,23.8837885 23.8007812,23.9931641 C23.9283861,24.093425 24.1471339,24.1435547 24.4570312,24.1435547 C24.7623713,24.1435547 24.9765619,24.093425 25.0996094,23.9931641 C25.2363288,23.8837885 25.3046875,23.6855483 25.3046875,23.3984375 L25.3046875,21.5732422 Z M23.6025391,28.8603516 L25.3046875,28.8603516 L25.3046875,27.0351562 C25.3046875,26.7480454 25.2363288,26.5498052 25.0996094,26.4404297 C24.9765619,26.3401688 24.7623713,26.2900391 24.4570312,26.2900391 C24.1471339,26.2900391 23.9283861,26.3401688 23.8007812,26.4404297 C23.6686191,26.5498052 23.6025391,26.7480454 23.6025391,27.0351562 L23.6025391,28.8603516 Z M21.9619141,25.2167969 C21.5244119,24.7565081 21.3056641,24.1503944 21.3056641,23.3984375 L21.3056641,21.0126953 C21.3056641,20.5751931 21.4742822,20.2014989 21.8115234,19.8916016 C22.1442074,19.5862615 22.5406878,19.4335938 23.0009766,19.4335938 L25.8994141,19.4335938 C26.3642601,19.4335938 26.7630192,19.5862615 27.0957031,19.8916016 C27.4329444,20.2014989 27.6015625,20.5751931 27.6015625,21.0126953 L27.6015625,23.3984375 C27.6015625,24.1503944 27.3805361,24.7565081 26.9384766,25.2167969 C27.3805361,25.6770856 27.6015625,26.2831994 27.6015625,27.0351562 L27.6015625,29.4208984 C27.6015625,29.8584006 27.4329444,30.2320948 27.0957031,30.5419922 C26.7630192,30.8473323 26.3642601,31 25.8994141,31 L23.0009766,31 C22.5406878,31 22.1442074,30.8473323 21.8115234,30.5419922 C21.4742822,30.2320948 21.3056641,29.8584006 21.3056641,29.4208984 L21.3056641,27.0351562 C21.3056641,26.2831994 21.5244119,25.6770856 21.9619141,25.2167969 Z" id="08" fill="#999999" fill-rule="nonzero"></path>
                    <path d="M90.7841797,21.5732422 L90.7841797,28.8603516 L92.4863281,28.8603516 L92.4863281,21.5732422 L90.7841797,21.5732422 Z M93.0810547,19.4335938 C93.5459008,19.4335938 93.9446598,19.5862615 94.2773438,19.8916016 C94.614585,20.2014989 94.7832031,20.5751931 94.7832031,21.0126953 L94.7832031,29.4208984 C94.7832031,29.8584006 94.614585,30.2320948 94.2773438,30.5419922 C93.9446598,30.8473323 93.5459008,31 93.0810547,31 L90.1826172,31 C89.7223284,31 89.325848,30.8473323 88.9931641,30.5419922 C88.6559228,30.2320948 88.4873047,29.8584006 88.4873047,29.4208984 L88.4873047,21.0126953 C88.4873047,20.5751931 88.6559228,20.2014989 88.9931641,19.8916016 C89.325848,19.5862615 89.7223284,19.4335938 90.1826172,19.4335938 L93.0810547,19.4335938 Z M99.7324219,21.5732422 L99.7324219,23.7197266 C100.488936,23.3277975 101.152015,23.1318359 101.72168,23.1318359 C102.099937,23.1318359 102.437173,23.2184236 102.733398,23.3916016 C103.398766,23.7835306 103.731445,24.5240831 103.731445,25.6132812 L103.731445,29.4208984 C103.731445,29.8584006 103.562827,30.2320948 103.225586,30.5419922 C102.892902,30.8473323 102.494143,31 102.029297,31 L99.1308594,31 C98.6705706,31 98.2740902,30.8473323 97.9414062,30.5419922 C97.604165,30.2320948 97.4355469,29.8584006 97.4355469,29.4208984 L97.4355469,27.3974609 L99.7324219,27.3974609 L99.7324219,28.8603516 L101.43457,28.8603516 L101.43457,25.6132812 C101.43457,25.3261704 101.384441,25.1302089 101.28418,25.0253906 C101.188476,24.9251297 100.990236,24.875 100.689453,24.875 C100.379556,24.875 100.147136,24.9228511 99.9921875,25.0185547 C99.8190096,25.1370449 99.7324219,25.3352851 99.7324219,25.6132812 L99.7324219,26.0644531 L97.4355469,26.0644531 L97.4355469,19.4335938 L103.731445,19.4335938 L103.731445,21.5732422 L99.7324219,21.5732422 Z" id="05" fill="#999999" fill-rule="nonzero"></path>
                </g>
            </g>
        </g>
    </g>
</svg>