<?xml version="1.0" encoding="UTF-8"?>
<svg width="32px" height="30px" viewBox="0 0 32 30" version="1.1" xmlns="http://www.w3.org/2000/svg" xmlns:xlink="http://www.w3.org/1999/xlink">
    <title>Combined Shape Copy</title>
    <g id="harshit" stroke="none" stroke-width="1" fill="none" fill-rule="evenodd">
        <path d="M22,6 C24.209139,6 26,7.790861 26,10 L26,20.0720228 L26.9433451,20.0723666 C27.456181,20.0723666 27.8788523,19.6863264 27.9366174,19.1889877 L27.9433451,19.0723666 L27.9433451,5.0180228 C27.9433451,4.50518696 27.5573049,4.08251564 27.0599663,4.02475053 L26.9433451,4.0180228 L11.0105148,4.0180228 C10.497679,4.0180228 10.0750076,4.40406299 10.0172425,4.90140167 L10.0105148,5.0180228 L10.0105148,6 L22,6 Z M8,12 L5,12 L5,24 L8,24 L8,12 Z M15.6610169,12 L11,12 L11,24 L15.6610169,24 C16.9943503,24 18.1355932,23.761236 19.0847458,23.2837079 C20.0338983,22.8061798 20.7570621,22.1179775 21.2542373,21.2191011 C21.7514124,20.3202247 22,19.241573 22,17.9831461 C22,16.7359551 21.7485876,15.6629213 21.2457627,14.7640449 C20.7429379,13.8651685 20.0169492,13.1797753 19.0677966,12.7078652 C18.2049307,12.278856 17.1879815,12.044851 16.0169492,12.0058501 L15.6610169,12 Z M14.9406528,14 C17.6468843,14 19,15.3275362 19,17.9826087 C19,20.6608696 17.6468843,22 14.9406528,22 L13,22 L13,14 L14.9406528,14 Z M6.0105148,5.0180228 C6.0105148,2.32926809 8.13282151,0.136204683 10.7936252,0.0226423115 L11.0105148,0.0180227977 L26.9433451,0.0180227977 C29.6320998,0.0180227977 31.8251633,2.14032951 31.9387256,4.80113318 L31.9433451,5.0180228 L31.9433451,19.0723666 C31.9433451,21.7611213 29.8210384,23.9541847 27.1602348,24.0677471 L26.9433451,24.0723666 L26,24.0720228 L26,26 C26,28.209139 24.209139,30 22,30 L4,30 C1.790861,30 2.705415e-16,28.209139 0,26 L0,10 C-2.705415e-16,7.790861 1.790861,6 4,6 L6.0105148,6 L6.0105148,5.0180228 Z" id="Combined-Shape-Copy" fill="#20A8D8"></path>
    </g>
</svg>