<?xml version="1.0" encoding="UTF-8"?>
<svg width="57px" height="50px" viewBox="0 0 57 50" version="1.1" xmlns="http://www.w3.org/2000/svg" xmlns:xlink="http://www.w3.org/1999/xlink">
    <!-- Generator: sketchtool 58 (101010) - https://sketch.com -->
    <title>7F4A8D56-56FF-42CC-BC09-931B54F0787D</title>
    <desc>Created with sketchtool.</desc>
    <g id="coins-final" stroke="none" stroke-width="1" fill="none" fill-rule="evenodd">
        <g id="07" transform="translate(-890.000000, -399.000000)" fill-rule="nonzero">
            <g id="564619-copy" transform="translate(890.000000, 399.000000)">
                <path d="M55.2256089,37.3727974 L35.3045737,4.03502203 C33.7830979,1.52147577 31.137393,0 28.1937807,0 C25.2501684,0 22.6043534,1.52147577 21.0828776,4.03502203 L1.16184238,37.3727974 C-0.359302998,39.9856828 -0.392452778,43.0946035 1.09587321,45.7073789 C2.58408907,48.3200441 5.26283357,49.8745595 8.27263533,49.8745595 L48.1147058,49.8745595 C51.1245076,49.8745595 53.8033622,48.3200441 55.2914679,45.7073789 C56.7800142,43.0946035 56.7468644,39.9856828 55.2256089,37.3727974 Z" id="Path" fill="#C72B50"></path>
                <path d="M7.96806086,46.2601322 C6.13678332,46.2601322 4.57037363,45.3493392 3.66596835,43.7635463 C2.76167319,42.1761013 2.77775249,40.3398678 3.71762033,38.728304 L23.6201534,5.41751101 C24.5309463,3.91244493 26.1329287,3 27.889867,3 C29.6468054,3 31.2488979,3.9123348 32.1725763,5.44019824 L52.0784133,38.7540749 C53.0022018,40.339978 53.0182811,42.1761013 52.1138758,43.7634361 C51.2095807,45.3493392 49.6430609,46.2601322 47.8117833,46.2601322 L7.96806086,46.2601322 L7.96806086,46.2601322 Z" id="Path" fill="#F8436E"></path>
                <path d="M31.6146476,13.3073789 L31.6146476,26.536674 C31.6146476,28.3557269 30.1263216,29.8439427 28.3073789,29.8439427 C26.4884361,29.8439427 25,28.3556167 25,26.536674 L25,13.3073789 C25,11.488326 26.488326,10 28.3073789,10 C30.1264317,10 31.6146476,11.488326 31.6146476,13.3073789 Z" id="Path" fill="#FFFFFF"></path>
                <path d="M29.3072687,13.3073789 L29.3072687,26.536674 C29.3072687,28.3557269 27.8189427,29.8439427 26,29.8439427 L26,10 C27.8189427,10 29.3072687,11.488326 29.3072687,13.3073789 Z" id="Path" fill="#2A2E49" opacity="0.100000001"></path>
                <path d="M27.9610132,33 C25.215859,33 23,35.2157489 23,37.9610132 C23,40.7059471 25.2157489,42.9220264 27.9610132,42.9220264 C30.7062775,42.9220264 32.9220264,40.7060573 32.9220264,37.9610132 C32.9220264,35.215859 30.7060573,33 27.9610132,33 Z" id="Path" fill="#FFFFFF"></path>
                <path d="M30.9610132,37.9609031 C30.9610132,40.705837 28.7452643,42.9219163 26,42.9219163 L26,33 C28.7450441,33 30.9610132,35.215859 30.9610132,37.9609031 Z" id="Path" fill="#2A2E49" opacity="0.100000001"></path>
            </g>
        </g>
    </g>
</svg>