<?xml version="1.0" encoding="UTF-8"?>
<svg width="13px" height="13px" viewBox="0 0 13 13" version="1.1" xmlns="http://www.w3.org/2000/svg" xmlns:xlink="http://www.w3.org/1999/xlink">
    <title>H2H Copy</title>
    <g id="Page-1" stroke="none" stroke-width="1" fill="none" fill-rule="evenodd">
        <g id="H2H-Copy" transform="translate(0.698730, 0.000000)" fill="#212121">
            <path d="M3.38385638,1.2958631 L3.4211541,11.7290492 L2.10875284,10.980748 L2.108,7.1498631 L1.282,7.1498631 L1.30018891,10.500261 L0,9.75 L0,3.25 L1.25673847,2.52687646 L1.274,5.8498631 L2.108,5.8498631 L2.10875284,2.03356268 L3.38385638,1.2958631 Z" id="Combined-Shape"></path>
            <path d="M11.3120215,1.2958631 L11.3493192,11.7290492 L10.036918,10.980748 L10.0361651,7.1498631 L9.21016512,7.1498631 L9.22835404,10.500261 L7.92816512,9.75 L7.92816512,3.25 L9.18490359,2.52687646 L9.20216512,5.8498631 L10.0361651,5.8498631 L10.036918,2.03356268 L11.3120215,1.2958631 Z" id="Combined-Shape-Copy-2" transform="translate(9.638742, 6.512456) scale(-1, 1) translate(-9.638742, -6.512456) "></path>
            <path d="M5.62816512,0 L6.0181541,0.224 L6.01816512,0.221888003 L7.31816512,0.962332755 L7.31816512,5.98 L5.3311541,7.434 L5.33116512,11.786 L7.31816512,10.7940477 L7.31816512,12.0793282 L5.7211541,13 L5.33116512,12.776 L5.3311541,12.778112 L4.0311541,12.0376672 L4.0311541,7.02 L6.0181541,5.602 L6.0181541,1.214 L4.0311541,2.20595226 L4.0311541,0.920671838 L5.62816512,0 Z" id="Combined-Shape"></path>
        </g>
    </g>
</svg>