<?xml version="1.0" encoding="UTF-8"?>
<svg width="20px" height="20px" viewBox="0 0 20 20" version="1.1" xmlns="http://www.w3.org/2000/svg" xmlns:xlink="http://www.w3.org/1999/xlink">
    <!-- Generator: sketchtool 58 (101010) - https://sketch.com -->
    <title>83379D8F-3F1B-4BB1-818C-EAE019E78C42</title>
    <desc>Created with sketchtool.</desc>
    <defs>
        <radialGradient cx="50%" cy="50%" fx="50%" fy="50%" r="38.0896961%" id="radialGradient-1">
            <stop stop-color="#FFFFFF" offset="0%"></stop>
            <stop stop-color="#FFEA94" offset="100%"></stop>
        </radialGradient>
    </defs>
    <g id="coins-final" stroke="none" stroke-width="1" fill="none" fill-rule="evenodd">
        <g id="06" transform="translate(-608.000000, -463.000000)" fill-rule="nonzero">
            <g id="icon/coin-ic-copy-12-Icon-/-Color-/-ic-coin" transform="translate(608.000000, 463.000000)">
                <g id="icon/coins-ic">
                    <g id="Group-25">
                        <g id="1490817-copy-11">
                            <g id="1490817-copy-10">
                                <g id="Group">
                                    <path d="M19.8760557,9.93802783 C19.8760557,15.4266586 15.4266586,19.8760557 9.93802783,19.8760557 C7.04464201,19.8760557 4.44006745,18.6396839 2.62404498,16.6662755 C2.14701964,16.1482811 1.72475487,15.5791769 1.36536333,14.9686981 C0.497712659,13.4930024 0,11.7735207 0,9.93802783 C0,4.44939703 4.44939703,0 9.93802783,0 C11.7739264,0 13.493408,0.497712659 14.9686981,1.36576897 C15.5791769,1.72475487 16.1478755,2.14701964 16.6658698,2.62445061 C18.6392782,4.43966182 19.8760557,7.04464201 19.8760557,9.93802783 Z" id="Path" fill="#F0CD00"></path>
                                    <path d="M19.8760567,9.93802813 C19.8760567,15.3029408 15.62542,19.6748619 10.3079664,19.8691605 C4.99051274,19.6748619 0.739876049,15.3029408 0.739876049,9.93802813 C0.739876049,4.57311548 4.99051274,0.201194366 10.3079664,0.00689577469 C15.62542,0.201194366 19.8760567,4.57311548 19.8760567,9.93802813 Z" id="Path" fill="#FFDE50"></path>
                                    <path d="M16.6658702,2.62445075 L2.6240451,16.6662759 C2.14701976,16.1482815 1.72475497,15.5791773 1.36536343,14.9686984 L14.9686984,1.36576908 C15.5791773,1.72475499 16.1478759,2.14701977 16.6658702,2.62445075 Z" id="Path" fill="#FFEA94"></path>
                                    <path d="M19.1905357,6.30476624 L6.30436069,19.1909409 C5.39209024,18.8323606 4.54553247,18.3427606 3.78821413,17.745262 L17.7452625,3.78821413 C18.3427611,4.54553244 18.8323611,5.39209019 19.1905357,6.30476624 Z" id="Path" fill="#FFEA94"></path>
                                    <path d="M17.6604849,9.93802836 C17.6604849,14.2028622 14.2028622,17.6604849 9.93802836,17.6604849 C8.45259735,17.6604849 7.06532971,17.2410595 5.88777476,16.5141637 C5.37464799,16.1977693 4.90167897,15.8225581 4.477386,15.3982651 C4.1654536,15.0867383 3.8798874,14.7480341 3.62474373,14.3866144 C3.27346485,13.8889017 2.97938034,13.3477862 2.75263104,12.7730031 C2.41676624,11.9232002 2.22774089,10.9991664 2.21638314,10.0329467 C2.21557187,10.0013072 2.21557187,9.9696678 2.21557187,9.93802836 C2.21557187,5.67319448 5.67278884,2.21557187 9.93802836,2.21557187 C9.9696678,2.21557187 10.0017129,2.21557187 10.0333523,2.21638314 C10.999572,2.22774089 11.9232002,2.41717188 12.7730031,2.75263104 C13.3477862,2.97978597 13.8889017,3.27346485 14.3866144,3.62474373 C14.7480341,3.88029303 15.0863327,4.1654536 15.3982651,4.477386 C15.8225581,4.90127333 16.1977693,5.37464799 16.5141637,5.88777476 C17.2410595,7.06532971 17.6604849,8.45259735 17.6604849,9.93802836 Z" id="Path" fill="#FAA300"></path>
                                    <path d="M15.3982651,4.47738601 L4.47738601,15.3982651 C4.16545361,15.0867384 3.87988741,14.7480341 3.62474374,14.3866144 C3.27346486,13.8889017 2.97938034,13.3477862 2.75263104,12.7730031 C2.41676624,11.9232003 2.22774089,10.9991664 2.21638314,10.0329467 C2.21557187,10.0013073 2.21557187,9.96966783 2.21557187,9.93802839 C2.21557187,5.67319449 5.67278886,2.21557187 9.93802839,2.21557187 C9.96966783,2.21557187 10.0017129,2.21557187 10.0333523,2.21638314 C10.9995721,2.22774089 11.9232003,2.41717188 12.7730031,2.75263104 C13.3477862,2.97978598 13.8889017,3.27346486 14.3866144,3.62474374 C14.7480341,3.88029304 15.0863327,4.16545361 15.3982651,4.47738601 Z" id="Path" fill="#FFBD00"></path>
                                    <path d="M17.6602823,9.93802836 C17.6602823,14.2028622 14.2026597,17.6604849 9.93782573,17.6604849 C9.79139192,17.6604849 9.64617501,17.6564285 9.50176937,17.6483158 C13.5637864,17.4223778 16.787764,14.0564284 16.787764,9.93802836 C16.787764,5.81962828 13.5637864,2.45367892 9.50176937,2.22774089 C9.64617501,2.21962821 9.79139192,2.21557187 9.93782573,2.21557187 C14.2026597,2.21557187 17.6602823,5.67319448 17.6602823,9.93802836 Z" id="Path" fill="#F68E00"></path>
                                </g>
                            </g>
                        </g>
                    </g>
                    <path d="M8.14427892,13.9632165 L7.10999144,14.4627454 C6.54563385,14.7353127 5.86717218,14.49877 5.59460489,13.9344124 C5.49755722,13.7334727 5.46190608,13.5083802 5.49211012,13.2872859 L5.64757795,12.1492571 C5.7301761,11.5446364 5.53221898,10.935387 5.11000853,10.4947885 L4.31531588,9.66548561 C3.88169289,9.21297758 3.89700225,8.49462645 4.34951028,8.06100347 C4.51062591,7.90661186 4.71368473,7.80314823 4.93329156,7.76355205 L6.06366344,7.55974052 C6.66421614,7.45145795 7.18247462,7.07492112 7.47103845,6.53722272 L8.01417886,5.5251564 C8.3105427,4.97292376 8.99846607,4.76550111 9.55069871,5.06186495 C9.74732132,5.1673854 9.90846971,5.32853379 10.0139902,5.5251564 L10.5571306,6.53722272 C10.8456944,7.07492112 11.3639529,7.45145795 11.9645056,7.55974052 L13.0948775,7.76355205 C13.7116634,7.87476154 14.121514,8.46491842 14.0103046,9.08170433 C13.9707084,9.30131116 13.8672447,9.50436998 13.7128531,9.66548561 L12.9181605,10.4947885 C12.49595,10.935387 12.2979929,11.5446364 12.3805911,12.1492571 L12.5360589,13.2872859 C12.6208897,13.9082497 12.186268,14.4804094 11.5653041,14.5652402 C11.3442097,14.5954443 11.1191173,14.5597931 10.9181776,14.4627454 L9.8838901,13.9632165 C9.33438587,13.6978229 8.69378315,13.6978229 8.14427892,13.9632165 Z" id="Star-Copy" fill="#F68E00"></path>
                    <path d="M9.27103948,13.9632165 L8.236752,14.4627454 C7.67239441,14.7353127 6.99393275,14.49877 6.72136545,13.9344124 C6.62431778,13.7334727 6.58866664,13.5083802 6.61887068,13.2872859 L6.77433852,12.1492571 C6.85693667,11.5446364 6.65897954,10.935387 6.2367691,10.4947885 L5.44207644,9.66548561 C5.00845346,9.21297758 5.02376281,8.49462645 5.47627084,8.06100347 C5.63738647,7.90661186 5.8404453,7.80314823 6.06005212,7.76355205 L7.19042401,7.55974052 C7.7909767,7.45145795 8.30923519,7.07492112 8.59779902,6.53722272 L9.14093942,5.5251564 C9.43730327,4.97292376 10.1252266,4.76550111 10.6774593,5.06186495 C10.8740819,5.1673854 11.0352303,5.32853379 11.1407507,5.5251564 L11.6838911,6.53722272 C11.972455,7.07492112 12.4907134,7.45145795 13.0912661,7.55974052 L14.221638,7.76355205 C14.8384239,7.87476154 15.2482746,8.46491842 15.1370651,9.08170433 C15.0974689,9.30131116 14.9940053,9.50436998 14.8396137,9.66548561 L14.044921,10.4947885 C13.6227106,10.935387 13.4247535,11.5446364 13.5073516,12.1492571 L13.6628195,13.2872859 C13.7476503,13.9082497 13.3130286,14.4804094 12.6920647,14.5652402 C12.4709703,14.5954443 12.2458778,14.5597931 12.0449381,14.4627454 L11.0106507,13.9632165 C10.4611464,13.6978229 9.82054371,13.6978229 9.27103948,13.9632165 Z" id="Star" fill="url(#radialGradient-1)"></path>
                </g>
            </g>
        </g>
    </g>
</svg>