<?xml version="1.0" standalone="no"?>
<!-- Generator: Adobe Fireworks 10, Export SVG Extension by Aaron Beall (http://fireworks.abeall.com) . Version: 0.6.1  -->
<!DOCTYPE svg PUBLIC "-//W3C//DTD SVG 1.1//EN" "http://www.w3.org/Graphics/SVG/1.1/DTD/svg11.dtd">
<svg id="Untitled-Page%201" viewBox="0 0 119 119" style="background-color:#ffffff00" version="1.1"
	xmlns="http://www.w3.org/2000/svg" xmlns:xlink="http://www.w3.org/1999/xlink" xml:space="preserve"
	x="0px" y="0px" width="119px" height="119px"
>
	<defs>
		<clipPath id="mask1">
			<path id="Ellipse2" d="M 118.5327 59.6848 C 118.5327 26.9976 92.1107 0.5 59.5164 0.5 C 26.9221 0.5 0.5 26.9976 0.5 59.6848 C 0.5 92.3721 26.9221 118.8695 59.5164 118.8695 C 92.1107 118.8695 118.5327 92.3721 118.5327 59.6848 Z" fill="#f4f4f5"/>
		</clipPath>
	</defs>
	<g id="Layer%201">
			<path id="Ellipse" d="M 118.5327 59.6848 C 118.5327 26.9976 92.1107 0.5 59.5164 0.5 C 26.9221 0.5 0.5 26.9976 0.5 59.6848 C 0.5 92.3721 26.9221 118.8695 59.5164 118.8695 C 92.1107 118.8695 118.5327 92.3721 118.5327 59.6848 Z" fill="#f4f4f5"/>
		<path clip-path="url(#mask1)" d="M 97.0923 51.8667 C 95.9364 51.8667 94 52.8109 94 53.9753 L 94 122 L 28 122 L 28 41 L 65.7227 41 C 66.8787 41 68 40.1705 68 39.0065 C 68 37.8404 67.0636 37 65.9076 37 L 26.0924 37 C 24.9362 37 24 37.9442 24 39.1103 L 24 123.8897 C 24 125.0556 24.9362 126 26.0924 126 L 95.9093 126 C 97.0636 126 98 125.0556 98 123.8897 L 98 53.9753 C 98 52.8109 98.2466 51.8667 97.0923 51.8667 ZM 78.632 36.3545 L 45.4506 69.8201 C 45.1865 70.0847 44.9979 70.4179 44.906 70.7802 L 42.0577 81.8416 C 41.8719 82.5667 42.0778 83.3359 42.6025 83.8644 C 43.001 84.2645 43.5334 84.4825 44.0818 84.4825 C 44.257 84.4825 44.4344 84.4602 44.6079 84.416 L 55.5752 81.5429 C 55.9359 81.4489 56.2648 81.2578 56.5288 80.9921 L 89.7048 47.5306 L 96.3871 40.791 C 97.2043 39.9668 97.2043 38.6311 96.3871 37.8069 L 88.2697 29.618 C 87.8765 29.2215 87.3452 29 86.7903 29 C 86.2352 29 85.7024 29.2215 85.3108 29.618 L 78.632 36.3545 ZM 53.973 77.6022 L 47.0013 79.4274 L 48.8115 72.3979 L 80.1097 40.8307 L 85.2699 46.037 L 53.973 77.6022 ZM 86.7903 34.0946 L 91.9504 39.2991 L 88.2289 43.0526 L 83.0669 37.8481 L 86.7903 34.0946 Z" fill="#a7a7a7"/>
	</g>
</svg>