<?xml version="1.0" standalone="no"?>
<!-- Generator: Adobe Fireworks 10, Export SVG Extension by Aaron Beall (http://fireworks.abeall.com) . Version: 0.6.1  -->
<!DOCTYPE svg PUBLIC "-//W3C//DTD SVG 1.1//EN" "http://www.w3.org/Graphics/SVG/1.1/DTD/svg11.dtd">
<svg id="Untitled-Page%201" viewBox="0 0 14 20" style="background-color:#ffffff00" version="1.1"
	xmlns="http://www.w3.org/2000/svg" xmlns:xlink="http://www.w3.org/1999/xlink" xml:space="preserve"
	x="0px" y="0px" width="14px" height="20px"
>
	<g id="Layer%201">
		<path id="Forma%201" d="M 13.8958 18.4688 L 10.4761 12.8218 C 10.4411 12.7506 10.4297 12.6776 10.4132 12.6003 C 10.3674 12.3865 10.3216 12.1727 10.2758 11.9588 C 10.123 11.2463 9.9702 10.5339 9.8173 9.8215 C 9.7556 9.5334 9.6938 9.2453 9.6321 8.9573 C 9.5975 8.7959 9.5695 8.6299 9.5191 8.4724 C 9.4619 8.2932 9.3766 8.1229 9.267 7.9688 C 9.7769 7.9741 10.5876 7.4818 10.8498 7.0691 C 10.8723 7.0337 10.8937 6.9974 10.9124 6.96 C 10.9688 6.8467 10.9085 6.7067 10.7838 6.6707 C 10.7213 6.6528 10.6677 6.674 10.6066 6.6837 C 10.549 6.6927 10.4898 6.6931 10.4315 6.6891 C 10.2946 6.6798 10.1594 6.6477 10.0285 6.6085 C 9.7662 6.5304 9.5123 6.4207 9.271 6.2937 C 9.4789 6.076 9.7524 5.925 10.0505 5.863 C 10.2696 5.8173 10.5353 5.8052 10.7487 5.8828 L 11.4423 6.1355 C 11.4879 6.152 11.5355 6.1737 11.5838 6.1804 C 11.7282 6.2004 11.8666 6.1019 11.8923 5.9619 C 11.9153 5.8356 11.8401 5.7082 11.7176 5.6635 L 11.1971 5.4741 C 11.1971 5.4741 11.2018 5.3948 11.2007 5.364 C 11.1948 5.2104 11.1716 5.0573 11.1315 4.9085 C 11.0511 4.6099 10.9024 4.33 10.6992 4.0936 C 10.3343 3.669 9.8044 3.3992 9.2394 3.3508 C 8.6908 3.3041 8.1342 3.4668 7.7045 3.8041 C 7.2668 4.1477 6.98 4.653 6.9144 5.198 C 6.8502 5.7314 6.9991 6.2797 7.3295 6.7094 C 7.4196 6.8267 7.5223 6.9339 7.6353 7.0305 C 7.2501 7.1213 4.7499 7.3318 4.526 7.3608 C 4.4172 7.3749 4.3081 7.3877 4.1987 7.397 C 4.1467 7.4015 3.9856 7.4182 3.9856 7.4182 C 3.9856 7.4182 3.868 7.3889 3.8375 7.3773 C 3.7703 7.3523 3.7044 7.3243 3.6389 7.2955 C 3.5123 7.2396 3.3875 7.1797 3.2636 7.1179 C 3.0228 6.9975 2.7856 6.8705 2.5507 6.7399 C 2.8847 6.4478 3.2186 6.1556 3.5528 5.8635 C 4.0978 5.387 4.6427 4.9104 5.1877 4.4338 C 5.3249 4.3139 5.4622 4.1938 5.5994 4.0739 C 5.7559 3.937 5.9019 3.7866 6.0494 3.6407 C 6.279 3.4136 6.5041 3.1819 6.7218 2.9438 C 7.0452 2.5903 7.3563 2.2225 7.6251 1.827 C 7.7941 1.5786 7.9507 1.3161 8.0538 1.0341 C 8.1479 0.7759 8.2153 0.4423 8.0343 0.2032 C 7.9688 0.1165 7.8268 -0.0538 7.7588 0.0167 C 7.6907 0.0872 7.0096 0.1063 7 0.1172 C 6.8868 0.2457 6.15 0.397 6.0367 0.5256 C 5.6448 0.9705 5.2531 1.4155 4.8611 1.8604 C 4.3599 2.4294 3.8586 2.9986 3.3573 3.5677 C 2.8802 4.1096 2.403 4.6515 1.9257 5.1934 C 1.6058 5.5565 2.5587 5.9196 2.239 6.2828 C 2.1796 6.35 2.1205 6.4172 2.0613 6.4844 C 2.0446 6.5034 1.98 6.4716 1.9573 6.4679 C 1.8197 6.4453 1.6769 6.4553 1.5441 6.4967 C 1.2574 6.5861 1.0329 6.8207 0.961 7.1063 C 0.9243 7.2527 0.928 7.4079 0.9713 7.5525 C 0.9909 7.6274 1.0226 7.6695 1.0226 7.6695 L 0.8143 7.8981 C 0.8143 7.8981 0.5198 7.8777 0.3008 8.0918 C 0.1013 8.2869 -0.024 8.549 0.0039 8.8235 C 0.0174 8.957 0.063 9.0867 0.1371 9.1996 C 0.1919 9.2833 0.2632 9.3511 0.3344 9.4209 C 0.7996 9.8781 1.2759 10.3278 1.7837 10.7401 C 2.1451 11.0336 2.5392 11.3418 3.0125 11.4282 C 3.3477 11.4894 3.7021 11.4645 4.04 11.4415 C 4.3977 11.417 4.7543 11.3787 5.11 11.3356 C 5.1865 11.3263 5.263 11.3167 5.3394 11.3069 C 5.3586 11.3044 5.3961 11.3018 5.3961 11.3018 L 5.7234 12.8362 C 5.7333 12.8818 5.7518 12.9133 5.7267 12.9524 C 5.6702 13.0405 5.6137 13.1287 5.5571 13.2169 C 5.2466 13.7017 4.9362 14.1866 4.6254 14.6713 C 4.4615 14.9266 4.389 15.2184 4.4579 15.517 C 4.4736 15.5839 4.4974 15.6478 4.5203 15.7125 L 5.7467 19.1573 C 5.7645 19.2072 5.7823 19.2569 5.7999 19.3066 C 5.867 19.4952 5.9877 19.6622 6.149 19.7852 C 6.5903 20.1217 7.2441 20.0563 7.6033 19.6351 C 7.7729 19.4363 7.8616 19.1771 7.8465 18.9184 C 7.8409 18.8201 7.8171 18.7262 7.7899 18.6322 C 7.6199 18.0452 7.4498 17.4581 7.2799 16.871 C 7.1863 16.5479 7.0927 16.2247 6.9992 15.9016 C 6.9705 15.8027 6.89 15.5067 6.89 15.5067 L 7.4774 14.7126 C 7.4774 14.7126 8.8768 14.7319 9.0505 14.7186 C 9.0643 14.7177 9.1624 14.7107 9.1624 14.7107 L 9.9872 16.1494 C 10.4294 16.75 10.9048 17.4548 11.2787 18.1073 C 11.5191 18.5266 11.7595 18.9459 11.9998 19.3652 C 12.1608 19.6459 12.4087 19.8559 12.7379 19.9224 C 13.2817 20.0321 13.8319 19.693 13.9681 19.1675 C 14.0285 18.9346 14.0025 18.6852 13.8958 18.4688 ZM 4.1812 9.4588 C 4.1523 9.463 4.1428 9.4644 4.1445 9.4641 C 3.8945 9.5002 3.6417 9.5355 3.3889 9.5429 C 3.334 9.5446 3.2946 9.514 3.2485 9.4861 C 3.1872 9.4489 3.1271 9.4099 3.0676 9.3699 C 2.9485 9.2896 2.8322 9.2054 2.7171 9.1196 C 2.3227 8.8257 1.9426 8.5129 1.5697 8.1934 C 1.846 8.3807 2.1259 8.5634 2.4117 8.7365 C 2.6977 8.9093 2.9899 9.0757 3.3019 9.1998 C 3.7316 9.3707 4.9627 9.288 4.9627 9.288 C 4.9627 9.288 4.9686 9.3153 4.9715 9.3291 C 4.7112 9.3757 4.3522 9.4338 4.1812 9.4588 ZM 9.4399 7.3421 C 9.2625 7.3051 9.0957 7.2289 8.9413 7.1375 C 8.9216 7.1257 8.9022 7.1138 8.8828 7.1016 C 8.8855 7.0812 8.8885 7.0608 8.8922 7.0405 C 8.9004 6.9933 8.9111 6.9464 8.9241 6.9003 C 8.9501 6.8081 8.9854 6.7185 9.0292 6.6331 C 9.4207 6.8438 9.8528 7.0322 10.2992 7.0887 C 10.0676 7.3127 9.7598 7.4088 9.4399 7.3421 Z" fill="#0053a0"/>
	</g>
</svg>