<?xml version="1.0" standalone="no"?>
<!-- Generator: Adobe Fireworks 10, Export SVG Extension by Aaron Beall (http://fireworks.abeall.com) . Version: 0.6.1  -->
<!DOCTYPE svg PUBLIC "-//W3C//DTD SVG 1.1//EN" "http://www.w3.org/Graphics/SVG/1.1/DTD/svg11.dtd">
<svg id="Untitled-Page%201" viewBox="0 0 25 20" style="background-color:#ffffff00" version="1.1"
	xmlns="http://www.w3.org/2000/svg" xmlns:xlink="http://www.w3.org/1999/xlink" xml:space="preserve"
	x="0px" y="0px" width="25px" height="20px"
>
	<g id="Layer%201">
		<path d="M 24.6039 0 L 0.3961 0 C 0.1776 0 0 0.1796 0 0.4017 L 0 19.5983 C 0 19.8203 0.1776 20 0.3961 20 L 24.6039 20 C 24.8228 20 25 19.8203 25 19.5983 L 25 0.4017 C 25 0.1796 24.8228 0 24.6039 0 ZM 23 18.3867 L 16.452 11.0659 L 12.6736 16.4391 L 7.7125 8.4134 L 2 18.1874 L 2 2 L 23 2 L 23 18.3867 ZM 16.1406 8.2134 C 17.2133 8.2134 18.084 7.331 18.084 6.2427 C 18.084 5.1544 17.2133 4.2712 16.1406 4.2712 C 15.0672 4.2712 14.1977 5.1544 14.1977 6.2427 C 14.1977 7.331 15.0672 8.2134 16.1406 8.2134 Z" fill="#8a9bac"/>
	</g>
</svg>