<?xml version="1.0" standalone="no"?>
<!-- Generator: Adobe Fireworks 10, Export SVG Extension by Aaron Beall (http://fireworks.abeall.com) . Version: 0.6.1  -->
<!DOCTYPE svg PUBLIC "-//W3C//DTD SVG 1.1//EN" "http://www.w3.org/Graphics/SVG/1.1/DTD/svg11.dtd">
<svg id="Untitled-Page%201" viewBox="0 0 14 14" style="background-color:#ffffff00" version="1.1"
	xmlns="http://www.w3.org/2000/svg" xmlns:xlink="http://www.w3.org/1999/xlink" xml:space="preserve"
	x="0px" y="0px" width="14px" height="14px"
>
	<g id="Layer%201">
		<path d="M 1.3398 6.0065 C 1.3398 3.4335 3.4335 1.3403 6.0065 1.3403 C 8.5796 1.3403 10.6741 3.4335 10.6741 6.0065 C 10.6741 8.58 8.5796 10.6736 6.0065 10.6736 C 3.4335 10.6736 1.3398 8.58 1.3398 6.0065 ZM 14 13.218 L 10.6267 9.8442 C 11.4926 8.8029 12.0131 7.4662 12.0131 6.0065 C 12.0131 2.6893 9.3242 0 6.0065 0 C 2.6897 0 0 2.6893 0 6.0065 C 0 9.3238 2.6897 12.013 6.0065 12.013 C 7.4667 12.013 8.8029 11.4921 9.8438 10.6262 L 13.217 14 L 14 13.218 Z" fill="#888888"/>
	</g>
</svg>